<?xml version="1.0" encoding="UTF-8" standalone="no"?><!DOCTYPE svg PUBLIC "-//W3C//DTD SVG 1.1//EN" "http://www.w3.org/Graphics/SVG/1.1/DTD/svg11.dtd"><svg width="100%" height="100%" viewBox="0 0 128 137" version="1.1" xmlns="http://www.w3.org/2000/svg" xmlns:xlink="http://www.w3.org/1999/xlink" xml:space="preserve" style="fill-rule:evenodd;clip-rule:evenodd;stroke-linejoin:round;stroke-miterlimit:1.41421;"><path d="M35.711,103.34c0,-1.448 0.493,-4.232 4.273,-6.445l-12.355,-29.926l2.309,0l12.701,30.795c-3.548,0.714 -5.344,4.063 -4.948,5.542l0.009,0.034c1.172,2.101 4.32,3.653 8.185,4.746c5.655,1.446 12.926,2.067 17.538,2.138l0.383,-0.007c4.624,-0.099 11.654,-0.724 17.154,-2.131c3.865,-1.093 7.013,-2.645 8.185,-4.746l0.01,-0.034c0.395,-1.479 -1.401,-4.828 -4.949,-5.542l12.701,-30.795l2.309,0l-12.355,29.926c3.721,2.179 4.257,4.91 4.273,6.376l0,0.069c0,0.019 0,0.038 -0.001,0.056l-0.001,0.056c-0.007,0.171 -0.03,0.341 -0.068,0.51c-0.064,0.281 -0.172,0.559 -0.32,0.832c-0.022,0.041 -0.044,0.081 -0.068,0.121c-0.047,0.079 -0.097,0.158 -0.15,0.237l-0.027,0.038l-0.019,0.027c-0.037,0.052 -0.075,0.104 -0.115,0.156c-0.208,0.27 -0.456,0.534 -0.743,0.794l-0.056,0.05c-0.056,0.05 -0.114,0.1 -0.173,0.149c-0.199,0.166 -0.413,0.329 -0.642,0.49c-0.191,0.134 -0.392,0.266 -0.604,0.397c-0.078,0.047 -0.157,0.095 -0.238,0.142c-0.153,0.091 -0.312,0.18 -0.475,0.268c-0.26,0.141 -0.532,0.279 -0.816,0.414c-0.194,0.093 -0.394,0.185 -0.599,0.275c-0.759,0.333 -1.591,0.649 -2.489,0.944c-1.848,0.609 -3.975,1.135 -6.318,1.556l-0.292,0.052c-0.292,0.051 -0.588,0.1 -0.886,0.148l-0.3,0.047l-0.302,0.047c-0.78,0.117 -1.58,0.223 -2.398,0.318l-0.087,0.01l-0.319,0.036c-0.115,0.013 -0.231,0.025 -0.346,0.037l-0.298,0.031l-0.114,0.011c-0.394,0.04 -0.792,0.077 -1.194,0.111l-0.331,0.027c-0.87,0.07 -1.757,0.127 -2.658,0.171l-0.047,0.002l-0.008,0.001l-0.336,0.015l-0.048,0.002c-1.135,0.049 -2.292,0.077 -3.467,0.081l-0.358,0.001c-1.195,0 -2.373,-0.024 -3.528,-0.07l-0.346,-0.014l-0.261,-0.012l-0.083,-0.004l-0.047,-0.002c-0.872,-0.042 -1.731,-0.097 -2.574,-0.164c-0.471,-0.038 -0.937,-0.079 -1.398,-0.124l-0.324,-0.032c-0.397,-0.04 -0.79,-0.083 -1.178,-0.129c-1.62,-0.19 -3.167,-0.426 -4.626,-0.703l-0.285,-0.055c-0.1,-0.02 -0.199,-0.04 -0.299,-0.059c-0.275,-0.056 -0.547,-0.113 -0.816,-0.171c-1.234,-0.267 -2.396,-0.565 -3.474,-0.89c-1.1,-0.332 -2.113,-0.692 -3.026,-1.077c-0.378,-0.159 -0.739,-0.322 -1.082,-0.489c-0.217,-0.106 -0.427,-0.214 -0.629,-0.323c-0.177,-0.095 -0.349,-0.191 -0.514,-0.289c-0.08,-0.046 -0.158,-0.093 -0.234,-0.14c-0.289,-0.178 -0.559,-0.359 -0.809,-0.543l-0.129,-0.098c-0.125,-0.095 -0.244,-0.191 -0.358,-0.288c-0.042,-0.035 -0.083,-0.071 -0.124,-0.107l-0.056,-0.05c-0.269,-0.244 -0.504,-0.492 -0.704,-0.745c-0.092,-0.116 -0.177,-0.233 -0.253,-0.352c-0.055,-0.083 -0.105,-0.167 -0.151,-0.251c-0.266,-0.481 -0.404,-0.975 -0.404,-1.479Zm6.928,-5.576c0,0 -1.154,1.154 -1.154,1.154l1.154,-1.154Z" style="fill:#fff;"/><path d="M81.347,58.312c-1.907,1.004 -2.914,2.15 -2.914,3.317c0,3.584 9.313,6.495 20.783,6.495c11.471,0 20.784,-2.911 20.784,-6.495c0,-1.167 -1.007,-2.313 -2.914,-3.317l-1.282,0.238c2.467,1.082 3.232,2.133 2.704,3.079c-2.157,3.867 -13.245,5.256 -19.292,5.163c-6.046,-0.093 -17.235,-0.763 -19.291,-5.163c-0.459,-0.982 0.201,-2.042 2.704,-3.079l-1.282,-0.238Z" style="fill:#fff;"/><path d="M10.914,58.312c-1.907,1.004 -2.914,2.15 -2.914,3.317c0,3.584 9.313,6.495 20.784,6.495c11.47,0 20.783,-2.911 20.783,-6.495c0,-1.167 -1.007,-2.313 -2.914,-3.317l-1.282,0.238c2.467,1.082 3.232,2.133 2.704,3.079c-2.157,3.867 -13.245,5.256 -19.291,5.163c-6.047,-0.093 -17.236,-0.763 -19.292,-5.163c-0.459,-0.982 0.201,-2.042 2.704,-3.079l-1.282,-0.238Z" style="fill:#fff;"/><g><g><g><g><path d="M56.154,90.82c-4.457,0.929 -9.985,5 -10.492,12.691c-0.001,0.029 35.546,0.04 35.546,0c0.103,-7.619 -7.286,-12.024 -11.185,-12.691c-0.8,-0.137 -2.025,-1.007 -2.08,-2.427c-0.045,-1.138 4.898,-4.514 4.854,-10.748c-0.045,-6.234 -4.329,-11.538 -9.362,-11.441c-4.295,0.083 -9.516,4.761 -9.361,11.441c0.151,6.514 4.931,9.472 4.854,10.748c-0.096,1.605 -1.447,2.151 -2.774,2.427Z" style="fill:#fff;"/></g></g></g></g><g><g><g><g><path d="M93.052,51.613c-3.63,0.757 -8.132,4.072 -8.545,10.336c-0.001,0.023 28.95,0.032 28.95,0c0.084,-6.205 -5.934,-9.793 -9.11,-10.336c-0.651,-0.111 -1.648,-0.821 -1.694,-1.977c-0.036,-0.927 3.99,-3.677 3.953,-8.753c-0.036,-5.078 -3.525,-9.398 -7.624,-9.319c-3.498,0.068 -7.75,3.878 -7.624,9.319c0.123,5.305 4.016,7.714 3.953,8.753c-0.078,1.308 -1.178,1.752 -2.259,1.977Z" style="fill:#fff;"/></g></g></g></g><g><g><g><g><path d="M22.619,51.613c-3.63,0.757 -8.132,4.072 -8.545,10.336c-0.001,0.023 28.95,0.032 28.95,0c0.084,-6.205 -5.934,-9.793 -9.11,-10.336c-0.651,-0.111 -1.648,-0.821 -1.694,-1.977c-0.036,-0.927 3.99,-3.677 3.953,-8.753c-0.036,-5.078 -3.525,-9.398 -7.624,-9.319c-3.498,0.068 -7.75,3.878 -7.624,9.319c0.123,5.305 4.016,7.714 3.953,8.753c-0.078,1.308 -1.178,1.752 -2.259,1.977Z" style="fill:#fff;"/></g></g></g></g></svg>