<?xml version="1.0" encoding="UTF-8" standalone="no"?>
<!DOCTYPE svg PUBLIC "-//W3C//DTD SVG 1.1//EN" "http://www.w3.org/Graphics/SVG/1.1/DTD/svg11.dtd">
<svg width="100%" height="100%" viewBox="0 0 200 200" version="1.1" xmlns="http://www.w3.org/2000/svg" xmlns:xlink="http://www.w3.org/1999/xlink" xml:space="preserve" style="fill-rule:evenodd;clip-rule:evenodd;stroke-linecap:round;stroke-linejoin:round;stroke-miterlimit:1.5;">
    <rect x="0" y="0" width="200" height="200" style="fill:rgb(233,30,99);"/>
    <g transform="matrix(1.83046,0,0,1.83046,-1007.84,-32.2084)">
        <g transform="matrix(0.64375,0,0,0.64375,185.775,-19.5562)">
            <circle cx="652" cy="143" r="80" style="fill:none;stroke:white;stroke-width:3.3px;"/>
        </g>
        <g transform="matrix(2.72533,0,0,1.94666,-330.357,-302.399)">
            <ellipse cx="337.5" cy="184" rx="2.5" ry="4" style="fill:white;"/>
        </g>
        <g transform="matrix(2.72533,0,0,1.94666,-297.264,-302.399)">
            <ellipse cx="337.5" cy="184" rx="2.5" ry="4" style="fill:white;"/>
        </g>
        <g transform="matrix(1.94666,0,0,1.94666,-67.5581,-302.399)">
            <path d="M327,192C327,192 328.133,211.527 345,212C363.519,212.52 365.197,192.278 365,192C364.975,191.965 361.581,197.94 347,198C332.419,198.06 327,192 327,192Z" style="fill:white;"/>
        </g>
    </g>
</svg>
