<?xml version="1.0" encoding="UTF-8" standalone="no"?>
<!DOCTYPE svg PUBLIC "-//W3C//DTD SVG 1.1//EN" "http://www.w3.org/Graphics/SVG/1.1/DTD/svg11.dtd">
<svg width="100%" height="100%" viewBox="0 0 200 200" version="1.1" xmlns="http://www.w3.org/2000/svg" xmlns:xlink="http://www.w3.org/1999/xlink" xml:space="preserve" style="fill-rule:evenodd;clip-rule:evenodd;stroke-linecap:round;stroke-linejoin:round;stroke-miterlimit:1.5;">
    <rect x="0" y="0" width="200" height="200" style="fill:rgb(233,30,99);"/>
    <g transform="matrix(1.83046,0,0,1.83046,-68.8176,-390.21)">
        <g transform="matrix(0.64375,0,0,0.64375,-327.225,176.444)">
            <circle cx="652" cy="143" r="80" style="fill:none;stroke:white;stroke-width:3.3px;"/>
        </g>
        <g transform="matrix(2.44828,0,0,2.85632,-701.966,-47.9195)">
            <circle cx="317" cy="107" r="3" style="fill:white;"/>
        </g>
        <g transform="matrix(2.44828,0,0,2.44828,-702.966,-3.03448)">
            <path d="M316,125C316,125 322.083,122.998 325,123C327.917,123.002 334,125 334,125C334,125 331.354,117.841 325,118C318.646,118.159 316.514,121.454 316,125" style="fill:white;"/>
        </g>
        <g transform="matrix(1.74274,-1.71956,1.71956,1.74274,-648.813,613.436)">
            <path d="M319,97.5C319,97.224 318.776,97 318.5,97L309.5,97C309.224,97 309,97.224 309,97.5L309,98.5C309,98.776 309.224,99 309.5,99L318.5,99C318.776,99 319,98.776 319,98.5L319,97.5Z" style="fill:white;"/>
        </g>
        <g transform="matrix(-2.44828,0,0,2.85632,886.966,-47.9195)">
            <circle cx="317" cy="107" r="3" style="fill:white;"/>
        </g>
        <g transform="matrix(-1.74274,-1.71956,-1.71956,1.74274,833.813,613.436)">
            <path d="M319,97.5C319,97.224 318.776,97 318.5,97L309.5,97C309.224,97 309,97.224 309,97.5L309,98.5C309,98.776 309.224,99 309.5,99L318.5,99C318.776,99 319,98.776 319,98.5L319,97.5Z" style="fill:white;"/>
        </g>
    </g>
</svg>
