<?xml version="1.0" encoding="UTF-8" standalone="no"?>
<!DOCTYPE svg PUBLIC "-//W3C//DTD SVG 1.1//EN" "http://www.w3.org/Graphics/SVG/1.1/DTD/svg11.dtd">
<svg width="100%" height="100%" viewBox="0 0 200 200" version="1.1" xmlns="http://www.w3.org/2000/svg" xmlns:xlink="http://www.w3.org/1999/xlink" xml:space="preserve" style="fill-rule:evenodd;clip-rule:evenodd;stroke-linecap:round;stroke-linejoin:round;stroke-miterlimit:1.5;">
    <rect x="0" y="0" width="200" height="200" style="fill:rgb(233,30,99);"/>
    <g transform="matrix(1.83046,0,0,1.83046,-63.3262,-31.4397)">
        <g transform="matrix(0.64375,0,0,0.64375,-330.225,-19.5563)">
            <circle cx="652" cy="143" r="80" style="fill:none;stroke:white;stroke-width:3.3px;"/>
        </g>
        <g transform="matrix(0.639752,0,0,0.639752,-75.236,-19.9441)">
            <path d="M313.435,155.992L313.782,156.063L314.117,156.173L314.438,156.322L314.739,156.507L315.017,156.726L315.267,156.976L315.487,157.253L315.673,157.553L315.823,157.873L315.934,158.208L316.007,158.554L316.038,158.906L316.028,159.26L315.978,159.61L315.887,159.951L315.844,160.081L315.787,160.248L315.711,160.467L315.615,160.735L315.557,160.892L315.496,161.06L315.428,161.239L315.356,161.431L315.277,161.634L315.194,161.849L315.104,162.074L315.009,162.312L314.909,162.559L314.802,162.818L314.69,163.087L314.572,163.366L314.448,163.655L314.318,163.953L314.182,164.261L314.04,164.579L313.892,164.905L313.738,165.24L313.578,165.584L313.411,165.936L313.238,166.296L313.058,166.664L312.873,167.039L312.68,167.422L312.483,167.811L312.38,168.01L312.276,168.21L312.171,168.411L312.064,168.614L311.956,168.818L311.845,169.024L311.734,169.232L311.62,169.441L311.505,169.652L311.388,169.864L311.269,170.077L311.149,170.292L311.026,170.509L310.903,170.726L310.777,170.945L310.65,171.166L310.52,171.388L310.39,171.61L310.257,171.835L310.123,172.06L309.986,172.287L309.848,172.514L309.709,172.743L309.567,172.973L309.424,173.204L309.279,173.436L309.132,173.669L308.983,173.903L308.832,174.138L308.679,174.373L308.525,174.61L308.369,174.847L308.211,175.086L308.051,175.325L307.889,175.565L307.725,175.805L307.56,176.047L307.392,176.289L307.223,176.531L307.051,176.775L306.878,177.019L306.703,177.263L306.526,177.508L306.347,177.754L306.166,177.999L305.983,178.246L305.798,178.493L305.611,178.74L305.422,178.987L305.231,179.235L305.038,179.484L304.843,179.732L304.647,179.981L304.448,180.23L304.247,180.479L304.044,180.728L303.839,180.977L303.632,181.227L303.423,181.477L303.212,181.726L302.999,181.976L302.783,182.225L302.566,182.475L302.347,182.724L302.125,182.974L301.902,183.223L301.676,183.472L301.448,183.721L301.218,183.969L300.986,184.218L300.752,184.466L300.515,184.713L300.277,184.961L300.036,185.208L299.793,185.454L299.549,185.7L299.301,185.946L299.052,186.191L298.8,186.436L298.547,186.68L298.291,186.923L298.033,187.166L297.772,187.409L297.51,187.65L297.245,187.891L296.978,188.131L296.708,188.37L296.437,188.609L296.163,188.847L295.887,189.083L295.608,189.319L295.328,189.554L295.045,189.788L294.759,190.021L294.472,190.253L294.182,190.484L293.89,190.714L293.595,190.943L293.299,191.171L292.999,191.397L292.698,191.622L292.394,191.846L292.088,192.069L291.779,192.29L291.468,192.511L291.155,192.729L290.839,192.947L290.521,193.163L290.201,193.377L289.878,193.59L289.553,193.801L289.225,194.011L288.895,194.22L288.563,194.426L288.23,194.63L288.06,194.733L287.891,194.835L287.721,194.936L287.551,195.037L287.38,195.137L287.209,195.236L287.037,195.336L286.864,195.435L286.691,195.533L286.517,195.631L286.343,195.728L286.168,195.826L285.992,195.922L285.816,196.018L285.639,196.114L285.462,196.209L285.283,196.304L285.105,196.398L284.925,196.491L284.745,196.585L284.565,196.677L284.384,196.77L284.202,196.861L284.019,196.952L283.836,197.043L283.653,197.133L283.468,197.223L283.283,197.312L283.098,197.4L282.912,197.488L282.725,197.576L282.538,197.663L282.349,197.749L282.161,197.835L281.972,197.92L281.782,198.005L281.591,198.089L281.4,198.173L281.208,198.256L281.016,198.338L280.823,198.42L280.629,198.502L280.435,198.582L280.24,198.662L280.044,198.742L279.848,198.821L279.651,198.899L279.454,198.977L279.256,199.054L279.057,199.131L278.858,199.207L278.658,199.282L278.457,199.356L278.256,199.43L278.054,199.504L277.852,199.577L277.649,199.649L277.445,199.72L277.24,199.791L277.035,199.861L276.83,199.931L276.624,200L276.417,200.068L276.209,200.135L276.001,200.202L275.792,200.268L275.583,200.334L275.372,200.399L275.162,200.463L274.95,200.526L274.738,200.589L274.526,200.651L274.312,200.712L274.098,200.773L273.884,200.833L273.669,200.892L273.453,200.951L273.236,201.008L273.019,201.066L272.802,201.122L272.583,201.177L272.364,201.232L272.144,201.286L271.924,201.34L271.703,201.392L271.482,201.444L271.259,201.495L271.036,201.546L270.813,201.595L270.589,201.644L270.364,201.692L270.138,201.74L269.912,201.786L269.686,201.832L269.458,201.877L269.23,201.921L269.002,201.964L268.772,202.007L268.542,202.049L268.312,202.09L268.08,202.13L267.849,202.169L267.616,202.208L267.383,202.246L267.149,202.283L266.915,202.319L266.679,202.354L266.444,202.388L266.207,202.422L265.97,202.455L265.732,202.487L265.494,202.518L265.255,202.548L265.016,202.577L264.775,202.606L264.534,202.633L264.293,202.66L264.051,202.686L263.808,202.711L263.564,202.735L263.32,202.759L263.075,202.781L262.83,202.803L262.584,202.823L262.337,202.843L262.089,202.862L261.841,202.88L261.593,202.897L261.343,202.913L261.093,202.928L260.843,202.943L260.591,202.956L260.339,202.969L260.087,202.98L259.833,202.991L259.579,203.001L259.325,203.009L259.07,203.017L258.814,203.024L258.557,203.03L258.3,203.035L258.042,203.039L257.783,203.042L257.525,203.044L257.268,203.045L257.011,203.045L256.755,203.045L256.499,203.043L256.244,203.04L255.99,203.036L255.736,203.031L255.483,203.025L255.23,203.018L254.979,203.011L254.728,203.002L254.477,202.992L254.227,202.981L253.978,202.97L253.729,202.957L253.481,202.944L253.234,202.929L252.987,202.914L252.741,202.897L252.495,202.88L252.25,202.862L252.006,202.843L251.762,202.823L251.519,202.802L251.277,202.78L251.035,202.757L250.794,202.733L250.554,202.708L250.314,202.683L250.075,202.656L249.836,202.629L249.598,202.601L249.361,202.572L249.124,202.542L248.888,202.511L248.653,202.479L248.418,202.446L248.184,202.413L247.95,202.379L247.717,202.343L247.485,202.307L247.253,202.27L247.022,202.233L246.792,202.194L246.562,202.155L246.333,202.114L246.104,202.073L245.876,202.031L245.649,201.988L245.422,201.945L245.196,201.9L244.971,201.855L244.746,201.809L244.522,201.762L244.299,201.715L244.076,201.666L243.854,201.617L243.632,201.567L243.411,201.516L243.19,201.464L242.971,201.412L242.752,201.359L242.533,201.305L242.315,201.25L242.098,201.195L241.881,201.138L241.665,201.081L241.45,201.024L241.235,200.965L241.021,200.906L240.808,200.846L240.595,200.785L240.383,200.724L240.171,200.662L239.96,200.599L239.75,200.535L239.54,200.471L239.331,200.406L239.122,200.34L238.914,200.274L238.707,200.207L238.501,200.139L238.295,200.07L238.089,200.001L237.885,199.931L237.68,199.861L237.477,199.789L237.274,199.717L237.072,199.645L236.87,199.572L236.669,199.498L236.469,199.423L236.269,199.348L236.07,199.272L235.871,199.196L235.673,199.119L235.476,199.041L235.279,198.962L235.083,198.883L234.888,198.804L234.693,198.724L234.499,198.643L234.305,198.561L234.112,198.479L233.92,198.396L233.728,198.313L233.537,198.229L233.347,198.145L233.157,198.06L232.967,197.974L232.779,197.888L232.591,197.801L232.403,197.714L232.217,197.626L232.03,197.537L231.845,197.448L231.66,197.359L231.476,197.269L231.292,197.178L231.109,197.087L230.926,196.995L230.744,196.903L230.563,196.81L230.382,196.717L230.202,196.623L230.023,196.529L229.844,196.434L229.666,196.339L229.488,196.243L229.311,196.146L229.134,196.05L228.959,195.952L228.783,195.854L228.609,195.756L228.435,195.657L228.261,195.558L228.089,195.458L227.916,195.358L227.745,195.258L227.574,195.157L227.403,195.055L227.234,194.953L227.064,194.851L226.896,194.748L226.728,194.644L226.558,194.539L226.227,194.332L225.897,194.122L225.568,193.91L225.243,193.696L224.919,193.481L224.598,193.264L224.279,193.046L223.963,192.826L223.649,192.605L223.337,192.382L223.028,192.158L222.721,191.933L222.416,191.706L222.113,191.478L221.813,191.249L221.515,191.019L221.22,190.787L220.927,190.555L220.636,190.321L220.347,190.086L220.061,189.85L219.777,189.613L219.495,189.375L219.216,189.136L218.938,188.896L218.663,188.655L218.391,188.414L218.12,188.172L217.852,187.928L217.586,187.684L217.322,187.44L217.06,187.194L216.8,186.948L216.543,186.701L216.288,186.454L216.035,186.206L215.785,185.958L215.536,185.709L215.29,185.459L215.045,185.209L214.803,184.959L214.563,184.709L214.326,184.457L214.09,184.206L213.856,183.954L213.625,183.703L213.396,183.45L213.168,183.198L212.943,182.946L212.72,182.693L212.499,182.44L212.28,182.187L212.064,181.934L211.849,181.681L211.636,181.429L211.426,181.176L211.217,180.923L211.01,180.67L210.806,180.418L210.603,180.166L210.403,179.913L210.204,179.661L210.008,179.41L209.814,179.158L209.621,178.907L209.431,178.657L209.242,178.406L209.056,178.157L208.871,177.907L208.688,177.658L208.508,177.41L208.329,177.162L208.152,176.914L207.977,176.668L207.804,176.421L207.633,176.176L207.464,175.931L207.297,175.687L207.132,175.444L206.968,175.201L206.807,174.959L206.647,174.718L206.489,174.478L206.333,174.239L206.179,174.001L206.027,173.763L205.877,173.527L205.728,173.292L205.582,173.057L205.437,172.824L205.294,172.592L205.152,172.361L205.013,172.131L204.875,171.903L204.74,171.675L204.606,171.449L204.473,171.224L204.343,171.001L204.214,170.779L204.087,170.558L203.962,170.338L203.839,170.121L203.717,169.904L203.597,169.689L203.479,169.476L203.363,169.264L203.248,169.053L203.135,168.844L203.023,168.637L202.914,168.432L202.806,168.228L202.7,168.026L202.595,167.826L202.491,167.625L202.292,167.236L202.097,166.852L201.91,166.476L201.729,166.108L201.555,165.748L201.387,165.396L201.225,165.054L201.07,164.72L200.921,164.395L200.778,164.08L200.642,163.774L200.512,163.479L200.388,163.193L200.27,162.918L200.158,162.653L200.052,162.399L199.951,162.157L199.857,161.925L199.769,161.706L199.686,161.498L199.61,161.302L199.539,161.118L199.473,160.947L199.412,160.786L199.311,160.511L199.23,160.287L199.17,160.117L199.124,159.984L199.03,159.644L198.975,159.295L198.961,158.942L198.989,158.589L199.057,158.242L199.164,157.906L199.311,157.584L199.493,157.281L199.71,157.002L199.957,156.75L200.232,156.528L200.531,156.339L200.85,156.187L201.184,156.072L201.53,155.997L201.882,155.963L202.235,155.97L202.585,156.017L202.927,156.106L203.257,156.233L203.57,156.397L203.861,156.597L204.128,156.83L204.365,157.091L204.571,157.379L204.742,157.688L204.876,158.015L204.912,158.122L204.955,158.244L205.02,158.423L205.106,158.657L205.156,158.79L205.213,158.937L205.274,159.097L205.342,159.268L205.414,159.451L205.492,159.646L205.576,159.852L205.666,160.069L205.761,160.297L205.862,160.535L205.968,160.783L206.081,161.042L206.199,161.31L206.323,161.588L206.453,161.875L206.589,162.171L206.73,162.476L206.878,162.79L207.032,163.112L207.192,163.442L207.358,163.78L207.53,164.125L207.709,164.478L207.894,164.84L207.988,165.021L208.084,165.205L208.182,165.391L208.281,165.578L208.382,165.768L208.485,165.958L208.589,166.151L208.694,166.344L208.802,166.54L208.911,166.736L209.021,166.935L209.133,167.134L209.247,167.335L209.362,167.537L209.479,167.741L209.598,167.945L209.718,168.152L209.84,168.359L209.964,168.567L210.089,168.777L210.216,168.987L210.344,169.199L210.474,169.412L210.606,169.626L210.74,169.841L210.875,170.057L211.011,170.273L211.15,170.491L211.29,170.71L211.432,170.929L211.576,171.149L211.721,171.37L211.868,171.592L212.016,171.814L212.167,172.038L212.319,172.262L212.473,172.486L212.628,172.711L212.785,172.937L212.944,173.163L213.105,173.39L213.267,173.617L213.431,173.845L213.597,174.073L213.765,174.302L213.934,174.53L214.106,174.76L214.278,174.989L214.453,175.219L214.63,175.449L214.808,175.68L214.988,175.91L215.169,176.141L215.353,176.372L215.538,176.603L215.725,176.834L215.914,177.065L216.105,177.296L216.298,177.527L216.492,177.758L216.688,177.989L216.886,178.22L217.086,178.451L217.287,178.681L217.491,178.912L217.696,179.142L217.903,179.372L218.112,179.601L218.322,179.831L218.535,180.06L218.749,180.288L218.966,180.517L219.184,180.745L219.404,180.972L219.625,181.199L219.849,181.425L220.075,181.651L220.302,181.877L220.531,182.101L220.763,182.326L220.996,182.549L221.231,182.772L221.467,182.994L221.706,183.215L221.947,183.436L222.189,183.656L222.434,183.875L222.68,184.093L222.928,184.31L223.179,184.527L223.431,184.742L223.685,184.957L223.941,185.17L224.199,185.383L224.459,185.594L224.72,185.805L224.984,186.014L225.25,186.222L225.518,186.429L225.787,186.635L226.059,186.84L226.332,187.043L226.608,187.246L226.885,187.447L227.165,187.646L227.447,187.844L227.73,188.041L228.016,188.237L228.303,188.431L228.593,188.624L228.884,188.815L229.178,189.004L229.473,189.192L229.773,189.38L229.921,189.472L230.071,189.564L230.221,189.656L230.372,189.747L230.524,189.838L230.676,189.929L230.829,190.019L230.982,190.109L231.136,190.199L231.29,190.288L231.445,190.376L231.6,190.464L231.756,190.552L231.912,190.639L232.069,190.726L232.226,190.812L232.384,190.898L232.542,190.984L232.701,191.069L232.861,191.153L233.021,191.237L233.181,191.321L233.342,191.404L233.504,191.487L233.666,191.569L233.828,191.651L233.991,191.732L234.155,191.812L234.319,191.893L234.484,191.972L234.649,192.052L234.815,192.13L234.981,192.209L235.148,192.286L235.315,192.364L235.483,192.44L235.652,192.517L235.821,192.592L235.99,192.668L236.16,192.742L236.331,192.816L236.502,192.89L236.674,192.963L236.846,193.035L237.019,193.107L237.192,193.179L237.366,193.25L237.541,193.32L237.716,193.39L237.891,193.459L238.068,193.528L238.244,193.596L238.421,193.663L238.599,193.73L238.778,193.796L238.956,193.862L239.136,193.927L239.316,193.992L239.497,194.056L239.678,194.119L239.859,194.182L240.042,194.244L240.225,194.306L240.408,194.367L240.592,194.427L240.776,194.487L240.962,194.546L241.147,194.605L241.333,194.663L241.52,194.72L241.708,194.777L241.896,194.833L242.084,194.888L242.273,194.943L242.463,194.997L242.653,195.05L242.844,195.103L243.036,195.155L243.228,195.207L243.42,195.258L243.614,195.308L243.807,195.357L244.002,195.406L244.197,195.454L244.392,195.502L244.589,195.549L244.785,195.595L244.983,195.64L245.181,195.685L245.379,195.729L245.578,195.772L245.778,195.815L245.978,195.856L246.179,195.898L246.381,195.938L246.583,195.978L246.786,196.017L246.989,196.055L247.193,196.093L247.398,196.129L247.603,196.166L247.809,196.201L248.015,196.236L248.222,196.269L248.43,196.302L248.638,196.335L248.847,196.366L249.056,196.397L249.266,196.427L249.477,196.457L249.689,196.485L249.901,196.513L250.113,196.54L250.326,196.566L250.54,196.591L250.755,196.616L250.97,196.64L251.186,196.663L251.402,196.685L251.619,196.706L251.837,196.727L252.055,196.746L252.274,196.765L252.493,196.783L252.714,196.801L252.934,196.817L253.156,196.833L253.378,196.848L253.601,196.861L253.824,196.875L254.048,196.887L254.273,196.898L254.498,196.909L254.725,196.918L254.951,196.927L255.178,196.935L255.407,196.942L255.635,196.948L255.864,196.954L256.094,196.958L256.325,196.961L256.556,196.964L256.788,196.966L257.021,196.967L257.254,196.967L257.488,196.966L257.723,196.964L257.958,196.961L258.193,196.957L258.427,196.953L258.661,196.947L258.894,196.941L259.127,196.934L259.358,196.926L259.59,196.917L259.82,196.907L260.05,196.897L260.279,196.885L260.507,196.873L260.735,196.86L260.962,196.846L261.188,196.832L261.414,196.816L261.639,196.8L261.863,196.783L262.087,196.765L262.31,196.746L262.532,196.727L262.754,196.706L262.975,196.685L263.195,196.663L263.415,196.641L263.634,196.617L263.853,196.593L264.071,196.568L264.288,196.542L264.504,196.516L264.72,196.488L264.935,196.46L265.15,196.432L265.363,196.402L265.577,196.372L265.789,196.341L266.001,196.309L266.212,196.276L266.423,196.243L266.633,196.209L266.843,196.174L267.051,196.139L267.26,196.103L267.467,196.066L267.674,196.028L267.88,195.99L268.086,195.951L268.291,195.911L268.495,195.871L268.699,195.83L268.902,195.788L269.104,195.746L269.306,195.702L269.507,195.659L269.708,195.614L269.908,195.569L270.107,195.523L270.306,195.476L270.504,195.429L270.702,195.381L270.898,195.333L271.095,195.284L271.29,195.234L271.486,195.183L271.68,195.132L271.874,195.081L272.067,195.028L272.26,194.975L272.452,194.922L272.643,194.867L272.834,194.812L273.024,194.757L273.214,194.701L273.403,194.644L273.592,194.587L273.779,194.529L273.967,194.47L274.153,194.411L274.34,194.351L274.525,194.291L274.71,194.23L274.894,194.168L275.078,194.106L275.261,194.044L275.444,193.98L275.626,193.916L275.807,193.852L275.988,193.787L276.168,193.722L276.348,193.655L276.527,193.589L276.705,193.522L276.883,193.454L277.061,193.386L277.238,193.317L277.414,193.247L277.589,193.177L277.765,193.107L277.939,193.036L278.113,192.964L278.286,192.892L278.459,192.82L278.632,192.747L278.803,192.673L278.974,192.599L279.145,192.524L279.315,192.449L279.484,192.374L279.653,192.298L279.822,192.221L279.989,192.144L280.157,192.066L280.323,191.988L280.49,191.91L280.655,191.831L280.82,191.751L280.985,191.671L281.149,191.591L281.312,191.51L281.475,191.429L281.637,191.347L281.799,191.264L281.96,191.182L282.121,191.098L282.281,191.015L282.44,190.931L282.599,190.846L282.758,190.761L282.916,190.676L283.073,190.59L283.23,190.504L283.386,190.417L283.542,190.33L283.698,190.243L283.852,190.155L284.006,190.066L284.16,189.978L284.313,189.888L284.466,189.799L284.618,189.709L284.77,189.619L284.921,189.528L285.069,189.438L285.371,189.253L285.668,189.068L285.963,188.882L286.256,188.694L286.547,188.505L286.837,188.314L287.124,188.122L287.408,187.929L287.691,187.734L287.972,187.538L288.251,187.34L288.528,187.142L288.802,186.942L289.075,186.741L289.346,186.539L289.615,186.335L289.881,186.131L290.146,185.925L290.409,185.718L290.669,185.511L290.928,185.302L291.185,185.092L291.439,184.882L291.692,184.67L291.943,184.457L292.192,184.244L292.439,184.03L292.684,183.814L292.927,183.599L293.168,183.382L293.407,183.164L293.644,182.946L293.88,182.727L294.113,182.508L294.345,182.287L294.574,182.067L294.802,181.845L295.028,181.623L295.252,181.401L295.474,181.178L295.694,180.954L295.912,180.73L296.128,180.506L296.343,180.281L296.555,180.056L296.766,179.83L296.975,179.604L297.182,179.378L297.387,179.152L297.591,178.925L297.792,178.698L297.992,178.471L298.19,178.244L298.386,178.017L298.58,177.789L298.772,177.562L298.963,177.334L299.152,177.107L299.339,176.879L299.524,176.652L299.707,176.425L299.889,176.197L300.069,175.97L300.247,175.743L300.423,175.516L300.597,175.29L300.77,175.063L300.941,174.837L301.11,174.611L301.278,174.386L301.443,174.161L301.607,173.936L301.769,173.712L301.93,173.488L302.089,173.264L302.246,173.041L302.401,172.819L302.555,172.597L302.706,172.376L302.857,172.155L303.005,171.935L303.152,171.716L303.297,171.497L303.44,171.279L303.582,171.062L303.722,170.845L303.86,170.63L303.997,170.415L304.132,170.201L304.265,169.988L304.397,169.776L304.527,169.565L304.655,169.355L304.782,169.145L304.907,168.937L305.031,168.73L305.153,168.524L305.273,168.319L305.391,168.116L305.508,167.913L305.624,167.712L305.738,167.512L305.85,167.313L305.96,167.116L306.07,166.919L306.177,166.725L306.283,166.531L306.387,166.339L306.49,166.149L306.591,165.959L306.691,165.772L306.789,165.586L306.885,165.401L306.98,165.218L307.073,165.039L307.256,164.679L307.432,164.328L307.602,163.984L307.766,163.648L307.924,163.318L308.077,162.997L308.223,162.684L308.363,162.378L308.498,162.081L308.627,161.793L308.75,161.514L308.868,161.244L308.98,160.983L309.086,160.732L309.187,160.49L309.282,160.259L309.372,160.038L309.456,159.827L309.535,159.627L309.609,159.438L309.677,159.26L309.741,159.094L309.799,158.939L309.851,158.797L309.898,158.669L309.979,158.441L310.04,158.269L310.08,158.151L310.113,158.049L310.243,157.72L310.41,157.409L310.613,157.119L310.847,156.854L311.111,156.619L311.4,156.416L311.711,156.248L312.039,156.117L312.38,156.024L312.73,155.973L313.083,155.962L313.435,155.992Z" style="fill:white;"/>
        </g>
        <g transform="matrix(0.639752,0,0,0.588571,-66.3729,-11.7297)">
            <ellipse cx="214.5" cy="110.5" rx="8.5" ry="12.5" style="fill:white;"/>
        </g>
        <g transform="matrix(0.639752,0,0,0.588571,-29.3608,-11.7297)">
            <ellipse cx="214.5" cy="110.5" rx="8.5" ry="12.5" style="fill:white;"/>
        </g>
    </g>
</svg>
