<?xml version="1.0" encoding="UTF-8" standalone="no"?><!DOCTYPE svg PUBLIC "-//W3C//DTD SVG 1.1//EN" "http://www.w3.org/Graphics/SVG/1.1/DTD/svg11.dtd"><svg width="100%" height="100%" viewBox="0 0 36 36" version="1.1" xmlns="http://www.w3.org/2000/svg" xmlns:xlink="http://www.w3.org/1999/xlink" xml:space="preserve" style="fill-rule:evenodd;clip-rule:evenodd;stroke-linecap:round;stroke-linejoin:round;stroke-miterlimit:1.5;"><g><path d="M8.242,23.026c-0.062,-0.888 0.418,-3.697 4.072,-3.781c0.28,-0.006 -0.653,-2.083 2.036,-3.49c2.013,-1.053 4.373,0.817 4.653,1.455c0.058,0.132 2.439,-4.432 6.689,-3.2c4.28,1.241 4.292,4.748 4.349,4.806c0.034,0.034 2.863,0.867 2.922,4.21c0.025,1.403 -1.541,2.671 -2.908,2.618c-1.367,-0.053 -18.901,0.083 -19.777,0c-0.876,-0.084 -1.929,-1.091 -2.036,-2.618Z" style="fill:none;stroke:#fff;stroke-width:2px;"/><path d="M9.18,20.451c-1.954,0.002 -3.351,-0.005 -3.582,-0.027c-0.876,-0.084 -1.929,-1.091 -2.036,-2.618c-0.062,-0.888 0.418,-3.697 4.072,-3.781c0.28,-0.006 -0.653,-2.083 2.036,-3.49c2.013,-1.053 4.373,0.817 4.653,1.455c0.058,0.132 2.439,-4.432 6.689,-3.2c4.28,1.241 4.292,4.748 4.349,4.806c0.017,0.017 0.722,0.231 1.435,0.85c-0.339,-0.158 -0.715,-0.3 -1.13,-0.421c-4.25,-1.232 -6.631,3.332 -6.69,3.2c-0.28,-0.638 -2.64,-2.508 -4.653,-1.455c-2.689,1.407 -1.756,3.484 -2.036,3.49c-1.525,0.035 -2.497,0.545 -3.107,1.191Z" style="fill:none;stroke:#fff;stroke-width:2px;"/></g></svg>