<?xml version="1.0" encoding="UTF-8" standalone="no"?><!DOCTYPE svg PUBLIC "-//W3C//DTD SVG 1.1//EN" "http://www.w3.org/Graphics/SVG/1.1/DTD/svg11.dtd"><svg width="100%" height="100%" viewBox="0 0 36 36" version="1.1" xmlns="http://www.w3.org/2000/svg" xmlns:xlink="http://www.w3.org/1999/xlink" xml:space="preserve" style="fill-rule:evenodd;clip-rule:evenodd;stroke-linecap:round;stroke-linejoin:round;stroke-miterlimit:1.5;"><g><path d="M3.563,17.705c-0.074,-1.055 0.496,-4.393 4.838,-4.492c0.333,-0.008 -0.776,-2.476 2.419,-4.147c2.392,-1.252 5.196,0.97 5.529,1.728c0.069,0.157 2.898,-5.266 7.948,-3.802c5.086,1.475 5.099,5.641 5.168,5.711c0.039,0.04 3.401,1.029 3.471,5.002c0.03,1.667 -1.831,3.174 -3.455,3.11c-1.625,-0.063 -22.458,0.099 -23.499,0c-1.041,-0.099 -2.292,-1.296 -2.419,-3.11Z" style="fill:#fff;stroke:#fff;stroke-width:2px;"/><path d="M28.171,23.469c0,0 -2.61,2.619 -3.111,4.147c-0.246,0.752 -0.532,2.146 0.692,2.419c1.206,0.269 2.959,-0.67 3.11,-2.419c0.087,-1.013 -0.691,-4.147 -0.691,-4.147Z" style="fill:none;stroke:#fff;stroke-width:2px;"/><path d="M21.561,23.469c0,0 -2.609,2.619 -3.11,4.147c-0.246,0.752 -0.532,2.146 0.691,2.419c1.207,0.269 2.96,-0.67 3.111,-2.419c0.087,-1.013 -0.692,-4.147 -0.692,-4.147Z" style="fill:none;stroke:#fff;stroke-width:2px;"/><path d="M14.967,23.469c0,0 -2.61,2.619 -3.11,4.147c-0.247,0.752 -0.533,2.146 0.691,2.419c1.206,0.269 2.96,-0.67 3.11,-2.419c0.087,-1.013 -0.691,-4.147 -0.691,-4.147Z" style="fill:none;stroke:#fff;stroke-width:2px;"/><path d="M8.523,23.469c0,0 -2.61,2.619 -3.11,4.147c-0.247,0.752 -0.532,2.146 0.691,2.419c1.207,0.269 2.96,-0.67 3.11,-2.419c0.087,-1.013 -0.691,-4.147 -0.691,-4.147Z" style="fill:none;stroke:#fff;stroke-width:2px;"/></g></svg>