<?xml version="1.0" encoding="UTF-8" standalone="no"?><!DOCTYPE svg PUBLIC "-//W3C//DTD SVG 1.1//EN" "http://www.w3.org/Graphics/SVG/1.1/DTD/svg11.dtd"><svg width="100%" height="100%" viewBox="0 0 36 36" version="1.1" xmlns="http://www.w3.org/2000/svg" xmlns:xlink="http://www.w3.org/1999/xlink" xml:space="preserve" style="fill-rule:evenodd;clip-rule:evenodd;stroke-linecap:round;stroke-linejoin:round;stroke-miterlimit:1.5;"><g><path d="M4.1,22.241c-0.072,-1.036 0.487,-4.313 4.75,-4.41c0.326,-0.008 -0.762,-2.43 2.374,-4.071c2.349,-1.229 5.102,0.953 5.428,1.696c0.068,0.155 2.846,-5.169 7.803,-3.732c4.993,1.448 5.006,5.538 5.073,5.606c0.039,0.04 3.339,1.011 3.408,4.911c0.029,1.637 -1.798,3.115 -3.392,3.053c-1.595,-0.062 -22.047,0.098 -23.069,0c-1.022,-0.097 -2.25,-1.273 -2.375,-3.053Z" style="fill:none;stroke:#fff;stroke-width:2px;"/><path d="M6.668,17.574c-0.03,-0.039 -0.059,-0.078 -0.088,-0.118l-3.047,-0.462l0.912,-1.085l1.04,-1.238c-0.013,-0.099 -0.023,-0.199 -0.031,-0.3l-2.257,-1.999l2.712,-0.831l0,-0.002l0.003,-0.005l-0.955,-3.119l2.775,0.713c0.105,-0.084 0.213,-0.165 0.323,-0.241l0.298,-2.846l2.362,1.807c0.212,-0.029 0.427,-0.047 0.644,-0.054l1.604,-2.147l1.071,2.675c0.103,0.046 0.204,0.095 0.304,0.147l3.079,-1.015l-0.737,3.144c0.081,0.125 0.157,0.253 0.228,0.383l3.041,0.535c-2.338,1.128 -3.611,3.504 -3.657,3.4c-0.326,-0.743 -3.079,-2.925 -5.428,-1.696c-3.136,1.641 -2.048,4.063 -2.374,4.071c-0.704,0.016 -1.306,0.119 -1.822,0.283Z" style="fill:#fff;stroke:#fff;stroke-width:2px;"/></g></svg>