<?xml version="1.0" encoding="UTF-8" standalone="no"?><!DOCTYPE svg PUBLIC "-//W3C//DTD SVG 1.1//EN" "http://www.w3.org/Graphics/SVG/1.1/DTD/svg11.dtd"><svg width="100%" height="100%" viewBox="0 0 36 36" version="1.1" xmlns="http://www.w3.org/2000/svg" xmlns:xlink="http://www.w3.org/1999/xlink" xml:space="preserve" style="fill-rule:evenodd;clip-rule:evenodd;stroke-linecap:round;stroke-linejoin:round;stroke-miterlimit:1.5;"><g><path d="M21.389,18.904l-2.765,3.11l3.456,1.728l-8.639,8.294l2.073,-7.257l-3.456,-1.728l2.765,-5.529l6.566,1.382Z" style="fill:none;stroke:#fff;stroke-width:2px;"/><path d="M3.563,16.625c-0.074,-1.055 0.496,-4.393 4.838,-4.492c0.333,-0.008 -0.776,-2.476 2.419,-4.147c2.392,-1.252 5.196,0.97 5.529,1.728c0.069,0.157 2.898,-5.266 7.948,-3.802c5.086,1.475 5.099,5.641 5.168,5.711c0.039,0.04 3.401,1.029 3.471,5.002c0.03,1.667 -1.831,3.174 -3.455,3.11c-1.625,-0.063 -22.458,0.099 -23.499,0c-1.041,-0.099 -2.292,-1.296 -2.419,-3.11Z" style="fill:#fff;stroke:#fff;stroke-width:2px;"/></g></svg>