<?xml version="1.0" encoding="UTF-8" standalone="no"?><!DOCTYPE svg PUBLIC "-//W3C//DTD SVG 1.1//EN" "http://www.w3.org/Graphics/SVG/1.1/DTD/svg11.dtd"><svg width="100%" height="100%" viewBox="0 0 6 6" version="1.1" xmlns="http://www.w3.org/2000/svg" xmlns:xlink="http://www.w3.org/1999/xlink" xml:space="preserve" style="fill-rule:evenodd;clip-rule:evenodd;stroke-linecap:round;stroke-linejoin:round;stroke-miterlimit:1.5;"><g><path d="M1.814,1.16l-0.817,0" style="fill:none;stroke:#fff;stroke-width:0.55px;"/><path d="M0.997,1.935l-0.817,0" style="fill:none;stroke:#fff;stroke-width:0.55px;"/><path d="M1.255,2.839l-0.817,0" style="fill:none;stroke:#fff;stroke-width:0.55px;"/><ellipse cx="4.207" cy="1.057" rx="0.562" ry="0.555" style="fill:none;stroke:#fff;stroke-width:0.55px;"/><path d="M2.792,1.561c-0.333,0.067 -0.957,0.288 -1.128,0.466c-0.194,0.202 0.089,0.358 0.108,0.362c0.036,0.009 0.849,-0.169 0.849,-0.169c0,0 -0.562,1.072 -0.591,1.119c-0.029,0.048 -0.937,0.394 -1.02,0.471c-0.083,0.076 0.267,0.531 0.343,0.583c0.076,0.052 1.127,-0.305 1.173,-0.357c0.045,-0.053 0.267,-0.417 0.266,-0.414c0,0.002 0.322,0.281 0.334,0.414c0.012,0.132 -0.165,0.787 -0.114,0.846c0.051,0.059 0.717,-0.039 0.772,0c0.055,0.04 0.169,-1.048 0.162,-1.072c-0.007,-0.024 -0.439,-0.61 -0.505,-0.64c-0.066,-0.03 0.261,-0.535 0.343,-0.611c0.082,-0.077 0.426,0.439 0.553,0.479c0.127,0.041 0.565,-0.309 0.667,-0.479c0.103,-0.17 -0.042,-0.347 -0.105,-0.339c-0.062,0.008 -0.407,0.236 -0.438,0.252c-0.031,0.016 -0.345,-0.209 -0.42,-0.272c-0.075,-0.064 -0.537,-0.781 -1.249,-0.639Z" style="fill:none;stroke:#fff;stroke-width:0.5px;"/></g></svg>