<?xml version="1.0" encoding="UTF-8" standalone="no"?>
<!DOCTYPE svg PUBLIC "-//W3C//DTD SVG 1.1//EN" "http://www.w3.org/Graphics/SVG/1.1/DTD/svg11.dtd">
<svg width="100%" height="100%" viewBox="0 0 200 200" version="1.1" xmlns="http://www.w3.org/2000/svg" xmlns:xlink="http://www.w3.org/1999/xlink" xml:space="preserve" style="fill-rule:evenodd;clip-rule:evenodd;stroke-linecap:round;stroke-linejoin:round;stroke-miterlimit:1.5;">
    <g transform="matrix(0.27706,0,0,0.27706,25.0099,13.229)">
        <g>
            <path id="a" d="M222,71C348.263,-2.808 384.392,92.23 364,137C361.415,142.675 348.095,373.146 343.051,376.691C336.387,381.375 286.389,359.389 288.843,326.696C293.683,262.224 306.746,170.972 296.062,176.546C280.005,184.923 265.092,195.681 255,214C234.193,251.768 238.668,297.9 239,298C239.332,298.1 338.622,349.998 326,454C313.085,560.417 252.733,614.904 239,623C220.129,634.126 162.362,601.103 184,561C211.833,509.417 235.119,512.602 239,454C243.78,381.815 172.483,354.582 137,340C115.64,331.222 110.872,320.283 110,313C107.155,289.231 101.127,141.658 222,71Z" style="fill:none;stroke:white;stroke-width:40.1px;"/>
        </g>
        <g transform="matrix(1.11778,0,0,1.0923,92.7009,-61.2394)">
            <circle cx="345" cy="99" r="59" style="fill:none;stroke:white;stroke-width:36.29px;"/>
        </g>
    </g>
</svg>
