<?xml version="1.0" encoding="UTF-8" standalone="no"?>
<!DOCTYPE svg PUBLIC "-//W3C//DTD SVG 1.1//EN" "http://www.w3.org/Graphics/SVG/1.1/DTD/svg11.dtd">
<svg width="100%" height="100%" viewBox="0 0 200 200" version="1.1" xmlns="http://www.w3.org/2000/svg" xmlns:xlink="http://www.w3.org/1999/xlink" xml:space="preserve" style="fill-rule:evenodd;clip-rule:evenodd;stroke-linecap:round;stroke-linejoin:round;stroke-miterlimit:1.5;">
    <rect x="0" y="0" width="200" height="200" style="fill:rgb(233,30,99);"/>
    <g transform="matrix(0.917839,0,0,0.917839,-435.252,52.9567)">
        <g transform="matrix(0.64375,0,0,0.64375,185.775,-19.5562)">
            <circle cx="652" cy="143" r="80" style="fill:rgb(165,58,95);"/>
        </g>
        <g transform="matrix(0.64375,0,0,0.64375,184.685,-20.6458)">
            <circle cx="652" cy="143" r="80" style="fill:rgb(165,58,95);"/>
        </g>
        <g transform="matrix(0.64375,0,0,0.64375,183.596,-21.7353)">
            <circle cx="652" cy="143" r="80" style="fill:rgb(165,58,95);"/>
        </g>
        <g transform="matrix(0.64375,0,0,0.64375,182.506,-22.8248)">
            <circle cx="652" cy="143" r="80" style="fill:rgb(165,58,95);"/>
        </g>
        <g transform="matrix(0.64375,0,0,0.64375,181.417,-23.9143)">
            <circle cx="652" cy="143" r="80" style="fill:rgb(165,58,95);"/>
        </g>
        <g transform="matrix(0.64375,0,0,0.64375,180.327,-25.0038)">
            <circle cx="652" cy="143" r="80" style="fill:rgb(165,58,95);"/>
        </g>
        <g transform="matrix(0.64375,0,0,0.64375,179.238,-26.0933)">
            <circle cx="652" cy="143" r="80" style="fill:rgb(165,58,95);"/>
        </g>
        <g transform="matrix(0.64375,0,0,0.64375,178.148,-27.1829)">
            <circle cx="652" cy="143" r="80" style="fill:rgb(165,58,95);"/>
        </g>
        <g transform="matrix(0.64375,0,0,0.64375,177.059,-28.2724)">
            <circle cx="652" cy="143" r="80" style="fill:rgb(165,58,95);"/>
        </g>
        <g transform="matrix(0.64375,0,0,0.64375,175.969,-29.3619)">
            <circle cx="652" cy="143" r="80" style="fill:rgb(165,58,95);"/>
        </g>
        <g transform="matrix(0.64375,0,0,0.64375,174.88,-30.4514)">
            <circle cx="652" cy="143" r="80" style="fill:rgb(165,58,95);"/>
        </g>
        <g transform="matrix(0.64375,0,0,0.64375,173.79,-31.5409)">
            <circle cx="652" cy="143" r="80" style="fill:rgb(165,58,95);"/>
        </g>
        <g transform="matrix(0.64375,0,0,0.64375,172.701,-32.6304)">
            <circle cx="652" cy="143" r="80" style="fill:rgb(165,58,95);"/>
        </g>
        <g transform="matrix(0.64375,0,0,0.64375,171.611,-33.72)">
            <circle cx="652" cy="143" r="80" style="fill:rgb(165,58,95);"/>
        </g>
        <g transform="matrix(0.64375,0,0,0.64375,170.522,-34.8095)">
            <circle cx="652" cy="143" r="80" style="fill:rgb(165,58,95);"/>
        </g>
        <g transform="matrix(0.64375,0,0,0.64375,169.432,-35.899)">
            <circle cx="652" cy="143" r="80" style="fill:rgb(165,58,95);"/>
        </g>
        <g transform="matrix(0.64375,0,0,0.64375,168.343,-36.9885)">
            <circle cx="652" cy="143" r="80" style="fill:rgb(165,58,95);"/>
        </g>
        <g transform="matrix(0.64375,0,0,0.64375,167.253,-38.078)">
            <circle cx="652" cy="143" r="80" style="fill:rgb(165,58,95);"/>
        </g>
        <g transform="matrix(0.64375,0,0,0.64375,166.164,-39.1675)">
            <circle cx="652" cy="143" r="80" style="fill:rgb(165,58,95);"/>
        </g>
        <g transform="matrix(0.64375,0,0,0.64375,165.074,-40.257)">
            <circle cx="652" cy="143" r="80" style="fill:rgb(165,58,95);"/>
        </g>
        <g transform="matrix(0.64375,0,0,0.64375,163.985,-41.3466)">
            <circle cx="652" cy="143" r="80" style="fill:rgb(165,58,95);"/>
        </g>
        <g transform="matrix(0.64375,0,0,0.64375,163.985,-41.3466)">
            <circle cx="652" cy="143" r="80" style="fill:rgb(165,58,95);"/>
        </g>
    </g>
    <g transform="matrix(0.917839,0,0,0.917839,-290.958,32.9567)">
        <g transform="matrix(0.64375,0,0,0.64375,6.775,-19.5563)">
            <circle cx="652" cy="143" r="80" style="fill:rgb(233,30,99);stroke:white;stroke-width:6.58px;"/>
        </g>
        <g transform="matrix(1.78173,0,0,1.78173,307.272,-183.724)">
            <ellipse cx="67" cy="154" rx="9" ry="10" style="fill:white;"/>
        </g>
        <g transform="matrix(1.78173,0,0,1.78173,307.272,-183.724)">
            <g transform="matrix(1.2,0,0,1.14286,-11.2,-20)">
                <ellipse cx="58.5" cy="136.5" rx="2.5" ry="3.5" style="fill:white;"/>
            </g>
            <g transform="matrix(1.2261,0.833618,-0.562251,0.826967,60.985,-21.9537)">
                <path d="M59,128.75C59,128.336 58.773,128 58.494,128L53.506,128C53.227,128 53,128.336 53,128.75L53,130.25C53,130.664 53.227,131 53.506,131L58.494,131C58.773,131 59,130.664 59,130.25L59,128.75Z" style="fill:white;"/>
            </g>
        </g>
        <g transform="matrix(-1.78173,0,0,1.78173,547.805,-183.724)">
            <g transform="matrix(1.2,0,0,1.14286,-11.2,-20)">
                <ellipse cx="58.5" cy="136.5" rx="2.5" ry="3.5" style="fill:white;"/>
            </g>
            <g transform="matrix(1.2261,0.833618,-0.562251,0.826967,60.985,-21.9537)">
                <path d="M59,128.75C59,128.336 58.773,128 58.494,128L53.506,128C53.227,128 53,128.336 53,128.75L53,130.25C53,130.664 53.227,131 53.506,131L58.494,131C58.773,131 59,130.664 59,130.25L59,128.75Z" style="fill:white;"/>
            </g>
        </g>
    </g>
</svg>
