<?xml version="1.0" encoding="UTF-8" standalone="no"?>
<!DOCTYPE svg PUBLIC "-//W3C//DTD SVG 1.1//EN" "http://www.w3.org/Graphics/SVG/1.1/DTD/svg11.dtd">
<svg width="100%" height="100%" viewBox="0 0 200 200" version="1.1" xmlns="http://www.w3.org/2000/svg" xmlns:xlink="http://www.w3.org/1999/xlink" xml:space="preserve" style="fill-rule:evenodd;clip-rule:evenodd;stroke-linecap:round;stroke-linejoin:round;stroke-miterlimit:1.5;">
    <rect x="0" y="0" width="200" height="200" style="fill:rgb(233,30,99);"/>
    <g transform="matrix(0.917839,0,0,0.917839,-435.252,52.9567)">
        <g transform="matrix(0.64375,0,0,0.64375,185.775,-19.5562)">
            <circle cx="652" cy="143" r="80" style="fill:rgb(165,58,95);"/>
        </g>
        <g transform="matrix(0.64375,0,0,0.64375,184.685,-20.6458)">
            <circle cx="652" cy="143" r="80" style="fill:rgb(165,58,95);"/>
        </g>
        <g transform="matrix(0.64375,0,0,0.64375,183.596,-21.7353)">
            <circle cx="652" cy="143" r="80" style="fill:rgb(165,58,95);"/>
        </g>
        <g transform="matrix(0.64375,0,0,0.64375,182.506,-22.8248)">
            <circle cx="652" cy="143" r="80" style="fill:rgb(165,58,95);"/>
        </g>
        <g transform="matrix(0.64375,0,0,0.64375,181.417,-23.9143)">
            <circle cx="652" cy="143" r="80" style="fill:rgb(165,58,95);"/>
        </g>
        <g transform="matrix(0.64375,0,0,0.64375,180.327,-25.0038)">
            <circle cx="652" cy="143" r="80" style="fill:rgb(165,58,95);"/>
        </g>
        <g transform="matrix(0.64375,0,0,0.64375,179.238,-26.0933)">
            <circle cx="652" cy="143" r="80" style="fill:rgb(165,58,95);"/>
        </g>
        <g transform="matrix(0.64375,0,0,0.64375,178.148,-27.1829)">
            <circle cx="652" cy="143" r="80" style="fill:rgb(165,58,95);"/>
        </g>
        <g transform="matrix(0.64375,0,0,0.64375,177.059,-28.2724)">
            <circle cx="652" cy="143" r="80" style="fill:rgb(165,58,95);"/>
        </g>
        <g transform="matrix(0.64375,0,0,0.64375,175.969,-29.3619)">
            <circle cx="652" cy="143" r="80" style="fill:rgb(165,58,95);"/>
        </g>
        <g transform="matrix(0.64375,0,0,0.64375,174.88,-30.4514)">
            <circle cx="652" cy="143" r="80" style="fill:rgb(165,58,95);"/>
        </g>
        <g transform="matrix(0.64375,0,0,0.64375,173.79,-31.5409)">
            <circle cx="652" cy="143" r="80" style="fill:rgb(165,58,95);"/>
        </g>
        <g transform="matrix(0.64375,0,0,0.64375,172.701,-32.6304)">
            <circle cx="652" cy="143" r="80" style="fill:rgb(165,58,95);"/>
        </g>
        <g transform="matrix(0.64375,0,0,0.64375,171.611,-33.72)">
            <circle cx="652" cy="143" r="80" style="fill:rgb(165,58,95);"/>
        </g>
        <g transform="matrix(0.64375,0,0,0.64375,170.522,-34.8095)">
            <circle cx="652" cy="143" r="80" style="fill:rgb(165,58,95);"/>
        </g>
        <g transform="matrix(0.64375,0,0,0.64375,169.432,-35.899)">
            <circle cx="652" cy="143" r="80" style="fill:rgb(165,58,95);"/>
        </g>
        <g transform="matrix(0.64375,0,0,0.64375,168.343,-36.9885)">
            <circle cx="652" cy="143" r="80" style="fill:rgb(165,58,95);"/>
        </g>
        <g transform="matrix(0.64375,0,0,0.64375,167.253,-38.078)">
            <circle cx="652" cy="143" r="80" style="fill:rgb(165,58,95);"/>
        </g>
        <g transform="matrix(0.64375,0,0,0.64375,166.164,-39.1675)">
            <circle cx="652" cy="143" r="80" style="fill:rgb(165,58,95);"/>
        </g>
        <g transform="matrix(0.64375,0,0,0.64375,165.074,-40.257)">
            <circle cx="652" cy="143" r="80" style="fill:rgb(165,58,95);"/>
        </g>
        <g transform="matrix(0.64375,0,0,0.64375,163.985,-41.3466)">
            <circle cx="652" cy="143" r="80" style="fill:rgb(165,58,95);"/>
        </g>
        <g transform="matrix(0.64375,0,0,0.64375,163.985,-41.3466)">
            <circle cx="652" cy="143" r="80" style="fill:rgb(165,58,95);"/>
        </g>
    </g>
    <g transform="matrix(0.917839,0,0,0.917839,18.3534,32.9567)">
        <g transform="matrix(0.64375,0,0,0.64375,-330.225,-19.5563)">
            <circle cx="652" cy="143" r="80" style="fill:rgb(233,30,99);stroke:white;stroke-width:6.58px;"/>
        </g>
        <g transform="matrix(0.639752,0,0,0.639752,-75.236,-19.9441)">
            <path d="M313.436,155.992L313.782,156.063L314.118,156.174L314.438,156.323L314.739,156.508L315.017,156.726L315.267,156.976L315.487,157.253L315.673,157.553L315.823,157.874L315.935,158.209L316.007,158.555L316.038,158.907L316.028,159.26L315.978,159.61L315.887,159.952L315.844,160.081L315.787,160.248L315.711,160.467L315.614,160.738L315.495,161.06L315.356,161.431L315.194,161.849L315.011,162.308L314.909,162.559L314.802,162.818L314.69,163.087L314.572,163.366L314.448,163.655L314.318,163.953L314.182,164.261L314.04,164.579L313.892,164.905L313.738,165.24L313.578,165.584L313.411,165.936L313.238,166.296L313.058,166.664L312.873,167.039L312.68,167.422L312.482,167.813L312.276,168.21L312.064,168.614L311.845,169.024L311.62,169.441L311.388,169.864L311.149,170.292L310.903,170.726L310.65,171.166L310.39,171.611L310.123,172.06L309.848,172.514L309.567,172.973L309.279,173.436L308.983,173.903L308.679,174.373L308.369,174.848L308.051,175.325L307.725,175.806L307.392,176.289L307.051,176.775L306.703,177.263L306.347,177.754L305.985,178.243L305.798,178.493L305.611,178.74L305.422,178.987L305.231,179.235L305.038,179.484L304.844,179.732L304.647,179.981L304.448,180.23L304.247,180.479L304.044,180.728L303.839,180.977L303.632,181.227L303.423,181.476L303.212,181.726L302.999,181.976L302.783,182.225L302.566,182.475L302.347,182.724L302.125,182.974L301.902,183.223L301.676,183.472L301.448,183.721L301.218,183.969L300.986,184.218L300.752,184.466L300.515,184.713L300.277,184.961L300.036,185.208L299.793,185.454L299.549,185.7L299.301,185.946L299.052,186.191L298.8,186.436L298.547,186.68L298.291,186.923L298.033,187.166L297.772,187.409L297.51,187.65L297.245,187.891L296.978,188.131L296.708,188.37L296.437,188.609L296.163,188.846L295.887,189.083L295.608,189.319L295.328,189.554L295.045,189.788L294.759,190.021L294.472,190.253L294.182,190.484L293.89,190.714L293.595,190.943L293.299,191.171L292.999,191.397L292.698,191.622L292.394,191.846L292.088,192.069L291.779,192.29L291.468,192.511L291.155,192.729L290.839,192.947L290.521,193.163L290.201,193.377L289.878,193.59L289.553,193.801L289.225,194.011L288.895,194.22L288.563,194.426L288.228,194.631L287.891,194.835L287.551,195.037L287.209,195.236L286.864,195.435L286.517,195.631L286.168,195.826L285.816,196.018L285.461,196.209L285.105,196.398L284.745,196.585L284.384,196.77L284.019,196.952L283.653,197.133L283.283,197.312L282.912,197.488L282.538,197.663L282.161,197.835L281.782,198.005L281.4,198.173L281.016,198.338L280.629,198.502L280.24,198.662L279.848,198.821L279.454,198.977L279.057,199.131L278.658,199.282L278.256,199.43L277.852,199.577L277.445,199.72L277.035,199.861L276.624,200L276.209,200.135L275.792,200.268L275.372,200.399L274.95,200.526L274.526,200.651L274.098,200.773L273.669,200.892L273.236,201.008L272.801,201.122L272.364,201.232L271.924,201.34L271.482,201.444L271.036,201.546L270.589,201.644L270.138,201.74L269.686,201.832L269.23,201.921L268.772,202.007L268.312,202.09L267.849,202.169L267.383,202.246L266.915,202.319L266.444,202.388L265.97,202.455L265.494,202.518L265.016,202.577L264.534,202.634L264.051,202.686L263.564,202.735L263.075,202.781L262.584,202.823L262.089,202.862L261.593,202.897L261.093,202.928L260.591,202.956L260.087,202.98L259.579,203.001L259.07,203.017L258.557,203.03L258.042,203.039L257.525,203.044L257.011,203.045L256.499,203.043L255.99,203.036L255.483,203.025L254.979,203.011L254.477,202.992L253.978,202.97L253.481,202.944L252.987,202.914L252.495,202.88L252.006,202.843L251.519,202.802L251.035,202.757L250.554,202.708L250.075,202.656L249.598,202.601L249.124,202.542L248.653,202.479L248.184,202.413L247.717,202.343L247.253,202.27L246.792,202.194L246.333,202.114L245.876,202.031L245.422,201.945L244.971,201.855L244.522,201.762L244.076,201.666L243.632,201.567L243.19,201.464L242.752,201.359L242.315,201.25L241.881,201.138L241.45,201.024L241.021,200.906L240.595,200.785L240.171,200.662L239.75,200.535L239.331,200.406L238.914,200.274L238.501,200.139L238.089,200.001L237.68,199.861L237.274,199.718L236.87,199.572L236.469,199.423L236.07,199.272L235.673,199.119L235.279,198.962L234.888,198.804L234.499,198.643L234.112,198.479L233.728,198.313L233.347,198.145L232.968,197.974L232.591,197.801L232.217,197.626L231.845,197.449L231.476,197.269L231.109,197.087L230.744,196.903L230.382,196.717L230.023,196.529L229.666,196.339L229.311,196.146L228.959,195.952L228.609,195.756L228.261,195.558L227.916,195.358L227.574,195.157L227.234,194.953L226.896,194.748L226.56,194.541L226.227,194.332L225.897,194.122L225.568,193.91L225.243,193.696L224.919,193.481L224.598,193.264L224.279,193.046L223.963,192.826L223.649,192.605L223.337,192.382L223.028,192.158L222.721,191.933L222.416,191.706L222.113,191.478L221.813,191.249L221.515,191.019L221.22,190.787L220.927,190.555L220.636,190.321L220.347,190.086L220.061,189.85L219.777,189.613L219.495,189.375L219.216,189.136L218.938,188.896L218.663,188.655L218.39,188.414L218.12,188.171L217.852,187.928L217.586,187.684L217.322,187.44L217.06,187.194L216.8,186.948L216.543,186.701L216.288,186.454L216.035,186.206L215.785,185.958L215.536,185.709L215.29,185.459L215.045,185.21L214.803,184.959L214.563,184.708L214.326,184.457L214.09,184.206L213.856,183.954L213.625,183.703L213.396,183.45L213.168,183.198L212.943,182.946L212.72,182.693L212.499,182.44L212.28,182.187L212.064,181.934L211.849,181.682L211.636,181.429L211.426,181.176L211.217,180.923L211.01,180.67L210.806,180.418L210.603,180.166L210.403,179.913L210.205,179.662L210.008,179.41L209.814,179.158L209.621,178.907L209.431,178.657L209.242,178.406L209.054,178.154L208.688,177.658L208.329,177.162L207.977,176.668L207.633,176.176L207.297,175.687L206.968,175.201L206.647,174.718L206.333,174.239L206.027,173.763L205.728,173.292L205.437,172.824L205.153,172.361L204.875,171.903L204.606,171.449L204.343,171.001L204.087,170.558L203.839,170.121L203.597,169.689L203.363,169.264L203.135,168.844L202.914,168.432L202.7,168.026L202.492,167.627L202.292,167.236L202.098,166.852L201.91,166.476L201.729,166.108L201.555,165.748L201.387,165.396L201.225,165.054L201.07,164.72L200.921,164.395L200.778,164.08L200.642,163.774L200.512,163.479L200.388,163.193L200.27,162.918L200.158,162.653L200.05,162.396L199.857,161.926L199.687,161.498L199.539,161.118L199.414,160.789L199.311,160.511L199.23,160.287L199.17,160.117L199.125,159.985L199.03,159.644L198.975,159.295L198.961,158.942L198.988,158.589L199.057,158.243L199.164,157.906L199.311,157.584L199.493,157.281L199.71,157.002L199.957,156.75L200.232,156.528L200.531,156.339L200.85,156.187L201.184,156.072L201.53,155.997L201.881,155.963L202.235,155.97L202.585,156.017L202.927,156.106L203.257,156.233L203.57,156.397L203.861,156.597L204.128,156.83L204.365,157.091L204.571,157.379L204.742,157.688L204.875,158.015L204.912,158.122L204.955,158.244L205.02,158.423L205.105,158.654L205.213,158.937L205.341,159.268L205.492,159.646L205.667,160.072L205.761,160.297L205.862,160.535L205.968,160.783L206.081,161.042L206.199,161.31L206.323,161.588L206.453,161.875L206.589,162.171L206.73,162.476L206.878,162.79L207.032,163.112L207.192,163.442L207.358,163.78L207.53,164.125L207.709,164.478L207.893,164.838L208.084,165.205L208.281,165.578L208.485,165.958L208.694,166.344L208.911,166.736L209.133,167.134L209.362,167.537L209.598,167.945L209.84,168.359L210.089,168.777L210.344,169.199L210.606,169.626L210.875,170.056L211.15,170.491L211.432,170.929L211.721,171.37L212.016,171.814L212.319,172.261L212.628,172.711L212.944,173.163L213.267,173.617L213.597,174.073L213.936,174.533L214.106,174.76L214.278,174.989L214.453,175.219L214.63,175.449L214.808,175.68L214.988,175.91L215.169,176.141L215.353,176.372L215.538,176.603L215.725,176.834L215.914,177.065L216.105,177.296L216.298,177.527L216.492,177.758L216.688,177.989L216.886,178.22L217.086,178.451L217.287,178.681L217.491,178.912L217.696,179.142L217.903,179.372L218.112,179.601L218.322,179.831L218.535,180.06L218.749,180.288L218.966,180.517L219.184,180.745L219.404,180.972L219.626,181.199L219.849,181.425L220.075,181.651L220.302,181.877L220.531,182.101L220.763,182.326L220.996,182.549L221.231,182.772L221.467,182.994L221.706,183.215L221.947,183.436L222.189,183.656L222.434,183.875L222.68,184.093L222.928,184.31L223.179,184.527L223.431,184.742L223.685,184.957L223.941,185.17L224.199,185.383L224.459,185.594L224.72,185.805L224.984,186.014L225.25,186.222L225.518,186.429L225.787,186.635L226.059,186.84L226.332,187.043L226.608,187.246L226.886,187.447L227.165,187.646L227.447,187.844L227.73,188.041L228.016,188.237L228.303,188.431L228.593,188.624L228.884,188.815L229.178,189.004L229.473,189.192L229.771,189.379L230.071,189.564L230.372,189.747L230.676,189.929L230.982,190.109L231.29,190.288L231.6,190.464L231.912,190.639L232.226,190.812L232.542,190.984L232.861,191.153L233.181,191.321L233.504,191.487L233.828,191.65L234.155,191.812L234.484,191.972L234.815,192.13L235.148,192.287L235.483,192.44L235.821,192.592L236.16,192.742L236.502,192.89L236.846,193.035L237.192,193.179L237.541,193.32L237.891,193.459L238.244,193.596L238.599,193.73L238.956,193.862L239.316,193.992L239.678,194.119L240.042,194.244L240.408,194.367L240.776,194.487L241.147,194.605L241.52,194.72L241.896,194.833L242.273,194.943L242.653,195.05L243.036,195.155L243.42,195.258L243.807,195.357L244.197,195.454L244.588,195.548L244.983,195.64L245.379,195.729L245.778,195.815L246.179,195.898L246.583,195.978L246.989,196.055L247.398,196.129L247.809,196.201L248.222,196.269L248.638,196.335L249.056,196.397L249.477,196.457L249.901,196.513L250.326,196.566L250.755,196.616L251.186,196.663L251.619,196.706L252.055,196.746L252.493,196.783L252.935,196.817L253.378,196.848L253.824,196.875L254.273,196.898L254.725,196.918L255.178,196.935L255.635,196.948L256.094,196.958L256.556,196.964L257.021,196.967L257.488,196.966L257.958,196.961L258.427,196.953L258.894,196.941L259.359,196.926L259.82,196.907L260.279,196.885L260.735,196.86L261.188,196.832L261.639,196.8L262.087,196.765L262.532,196.727L262.975,196.685L263.415,196.641L263.853,196.593L264.288,196.542L264.72,196.488L265.15,196.432L265.577,196.372L266.001,196.309L266.423,196.243L266.843,196.174L267.26,196.103L267.674,196.028L268.086,195.951L268.495,195.871L268.902,195.788L269.306,195.702L269.708,195.614L270.107,195.523L270.504,195.429L270.898,195.333L271.29,195.234L271.68,195.132L272.067,195.028L272.452,194.921L272.834,194.812L273.214,194.701L273.592,194.587L273.967,194.47L274.339,194.351L274.71,194.23L275.078,194.106L275.444,193.98L275.807,193.852L276.168,193.722L276.527,193.589L276.883,193.454L277.238,193.317L277.589,193.177L277.939,193.036L278.286,192.892L278.632,192.747L278.974,192.599L279.315,192.449L279.653,192.298L279.989,192.144L280.323,191.988L280.655,191.831L280.985,191.671L281.312,191.51L281.637,191.347L281.96,191.182L282.281,191.015L282.599,190.846L282.916,190.676L283.23,190.504L283.542,190.33L283.852,190.155L284.16,189.978L284.466,189.799L284.77,189.619L285.071,189.437L285.371,189.253L285.668,189.068L285.963,188.882L286.256,188.694L286.548,188.505L286.837,188.314L287.124,188.122L287.408,187.929L287.691,187.734L287.972,187.538L288.251,187.34L288.528,187.142L288.802,186.942L289.075,186.741L289.346,186.539L289.615,186.335L289.881,186.131L290.146,185.925L290.409,185.718L290.669,185.511L290.928,185.302L291.185,185.092L291.44,184.882L291.692,184.67L291.943,184.457L292.192,184.244L292.439,184.03L292.684,183.814L292.927,183.599L293.168,183.382L293.407,183.164L293.645,182.946L293.88,182.727L294.113,182.508L294.345,182.287L294.574,182.067L294.802,181.845L295.028,181.623L295.252,181.401L295.474,181.178L295.694,180.954L295.912,180.73L296.128,180.506L296.343,180.281L296.555,180.056L296.766,179.83L296.975,179.604L297.182,179.378L297.387,179.152L297.591,178.925L297.792,178.698L297.992,178.471L298.19,178.244L298.386,178.017L298.58,177.789L298.772,177.562L298.963,177.334L299.152,177.107L299.339,176.879L299.524,176.652L299.707,176.425L299.889,176.197L300.069,175.97L300.247,175.743L300.423,175.516L300.597,175.29L300.77,175.063L300.941,174.837L301.108,174.614L301.443,174.161L301.769,173.712L302.089,173.264L302.401,172.819L302.706,172.376L303.005,171.935L303.297,171.497L303.582,171.062L303.86,170.63L304.132,170.201L304.397,169.776L304.655,169.355L304.907,168.937L305.153,168.524L305.391,168.116L305.624,167.712L305.85,167.313L306.07,166.919L306.283,166.531L306.49,166.148L306.691,165.772L306.885,165.401L307.074,165.037L307.256,164.679L307.432,164.328L307.602,163.984L307.766,163.648L307.924,163.318L308.077,162.997L308.223,162.683L308.363,162.378L308.498,162.082L308.627,161.793L308.75,161.514L308.868,161.244L308.98,160.983L309.086,160.732L309.187,160.49L309.282,160.259L309.371,160.041L309.536,159.627L309.678,159.26L309.799,158.939L309.899,158.666L309.979,158.441L310.04,158.269L310.08,158.151L310.113,158.048L310.243,157.72L310.411,157.408L310.613,157.119L310.848,156.854L311.111,156.619L311.4,156.416L311.711,156.247L312.04,156.116L312.381,156.024L312.73,155.973L313.084,155.962L313.436,155.992Z" style="fill:white;"/>
        </g>
        <g transform="matrix(0.639752,0,0,0.588571,-66.3729,-11.7297)">
            <ellipse cx="214.5" cy="110.5" rx="8.5" ry="12.5" style="fill:white;"/>
        </g>
        <g transform="matrix(0.639752,0,0,0.588571,-29.3608,-11.7297)">
            <ellipse cx="214.5" cy="110.5" rx="8.5" ry="12.5" style="fill:white;"/>
        </g>
    </g>
</svg>
