<?xml version="1.0" encoding="UTF-8" standalone="no"?><!DOCTYPE svg PUBLIC "-//W3C//DTD SVG 1.1//EN" "http://www.w3.org/Graphics/SVG/1.1/DTD/svg11.dtd"><svg width="100%" height="100%" viewBox="0 0 4 4" version="1.1" xmlns="http://www.w3.org/2000/svg" xmlns:xlink="http://www.w3.org/1999/xlink" xml:space="preserve" style="fill-rule:evenodd;clip-rule:evenodd;stroke-linecap:round;stroke-linejoin:round;stroke-miterlimit:1.5;"><rect x="0" y="0" width="3.6" height="3.6" style="fill:#019aae;"/><g><g><circle cx="1.8" cy="1.804" r="1.436" style="fill:#00bcd4;stroke:#fff;stroke-width:0.25px;"/><path d="M0.81,2.063c0,0 0.246,0.742 0.999,0.731c0.751,-0.01 0.981,-0.731 0.981,-0.731" style="fill:none;stroke:#fff;stroke-width:0.25px;"/></g><ellipse cx="1.28" cy="1.27" rx="0.152" ry="0.205" style="fill:#fff;"/><ellipse cx="2.312" cy="1.27" rx="0.152" ry="0.205" style="fill:#fff;"/></g><g><circle cx="1.8" cy="1.804" r="1.436" style="fill:#00bcd4;stroke:#fff;stroke-width:0.2px;"/><ellipse cx="1.804" cy="2.311" rx="0.447" ry="0.497" style="fill:#fff;"/><g><ellipse cx="1.407" cy="1.417" rx="0.149" ry="0.199" style="fill:#fff;"/><path d="M1.503,1.303c0.011,-0.017 0.007,-0.041 -0.01,-0.052l-0.304,-0.207c-0.017,-0.011 -0.04,-0.007 -0.051,0.01l-0.042,0.062c-0.012,0.017 -0.007,0.04 0.01,0.052l0.303,0.206c0.017,0.012 0.04,0.007 0.052,-0.01l0.042,-0.061Z" style="fill:#fff;"/></g><g><ellipse cx="2.251" cy="1.417" rx="0.149" ry="0.199" style="fill:#fff;"/><path d="M2.155,1.303c-0.012,-0.017 -0.007,-0.041 0.01,-0.052l0.304,-0.207c0.017,-0.011 0.04,-0.007 0.051,0.01l0.042,0.062c0.012,0.017 0.007,0.04 -0.01,0.052l-0.303,0.206c-0.017,0.012 -0.041,0.007 -0.052,-0.01l-0.042,-0.061Z" style="fill:#fff;"/></g></g></svg>