<?xml version="1.0" encoding="UTF-8" standalone="no"?><!DOCTYPE svg PUBLIC "-//W3C//DTD SVG 1.1//EN" "http://www.w3.org/Graphics/SVG/1.1/DTD/svg11.dtd"><svg width="100%" height="100%" viewBox="0 0 4 4" version="1.1" xmlns="http://www.w3.org/2000/svg" xmlns:xlink="http://www.w3.org/1999/xlink" xml:space="preserve" style="fill-rule:evenodd;clip-rule:evenodd;stroke-linecap:round;stroke-linejoin:round;stroke-miterlimit:1.5;"><rect x="0" y="0" width="3.6" height="3.6" style="fill:#019aae;"/><g><g><circle cx="1.8" cy="1.804" r="1.436" style="fill:#00bcd4;stroke:#fff;stroke-width:0.25px;"/><path d="M0.81,2.063c0,0 0.246,0.742 0.999,0.731c0.751,-0.01 0.981,-0.731 0.981,-0.731" style="fill:none;stroke:#fff;stroke-width:0.25px;"/></g><ellipse cx="1.28" cy="1.27" rx="0.152" ry="0.205" style="fill:#fff;"/><ellipse cx="2.312" cy="1.27" rx="0.152" ry="0.205" style="fill:#fff;"/></g><g><circle cx="1.8" cy="1.804" r="1.436" style="fill:#00bcd4;stroke:#fff;stroke-width:0.2px;"/><ellipse cx="1.288" cy="1.504" rx="0.205" ry="0.239" style="fill:#fff;"/><path d="M1.192,2.766c0,0 0.415,-0.137 0.614,-0.136c0.199,0 0.614,0.136 0.614,0.136c0,0 -0.18,-0.488 -0.614,-0.478c-0.433,0.011 -0.579,0.236 -0.614,0.478" style="fill:#fff;"/><path d="M1.306,0.865c-0.013,-0.013 -0.035,-0.013 -0.048,0l-0.437,0.432c-0.014,0.013 -0.014,0.034 -0.001,0.048l0.048,0.048c0.013,0.014 0.035,0.014 0.048,0.001l0.438,-0.432c0.013,-0.013 0.013,-0.035 0,-0.048l-0.048,-0.049Z" style="fill:#fff;"/><ellipse cx="2.312" cy="1.504" rx="0.205" ry="0.239" style="fill:#fff;"/><path d="M2.294,0.865c0.013,-0.013 0.035,-0.013 0.048,0l0.437,0.432c0.014,0.013 0.014,0.034 0.001,0.048l-0.048,0.048c-0.013,0.014 -0.035,0.014 -0.048,0.001l-0.438,-0.432c-0.013,-0.013 -0.013,-0.035 0,-0.048l0.048,-0.049Z" style="fill:#fff;"/></g></svg>