<?xml version="1.0" encoding="UTF-8" standalone="no"?>
<!DOCTYPE svg PUBLIC "-//W3C//DTD SVG 1.1//EN" "http://www.w3.org/Graphics/SVG/1.1/DTD/svg11.dtd">
<svg width="100%" height="100%" viewBox="0 0 30 30" version="1.1" xmlns="http://www.w3.org/2000/svg" xmlns:xlink="http://www.w3.org/1999/xlink" xml:space="preserve" style="fill-rule:evenodd;clip-rule:evenodd;stroke-linecap:round;stroke-linejoin:round;stroke-miterlimit:1.5;">
    <g transform="matrix(1.51545,0,0,1.517,-6.97484,-8.51354)">
        <g transform="matrix(0.0340574,0,0,0.0340574,5.77911,6.55725)">
            <path d="M138,13L138,84" style="fill:none;stroke:white;stroke-width:32.28px;"/>
        </g>
        <g transform="matrix(0.0340574,0,0,0.0340574,13.8167,6.55725)">
            <path d="M138,13L138,84" style="fill:none;stroke:white;stroke-width:32.28px;"/>
        </g>
        <g transform="matrix(0.0340574,0,0,0.0340574,5.77911,6.55725)">
            <path d="M98,40C97.999,40.096 97.66,85.23 98,95C98.34,104.78 102.906,118.409 138,118C172.809,117.594 175.292,104.934 175,95C174.709,85.077 174.999,40.095 175,40L332,40C332,40.096 331.811,85.387 332,95C332.19,104.623 338.085,118.275 375,118C412.062,117.724 412.806,102.953 413,95C413.193,87.083 413.002,40.418 413,40.003C412.536,40.001 413,40 413,40L413,40.003C414.153,40.007 421.037,40.013 455,40C517.071,39.977 512,95 512,95C512,95 513.007,412.313 512,464C510.993,515.687 455,512 455,512C455,512 99.649,512.354 50,512C0.351,511.646 0,464 0,464C0,464 -0.515,149.303 0,95C0.514,40.754 49.895,40.002 50,40L98,40ZM40,176L473,176L473,455C473,455 475.544,472.203 455,472C434.456,471.797 55,472 55,472C55,472 40.055,470.601 40,455C39.945,439.399 40,176 40,176Z" style="fill:white;"/>
        </g>
    </g>
    <g transform="matrix(0.0516123,0,0,0.0516652,-3.94584,9.49359)">
        <path d="M359.438,184.849C358.256,183.077 358.552,183.077 357.075,181.305C355.598,178.943 353.826,177.171 353.531,175.103C352.94,170.378 352.94,166.243 353.531,162.699C354.122,158.565 355.894,154.725 358.256,151.477C360.028,148.819 361.505,146.161 362.982,143.798C364.754,141.14 366.526,138.482 367.707,136.119C369.184,132.575 371.251,129.622 372.137,126.078C373.318,122.829 373.909,118.99 374.204,115.741C374.5,111.902 374.5,108.358 374.204,104.814C373.909,101.27 372.728,97.726 371.546,94.477C370.365,90.933 368.888,87.98 367.116,84.731C365.344,81.187 363.572,77.939 361.21,74.985C359.142,72.032 356.78,69.079 353.826,66.716C351.168,64.058 347.92,61.991 344.966,59.923C341.718,58.151 338.469,56.084 334.925,54.607C331.676,53.131 328.132,51.949 324.293,51.063C319.863,50.177 315.138,49.587 310.117,48.996C305.982,48.701 301.257,48.996 295.941,49.291L292.102,49.291C288.853,48.996 285.604,48.701 282.356,48.996C278.221,49.291 274.382,50.177 270.838,50.768C266.703,51.654 262.864,52.245 259.32,53.426C255.48,54.607 252.232,56.97 248.983,58.742C245.439,60.514 242.19,62.581 238.942,64.944C235.398,67.602 231.854,71.146 229.196,76.167C225.947,82.369 226.242,87.094 227.424,90.343C228.605,93.296 231.558,97.726 238.351,100.089C241.895,101.27 245.439,100.975 248.983,100.975C252.527,100.679 256.071,100.089 259.615,98.612L271.724,93.296C274.382,92.115 274.677,93.001 277.63,91.819C281.174,90.047 284.718,88.866 287.967,87.98C291.806,87.094 295.35,86.799 299.19,87.094C302.734,87.389 306.573,87.685 310.117,88.866C315.138,90.933 318.682,93.887 321.635,96.84C325.474,100.679 327.542,104.814 328.428,108.358C329.609,111.607 329.904,114.56 329.904,117.809C329.904,121.353 329.609,124.306 328.723,127.555C327.837,130.508 326.951,133.757 325.179,136.415C323.702,138.777 321.34,140.549 318.682,142.617C316.614,144.093 314.252,146.161 311.298,147.342C308.345,148.819 305.096,149.409 302.438,150.591C300.371,151.477 298.304,152.953 296.236,153.839C291.806,155.907 288.558,158.565 285.9,162.404C282.356,167.425 282.356,173.036 286.195,178.057C288.853,181.601 292.397,184.259 297.122,186.326C300.666,187.507 303.915,188.984 307.459,190.165C310.708,191.642 310.708,191.347 314.252,192.823C317.5,194.005 320.454,195.186 322.816,196.958C325.474,198.73 328.428,200.797 330.2,203.455C332.562,206.409 333.153,210.248 334.334,213.792C335.22,217.041 336.697,220.585 336.697,224.424C336.697,227.968 335.22,231.217 334.039,235.056C332.858,238.305 331.972,241.849 330.2,244.802C328.132,247.755 325.474,250.118 322.816,252.481C319.863,254.548 316.91,256.615 313.661,257.797C309.822,259.273 305.982,259.864 302.438,260.455C298.599,260.75 294.76,260.455 290.92,260.159C287.081,259.569 283.242,259.569 279.698,258.092C276.154,256.615 272.61,254.843 269.361,252.776C265.522,250.118 261.978,247.755 258.138,245.393C256.957,244.802 256.957,245.097 255.776,244.507C253.118,243.03 250.164,241.849 247.211,241.553C244.258,240.963 241.304,241.553 238.056,242.144C232.444,243.03 228.31,245.393 225.652,249.232C222.994,253.367 221.812,258.387 223.289,263.999C224.766,269.61 228.014,274.335 232.74,278.175C235.693,280.537 238.942,282.309 241.895,284.081C245.144,286.149 248.097,287.921 251.346,289.397C254.89,290.874 257.843,292.941 261.387,294.123C264.931,295.304 268.475,296.19 272.019,297.076C275.563,297.667 279.402,297.962 283.242,298.257C286.786,298.553 290.33,298.553 294.169,298.553C298.304,298.553 302.438,298.257 306.573,297.962C310.412,297.371 314.547,297.371 318.682,296.781C321.93,295.895 325.179,294.713 328.428,293.827C331.676,292.646 334.63,291.465 337.583,289.988C340.536,288.807 343.785,287.33 346.443,285.558C349.396,283.786 352.645,282.605 355.303,280.537C357.961,278.47 360.324,275.812 362.686,273.449C365.049,271.087 366.526,268.133 368.298,265.18C370.365,262.522 372.137,259.569 373.318,256.615C374.795,253.071 375.681,249.232 376.567,245.688C377.453,242.144 378.339,238.6 378.339,234.761C378.634,231.217 378.634,227.377 378.044,223.833C377.453,220.289 376.862,216.45 375.681,212.906C374.5,209.362 373.318,206.113 371.546,202.569C369.774,199.616 368.002,196.367 365.64,193.119C363.868,190.461 361.8,187.507 359.438,184.849Z" style="fill:white;fill-rule:nonzero;"/>
        <path d="M492.633,69.965C491.452,66.125 489.384,62.877 486.726,60.219C484.068,57.561 480.524,55.789 476.39,54.607C471.96,53.426 467.825,53.426 462.804,54.312C458.965,54.607 455.126,55.493 451.286,56.97C447.742,58.447 444.198,60.219 440.654,62.581C437.996,64.649 435.043,66.421 432.385,68.488C429.727,70.555 427.66,73.213 425.002,75.576C422.344,77.643 419.686,80.006 417.323,82.073L409.94,88.866C407.282,91.229 406.986,90.933 404.328,93.296C401.08,96.249 397.536,99.203 394.878,103.042C392.22,105.995 391.038,109.539 390.448,112.788C390.152,116.332 390.743,120.171 393.106,123.125C395.468,126.078 398.717,127.555 402.556,128.145C405.51,128.441 409.054,127.259 412.598,125.487C415.256,124.306 417.914,123.125 420.276,121.648C420.867,121.353 421.162,121.648 422.048,121.057C425.888,118.99 430.613,118.104 435.929,117.513C439.473,117.218 442.131,117.218 444.789,118.695C447.152,120.171 449.81,121.943 451.582,125.192C452.468,126.669 452.172,129.031 452.763,131.394C453.944,135.824 454.535,140.845 454.535,147.637C454.535,152.067 455.126,156.202 455.126,160.632C455.126,164.767 455.716,169.197 455.716,173.331C455.716,177.761 454.83,181.896 454.83,186.326C454.83,190.461 455.126,194.891 455.126,199.025C455.126,204.046 455.421,204.046 455.421,208.771L455.421,218.517C455.421,223.538 454.83,223.538 454.83,228.263C454.83,232.398 455.421,236.533 455.421,240.963C455.421,245.097 455.126,249.232 455.126,253.367C455.126,256.911 455.126,260.75 455.716,264.589C456.012,268.133 457.193,271.677 458.079,275.517C458.965,279.356 461.032,282.309 463.395,284.672C466.053,287.035 469.006,288.807 472.846,289.102C473.436,289.397 474.027,289.988 474.618,289.988C478.162,289.988 482.001,288.807 484.659,286.739C487.317,284.967 489.089,281.719 490.566,278.175C492.338,274.631 493.519,271.087 493.519,266.952C493.814,263.113 494.405,259.569 494.405,256.025C494.405,252.481 494.11,248.937 494.11,245.393C494.11,241.849 494.405,238.009 494.405,234.465L494.405,223.833C494.405,220.289 493.814,216.745 493.814,213.201C493.814,209.657 494.11,206.113 494.11,202.569L494.11,191.937C494.11,186.031 493.814,186.031 493.814,180.124L493.814,168.606C493.814,162.995 493.519,162.995 493.519,157.088C493.519,153.249 493.814,149.114 493.814,145.275C493.814,141.435 494.11,137.301 494.11,133.461C494.11,129.622 493.814,125.487 493.814,121.648C493.814,117.513 494.11,113.674 494.11,109.835L494.11,98.021C494.11,93.887 493.519,90.047 493.519,86.208C493.519,81.187 494.405,75.576 492.633,69.965Z" style="fill:white;fill-rule:nonzero;"/>
    </g>
</svg>
