<?xml version="1.0" encoding="UTF-8" standalone="no"?><!DOCTYPE svg PUBLIC "-//W3C//DTD SVG 1.1//EN" "http://www.w3.org/Graphics/SVG/1.1/DTD/svg11.dtd"><svg width="100%" height="100%" viewBox="0 0 6 6" version="1.1" xmlns="http://www.w3.org/2000/svg" xmlns:xlink="http://www.w3.org/1999/xlink" xml:space="preserve" style="fill-rule:evenodd;clip-rule:evenodd;stroke-linecap:round;stroke-linejoin:round;stroke-miterlimit:1.5;"><g><path d="M2.691,4.946c0.12,-0.003 0.238,-0.053 0.34,-0.148c0.073,-0.069 1.483,-1.536 1.68,-1.764c0.274,-0.32 0.463,-1.207 -0.179,-1.838c-0.887,-0.871 -1.819,0.082 -1.841,0.093c-0.014,0.008 -1.015,-1.08 -1.983,-0.093c-0.511,0.52 -0.472,1.33 -0.09,1.838c0.23,0.305 1.606,1.674 1.716,1.764c0.151,0.124 0.236,0.152 0.357,0.148Z" style="fill:none;stroke:#fff;stroke-width:0.65px;"/><g><circle cx="3.347" cy="2.718" r="0.446" style="fill:#fff;stroke:#fff;stroke-width:0.25px;"/><path d="M0.32,2.728c0,0 1.155,0.014 1.153,0c-0.002,-0.015 0.334,-0.76 0.334,-0.76l0.409,1.085l0.234,-0.392c0,0 0.449,-0.003 0.451,0c0.001,0.003 0,0.217 0,0.217l-0.351,0l-0.334,0.651l-0.409,-1.077l-0.209,0.484l-1.092,0l-0.186,-0.208Z" style="fill:none;stroke:#fff;stroke-width:0.4px;"/></g></g></svg>