<?xml version="1.0" encoding="UTF-8" standalone="no"?>
<!DOCTYPE svg PUBLIC "-//W3C//DTD SVG 1.1//EN" "http://www.w3.org/Graphics/SVG/1.1/DTD/svg11.dtd">
<svg width="100%" height="100%" viewBox="0 0 30 30" version="1.1" xmlns="http://www.w3.org/2000/svg" xmlns:xlink="http://www.w3.org/1999/xlink" xml:space="preserve" style="fill-rule:evenodd;clip-rule:evenodd;stroke-linejoin:round;stroke-miterlimit:1.41421;">
    <g transform="matrix(0.0571826,0,0,0.054177,0.20396,1.26136)">
        <path d="M39,0L39,25C39,25 38.264,37.923 56,38C73.736,38.077 81,38 81,38L81,66C81,66 79.914,80.297 106,80C137.594,79.64 411,80 411,80C411,80 431.914,82.235 432,66C432.092,48.577 432,38 432,38L461,38C461,38 473.758,37.567 473,25C472.242,12.433 473,0 473,0L39,0Z" style="fill:white;"/>
        <path d="M375,74.2C375,74.2 385.188,151.392 346,183C306.812,214.608 285.334,232.652 287,256C288.666,279.348 332.433,308.763 346,334C359.567,359.237 371.09,423.413 375,436C375.955,439.075 409,436 409,436C409,436 397.567,341.195 366,305C338.452,273.413 321.462,269.038 320,256C318.538,242.962 346.181,226.129 366,207C413.013,161.624 409.393,95.988 409,74.2C408.918,69.654 375,74.2 375,74.2Z" style="fill:white;"/>
        <g transform="matrix(-1,0,0,1,510.126,0)">
            <path d="M375,72.179C375,72.179 385.188,151.392 346,183C306.812,214.608 285.334,232.652 287,256C288.666,279.348 332.433,308.763 346,334C359.567,359.237 371.09,423.413 375,436C375.955,439.075 409,436 409,436C409,436 397.567,341.195 366,305C338.452,273.413 321.462,269.038 320,256C318.538,242.962 346.181,226.129 366,207C413.013,161.624 409.393,101.892 409,80.104C408.918,75.558 375,72.179 375,72.179Z" style="fill:white;"/>
        </g>
        <g transform="matrix(-1,1.22465e-16,-1.22465e-16,-1,512.032,512)">
            <path d="M39,0L39,25C39,25 38.264,37.923 56,38C73.736,38.077 81,38 81,38L81,66C81,66 79.914,80.297 106,80C137.594,79.64 411,80 411,80C411,80 431.914,82.235 432,66C432.092,48.577 432,38 432,38L461,38C461,38 473.758,37.567 473,25C472.242,12.433 473,0 473,0L39,0Z" style="fill:white;"/>
        </g>
        <path d="M186.2,164.2C186.2,164.2 312.984,162.489 315,164.2C332.278,178.865 262.203,206.825 263,256C263.342,277.092 273.063,278.138 318.8,344.2C341.762,377.366 334,450.167 334,450.167L178,437.367C178,437.367 174.977,372.648 193.2,344.2C223.428,297.011 247.631,297.796 245,256C242.286,212.882 182.782,193.212 186.2,164.2Z" style="fill:white;"/>
    </g>
</svg>
