<?xml version="1.0" encoding="UTF-8" standalone="no"?><!DOCTYPE svg PUBLIC "-//W3C//DTD SVG 1.1//EN" "http://www.w3.org/Graphics/SVG/1.1/DTD/svg11.dtd"><svg width="100%" height="100%" viewBox="0 0 6 6" version="1.1" xmlns="http://www.w3.org/2000/svg" xmlns:xlink="http://www.w3.org/1999/xlink" xml:space="preserve" style="fill-rule:evenodd;clip-rule:evenodd;stroke-linecap:round;stroke-linejoin:round;stroke-miterlimit:1.5;"><g><g><path d="M3.928,2.711l0.304,0" style="fill:none;stroke:#fff;stroke-width:0.14px;"/><path d="M4.08,2.559l0,0.304" style="fill:none;stroke:#fff;stroke-width:0.14px;"/><path d="M3.972,2.603l0.215,0.215" style="fill:none;stroke:#fff;stroke-width:0.14px;"/><path d="M4.187,2.603l-0.215,0.215" style="fill:none;stroke:#fff;stroke-width:0.14px;"/></g><g><path d="M4.668,1.351l0.304,0" style="fill:none;stroke:#fff;stroke-width:0.14px;"/><path d="M4.82,1.199l0,0.304" style="fill:none;stroke:#fff;stroke-width:0.14px;"/><path d="M4.713,1.244l0.215,0.214" style="fill:none;stroke:#fff;stroke-width:0.13px;"/><path d="M4.928,1.244l-0.215,0.214" style="fill:none;stroke:#fff;stroke-width:0.13px;"/></g><g><path d="M4.051,5.048l0.428,0" style="fill:none;stroke:#fff;stroke-width:0.13px;"/><path d="M4.265,4.834l0,0.428" style="fill:none;stroke:#fff;stroke-width:0.13px;"/><path d="M4.114,4.897l0.302,0.302" style="fill:none;stroke:#fff;stroke-width:0.13px;"/><path d="M4.416,4.897l-0.302,0.302" style="fill:none;stroke:#fff;stroke-width:0.13px;"/></g><g><path d="M0.9,4.744l0.427,0" style="fill:none;stroke:#fff;stroke-width:0.13px;"/><path d="M1.114,4.53l0,0.428" style="fill:none;stroke:#fff;stroke-width:0.13px;"/><path d="M0.963,4.593l0.302,0.302" style="fill:none;stroke:#fff;stroke-width:0.13px;"/><path d="M1.265,4.593l-0.302,0.302" style="fill:none;stroke:#fff;stroke-width:0.13px;"/></g><path d="M3.53,0.425c-1.555,0.593 -1.247,1.998 -1.084,2.371c0.154,0.355 0.667,1.191 2.22,0.934c0.042,-0.007 -0.45,0.76 -1.312,0.832c-1.618,0.135 -2.143,-0.945 -2.346,-1.337c-0.19,-0.366 -0.298,-1.966 1.197,-2.664c0.528,-0.247 1.377,-0.156 1.325,-0.136Z" style="fill:none;stroke:#fff;stroke-width:0.6px;"/></g></svg>