<?xml version="1.0" encoding="UTF-8" standalone="no"?><!DOCTYPE svg PUBLIC "-//W3C//DTD SVG 1.1//EN" "http://www.w3.org/Graphics/SVG/1.1/DTD/svg11.dtd"><svg width="100%" height="100%" viewBox="0 0 58 58" version="1.1" xmlns="http://www.w3.org/2000/svg" xmlns:xlink="http://www.w3.org/1999/xlink" xml:space="preserve" style="fill-rule:evenodd;clip-rule:evenodd;stroke-linecap:round;stroke-linejoin:round;stroke-miterlimit:1.5;"><g><path d="M17.584,15.91c0,0 2.538,-4.098 5.854,-2.066" style="fill:none;stroke:#fff;stroke-width:1px;"/><path d="M39.968,16.599c0,0 -2.537,-4.098 -5.854,-2.067" style="fill:none;stroke:#fff;stroke-width:1px;"/><path d="M16.206,39.672c0,0 11.624,7.658 24.107,-1.722" style="fill:none;stroke:#fff;stroke-width:1px;"/><path d="M39.28,35.539c0,0 0.337,2.801 3.099,3.444" style="fill:none;stroke:#fff;stroke-width:1px;"/><path d="M27.915,47.248c0,0 3.004,0.221 5.166,-1.033" style="fill:none;stroke:#fff;stroke-width:1px;"/><path d="M21.372,19.698c0,0 -2.372,2.495 -3.788,2.755c-1.417,0.26 4.724,3.332 7.576,0" style="fill:none;stroke:#fff;stroke-width:1px;"/><path d="M35.491,19.698c0,0 -2.371,2.495 -3.788,2.755c-1.416,0.26 4.724,3.332 7.577,0" style="fill:none;stroke:#fff;stroke-width:1px;"/><circle cx="28.604" cy="28.996" r="25.484" style="fill:none;stroke:#fff;stroke-width:1px;"/></g></svg>