<?xml version="1.0" encoding="UTF-8" standalone="no"?>
<!DOCTYPE svg PUBLIC "-//W3C//DTD SVG 1.1//EN" "http://www.w3.org/Graphics/SVG/1.1/DTD/svg11.dtd">
<svg width="100%" height="100%" viewBox="0 0 150 30" version="1.1" xmlns="http://www.w3.org/2000/svg" xmlns:xlink="http://www.w3.org/1999/xlink" xml:space="preserve" style="fill-rule:evenodd;clip-rule:evenodd;stroke-linejoin:round;stroke-miterlimit:1.41421;">
    <g transform="matrix(0.682055,0,0,0.682055,-10.7961,-31.6597)">
        <g transform="matrix(1,0,0,1,47.7002,-545.143)">
            <path d="M35.702,623.965C35.502,623.865 35.252,623.799 34.985,623.715C34.769,623.649 34.535,623.565 34.319,623.465C34.119,623.349 33.935,623.199 33.719,623.049C33.535,622.915 33.352,622.782 33.169,622.599C33.002,622.449 32.819,622.299 32.652,622.115C32.502,621.965 32.369,621.799 32.235,621.632C32.119,621.465 31.969,621.299 31.852,621.115C31.735,620.949 31.685,620.732 31.585,620.549C31.485,620.365 31.369,620.182 31.285,619.982C31.202,619.815 31.152,619.632 31.069,619.449C31.002,619.282 30.885,619.115 30.819,618.949C30.719,618.749 30.652,618.549 30.569,618.349C30.485,618.149 30.369,617.965 30.285,617.765C30.202,617.565 30.135,617.365 30.052,617.165L29.752,616.582C29.669,616.382 29.619,616.165 29.535,615.965C29.452,615.765 29.302,615.599 29.219,615.399L28.969,614.799C28.885,614.582 28.819,614.349 28.719,614.149L28.419,613.515C28.319,613.299 28.269,613.065 28.169,612.849L27.919,612.282C27.835,612.082 27.752,611.882 27.669,611.682L27.402,611.165C27.335,610.982 27.252,610.799 27.169,610.615L26.969,610.065C26.885,609.882 26.769,609.699 26.685,609.515L26.435,608.949C26.352,608.765 26.302,608.565 26.219,608.382C26.152,608.182 26.052,607.999 25.969,607.815C25.885,607.632 25.819,607.449 25.735,607.282C25.635,607.115 25.535,606.949 25.419,606.799C25.269,606.582 25.069,606.382 24.852,606.265C24.619,606.132 24.352,606.082 24.085,606.082C23.819,606.065 23.569,606.149 23.335,606.265C23.102,606.382 22.902,606.549 22.719,606.782C22.519,607.032 22.369,607.265 22.285,607.532C22.285,607.532 22.269,607.532 22.269,607.549C22.219,607.665 22.185,607.782 22.135,607.899C22.052,608.065 21.985,608.249 21.902,608.432C21.819,608.599 21.785,608.799 21.702,608.965C21.619,609.149 21.552,609.315 21.485,609.499C21.402,609.682 21.285,609.849 21.219,610.015L20.969,610.549C20.885,610.732 20.819,610.915 20.735,611.099C20.669,611.282 20.585,611.449 20.502,611.632C20.419,611.815 20.369,611.999 20.302,612.182C20.202,612.382 20.069,612.582 19.985,612.782C19.902,612.982 19.785,613.182 19.702,613.399L19.452,614.015C19.369,614.232 19.269,614.432 19.169,614.632C19.085,614.849 19.035,615.065 18.952,615.282L18.652,615.882C18.569,616.099 18.469,616.299 18.369,616.499C18.285,616.699 18.219,616.915 18.135,617.132C18.069,617.282 18.052,617.282 17.985,617.449C17.869,617.715 17.735,618.032 17.685,618.365C17.669,618.549 17.685,618.732 17.752,618.882C17.802,619.049 17.902,619.215 18.035,619.315C18.169,619.432 18.352,619.499 18.519,619.515C18.685,619.549 18.852,619.515 19.035,619.465C19.219,619.399 19.419,619.315 19.585,619.165C19.719,619.049 19.835,618.915 19.935,618.782C20.052,618.649 20.135,618.482 20.219,618.332C20.252,618.265 20.252,618.265 20.285,618.182L20.535,617.732C20.652,617.549 20.785,617.382 20.919,617.249C21.085,617.082 21.269,616.999 21.452,616.899C21.635,616.815 21.819,616.715 22.019,616.682C22.235,616.665 22.469,616.615 22.685,616.615C22.985,616.599 23.285,616.582 23.585,616.582C23.785,616.582 23.785,616.615 23.969,616.615L25.419,616.615C25.685,616.632 25.919,616.665 26.135,616.732C26.385,616.782 26.585,616.899 26.785,617.032C26.985,617.149 27.169,617.282 27.335,617.482C27.469,617.649 27.619,617.849 27.735,618.065C27.835,618.265 27.902,618.482 27.985,618.682C28.085,618.882 28.169,619.099 28.269,619.299C28.352,619.499 28.502,619.682 28.585,619.882C28.652,619.999 28.602,620.015 28.669,620.149C28.769,620.365 28.919,620.549 29.019,620.749C29.119,620.949 29.219,621.165 29.335,621.365C29.452,621.565 29.552,621.765 29.685,621.949C29.802,622.149 29.935,622.332 30.069,622.515C30.219,622.699 30.385,622.865 30.519,623.032C30.669,623.215 30.819,623.399 30.969,623.565C31.135,623.732 31.285,623.899 31.469,624.049C31.635,624.199 31.819,624.349 32.002,624.499C32.185,624.632 32.369,624.782 32.552,624.899C32.752,625.032 32.985,625.099 33.185,625.199C33.385,625.315 33.585,625.415 33.802,625.499C34.019,625.599 34.202,625.732 34.435,625.815C34.752,625.915 35.069,625.949 35.352,625.949C35.419,625.949 35.469,625.932 35.535,625.932C35.652,625.915 35.819,625.882 36.002,625.799C36.235,625.699 36.419,625.549 36.485,625.332C36.552,625.099 36.502,624.865 36.352,624.649C36.185,624.365 35.985,624.099 35.702,623.965ZM25.369,613.999C25.269,614.149 25.169,614.299 25.019,614.399C24.869,614.499 24.702,614.582 24.519,614.615C24.335,614.649 24.135,614.632 23.952,614.632C23.752,614.615 23.569,614.599 23.385,614.549C23.135,614.499 22.935,614.415 22.785,614.299C22.619,614.165 22.519,613.999 22.452,613.765C22.402,613.582 22.352,613.382 22.352,613.132C22.385,612.932 22.485,612.732 22.535,612.515C22.585,612.315 22.619,612.115 22.702,611.915C22.785,611.732 22.902,611.549 23.019,611.365C23.135,611.199 23.252,611.015 23.402,610.865C23.535,610.732 23.769,610.682 24.019,610.682C24.252,610.699 24.452,610.765 24.569,610.882C24.735,611.065 24.852,611.265 24.952,611.449C25.052,611.615 25.152,611.765 25.235,611.932C25.302,612.099 25.335,612.282 25.385,612.482C25.435,612.649 25.552,612.815 25.585,612.999C25.635,613.182 25.635,613.365 25.602,613.532C25.585,613.699 25.469,613.849 25.369,613.999Z" style="fill:white;fill-rule:nonzero;stroke:white;stroke-width:1.47px;"/>
            <path d="M32.252,615.682C32.319,615.865 32.369,616.065 32.469,616.232C32.552,616.415 32.685,616.565 32.785,616.732C32.885,616.899 33.002,617.049 33.119,617.199C33.252,617.365 33.335,617.549 33.469,617.682C33.602,617.832 33.752,617.949 33.902,618.082L34.452,618.465C34.635,618.582 34.819,618.715 35.002,618.815C35.202,618.932 35.385,619.065 35.585,619.149C35.785,619.249 36.002,619.315 36.202,619.399C36.402,619.482 36.635,619.515 36.835,619.565C37.052,619.632 37.269,619.699 37.485,619.732C37.702,619.765 37.919,619.832 38.135,619.849C38.352,619.865 38.585,619.849 38.802,619.849C39.002,619.849 39.202,619.832 39.402,619.815L40.019,619.765C40.219,619.732 40.419,619.715 40.619,619.665C40.819,619.632 41.002,619.565 41.202,619.499C41.452,619.432 41.685,619.315 41.919,619.199C42.135,619.065 42.352,618.915 42.552,618.749C42.719,618.582 42.852,618.432 42.902,618.249C42.969,618.049 42.952,617.849 42.885,617.632C42.802,617.415 42.685,617.265 42.519,617.149C42.369,617.032 42.185,616.932 41.952,616.915C41.735,616.899 41.519,616.932 41.335,616.965C41.119,616.999 40.902,617.032 40.719,617.115C40.569,617.199 40.419,617.249 40.252,617.315C40.102,617.365 39.952,617.432 39.769,617.482C39.485,617.565 39.235,617.649 39.002,617.665C38.719,617.699 38.452,617.665 38.202,617.615C37.985,617.582 37.785,617.532 37.585,617.465C37.385,617.399 37.152,617.382 36.969,617.299C36.769,617.215 36.585,617.082 36.419,616.965C36.235,616.865 36.069,616.732 35.902,616.582C35.752,616.449 35.619,616.282 35.469,616.115C35.335,615.965 35.219,615.782 35.102,615.599C34.985,615.432 34.869,615.249 34.769,615.049C34.685,614.865 34.602,614.682 34.519,614.465C34.452,614.265 34.385,614.049 34.352,613.815C34.302,613.599 34.285,613.382 34.285,613.132C34.269,612.915 34.252,612.699 34.252,612.449C34.252,612.215 34.285,611.982 34.319,611.765C34.352,611.532 34.402,611.299 34.469,611.082C34.519,610.865 34.619,610.649 34.702,610.449C34.802,610.232 34.869,609.999 34.985,609.815C35.119,609.615 35.252,609.432 35.419,609.249C35.552,609.082 35.735,608.932 35.902,608.765C36.085,608.615 36.235,608.432 36.435,608.315C36.635,608.182 36.835,608.065 37.052,607.982C37.252,607.882 37.485,607.832 37.719,607.782C37.935,607.732 38.169,607.665 38.402,607.649C38.619,607.632 38.852,607.682 39.102,607.699C39.335,607.715 39.585,607.715 39.835,607.765C40.052,607.815 40.285,607.932 40.535,608.015C40.752,608.082 40.952,608.115 41.135,608.149C41.352,608.165 41.552,608.132 41.735,608.082C41.935,608.049 42.102,607.932 42.235,607.815C42.369,607.682 42.485,607.532 42.552,607.332C42.602,607.132 42.602,606.932 42.535,606.765C42.469,606.599 42.352,606.449 42.185,606.299C42.052,606.199 41.919,606.115 41.802,606.049C41.635,605.949 41.452,605.865 41.252,605.799C41.069,605.732 40.869,605.682 40.652,605.632C40.385,605.565 40.102,605.532 39.852,605.515C39.569,605.499 39.302,605.499 39.035,605.499C38.852,605.499 38.852,605.549 38.685,605.549C38.452,605.549 38.252,605.549 38.035,605.565C37.819,605.582 37.602,605.599 37.402,605.632C37.185,605.665 36.969,605.715 36.769,605.765C36.552,605.832 36.335,605.849 36.135,605.915C35.935,605.999 35.769,606.115 35.569,606.215C35.369,606.299 35.152,606.365 34.969,606.465C34.785,606.582 34.619,606.715 34.452,606.849C34.285,606.982 34.102,607.099 33.935,607.232L33.469,607.682C33.319,607.849 33.169,608.049 33.035,608.232C32.885,608.415 32.785,608.615 32.669,608.815C32.535,609.015 32.452,609.215 32.352,609.432C32.252,609.649 32.169,609.849 32.085,610.065C32.019,610.282 31.969,610.515 31.919,610.749C31.869,610.965 31.819,611.182 31.785,611.415C31.752,611.665 31.735,611.899 31.719,612.132C31.702,612.382 31.685,612.615 31.685,612.849C31.702,613.082 31.669,613.332 31.702,613.565C31.735,613.815 31.819,614.049 31.869,614.282C31.919,614.532 31.919,614.782 31.985,614.999C32.052,615.249 32.169,615.465 32.252,615.682Z" style="fill:white;fill-rule:nonzero;stroke:white;stroke-width:1.47px;"/>
            <path d="M47.319,608.965C47.402,609.232 47.419,609.515 47.419,609.882L47.419,610.532C47.419,610.732 47.402,610.949 47.402,611.165C47.402,611.382 47.435,611.582 47.435,611.799C47.435,612.015 47.419,612.232 47.419,612.432C47.419,612.765 47.452,612.765 47.452,613.099L47.452,613.749C47.452,614.082 47.419,614.082 47.419,614.399L47.419,615.665C47.419,615.882 47.435,616.082 47.419,616.299L47.419,616.932C47.419,617.149 47.435,617.365 47.452,617.582L47.552,618.215C47.602,618.499 47.702,618.765 47.885,618.949C48.085,619.115 48.352,619.199 48.635,619.199C48.652,619.199 48.669,619.215 48.685,619.215C48.969,619.215 49.202,619.115 49.385,618.949C49.569,618.799 49.702,618.565 49.769,618.282C49.802,618.132 49.835,617.982 49.835,617.782C49.852,617.565 49.819,617.349 49.819,617.115C49.819,616.782 49.835,616.782 49.835,616.449C49.835,616.132 49.802,616.132 49.802,615.799C49.802,615.565 49.835,615.349 49.835,615.132C49.835,614.899 49.819,614.682 49.819,614.465C49.819,614.232 49.835,614.015 49.835,613.799C49.835,613.565 49.869,613.349 49.869,613.132C49.869,612.899 49.819,612.682 49.819,612.465C49.819,612.232 49.802,612.015 49.802,611.799L49.802,611.132C49.802,610.899 49.852,610.682 49.852,610.465C49.852,610.265 49.869,610.065 49.885,609.832C49.902,609.649 49.885,609.432 49.919,609.215C49.952,608.949 50.069,608.749 50.169,608.549C50.302,608.349 50.435,608.149 50.635,608.015C50.819,607.899 51.052,607.832 51.319,607.765C51.402,607.749 51.502,607.732 51.619,607.732C51.669,607.715 51.719,607.699 51.769,607.699C51.869,607.682 51.969,607.665 52.069,607.665C52.285,607.632 52.519,607.615 52.752,607.582C52.985,607.532 53.235,607.465 53.385,607.315C53.569,607.149 53.669,606.915 53.669,606.699C53.669,606.465 53.535,606.265 53.352,606.099C53.185,605.949 52.969,605.832 52.735,605.815C52.619,605.799 52.635,605.732 52.519,605.715L51.969,605.665C51.785,605.649 51.585,605.632 51.402,605.632C51.202,605.632 50.985,605.649 50.785,605.649C50.585,605.649 50.369,605.632 50.169,605.632L49.552,605.632C49.335,605.632 49.135,605.665 48.919,605.665C48.719,605.665 48.519,605.649 48.302,605.649L47.685,605.649C47.485,605.649 47.269,605.665 47.069,605.665C46.869,605.665 46.652,605.682 46.452,605.682C46.235,605.682 46.035,605.665 45.835,605.665C45.819,605.665 45.819,605.649 45.819,605.649C45.602,605.649 45.385,605.649 45.169,605.665C44.952,605.699 44.752,605.749 44.535,605.782C44.269,605.815 44.069,605.932 43.902,606.082C43.735,606.249 43.602,606.482 43.619,606.715C43.635,606.949 43.735,607.182 43.902,607.332C44.052,607.465 44.269,607.532 44.519,607.565C44.685,607.599 44.835,607.649 45.002,607.665C45.169,607.699 45.352,607.699 45.502,607.715C45.735,607.749 45.969,607.749 46.185,607.815C46.385,607.882 46.552,607.965 46.685,608.065C46.852,608.165 46.952,608.332 47.052,608.482C47.152,608.632 47.269,608.782 47.319,608.965Z" style="fill:white;fill-rule:nonzero;stroke:white;stroke-width:1.47px;"/>
            <path d="M55.185,611.499C55.185,611.882 55.219,611.882 55.219,612.265C55.219,612.649 55.185,612.649 55.185,613.015C55.185,613.249 55.202,613.465 55.202,613.699C55.202,613.915 55.219,614.149 55.219,614.382L55.219,615.732C55.219,615.949 55.235,616.182 55.235,616.399C55.235,616.632 55.202,616.849 55.202,617.082C55.202,617.315 55.235,617.532 55.252,617.732C55.269,617.965 55.269,618.199 55.302,618.399C55.369,618.649 55.519,618.815 55.685,618.965C55.835,619.115 56.019,619.232 56.269,619.265C56.335,619.282 56.402,619.315 56.469,619.315C56.752,619.315 56.985,619.215 57.185,619.032C57.369,618.882 57.469,618.649 57.535,618.365C57.585,618.099 57.635,617.849 57.635,617.599L57.635,616.982C57.635,616.782 57.602,616.565 57.602,616.365C57.602,616.149 57.619,615.949 57.619,615.732C57.619,615.532 57.585,615.315 57.585,615.115L57.585,614.499C57.585,614.282 57.619,614.082 57.619,613.865C57.619,613.582 57.652,613.582 57.652,613.299L57.652,612.732C57.652,612.432 57.635,612.432 57.635,612.149C57.635,611.865 57.619,611.865 57.619,611.582C57.619,611.332 57.602,611.099 57.602,610.849C57.602,610.615 57.585,610.365 57.585,610.115C57.585,609.882 57.619,609.632 57.619,609.399C57.619,609.149 57.585,608.899 57.585,608.665C57.585,608.449 57.635,608.249 57.635,608.032C57.635,607.832 57.619,607.615 57.619,607.415C57.619,607.165 57.569,606.832 57.385,606.515C57.235,606.249 56.969,606.065 56.652,605.999C56.352,605.932 56.019,605.999 55.769,606.199C55.519,606.399 55.335,606.649 55.285,606.965C55.285,607.065 55.319,607.065 55.302,607.165L55.252,607.699C55.235,607.882 55.169,608.065 55.169,608.249C55.169,608.449 55.185,608.632 55.185,608.832L55.185,609.982C55.185,610.165 55.219,610.365 55.219,610.549C55.202,611.032 55.185,611.032 55.185,611.499Z" style="fill:white;fill-rule:nonzero;stroke:white;stroke-width:1.47px;"/>
            <path d="M59.385,608.149L59.619,608.749C59.752,609.065 59.735,609.065 59.852,609.365C59.969,609.665 59.935,609.682 60.069,609.982L60.319,610.615C60.402,610.832 60.502,611.032 60.602,611.232L60.852,611.865C60.952,612.082 61.002,612.299 61.085,612.515L61.335,613.149C61.419,613.349 61.552,613.549 61.635,613.749C61.719,613.965 61.769,614.199 61.852,614.399C61.919,614.582 62.019,614.765 62.085,614.949C62.169,615.132 62.219,615.332 62.302,615.515C62.369,615.699 62.485,615.865 62.569,616.065C62.635,616.249 62.669,616.449 62.752,616.649C62.819,616.832 62.902,617.015 62.969,617.199C63.035,617.382 63.135,617.565 63.219,617.765C63.302,617.982 63.419,618.182 63.535,618.349C63.652,618.549 63.785,618.732 63.952,618.882C64.102,618.999 64.252,619.049 64.419,619.115C64.585,619.165 64.735,619.232 64.935,619.232C64.935,619.232 64.935,619.215 64.952,619.215C65.185,619.215 65.402,619.132 65.602,619.032C65.802,618.932 65.969,618.782 66.102,618.582C66.235,618.399 66.385,618.215 66.485,618.015C66.585,617.815 66.652,617.599 66.735,617.365C66.835,617.149 66.885,616.932 66.985,616.715C67.069,616.499 67.152,616.282 67.252,616.065C67.319,615.899 67.435,615.732 67.502,615.565C67.569,615.399 67.619,615.215 67.702,615.032C67.769,614.865 67.819,614.682 67.885,614.499C67.985,614.299 68.102,614.082 68.185,613.882C68.269,613.665 68.369,613.449 68.469,613.232C68.552,613.032 68.619,612.799 68.702,612.599L68.952,611.965C69.069,611.699 69.185,611.449 69.285,611.182C69.369,610.965 69.485,610.749 69.569,610.532C69.669,610.315 69.752,610.099 69.852,609.882C69.935,609.699 69.969,609.482 70.052,609.299L70.302,608.732C70.385,608.549 70.485,608.365 70.552,608.165C70.619,607.982 70.669,607.765 70.735,607.582C70.785,607.415 70.885,607.232 70.902,607.032C70.919,606.832 70.902,606.649 70.852,606.482C70.785,606.299 70.669,606.182 70.519,606.065C70.369,605.949 70.219,605.899 70.019,605.882C69.852,605.882 69.669,605.865 69.469,605.949C69.285,606.015 69.135,606.132 69.002,606.232C68.885,606.332 68.769,606.465 68.685,606.599C68.602,606.732 68.519,606.882 68.452,607.049C68.452,607.082 68.452,607.082 68.435,607.099C68.352,607.315 68.252,607.532 68.169,607.749C68.085,607.965 67.985,608.182 67.902,608.399C67.819,608.615 67.752,608.849 67.669,609.065L67.469,609.699C67.385,609.899 67.269,610.099 67.202,610.299C67.119,610.515 67.019,610.732 66.935,610.965C66.852,611.182 66.819,611.432 66.735,611.649C66.652,611.865 66.535,612.082 66.452,612.299C66.369,612.499 66.269,612.699 66.169,612.899C66.069,613.099 65.969,613.282 65.835,613.465C65.602,613.765 65.335,613.932 65.069,613.932L65.069,613.982C64.819,613.982 64.602,613.782 64.352,613.499C64.252,613.365 64.152,613.232 64.069,613.082C63.985,612.932 63.902,612.799 63.835,612.615C63.752,612.432 63.669,612.232 63.602,612.049C63.519,611.849 63.469,611.665 63.385,611.465C63.319,611.282 63.235,611.082 63.169,610.882C63.102,610.699 63.019,610.515 62.935,610.315C62.869,610.115 62.785,609.932 62.719,609.732C62.652,609.549 62.535,609.365 62.469,609.165L62.269,608.582C62.202,608.399 62.119,608.199 62.052,607.999C61.985,607.815 61.919,607.615 61.835,607.415C61.769,607.232 61.702,607.049 61.635,606.899C61.535,606.715 61.402,606.582 61.285,606.449C61.152,606.282 61.019,606.149 60.835,606.049C60.669,605.949 60.485,605.865 60.269,605.832C60.102,605.799 59.919,605.765 59.752,605.815C59.585,605.849 59.452,605.965 59.319,606.099C59.202,606.215 59.085,606.349 59.035,606.532C58.985,606.682 58.969,606.865 59.002,607.049C59.035,607.249 59.085,607.432 59.152,607.615C59.219,607.799 59.302,607.982 59.385,608.149Z" style="fill:white;fill-rule:nonzero;stroke:white;stroke-width:1.47px;"/>
            <path d="M72.919,611.499C72.919,611.882 72.952,611.882 72.952,612.265C72.952,612.649 72.919,612.649 72.919,613.015C72.919,613.249 72.935,613.465 72.935,613.699C72.935,613.915 72.952,614.149 72.952,614.382L72.952,615.732C72.952,615.949 72.969,616.182 72.969,616.399C72.969,616.632 72.935,616.849 72.935,617.082C72.935,617.315 72.969,617.532 72.985,617.732C73.002,617.965 73.002,618.199 73.035,618.399C73.102,618.649 73.252,618.815 73.419,618.965C73.569,619.115 73.752,619.232 74.002,619.265C74.069,619.282 74.135,619.315 74.202,619.315C74.485,619.315 74.719,619.215 74.919,619.032C75.102,618.882 75.202,618.649 75.269,618.365C75.319,618.099 75.369,617.849 75.369,617.599L75.369,616.982C75.369,616.782 75.335,616.565 75.335,616.365C75.335,616.149 75.352,615.949 75.352,615.732C75.352,615.532 75.319,615.315 75.319,615.115L75.319,614.499C75.319,614.282 75.352,614.082 75.352,613.865C75.352,613.582 75.385,613.582 75.385,613.299L75.385,612.732C75.385,612.432 75.369,612.432 75.369,612.149C75.369,611.865 75.352,611.865 75.352,611.582C75.352,611.332 75.335,611.099 75.335,610.849C75.335,610.615 75.319,610.365 75.319,610.115C75.319,609.882 75.352,609.632 75.352,609.399C75.352,609.149 75.319,608.899 75.319,608.665C75.319,608.449 75.369,608.249 75.369,608.032C75.369,607.832 75.352,607.615 75.352,607.415C75.352,607.165 75.302,606.832 75.119,606.515C74.969,606.249 74.702,606.065 74.385,605.999C74.085,605.932 73.752,605.999 73.502,606.199C73.252,606.399 73.069,606.649 73.019,606.965C73.019,607.065 73.052,607.065 73.035,607.165L72.985,607.699C72.969,607.882 72.902,608.065 72.902,608.249C72.902,608.449 72.919,608.632 72.919,608.832L72.919,609.982C72.919,610.165 72.952,610.365 72.952,610.549C72.935,611.032 72.919,611.032 72.919,611.499Z" style="fill:white;fill-rule:nonzero;stroke:white;stroke-width:1.47px;"/>
            <path d="M80.419,608.965C80.502,609.232 80.519,609.515 80.519,609.882L80.519,610.532C80.519,610.732 80.502,610.949 80.502,611.165C80.502,611.382 80.535,611.582 80.535,611.799C80.535,612.015 80.519,612.232 80.519,612.432C80.519,612.765 80.552,612.765 80.552,613.099L80.552,613.749C80.552,614.082 80.519,614.082 80.519,614.399L80.519,615.665C80.519,615.882 80.535,616.082 80.519,616.299L80.519,616.932C80.519,617.149 80.535,617.365 80.552,617.582L80.652,618.215C80.702,618.499 80.802,618.765 80.985,618.949C81.185,619.115 81.452,619.199 81.735,619.199C81.752,619.199 81.769,619.215 81.785,619.215C82.069,619.215 82.302,619.115 82.485,618.949C82.669,618.799 82.802,618.565 82.869,618.282C82.902,618.132 82.935,617.982 82.935,617.782C82.952,617.565 82.919,617.349 82.919,617.115C82.919,616.782 82.935,616.782 82.935,616.449C82.935,616.132 82.902,616.132 82.902,615.799C82.902,615.565 82.935,615.349 82.935,615.132C82.935,614.899 82.919,614.682 82.919,614.465C82.919,614.232 82.935,614.015 82.935,613.799C82.935,613.565 82.969,613.349 82.969,613.132C82.969,612.899 82.919,612.682 82.919,612.465C82.919,612.232 82.902,612.015 82.902,611.799L82.902,611.132C82.902,610.899 82.952,610.682 82.952,610.465C82.952,610.265 82.969,610.065 82.985,609.832C83.002,609.649 82.985,609.432 83.019,609.215C83.052,608.949 83.169,608.749 83.269,608.549C83.402,608.349 83.535,608.149 83.735,608.015C83.919,607.899 84.152,607.832 84.419,607.765C84.502,607.749 84.602,607.732 84.719,607.732C84.769,607.715 84.819,607.699 84.869,607.699C84.969,607.682 85.069,607.665 85.169,607.665C85.385,607.632 85.619,607.615 85.852,607.582C86.085,607.532 86.335,607.465 86.485,607.315C86.669,607.149 86.769,606.915 86.769,606.699C86.769,606.465 86.635,606.265 86.452,606.099C86.285,605.949 86.069,605.832 85.835,605.815C85.719,605.799 85.735,605.732 85.619,605.715L85.069,605.665C84.885,605.649 84.685,605.632 84.502,605.632C84.302,605.632 84.085,605.649 83.885,605.649C83.685,605.649 83.469,605.632 83.269,605.632L82.652,605.632C82.435,605.632 82.235,605.665 82.019,605.665C81.819,605.665 81.619,605.649 81.402,605.649L80.785,605.649C80.585,605.649 80.369,605.665 80.169,605.665C79.969,605.665 79.752,605.682 79.552,605.682C79.335,605.682 79.135,605.665 78.935,605.665C78.919,605.665 78.919,605.649 78.919,605.649C78.702,605.649 78.485,605.649 78.269,605.665C78.052,605.699 77.852,605.749 77.635,605.782C77.369,605.815 77.169,605.932 77.002,606.082C76.835,606.249 76.702,606.482 76.719,606.715C76.735,606.949 76.835,607.182 77.002,607.332C77.152,607.465 77.369,607.532 77.619,607.565C77.785,607.599 77.935,607.649 78.102,607.665C78.269,607.699 78.452,607.699 78.602,607.715C78.835,607.749 79.069,607.749 79.285,607.815C79.485,607.882 79.652,607.965 79.785,608.065C79.952,608.165 80.052,608.332 80.152,608.482C80.252,608.632 80.369,608.782 80.419,608.965Z" style="fill:white;fill-rule:nonzero;stroke:white;stroke-width:1.47px;"/>
            <path d="M97.219,605.849C96.985,605.849 96.769,605.915 96.552,605.999C96.352,606.082 96.152,606.199 96.002,606.365C95.869,606.515 95.702,606.665 95.569,606.849C95.469,606.999 95.419,607.165 95.319,607.315C95.219,607.465 95.085,607.582 95.002,607.732C94.952,607.815 94.969,607.849 94.919,607.932C94.802,608.099 94.669,608.265 94.569,608.449C94.469,608.632 94.335,608.799 94.235,608.965C94.119,609.149 94.019,609.315 93.885,609.482C93.719,609.682 93.585,609.865 93.402,609.965C93.202,610.099 93.019,610.182 92.819,610.182C92.635,610.182 92.452,610.065 92.252,609.932C91.985,609.765 91.785,609.549 91.602,609.282L91.202,608.582C90.969,608.182 90.935,608.215 90.685,607.815C90.585,607.649 90.519,607.465 90.419,607.282C90.319,607.115 90.185,606.949 90.085,606.782C89.985,606.615 89.852,606.482 89.719,606.349C89.569,606.215 89.435,606.065 89.269,605.982C89.102,605.899 88.902,605.849 88.719,605.799C88.519,605.749 88.319,605.765 88.152,605.799C87.969,605.832 87.819,605.949 87.685,606.082C87.569,606.215 87.452,606.382 87.435,606.582C87.419,606.749 87.485,606.932 87.552,607.115C87.619,607.315 87.685,607.515 87.835,607.749C87.935,607.899 88.069,608.049 88.185,608.215C88.285,608.382 88.369,608.565 88.469,608.732C88.585,608.882 88.669,609.065 88.785,609.215C88.902,609.415 89.069,609.582 89.202,609.782C89.319,609.965 89.435,610.182 89.569,610.365C89.685,610.565 89.835,610.749 89.969,610.949L90.219,611.365C90.335,611.515 90.435,611.682 90.535,611.832C90.635,611.982 90.702,612.165 90.802,612.332C90.902,612.482 90.969,612.665 91.052,612.832C91.152,613.049 91.269,613.265 91.335,613.482C91.419,613.732 91.485,613.949 91.535,614.182C91.569,614.432 91.585,614.665 91.585,614.915L91.585,615.615C91.585,615.949 91.552,615.949 91.552,616.282L91.602,616.282C91.602,616.532 91.569,616.765 91.569,617.015C91.569,617.215 91.552,617.415 91.585,617.599C91.602,617.799 91.635,617.999 91.652,618.182C91.669,618.199 91.702,618.199 91.702,618.215C91.752,618.499 91.885,618.732 92.069,618.899C92.252,619.082 92.485,619.165 92.769,619.182L92.835,619.199C93.119,619.199 93.369,619.132 93.552,618.965C93.735,618.815 93.835,618.565 93.902,618.282C93.969,618.015 94.002,617.749 94.002,617.515C94.019,617.349 93.985,617.182 93.985,617.032L93.985,616.532C93.985,616.315 93.969,616.082 93.969,615.865C93.969,615.632 93.985,615.415 93.985,615.199C93.985,614.949 94.002,614.715 94.019,614.499C94.052,614.265 94.085,614.032 94.135,613.815C94.185,613.599 94.269,613.382 94.352,613.165C94.435,612.949 94.552,612.749 94.669,612.565C94.785,612.365 94.902,612.182 95.019,611.999C95.135,611.815 95.252,611.632 95.369,611.432C95.485,611.249 95.585,611.065 95.702,610.882L96.069,610.315C96.202,610.132 96.319,609.949 96.435,609.765C96.552,609.582 96.685,609.415 96.819,609.232C96.919,609.065 97.035,608.915 97.152,608.749C97.252,608.582 97.319,608.399 97.419,608.232C97.485,608.149 97.502,608.165 97.569,608.082C97.669,607.932 97.735,607.782 97.819,607.632C97.919,607.482 97.985,607.315 98.069,607.165C98.252,606.715 98.202,606.399 98.085,606.232C97.969,606.065 97.702,605.865 97.219,605.849Z" style="fill:white;fill-rule:nonzero;stroke:white;stroke-width:1.47px;"/>
        </g>
        <g transform="matrix(1,0,0,1,-238.205,0.343098)">
            <path d="M269,56.27L262.677,56.27" style="fill:none;stroke:white;stroke-width:3.26px;stroke-linecap:round;stroke-miterlimit:1.5;"/>
            <g transform="matrix(1,0,0,1,-6.3233,6)">
                <path d="M269,56.27L262.677,56.27" style="fill:none;stroke:white;stroke-width:3.26px;stroke-linecap:round;stroke-miterlimit:1.5;"/>
            </g>
            <g transform="matrix(1,0,0,1,-4.3233,13)">
                <path d="M269,56.27L262.677,56.27" style="fill:none;stroke:white;stroke-width:3.26px;stroke-linecap:round;stroke-miterlimit:1.5;"/>
            </g>
            <g transform="matrix(0.0737855,0,0,0.0728089,262.06,48.2665)">
                <circle cx="345" cy="99" r="59" style="fill:none;stroke:white;stroke-width:44.45px;stroke-linecap:round;stroke-miterlimit:1.5;"/>
            </g>
            <g transform="matrix(0.0737855,0,0,0.0728089,259.38,51.3714)">
                <path d="M233,110C198.059,117.083 132.569,140.609 114.656,159.474C94.294,180.918 124.014,197.507 126,198C129.733,198.926 215,180 215,180C215,180 156.046,293.96 153,299C149.954,304.04 54.696,340.868 46,349C37.304,357.132 74.015,405.479 82,411C89.985,416.521 200.212,378.589 205,373C209.788,367.411 233.089,328.748 233,329C232.911,329.252 266.724,358.923 268,373C269.276,387.077 250.669,456.73 256,463C261.331,469.27 331.199,458.773 337,463C342.801,467.227 354.715,351.543 354,349C353.285,346.457 307.917,284.166 301,281C294.083,277.834 328.377,224.153 337,216C345.623,207.847 381.718,262.696 395,267C408.282,271.304 454.233,234.055 465,216C475.767,197.945 460.549,179.169 454,180C447.451,180.831 411.242,205.14 408,206.839C404.758,208.538 371.869,184.592 364,177.839C356.143,171.097 307.656,94.865 233,110Z" style="fill:none;stroke:white;stroke-width:44.45px;stroke-linecap:round;stroke-miterlimit:1.5;"/>
            </g>
        </g>
    </g>
</svg>
