<?xml version="1.0" encoding="UTF-8" standalone="no"?><!DOCTYPE svg PUBLIC "-//W3C//DTD SVG 1.1//EN" "http://www.w3.org/Graphics/SVG/1.1/DTD/svg11.dtd"><svg width="100%" height="100%" viewBox="0 0 27 6" version="1.1" xmlns="http://www.w3.org/2000/svg" xmlns:xlink="http://www.w3.org/1999/xlink" xml:space="preserve" style="fill-rule:evenodd;clip-rule:evenodd;stroke-linejoin:round;stroke-miterlimit:1.41421;"><g transform="matrix(0.117472,0,0,0.117472,4.32956,-69.1503)"><text x="17.685px" y="619.315px" style="font-family:'WaywardSans-Regular', 'Wayward Sans';font-size:16.667px;fill:none;">Hear<tspan x="64.519px " y="619.315px ">t</tspan> Ra<tspan x="102.335px " y="619.315px ">t</tspan>e</text><text x="17.685px" y="619.315px" style="font-family:'WaywardSans-Regular', 'Wayward Sans';font-size:16.667px;fill:#fff;stroke:#fff;stroke-width:1.53px;">Hear<tspan x="64.519px " y="619.315px ">t</tspan> Ra<tspan x="102.335px " y="619.315px ">t</tspan>e</text></g><g><path d="M2.984,4.406c0.101,-0.003 0.201,-0.043 0.288,-0.121c0.062,-0.056 1.259,-1.254 1.425,-1.441c0.234,-0.261 0.393,-0.986 -0.151,-1.501c-0.753,-0.712 -1.544,0.066 -1.562,0.076c-0.013,0.006 -0.862,-0.882 -1.684,-0.076c-0.433,0.425 -0.4,1.086 -0.076,1.501c0.195,0.25 1.363,1.367 1.456,1.441c0.129,0.102 0.201,0.124 0.304,0.121Z" style="fill:none;stroke:#fff;stroke-width:0.4px;stroke-linecap:round;stroke-miterlimit:1.5;"/><g><circle cx="3.477" cy="2.586" r="0.364" style="fill:#fff;stroke:#fff;stroke-width:0.1px;stroke-linecap:round;stroke-miterlimit:1.5;"/><path d="M1.005,2.594c0,0 0.943,0.012 0.942,0c-0.002,-0.012 0.272,-0.621 0.272,-0.621l0.335,0.887l0.19,-0.321c0,0 0.368,-0.002 0.369,0c0.001,0.003 0,0.178 0,0.178l-0.287,0l-0.272,0.532l-0.335,-0.88l-0.17,0.395l-0.893,0l-0.151,-0.17Z" style="fill:none;stroke:#fff;stroke-width:0.2px;stroke-linecap:round;stroke-miterlimit:1.5;"/></g></g></svg>