<?xml version="1.0" encoding="UTF-8" standalone="no"?>
<!DOCTYPE svg PUBLIC "-//W3C//DTD SVG 1.1//EN" "http://www.w3.org/Graphics/SVG/1.1/DTD/svg11.dtd">
<svg width="100%" height="100%" viewBox="0 0 30 30" version="1.1" xmlns="http://www.w3.org/2000/svg" xmlns:xlink="http://www.w3.org/1999/xlink" xml:space="preserve" style="fill-rule:evenodd;clip-rule:evenodd;stroke-linecap:round;stroke-linejoin:round;stroke-miterlimit:1.5;">
    <g transform="matrix(1.51545,0,0,1.517,-6.97484,-8.51354)">
        <g transform="matrix(0.0340574,0,0,0.0340574,5.77911,6.55725)">
            <path d="M138,13L138,84" style="fill:none;stroke:white;stroke-width:32.28px;"/>
        </g>
        <g transform="matrix(0.0340574,0,0,0.0340574,13.8167,6.55725)">
            <path d="M138,13L138,84" style="fill:none;stroke:white;stroke-width:32.28px;"/>
        </g>
        <g transform="matrix(0.0340574,0,0,0.0340574,5.77911,6.55725)">
            <path d="M98,40C97.999,40.096 97.66,85.23 98,95C98.34,104.78 102.906,118.409 138,118C172.809,117.594 175.292,104.934 175,95C174.709,85.077 174.999,40.095 175,40L332,40C332,40.096 331.811,85.387 332,95C332.19,104.623 338.085,118.275 375,118C412.062,117.724 412.806,102.953 413,95C413.193,87.083 413.002,40.418 413,40.003C412.536,40.001 413,40 413,40L413,40.003C414.153,40.007 421.037,40.013 455,40C517.071,39.977 512,95 512,95C512,95 513.007,412.313 512,464C510.993,515.687 455,512 455,512C455,512 99.649,512.354 50,512C0.351,511.646 0,464 0,464C0,464 -0.515,149.303 0,95C0.514,40.754 49.895,40.002 50,40L98,40ZM40,176L473,176L473,455C473,455 475.544,472.203 455,472C434.456,471.797 55,472 55,472C55,472 40.055,470.601 40,455C39.945,439.399 40,176 40,176Z" style="fill:white;"/>
        </g>
    </g>
    <g transform="matrix(0.0516123,0,0,0.0516652,-0.178143,9.49359)">
        <path d="M370.07,54.017C367.116,53.131 363.868,51.949 360.619,51.654C357.37,51.063 354.122,51.359 350.578,51.359C347.329,51.359 343.785,51.063 340.241,51.063C336.697,51.063 333.153,50.768 329.904,50.768C326.36,50.768 322.816,51.359 319.272,51.359C312.48,51.359 312.48,51.063 305.687,51.063C299.485,51.063 299.485,51.654 293.283,51.654L283.537,51.654C279.993,51.654 276.744,51.359 273.496,51.359C269.952,51.359 266.703,50.768 263.454,50.768C259.91,50.768 256.366,51.654 253.118,51.949C249.574,52.245 246.325,52.245 243.076,52.54C241.304,52.835 241.304,53.131 239.532,53.426C235.398,54.017 232.149,55.493 228.9,57.856C225.061,60.809 222.698,64.944 222.698,69.669C222.698,74.099 224.766,78.529 228.605,81.483C232.74,84.436 236.874,86.208 240.418,86.503C244.553,87.094 248.688,87.685 252.822,87.98C256.957,88.275 261.092,88.571 265.226,88.275C269.361,88.275 273.2,87.685 277.335,87.685C281.47,87.685 285.309,88.275 289.444,88.275C293.874,88.571 298.304,87.685 302.438,87.685C308.345,87.685 313.366,88.275 317.796,89.752C322.226,91.229 325.77,93.887 328.132,97.135C330.495,100.384 331.676,104.519 331.676,109.244C331.676,113.083 331.086,116.037 330.2,118.399C329.609,120.467 329.609,120.171 329.018,122.239L324.588,133.166C323.112,137.005 321.044,140.254 318.977,143.503C317.205,146.456 316.024,149.409 314.252,152.363C312.775,155.316 311.594,158.565 310.117,161.223C308.64,164.471 306.573,167.129 305.096,170.083L303.915,172.15C302.438,175.103 300.666,178.057 299.19,181.305C297.713,184.259 296.827,187.803 295.35,190.756C293.874,194.005 292.692,197.253 291.216,200.207C289.739,203.16 287.672,205.818 286.49,208.476C285.014,211.429 283.537,214.087 282.356,217.041L280.584,220.88C279.698,222.061 279.402,223.538 278.516,224.719C277.04,227.673 274.677,230.331 273.2,233.284C271.428,236.237 270.838,239.486 269.066,242.735C267.589,245.688 265.522,248.346 264.045,251.299C262.273,254.253 261.387,257.501 259.91,260.455C257.548,265.18 256.662,270.496 256.957,275.517C257.252,280.537 258.138,284.967 261.092,287.625C263.75,290.283 268.18,291.76 273.2,291.76C273.496,291.76 273.496,291.465 273.791,291.465C277.926,291.169 281.765,290.283 285.014,288.807C288.558,287.035 292.102,285.263 294.76,282.014C296.532,279.651 298.894,276.698 300.666,273.154C301.257,271.973 300.666,271.677 301.552,270.496C303.029,267.247 304.506,264.294 306.278,261.045L311.003,251.89C312.48,248.937 314.842,246.279 316.319,243.03C318.091,240.077 319.272,236.828 320.749,233.875C322.226,230.921 323.998,227.968 325.179,225.31L329.609,216.45C331.086,213.497 332.562,210.543 333.744,207.885C336.106,202.865 338.174,197.844 340.536,193.119C342.308,188.984 344.671,185.44 346.738,181.601C348.51,178.057 349.987,174.808 351.759,171.559C353.236,168.015 354.122,164.471 355.894,160.927C357.075,158.269 357.961,155.611 359.438,152.953C360.619,150.295 362.096,147.637 363.572,144.979C365.64,141.14 368.593,137.891 370.365,134.347C372.432,130.508 373.909,126.669 375.681,123.125C377.453,119.285 379.52,115.446 380.997,111.607C382.474,107.767 383.36,103.633 384.836,99.793C386.018,96.249 387.494,92.705 388.085,89.161C388.971,85.617 389.857,81.778 389.857,78.234C389.857,74.099 389.266,70.26 387.79,67.011C386.313,63.467 383.655,60.514 380.406,58.151C377.748,56.084 374.204,54.903 370.07,54.017Z" style="fill:white;fill-rule:nonzero;"/>
    </g>
</svg>
