<?xml version="1.0" encoding="UTF-8" standalone="no"?>
<!DOCTYPE svg PUBLIC "-//W3C//DTD SVG 1.1//EN" "http://www.w3.org/Graphics/SVG/1.1/DTD/svg11.dtd">
<svg width="100%" height="100%" viewBox="0 0 30 30" version="1.1" xmlns="http://www.w3.org/2000/svg" xmlns:xlink="http://www.w3.org/1999/xlink" xml:space="preserve" style="fill-rule:evenodd;clip-rule:evenodd;stroke-linecap:round;stroke-linejoin:round;stroke-miterlimit:1.5;">
    <g transform="matrix(1.51545,0,0,1.517,-6.97484,-8.51354)">
        <g transform="matrix(0.0340574,0,0,0.0340574,5.77911,6.55725)">
            <path d="M138,13L138,84" style="fill:none;stroke:white;stroke-width:32.28px;"/>
        </g>
        <g transform="matrix(0.0340574,0,0,0.0340574,13.8167,6.55725)">
            <path d="M138,13L138,84" style="fill:none;stroke:white;stroke-width:32.28px;"/>
        </g>
        <g transform="matrix(0.0340574,0,0,0.0340574,5.77911,6.55725)">
            <path d="M98,40C97.999,40.096 97.66,85.23 98,95C98.34,104.78 102.906,118.409 138,118C172.809,117.594 175.292,104.934 175,95C174.709,85.077 174.999,40.095 175,40L332,40C332,40.096 331.811,85.387 332,95C332.19,104.623 338.085,118.275 375,118C412.062,117.724 412.806,102.953 413,95C413.193,87.083 413.002,40.418 413,40.003C412.536,40.001 413,40 413,40L413,40.003C414.153,40.007 421.037,40.013 455,40C517.071,39.977 512,95 512,95C512,95 513.007,412.313 512,464C510.993,515.687 455,512 455,512C455,512 99.649,512.354 50,512C0.351,511.646 0,464 0,464C0,464 -0.515,149.303 0,95C0.514,40.754 49.895,40.002 50,40L98,40ZM40,176L473,176L473,455C473,455 475.544,472.203 455,472C434.456,471.797 55,472 55,472C55,472 40.055,470.601 40,455C39.945,439.399 40,176 40,176Z" style="fill:white;"/>
        </g>
    </g>
    <g transform="matrix(0.0516123,0,0,0.0516652,-0.178143,9.49359)">
        <path d="M324.884,69.965C323.702,66.125 321.635,62.877 318.977,60.219C316.319,57.561 312.775,55.789 308.64,54.607C304.21,53.426 300.076,53.426 295.055,54.312C291.216,54.607 287.376,55.493 283.537,56.97C279.993,58.447 276.449,60.219 272.905,62.581C270.247,64.649 267.294,66.421 264.636,68.488C261.978,70.555 259.91,73.213 257.252,75.576C254.594,77.643 251.936,80.006 249.574,82.073L242.19,88.866C239.532,91.229 239.237,90.933 236.579,93.296C233.33,96.249 229.786,99.203 227.128,103.042C224.47,105.995 223.289,109.539 222.698,112.788C222.403,116.332 222.994,120.171 225.356,123.125C227.719,126.078 230.968,127.555 234.807,128.145C237.76,128.441 241.304,127.259 244.848,125.487C247.506,124.306 250.164,123.125 252.527,121.648C253.118,121.353 253.413,121.648 254.299,121.057C258.138,118.99 262.864,118.104 268.18,117.513C271.724,117.218 274.382,117.218 277.04,118.695C279.402,120.171 282.06,121.943 283.832,125.192C284.718,126.669 284.423,129.031 285.014,131.394C286.195,135.824 286.786,140.845 286.786,147.637C286.786,152.067 287.376,156.202 287.376,160.632C287.376,164.767 287.967,169.197 287.967,173.331C287.967,177.761 287.081,181.896 287.081,186.326C287.081,190.461 287.376,194.891 287.376,199.025C287.376,204.046 287.672,204.046 287.672,208.771L287.672,218.517C287.672,223.538 287.081,223.538 287.081,228.263C287.081,232.398 287.672,236.533 287.672,240.963C287.672,245.097 287.376,249.232 287.376,253.367C287.376,256.911 287.376,260.75 287.967,264.589C288.262,268.133 289.444,271.677 290.33,275.517C291.216,279.356 293.283,282.309 295.646,284.672C298.304,287.035 301.257,288.807 305.096,289.102C305.687,289.397 306.278,289.988 306.868,289.988C310.412,289.988 314.252,288.807 316.91,286.739C319.568,284.967 321.34,281.719 322.816,278.175C324.588,274.631 325.77,271.087 325.77,266.952C326.065,263.113 326.656,259.569 326.656,256.025C326.656,252.481 326.36,248.937 326.36,245.393C326.36,241.849 326.656,238.009 326.656,234.465L326.656,223.833C326.656,220.289 326.065,216.745 326.065,213.201C326.065,209.657 326.36,206.113 326.36,202.569L326.36,191.937C326.36,186.031 326.065,186.031 326.065,180.124L326.065,168.606C326.065,162.995 325.77,162.995 325.77,157.088C325.77,153.249 326.065,149.114 326.065,145.275C326.065,141.435 326.36,137.301 326.36,133.461C326.36,129.622 326.065,125.487 326.065,121.648C326.065,117.513 326.36,113.674 326.36,109.835L326.36,98.021C326.36,93.887 325.77,90.047 325.77,86.208C325.77,81.187 326.656,75.576 324.884,69.965Z" style="fill:white;fill-rule:nonzero;"/>
    </g>
</svg>
