<?xml version="1.0" encoding="UTF-8" standalone="no"?>
<!DOCTYPE svg PUBLIC "-//W3C//DTD SVG 1.1//EN" "http://www.w3.org/Graphics/SVG/1.1/DTD/svg11.dtd">
<svg width="100%" height="100%" viewBox="0 0 150 30" version="1.1" xmlns="http://www.w3.org/2000/svg" xmlns:xlink="http://www.w3.org/1999/xlink" xml:space="preserve" style="fill-rule:evenodd;clip-rule:evenodd;stroke-linejoin:round;stroke-miterlimit:1.41421;">
    <g transform="matrix(0.73539,0,0,0.73539,-168.852,-269.68)">
        <g transform="matrix(0.0683594,0,0,0.0683594,231.613,369.793)">
            <path d="M39,0L39,25C39,25 38.264,37.923 56,38C73.736,38.077 81,38 81,38L81,66C81,66 79.914,80.297 106,80C137.594,79.64 411,80 411,80C411,80 431.914,82.235 432,66C432.092,48.577 432,38 432,38L461,38C461,38 473.758,37.567 473,25C472.242,12.433 473,0 473,0L39,0Z" style="fill:white;"/>
            <path d="M375,74.2C375,74.2 385.188,151.392 346,183C306.812,214.608 285.334,232.652 287,256C288.666,279.348 332.433,308.763 346,334C359.567,359.237 371.09,423.413 375,436C375.955,439.075 409,436 409,436C409,436 397.567,341.195 366,305C338.452,273.413 321.462,269.038 320,256C318.538,242.962 346.181,226.129 366,207C413.013,161.624 409.393,95.988 409,74.2C408.918,69.654 375,74.2 375,74.2Z" style="fill:white;"/>
            <g transform="matrix(-1,0,0,1,510.126,0)">
                <path d="M375,72.179C375,72.179 385.188,151.392 346,183C306.812,214.608 285.334,232.652 287,256C288.666,279.348 332.433,308.763 346,334C359.567,359.237 371.09,423.413 375,436C375.955,439.075 409,436 409,436C409,436 397.567,341.195 366,305C338.452,273.413 321.462,269.038 320,256C318.538,242.962 346.181,226.129 366,207C413.013,161.624 409.393,101.892 409,80.104C408.918,75.558 375,72.179 375,72.179Z" style="fill:white;"/>
            </g>
            <g transform="matrix(-1,1.22465e-16,-1.22465e-16,-1,512.032,512)">
                <path d="M39,0L39,25C39,25 38.264,37.923 56,38C73.736,38.077 81,38 81,38L81,66C81,66 79.914,80.297 106,80C137.594,79.64 411,80 411,80C411,80 431.914,82.235 432,66C432.092,48.577 432,38 432,38L461,38C461,38 473.758,37.567 473,25C472.242,12.433 473,0 473,0L39,0Z" style="fill:white;"/>
            </g>
            <path d="M186.2,164.2C186.2,164.2 312.984,162.489 315,164.2C332.278,178.865 262.203,206.825 263,256C263.342,277.092 273.063,278.138 318.8,344.2C341.762,377.366 334,450.167 334,450.167L178,437.367C178,437.367 174.977,372.648 193.2,344.2C223.428,297.011 247.631,297.796 245,256C242.286,212.882 182.782,193.212 186.2,164.2Z" style="fill:white;"/>
        </g>
        <g transform="matrix(1,0,0,1,263.7,-225.505)">
            <path d="M32.219,619.349C32.402,619.349 32.585,619.282 32.752,619.199C33.019,619.032 33.185,618.749 33.269,618.415C33.335,618.165 33.385,617.899 33.385,617.632L33.385,617.015C33.385,616.799 33.352,616.599 33.352,616.382C33.352,616.182 33.385,615.965 33.385,615.749C33.385,615.549 33.369,615.332 33.369,615.132C33.369,614.915 33.352,614.715 33.352,614.499C33.352,614.299 33.335,614.082 33.335,613.865C33.335,613.465 33.385,613.465 33.385,613.049L33.385,612.265C33.385,611.882 33.352,611.882 33.352,611.482L33.352,610.882C33.352,610.665 33.385,610.465 33.385,610.265C33.385,610.065 33.352,609.865 33.352,609.649C33.352,608.815 33.535,607.849 33.319,607.032C32.919,605.449 30.669,605.365 29.519,606.199C28.985,606.582 28.702,607.199 28.502,607.815C28.219,608.665 27.919,609.499 27.635,610.349C27.552,610.565 27.502,610.815 27.419,611.032C27.335,611.299 27.319,611.299 27.219,611.549C27.135,611.815 27.152,611.815 27.052,612.082C26.969,612.349 26.935,612.332 26.852,612.599C26.769,612.832 26.669,613.032 26.569,613.199C26.435,613.399 26.302,613.565 26.135,613.715C25.952,613.882 25.769,613.932 25.585,613.949C25.402,613.949 25.202,613.899 25.035,613.732C24.885,613.615 24.785,613.449 24.685,613.282C24.585,613.132 24.485,612.965 24.419,612.765C24.335,612.565 24.235,612.382 24.169,612.165L23.919,611.565C23.402,610.149 23.002,608.715 22.452,607.315C22.335,607.015 22.202,606.715 22.002,606.465C21.252,605.565 19.119,605.399 18.269,606.232C17.869,606.599 17.735,607.165 17.702,607.715C17.669,608.482 17.719,609.249 17.719,609.999C17.719,610.215 17.735,610.449 17.735,610.665C17.735,610.882 17.752,611.099 17.752,611.315C17.752,611.532 17.735,611.765 17.735,611.982C17.735,612.199 17.719,612.415 17.719,612.632C17.719,612.849 17.685,613.082 17.685,613.299C17.685,613.515 17.752,613.732 17.752,613.949C17.752,614.165 17.685,614.399 17.685,614.615L17.685,615.265C17.685,615.482 17.719,615.715 17.719,615.932C17.719,616.149 17.702,616.365 17.702,616.582C17.702,616.799 17.752,617.032 17.752,617.249C17.752,617.432 17.735,617.632 17.769,617.815C17.785,618.015 17.802,618.199 17.852,618.399C17.919,618.682 18.069,618.899 18.269,619.049C18.485,619.215 18.719,619.332 19.002,619.315C19.285,619.315 19.502,619.182 19.685,619.015C19.869,618.849 19.985,618.632 20.035,618.365C20.085,618.132 20.152,617.899 20.152,617.665C20.152,617.432 20.119,617.199 20.119,616.965C20.119,616.749 20.152,616.515 20.152,616.282C20.152,616.082 20.119,615.865 20.119,615.665C20.119,615.465 20.135,615.249 20.135,615.049C20.135,614.849 20.119,614.632 20.119,614.432C20.119,614.232 20.169,614.015 20.169,613.815C20.169,613.632 20.135,613.449 20.152,613.265C20.152,613.082 20.219,612.915 20.219,612.732L20.269,612.182C20.285,611.982 20.235,611.982 20.252,611.782C20.269,611.599 20.335,611.415 20.385,611.182C20.435,610.949 20.519,610.732 20.702,610.549C20.802,610.449 20.885,610.465 20.985,610.499C21.085,610.549 21.185,610.615 21.269,610.682C21.485,610.865 21.619,611.132 21.752,611.382C21.852,611.565 21.969,611.715 22.052,611.899C22.119,612.082 22.169,612.265 22.235,612.465L22.435,613.015C22.485,613.182 22.502,613.349 22.569,613.515L22.769,614.115C22.835,614.315 22.952,614.499 23.019,614.699C23.085,614.915 23.102,615.132 23.169,615.332C23.235,615.532 23.285,615.749 23.352,615.949C23.402,616.115 23.502,616.265 23.552,616.432C23.602,616.599 23.619,616.782 23.669,616.949C23.752,617.165 23.852,617.382 23.952,617.632C24.035,617.849 24.069,618.099 24.185,618.315C24.269,618.515 24.385,618.682 24.519,618.849C24.652,618.999 24.819,619.115 25.002,619.199C25.169,619.282 25.385,619.349 25.585,619.332C25.785,619.332 25.985,619.249 26.152,619.149C26.335,619.049 26.485,618.915 26.602,618.732C26.785,618.499 26.869,618.215 26.952,617.982C27.035,617.782 27.152,617.582 27.235,617.382C27.302,617.182 27.335,616.949 27.402,616.749C27.469,616.549 27.569,616.349 27.635,616.132C27.719,615.932 27.735,615.699 27.802,615.499C27.852,615.315 27.952,615.149 28.019,614.965C28.069,614.782 28.085,614.582 28.152,614.399C28.219,614.215 28.319,614.049 28.385,613.865C28.452,613.682 28.519,613.499 28.585,613.315L28.735,612.932C28.802,612.732 28.885,612.565 28.952,612.365C29.035,612.182 29.085,611.999 29.169,611.815C29.252,611.632 29.352,611.449 29.452,611.282C29.619,610.982 29.802,610.782 30.019,610.632C30.202,610.515 30.335,610.515 30.502,610.665C30.685,610.849 30.769,611.099 30.819,611.399C30.835,611.515 30.802,611.515 30.819,611.632C30.852,611.865 30.869,612.082 30.885,612.299C30.902,612.532 30.952,612.749 30.952,612.982L30.952,614.149C30.952,614.349 30.935,614.549 30.935,614.749C30.935,614.949 30.919,615.132 30.919,615.332C30.919,615.532 30.969,615.732 30.969,615.915L30.969,616.515C30.969,616.699 30.985,616.899 30.985,617.099C30.985,617.315 30.952,617.515 30.969,617.732C30.985,617.932 31.035,618.149 31.069,618.349C31.119,618.582 31.202,618.782 31.335,618.932C31.469,619.082 31.669,619.199 31.885,619.265C32.002,619.299 32.102,619.349 32.219,619.349Z" style="fill:white;fill-rule:nonzero;stroke:white;stroke-width:1.13px;"/>
            <path d="M48.885,612.382C48.885,612.249 48.852,612.115 48.852,611.999C48.835,611.765 48.835,611.549 48.802,611.332C48.769,611.115 48.752,610.899 48.702,610.682C48.652,610.465 48.619,610.249 48.552,610.049C48.485,609.832 48.402,609.632 48.302,609.432C48.219,609.232 48.119,609.032 48.019,608.832C47.919,608.649 47.802,608.482 47.685,608.315C47.569,608.149 47.469,607.965 47.335,607.815C47.202,607.649 47.052,607.515 46.902,607.365C46.752,607.232 46.619,607.082 46.452,606.949C46.302,606.815 46.152,606.682 45.985,606.565C45.819,606.449 45.619,606.365 45.435,606.265C45.269,606.165 45.069,606.099 44.885,606.015C44.685,605.932 44.519,605.815 44.319,605.749C44.135,605.682 43.919,605.649 43.719,605.599C43.519,605.549 43.302,605.515 43.102,605.482C42.885,605.449 42.669,605.415 42.452,605.399C42.252,605.365 42.035,605.299 41.819,605.282C41.602,605.282 41.385,605.299 41.185,605.299C40.969,605.315 40.752,605.349 40.535,605.382C40.335,605.399 40.102,605.382 39.902,605.432C39.685,605.465 39.469,605.499 39.269,605.549C39.052,605.599 38.852,605.682 38.652,605.749C38.452,605.832 38.235,605.882 38.052,605.982C37.852,606.065 37.669,606.182 37.485,606.282C37.302,606.399 37.119,606.532 36.952,606.649C36.769,606.782 36.569,606.899 36.402,607.032C36.235,607.182 36.069,607.349 35.919,607.515C35.769,607.665 35.652,607.865 35.519,608.049C35.385,608.215 35.202,608.365 35.085,608.565C34.969,608.749 34.902,608.965 34.819,609.165C34.719,609.365 34.635,609.582 34.569,609.799C34.485,609.999 34.419,610.215 34.369,610.432C34.319,610.649 34.219,610.849 34.185,611.082C34.152,611.265 34.135,611.449 34.119,611.649C34.102,611.832 34.102,612.032 34.102,612.232C34.085,612.415 34.085,612.599 34.085,612.799C34.085,612.982 34.119,613.182 34.135,613.382C34.152,613.599 34.169,613.815 34.202,614.015C34.235,614.232 34.302,614.449 34.352,614.649C34.402,614.865 34.469,615.082 34.535,615.282C34.619,615.482 34.685,615.682 34.769,615.882C34.869,616.082 34.969,616.265 35.085,616.449C35.202,616.649 35.319,616.832 35.452,616.999C35.585,617.182 35.752,617.332 35.902,617.482C36.052,617.649 36.169,617.832 36.335,617.982C36.485,618.132 36.685,618.232 36.869,618.365L37.419,618.715C37.619,618.815 37.785,618.965 37.985,619.049C38.185,619.132 38.402,619.199 38.602,619.265C38.802,619.332 39.019,619.382 39.235,619.432C39.419,619.482 39.602,619.532 39.802,619.565C39.985,619.599 40.169,619.615 40.369,619.632L40.935,619.682C41.119,619.699 41.302,619.699 41.502,619.699C41.802,619.699 42.102,619.699 42.402,619.665C42.635,619.649 42.852,619.632 43.069,619.599C43.302,619.549 43.519,619.482 43.719,619.432C43.952,619.382 44.169,619.349 44.385,619.282C44.602,619.215 44.819,619.132 45.019,619.049C45.219,618.949 45.419,618.849 45.619,618.732C45.802,618.615 45.985,618.465 46.152,618.332C46.335,618.199 46.519,618.065 46.685,617.915C46.835,617.799 46.952,617.632 47.085,617.499C47.219,617.365 47.335,617.199 47.452,617.049C47.569,616.899 47.669,616.749 47.769,616.582C47.885,616.432 47.969,616.265 48.052,616.082C48.152,615.899 48.269,615.732 48.352,615.549C48.419,615.365 48.469,615.165 48.535,614.982C48.585,614.782 48.669,614.599 48.702,614.399C48.752,614.199 48.802,613.999 48.835,613.799C48.852,613.599 48.869,613.399 48.869,613.199C48.885,612.999 48.902,612.782 48.885,612.582L48.885,612.382ZM46.052,614.332C45.969,614.549 45.902,614.782 45.802,614.982C45.685,615.199 45.569,615.399 45.435,615.582C45.302,615.765 45.152,615.949 44.985,616.115C44.835,616.282 44.652,616.415 44.469,616.565C44.285,616.699 44.085,616.832 43.885,616.949C43.685,617.065 43.469,617.149 43.252,617.232C43.035,617.315 42.819,617.382 42.585,617.432C42.369,617.482 42.135,617.499 41.919,617.515C41.685,617.532 41.452,617.565 41.235,617.549C41.002,617.532 40.785,617.499 40.552,617.449C40.335,617.415 40.119,617.332 39.902,617.265C39.685,617.199 39.469,617.132 39.269,617.032C39.085,616.949 38.902,616.882 38.735,616.765C38.569,616.665 38.452,616.499 38.302,616.365C38.152,616.232 37.985,616.132 37.869,615.965C37.735,615.832 37.602,615.682 37.502,615.499C37.369,615.315 37.269,615.115 37.169,614.915C37.069,614.715 37.019,614.482 36.952,614.265C36.869,614.049 36.802,613.849 36.752,613.632C36.702,613.415 36.635,613.199 36.619,612.965C36.602,612.749 36.635,612.515 36.635,612.299C36.652,612.065 36.685,611.849 36.719,611.632C36.769,611.415 36.802,611.182 36.869,610.965C36.935,610.765 37.035,610.549 37.135,610.349C37.219,610.149 37.319,609.949 37.419,609.749C37.535,609.532 37.652,609.332 37.802,609.165C37.935,608.982 38.119,608.849 38.285,608.699C38.452,608.549 38.635,608.399 38.819,608.265C39.019,608.149 39.202,608.015 39.419,607.915C39.619,607.832 39.852,607.815 40.085,607.749C40.285,607.699 40.485,607.599 40.719,607.549C40.935,607.515 41.152,607.482 41.385,607.482C41.402,607.482 41.435,607.482 41.469,607.482L41.469,607.532C41.685,607.532 41.885,607.549 42.085,607.565C42.302,607.599 42.502,607.615 42.702,607.665C42.902,607.699 43.085,607.782 43.285,607.849C43.485,607.915 43.669,607.982 43.852,608.082C44.035,608.182 44.202,608.299 44.369,608.415C44.535,608.532 44.702,608.665 44.852,608.815C45.002,608.949 45.119,609.099 45.252,609.249C45.369,609.399 45.469,609.565 45.569,609.732C45.669,609.899 45.769,610.082 45.852,610.249L46.052,610.815C46.102,610.999 46.202,611.165 46.235,611.365C46.285,611.565 46.269,611.765 46.302,611.965C46.319,612.165 46.385,612.365 46.385,612.565C46.385,612.765 46.385,612.965 46.352,613.165C46.335,613.365 46.252,613.549 46.202,613.749C46.152,613.949 46.119,614.132 46.052,614.332Z" style="fill:white;fill-rule:nonzero;stroke:white;stroke-width:1.13px;"/>
            <path d="M64.352,612.382C64.352,612.249 64.319,612.115 64.319,611.999C64.302,611.765 64.302,611.549 64.269,611.332C64.235,611.115 64.219,610.899 64.169,610.682C64.119,610.465 64.085,610.249 64.019,610.049C63.952,609.832 63.869,609.632 63.769,609.432C63.685,609.232 63.585,609.032 63.485,608.832C63.385,608.649 63.269,608.482 63.152,608.315C63.035,608.149 62.935,607.965 62.802,607.815C62.669,607.649 62.519,607.515 62.369,607.365C62.219,607.232 62.085,607.082 61.919,606.949C61.769,606.815 61.619,606.682 61.452,606.565C61.285,606.449 61.085,606.365 60.902,606.265C60.735,606.165 60.535,606.099 60.352,606.015C60.152,605.932 59.985,605.815 59.785,605.749C59.602,605.682 59.385,605.649 59.185,605.599C58.985,605.549 58.769,605.515 58.569,605.482C58.352,605.449 58.135,605.415 57.919,605.399C57.719,605.365 57.502,605.299 57.285,605.282C57.069,605.282 56.852,605.299 56.652,605.299C56.435,605.315 56.219,605.349 56.002,605.382C55.802,605.399 55.569,605.382 55.369,605.432C55.152,605.465 54.935,605.499 54.735,605.549C54.519,605.599 54.319,605.682 54.119,605.749C53.919,605.832 53.702,605.882 53.519,605.982C53.319,606.065 53.135,606.182 52.952,606.282C52.769,606.399 52.585,606.532 52.419,606.649C52.235,606.782 52.035,606.899 51.869,607.032C51.702,607.182 51.535,607.349 51.385,607.515C51.235,607.665 51.119,607.865 50.985,608.049C50.852,608.215 50.669,608.365 50.552,608.565C50.435,608.749 50.369,608.965 50.285,609.165C50.185,609.365 50.102,609.582 50.035,609.799C49.952,609.999 49.885,610.215 49.835,610.432C49.785,610.649 49.685,610.849 49.652,611.082C49.619,611.265 49.602,611.449 49.585,611.649C49.569,611.832 49.569,612.032 49.569,612.232C49.552,612.415 49.552,612.599 49.552,612.799C49.552,612.982 49.585,613.182 49.602,613.382C49.619,613.599 49.635,613.815 49.669,614.015C49.702,614.232 49.769,614.449 49.819,614.649C49.869,614.865 49.935,615.082 50.002,615.282C50.085,615.482 50.152,615.682 50.235,615.882C50.335,616.082 50.435,616.265 50.552,616.449C50.669,616.649 50.785,616.832 50.919,616.999C51.052,617.182 51.219,617.332 51.369,617.482C51.519,617.649 51.635,617.832 51.802,617.982C51.952,618.132 52.152,618.232 52.335,618.365L52.885,618.715C53.085,618.815 53.252,618.965 53.452,619.049C53.652,619.132 53.869,619.199 54.069,619.265C54.269,619.332 54.485,619.382 54.702,619.432C54.885,619.482 55.069,619.532 55.269,619.565C55.452,619.599 55.635,619.615 55.835,619.632L56.402,619.682C56.585,619.699 56.769,619.699 56.969,619.699C57.269,619.699 57.569,619.699 57.869,619.665C58.102,619.649 58.319,619.632 58.535,619.599C58.769,619.549 58.985,619.482 59.185,619.432C59.419,619.382 59.635,619.349 59.852,619.282C60.069,619.215 60.285,619.132 60.485,619.049C60.685,618.949 60.885,618.849 61.085,618.732C61.269,618.615 61.452,618.465 61.619,618.332C61.802,618.199 61.985,618.065 62.152,617.915C62.302,617.799 62.419,617.632 62.552,617.499C62.685,617.365 62.802,617.199 62.919,617.049C63.035,616.899 63.135,616.749 63.235,616.582C63.352,616.432 63.435,616.265 63.519,616.082C63.619,615.899 63.735,615.732 63.819,615.549C63.885,615.365 63.935,615.165 64.002,614.982C64.052,614.782 64.135,614.599 64.169,614.399C64.219,614.199 64.269,613.999 64.302,613.799C64.319,613.599 64.335,613.399 64.335,613.199C64.352,612.999 64.369,612.782 64.352,612.582L64.352,612.382ZM61.519,614.332C61.435,614.549 61.369,614.782 61.269,614.982C61.152,615.199 61.035,615.399 60.902,615.582C60.769,615.765 60.619,615.949 60.452,616.115C60.302,616.282 60.119,616.415 59.935,616.565C59.752,616.699 59.552,616.832 59.352,616.949C59.152,617.065 58.935,617.149 58.719,617.232C58.502,617.315 58.285,617.382 58.052,617.432C57.835,617.482 57.602,617.499 57.385,617.515C57.152,617.532 56.919,617.565 56.702,617.549C56.469,617.532 56.252,617.499 56.019,617.449C55.802,617.415 55.585,617.332 55.369,617.265C55.152,617.199 54.935,617.132 54.735,617.032C54.552,616.949 54.369,616.882 54.202,616.765C54.035,616.665 53.919,616.499 53.769,616.365C53.619,616.232 53.452,616.132 53.335,615.965C53.202,615.832 53.069,615.682 52.969,615.499C52.835,615.315 52.735,615.115 52.635,614.915C52.535,614.715 52.485,614.482 52.419,614.265C52.335,614.049 52.269,613.849 52.219,613.632C52.169,613.415 52.102,613.199 52.085,612.965C52.069,612.749 52.102,612.515 52.102,612.299C52.119,612.065 52.152,611.849 52.185,611.632C52.235,611.415 52.269,611.182 52.335,610.965C52.402,610.765 52.502,610.549 52.602,610.349C52.685,610.149 52.785,609.949 52.885,609.749C53.002,609.532 53.119,609.332 53.269,609.165C53.402,608.982 53.585,608.849 53.752,608.699C53.919,608.549 54.102,608.399 54.285,608.265C54.485,608.149 54.669,608.015 54.885,607.915C55.085,607.832 55.319,607.815 55.552,607.749C55.752,607.699 55.952,607.599 56.185,607.549C56.402,607.515 56.619,607.482 56.852,607.482C56.869,607.482 56.902,607.482 56.935,607.482L56.935,607.532C57.152,607.532 57.352,607.549 57.552,607.565C57.769,607.599 57.969,607.615 58.169,607.665C58.369,607.699 58.552,607.782 58.752,607.849C58.952,607.915 59.135,607.982 59.319,608.082C59.502,608.182 59.669,608.299 59.835,608.415C60.002,608.532 60.169,608.665 60.319,608.815C60.469,608.949 60.585,609.099 60.719,609.249C60.835,609.399 60.935,609.565 61.035,609.732C61.135,609.899 61.235,610.082 61.319,610.249L61.519,610.815C61.569,610.999 61.669,611.165 61.702,611.365C61.752,611.565 61.735,611.765 61.769,611.965C61.785,612.165 61.852,612.365 61.852,612.565C61.852,612.765 61.852,612.965 61.819,613.165C61.802,613.365 61.719,613.549 61.669,613.749C61.619,613.949 61.585,614.132 61.519,614.332Z" style="fill:white;fill-rule:nonzero;stroke:white;stroke-width:1.13px;"/>
            <path d="M65.019,617.465C65.019,617.732 65.052,617.999 65.102,618.265C65.135,618.482 65.219,618.665 65.319,618.832C65.419,619.015 65.535,619.182 65.719,619.282C65.869,619.399 66.069,619.465 66.285,619.515C66.452,619.549 66.635,619.549 66.785,619.549C66.985,619.549 67.202,619.499 67.402,619.499C67.602,619.499 67.802,619.549 68.002,619.549C68.252,619.549 68.519,619.515 68.769,619.515L69.519,619.515C69.769,619.515 70.019,619.549 70.252,619.532C70.502,619.515 70.752,619.465 71.002,619.432C71.219,619.399 71.435,619.382 71.635,619.332C71.852,619.299 72.069,619.282 72.285,619.232C72.485,619.182 72.702,619.115 72.902,619.049C73.119,618.982 73.302,618.849 73.485,618.765C73.702,618.682 73.885,618.599 74.085,618.499C74.269,618.399 74.469,618.315 74.652,618.199C74.852,618.082 75.019,617.932 75.185,617.782C75.369,617.649 75.535,617.499 75.702,617.349C75.852,617.199 76.035,617.065 76.185,616.882C76.335,616.715 76.452,616.532 76.585,616.349C76.702,616.149 76.819,615.965 76.919,615.765C77.019,615.565 77.085,615.349 77.169,615.132C77.252,614.932 77.319,614.715 77.385,614.499C77.435,614.282 77.502,614.065 77.535,613.849C77.569,613.649 77.552,613.465 77.552,613.265C77.569,613.082 77.552,612.899 77.552,612.699C77.535,612.515 77.569,612.315 77.552,612.132L77.552,611.999C77.535,611.782 77.519,611.565 77.485,611.365C77.452,611.149 77.419,610.932 77.369,610.732C77.319,610.515 77.269,610.315 77.202,610.115C77.135,609.915 77.052,609.715 76.969,609.515C76.869,609.332 76.735,609.149 76.635,608.965C76.519,608.799 76.419,608.599 76.285,608.432C76.152,608.265 76.002,608.115 75.852,607.965C75.702,607.799 75.569,607.649 75.402,607.515C75.235,607.365 75.035,607.282 74.852,607.165C74.685,607.049 74.502,606.932 74.302,606.832C74.119,606.732 73.935,606.615 73.735,606.532C73.552,606.449 73.369,606.415 73.185,606.349C72.985,606.282 72.802,606.249 72.602,606.215C72.419,606.165 72.219,606.099 72.035,606.065C71.835,606.015 71.635,605.982 71.469,605.949C71.285,605.915 71.119,605.932 70.952,605.932C70.785,605.915 70.619,605.865 70.452,605.849C70.185,605.849 69.919,605.849 69.669,605.815L68.985,605.765C68.752,605.749 68.535,605.765 68.302,605.765C68.069,605.765 67.852,605.782 67.619,605.782C67.452,605.782 67.302,605.765 67.135,605.765C66.869,605.765 66.602,605.782 66.335,605.832L66.219,605.832C66.019,605.865 65.852,605.982 65.702,606.082C65.535,606.182 65.419,606.315 65.319,606.482C65.219,606.632 65.152,606.799 65.119,606.999C65.069,607.282 65.035,607.549 65.035,607.815C65.035,608.049 65.019,608.282 65.019,608.532L65.019,609.232C65.019,609.482 65.069,609.715 65.069,609.949C65.069,610.199 65.052,610.432 65.052,610.665C65.052,610.899 65.035,611.149 65.035,611.382C65.035,611.699 65.019,611.699 65.019,612.015L65.019,612.632C65.019,612.915 65.035,612.915 65.035,613.199L65.035,613.749C65.035,613.949 65.052,614.165 65.052,614.365L65.052,614.982C65.052,615.199 65.035,615.399 65.035,615.599L65.035,616.849C65.035,617.049 65.019,617.249 65.019,617.465ZM67.485,610.182C67.485,609.865 67.502,609.549 67.569,609.249C67.619,609.032 67.702,608.832 67.802,608.665C67.935,608.499 68.102,608.382 68.285,608.282C68.452,608.182 68.635,608.099 68.852,608.082C69.069,608.049 69.285,608.015 69.502,608.015C69.719,607.999 69.919,607.965 70.135,607.965C70.352,607.982 70.569,608.032 70.769,608.065C70.985,608.099 71.202,608.099 71.419,608.149L72.019,608.349C72.219,608.432 72.402,608.549 72.602,608.649C72.802,608.765 73.002,608.849 73.185,608.965C73.369,609.099 73.552,609.232 73.702,609.382C73.869,609.532 74.002,609.715 74.152,609.899C74.285,610.065 74.402,610.249 74.519,610.449C74.619,610.632 74.752,610.832 74.819,611.032C74.902,611.249 74.935,611.465 74.985,611.699C75.019,611.915 75.002,612.132 75.019,612.365C75.035,612.565 75.052,612.782 75.035,612.965C75.035,613.182 75.002,613.382 74.969,613.582C74.935,613.782 74.835,613.965 74.785,614.149C74.719,614.349 74.669,614.532 74.569,614.715C74.485,614.915 74.369,615.099 74.252,615.265C74.135,615.449 74.035,615.632 73.885,615.782C73.735,615.949 73.569,616.082 73.402,616.215C73.235,616.332 73.052,616.432 72.869,616.549C72.702,616.632 72.569,616.749 72.385,616.815C72.235,616.882 72.069,616.965 71.885,617.032C71.719,617.082 71.535,617.099 71.352,617.132C71.119,617.199 70.902,617.249 70.685,617.282C70.435,617.315 70.219,617.332 69.985,617.349C69.752,617.365 69.519,617.365 69.302,617.349C69.019,617.332 68.785,617.282 68.569,617.199C68.335,617.115 68.135,616.965 67.969,616.782C67.802,616.615 67.652,616.432 67.569,616.199C67.502,615.982 67.485,615.749 67.485,615.482C67.469,615.282 67.469,615.099 67.469,614.899C67.452,614.715 67.485,614.515 67.485,614.332C67.485,614.165 67.452,614.015 67.435,613.865C67.435,613.599 67.452,613.315 67.452,613.049C67.452,613.032 67.469,613.032 67.469,613.015C67.469,612.749 67.452,612.749 67.452,612.482C67.452,612.232 67.435,612.232 67.435,611.965C67.435,611.765 67.452,611.565 67.452,611.365C67.452,611.165 67.469,610.982 67.469,610.782C67.469,610.582 67.485,610.382 67.485,610.182Z" style="fill:white;fill-rule:nonzero;stroke:white;stroke-width:1.13px;"/>
            <path d="M93.885,619.382L93.902,619.399C94.085,619.399 94.252,619.315 94.402,619.215C94.552,619.132 94.685,619.015 94.785,618.865C94.885,618.715 95.002,618.565 95.052,618.382C95.119,618.115 95.069,617.832 95.069,617.582C95.069,617.249 95.085,617.249 95.085,616.932C95.085,616.599 95.135,616.599 95.135,616.282C95.135,615.949 95.119,615.949 95.119,615.615C95.119,615.299 95.069,615.299 95.069,614.965C95.069,614.632 95.102,614.632 95.102,614.315L95.102,613.665C95.102,613.332 95.102,613.332 95.102,612.999L95.085,612.999C95.085,612.715 95.135,612.715 95.135,612.432C95.135,612.132 95.119,612.132 95.119,611.849C95.119,611.565 95.102,611.565 95.102,611.265C95.102,611.032 95.085,610.799 95.085,610.565L95.085,609.849C95.085,609.615 95.069,609.382 95.069,609.149C95.069,608.915 95.119,608.682 95.119,608.432C95.119,608.199 95.102,607.965 95.102,607.732C95.102,607.699 95.069,607.699 95.069,607.682C95.069,607.399 95.119,607.065 95.002,606.749C94.919,606.499 94.752,606.332 94.569,606.199C94.385,606.065 94.152,605.982 93.902,605.982C93.885,605.982 93.885,605.949 93.885,605.949C93.635,605.949 93.385,606.015 93.202,606.149C93.002,606.282 92.885,606.515 92.802,606.749C92.702,607.015 92.669,607.282 92.669,607.499C92.669,607.765 92.702,608.015 92.702,608.282L92.702,608.699C92.702,608.899 92.669,609.115 92.652,609.332C92.619,609.532 92.535,609.732 92.485,609.932C92.419,610.149 92.352,610.315 92.252,610.465C92.135,610.632 92.002,610.749 91.835,610.849C91.685,610.949 91.519,611.015 91.319,611.049C91.069,611.099 90.802,611.182 90.519,611.182C90.235,611.182 89.935,611.165 89.652,611.165C89.435,611.165 89.235,611.149 89.035,611.149C88.835,611.149 88.635,611.182 88.419,611.182C88.219,611.182 88.019,611.182 87.819,611.165C87.585,611.165 87.352,611.132 87.102,611.099C86.869,611.065 86.652,610.982 86.485,610.882C86.285,610.765 86.135,610.615 86.019,610.415C85.919,610.249 85.869,610.032 85.819,609.799C85.769,609.582 85.752,609.399 85.735,609.215C85.702,609.015 85.635,608.815 85.635,608.632C85.635,608.432 85.669,608.232 85.652,608.032C85.652,607.832 85.619,607.632 85.619,607.432C85.619,607.199 85.635,606.899 85.502,606.599C85.385,606.365 85.219,606.165 85.002,606.049C84.785,605.949 84.535,605.932 84.269,605.982C84.019,606.049 83.835,606.165 83.685,606.332C83.535,606.482 83.402,606.682 83.352,606.932C83.302,607.182 83.269,607.415 83.252,607.632C83.235,607.865 83.269,608.115 83.269,608.332C83.269,608.532 83.235,608.749 83.235,608.949C83.235,609.149 83.252,609.349 83.252,609.549C83.252,609.749 83.285,609.949 83.285,610.165C83.285,610.365 83.219,610.565 83.219,610.765C83.219,610.965 83.269,611.165 83.269,611.382C83.269,611.582 83.235,611.782 83.235,611.982C83.235,612.182 83.252,612.382 83.252,612.599C83.252,612.999 83.252,612.999 83.235,613.382L83.235,614.182C83.235,614.632 83.252,614.632 83.252,615.082C83.269,615.315 83.269,615.549 83.269,615.782C83.269,616.015 83.219,616.249 83.219,616.482C83.219,616.699 83.269,616.932 83.269,617.165C83.269,617.365 83.235,617.582 83.252,617.782C83.285,617.982 83.319,618.182 83.369,618.382C83.435,618.665 83.585,618.882 83.769,619.049C83.969,619.215 84.219,619.332 84.519,619.332C84.802,619.332 85.035,619.199 85.235,619.015C85.419,618.849 85.535,618.615 85.602,618.332C85.635,618.132 85.619,617.932 85.619,617.732C85.635,617.532 85.652,617.315 85.652,617.115C85.652,616.915 85.702,616.699 85.702,616.499C85.702,616.299 85.685,616.099 85.685,615.882C85.685,615.665 85.669,615.449 85.685,615.232C85.719,615.015 85.802,614.799 85.852,614.582C85.902,614.365 85.969,614.182 86.069,614.015C86.185,613.832 86.319,613.682 86.485,613.565C86.652,613.465 86.852,613.399 87.069,613.349C87.285,613.299 87.502,613.282 87.685,613.265C87.902,613.232 88.102,613.265 88.302,613.282C88.485,613.282 88.669,613.232 88.852,613.232L89.985,613.232C90.185,613.215 90.385,613.249 90.602,613.265C90.802,613.282 91.002,613.299 91.219,613.349C91.452,613.382 91.669,613.465 91.835,613.565C92.035,613.682 92.185,613.849 92.302,614.049C92.419,614.215 92.485,614.432 92.519,614.665C92.569,614.899 92.602,615.115 92.619,615.315C92.652,615.565 92.719,615.782 92.702,615.982L92.702,617.115C92.702,617.299 92.652,617.482 92.669,617.682C92.669,617.882 92.719,618.132 92.785,618.382C92.819,618.565 92.869,618.749 92.969,618.899C93.069,619.049 93.219,619.165 93.369,619.249C93.535,619.332 93.702,619.382 93.885,619.382Z" style="fill:white;fill-rule:nonzero;stroke:white;stroke-width:1.13px;"/>
            <path d="M97.152,611.499C97.152,611.882 97.185,611.882 97.185,612.265C97.185,612.649 97.152,612.649 97.152,613.015C97.152,613.249 97.169,613.465 97.169,613.699C97.169,613.915 97.185,614.149 97.185,614.382L97.185,615.732C97.185,615.949 97.202,616.182 97.202,616.399C97.202,616.632 97.169,616.849 97.169,617.082C97.169,617.315 97.202,617.532 97.219,617.732C97.235,617.965 97.235,618.199 97.269,618.399C97.335,618.649 97.485,618.815 97.652,618.965C97.802,619.115 97.985,619.232 98.235,619.265C98.302,619.282 98.369,619.315 98.435,619.315C98.719,619.315 98.952,619.215 99.152,619.032C99.335,618.882 99.435,618.649 99.502,618.365C99.552,618.099 99.602,617.849 99.602,617.599L99.602,616.982C99.602,616.782 99.569,616.565 99.569,616.365C99.569,616.149 99.585,615.949 99.585,615.732C99.585,615.532 99.552,615.315 99.552,615.115L99.552,614.499C99.552,614.282 99.585,614.082 99.585,613.865C99.585,613.582 99.619,613.582 99.619,613.299L99.619,612.732C99.619,612.432 99.602,612.432 99.602,612.149C99.602,611.865 99.585,611.865 99.585,611.582C99.585,611.332 99.569,611.099 99.569,610.849C99.569,610.615 99.552,610.365 99.552,610.115C99.552,609.882 99.585,609.632 99.585,609.399C99.585,609.149 99.552,608.899 99.552,608.665C99.552,608.449 99.602,608.249 99.602,608.032C99.602,607.832 99.585,607.615 99.585,607.415C99.585,607.165 99.535,606.832 99.352,606.515C99.202,606.249 98.935,606.065 98.619,605.999C98.319,605.932 97.985,605.999 97.735,606.199C97.485,606.399 97.302,606.649 97.252,606.965C97.252,607.065 97.285,607.065 97.269,607.165L97.219,607.699C97.202,607.882 97.135,608.065 97.135,608.249C97.135,608.449 97.152,608.632 97.152,608.832L97.152,609.982C97.152,610.165 97.185,610.365 97.185,610.549C97.169,611.032 97.152,611.032 97.152,611.499Z" style="fill:white;fill-rule:nonzero;stroke:white;stroke-width:1.13px;"/>
            <path d="M109.869,616.515C109.935,616.282 109.935,616.032 109.935,615.815C109.952,615.565 109.969,615.332 109.969,615.115C109.952,614.865 109.902,614.632 109.852,614.399C109.785,614.165 109.752,613.915 109.635,613.715C109.519,613.499 109.352,613.315 109.185,613.132C109.035,612.949 108.852,612.782 108.652,612.649C108.435,612.499 108.235,612.365 108.019,612.265C107.802,612.149 107.569,612.065 107.352,611.999C107.102,611.915 106.869,611.782 106.619,611.699C106.335,611.599 106.052,611.532 105.769,611.432C105.602,611.382 105.419,611.299 105.235,611.232C105.069,611.149 104.919,611.032 104.769,610.932C104.535,610.799 104.335,610.682 104.185,610.532C104.002,610.365 103.852,610.182 103.769,609.982C103.685,609.782 103.652,609.565 103.652,609.365C103.652,609.165 103.685,608.949 103.752,608.765C103.835,608.582 103.952,608.399 104.085,608.249C104.219,608.099 104.402,607.999 104.585,607.899C104.769,607.799 104.952,607.732 105.135,607.682C105.335,607.632 105.519,607.582 105.719,607.565C105.919,607.565 106.119,607.532 106.319,607.549C106.402,607.565 106.385,607.599 106.469,607.615C106.685,607.649 106.902,607.699 107.135,607.732C107.385,607.749 107.669,607.699 107.985,607.699C108.169,607.699 108.352,607.682 108.502,607.599C108.652,607.515 108.769,607.382 108.885,607.215C109.019,607.032 109.085,606.849 109.069,606.649C109.069,606.449 108.985,606.265 108.819,606.099C108.702,605.982 108.552,605.899 108.419,605.815C108.269,605.732 108.135,605.615 107.985,605.565C107.769,605.515 107.535,605.499 107.302,605.465C107.085,605.415 106.852,605.382 106.635,605.365C106.402,605.349 106.169,605.299 105.952,605.299C105.719,605.299 105.485,605.349 105.269,605.382C105.035,605.415 104.802,605.415 104.585,605.465C104.369,605.515 104.152,605.632 103.935,605.699C103.735,605.765 103.519,605.849 103.302,605.949C103.119,606.032 102.952,606.132 102.785,606.232C102.619,606.332 102.435,606.432 102.302,606.549C102.135,606.682 101.985,606.815 101.869,606.965C101.719,607.115 101.635,607.315 101.519,607.482C101.419,607.665 101.285,607.832 101.202,608.032C101.119,608.215 101.119,608.432 101.069,608.649C101.019,608.849 100.985,609.049 100.969,609.265C100.952,609.465 100.952,609.665 100.952,609.882C100.969,610.132 101.002,610.365 101.069,610.582C101.135,610.815 101.269,611.015 101.385,611.215C101.502,611.415 101.635,611.615 101.802,611.782C101.969,611.965 102.152,612.132 102.369,612.282C102.569,612.415 102.769,612.565 103.002,612.682C103.219,612.782 103.452,612.882 103.702,612.965C103.885,613.049 104.052,613.149 104.235,613.215C104.419,613.282 104.619,613.332 104.802,613.399C104.952,613.449 105.102,613.532 105.252,613.582C105.402,613.649 105.569,613.699 105.719,613.749C105.969,613.849 106.202,613.949 106.419,614.099C106.635,614.249 106.835,614.415 107.002,614.615C107.152,614.782 107.252,614.982 107.302,615.199C107.369,615.415 107.402,615.649 107.385,615.865C107.352,616.099 107.252,616.299 107.135,616.482C106.985,616.682 106.819,616.849 106.652,616.982C106.469,617.132 106.269,617.282 106.052,617.365C105.852,617.432 105.635,617.415 105.419,617.449C105.219,617.465 105.019,617.515 104.802,617.499C104.602,617.482 104.402,617.415 104.185,617.365C103.985,617.332 103.802,617.282 103.602,617.215L103.335,617.115C103.135,617.065 102.952,617.082 102.769,617.065C102.569,617.049 102.385,617.049 102.202,617.082C101.985,617.132 101.785,617.199 101.635,617.332C101.502,617.465 101.369,617.649 101.302,617.865C101.252,618.082 101.319,618.265 101.385,618.432C101.469,618.649 101.652,618.799 101.719,618.865C101.819,618.949 101.935,619.015 102.052,619.082C102.202,619.165 102.352,619.249 102.502,619.315C102.669,619.382 102.802,619.482 102.969,619.515C103.152,619.565 103.352,619.565 103.552,619.599C103.752,619.632 103.935,619.682 104.135,619.699C104.335,619.715 104.535,619.665 104.735,619.665C104.885,619.665 105.052,619.682 105.219,619.682C105.285,619.682 105.285,619.649 105.335,619.649C105.419,619.649 105.502,619.699 105.602,619.699C105.819,619.682 106.035,619.665 106.252,619.632C106.485,619.599 106.685,619.532 106.902,619.465C107.119,619.399 107.302,619.282 107.502,619.182C107.685,619.082 107.902,619.032 108.069,618.932C108.252,618.815 108.385,618.665 108.552,618.532C108.719,618.399 108.885,618.282 109.019,618.132C109.152,617.982 109.252,617.799 109.352,617.615C109.469,617.449 109.585,617.282 109.669,617.099C109.752,616.899 109.819,616.715 109.869,616.515Z" style="fill:white;fill-rule:nonzero;stroke:white;stroke-width:1.13px;"/>
            <path d="M114.335,608.965C114.419,609.232 114.435,609.515 114.435,609.882L114.435,610.532C114.435,610.732 114.419,610.949 114.419,611.165C114.419,611.382 114.452,611.582 114.452,611.799C114.452,612.015 114.435,612.232 114.435,612.432C114.435,612.765 114.469,612.765 114.469,613.099L114.469,613.749C114.469,614.082 114.435,614.082 114.435,614.399L114.435,615.665C114.435,615.882 114.452,616.082 114.435,616.299L114.435,616.932C114.435,617.149 114.452,617.365 114.469,617.582L114.569,618.215C114.619,618.499 114.719,618.765 114.902,618.949C115.102,619.115 115.369,619.199 115.652,619.199C115.669,619.199 115.685,619.215 115.702,619.215C115.985,619.215 116.219,619.115 116.402,618.949C116.585,618.799 116.719,618.565 116.785,618.282C116.819,618.132 116.852,617.982 116.852,617.782C116.869,617.565 116.835,617.349 116.835,617.115C116.835,616.782 116.852,616.782 116.852,616.449C116.852,616.132 116.819,616.132 116.819,615.799C116.819,615.565 116.852,615.349 116.852,615.132C116.852,614.899 116.835,614.682 116.835,614.465C116.835,614.232 116.852,614.015 116.852,613.799C116.852,613.565 116.885,613.349 116.885,613.132C116.885,612.899 116.835,612.682 116.835,612.465C116.835,612.232 116.819,612.015 116.819,611.799L116.819,611.132C116.819,610.899 116.869,610.682 116.869,610.465C116.869,610.265 116.885,610.065 116.902,609.832C116.919,609.649 116.902,609.432 116.935,609.215C116.969,608.949 117.085,608.749 117.185,608.549C117.319,608.349 117.452,608.149 117.652,608.015C117.835,607.899 118.069,607.832 118.335,607.765C118.419,607.749 118.519,607.732 118.635,607.732C118.685,607.715 118.735,607.699 118.785,607.699C118.885,607.682 118.985,607.665 119.085,607.665C119.302,607.632 119.535,607.615 119.769,607.582C120.002,607.532 120.252,607.465 120.402,607.315C120.585,607.149 120.685,606.915 120.685,606.699C120.685,606.465 120.552,606.265 120.369,606.099C120.202,605.949 119.985,605.832 119.752,605.815C119.635,605.799 119.652,605.732 119.535,605.715L118.985,605.665C118.802,605.649 118.602,605.632 118.419,605.632C118.219,605.632 118.002,605.649 117.802,605.649C117.602,605.649 117.385,605.632 117.185,605.632L116.569,605.632C116.352,605.632 116.152,605.665 115.935,605.665C115.735,605.665 115.535,605.649 115.319,605.649L114.702,605.649C114.502,605.649 114.285,605.665 114.085,605.665C113.885,605.665 113.669,605.682 113.469,605.682C113.252,605.682 113.052,605.665 112.852,605.665C112.835,605.665 112.835,605.649 112.835,605.649C112.619,605.649 112.402,605.649 112.185,605.665C111.969,605.699 111.769,605.749 111.552,605.782C111.285,605.815 111.085,605.932 110.919,606.082C110.752,606.249 110.619,606.482 110.635,606.715C110.652,606.949 110.752,607.182 110.919,607.332C111.069,607.465 111.285,607.532 111.535,607.565C111.702,607.599 111.852,607.649 112.019,607.665C112.185,607.699 112.369,607.699 112.519,607.715C112.752,607.749 112.985,607.749 113.202,607.815C113.402,607.882 113.569,607.965 113.702,608.065C113.869,608.165 113.969,608.332 114.069,608.482C114.169,608.632 114.285,608.782 114.335,608.965Z" style="fill:white;fill-rule:nonzero;stroke:white;stroke-width:1.13px;"/>
            <path d="M136.152,612.382C136.152,612.249 136.119,612.115 136.119,611.999C136.102,611.765 136.102,611.549 136.069,611.332C136.035,611.115 136.019,610.899 135.969,610.682C135.919,610.465 135.885,610.249 135.819,610.049C135.752,609.832 135.669,609.632 135.569,609.432C135.485,609.232 135.385,609.032 135.285,608.832C135.185,608.649 135.069,608.482 134.952,608.315C134.835,608.149 134.735,607.965 134.602,607.815C134.469,607.649 134.319,607.515 134.169,607.365C134.019,607.232 133.885,607.082 133.719,606.949C133.569,606.815 133.419,606.682 133.252,606.565C133.085,606.449 132.885,606.365 132.702,606.265C132.535,606.165 132.335,606.099 132.152,606.015C131.952,605.932 131.785,605.815 131.585,605.749C131.402,605.682 131.185,605.649 130.985,605.599C130.785,605.549 130.569,605.515 130.369,605.482C130.152,605.449 129.935,605.415 129.719,605.399C129.519,605.365 129.302,605.299 129.085,605.282C128.869,605.282 128.652,605.299 128.452,605.299C128.235,605.315 128.019,605.349 127.802,605.382C127.602,605.399 127.369,605.382 127.169,605.432C126.952,605.465 126.735,605.499 126.535,605.549C126.319,605.599 126.119,605.682 125.919,605.749C125.719,605.832 125.502,605.882 125.319,605.982C125.119,606.065 124.935,606.182 124.752,606.282C124.569,606.399 124.385,606.532 124.219,606.649C124.035,606.782 123.835,606.899 123.669,607.032C123.502,607.182 123.335,607.349 123.185,607.515C123.035,607.665 122.919,607.865 122.785,608.049C122.652,608.215 122.469,608.365 122.352,608.565C122.235,608.749 122.169,608.965 122.085,609.165C121.985,609.365 121.902,609.582 121.835,609.799C121.752,609.999 121.685,610.215 121.635,610.432C121.585,610.649 121.485,610.849 121.452,611.082C121.419,611.265 121.402,611.449 121.385,611.649C121.369,611.832 121.369,612.032 121.369,612.232C121.352,612.415 121.352,612.599 121.352,612.799C121.352,612.982 121.385,613.182 121.402,613.382C121.419,613.599 121.435,613.815 121.469,614.015C121.502,614.232 121.569,614.449 121.619,614.649C121.669,614.865 121.735,615.082 121.802,615.282C121.885,615.482 121.952,615.682 122.035,615.882C122.135,616.082 122.235,616.265 122.352,616.449C122.469,616.649 122.585,616.832 122.719,616.999C122.852,617.182 123.019,617.332 123.169,617.482C123.319,617.649 123.435,617.832 123.602,617.982C123.752,618.132 123.952,618.232 124.135,618.365L124.685,618.715C124.885,618.815 125.052,618.965 125.252,619.049C125.452,619.132 125.669,619.199 125.869,619.265C126.069,619.332 126.285,619.382 126.502,619.432C126.685,619.482 126.869,619.532 127.069,619.565C127.252,619.599 127.435,619.615 127.635,619.632L128.202,619.682C128.385,619.699 128.569,619.699 128.769,619.699C129.069,619.699 129.369,619.699 129.669,619.665C129.902,619.649 130.119,619.632 130.335,619.599C130.569,619.549 130.785,619.482 130.985,619.432C131.219,619.382 131.435,619.349 131.652,619.282C131.869,619.215 132.085,619.132 132.285,619.049C132.485,618.949 132.685,618.849 132.885,618.732C133.069,618.615 133.252,618.465 133.419,618.332C133.602,618.199 133.785,618.065 133.952,617.915C134.102,617.799 134.219,617.632 134.352,617.499C134.485,617.365 134.602,617.199 134.719,617.049C134.835,616.899 134.935,616.749 135.035,616.582C135.152,616.432 135.235,616.265 135.319,616.082C135.419,615.899 135.535,615.732 135.619,615.549C135.685,615.365 135.735,615.165 135.802,614.982C135.852,614.782 135.935,614.599 135.969,614.399C136.019,614.199 136.069,613.999 136.102,613.799C136.119,613.599 136.135,613.399 136.135,613.199C136.152,612.999 136.169,612.782 136.152,612.582L136.152,612.382ZM133.319,614.332C133.235,614.549 133.169,614.782 133.069,614.982C132.952,615.199 132.835,615.399 132.702,615.582C132.569,615.765 132.419,615.949 132.252,616.115C132.102,616.282 131.919,616.415 131.735,616.565C131.552,616.699 131.352,616.832 131.152,616.949C130.952,617.065 130.735,617.149 130.519,617.232C130.302,617.315 130.085,617.382 129.852,617.432C129.635,617.482 129.402,617.499 129.185,617.515C128.952,617.532 128.719,617.565 128.502,617.549C128.269,617.532 128.052,617.499 127.819,617.449C127.602,617.415 127.385,617.332 127.169,617.265C126.952,617.199 126.735,617.132 126.535,617.032C126.352,616.949 126.169,616.882 126.002,616.765C125.835,616.665 125.719,616.499 125.569,616.365C125.419,616.232 125.252,616.132 125.135,615.965C125.002,615.832 124.869,615.682 124.769,615.499C124.635,615.315 124.535,615.115 124.435,614.915C124.335,614.715 124.285,614.482 124.219,614.265C124.135,614.049 124.069,613.849 124.019,613.632C123.969,613.415 123.902,613.199 123.885,612.965C123.869,612.749 123.902,612.515 123.902,612.299C123.919,612.065 123.952,611.849 123.985,611.632C124.035,611.415 124.069,611.182 124.135,610.965C124.202,610.765 124.302,610.549 124.402,610.349C124.485,610.149 124.585,609.949 124.685,609.749C124.802,609.532 124.919,609.332 125.069,609.165C125.202,608.982 125.385,608.849 125.552,608.699C125.719,608.549 125.902,608.399 126.085,608.265C126.285,608.149 126.469,608.015 126.685,607.915C126.885,607.832 127.119,607.815 127.352,607.749C127.552,607.699 127.752,607.599 127.985,607.549C128.202,607.515 128.419,607.482 128.652,607.482C128.669,607.482 128.702,607.482 128.735,607.482L128.735,607.532C128.952,607.532 129.152,607.549 129.352,607.565C129.569,607.599 129.769,607.615 129.969,607.665C130.169,607.699 130.352,607.782 130.552,607.849C130.752,607.915 130.935,607.982 131.119,608.082C131.302,608.182 131.469,608.299 131.635,608.415C131.802,608.532 131.969,608.665 132.119,608.815C132.269,608.949 132.385,609.099 132.519,609.249C132.635,609.399 132.735,609.565 132.835,609.732C132.935,609.899 133.035,610.082 133.119,610.249L133.319,610.815C133.369,610.999 133.469,611.165 133.502,611.365C133.552,611.565 133.535,611.765 133.569,611.965C133.585,612.165 133.652,612.365 133.652,612.565C133.652,612.765 133.652,612.965 133.619,613.165C133.602,613.365 133.519,613.549 133.469,613.749C133.419,613.949 133.385,614.132 133.319,614.332Z" style="fill:white;fill-rule:nonzero;stroke:white;stroke-width:1.13px;"/>
            <path d="M148.585,618.082C148.469,617.932 148.319,617.832 148.169,617.732C148.035,617.632 147.885,617.549 147.702,617.499C147.469,617.415 147.235,617.332 147.019,617.232C146.785,617.132 146.585,616.982 146.385,616.865C146.152,616.749 145.935,616.632 145.735,616.465C145.535,616.299 145.335,616.149 145.152,615.949L144.785,615.499C144.669,615.332 144.585,615.165 144.485,614.999C144.385,614.832 144.319,614.649 144.235,614.482C144.169,614.382 144.119,614.282 144.085,614.165C144.052,613.865 144.219,613.582 144.402,613.365C144.585,613.299 144.769,613.232 144.935,613.132C145.135,613.032 145.319,612.965 145.485,612.849C145.669,612.715 145.835,612.599 145.969,612.449C146.119,612.299 146.252,612.149 146.369,611.965C146.485,611.799 146.602,611.615 146.669,611.415C146.752,611.232 146.785,611.015 146.835,610.815C146.885,610.565 146.969,610.332 146.985,610.082C146.985,609.949 147.002,609.815 146.985,609.682C146.985,609.549 146.985,609.399 146.969,609.265C146.952,609.015 146.902,608.765 146.852,608.515C146.802,608.282 146.735,608.049 146.619,607.832C146.519,607.615 146.402,607.399 146.252,607.199C146.102,607.015 145.919,606.865 145.719,606.699C145.502,606.515 145.285,606.365 145.069,606.249C144.819,606.115 144.569,606.015 144.319,605.949C144.102,605.882 143.902,605.815 143.702,605.782C143.485,605.749 143.285,605.765 143.085,605.749C142.869,605.715 142.669,605.665 142.452,605.665L142.419,605.665C142.202,605.665 142.002,605.682 141.785,605.682C141.569,605.682 141.352,605.715 141.152,605.682C140.919,605.665 140.702,605.599 140.485,605.582L139.819,605.582C139.602,605.582 139.369,605.615 139.152,605.615C139.002,605.615 139.002,605.582 138.835,605.582C138.619,605.582 138.419,605.615 138.219,605.665C138.169,605.665 138.185,605.715 138.135,605.732C137.935,605.765 137.752,605.815 137.585,605.915C137.419,606.015 137.285,606.149 137.185,606.315C137.085,606.482 137.035,606.665 136.985,606.865C136.952,607.049 136.902,607.232 136.885,607.432C136.869,607.615 136.819,607.815 136.819,607.999L136.819,608.065C136.819,608.265 136.835,608.482 136.835,608.699C136.835,608.899 136.819,609.099 136.819,609.315L136.819,609.365C136.819,609.582 136.869,609.782 136.869,609.999C136.869,610.199 136.852,610.415 136.852,610.615C136.852,610.832 136.835,611.049 136.835,611.265C136.835,611.565 136.819,611.565 136.819,611.865L136.819,611.915C136.819,612.199 136.835,612.215 136.835,612.482L136.835,613.115C136.835,613.415 136.869,613.415 136.869,613.715L136.869,615.049C136.869,615.249 136.885,615.465 136.885,615.665C136.885,615.899 136.819,616.115 136.819,616.332L136.819,617.065C136.819,617.299 136.869,617.515 136.885,617.732C136.919,617.965 136.919,618.182 136.985,618.382C137.052,618.632 137.202,618.865 137.385,618.999C137.569,619.149 137.835,619.249 138.085,619.249L138.102,619.182C138.352,619.182 138.569,619.132 138.769,618.982C138.952,618.849 139.119,618.665 139.185,618.432C139.219,618.332 139.252,618.249 139.269,618.165C139.269,618.149 139.269,618.132 139.252,618.115L139.269,618.115L139.269,618.065C139.302,617.832 139.319,617.615 139.319,617.399C139.335,617.165 139.335,616.932 139.335,616.715C139.335,616.582 139.352,616.449 139.352,616.332L139.352,616.315L139.352,616.265C139.352,616.249 139.335,616.249 139.335,616.215C139.335,616.032 139.369,615.849 139.385,615.682C139.385,615.482 139.402,615.282 139.452,615.099C139.502,614.865 139.535,614.649 139.652,614.482C139.769,614.299 139.919,614.149 140.119,614.032C140.285,613.915 140.485,613.849 140.719,613.782L140.752,613.782C141.752,613.832 142.019,614.749 142.019,614.749L142.052,614.732C142.102,614.882 142.135,615.032 142.202,615.182C142.285,615.382 142.419,615.565 142.519,615.765C142.619,615.949 142.702,616.165 142.819,616.349C142.935,616.532 143.069,616.732 143.202,616.899C143.335,617.082 143.519,617.199 143.669,617.365C143.819,617.515 143.952,617.699 144.119,617.832C144.285,617.982 144.452,618.132 144.619,618.265C144.802,618.382 144.985,618.515 145.169,618.615C145.352,618.732 145.569,618.815 145.752,618.899C145.952,618.999 146.152,619.099 146.352,619.165C146.569,619.249 146.769,619.265 146.969,619.315C147.169,619.365 147.369,619.399 147.585,619.399L147.585,619.382L147.652,619.382C147.902,619.382 148.119,619.365 148.319,619.249C148.619,619.082 148.735,618.882 148.769,618.732C148.802,618.582 148.785,618.332 148.585,618.082ZM139.385,609.549C139.402,609.365 139.385,609.165 139.435,608.965C139.502,608.715 139.619,608.532 139.752,608.349C139.885,608.149 140.052,607.982 140.269,607.865C140.469,607.765 140.685,607.682 140.935,607.649C141.052,607.632 141.169,607.632 141.302,607.615C141.369,607.615 141.435,607.632 141.485,607.632C141.719,607.632 141.919,607.615 142.119,607.649C142.335,607.682 142.535,607.732 142.719,607.799C142.919,607.865 143.102,607.965 143.269,608.065C143.452,608.182 143.602,608.299 143.719,608.432C143.869,608.582 144.019,608.699 144.119,608.865C144.202,609.049 144.202,609.232 144.235,609.449C144.235,609.515 144.252,609.582 144.252,609.649C144.252,609.832 144.235,609.999 144.185,610.165C144.119,610.415 144.002,610.649 143.819,610.865C143.685,610.999 143.569,611.115 143.435,611.215C143.302,611.315 143.152,611.415 143.002,611.482C142.785,611.549 142.569,611.599 142.369,611.649C142.135,611.699 141.919,611.749 141.719,611.749C141.485,611.765 141.269,611.765 141.052,611.732C140.835,611.699 140.619,611.665 140.402,611.582C140.185,611.499 140.002,611.365 139.852,611.215C139.702,611.065 139.602,610.882 139.535,610.665C139.469,610.465 139.435,610.282 139.402,610.082C139.385,609.982 139.385,609.899 139.385,609.799L139.385,609.549Z" style="fill:white;fill-rule:nonzero;stroke:white;stroke-width:1.13px;"/>
            <path d="M157.902,605.849C157.669,605.849 157.452,605.915 157.235,605.999C157.035,606.082 156.835,606.199 156.685,606.365C156.552,606.515 156.385,606.665 156.252,606.849C156.152,606.999 156.102,607.165 156.002,607.315C155.902,607.465 155.769,607.582 155.685,607.732C155.635,607.815 155.652,607.849 155.602,607.932C155.485,608.099 155.352,608.265 155.252,608.449C155.152,608.632 155.019,608.799 154.919,608.965C154.802,609.149 154.702,609.315 154.569,609.482C154.402,609.682 154.269,609.865 154.085,609.965C153.885,610.099 153.702,610.182 153.502,610.182C153.319,610.182 153.135,610.065 152.935,609.932C152.669,609.765 152.469,609.549 152.285,609.282L151.885,608.582C151.652,608.182 151.619,608.215 151.369,607.815C151.269,607.649 151.202,607.465 151.102,607.282C151.002,607.115 150.869,606.949 150.769,606.782C150.669,606.615 150.535,606.482 150.402,606.349C150.252,606.215 150.119,606.065 149.952,605.982C149.785,605.899 149.585,605.849 149.402,605.799C149.202,605.749 149.002,605.765 148.835,605.799C148.652,605.832 148.502,605.949 148.369,606.082C148.252,606.215 148.135,606.382 148.119,606.582C148.102,606.749 148.169,606.932 148.235,607.115C148.302,607.315 148.369,607.515 148.519,607.749C148.619,607.899 148.752,608.049 148.869,608.215C148.969,608.382 149.052,608.565 149.152,608.732C149.269,608.882 149.352,609.065 149.469,609.215C149.585,609.415 149.752,609.582 149.885,609.782C150.002,609.965 150.119,610.182 150.252,610.365C150.369,610.565 150.519,610.749 150.652,610.949L150.902,611.365C151.019,611.515 151.119,611.682 151.219,611.832C151.319,611.982 151.385,612.165 151.485,612.332C151.585,612.482 151.652,612.665 151.735,612.832C151.835,613.049 151.952,613.265 152.019,613.482C152.102,613.732 152.169,613.949 152.219,614.182C152.252,614.432 152.269,614.665 152.269,614.915L152.269,615.615C152.269,615.949 152.235,615.949 152.235,616.282L152.285,616.282C152.285,616.532 152.252,616.765 152.252,617.015C152.252,617.215 152.235,617.415 152.269,617.599C152.285,617.799 152.319,617.999 152.335,618.182C152.352,618.199 152.385,618.199 152.385,618.215C152.435,618.499 152.569,618.732 152.752,618.899C152.935,619.082 153.169,619.165 153.452,619.182L153.519,619.199C153.802,619.199 154.052,619.132 154.235,618.965C154.419,618.815 154.519,618.565 154.585,618.282C154.652,618.015 154.685,617.749 154.685,617.515C154.702,617.349 154.669,617.182 154.669,617.032L154.669,616.532C154.669,616.315 154.652,616.082 154.652,615.865C154.652,615.632 154.669,615.415 154.669,615.199C154.669,614.949 154.685,614.715 154.702,614.499C154.735,614.265 154.769,614.032 154.819,613.815C154.869,613.599 154.952,613.382 155.035,613.165C155.119,612.949 155.235,612.749 155.352,612.565C155.469,612.365 155.585,612.182 155.702,611.999C155.819,611.815 155.935,611.632 156.052,611.432C156.169,611.249 156.269,611.065 156.385,610.882L156.752,610.315C156.885,610.132 157.002,609.949 157.119,609.765C157.235,609.582 157.369,609.415 157.502,609.232C157.602,609.065 157.719,608.915 157.835,608.749C157.935,608.582 158.002,608.399 158.102,608.232C158.169,608.149 158.185,608.165 158.252,608.082C158.352,607.932 158.419,607.782 158.502,607.632C158.602,607.482 158.669,607.315 158.752,607.165C158.935,606.715 158.885,606.399 158.769,606.232C158.652,606.065 158.385,605.865 157.902,605.849Z" style="fill:white;fill-rule:nonzero;stroke:white;stroke-width:1.13px;"/>
        </g>
    </g>
</svg>
