<?xml version="1.0" encoding="UTF-8" standalone="no"?>
<!DOCTYPE svg PUBLIC "-//W3C//DTD SVG 1.1//EN" "http://www.w3.org/Graphics/SVG/1.1/DTD/svg11.dtd">
<svg width="100%" height="100%" viewBox="0 0 250 250" version="1.1" xmlns="http://www.w3.org/2000/svg" xmlns:xlink="http://www.w3.org/1999/xlink" xml:space="preserve" style="fill-rule:evenodd;clip-rule:evenodd;stroke-linejoin:round;stroke-miterlimit:1.41421;">
    <g transform="matrix(0.264443,0,0,0.264443,47.2644,64.7916)">
        <path d="M541,402L500,328L482,327L381,448L371,446L344,380L336,383L363,449L387,453L485,335L496,337L537,411L541,402Z" style="fill:white;"/>
        <path d="M9,215L65,279L79,287L84,283.5L130,268L132,276L84,293L61,290L57,283L6,225L9,215Z" style="fill:white;"/>
        <path d="M186,257L258,223L318,226L350,316L331,337L299,246L266,246L194,280L186,257Z" style="fill:white;"/>
        <path d="M285.5,88C364.148,88 428,151.628 428,230C428,308.372 364.148,372 285.5,372C206.852,372 143,308.372 143,230C143,151.628 206.852,88 285.5,88ZM285.5,128.856C341.519,128.856 387,174.177 387,230C387,285.823 341.519,331.144 285.5,331.144C229.481,331.144 184,285.823 184,230C184,174.177 229.481,128.856 285.5,128.856Z" style="fill:white;"/>
        <path d="M149,316L76,388L126,437L197,364C178.523,351.242 163.386,334.944 149,316Z" style="fill:white;"/>
        <g transform="matrix(1.125,0,0,1.125,-72.75,-34.5)">
            <circle cx="502" cy="316" r="16" style="fill:white;"/>
        </g>
        <g transform="matrix(1.125,0,0,1.125,-190.75,106.5)">
            <circle cx="502" cy="316" r="16" style="fill:white;"/>
        </g>
        <g transform="matrix(1.125,0,0,1.125,-493.75,-64.5)">
            <circle cx="502" cy="316" r="16" style="fill:white;"/>
        </g>
        <g transform="matrix(1.06977,0,0,1.06977,-17.3721,-4.16279)">
            <circle cx="292" cy="203" r="43" style="fill:white;"/>
        </g>
    </g>
    <g transform="matrix(1,0,0,1,-23,10)">
        <path d="M61.313,35.478C61.557,35.478 61.802,35.389 62.024,35.278C62.38,35.056 62.602,34.678 62.713,34.233C62.802,33.9 62.868,33.545 62.868,33.189L62.868,32.367C62.868,32.078 62.824,31.811 62.824,31.522C62.824,31.256 62.868,30.967 62.868,30.678C62.868,30.411 62.846,30.122 62.846,29.856C62.846,29.567 62.824,29.3 62.824,29.011C62.824,28.745 62.802,28.456 62.802,28.167C62.802,27.633 62.868,27.633 62.868,27.078L62.868,26.033C62.868,25.522 62.824,25.522 62.824,24.989L62.824,24.189C62.824,23.9 62.868,23.633 62.868,23.367C62.868,23.1 62.824,22.833 62.824,22.545C62.824,21.433 63.068,20.145 62.78,19.056C62.246,16.945 59.246,16.833 57.713,17.945C57.002,18.456 56.624,19.278 56.357,20.1C55.98,21.233 55.58,22.345 55.202,23.478C55.091,23.767 55.024,24.1 54.913,24.389C54.802,24.745 54.78,24.745 54.646,25.078C54.535,25.433 54.557,25.433 54.424,25.789C54.313,26.145 54.268,26.122 54.157,26.478C54.046,26.789 53.913,27.056 53.78,27.278C53.602,27.545 53.424,27.767 53.202,27.967C52.957,28.189 52.713,28.256 52.468,28.278C52.224,28.278 51.957,28.211 51.735,27.989C51.535,27.833 51.402,27.611 51.268,27.389C51.135,27.189 51.002,26.967 50.913,26.7C50.802,26.433 50.668,26.189 50.58,25.9L50.246,25.1C49.557,23.211 49.024,21.3 48.291,19.433C48.135,19.033 47.957,18.633 47.691,18.3C46.691,17.1 43.846,16.878 42.713,17.989C42.18,18.478 42.002,19.233 41.957,19.967C41.913,20.989 41.98,22.011 41.98,23.011C41.98,23.3 42.002,23.611 42.002,23.9C42.002,24.189 42.024,24.478 42.024,24.767C42.024,25.056 42.002,25.367 42.002,25.656C42.002,25.945 41.98,26.233 41.98,26.522C41.98,26.811 41.935,27.122 41.935,27.411C41.935,27.7 42.024,27.989 42.024,28.278C42.024,28.567 41.935,28.878 41.935,29.167L41.935,30.033C41.935,30.322 41.98,30.633 41.98,30.922C41.98,31.211 41.957,31.5 41.957,31.789C41.957,32.078 42.024,32.389 42.024,32.678C42.024,32.922 42.002,33.189 42.046,33.433C42.068,33.7 42.091,33.945 42.157,34.211C42.246,34.589 42.446,34.878 42.713,35.078C43.002,35.3 43.313,35.456 43.691,35.433C44.068,35.433 44.357,35.256 44.602,35.033C44.846,34.811 45.002,34.522 45.068,34.167C45.135,33.856 45.224,33.545 45.224,33.233C45.224,32.922 45.18,32.611 45.18,32.3C45.18,32.011 45.224,31.7 45.224,31.389C45.224,31.122 45.18,30.833 45.18,30.567C45.18,30.3 45.202,30.011 45.202,29.745C45.202,29.478 45.18,29.189 45.18,28.922C45.18,28.656 45.246,28.367 45.246,28.1C45.246,27.856 45.202,27.611 45.224,27.367C45.224,27.122 45.313,26.9 45.313,26.656L45.38,25.922C45.402,25.656 45.335,25.656 45.357,25.389C45.38,25.145 45.468,24.9 45.535,24.589C45.602,24.278 45.713,23.989 45.957,23.745C46.091,23.611 46.202,23.633 46.335,23.678C46.468,23.745 46.602,23.833 46.713,23.922C47.002,24.167 47.18,24.522 47.357,24.856C47.491,25.1 47.646,25.3 47.757,25.545C47.846,25.789 47.913,26.033 48.002,26.3L48.268,27.033C48.335,27.256 48.357,27.478 48.446,27.7L48.713,28.5C48.802,28.767 48.957,29.011 49.046,29.278C49.135,29.567 49.157,29.856 49.246,30.122C49.335,30.389 49.402,30.678 49.491,30.945C49.557,31.167 49.691,31.367 49.757,31.589C49.824,31.811 49.846,32.056 49.913,32.278C50.024,32.567 50.157,32.856 50.291,33.189C50.402,33.478 50.446,33.811 50.602,34.1C50.713,34.367 50.868,34.589 51.046,34.811C51.224,35.011 51.446,35.167 51.691,35.278C51.913,35.389 52.202,35.478 52.468,35.456C52.735,35.456 53.002,35.345 53.224,35.211C53.468,35.078 53.668,34.9 53.824,34.656C54.068,34.345 54.18,33.967 54.291,33.656C54.402,33.389 54.557,33.122 54.668,32.856C54.757,32.589 54.802,32.278 54.891,32.011C54.98,31.745 55.113,31.478 55.202,31.189C55.313,30.922 55.335,30.611 55.424,30.345C55.491,30.1 55.624,29.878 55.713,29.633C55.78,29.389 55.802,29.122 55.891,28.878C55.98,28.633 56.113,28.411 56.202,28.167C56.291,27.922 56.38,27.678 56.468,27.433L56.668,26.922C56.757,26.656 56.868,26.433 56.957,26.167C57.068,25.922 57.135,25.678 57.246,25.433C57.357,25.189 57.491,24.945 57.624,24.722C57.846,24.322 58.091,24.056 58.38,23.856C58.624,23.7 58.802,23.7 59.024,23.9C59.268,24.145 59.38,24.478 59.446,24.878C59.468,25.033 59.424,25.033 59.446,25.189C59.491,25.5 59.513,25.789 59.535,26.078C59.557,26.389 59.624,26.678 59.624,26.989L59.624,28.545C59.624,28.811 59.602,29.078 59.602,29.345C59.602,29.611 59.58,29.856 59.58,30.122C59.58,30.389 59.646,30.656 59.646,30.9L59.646,31.7C59.646,31.945 59.668,32.211 59.668,32.478C59.668,32.767 59.624,33.033 59.646,33.322C59.668,33.589 59.735,33.878 59.78,34.145C59.846,34.456 59.957,34.722 60.135,34.922C60.313,35.122 60.58,35.278 60.868,35.367C61.024,35.411 61.157,35.478 61.313,35.478Z" style="fill:white;fill-rule:nonzero;stroke:white;stroke-width:1.39px;"/>
        <path d="M83.535,26.189C83.535,26.011 83.491,25.833 83.491,25.678C83.468,25.367 83.468,25.078 83.424,24.789C83.38,24.5 83.357,24.211 83.291,23.922C83.224,23.633 83.18,23.345 83.091,23.078C83.002,22.789 82.891,22.522 82.757,22.256C82.646,21.989 82.513,21.722 82.38,21.456C82.246,21.211 82.091,20.989 81.935,20.767C81.78,20.545 81.646,20.3 81.468,20.1C81.291,19.878 81.091,19.7 80.891,19.5C80.691,19.322 80.513,19.122 80.291,18.945C80.091,18.767 79.891,18.589 79.668,18.433C79.446,18.278 79.18,18.167 78.935,18.033C78.713,17.9 78.446,17.811 78.202,17.7C77.935,17.589 77.713,17.433 77.446,17.345C77.202,17.256 76.913,17.211 76.646,17.145C76.38,17.078 76.091,17.033 75.824,16.989C75.535,16.945 75.246,16.9 74.957,16.878C74.691,16.833 74.402,16.745 74.113,16.722C73.824,16.722 73.535,16.745 73.268,16.745C72.98,16.767 72.691,16.811 72.402,16.856C72.135,16.878 71.824,16.856 71.557,16.922C71.268,16.967 70.98,17.011 70.713,17.078C70.424,17.145 70.157,17.256 69.891,17.345C69.624,17.456 69.335,17.522 69.091,17.656C68.824,17.767 68.58,17.922 68.335,18.056C68.091,18.211 67.846,18.389 67.624,18.545C67.38,18.722 67.113,18.878 66.891,19.056C66.668,19.256 66.446,19.478 66.246,19.7C66.046,19.9 65.891,20.167 65.713,20.411C65.535,20.633 65.291,20.833 65.135,21.1C64.98,21.345 64.891,21.633 64.78,21.9C64.646,22.167 64.535,22.456 64.446,22.745C64.335,23.011 64.246,23.3 64.18,23.589C64.113,23.878 63.98,24.145 63.935,24.456C63.891,24.7 63.868,24.945 63.846,25.211C63.824,25.456 63.824,25.722 63.824,25.989C63.802,26.233 63.802,26.478 63.802,26.745C63.802,26.989 63.846,27.256 63.868,27.522C63.891,27.811 63.913,28.1 63.957,28.367C64.002,28.656 64.091,28.945 64.157,29.211C64.224,29.5 64.313,29.789 64.402,30.056C64.513,30.322 64.602,30.589 64.713,30.856C64.846,31.122 64.98,31.367 65.135,31.611C65.291,31.878 65.446,32.122 65.624,32.345C65.802,32.589 66.024,32.789 66.224,32.989C66.424,33.211 66.58,33.456 66.802,33.656C67.002,33.856 67.268,33.989 67.513,34.167L68.246,34.633C68.513,34.767 68.735,34.967 69.002,35.078C69.268,35.189 69.557,35.278 69.824,35.367C70.091,35.456 70.38,35.522 70.668,35.589C70.913,35.656 71.157,35.722 71.424,35.767C71.668,35.811 71.913,35.833 72.18,35.856L72.935,35.922C73.18,35.945 73.424,35.945 73.691,35.945C74.091,35.945 74.491,35.945 74.891,35.9C75.202,35.878 75.491,35.856 75.78,35.811C76.091,35.745 76.38,35.656 76.646,35.589C76.957,35.522 77.246,35.478 77.535,35.389C77.824,35.3 78.113,35.189 78.38,35.078C78.646,34.945 78.913,34.811 79.18,34.656C79.424,34.5 79.668,34.3 79.891,34.122C80.135,33.945 80.38,33.767 80.602,33.567C80.802,33.411 80.957,33.189 81.135,33.011C81.313,32.833 81.468,32.611 81.624,32.411C81.78,32.211 81.913,32.011 82.046,31.789C82.202,31.589 82.313,31.367 82.424,31.122C82.557,30.878 82.713,30.656 82.824,30.411C82.913,30.167 82.98,29.9 83.068,29.656C83.135,29.389 83.246,29.145 83.291,28.878C83.357,28.611 83.424,28.345 83.468,28.078C83.491,27.811 83.513,27.545 83.513,27.278C83.535,27.011 83.557,26.722 83.535,26.456L83.535,26.189ZM79.757,28.789C79.646,29.078 79.557,29.389 79.424,29.656C79.268,29.945 79.113,30.211 78.935,30.456C78.757,30.7 78.557,30.945 78.335,31.167C78.135,31.389 77.891,31.567 77.646,31.767C77.402,31.945 77.135,32.122 76.868,32.278C76.602,32.433 76.313,32.545 76.024,32.656C75.735,32.767 75.446,32.856 75.135,32.922C74.846,32.989 74.535,33.011 74.246,33.033C73.935,33.056 73.624,33.1 73.335,33.078C73.024,33.056 72.735,33.011 72.424,32.945C72.135,32.9 71.846,32.789 71.557,32.7C71.268,32.611 70.98,32.522 70.713,32.389C70.468,32.278 70.224,32.189 70.002,32.033C69.78,31.9 69.624,31.678 69.424,31.5C69.224,31.322 69.002,31.189 68.846,30.967C68.668,30.789 68.491,30.589 68.357,30.345C68.18,30.1 68.046,29.833 67.913,29.567C67.78,29.3 67.713,28.989 67.624,28.7C67.513,28.411 67.424,28.145 67.357,27.856C67.291,27.567 67.202,27.278 67.18,26.967C67.157,26.678 67.202,26.367 67.202,26.078C67.224,25.767 67.268,25.478 67.313,25.189C67.38,24.9 67.424,24.589 67.513,24.3C67.602,24.033 67.735,23.745 67.868,23.478C67.98,23.211 68.113,22.945 68.246,22.678C68.402,22.389 68.557,22.122 68.757,21.9C68.935,21.656 69.18,21.478 69.402,21.278C69.624,21.078 69.868,20.878 70.113,20.7C70.38,20.545 70.624,20.367 70.913,20.233C71.18,20.122 71.491,20.1 71.802,20.011C72.068,19.945 72.335,19.811 72.646,19.745C72.935,19.7 73.224,19.656 73.535,19.656C73.557,19.656 73.602,19.656 73.646,19.656L73.646,19.722C73.935,19.722 74.202,19.745 74.468,19.767C74.757,19.811 75.024,19.833 75.291,19.9C75.557,19.945 75.802,20.056 76.068,20.145C76.335,20.233 76.58,20.322 76.824,20.456C77.068,20.589 77.291,20.745 77.513,20.9C77.735,21.056 77.957,21.233 78.157,21.433C78.357,21.611 78.513,21.811 78.691,22.011C78.846,22.211 78.98,22.433 79.113,22.656C79.246,22.878 79.38,23.122 79.491,23.345L79.757,24.1C79.824,24.345 79.957,24.567 80.002,24.833C80.068,25.1 80.046,25.367 80.091,25.633C80.113,25.9 80.202,26.167 80.202,26.433C80.202,26.7 80.202,26.967 80.157,27.233C80.135,27.5 80.024,27.745 79.957,28.011C79.891,28.278 79.846,28.522 79.757,28.789Z" style="fill:white;fill-rule:nonzero;stroke:white;stroke-width:1.39px;"/>
        <path d="M104.157,26.189C104.157,26.011 104.113,25.833 104.113,25.678C104.091,25.367 104.091,25.078 104.046,24.789C104.002,24.5 103.98,24.211 103.913,23.922C103.846,23.633 103.802,23.345 103.713,23.078C103.624,22.789 103.513,22.522 103.38,22.256C103.268,21.989 103.135,21.722 103.002,21.456C102.868,21.211 102.713,20.989 102.557,20.767C102.402,20.545 102.268,20.3 102.091,20.1C101.913,19.878 101.713,19.7 101.513,19.5C101.313,19.322 101.135,19.122 100.913,18.945C100.713,18.767 100.513,18.589 100.291,18.433C100.068,18.278 99.802,18.167 99.557,18.033C99.335,17.9 99.068,17.811 98.824,17.7C98.557,17.589 98.335,17.433 98.068,17.345C97.824,17.256 97.535,17.211 97.268,17.145C97.002,17.078 96.713,17.033 96.446,16.989C96.157,16.945 95.868,16.9 95.58,16.878C95.313,16.833 95.024,16.745 94.735,16.722C94.446,16.722 94.157,16.745 93.891,16.745C93.602,16.767 93.313,16.811 93.024,16.856C92.757,16.878 92.446,16.856 92.18,16.922C91.891,16.967 91.602,17.011 91.335,17.078C91.046,17.145 90.78,17.256 90.513,17.345C90.246,17.456 89.957,17.522 89.713,17.656C89.446,17.767 89.202,17.922 88.957,18.056C88.713,18.211 88.468,18.389 88.246,18.545C88.002,18.722 87.735,18.878 87.513,19.056C87.291,19.256 87.068,19.478 86.868,19.7C86.668,19.9 86.513,20.167 86.335,20.411C86.157,20.633 85.913,20.833 85.757,21.1C85.602,21.345 85.513,21.633 85.402,21.9C85.268,22.167 85.157,22.456 85.068,22.745C84.957,23.011 84.868,23.3 84.802,23.589C84.735,23.878 84.602,24.145 84.557,24.456C84.513,24.7 84.491,24.945 84.468,25.211C84.446,25.456 84.446,25.722 84.446,25.989C84.424,26.233 84.424,26.478 84.424,26.745C84.424,26.989 84.468,27.256 84.491,27.522C84.513,27.811 84.535,28.1 84.58,28.367C84.624,28.656 84.713,28.945 84.78,29.211C84.846,29.5 84.935,29.789 85.024,30.056C85.135,30.322 85.224,30.589 85.335,30.856C85.468,31.122 85.602,31.367 85.757,31.611C85.913,31.878 86.068,32.122 86.246,32.345C86.424,32.589 86.646,32.789 86.846,32.989C87.046,33.211 87.202,33.456 87.424,33.656C87.624,33.856 87.891,33.989 88.135,34.167L88.868,34.633C89.135,34.767 89.357,34.967 89.624,35.078C89.891,35.189 90.18,35.278 90.446,35.367C90.713,35.456 91.002,35.522 91.291,35.589C91.535,35.656 91.78,35.722 92.046,35.767C92.291,35.811 92.535,35.833 92.802,35.856L93.557,35.922C93.802,35.945 94.046,35.945 94.313,35.945C94.713,35.945 95.113,35.945 95.513,35.9C95.824,35.878 96.113,35.856 96.402,35.811C96.713,35.745 97.002,35.656 97.268,35.589C97.58,35.522 97.868,35.478 98.157,35.389C98.446,35.3 98.735,35.189 99.002,35.078C99.268,34.945 99.535,34.811 99.802,34.656C100.046,34.5 100.291,34.3 100.513,34.122C100.757,33.945 101.002,33.767 101.224,33.567C101.424,33.411 101.58,33.189 101.757,33.011C101.935,32.833 102.091,32.611 102.246,32.411C102.402,32.211 102.535,32.011 102.668,31.789C102.824,31.589 102.935,31.367 103.046,31.122C103.18,30.878 103.335,30.656 103.446,30.411C103.535,30.167 103.602,29.9 103.691,29.656C103.757,29.389 103.868,29.145 103.913,28.878C103.98,28.611 104.046,28.345 104.091,28.078C104.113,27.811 104.135,27.545 104.135,27.278C104.157,27.011 104.18,26.722 104.157,26.456L104.157,26.189ZM100.38,28.789C100.268,29.078 100.18,29.389 100.046,29.656C99.891,29.945 99.735,30.211 99.557,30.456C99.38,30.7 99.18,30.945 98.957,31.167C98.757,31.389 98.513,31.567 98.268,31.767C98.024,31.945 97.757,32.122 97.491,32.278C97.224,32.433 96.935,32.545 96.646,32.656C96.357,32.767 96.068,32.856 95.757,32.922C95.468,32.989 95.157,33.011 94.868,33.033C94.557,33.056 94.246,33.1 93.957,33.078C93.646,33.056 93.357,33.011 93.046,32.945C92.757,32.9 92.468,32.789 92.18,32.7C91.891,32.611 91.602,32.522 91.335,32.389C91.091,32.278 90.846,32.189 90.624,32.033C90.402,31.9 90.246,31.678 90.046,31.5C89.846,31.322 89.624,31.189 89.468,30.967C89.291,30.789 89.113,30.589 88.98,30.345C88.802,30.1 88.668,29.833 88.535,29.567C88.402,29.3 88.335,28.989 88.246,28.7C88.135,28.411 88.046,28.145 87.98,27.856C87.913,27.567 87.824,27.278 87.802,26.967C87.78,26.678 87.824,26.367 87.824,26.078C87.846,25.767 87.891,25.478 87.935,25.189C88.002,24.9 88.046,24.589 88.135,24.3C88.224,24.033 88.357,23.745 88.491,23.478C88.602,23.211 88.735,22.945 88.868,22.678C89.024,22.389 89.18,22.122 89.38,21.9C89.557,21.656 89.802,21.478 90.024,21.278C90.246,21.078 90.491,20.878 90.735,20.7C91.002,20.545 91.246,20.367 91.535,20.233C91.802,20.122 92.113,20.1 92.424,20.011C92.691,19.945 92.957,19.811 93.268,19.745C93.557,19.7 93.846,19.656 94.157,19.656C94.18,19.656 94.224,19.656 94.268,19.656L94.268,19.722C94.557,19.722 94.824,19.745 95.091,19.767C95.38,19.811 95.646,19.833 95.913,19.9C96.18,19.945 96.424,20.056 96.691,20.145C96.957,20.233 97.202,20.322 97.446,20.456C97.691,20.589 97.913,20.745 98.135,20.9C98.357,21.056 98.58,21.233 98.78,21.433C98.98,21.611 99.135,21.811 99.313,22.011C99.468,22.211 99.602,22.433 99.735,22.656C99.868,22.878 100.002,23.122 100.113,23.345L100.38,24.1C100.446,24.345 100.58,24.567 100.624,24.833C100.691,25.1 100.668,25.367 100.713,25.633C100.735,25.9 100.824,26.167 100.824,26.433C100.824,26.7 100.824,26.967 100.78,27.233C100.757,27.5 100.646,27.745 100.58,28.011C100.513,28.278 100.468,28.522 100.38,28.789Z" style="fill:white;fill-rule:nonzero;stroke:white;stroke-width:1.39px;"/>
        <path d="M105.046,32.967C105.046,33.322 105.091,33.678 105.157,34.033C105.202,34.322 105.313,34.567 105.446,34.789C105.58,35.033 105.735,35.256 105.98,35.389C106.18,35.545 106.446,35.633 106.735,35.7C106.957,35.745 107.202,35.745 107.402,35.745C107.668,35.745 107.957,35.678 108.224,35.678C108.491,35.678 108.757,35.745 109.024,35.745C109.357,35.745 109.713,35.7 110.046,35.7L111.046,35.7C111.38,35.7 111.713,35.745 112.024,35.722C112.357,35.7 112.691,35.633 113.024,35.589C113.313,35.545 113.602,35.522 113.868,35.456C114.157,35.411 114.446,35.389 114.735,35.322C115.002,35.256 115.291,35.167 115.557,35.078C115.846,34.989 116.091,34.811 116.335,34.7C116.624,34.589 116.868,34.478 117.135,34.345C117.38,34.211 117.646,34.1 117.891,33.945C118.157,33.789 118.38,33.589 118.602,33.389C118.846,33.211 119.068,33.011 119.291,32.811C119.491,32.611 119.735,32.433 119.935,32.189C120.135,31.967 120.291,31.722 120.468,31.478C120.624,31.211 120.78,30.967 120.913,30.7C121.046,30.433 121.135,30.145 121.246,29.856C121.357,29.589 121.446,29.3 121.535,29.011C121.602,28.722 121.691,28.433 121.735,28.145C121.78,27.878 121.757,27.633 121.757,27.367C121.78,27.122 121.757,26.878 121.757,26.611C121.735,26.367 121.78,26.1 121.757,25.856L121.757,25.678C121.735,25.389 121.713,25.1 121.668,24.833C121.624,24.545 121.58,24.256 121.513,23.989C121.446,23.7 121.38,23.433 121.291,23.167C121.202,22.9 121.091,22.633 120.98,22.367C120.846,22.122 120.668,21.878 120.535,21.633C120.38,21.411 120.246,21.145 120.068,20.922C119.891,20.7 119.691,20.5 119.491,20.3C119.291,20.078 119.113,19.878 118.891,19.7C118.668,19.5 118.402,19.389 118.157,19.233C117.935,19.078 117.691,18.922 117.424,18.789C117.18,18.656 116.935,18.5 116.668,18.389C116.424,18.278 116.18,18.233 115.935,18.145C115.668,18.056 115.424,18.011 115.157,17.967C114.913,17.9 114.646,17.811 114.402,17.767C114.135,17.7 113.868,17.656 113.646,17.611C113.402,17.567 113.18,17.589 112.957,17.589C112.735,17.567 112.513,17.5 112.291,17.478C111.935,17.478 111.58,17.478 111.246,17.433L110.335,17.367C110.024,17.345 109.735,17.367 109.424,17.367C109.113,17.367 108.824,17.389 108.513,17.389C108.291,17.389 108.091,17.367 107.868,17.367C107.513,17.367 107.157,17.389 106.802,17.456L106.646,17.456C106.38,17.5 106.157,17.656 105.957,17.789C105.735,17.922 105.58,18.1 105.446,18.322C105.313,18.522 105.224,18.745 105.18,19.011C105.113,19.389 105.068,19.745 105.068,20.1C105.068,20.411 105.046,20.722 105.046,21.056L105.046,21.989C105.046,22.322 105.113,22.633 105.113,22.945C105.113,23.278 105.091,23.589 105.091,23.9C105.091,24.211 105.068,24.545 105.068,24.856C105.068,25.278 105.046,25.278 105.046,25.7L105.046,26.522C105.046,26.9 105.068,26.9 105.068,27.278L105.068,28.011C105.068,28.278 105.091,28.567 105.091,28.833L105.091,29.656C105.091,29.945 105.068,30.211 105.068,30.478L105.068,32.145C105.068,32.411 105.046,32.678 105.046,32.967ZM108.335,23.256C108.335,22.833 108.357,22.411 108.446,22.011C108.513,21.722 108.624,21.456 108.757,21.233C108.935,21.011 109.157,20.856 109.402,20.722C109.624,20.589 109.868,20.478 110.157,20.456C110.446,20.411 110.735,20.367 111.024,20.367C111.313,20.345 111.58,20.3 111.868,20.3C112.157,20.322 112.446,20.389 112.713,20.433C113.002,20.478 113.291,20.478 113.58,20.545L114.38,20.811C114.646,20.922 114.891,21.078 115.157,21.211C115.424,21.367 115.691,21.478 115.935,21.633C116.18,21.811 116.424,21.989 116.624,22.189C116.846,22.389 117.024,22.633 117.224,22.878C117.402,23.1 117.557,23.345 117.713,23.611C117.846,23.856 118.024,24.122 118.113,24.389C118.224,24.678 118.268,24.967 118.335,25.278C118.38,25.567 118.357,25.856 118.38,26.167C118.402,26.433 118.424,26.722 118.402,26.967C118.402,27.256 118.357,27.522 118.313,27.789C118.268,28.056 118.135,28.3 118.068,28.545C117.98,28.811 117.913,29.056 117.78,29.3C117.668,29.567 117.513,29.811 117.357,30.033C117.202,30.278 117.068,30.522 116.868,30.722C116.668,30.945 116.446,31.122 116.224,31.3C116.002,31.456 115.757,31.589 115.513,31.745C115.291,31.856 115.113,32.011 114.868,32.1C114.668,32.189 114.446,32.3 114.202,32.389C113.98,32.456 113.735,32.478 113.491,32.522C113.18,32.611 112.891,32.678 112.602,32.722C112.268,32.767 111.98,32.789 111.668,32.811C111.357,32.833 111.046,32.833 110.757,32.811C110.38,32.789 110.068,32.722 109.78,32.611C109.468,32.5 109.202,32.3 108.98,32.056C108.757,31.833 108.557,31.589 108.446,31.278C108.357,30.989 108.335,30.678 108.335,30.322C108.313,30.056 108.313,29.811 108.313,29.545C108.291,29.3 108.335,29.033 108.335,28.789C108.335,28.567 108.291,28.367 108.268,28.167C108.268,27.811 108.291,27.433 108.291,27.078C108.291,27.056 108.313,27.056 108.313,27.033C108.313,26.678 108.291,26.678 108.291,26.322C108.291,25.989 108.268,25.989 108.268,25.633C108.268,25.367 108.291,25.1 108.291,24.833C108.291,24.567 108.313,24.322 108.313,24.056C108.313,23.789 108.335,23.522 108.335,23.256Z" style="fill:white;fill-rule:nonzero;stroke:white;stroke-width:1.39px;"/>
        <path d="M129.313,32.967C129.313,33.322 129.357,33.678 129.424,34.033C129.468,34.322 129.58,34.567 129.713,34.789C129.846,35.033 130.002,35.256 130.246,35.389C130.446,35.545 130.713,35.633 131.002,35.7C131.224,35.745 131.468,35.745 131.668,35.745C131.935,35.745 132.224,35.678 132.491,35.678C132.757,35.678 133.024,35.745 133.291,35.745C133.624,35.745 133.98,35.7 134.313,35.7L135.313,35.7C135.646,35.7 135.98,35.745 136.291,35.722C136.624,35.7 136.957,35.633 137.291,35.589C137.58,35.545 137.868,35.522 138.135,35.456C138.424,35.411 138.713,35.389 139.002,35.322C139.268,35.256 139.557,35.167 139.824,35.078C140.113,34.989 140.357,34.811 140.602,34.7C140.891,34.589 141.135,34.478 141.402,34.345C141.646,34.211 141.913,34.1 142.157,33.945C142.424,33.789 142.646,33.589 142.868,33.389C143.113,33.211 143.335,33.011 143.557,32.811C143.757,32.611 144.002,32.433 144.202,32.189C144.402,31.967 144.557,31.722 144.735,31.478C144.891,31.211 145.046,30.967 145.18,30.7C145.313,30.433 145.402,30.145 145.513,29.856C145.624,29.589 145.713,29.3 145.802,29.011C145.868,28.722 145.957,28.433 146.002,28.145C146.046,27.878 146.024,27.633 146.024,27.367C146.046,27.122 146.024,26.878 146.024,26.611C146.002,26.367 146.046,26.1 146.024,25.856L146.024,25.678C146.002,25.389 145.98,25.1 145.935,24.833C145.891,24.545 145.846,24.256 145.78,23.989C145.713,23.7 145.646,23.433 145.557,23.167C145.468,22.9 145.357,22.633 145.246,22.367C145.113,22.122 144.935,21.878 144.802,21.633C144.646,21.411 144.513,21.145 144.335,20.922C144.157,20.7 143.957,20.5 143.757,20.3C143.557,20.078 143.38,19.878 143.157,19.7C142.935,19.5 142.668,19.389 142.424,19.233C142.202,19.078 141.957,18.922 141.691,18.789C141.446,18.656 141.202,18.5 140.935,18.389C140.691,18.278 140.446,18.233 140.202,18.145C139.935,18.056 139.691,18.011 139.424,17.967C139.18,17.9 138.913,17.811 138.668,17.767C138.402,17.7 138.135,17.656 137.913,17.611C137.668,17.567 137.446,17.589 137.224,17.589C137.002,17.567 136.78,17.5 136.557,17.478C136.202,17.478 135.846,17.478 135.513,17.433L134.602,17.367C134.291,17.345 134.002,17.367 133.691,17.367C133.38,17.367 133.091,17.389 132.78,17.389C132.557,17.389 132.357,17.367 132.135,17.367C131.78,17.367 131.424,17.389 131.068,17.456L130.913,17.456C130.646,17.5 130.424,17.656 130.224,17.789C130.002,17.922 129.846,18.1 129.713,18.322C129.58,18.522 129.491,18.745 129.446,19.011C129.38,19.389 129.335,19.745 129.335,20.1C129.335,20.411 129.313,20.722 129.313,21.056L129.313,21.989C129.313,22.322 129.38,22.633 129.38,22.945C129.38,23.278 129.357,23.589 129.357,23.9C129.357,24.211 129.335,24.545 129.335,24.856C129.335,25.278 129.313,25.278 129.313,25.7L129.313,26.522C129.313,26.9 129.335,26.9 129.335,27.278L129.335,28.011C129.335,28.278 129.357,28.567 129.357,28.833L129.357,29.656C129.357,29.945 129.335,30.211 129.335,30.478L129.335,32.145C129.335,32.411 129.313,32.678 129.313,32.967ZM132.602,23.256C132.602,22.833 132.624,22.411 132.713,22.011C132.78,21.722 132.891,21.456 133.024,21.233C133.202,21.011 133.424,20.856 133.668,20.722C133.891,20.589 134.135,20.478 134.424,20.456C134.713,20.411 135.002,20.367 135.291,20.367C135.58,20.345 135.846,20.3 136.135,20.3C136.424,20.322 136.713,20.389 136.98,20.433C137.268,20.478 137.557,20.478 137.846,20.545L138.646,20.811C138.913,20.922 139.157,21.078 139.424,21.211C139.691,21.367 139.957,21.478 140.202,21.633C140.446,21.811 140.691,21.989 140.891,22.189C141.113,22.389 141.291,22.633 141.491,22.878C141.668,23.1 141.824,23.345 141.98,23.611C142.113,23.856 142.291,24.122 142.38,24.389C142.491,24.678 142.535,24.967 142.602,25.278C142.646,25.567 142.624,25.856 142.646,26.167C142.668,26.433 142.691,26.722 142.668,26.967C142.668,27.256 142.624,27.522 142.58,27.789C142.535,28.056 142.402,28.3 142.335,28.545C142.246,28.811 142.18,29.056 142.046,29.3C141.935,29.567 141.78,29.811 141.624,30.033C141.468,30.278 141.335,30.522 141.135,30.722C140.935,30.945 140.713,31.122 140.491,31.3C140.268,31.456 140.024,31.589 139.78,31.745C139.557,31.856 139.38,32.011 139.135,32.1C138.935,32.189 138.713,32.3 138.468,32.389C138.246,32.456 138.002,32.478 137.757,32.522C137.446,32.611 137.157,32.678 136.868,32.722C136.535,32.767 136.246,32.789 135.935,32.811C135.624,32.833 135.313,32.833 135.024,32.811C134.646,32.789 134.335,32.722 134.046,32.611C133.735,32.5 133.468,32.3 133.246,32.056C133.024,31.833 132.824,31.589 132.713,31.278C132.624,30.989 132.602,30.678 132.602,30.322C132.58,30.056 132.58,29.811 132.58,29.545C132.557,29.3 132.602,29.033 132.602,28.789C132.602,28.567 132.557,28.367 132.535,28.167C132.535,27.811 132.557,27.433 132.557,27.078C132.557,27.056 132.58,27.056 132.58,27.033C132.58,26.678 132.557,26.678 132.557,26.322C132.557,25.989 132.535,25.989 132.535,25.633C132.535,25.367 132.557,25.1 132.557,24.833C132.557,24.567 132.58,24.322 132.58,24.056C132.58,23.789 132.602,23.522 132.602,23.256Z" style="fill:white;fill-rule:nonzero;stroke:white;stroke-width:1.39px;"/>
        <path d="M148.713,25.011C148.713,25.522 148.757,25.522 148.757,26.033C148.757,26.545 148.713,26.545 148.713,27.033C148.713,27.345 148.735,27.633 148.735,27.945C148.735,28.233 148.757,28.545 148.757,28.856L148.757,30.656C148.757,30.945 148.78,31.256 148.78,31.545C148.78,31.856 148.735,32.145 148.735,32.456C148.735,32.767 148.78,33.056 148.802,33.322C148.824,33.633 148.824,33.945 148.868,34.211C148.957,34.545 149.157,34.767 149.38,34.967C149.58,35.167 149.824,35.322 150.157,35.367C150.246,35.389 150.335,35.433 150.424,35.433C150.802,35.433 151.113,35.3 151.38,35.056C151.624,34.856 151.757,34.545 151.846,34.167C151.913,33.811 151.98,33.478 151.98,33.145L151.98,32.322C151.98,32.056 151.935,31.767 151.935,31.5C151.935,31.211 151.957,30.945 151.957,30.656C151.957,30.389 151.913,30.1 151.913,29.833L151.913,29.011C151.913,28.722 151.957,28.456 151.957,28.167C151.957,27.789 152.002,27.789 152.002,27.411L152.002,26.656C152.002,26.256 151.98,26.256 151.98,25.878C151.98,25.5 151.957,25.5 151.957,25.122C151.957,24.789 151.935,24.478 151.935,24.145C151.935,23.833 151.913,23.5 151.913,23.167C151.913,22.856 151.957,22.522 151.957,22.211C151.957,21.878 151.913,21.545 151.913,21.233C151.913,20.945 151.98,20.678 151.98,20.389C151.98,20.122 151.957,19.833 151.957,19.567C151.957,19.233 151.891,18.789 151.646,18.367C151.446,18.011 151.091,17.767 150.668,17.678C150.268,17.589 149.824,17.678 149.491,17.945C149.157,18.211 148.913,18.545 148.846,18.967C148.846,19.1 148.891,19.1 148.868,19.233L148.802,19.945C148.78,20.189 148.691,20.433 148.691,20.678C148.691,20.945 148.713,21.189 148.713,21.456L148.713,22.989C148.713,23.233 148.757,23.5 148.757,23.745C148.735,24.389 148.713,24.389 148.713,25.011Z" style="fill:white;fill-rule:nonzero;stroke:white;stroke-width:1.39px;"/>
        <path d="M170.646,33.367C170.557,33.122 170.446,32.878 170.357,32.656C170.246,32.389 170.046,32.145 169.913,31.878C169.802,31.633 169.713,31.389 169.624,31.167C169.513,30.922 169.402,30.7 169.313,30.456C169.202,30.189 169.135,29.878 169.024,29.611C168.913,29.322 168.757,29.078 168.624,28.789L168.291,27.967C168.157,27.7 168.024,27.456 167.913,27.189C167.78,26.922 167.691,26.656 167.58,26.389C167.468,26.145 167.38,25.878 167.268,25.611C167.18,25.367 167.046,25.1 166.935,24.856C166.824,24.589 166.735,24.322 166.624,24.078C166.513,23.811 166.38,23.567 166.268,23.322C166.157,23.056 166.113,22.789 166.002,22.522C165.891,22.278 165.757,22.033 165.646,21.767C165.535,21.545 165.446,21.3 165.335,21.078C165.246,20.833 165.091,20.633 165.002,20.389L164.668,19.7C164.557,19.433 164.468,19.167 164.335,18.945C164.18,18.7 164.024,18.478 163.846,18.278C163.646,18.056 163.38,17.922 163.135,17.789C162.891,17.656 162.624,17.567 162.313,17.545C162.024,17.545 161.735,17.567 161.468,17.678C161.202,17.789 160.957,17.945 160.735,18.167C160.468,18.433 160.246,18.789 160.068,19.189C159.957,19.433 159.868,19.678 159.757,19.922L159.402,20.656C159.313,20.878 159.224,21.1 159.113,21.3C159.024,21.522 158.957,21.767 158.868,21.967C158.757,22.211 158.668,22.456 158.557,22.7C158.468,22.922 158.357,23.167 158.246,23.389C158.135,23.633 158.024,23.856 157.935,24.1C157.824,24.322 157.757,24.522 157.668,24.745C157.557,24.945 157.468,25.167 157.38,25.367C157.268,25.589 157.113,25.811 157.002,26.056C156.913,26.278 156.846,26.545 156.735,26.789C156.646,27.011 156.491,27.233 156.402,27.478C156.313,27.745 156.202,28.011 156.091,28.256C155.98,28.522 155.913,28.811 155.802,29.078L155.446,29.833C155.335,30.1 155.18,30.345 155.068,30.611C154.935,30.9 154.868,31.211 154.735,31.5C154.602,31.811 154.446,32.078 154.313,32.367C154.224,32.611 154.113,32.856 154.024,33.1C153.935,33.345 153.891,33.611 153.824,33.878C153.757,34.122 153.757,34.367 153.824,34.589C153.868,34.811 153.957,35.033 154.135,35.211C154.335,35.367 154.557,35.5 154.802,35.545C155.046,35.567 155.291,35.522 155.557,35.433C155.802,35.367 156.046,35.3 156.224,35.167C156.424,35.011 156.624,34.833 156.735,34.633C156.868,34.433 157.002,34.233 157.135,33.989C157.246,33.811 157.291,33.567 157.424,33.322C157.557,33.078 157.78,32.9 157.935,32.722C158.113,32.5 158.291,32.322 158.513,32.167C158.713,32.033 158.957,31.922 159.224,31.856C159.468,31.767 159.713,31.678 159.98,31.656C160.268,31.656 160.58,31.611 160.868,31.611C161.157,31.589 161.446,31.678 161.757,31.656C162.046,31.656 162.335,31.589 162.624,31.589C162.935,31.589 163.224,31.656 163.513,31.678C163.802,31.678 164.113,31.7 164.402,31.7C164.735,31.722 165.024,31.811 165.313,31.922C165.602,32.033 165.913,32.122 166.157,32.322C166.38,32.522 166.58,32.789 166.757,33.056L166.757,33.1C166.935,33.367 167.068,33.633 167.202,33.9C167.313,34.167 167.446,34.389 167.602,34.567C167.78,34.789 168.024,34.922 168.202,35.078C168.38,35.233 168.513,35.411 168.713,35.478C168.935,35.567 169.157,35.567 169.38,35.567C169.424,35.567 169.468,35.611 169.491,35.589C169.891,35.567 170.202,35.389 170.424,35.145C170.646,34.9 170.757,34.567 170.757,34.167C170.757,34.145 170.802,34.145 170.802,34.122C170.78,33.878 170.713,33.611 170.646,33.367ZM164.224,27.411C164.224,27.767 164.202,28.056 164.046,28.278C163.891,28.522 163.646,28.678 163.313,28.811C162.957,28.989 162.535,29.078 162.135,29.056L162.135,29.011C162.135,29.011 162.135,29.078 162.113,29.078C161.691,29.078 161.357,29.011 161.068,28.878C160.691,28.745 160.38,28.545 160.202,28.278C160.024,27.989 159.935,27.633 159.935,27.233C159.935,26.945 160.002,26.633 160.091,26.3C160.18,26.011 160.268,25.722 160.402,25.411C160.535,25.167 160.668,24.922 160.824,24.678C160.957,24.456 161.091,24.211 161.291,24.011C161.602,23.7 161.935,23.7 162.18,23.722C162.513,23.745 162.802,23.878 163.002,24.145C163.224,24.433 163.402,24.722 163.557,25.011C163.735,25.322 163.913,25.611 164.024,25.945C164.113,26.211 164.18,26.433 164.224,26.656C164.268,26.922 164.224,27.167 164.224,27.411Z" style="fill:white;fill-rule:nonzero;stroke:white;stroke-width:1.39px;"/>
        <path d="M171.802,31.9C171.957,32.145 172.135,32.367 172.291,32.589C172.468,32.811 172.646,33.033 172.846,33.256C173.046,33.456 173.268,33.656 173.468,33.833C173.691,34.033 173.891,34.233 174.113,34.411C174.357,34.567 174.602,34.7 174.868,34.856C175.113,34.989 175.357,35.122 175.624,35.233C175.891,35.345 176.135,35.478 176.424,35.589C176.691,35.678 176.98,35.7 177.268,35.767C177.535,35.833 177.802,35.922 178.091,35.967C178.357,36.011 178.646,36.056 178.913,36.078C179.18,36.1 179.468,36.1 179.735,36.122C180.002,36.145 180.291,36.167 180.557,36.167C180.846,36.167 181.157,36.145 181.446,36.122C181.735,36.1 182.024,36.122 182.335,36.078C182.624,36.056 182.913,36.011 183.202,35.967C183.491,35.922 183.802,35.878 184.091,35.811C184.38,35.745 184.668,35.7 184.957,35.633C185.224,35.545 185.513,35.433 185.802,35.345C186.068,35.256 186.335,35.189 186.535,35.056C186.78,34.922 186.957,34.7 187.113,34.5C187.291,34.3 187.468,34.1 187.58,33.856C187.668,33.611 187.691,33.345 187.735,33.078C187.78,32.745 187.868,32.389 187.868,32.078C187.891,31.722 187.824,31.367 187.824,31.056C187.824,30.789 187.891,30.522 187.891,30.278C187.891,30.278 187.824,30.278 187.824,30.256L187.824,29.656C187.824,29.256 187.846,28.9 187.846,28.545C187.846,28.256 187.868,27.967 187.824,27.7C187.802,27.411 187.713,27.145 187.691,26.878C187.624,26.522 187.535,26.211 187.313,25.967C187.113,25.722 186.824,25.522 186.491,25.411C186.224,25.322 185.957,25.322 185.691,25.3C185.335,25.3 184.98,25.278 184.624,25.278L183.557,25.278C183.491,25.278 183.491,25.322 183.446,25.322C183.135,25.322 182.868,25.389 182.58,25.5C182.335,25.611 182.113,25.7 181.957,25.878C181.802,26.078 181.668,26.322 181.646,26.567C181.602,26.811 181.646,27.078 181.757,27.3C181.868,27.522 182.068,27.678 182.268,27.833C182.402,27.922 182.513,28.011 182.646,28.078C182.802,28.167 182.957,28.278 183.135,28.367C183.313,28.456 183.335,28.367 183.513,28.456C183.98,28.7 184.246,29.011 184.402,29.367C184.535,29.678 184.624,29.989 184.646,30.3C184.668,30.611 184.58,30.922 184.468,31.233C184.357,31.545 184.246,31.856 184.046,32.1C183.824,32.322 183.535,32.522 183.246,32.656C182.98,32.789 182.668,32.856 182.402,32.945C182.113,33.033 181.824,33.145 181.535,33.189C181.246,33.256 180.935,33.233 180.646,33.233C180.357,33.233 180.046,33.256 179.757,33.211C179.468,33.189 179.157,33.167 178.868,33.1C178.535,33.033 178.246,32.922 177.957,32.811C177.646,32.7 177.335,32.611 177.068,32.456C176.78,32.3 176.491,32.145 176.246,31.945C176.002,31.767 175.757,31.522 175.535,31.3C175.313,31.056 175.113,30.811 174.935,30.567C174.757,30.3 174.602,30.011 174.468,29.745C174.335,29.456 174.18,29.189 174.091,28.878C174.002,28.611 173.957,28.322 173.891,28.056C173.846,27.767 173.802,27.5 173.78,27.211C173.735,26.945 173.735,26.656 173.735,26.367C173.757,26.1 173.735,25.811 173.78,25.522C173.824,25.256 173.891,24.967 173.957,24.7C174.046,24.389 174.18,24.1 174.313,23.811C174.424,23.522 174.58,23.256 174.735,22.967C174.891,22.7 175.046,22.433 175.224,22.189C175.424,21.945 175.646,21.7 175.868,21.478C176.091,21.278 176.357,21.145 176.58,20.989C176.824,20.811 177.046,20.611 177.291,20.478C177.557,20.367 177.846,20.278 178.113,20.189C178.38,20.1 178.668,19.989 178.957,19.945C179.224,19.9 179.535,19.9 179.824,19.878C180.113,19.856 180.402,19.833 180.691,19.833C181.002,19.856 181.291,19.945 181.58,19.989C181.891,20.056 182.18,20.078 182.468,20.167C182.757,20.278 183.024,20.389 183.313,20.456C183.491,20.522 183.491,20.478 183.668,20.545C184.068,20.656 184.424,20.656 184.78,20.611C185.091,20.567 185.357,20.5 185.58,20.322C185.78,20.145 185.957,19.9 186.046,19.611C186.135,19.322 186.157,19.033 186.046,18.767C185.957,18.5 185.78,18.256 185.535,18.078C185.335,17.922 185.091,17.856 184.868,17.745C184.513,17.567 184.135,17.367 183.691,17.278C183.402,17.211 183.113,17.233 182.824,17.189C182.535,17.145 182.246,17.1 181.957,17.078C181.668,17.056 181.38,17.011 181.091,16.989C180.802,16.989 180.513,16.967 180.202,16.967C179.913,16.967 179.624,17.033 179.335,17.033C179.068,17.056 178.802,17.056 178.535,17.1C178.268,17.122 178.002,17.167 177.735,17.211C177.468,17.278 177.224,17.367 176.957,17.433C176.713,17.522 176.446,17.567 176.18,17.656C175.935,17.745 175.691,17.833 175.446,17.945C175.202,18.078 174.957,18.211 174.735,18.345C174.468,18.5 174.224,18.633 173.98,18.789L173.291,19.322C173.068,19.522 172.868,19.722 172.668,19.945C172.468,20.145 172.313,20.389 172.135,20.633C171.957,20.856 171.802,21.1 171.646,21.345C171.491,21.589 171.357,21.856 171.246,22.122C171.113,22.389 171.002,22.656 170.891,22.922C170.802,23.211 170.78,23.5 170.713,23.789C170.624,24.056 170.491,24.322 170.446,24.611C170.402,24.9 170.402,25.189 170.38,25.478C170.357,25.767 170.357,26.056 170.357,26.345C170.357,26.633 170.357,26.922 170.38,27.233C170.402,27.5 170.446,27.789 170.491,28.078C170.513,28.367 170.557,28.656 170.602,28.945L170.802,29.722C170.891,29.989 170.913,30.256 171.024,30.5C171.113,30.745 171.202,31.011 171.335,31.233C171.446,31.478 171.646,31.678 171.802,31.9Z" style="fill:white;fill-rule:nonzero;stroke:white;stroke-width:1.39px;"/>
        <path d="M204.913,33.789C204.757,33.589 204.557,33.456 204.357,33.322C204.18,33.189 203.98,33.078 203.735,33.011C203.424,32.9 203.113,32.789 202.824,32.656C202.513,32.522 202.246,32.322 201.98,32.167C201.668,32.011 201.38,31.856 201.113,31.633C200.846,31.411 200.58,31.211 200.335,30.945L199.846,30.345C199.691,30.122 199.58,29.9 199.446,29.678C199.313,29.456 199.224,29.211 199.113,28.989C199.024,28.856 198.957,28.722 198.913,28.567C198.868,28.167 199.091,27.789 199.335,27.5C199.58,27.411 199.824,27.322 200.046,27.189C200.313,27.056 200.557,26.967 200.78,26.811C201.024,26.633 201.246,26.478 201.424,26.278C201.624,26.078 201.802,25.878 201.957,25.633C202.113,25.411 202.268,25.167 202.357,24.9C202.468,24.656 202.513,24.367 202.58,24.1C202.646,23.767 202.757,23.456 202.78,23.122C202.78,22.945 202.802,22.767 202.78,22.589C202.78,22.411 202.78,22.211 202.757,22.033C202.735,21.7 202.668,21.367 202.602,21.033C202.535,20.722 202.446,20.411 202.291,20.122C202.157,19.833 202.002,19.545 201.802,19.278C201.602,19.033 201.357,18.833 201.091,18.611C200.802,18.367 200.513,18.167 200.224,18.011C199.891,17.833 199.557,17.7 199.224,17.611C198.935,17.522 198.668,17.433 198.402,17.389C198.113,17.345 197.846,17.367 197.58,17.345C197.291,17.3 197.024,17.233 196.735,17.233L196.691,17.233C196.402,17.233 196.135,17.256 195.846,17.256C195.557,17.256 195.268,17.3 195.002,17.256C194.691,17.233 194.402,17.145 194.113,17.122L193.224,17.122C192.935,17.122 192.624,17.167 192.335,17.167C192.135,17.167 192.135,17.122 191.913,17.122C191.624,17.122 191.357,17.167 191.091,17.233C191.024,17.233 191.046,17.3 190.98,17.322C190.713,17.367 190.468,17.433 190.246,17.567C190.024,17.7 189.846,17.878 189.713,18.1C189.58,18.322 189.513,18.567 189.446,18.833C189.402,19.078 189.335,19.322 189.313,19.589C189.291,19.833 189.224,20.1 189.224,20.345L189.224,20.433C189.224,20.7 189.246,20.989 189.246,21.278C189.246,21.545 189.224,21.811 189.224,22.1L189.224,22.167C189.224,22.456 189.291,22.722 189.291,23.011C189.291,23.278 189.268,23.567 189.268,23.833C189.268,24.122 189.246,24.411 189.246,24.7C189.246,25.1 189.224,25.1 189.224,25.5L189.224,25.567C189.224,25.945 189.246,25.967 189.246,26.322L189.246,27.167C189.246,27.567 189.291,27.567 189.291,27.967L189.291,29.745C189.291,30.011 189.313,30.3 189.313,30.567C189.313,30.878 189.224,31.167 189.224,31.456L189.224,32.433C189.224,32.745 189.291,33.033 189.313,33.322C189.357,33.633 189.357,33.922 189.446,34.189C189.535,34.522 189.735,34.833 189.98,35.011C190.224,35.211 190.58,35.345 190.913,35.345L190.935,35.256C191.268,35.256 191.557,35.189 191.824,34.989C192.068,34.811 192.291,34.567 192.38,34.256C192.424,34.122 192.468,34.011 192.491,33.9C192.491,33.878 192.491,33.856 192.468,33.833L192.491,33.833L192.491,33.767C192.535,33.456 192.557,33.167 192.557,32.878C192.58,32.567 192.58,32.256 192.58,31.967C192.58,31.789 192.602,31.611 192.602,31.456L192.602,31.433L192.602,31.367C192.602,31.345 192.58,31.345 192.58,31.3C192.58,31.056 192.624,30.811 192.646,30.589C192.646,30.322 192.668,30.056 192.735,29.811C192.802,29.5 192.846,29.211 193.002,28.989C193.157,28.745 193.357,28.545 193.624,28.389C193.846,28.233 194.113,28.145 194.424,28.056L194.468,28.056C195.802,28.122 196.157,29.345 196.157,29.345L196.202,29.322C196.268,29.522 196.313,29.722 196.402,29.922C196.513,30.189 196.691,30.433 196.824,30.7C196.957,30.945 197.068,31.233 197.224,31.478C197.38,31.722 197.557,31.989 197.735,32.211C197.913,32.456 198.157,32.611 198.357,32.833C198.557,33.033 198.735,33.278 198.957,33.456C199.18,33.656 199.402,33.856 199.624,34.033C199.868,34.189 200.113,34.367 200.357,34.5C200.602,34.656 200.891,34.767 201.135,34.878C201.402,35.011 201.668,35.145 201.935,35.233C202.224,35.345 202.491,35.367 202.757,35.433C203.024,35.5 203.291,35.545 203.58,35.545L203.58,35.522L203.668,35.522C204.002,35.522 204.291,35.5 204.557,35.345C204.957,35.122 205.113,34.856 205.157,34.656C205.202,34.456 205.18,34.122 204.913,33.789ZM192.646,22.411C192.668,22.167 192.646,21.9 192.713,21.633C192.802,21.3 192.957,21.056 193.135,20.811C193.313,20.545 193.535,20.322 193.824,20.167C194.091,20.033 194.38,19.922 194.713,19.878C194.868,19.856 195.024,19.856 195.202,19.833C195.291,19.833 195.38,19.856 195.446,19.856C195.757,19.856 196.024,19.833 196.291,19.878C196.58,19.922 196.846,19.989 197.091,20.078C197.357,20.167 197.602,20.3 197.824,20.433C198.068,20.589 198.268,20.745 198.424,20.922C198.624,21.122 198.824,21.278 198.957,21.5C199.068,21.745 199.068,21.989 199.113,22.278C199.113,22.367 199.135,22.456 199.135,22.545C199.135,22.789 199.113,23.011 199.046,23.233C198.957,23.567 198.802,23.878 198.557,24.167C198.38,24.345 198.224,24.5 198.046,24.633C197.868,24.767 197.668,24.9 197.468,24.989C197.18,25.078 196.891,25.145 196.624,25.211C196.313,25.278 196.024,25.345 195.757,25.345C195.446,25.367 195.157,25.367 194.868,25.322C194.58,25.278 194.291,25.233 194.002,25.122C193.713,25.011 193.468,24.833 193.268,24.633C193.068,24.433 192.935,24.189 192.846,23.9C192.757,23.633 192.713,23.389 192.668,23.122C192.646,22.989 192.646,22.878 192.646,22.745L192.646,22.411Z" style="fill:white;fill-rule:nonzero;stroke:white;stroke-width:1.39px;"/>
        <path d="M222.935,33.367C222.846,33.122 222.735,32.878 222.646,32.656C222.535,32.389 222.335,32.145 222.202,31.878C222.091,31.633 222.002,31.389 221.913,31.167C221.802,30.922 221.691,30.7 221.602,30.456C221.491,30.189 221.424,29.878 221.313,29.611C221.202,29.322 221.046,29.078 220.913,28.789L220.58,27.967C220.446,27.7 220.313,27.456 220.202,27.189C220.068,26.922 219.98,26.656 219.868,26.389C219.757,26.145 219.668,25.878 219.557,25.611C219.468,25.367 219.335,25.1 219.224,24.856C219.113,24.589 219.024,24.322 218.913,24.078C218.802,23.811 218.668,23.567 218.557,23.322C218.446,23.056 218.402,22.789 218.291,22.522C218.18,22.278 218.046,22.033 217.935,21.767C217.824,21.545 217.735,21.3 217.624,21.078C217.535,20.833 217.38,20.633 217.291,20.389L216.957,19.7C216.846,19.433 216.757,19.167 216.624,18.945C216.468,18.7 216.313,18.478 216.135,18.278C215.935,18.056 215.668,17.922 215.424,17.789C215.18,17.656 214.913,17.567 214.602,17.545C214.313,17.545 214.024,17.567 213.757,17.678C213.491,17.789 213.246,17.945 213.024,18.167C212.757,18.433 212.535,18.789 212.357,19.189C212.246,19.433 212.157,19.678 212.046,19.922L211.691,20.656C211.602,20.878 211.513,21.1 211.402,21.3C211.313,21.522 211.246,21.767 211.157,21.967C211.046,22.211 210.957,22.456 210.846,22.7C210.757,22.922 210.646,23.167 210.535,23.389C210.424,23.633 210.313,23.856 210.224,24.1C210.113,24.322 210.046,24.522 209.957,24.745C209.846,24.945 209.757,25.167 209.668,25.367C209.557,25.589 209.402,25.811 209.291,26.056C209.202,26.278 209.135,26.545 209.024,26.789C208.935,27.011 208.78,27.233 208.691,27.478C208.602,27.745 208.491,28.011 208.38,28.256C208.268,28.522 208.202,28.811 208.091,29.078L207.735,29.833C207.624,30.1 207.468,30.345 207.357,30.611C207.224,30.9 207.157,31.211 207.024,31.5C206.891,31.811 206.735,32.078 206.602,32.367C206.513,32.611 206.402,32.856 206.313,33.1C206.224,33.345 206.18,33.611 206.113,33.878C206.046,34.122 206.046,34.367 206.113,34.589C206.157,34.811 206.246,35.033 206.424,35.211C206.624,35.367 206.846,35.5 207.091,35.545C207.335,35.567 207.58,35.522 207.846,35.433C208.091,35.367 208.335,35.3 208.513,35.167C208.713,35.011 208.913,34.833 209.024,34.633C209.157,34.433 209.291,34.233 209.424,33.989C209.535,33.811 209.58,33.567 209.713,33.322C209.846,33.078 210.068,32.9 210.224,32.722C210.402,32.5 210.58,32.322 210.802,32.167C211.002,32.033 211.246,31.922 211.513,31.856C211.757,31.767 212.002,31.678 212.268,31.656C212.557,31.656 212.868,31.611 213.157,31.611C213.446,31.589 213.735,31.678 214.046,31.656C214.335,31.656 214.624,31.589 214.913,31.589C215.224,31.589 215.513,31.656 215.802,31.678C216.091,31.678 216.402,31.7 216.691,31.7C217.024,31.722 217.313,31.811 217.602,31.922C217.891,32.033 218.202,32.122 218.446,32.322C218.668,32.522 218.868,32.789 219.046,33.056L219.046,33.1C219.224,33.367 219.357,33.633 219.491,33.9C219.602,34.167 219.735,34.389 219.891,34.567C220.068,34.789 220.313,34.922 220.491,35.078C220.668,35.233 220.802,35.411 221.002,35.478C221.224,35.567 221.446,35.567 221.668,35.567C221.713,35.567 221.757,35.611 221.78,35.589C222.18,35.567 222.491,35.389 222.713,35.145C222.935,34.9 223.046,34.567 223.046,34.167C223.046,34.145 223.091,34.145 223.091,34.122C223.068,33.878 223.002,33.611 222.935,33.367ZM216.513,27.411C216.513,27.767 216.491,28.056 216.335,28.278C216.18,28.522 215.935,28.678 215.602,28.811C215.246,28.989 214.824,29.078 214.424,29.056L214.424,29.011C214.424,29.011 214.424,29.078 214.402,29.078C213.98,29.078 213.646,29.011 213.357,28.878C212.98,28.745 212.668,28.545 212.491,28.278C212.313,27.989 212.224,27.633 212.224,27.233C212.224,26.945 212.291,26.633 212.38,26.3C212.468,26.011 212.557,25.722 212.691,25.411C212.824,25.167 212.957,24.922 213.113,24.678C213.246,24.456 213.38,24.211 213.58,24.011C213.891,23.7 214.224,23.7 214.468,23.722C214.802,23.745 215.091,23.878 215.291,24.145C215.513,24.433 215.691,24.722 215.846,25.011C216.024,25.322 216.202,25.611 216.313,25.945C216.402,26.211 216.468,26.433 216.513,26.656C216.557,26.922 216.513,27.167 216.513,27.411Z" style="fill:white;fill-rule:nonzero;stroke:white;stroke-width:1.39px;"/>
        <path d="M243.357,35.478C243.602,35.478 243.846,35.389 244.068,35.278C244.424,35.056 244.646,34.678 244.757,34.233C244.846,33.9 244.913,33.545 244.913,33.189L244.913,32.367C244.913,32.078 244.868,31.811 244.868,31.522C244.868,31.256 244.913,30.967 244.913,30.678C244.913,30.411 244.891,30.122 244.891,29.856C244.891,29.567 244.868,29.3 244.868,29.011C244.868,28.745 244.846,28.456 244.846,28.167C244.846,27.633 244.913,27.633 244.913,27.078L244.913,26.033C244.913,25.522 244.868,25.522 244.868,24.989L244.868,24.189C244.868,23.9 244.913,23.633 244.913,23.367C244.913,23.1 244.868,22.833 244.868,22.545C244.868,21.433 245.113,20.145 244.824,19.056C244.291,16.945 241.291,16.833 239.757,17.945C239.046,18.456 238.668,19.278 238.402,20.1C238.024,21.233 237.624,22.345 237.246,23.478C237.135,23.767 237.068,24.1 236.957,24.389C236.846,24.745 236.824,24.745 236.691,25.078C236.58,25.433 236.602,25.433 236.468,25.789C236.357,26.145 236.313,26.122 236.202,26.478C236.091,26.789 235.957,27.056 235.824,27.278C235.646,27.545 235.468,27.767 235.246,27.967C235.002,28.189 234.757,28.256 234.513,28.278C234.268,28.278 234.002,28.211 233.78,27.989C233.58,27.833 233.446,27.611 233.313,27.389C233.18,27.189 233.046,26.967 232.957,26.7C232.846,26.433 232.713,26.189 232.624,25.9L232.291,25.1C231.602,23.211 231.068,21.3 230.335,19.433C230.18,19.033 230.002,18.633 229.735,18.3C228.735,17.1 225.891,16.878 224.757,17.989C224.224,18.478 224.046,19.233 224.002,19.967C223.957,20.989 224.024,22.011 224.024,23.011C224.024,23.3 224.046,23.611 224.046,23.9C224.046,24.189 224.068,24.478 224.068,24.767C224.068,25.056 224.046,25.367 224.046,25.656C224.046,25.945 224.024,26.233 224.024,26.522C224.024,26.811 223.98,27.122 223.98,27.411C223.98,27.7 224.068,27.989 224.068,28.278C224.068,28.567 223.98,28.878 223.98,29.167L223.98,30.033C223.98,30.322 224.024,30.633 224.024,30.922C224.024,31.211 224.002,31.5 224.002,31.789C224.002,32.078 224.068,32.389 224.068,32.678C224.068,32.922 224.046,33.189 224.091,33.433C224.113,33.7 224.135,33.945 224.202,34.211C224.291,34.589 224.491,34.878 224.757,35.078C225.046,35.3 225.357,35.456 225.735,35.433C226.113,35.433 226.402,35.256 226.646,35.033C226.891,34.811 227.046,34.522 227.113,34.167C227.18,33.856 227.268,33.545 227.268,33.233C227.268,32.922 227.224,32.611 227.224,32.3C227.224,32.011 227.268,31.7 227.268,31.389C227.268,31.122 227.224,30.833 227.224,30.567C227.224,30.3 227.246,30.011 227.246,29.745C227.246,29.478 227.224,29.189 227.224,28.922C227.224,28.656 227.291,28.367 227.291,28.1C227.291,27.856 227.246,27.611 227.268,27.367C227.268,27.122 227.357,26.9 227.357,26.656L227.424,25.922C227.446,25.656 227.38,25.656 227.402,25.389C227.424,25.145 227.513,24.9 227.58,24.589C227.646,24.278 227.757,23.989 228.002,23.745C228.135,23.611 228.246,23.633 228.38,23.678C228.513,23.745 228.646,23.833 228.757,23.922C229.046,24.167 229.224,24.522 229.402,24.856C229.535,25.1 229.691,25.3 229.802,25.545C229.891,25.789 229.957,26.033 230.046,26.3L230.313,27.033C230.38,27.256 230.402,27.478 230.491,27.7L230.757,28.5C230.846,28.767 231.002,29.011 231.091,29.278C231.18,29.567 231.202,29.856 231.291,30.122C231.38,30.389 231.446,30.678 231.535,30.945C231.602,31.167 231.735,31.367 231.802,31.589C231.868,31.811 231.891,32.056 231.957,32.278C232.068,32.567 232.202,32.856 232.335,33.189C232.446,33.478 232.491,33.811 232.646,34.1C232.757,34.367 232.913,34.589 233.091,34.811C233.268,35.011 233.491,35.167 233.735,35.278C233.957,35.389 234.246,35.478 234.513,35.456C234.78,35.456 235.046,35.345 235.268,35.211C235.513,35.078 235.713,34.9 235.868,34.656C236.113,34.345 236.224,33.967 236.335,33.656C236.446,33.389 236.602,33.122 236.713,32.856C236.802,32.589 236.846,32.278 236.935,32.011C237.024,31.745 237.157,31.478 237.246,31.189C237.357,30.922 237.38,30.611 237.468,30.345C237.535,30.1 237.668,29.878 237.757,29.633C237.824,29.389 237.846,29.122 237.935,28.878C238.024,28.633 238.157,28.411 238.246,28.167C238.335,27.922 238.424,27.678 238.513,27.433L238.713,26.922C238.802,26.656 238.913,26.433 239.002,26.167C239.113,25.922 239.18,25.678 239.291,25.433C239.402,25.189 239.535,24.945 239.668,24.722C239.891,24.322 240.135,24.056 240.424,23.856C240.668,23.7 240.846,23.7 241.068,23.9C241.313,24.145 241.424,24.478 241.491,24.878C241.513,25.033 241.468,25.033 241.491,25.189C241.535,25.5 241.557,25.789 241.58,26.078C241.602,26.389 241.668,26.678 241.668,26.989L241.668,28.545C241.668,28.811 241.646,29.078 241.646,29.345C241.646,29.611 241.624,29.856 241.624,30.122C241.624,30.389 241.691,30.656 241.691,30.9L241.691,31.7C241.691,31.945 241.713,32.211 241.713,32.478C241.713,32.767 241.668,33.033 241.691,33.322C241.713,33.589 241.78,33.878 241.824,34.145C241.891,34.456 242.002,34.722 242.18,34.922C242.357,35.122 242.624,35.278 242.913,35.367C243.068,35.411 243.202,35.478 243.357,35.478Z" style="fill:white;fill-rule:nonzero;stroke:white;stroke-width:1.39px;"/>
        <path d="M257.735,31.7C257.824,31.389 257.824,31.056 257.824,30.767C257.846,30.433 257.868,30.122 257.868,29.833C257.846,29.5 257.78,29.189 257.713,28.878C257.624,28.567 257.58,28.233 257.424,27.967C257.268,27.678 257.046,27.433 256.824,27.189C256.624,26.945 256.38,26.722 256.113,26.545C255.824,26.345 255.557,26.167 255.268,26.033C254.98,25.878 254.668,25.767 254.38,25.678C254.046,25.567 253.735,25.389 253.402,25.278C253.024,25.145 252.646,25.056 252.268,24.922C252.046,24.856 251.802,24.745 251.557,24.656C251.335,24.545 251.135,24.389 250.935,24.256C250.624,24.078 250.357,23.922 250.157,23.722C249.913,23.5 249.713,23.256 249.602,22.989C249.491,22.722 249.446,22.433 249.446,22.167C249.446,21.9 249.491,21.611 249.58,21.367C249.691,21.122 249.846,20.878 250.024,20.678C250.202,20.478 250.446,20.345 250.691,20.211C250.935,20.078 251.18,19.989 251.424,19.922C251.691,19.856 251.935,19.789 252.202,19.767C252.468,19.767 252.735,19.722 253.002,19.745C253.113,19.767 253.091,19.811 253.202,19.833C253.491,19.878 253.78,19.945 254.091,19.989C254.424,20.011 254.802,19.945 255.224,19.945C255.468,19.945 255.713,19.922 255.913,19.811C256.113,19.7 256.268,19.522 256.424,19.3C256.602,19.056 256.691,18.811 256.668,18.545C256.668,18.278 256.557,18.033 256.335,17.811C256.18,17.656 255.98,17.545 255.802,17.433C255.602,17.322 255.424,17.167 255.224,17.1C254.935,17.033 254.624,17.011 254.313,16.967C254.024,16.9 253.713,16.856 253.424,16.833C253.113,16.811 252.802,16.745 252.513,16.745C252.202,16.745 251.891,16.811 251.602,16.856C251.291,16.9 250.98,16.9 250.691,16.967C250.402,17.033 250.113,17.189 249.824,17.278C249.557,17.367 249.268,17.478 248.98,17.611C248.735,17.722 248.513,17.856 248.291,17.989C248.068,18.122 247.824,18.256 247.646,18.411C247.424,18.589 247.224,18.767 247.068,18.967C246.868,19.167 246.757,19.433 246.602,19.656C246.468,19.9 246.291,20.122 246.18,20.389C246.068,20.633 246.068,20.922 246.002,21.211C245.935,21.478 245.891,21.745 245.868,22.033C245.846,22.3 245.846,22.567 245.846,22.856C245.868,23.189 245.913,23.5 246.002,23.789C246.091,24.1 246.268,24.367 246.424,24.633C246.58,24.9 246.757,25.167 246.98,25.389C247.202,25.633 247.446,25.856 247.735,26.056C248.002,26.233 248.268,26.433 248.58,26.589C248.868,26.722 249.18,26.856 249.513,26.967C249.757,27.078 249.98,27.211 250.224,27.3C250.468,27.389 250.735,27.456 250.98,27.545C251.18,27.611 251.38,27.722 251.58,27.789C251.78,27.878 252.002,27.945 252.202,28.011C252.535,28.145 252.846,28.278 253.135,28.478C253.424,28.678 253.691,28.9 253.913,29.167C254.113,29.389 254.246,29.656 254.313,29.945C254.402,30.233 254.446,30.545 254.424,30.833C254.38,31.145 254.246,31.411 254.091,31.656C253.891,31.922 253.668,32.145 253.446,32.322C253.202,32.522 252.935,32.722 252.646,32.833C252.38,32.922 252.091,32.9 251.802,32.945C251.535,32.967 251.268,33.033 250.98,33.011C250.713,32.989 250.446,32.9 250.157,32.833C249.891,32.789 249.646,32.722 249.38,32.633L249.024,32.5C248.757,32.433 248.513,32.456 248.268,32.433C248.002,32.411 247.757,32.411 247.513,32.456C247.224,32.522 246.957,32.611 246.757,32.789C246.58,32.967 246.402,33.211 246.313,33.5C246.246,33.789 246.335,34.033 246.424,34.256C246.535,34.545 246.78,34.745 246.868,34.833C247.002,34.945 247.157,35.033 247.313,35.122C247.513,35.233 247.713,35.345 247.913,35.433C248.135,35.522 248.313,35.656 248.535,35.7C248.78,35.767 249.046,35.767 249.313,35.811C249.58,35.856 249.824,35.922 250.091,35.945C250.357,35.967 250.624,35.9 250.891,35.9C251.091,35.9 251.313,35.922 251.535,35.922C251.624,35.922 251.624,35.878 251.691,35.878C251.802,35.878 251.913,35.945 252.046,35.945C252.335,35.922 252.624,35.9 252.913,35.856C253.224,35.811 253.491,35.722 253.78,35.633C254.068,35.545 254.313,35.389 254.58,35.256C254.824,35.122 255.113,35.056 255.335,34.922C255.58,34.767 255.757,34.567 255.98,34.389C256.202,34.211 256.424,34.056 256.602,33.856C256.78,33.656 256.913,33.411 257.046,33.167C257.202,32.945 257.357,32.722 257.468,32.478C257.58,32.211 257.668,31.967 257.735,31.7Z" style="fill:white;fill-rule:nonzero;stroke:white;stroke-width:1.39px;"/>
    </g>
</svg>
