<?xml version="1.0" encoding="UTF-8" standalone="no"?>
<!DOCTYPE svg PUBLIC "-//W3C//DTD SVG 1.1//EN" "http://www.w3.org/Graphics/SVG/1.1/DTD/svg11.dtd">
<svg width="100%" height="100%" viewBox="0 0 200 100" version="1.1" xmlns="http://www.w3.org/2000/svg" xmlns:xlink="http://www.w3.org/1999/xlink" xml:space="preserve" style="fill-rule:evenodd;clip-rule:evenodd;stroke-linejoin:round;stroke-miterlimit:1.41421;">
    <g transform="matrix(0.235179,0,0,0.235179,35.5889,-16.6958)">
        <path d="M541,402L500,328L482,327L381,448L371,446L344,380L336,383L363,449L387,453L485,335L496,337L537,411L541,402Z" style="fill:white;"/>
        <path d="M9,215L65,279L79,287L84,283.5L130,268L132,276L84,293L61,290L57,283L6,225L9,215Z" style="fill:white;"/>
        <path d="M186,257L258,223L318,226L350,316L331,337L299,246L266,246L194,280L186,257Z" style="fill:white;"/>
        <path d="M285.5,88C364.148,88 428,151.628 428,230C428,308.372 364.148,372 285.5,372C206.852,372 143,308.372 143,230C143,151.628 206.852,88 285.5,88ZM285.5,128.856C341.519,128.856 387,174.177 387,230C387,285.823 341.519,331.144 285.5,331.144C229.481,331.144 184,285.823 184,230C184,174.177 229.481,128.856 285.5,128.856Z" style="fill:white;"/>
        <path d="M149,316L76,388L126,437L197,364C178.523,351.242 163.386,334.944 149,316Z" style="fill:white;"/>
        <g transform="matrix(1.125,0,0,1.125,-72.75,-34.5)">
            <circle cx="502" cy="316" r="16" style="fill:white;"/>
        </g>
        <g transform="matrix(1.125,0,0,1.125,-190.75,106.5)">
            <circle cx="502" cy="316" r="16" style="fill:white;"/>
        </g>
        <g transform="matrix(1.125,0,0,1.125,-493.75,-64.5)">
            <circle cx="502" cy="316" r="16" style="fill:white;"/>
        </g>
        <g transform="matrix(1.06977,0,0,1.06977,-17.3721,-4.16279)">
            <circle cx="292" cy="203" r="43" style="fill:white;"/>
        </g>
    </g>
</svg>
