<?xml version="1.0" encoding="UTF-8" standalone="no"?>
<!DOCTYPE svg PUBLIC "-//W3C//DTD SVG 1.1//EN" "http://www.w3.org/Graphics/SVG/1.1/DTD/svg11.dtd">
<svg width="100%" height="100%" viewBox="0 0 200 200" version="1.1" xmlns="http://www.w3.org/2000/svg" xmlns:xlink="http://www.w3.org/1999/xlink" xml:space="preserve" style="fill-rule:evenodd;clip-rule:evenodd;stroke-linecap:round;stroke-linejoin:round;stroke-miterlimit:1.5;">
    <g transform="matrix(1.07078,0,0,1.12782,-22.2198,22.8241)">
        <path d="M131.456,55.278C138.598,55.278 144.395,61.076 144.395,68.217C144.395,75.358 138.598,81.156 131.456,81.156C124.315,81.156 118.518,75.358 118.518,68.217C118.518,61.076 124.315,55.278 131.456,55.278ZM131.456,56.741C137.79,56.741 142.933,61.883 142.933,68.217C142.933,74.551 137.79,79.693 131.456,79.693C125.123,79.693 119.98,74.551 119.98,68.217C119.98,61.883 125.123,56.741 131.456,56.741ZM136.25,67C136.664,67 137,67.336 137,67.75L137,69.25C137,69.664 136.664,70 136.25,70L126.75,70C126.336,70 126,69.664 126,69.25L126,67.75C126,67.336 126.336,67 126.75,67L136.25,67Z" style="fill:white;stroke:white;stroke-width:1.77px;"/>
    </g>
    <path d="M119.485,117.999C117.006,127.24 109.847,132.493 109.926,134.5C110.046,137.538 112.667,139.402 114.379,139.695C122.726,141.122 138.543,150.552 138.322,166.859C138.321,166.945 62.231,166.921 62.235,166.859C63.319,150.398 75.153,141.684 84.693,139.695C87.533,139.103 90.424,137.936 90.631,134.5C90.794,131.768 80.564,125.436 80.241,111.493C79.909,97.195 91.085,87.18 100.278,87.003C102.209,86.966 104.087,87.299 105.872,87.95C103.198,90.893 101,95.132 101,99.5C101,109.644 106.956,117.507 119.485,117.999Z" style="fill:white;"/>
</svg>
