<?xml version="1.0" encoding="UTF-8" standalone="no"?>
<!DOCTYPE svg PUBLIC "-//W3C//DTD SVG 1.1//EN" "http://www.w3.org/Graphics/SVG/1.1/DTD/svg11.dtd">
<svg width="100%" height="100%" viewBox="0 0 200 200" version="1.1" xmlns="http://www.w3.org/2000/svg" xmlns:xlink="http://www.w3.org/1999/xlink" xml:space="preserve" style="fill-rule:evenodd;clip-rule:evenodd;stroke-linejoin:round;stroke-miterlimit:1.41421;">
    <g transform="matrix(0.664869,0,0,0.664869,28.226,56.2832)">
        <g transform="matrix(0.89274,0,0,0.89274,-9.99682,1.73166)">
            <g>
                <g>
                    <path d="M79,131C66.145,133.68 50.198,145.421 48.738,167.603C48.733,167.686 151.26,167.719 151.262,167.603C151.559,145.629 130.247,132.923 119,131C116.693,130.606 113.161,128.094 113,124C112.871,120.716 127.128,110.979 127,93C126.872,75.018 114.516,59.72 100,60C87.612,60.239 72.553,73.733 73,93C73.436,111.788 87.221,120.319 87,124C86.722,128.63 82.826,130.202 79,131Z" style="fill:white;"/>
                </g>
            </g>
        </g>
        <g transform="matrix(1,0,0,1,-156,-98.9128)">
            <path d="M265.589,218.27C266.57,217.964 273.499,215.701 273.943,215.507C277.826,213.811 279.458,212.819 279.672,209.258C279.869,205.972 267.562,198.355 267.173,181.583C266.774,164.383 280.218,152.336 291.277,152.123C304.236,151.872 315.267,165.53 315.381,181.583C315.496,197.633 302.768,206.326 302.883,209.258C303.027,212.913 306.18,215.155 308.239,215.507C318.28,217.224 335.889,229.268 337.041,250.264C337.048,250.397 310.578,250.319 286,250.264C285.495,232.974 273.454,223.195 265.589,218.27Z" style="fill:white;"/>
        </g>
    </g>
</svg>
