<?xml version="1.0" encoding="UTF-8" standalone="no"?>
<!DOCTYPE svg PUBLIC "-//W3C//DTD SVG 1.1//EN" "http://www.w3.org/Graphics/SVG/1.1/DTD/svg11.dtd">
<svg width="100%" height="100%" viewBox="0 0 200 200" version="1.1" xmlns="http://www.w3.org/2000/svg" xmlns:xlink="http://www.w3.org/1999/xlink" xml:space="preserve" style="fill-rule:evenodd;clip-rule:evenodd;stroke-linejoin:round;stroke-miterlimit:1.41421;">
    <g transform="matrix(0.664869,0,0,0.664869,28.226,56.2832)">
        <g transform="matrix(0.89274,0,0,0.89274,-9.99682,1.73166)">
            <g>
                <g>
                    <path d="M79,131C66.145,133.68 50.198,145.421 48.738,167.603C48.733,167.686 151.26,167.719 151.262,167.603C151.559,145.629 130.247,132.923 119,131C116.693,130.606 113.161,128.094 113,124C112.871,120.716 127.128,110.979 127,93C126.872,75.018 114.516,59.72 100,60C87.612,60.239 72.553,73.733 73,93C73.436,111.788 87.221,120.319 87,124C86.722,128.63 82.826,130.202 79,131Z" style="fill:white;"/>
                </g>
            </g>
        </g>
        <g transform="matrix(1,0,0,1,-156,-98.9128)">
            <path d="M265.589,218.27C266.57,217.964 273.499,215.701 273.943,215.507C277.826,213.811 279.458,212.819 279.672,209.258C279.869,205.972 267.562,198.355 267.173,181.583C266.774,164.383 280.218,152.336 291.277,152.123C304.236,151.872 315.267,165.53 315.381,181.583C315.496,197.633 302.768,206.326 302.883,209.258C303.027,212.913 306.18,215.155 308.239,215.507C318.28,217.224 335.889,229.268 337.041,250.264C337.048,250.397 310.578,250.319 286,250.264C285.495,232.974 273.454,223.195 265.589,218.27Z" style="fill:white;"/>
        </g>
    </g>
    <g transform="matrix(1,0,0,1,-12,21)">
        <path d="M71.243,25.73C71.243,26.063 71.265,26.441 71.443,26.819C71.598,27.13 71.776,27.33 71.976,27.463C72.243,27.663 72.532,27.73 72.776,27.73C73.087,27.73 73.354,27.641 73.576,27.486C73.798,27.352 73.976,27.13 74.11,26.863C74.221,26.686 74.287,26.508 74.31,26.352C74.354,26.086 74.398,25.863 74.421,25.663C74.465,25.419 74.421,25.175 74.421,24.975C74.421,24.597 74.487,24.197 74.487,23.819C74.487,23.53 74.465,23.53 74.465,23.241C74.465,22.886 74.465,22.575 74.554,22.263C74.621,21.975 74.776,21.752 74.91,21.53C75.065,21.308 75.243,21.063 75.465,20.93C75.687,20.775 75.954,20.663 76.243,20.597C76.532,20.53 76.865,20.575 77.221,20.575C77.576,20.552 77.576,20.53 77.954,20.53C78.332,20.508 78.332,20.486 78.71,20.486L79.443,20.486C79.732,20.486 80.021,20.463 80.31,20.441C80.576,20.397 80.865,20.397 81.154,20.33C81.421,20.241 81.665,20.086 81.821,19.908C81.998,19.708 82.043,19.441 82.065,19.175C82.087,18.908 82.065,18.663 81.954,18.441C81.843,18.241 81.665,18.041 81.443,17.908C81.198,17.752 80.91,17.708 80.621,17.686C80.354,17.663 80.11,17.575 79.865,17.575C79.598,17.552 79.332,17.575 79.065,17.575L78.265,17.575C78.021,17.575 78.021,17.597 77.754,17.597C77.487,17.597 77.198,17.575 76.932,17.53C76.643,17.486 76.376,17.397 76.11,17.33C75.776,17.241 75.487,17.152 75.287,16.997C75.043,16.797 74.843,16.575 74.732,16.286C74.621,16.019 74.621,15.752 74.576,15.486C74.554,15.219 74.487,14.952 74.532,14.686C74.554,14.419 74.665,14.175 74.776,13.908C74.887,13.619 75.021,13.33 75.31,13.13C75.643,12.886 76.021,12.752 76.376,12.708C76.665,12.663 76.976,12.619 77.31,12.597C77.621,12.552 77.932,12.53 78.243,12.53C78.554,12.53 78.887,12.575 79.198,12.575C79.532,12.575 79.843,12.597 80.176,12.597L80.776,12.597C81.11,12.597 81.487,12.53 81.865,12.375C82.132,12.263 82.354,12.13 82.487,11.93C82.665,11.708 82.776,11.486 82.776,11.197C82.798,10.93 82.732,10.686 82.576,10.463C82.443,10.286 82.243,10.152 81.976,10.019C81.776,9.908 81.576,9.797 81.421,9.775C81.198,9.708 80.954,9.752 80.71,9.73C80.487,9.708 80.265,9.619 80.021,9.619C79.687,9.619 79.354,9.686 79.043,9.686C78.71,9.686 78.376,9.663 78.065,9.663C77.621,9.663 77.621,9.619 77.198,9.619L76.376,9.619C76.043,9.619 75.71,9.686 75.376,9.686L74.376,9.686C74.11,9.686 73.843,9.686 73.598,9.73C73.31,9.752 73.043,9.73 72.798,9.775C72.532,9.841 72.265,9.93 72.065,10.063C71.843,10.197 71.687,10.397 71.554,10.619C71.443,10.841 71.376,11.086 71.332,11.352C71.287,11.73 71.243,12.108 71.243,12.486C71.243,12.797 71.265,13.086 71.265,13.397C71.265,13.686 71.287,13.975 71.287,14.286C71.287,14.575 71.198,14.886 71.198,15.175C71.198,15.486 71.221,15.775 71.221,16.086C71.221,16.375 71.243,16.663 71.243,16.975C71.243,17.263 71.221,17.575 71.221,17.863C71.221,18.175 71.198,18.463 71.198,18.752C71.198,19.063 71.265,19.352 71.265,19.663C71.265,19.952 71.221,20.263 71.221,20.552C71.221,20.975 71.265,20.975 71.265,21.375C71.265,21.663 71.198,21.952 71.198,22.241C71.198,22.53 71.265,22.819 71.265,23.13C71.265,23.419 71.221,23.708 71.221,23.997L71.221,24.863C71.221,25.152 71.243,25.441 71.243,25.73Z" style="fill:white;fill-rule:nonzero;"/>
        <path d="M99.354,26.108C99.198,25.908 98.998,25.775 98.798,25.641C98.621,25.508 98.421,25.397 98.176,25.33C97.865,25.219 97.554,25.108 97.265,24.975C96.954,24.841 96.687,24.641 96.421,24.486C96.11,24.33 95.821,24.175 95.554,23.952C95.287,23.73 95.021,23.53 94.776,23.263L94.287,22.663C94.132,22.441 94.021,22.219 93.887,21.997C93.754,21.775 93.665,21.53 93.554,21.308C93.465,21.175 93.398,21.041 93.354,20.886C93.31,20.486 93.532,20.108 93.776,19.819C94.021,19.73 94.265,19.641 94.487,19.508C94.754,19.375 94.998,19.286 95.221,19.13C95.465,18.952 95.687,18.797 95.865,18.597C96.065,18.397 96.243,18.197 96.398,17.952C96.554,17.73 96.71,17.486 96.798,17.219C96.91,16.975 96.954,16.686 97.021,16.419C97.087,16.086 97.198,15.775 97.221,15.441C97.221,15.263 97.243,15.086 97.221,14.908C97.221,14.73 97.221,14.53 97.198,14.352C97.176,14.019 97.11,13.686 97.043,13.352C96.976,13.041 96.887,12.73 96.732,12.441C96.598,12.152 96.443,11.863 96.243,11.597C96.043,11.352 95.798,11.152 95.532,10.93C95.243,10.686 94.954,10.486 94.665,10.33C94.332,10.152 93.998,10.019 93.665,9.93C93.376,9.841 93.11,9.752 92.843,9.708C92.554,9.663 92.287,9.686 92.021,9.663C91.732,9.619 91.465,9.552 91.176,9.552L91.132,9.552C90.843,9.552 90.576,9.575 90.287,9.575C89.998,9.575 89.71,9.619 89.443,9.575C89.132,9.552 88.843,9.463 88.554,9.441L87.665,9.441C87.376,9.441 87.065,9.486 86.776,9.486C86.576,9.486 86.576,9.441 86.354,9.441C86.065,9.441 85.798,9.486 85.532,9.552C85.465,9.552 85.487,9.619 85.421,9.641C85.154,9.686 84.91,9.752 84.687,9.886C84.465,10.019 84.287,10.197 84.154,10.419C84.021,10.641 83.954,10.886 83.887,11.152C83.843,11.397 83.776,11.641 83.754,11.908C83.732,12.152 83.665,12.419 83.665,12.663L83.665,12.752C83.665,13.019 83.687,13.308 83.687,13.597C83.687,13.863 83.665,14.13 83.665,14.419L83.665,14.486C83.665,14.775 83.732,15.041 83.732,15.33C83.732,15.597 83.71,15.886 83.71,16.152C83.71,16.441 83.687,16.73 83.687,17.019C83.687,17.419 83.665,17.419 83.665,17.819L83.665,17.886C83.665,18.263 83.687,18.286 83.687,18.641L83.687,19.486C83.687,19.886 83.732,19.886 83.732,20.286L83.732,22.063C83.732,22.33 83.754,22.619 83.754,22.886C83.754,23.197 83.665,23.486 83.665,23.775L83.665,24.752C83.665,25.063 83.732,25.352 83.754,25.641C83.798,25.952 83.798,26.241 83.887,26.508C83.976,26.841 84.176,27.152 84.421,27.33C84.665,27.53 85.021,27.663 85.354,27.663L85.376,27.575C85.71,27.575 85.998,27.508 86.265,27.308C86.51,27.13 86.732,26.886 86.821,26.575C86.865,26.441 86.91,26.33 86.932,26.219C86.932,26.197 86.932,26.175 86.91,26.152L86.932,26.152L86.932,26.086C86.976,25.775 86.998,25.486 86.998,25.197C87.021,24.886 87.021,24.575 87.021,24.286C87.021,24.108 87.043,23.93 87.043,23.775L87.043,23.752L87.043,23.686C87.043,23.663 87.021,23.663 87.021,23.619C87.021,23.375 87.065,23.13 87.087,22.908C87.087,22.641 87.11,22.375 87.176,22.13C87.243,21.819 87.287,21.53 87.443,21.308C87.598,21.063 87.798,20.863 88.065,20.708C88.287,20.552 88.554,20.463 88.865,20.375L88.91,20.375C90.243,20.441 90.598,21.663 90.598,21.663L90.643,21.641C90.71,21.841 90.754,22.041 90.843,22.241C90.954,22.508 91.132,22.752 91.265,23.019C91.398,23.263 91.51,23.552 91.665,23.797C91.821,24.041 91.998,24.308 92.176,24.53C92.354,24.775 92.598,24.93 92.798,25.152C92.998,25.352 93.176,25.597 93.398,25.775C93.621,25.975 93.843,26.175 94.065,26.352C94.31,26.508 94.554,26.686 94.798,26.819C95.043,26.975 95.332,27.086 95.576,27.197C95.843,27.33 96.11,27.463 96.376,27.552C96.665,27.663 96.932,27.686 97.198,27.752C97.465,27.819 97.732,27.863 98.021,27.863L98.021,27.841L98.11,27.841C98.443,27.841 98.732,27.819 98.998,27.663C99.398,27.441 99.554,27.175 99.598,26.975C99.643,26.775 99.621,26.441 99.354,26.108ZM87.087,14.73C87.11,14.486 87.087,14.219 87.154,13.952C87.243,13.619 87.398,13.375 87.576,13.13C87.754,12.863 87.976,12.641 88.265,12.486C88.532,12.352 88.821,12.241 89.154,12.197C89.31,12.175 89.465,12.175 89.643,12.152C89.732,12.152 89.821,12.175 89.887,12.175C90.198,12.175 90.465,12.152 90.732,12.197C91.021,12.241 91.287,12.308 91.532,12.397C91.798,12.486 92.043,12.619 92.265,12.752C92.51,12.908 92.71,13.063 92.865,13.241C93.065,13.441 93.265,13.597 93.398,13.819C93.51,14.063 93.51,14.308 93.554,14.597C93.554,14.686 93.576,14.775 93.576,14.863C93.576,15.108 93.554,15.33 93.487,15.552C93.398,15.886 93.243,16.197 92.998,16.486C92.821,16.663 92.665,16.819 92.487,16.952C92.31,17.086 92.11,17.219 91.91,17.308C91.621,17.397 91.332,17.463 91.065,17.53C90.754,17.597 90.465,17.663 90.198,17.663C89.887,17.686 89.598,17.686 89.31,17.641C89.021,17.597 88.732,17.552 88.443,17.441C88.154,17.33 87.91,17.152 87.71,16.952C87.51,16.752 87.376,16.508 87.287,16.219C87.198,15.952 87.154,15.708 87.11,15.441C87.087,15.308 87.087,15.197 87.087,15.063L87.087,14.73Z" style="fill:white;fill-rule:nonzero;"/>
        <path d="M100.754,17.33C100.754,17.841 100.798,17.841 100.798,18.352C100.798,18.863 100.754,18.863 100.754,19.352C100.754,19.663 100.776,19.952 100.776,20.263C100.776,20.552 100.798,20.863 100.798,21.175L100.798,22.975C100.798,23.263 100.821,23.575 100.821,23.863C100.821,24.175 100.776,24.463 100.776,24.775C100.776,25.086 100.821,25.375 100.843,25.641C100.865,25.952 100.865,26.263 100.91,26.53C100.998,26.863 101.198,27.086 101.421,27.286C101.621,27.486 101.865,27.641 102.198,27.686C102.287,27.708 102.376,27.752 102.465,27.752C102.843,27.752 103.154,27.619 103.421,27.375C103.665,27.175 103.798,26.863 103.887,26.486C103.954,26.13 104.021,25.797 104.021,25.463L104.021,24.641C104.021,24.375 103.976,24.086 103.976,23.819C103.976,23.53 103.998,23.263 103.998,22.975C103.998,22.708 103.954,22.419 103.954,22.152L103.954,21.33C103.954,21.041 103.998,20.775 103.998,20.486C103.998,20.108 104.043,20.108 104.043,19.73L104.043,18.975C104.043,18.575 104.021,18.575 104.021,18.197C104.021,17.819 103.998,17.819 103.998,17.441C103.998,17.108 103.976,16.797 103.976,16.463C103.976,16.152 103.954,15.819 103.954,15.486C103.954,15.175 103.998,14.841 103.998,14.53C103.998,14.197 103.954,13.863 103.954,13.552C103.954,13.263 104.021,12.997 104.021,12.708C104.021,12.441 103.998,12.152 103.998,11.886C103.998,11.552 103.932,11.108 103.687,10.686C103.487,10.33 103.132,10.086 102.71,9.997C102.31,9.908 101.865,9.997 101.532,10.263C101.198,10.53 100.954,10.863 100.887,11.286C100.887,11.419 100.932,11.419 100.91,11.552L100.843,12.263C100.821,12.508 100.732,12.752 100.732,12.997C100.732,13.263 100.754,13.508 100.754,13.775L100.754,15.308C100.754,15.552 100.798,15.819 100.798,16.063C100.776,16.708 100.754,16.708 100.754,17.33Z" style="fill:white;fill-rule:nonzero;"/>
        <path d="M108.287,27.997C108.532,28.019 108.754,28.019 108.998,28.019C109.021,28.019 109.021,28.041 109.043,28.041C109.332,28.041 109.598,28.019 109.865,28.019C110.132,28.019 110.398,28.063 110.665,28.063C110.976,28.063 111.287,28.041 111.598,28.041L112.487,28.041C112.932,28.041 112.932,28.019 113.376,28.019C113.821,28.019 113.821,28.063 114.265,28.063C114.732,28.063 114.732,28.041 115.176,28.041C115.621,28.041 115.621,28.063 116.065,28.063L116.11,28.063C116.154,28.063 116.198,28.041 116.243,28.041C116.354,28.041 116.354,28.041 116.487,28.041L117.132,27.975C117.465,27.93 117.776,27.797 118.021,27.575C118.354,27.263 118.554,26.841 118.51,26.419C118.443,25.997 118.132,25.663 117.71,25.463C117.51,25.375 117.332,25.308 117.132,25.263C116.865,25.219 116.621,25.152 116.376,25.13C116.11,25.108 115.865,25.086 115.621,25.086L114.643,25.086C114.332,25.086 113.998,25.152 113.687,25.152C113.287,25.152 112.91,25.086 112.51,25.086C112.443,25.086 112.354,25.13 112.287,25.13C111.798,25.13 111.376,25.063 111.021,24.93C110.71,24.819 110.465,24.641 110.243,24.441C110.021,24.241 109.887,23.975 109.776,23.663C109.643,23.308 109.576,22.997 109.576,22.73C109.598,22.397 109.576,22.086 109.621,21.841C109.71,21.53 109.843,21.263 110.021,21.041C110.176,20.819 110.398,20.641 110.687,20.486C110.91,20.375 111.198,20.263 111.51,20.219C111.798,20.175 112.065,20.175 112.332,20.152C112.621,20.108 112.887,20.13 113.154,20.13C113.465,20.13 113.776,20.063 114.087,20.063C114.398,20.063 114.687,20.13 114.998,20.13C115.132,20.13 115.132,20.108 115.265,20.108C115.51,20.108 115.732,20.063 115.976,20.019C116.221,19.975 116.443,19.908 116.643,19.819C116.865,19.708 117.065,19.575 117.198,19.397C117.332,19.197 117.465,18.997 117.465,18.73C117.465,18.463 117.332,18.241 117.198,18.019C117.043,17.841 116.865,17.686 116.598,17.575C116.332,17.441 116.065,17.397 115.865,17.352C115.643,17.33 115.443,17.263 115.243,17.263C115.198,17.263 115.198,17.33 115.154,17.33C114.91,17.33 114.643,17.286 114.398,17.286L113.621,17.286C113.354,17.286 113.11,17.263 112.843,17.263C112.487,17.263 112.176,17.286 111.865,17.241C111.532,17.197 111.221,17.152 110.932,17.041C110.665,16.952 110.443,16.819 110.265,16.663C110.087,16.486 109.998,16.263 109.887,16.041C109.798,15.819 109.71,15.597 109.687,15.33C109.687,15.219 109.71,15.108 109.71,14.997C109.71,14.93 109.665,14.841 109.665,14.775C109.665,14.419 109.732,14.086 109.865,13.797C109.998,13.486 110.243,13.241 110.532,13.041C110.798,12.886 111.132,12.819 111.487,12.752C111.821,12.708 112.11,12.641 112.421,12.619C112.732,12.575 113.043,12.575 113.354,12.575L114.087,12.575C114.332,12.575 114.554,12.552 114.798,12.552C115.043,12.552 115.287,12.619 115.532,12.619C115.776,12.619 115.776,12.53 116.043,12.53C116.398,12.53 116.798,12.53 117.221,12.33C117.443,12.219 117.598,12.063 117.732,11.886C117.865,11.686 117.998,11.486 118.021,11.263C118.043,11.041 117.976,10.797 117.843,10.552C117.732,10.375 117.554,10.241 117.287,10.086C117.065,9.952 116.843,9.841 116.665,9.797C116.443,9.73 116.221,9.752 115.998,9.73C115.776,9.708 115.554,9.686 115.332,9.686C115.043,9.686 114.754,9.641 114.465,9.641C114.176,9.641 113.91,9.663 113.621,9.663C113.332,9.663 113.043,9.686 112.754,9.686C112.465,9.686 112.176,9.641 111.91,9.641C111.621,9.641 111.332,9.619 111.043,9.619C110.754,9.619 110.465,9.641 110.176,9.641C109.91,9.641 109.621,9.686 109.332,9.686L109.31,9.686C109.065,9.686 108.798,9.663 108.554,9.708C108.287,9.73 108.043,9.797 107.821,9.841C107.443,9.93 107.087,10.041 106.865,10.286C106.621,10.53 106.487,10.863 106.398,11.241C106.354,11.508 106.332,11.797 106.332,12.108C106.332,12.419 106.287,12.708 106.287,13.019C106.287,13.308 106.31,13.597 106.31,13.908C106.31,14.197 106.287,14.508 106.287,14.797L106.287,15.708C106.287,15.997 106.332,16.308 106.332,16.597C106.332,16.886 106.31,17.197 106.31,17.486C106.31,17.797 106.332,18.086 106.332,18.397L106.332,19.286C106.332,19.575 106.265,19.886 106.265,20.175C106.265,20.486 106.354,20.775 106.354,21.086C106.354,21.375 106.332,21.686 106.332,21.975C106.332,22.263 106.354,22.575 106.354,22.863C106.354,23.175 106.287,23.463 106.287,23.775C106.287,24.063 106.265,24.375 106.265,24.663C106.265,24.975 106.354,25.263 106.354,25.552C106.354,25.775 106.287,25.952 106.31,26.13C106.354,26.486 106.487,26.797 106.643,27.041C106.821,27.352 107.043,27.575 107.332,27.752C107.598,27.886 107.932,27.975 108.287,27.997Z" style="fill:white;fill-rule:nonzero;"/>
        <path d="M136.465,11.641L136.398,11.263C136.354,10.93 136.221,10.619 135.954,10.375C135.776,10.197 135.576,10.108 135.354,10.041C135.132,9.975 134.887,9.886 134.665,9.93C134.421,9.975 134.198,10.086 134.021,10.219C133.843,10.375 133.71,10.575 133.621,10.797C133.51,11.041 133.465,11.263 133.421,11.486C133.398,11.73 133.354,11.975 133.354,12.197C133.354,12.775 133.376,12.775 133.376,13.375C133.376,13.686 133.398,13.997 133.398,14.308C133.398,14.619 133.354,14.93 133.332,15.241C133.332,15.552 133.398,15.863 133.398,16.175C133.398,16.486 133.354,16.797 133.354,17.13C133.354,17.441 133.376,17.752 133.376,18.063C133.376,18.352 133.376,18.641 133.354,18.93C133.332,19.197 133.287,19.486 133.243,19.797C133.221,19.93 133.221,19.93 133.221,20.086C133.154,20.53 132.976,20.908 132.643,21.175C132.443,21.33 132.243,21.308 132.021,21.241C131.71,21.152 131.421,21.019 131.176,20.752C131.021,20.575 130.887,20.352 130.732,20.152C130.598,19.952 130.443,19.752 130.31,19.53L129.843,18.797C129.687,18.53 129.51,18.308 129.354,18.063C129.198,17.797 129.021,17.575 128.865,17.33C128.71,17.063 128.554,16.819 128.398,16.575L128.176,16.197C128.021,15.952 127.887,15.686 127.754,15.441C127.598,15.197 127.398,14.975 127.243,14.708L126.754,13.886C126.598,13.619 126.421,13.352 126.243,13.086C126.087,12.797 125.91,12.53 125.754,12.263C125.598,12.041 125.532,11.775 125.376,11.53C125.221,11.33 125.043,11.13 124.865,10.908C124.71,10.663 124.51,10.486 124.287,10.308C124.043,10.152 123.821,9.997 123.554,9.908C123.243,9.819 122.932,9.797 122.621,9.752C122.31,9.708 122.021,9.686 121.71,9.708C121.398,9.73 121.087,9.73 120.798,9.797C120.421,9.908 120.132,10.13 119.91,10.375C119.665,10.619 119.443,10.908 119.354,11.286C119.287,11.53 119.31,11.819 119.287,12.086C119.265,12.352 119.176,12.619 119.176,12.886C119.176,13.197 119.243,13.486 119.243,13.797C119.243,14.086 119.176,14.397 119.176,14.686C119.176,14.997 119.198,15.286 119.198,15.597L119.198,16.486C119.198,16.775 119.221,17.086 119.221,17.375C119.221,17.73 119.243,17.73 119.243,18.108L119.243,18.819C119.243,19.219 119.176,19.219 119.176,19.641C119.176,20.041 119.243,20.041 119.243,20.441C119.243,20.73 119.265,21.019 119.265,21.308C119.265,21.597 119.198,21.886 119.198,22.175C119.198,22.463 119.221,22.73 119.221,23.019L119.221,23.886C119.221,24.175 119.198,24.463 119.198,24.752C119.198,25.019 119.221,25.263 119.243,25.508C119.265,25.775 119.332,26.019 119.398,26.263L119.398,26.352C119.421,26.441 119.421,26.552 119.465,26.663C119.576,26.997 119.732,27.263 119.976,27.463C120.243,27.641 120.554,27.708 120.887,27.708C121.243,27.708 121.554,27.641 121.798,27.441C122.043,27.263 122.176,26.975 122.287,26.619C122.398,26.286 122.443,25.93 122.443,25.619L122.443,25.508C122.443,25.152 122.398,24.819 122.398,24.463C122.398,24.13 122.398,23.775 122.398,23.441L122.398,22.619C122.398,22.352 122.421,22.086 122.421,21.819C122.421,21.53 122.443,21.263 122.443,20.997L122.443,20.175C122.443,19.908 122.398,19.641 122.421,19.375C122.421,19.108 122.398,18.819 122.421,18.508C122.443,18.241 122.532,17.975 122.576,17.686C122.643,17.419 122.71,17.152 122.798,16.863C122.932,16.441 123.198,16.241 123.398,16.197C123.71,16.108 124.065,16.286 124.265,16.486C124.332,16.552 124.398,16.508 124.465,16.552C124.732,16.819 124.932,17.086 125.132,17.375C125.287,17.597 125.443,17.819 125.576,18.041C125.732,18.263 125.865,18.486 126.021,18.73C126.154,18.952 126.332,19.152 126.487,19.397C126.621,19.619 126.776,19.841 126.91,20.086C127.043,20.308 127.176,20.552 127.31,20.775L127.71,21.441C127.865,21.663 128.021,21.886 128.154,22.108C128.287,22.33 128.376,22.575 128.51,22.797C128.643,23.019 128.798,23.197 128.932,23.397C129.065,23.619 129.221,23.819 129.354,24.019C129.487,24.241 129.554,24.486 129.687,24.686C129.821,24.908 129.976,25.108 130.11,25.308L130.51,25.952C130.643,26.152 130.754,26.375 130.887,26.597C131.021,26.819 131.221,26.975 131.398,27.152C131.598,27.33 131.798,27.486 132.021,27.597C132.221,27.73 132.465,27.819 132.71,27.886C133.11,27.997 133.51,28.086 133.932,28.086C134.243,28.086 134.576,28.063 134.91,27.997C135.198,27.952 135.443,27.841 135.665,27.708C135.887,27.575 136.087,27.375 136.221,27.152C136.332,26.93 136.421,26.663 136.465,26.397L136.465,26.086C136.51,25.752 136.576,25.397 136.576,25.041C136.576,24.752 136.598,24.463 136.598,24.175C136.598,23.863 136.621,23.575 136.621,23.286L136.621,22.419C136.598,22.13 136.621,21.841 136.621,21.552C136.621,21.263 136.576,20.975 136.576,20.686C136.576,20.397 136.598,20.086 136.598,19.797C136.598,19.508 136.621,19.219 136.621,18.93C136.621,18.641 136.598,18.352 136.598,18.063C136.598,17.775 136.554,17.486 136.554,17.197C136.554,16.908 136.598,16.597 136.598,16.308C136.598,16.019 136.598,15.73 136.598,15.441L136.598,14.575C136.598,14.286 136.621,13.997 136.621,13.708L136.621,12.819C136.621,12.419 136.532,12.019 136.465,11.641Z" style="fill:white;fill-rule:nonzero;"/>
        <path d="M138.398,25.286C138.398,25.641 138.443,25.997 138.51,26.352C138.554,26.641 138.665,26.886 138.798,27.108C138.932,27.352 139.087,27.575 139.332,27.708C139.532,27.863 139.798,27.952 140.087,28.019C140.31,28.063 140.554,28.063 140.754,28.063C141.021,28.063 141.31,27.997 141.576,27.997C141.843,27.997 142.11,28.063 142.376,28.063C142.71,28.063 143.065,28.019 143.398,28.019L144.398,28.019C144.732,28.019 145.065,28.063 145.376,28.041C145.71,28.019 146.043,27.952 146.376,27.908C146.665,27.863 146.954,27.841 147.221,27.775C147.51,27.73 147.798,27.708 148.087,27.641C148.354,27.575 148.643,27.486 148.91,27.397C149.198,27.308 149.443,27.13 149.687,27.019C149.976,26.908 150.221,26.797 150.487,26.663C150.732,26.53 150.998,26.419 151.243,26.263C151.51,26.108 151.732,25.908 151.954,25.708C152.198,25.53 152.421,25.33 152.643,25.13C152.843,24.93 153.087,24.752 153.287,24.508C153.487,24.286 153.643,24.041 153.821,23.797C153.976,23.53 154.132,23.286 154.265,23.019C154.398,22.752 154.487,22.463 154.598,22.175C154.71,21.908 154.798,21.619 154.887,21.33C154.954,21.041 155.043,20.752 155.087,20.463C155.132,20.197 155.11,19.952 155.11,19.686C155.132,19.441 155.11,19.197 155.11,18.93C155.087,18.686 155.132,18.419 155.11,18.175L155.11,17.997C155.087,17.708 155.065,17.419 155.021,17.152C154.976,16.863 154.932,16.575 154.865,16.308C154.798,16.019 154.732,15.752 154.643,15.486C154.554,15.219 154.443,14.952 154.332,14.686C154.198,14.441 154.021,14.197 153.887,13.952C153.732,13.73 153.598,13.463 153.421,13.241C153.243,13.019 153.043,12.819 152.843,12.619C152.643,12.397 152.465,12.197 152.243,12.019C152.021,11.819 151.754,11.708 151.51,11.552C151.287,11.397 151.043,11.241 150.776,11.108C150.532,10.975 150.287,10.819 150.021,10.708C149.776,10.597 149.532,10.552 149.287,10.463C149.021,10.375 148.776,10.33 148.51,10.286C148.265,10.219 147.998,10.13 147.754,10.086C147.487,10.019 147.221,9.975 146.998,9.93C146.754,9.886 146.532,9.908 146.31,9.908C146.087,9.886 145.865,9.819 145.643,9.797C145.287,9.797 144.932,9.797 144.598,9.752L143.687,9.686C143.376,9.663 143.087,9.686 142.776,9.686C142.465,9.686 142.176,9.708 141.865,9.708C141.643,9.708 141.443,9.686 141.221,9.686C140.865,9.686 140.51,9.708 140.154,9.775L139.998,9.775C139.732,9.819 139.51,9.975 139.31,10.108C139.087,10.241 138.932,10.419 138.798,10.641C138.665,10.841 138.576,11.063 138.532,11.33C138.465,11.708 138.421,12.063 138.421,12.419C138.421,12.73 138.398,13.041 138.398,13.375L138.398,14.308C138.398,14.641 138.465,14.952 138.465,15.263C138.465,15.597 138.443,15.908 138.443,16.219C138.443,16.53 138.421,16.863 138.421,17.175C138.421,17.597 138.398,17.597 138.398,18.019L138.398,18.841C138.398,19.219 138.421,19.219 138.421,19.597L138.421,20.33C138.421,20.597 138.443,20.886 138.443,21.152L138.443,21.975C138.443,22.263 138.421,22.53 138.421,22.797L138.421,24.463C138.421,24.73 138.398,24.997 138.398,25.286ZM141.687,15.575C141.687,15.152 141.71,14.73 141.798,14.33C141.865,14.041 141.976,13.775 142.11,13.552C142.287,13.33 142.51,13.175 142.754,13.041C142.976,12.908 143.221,12.797 143.51,12.775C143.798,12.73 144.087,12.686 144.376,12.686C144.665,12.663 144.932,12.619 145.221,12.619C145.51,12.641 145.798,12.708 146.065,12.752C146.354,12.797 146.643,12.797 146.932,12.863L147.732,13.13C147.998,13.241 148.243,13.397 148.51,13.53C148.776,13.686 149.043,13.797 149.287,13.952C149.532,14.13 149.776,14.308 149.976,14.508C150.198,14.708 150.376,14.952 150.576,15.197C150.754,15.419 150.91,15.663 151.065,15.93C151.198,16.175 151.376,16.441 151.465,16.708C151.576,16.997 151.621,17.286 151.687,17.597C151.732,17.886 151.71,18.175 151.732,18.486C151.754,18.752 151.776,19.041 151.754,19.286C151.754,19.575 151.71,19.841 151.665,20.108C151.621,20.375 151.487,20.619 151.421,20.863C151.332,21.13 151.265,21.375 151.132,21.619C151.021,21.886 150.865,22.13 150.71,22.352C150.554,22.597 150.421,22.841 150.221,23.041C150.021,23.263 149.798,23.441 149.576,23.619C149.354,23.775 149.11,23.908 148.865,24.063C148.643,24.175 148.465,24.33 148.221,24.419C148.021,24.508 147.798,24.619 147.554,24.708C147.332,24.775 147.087,24.797 146.843,24.841C146.532,24.93 146.243,24.997 145.954,25.041C145.621,25.086 145.332,25.108 145.021,25.13C144.71,25.152 144.398,25.152 144.11,25.13C143.732,25.108 143.421,25.041 143.132,24.93C142.821,24.819 142.554,24.619 142.332,24.375C142.11,24.152 141.91,23.908 141.798,23.597C141.71,23.308 141.687,22.997 141.687,22.641C141.665,22.375 141.665,22.13 141.665,21.863C141.643,21.619 141.687,21.352 141.687,21.108C141.687,20.886 141.643,20.686 141.621,20.486C141.621,20.13 141.643,19.752 141.643,19.397C141.643,19.375 141.665,19.375 141.665,19.352C141.665,18.997 141.643,18.997 141.643,18.641C141.643,18.308 141.621,18.308 141.621,17.952C141.621,17.686 141.643,17.419 141.643,17.152C141.643,16.886 141.665,16.641 141.665,16.375C141.665,16.108 141.687,15.841 141.687,15.575Z" style="fill:white;fill-rule:nonzero;"/>
        <path d="M73.287,59.108C73.332,59.108 73.376,59.108 73.421,59.086C73.665,59.086 73.91,58.997 74.11,58.841C74.287,58.708 74.465,58.508 74.554,58.241C74.643,58.019 74.598,57.752 74.51,57.508C74.421,57.286 74.31,57.041 74.11,56.886C73.954,56.775 73.776,56.663 73.554,56.575C73.243,56.441 72.91,56.352 72.465,56.175C72.421,56.152 72.421,56.108 72.376,56.086C72.176,55.997 71.954,55.952 71.776,55.863C71.554,55.775 71.376,55.663 71.198,55.53C70.954,55.352 70.71,55.175 70.487,54.997C70.265,54.797 70.087,54.552 69.887,54.352C69.687,54.13 69.443,53.93 69.287,53.708C69.087,53.463 68.932,53.219 68.798,52.952C68.643,52.708 68.51,52.441 68.398,52.175C68.287,51.93 68.221,51.686 68.132,51.441C68.065,51.197 67.932,50.975 67.843,50.73C67.754,50.508 67.732,50.241 67.643,49.997C67.576,49.752 67.51,49.508 67.421,49.263L67.376,49.13C67.265,48.797 67.154,48.486 67.043,48.197C66.91,47.863 66.865,47.53 66.732,47.241C66.598,46.93 66.421,46.641 66.265,46.375C66.11,46.108 65.998,45.841 65.843,45.597C65.687,45.308 65.487,45.041 65.332,44.752C65.176,44.463 65.087,44.175 65.065,43.908C65.043,43.597 65.065,43.308 65.176,43.019C65.265,42.752 65.465,42.53 65.665,42.308C65.976,41.997 66.265,41.663 66.576,41.375C66.687,41.241 66.687,41.219 66.821,41.108C67.021,40.886 67.265,40.708 67.421,40.441C67.576,40.219 67.643,39.908 67.754,39.619C67.843,39.375 67.976,39.13 68.021,38.863C68.087,38.619 68.087,38.352 68.11,38.086C68.132,37.819 68.132,37.552 68.132,37.286C68.11,37.019 68.11,36.752 68.065,36.463C68.021,36.152 67.91,35.863 67.821,35.575C67.71,35.286 67.621,34.975 67.487,34.708C67.332,34.441 67.11,34.197 66.91,33.975C66.71,33.752 66.443,33.575 66.198,33.397C65.954,33.219 65.71,33.019 65.421,32.886C65.132,32.775 64.843,32.686 64.532,32.597C64.243,32.508 63.954,32.419 63.643,32.352C63.332,32.308 63.021,32.286 62.71,32.263C62.398,32.241 62.11,32.219 61.776,32.219C61.487,32.219 61.221,32.152 60.932,32.152C60.665,32.13 60.376,32.152 60.11,32.152C59.821,32.152 59.532,32.175 59.265,32.175C58.976,32.175 58.71,32.152 58.421,32.152C57.998,32.152 57.576,32.197 57.154,32.197C56.843,32.197 56.487,32.152 56.132,32.263C55.754,32.375 55.421,32.552 55.198,32.797C54.954,33.063 54.865,33.419 54.798,33.797C54.754,34.063 54.71,34.33 54.687,34.619C54.665,34.886 54.621,35.152 54.621,35.441C54.621,35.73 54.665,36.019 54.665,36.286L54.665,37.152C54.665,37.441 54.598,37.708 54.598,37.997C54.598,38.286 54.665,38.575 54.665,38.863C54.665,39.13 54.621,39.419 54.621,39.708C54.621,40.108 54.643,40.108 54.643,40.508C54.643,40.908 54.621,40.908 54.621,41.286C54.621,41.686 54.643,41.686 54.643,42.086L54.643,42.863C54.643,43.152 54.621,43.441 54.621,43.73C54.621,44.019 54.687,44.308 54.687,44.597L54.687,45.486C54.687,45.775 54.598,46.063 54.598,46.352C54.598,46.641 54.621,46.93 54.621,47.219C54.621,47.508 54.643,47.797 54.687,48.063C54.71,48.352 54.754,48.619 54.821,48.908C54.887,49.219 55.043,49.486 55.243,49.686C55.443,49.886 55.732,50.019 56.043,50.086C56.332,50.13 56.576,50.13 56.821,50.041C57.065,49.952 57.31,49.819 57.465,49.619C57.621,49.419 57.71,49.152 57.776,48.886C57.843,48.486 57.821,48.108 57.821,47.775C57.798,47.463 57.821,47.13 57.865,46.775C57.887,46.463 57.998,46.13 58.065,45.775C58.132,45.397 58.287,45.086 58.554,44.863C58.798,44.619 59.11,44.441 59.487,44.419C59.776,44.375 60.087,44.441 60.421,44.575C60.71,44.663 60.976,44.752 61.198,44.886C61.465,45.041 61.665,45.219 61.887,45.397C62.11,45.575 62.31,45.775 62.51,45.952C62.71,46.175 62.932,46.352 63.11,46.552C63.31,46.797 63.487,47.041 63.643,47.286C63.821,47.552 63.932,47.841 64.065,48.108C64.198,48.397 64.354,48.663 64.443,48.952C64.576,49.241 64.687,49.53 64.776,49.797C64.865,50.086 64.91,50.397 64.976,50.663C65.065,50.997 65.176,51.352 65.287,51.686C65.398,51.975 65.487,52.286 65.598,52.575C65.71,52.863 65.843,53.13 65.976,53.419C66.11,53.708 66.243,53.975 66.376,54.263L66.843,55.063C67.021,55.308 67.198,55.552 67.398,55.775C67.576,56.019 67.732,56.286 67.932,56.508C68.154,56.708 68.376,56.908 68.621,57.086C68.843,57.286 69.11,57.441 69.354,57.619C69.598,57.797 69.865,57.93 70.132,58.063C70.398,58.197 70.665,58.33 70.932,58.441C71.221,58.552 71.487,58.708 71.776,58.775C72.065,58.863 72.354,58.908 72.665,58.975C72.887,59.019 73.087,59.108 73.287,59.108ZM64.443,38.041C64.354,38.375 64.243,38.641 64.087,38.908C63.91,39.152 63.71,39.375 63.421,39.575C63.176,39.73 62.91,39.863 62.576,39.975C62.31,40.063 62.021,40.197 61.665,40.241C61.398,40.263 61.065,40.241 60.732,40.241L60.71,40.241C60.398,40.263 59.976,40.241 59.421,40.108C59.11,40.019 58.843,39.841 58.643,39.619C58.421,39.419 58.243,39.175 58.132,38.863C58.043,38.552 57.998,38.263 57.976,37.952C57.932,37.641 57.91,37.33 57.954,37.041C57.976,36.73 58.11,36.463 58.198,36.175C58.332,35.797 58.487,35.486 58.754,35.263C58.998,35.041 59.332,34.886 59.71,34.819C60.065,34.73 60.421,34.686 60.776,34.686C61.132,34.686 61.465,34.752 61.821,34.819C62.154,34.908 62.51,34.952 62.843,35.108C63.132,35.219 63.376,35.419 63.598,35.597C63.843,35.797 64.043,36.041 64.198,36.286C64.354,36.552 64.465,36.819 64.51,37.13C64.554,37.419 64.51,37.708 64.443,38.041Z" style="fill:white;fill-rule:nonzero;"/>
        <path d="M70.843,50.219C71.087,50.241 71.31,50.241 71.554,50.241C71.576,50.241 71.576,50.263 71.598,50.263C71.887,50.263 72.154,50.241 72.421,50.241C72.687,50.241 72.954,50.286 73.221,50.286C73.532,50.286 73.843,50.263 74.154,50.263L75.043,50.263C75.487,50.263 75.487,50.241 75.932,50.241C76.376,50.241 76.376,50.286 76.821,50.286C77.287,50.286 77.287,50.263 77.732,50.263C78.176,50.263 78.176,50.286 78.621,50.286L78.665,50.286C78.71,50.286 78.754,50.263 78.798,50.263C78.91,50.263 78.91,50.263 79.043,50.263L79.687,50.197C80.021,50.152 80.332,50.019 80.576,49.797C80.91,49.486 81.11,49.063 81.065,48.641C80.998,48.219 80.687,47.886 80.265,47.686C80.065,47.597 79.887,47.53 79.687,47.486C79.421,47.441 79.176,47.375 78.932,47.352C78.665,47.33 78.421,47.308 78.176,47.308L77.198,47.308C76.887,47.308 76.554,47.375 76.243,47.375C75.843,47.375 75.465,47.308 75.065,47.308C74.998,47.308 74.91,47.352 74.843,47.352C74.354,47.352 73.932,47.286 73.576,47.152C73.265,47.041 73.021,46.863 72.798,46.663C72.576,46.463 72.443,46.197 72.332,45.886C72.198,45.53 72.132,45.219 72.132,44.952C72.154,44.619 72.132,44.308 72.176,44.063C72.265,43.752 72.398,43.486 72.576,43.263C72.732,43.041 72.954,42.863 73.243,42.708C73.465,42.597 73.754,42.486 74.065,42.441C74.354,42.397 74.621,42.397 74.887,42.375C75.176,42.33 75.443,42.352 75.71,42.352C76.021,42.352 76.332,42.286 76.643,42.286C76.954,42.286 77.243,42.352 77.554,42.352C77.687,42.352 77.687,42.33 77.821,42.33C78.065,42.33 78.287,42.286 78.532,42.241C78.776,42.197 78.998,42.13 79.198,42.041C79.421,41.93 79.621,41.797 79.754,41.619C79.887,41.419 80.021,41.219 80.021,40.952C80.021,40.686 79.887,40.463 79.754,40.241C79.598,40.063 79.421,39.908 79.154,39.797C78.887,39.663 78.621,39.619 78.421,39.575C78.198,39.552 77.998,39.486 77.798,39.486C77.754,39.486 77.754,39.552 77.71,39.552C77.465,39.552 77.198,39.508 76.954,39.508L76.176,39.508C75.91,39.508 75.665,39.486 75.398,39.486C75.043,39.486 74.732,39.508 74.421,39.463C74.087,39.419 73.776,39.375 73.487,39.263C73.221,39.175 72.998,39.041 72.821,38.886C72.643,38.708 72.554,38.486 72.443,38.263C72.354,38.041 72.265,37.819 72.243,37.552C72.243,37.441 72.265,37.33 72.265,37.219C72.265,37.152 72.221,37.063 72.221,36.997C72.221,36.641 72.287,36.308 72.421,36.019C72.554,35.708 72.798,35.463 73.087,35.263C73.354,35.108 73.687,35.041 74.043,34.975C74.376,34.93 74.665,34.863 74.976,34.841C75.287,34.797 75.598,34.797 75.91,34.797L76.643,34.797C76.887,34.797 77.11,34.775 77.354,34.775C77.598,34.775 77.843,34.841 78.087,34.841C78.332,34.841 78.332,34.752 78.598,34.752C78.954,34.752 79.354,34.752 79.776,34.552C79.998,34.441 80.154,34.286 80.287,34.108C80.421,33.908 80.554,33.708 80.576,33.486C80.598,33.263 80.532,33.019 80.398,32.775C80.287,32.597 80.11,32.463 79.843,32.308C79.621,32.175 79.398,32.063 79.221,32.019C78.998,31.952 78.776,31.975 78.554,31.952C78.332,31.93 78.11,31.908 77.887,31.908C77.598,31.908 77.31,31.863 77.021,31.863C76.732,31.863 76.465,31.886 76.176,31.886C75.887,31.886 75.598,31.908 75.31,31.908C75.021,31.908 74.732,31.863 74.465,31.863C74.176,31.863 73.887,31.841 73.598,31.841C73.31,31.841 73.021,31.863 72.732,31.863C72.465,31.863 72.176,31.908 71.887,31.908L71.865,31.908C71.621,31.908 71.354,31.886 71.11,31.93C70.843,31.952 70.598,32.019 70.376,32.063C69.998,32.152 69.643,32.263 69.421,32.508C69.176,32.752 69.043,33.086 68.954,33.463C68.91,33.73 68.887,34.019 68.887,34.33C68.887,34.641 68.843,34.93 68.843,35.241C68.843,35.53 68.865,35.819 68.865,36.13C68.865,36.419 68.843,36.73 68.843,37.019L68.843,37.93C68.843,38.219 68.887,38.53 68.887,38.819C68.887,39.108 68.865,39.419 68.865,39.708C68.865,40.019 68.887,40.308 68.887,40.619L68.887,41.508C68.887,41.797 68.821,42.108 68.821,42.397C68.821,42.708 68.91,42.997 68.91,43.308C68.91,43.597 68.887,43.908 68.887,44.197C68.887,44.486 68.91,44.797 68.91,45.086C68.91,45.397 68.843,45.686 68.843,45.997C68.843,46.286 68.821,46.597 68.821,46.886C68.821,47.197 68.91,47.486 68.91,47.775C68.91,47.997 68.843,48.175 68.865,48.352C68.91,48.708 69.043,49.019 69.198,49.263C69.376,49.575 69.598,49.797 69.887,49.975C70.154,50.108 70.487,50.197 70.843,50.219Z" style="fill:white;fill-rule:nonzero;"/>
        <path d="M82.576,45.019L82.91,45.775C83.043,46.041 83.243,46.241 83.398,46.463C83.554,46.708 83.71,46.93 83.887,47.152C84.065,47.375 84.243,47.575 84.443,47.775C84.643,47.975 84.843,48.175 85.065,48.352C85.265,48.53 85.487,48.708 85.71,48.863C85.932,49.019 86.176,49.152 86.421,49.286C86.665,49.419 86.91,49.508 87.154,49.619C87.421,49.73 87.665,49.819 87.932,49.908C88.176,49.997 88.443,50.086 88.71,50.152C88.976,50.219 89.221,50.308 89.51,50.352C89.776,50.397 90.043,50.397 90.332,50.441C90.576,50.463 90.865,50.53 91.132,50.552C91.398,50.575 91.687,50.53 91.954,50.53C92.243,50.53 92.532,50.53 92.821,50.508C93.11,50.486 93.398,50.441 93.665,50.397L94.021,50.352C94.376,50.308 94.71,50.263 95.021,50.308C95.376,50.33 95.687,50.419 95.998,50.53C96.31,50.641 96.576,50.819 96.865,51.019C97.087,51.175 97.354,51.33 97.643,51.441C97.843,51.53 98.021,51.575 98.198,51.575C98.421,51.575 98.598,51.463 98.776,51.352C99.11,51.13 99.354,50.819 99.376,50.375C99.376,49.997 99.287,49.641 99.221,49.33C99.154,49.041 99.132,48.752 99.176,48.463C99.198,48.197 99.31,47.908 99.443,47.641C99.554,47.375 99.687,47.108 99.843,46.841C99.976,46.575 100.132,46.33 100.287,46.063C100.31,45.997 100.287,45.997 100.332,45.93C100.465,45.686 100.554,45.419 100.665,45.197C100.798,44.93 100.91,44.686 100.998,44.441C101.087,44.175 101.132,43.908 101.198,43.663C101.265,43.397 101.332,43.13 101.376,42.863C101.421,42.552 101.465,42.241 101.487,41.93C101.51,41.597 101.598,41.286 101.598,40.975C101.598,40.641 101.598,40.33 101.576,40.019C101.554,39.686 101.51,39.375 101.465,39.063L101.265,38.152C101.198,37.841 101.021,37.575 100.932,37.286C100.821,36.997 100.71,36.708 100.576,36.419C100.443,36.152 100.332,35.863 100.176,35.597C100.021,35.33 99.843,35.063 99.665,34.819C99.465,34.575 99.221,34.397 98.998,34.175C98.776,33.952 98.576,33.775 98.332,33.575C98.11,33.397 97.91,33.152 97.687,32.997C97.421,32.819 97.176,32.686 96.91,32.552C96.643,32.397 96.398,32.263 96.11,32.13C95.843,32.019 95.576,31.93 95.287,31.841C94.998,31.752 94.71,31.663 94.421,31.619C94.198,31.552 93.976,31.552 93.71,31.508C93.51,31.486 93.287,31.397 93.021,31.375C92.732,31.33 92.443,31.33 92.176,31.33C91.887,31.308 91.598,31.352 91.332,31.352C91.043,31.352 90.754,31.352 90.465,31.375C90.198,31.419 89.91,31.375 89.621,31.441C89.354,31.486 89.087,31.597 88.798,31.663C88.532,31.73 88.265,31.841 87.998,31.93C87.732,32.019 87.465,32.086 87.198,32.197C86.932,32.33 86.643,32.419 86.398,32.552C86.154,32.708 85.887,32.841 85.643,32.997C85.398,33.175 85.176,33.33 84.954,33.53C84.732,33.708 84.554,33.952 84.354,34.175C84.154,34.375 83.932,34.552 83.754,34.797C83.576,35.019 83.443,35.286 83.287,35.53C83.132,35.775 82.998,36.019 82.865,36.286C82.71,36.575 82.576,36.863 82.465,37.152C82.354,37.463 82.221,37.752 82.132,38.041C82.065,38.352 82.065,38.686 81.998,38.997L81.865,39.93C81.843,40.241 81.754,40.552 81.732,40.863L81.776,40.886L81.776,40.908C81.798,41.197 81.798,41.486 81.821,41.752C81.843,42.041 81.91,42.308 81.954,42.575C81.998,42.863 82.021,43.152 82.065,43.419C82.132,43.686 82.265,43.952 82.332,44.219C82.421,44.486 82.465,44.752 82.576,45.019ZM85.287,40.863C85.287,40.552 85.31,40.263 85.332,39.975C85.354,39.686 85.354,39.375 85.421,39.086C85.487,38.819 85.576,38.552 85.687,38.286C85.776,38.019 85.91,37.752 86.043,37.508C86.176,37.263 86.332,37.019 86.51,36.797C86.665,36.575 86.865,36.375 87.065,36.175C87.265,35.975 87.465,35.752 87.687,35.575C87.91,35.419 88.132,35.241 88.376,35.086C88.621,34.952 88.865,34.819 89.132,34.708C89.398,34.597 89.665,34.508 89.932,34.441C90.221,34.352 90.487,34.352 90.776,34.308C91.065,34.286 91.332,34.219 91.621,34.219C92.021,34.219 92.421,34.308 92.843,34.375C93.154,34.441 93.465,34.463 93.754,34.552C94.043,34.641 94.332,34.775 94.598,34.908C94.887,35.041 95.154,35.175 95.398,35.352C95.665,35.53 95.91,35.708 96.132,35.93C96.354,36.13 96.576,36.352 96.754,36.597C96.932,36.841 97.087,37.108 97.243,37.375C97.398,37.641 97.487,37.93 97.598,38.241C97.71,38.508 97.821,38.797 97.887,39.108C97.976,39.375 98.021,39.663 98.043,39.93C98.087,40.219 98.176,40.486 98.198,40.775C98.198,41.041 98.11,41.33 98.087,41.597C98.065,41.886 98.065,42.175 97.998,42.441C97.932,42.708 97.865,42.997 97.776,43.263C97.754,43.352 97.687,43.419 97.665,43.486C97.554,43.752 97.421,43.997 97.265,44.175C97.087,44.397 96.865,44.53 96.621,44.641C96.376,44.73 96.132,44.797 95.843,44.775C95.598,44.752 95.332,44.708 95.065,44.597C94.976,44.552 94.887,44.486 94.776,44.441C94.621,44.352 94.443,44.308 94.243,44.241C93.798,44.086 93.465,44.108 93.154,44.286C92.843,44.463 92.643,44.752 92.532,45.197C92.465,45.552 92.332,45.841 92.31,46.108C92.265,46.552 92.132,46.886 91.865,47.108C91.687,47.241 91.487,47.33 91.243,47.375C91.043,47.397 90.821,47.419 90.554,47.397C90.243,47.375 89.932,47.397 89.665,47.33C89.354,47.263 89.087,47.152 88.798,47.019C88.532,46.908 88.287,46.73 88.043,46.552C87.798,46.397 87.576,46.197 87.354,45.997C87.154,45.797 86.887,45.619 86.71,45.375C86.532,45.152 86.354,44.908 86.176,44.641C86.021,44.352 85.932,44.041 85.798,43.752C85.665,43.441 85.532,43.152 85.465,42.841C85.376,42.53 85.354,42.197 85.31,41.886C85.287,41.552 85.265,41.241 85.287,40.908L85.287,40.863Z" style="fill:white;fill-rule:nonzero;"/>
        <path d="M103.643,44.775C103.71,45.041 103.732,45.33 103.798,45.575C103.865,45.863 103.998,46.108 104.11,46.352C104.198,46.619 104.265,46.886 104.398,47.108C104.532,47.352 104.71,47.575 104.887,47.797C105.043,48.019 105.221,48.219 105.398,48.419C105.598,48.619 105.821,48.797 106.021,48.952C106.243,49.13 106.443,49.33 106.687,49.463C106.91,49.597 107.198,49.663 107.443,49.775C107.687,49.886 107.954,49.997 108.221,50.063C108.443,50.152 108.687,50.219 108.954,50.286C109.176,50.33 109.421,50.375 109.687,50.397L110.443,50.463C110.687,50.463 110.91,50.53 111.132,50.53C111.443,50.53 111.754,50.508 112.043,50.486C112.354,50.463 112.643,50.375 112.932,50.308C113.243,50.263 113.554,50.263 113.821,50.175C114.11,50.086 114.376,49.93 114.643,49.819C114.91,49.686 115.198,49.597 115.443,49.441C115.687,49.286 115.954,49.152 116.176,48.975C116.421,48.775 116.643,48.575 116.843,48.352C117.021,48.152 117.154,47.863 117.31,47.619C117.487,47.375 117.643,47.152 117.776,46.886C117.932,46.597 118.043,46.308 118.154,46.019C118.265,45.73 118.332,45.419 118.398,45.108C118.465,44.819 118.576,44.508 118.621,44.197C118.643,43.886 118.665,43.575 118.665,43.263C118.665,42.997 118.621,42.752 118.621,42.486C118.621,42.241 118.643,41.975 118.643,41.73C118.643,41.486 118.621,41.219 118.621,40.975C118.621,40.708 118.687,40.463 118.687,40.197C118.687,39.752 118.665,39.752 118.665,39.308C118.665,38.886 118.643,38.886 118.643,38.463L118.643,37.641C118.643,37.352 118.665,37.063 118.665,36.797C118.665,36.508 118.687,36.241 118.687,35.952C118.687,35.686 118.643,35.397 118.643,35.13C118.643,34.841 118.621,34.575 118.598,34.286C118.598,34.086 118.643,33.863 118.621,33.619C118.576,33.419 118.554,33.197 118.465,32.975C118.354,32.708 118.221,32.486 118.021,32.33C117.821,32.175 117.576,32.041 117.31,32.019C117.065,31.975 116.798,32.019 116.554,32.13C116.287,32.241 116.11,32.441 115.932,32.641C115.776,32.863 115.643,33.086 115.598,33.375L115.465,34.263C115.443,34.552 115.421,34.863 115.421,35.175L115.421,36.086C115.421,36.375 115.465,36.686 115.465,36.997C115.465,37.286 115.421,37.597 115.421,37.908C115.421,38.197 115.465,38.508 115.465,38.819C115.465,39.108 115.398,39.419 115.398,39.73C115.376,40.019 115.443,40.33 115.443,40.641C115.443,40.93 115.421,41.241 115.421,41.552C115.421,41.841 115.465,42.152 115.465,42.463C115.465,42.797 115.421,43.13 115.376,43.441C115.332,43.775 115.198,44.086 115.11,44.397C114.998,44.708 114.887,45.019 114.732,45.308C114.598,45.575 114.487,45.841 114.31,46.041C114.11,46.263 113.865,46.441 113.643,46.597C113.421,46.797 113.198,46.975 112.954,47.108C112.687,47.219 112.421,47.308 112.132,47.375C111.865,47.441 111.576,47.508 111.287,47.53C110.998,47.53 110.71,47.552 110.421,47.508C110.154,47.486 109.865,47.375 109.598,47.286C109.332,47.175 109.087,47.019 108.843,46.886C108.598,46.73 108.332,46.597 108.11,46.397C107.91,46.197 107.754,45.93 107.598,45.686C107.443,45.463 107.332,45.197 107.198,44.908C107.087,44.641 106.91,44.397 106.843,44.086C106.754,43.819 106.71,43.508 106.665,43.219C106.643,42.93 106.643,42.619 106.643,42.308C106.643,42.019 106.665,41.708 106.665,41.419C106.665,41.13 106.621,40.819 106.621,40.53C106.621,40.219 106.665,39.93 106.665,39.619L106.665,38.73C106.665,38.441 106.598,38.13 106.598,37.841C106.598,37.552 106.598,37.241 106.598,36.952L106.598,36.041C106.598,35.752 106.643,35.463 106.643,35.152C106.643,34.863 106.598,34.575 106.576,34.263C106.554,33.975 106.532,33.686 106.465,33.352C106.398,33.019 106.265,32.708 106.043,32.486C105.821,32.263 105.51,32.13 105.176,32.086C104.798,32.041 104.487,32.13 104.221,32.308C103.954,32.463 103.665,32.708 103.532,33.063C103.465,33.263 103.465,33.508 103.443,33.708C103.421,33.93 103.421,34.152 103.421,34.375C103.421,34.397 103.443,34.397 103.443,34.441C103.443,34.752 103.376,35.041 103.376,35.352C103.376,35.663 103.421,35.952 103.421,36.263C103.421,36.575 103.398,36.863 103.398,37.175C103.398,37.463 103.421,37.752 103.421,38.063C103.443,38.352 103.398,38.641 103.398,38.93C103.398,39.219 103.443,39.53 103.443,39.819C103.443,40.108 103.421,40.397 103.421,40.708C103.421,40.997 103.465,41.286 103.465,41.575C103.465,41.886 103.376,42.175 103.376,42.463C103.376,42.73 103.398,42.997 103.421,43.241C103.421,43.508 103.487,43.752 103.51,44.019C103.532,44.263 103.598,44.53 103.643,44.775Z" style="fill:white;fill-rule:nonzero;"/>
        <path d="M121.598,50.219C121.843,50.241 122.065,50.241 122.31,50.241C122.332,50.241 122.332,50.263 122.354,50.263C122.643,50.263 122.91,50.241 123.176,50.241C123.443,50.241 123.71,50.286 123.976,50.286C124.287,50.286 124.598,50.263 124.91,50.263L125.798,50.263C126.243,50.263 126.243,50.241 126.687,50.241C127.132,50.241 127.132,50.286 127.576,50.286C128.043,50.286 128.043,50.263 128.487,50.263C128.932,50.263 128.932,50.286 129.376,50.286L129.421,50.286C129.465,50.286 129.51,50.263 129.554,50.263C129.665,50.263 129.665,50.263 129.798,50.263L130.443,50.197C130.776,50.152 131.087,50.019 131.332,49.797C131.665,49.486 131.865,49.063 131.821,48.641C131.754,48.219 131.443,47.886 131.021,47.686C130.821,47.597 130.643,47.53 130.443,47.486C130.176,47.441 129.932,47.375 129.687,47.352C129.421,47.33 129.176,47.308 128.932,47.308L127.954,47.308C127.643,47.308 127.31,47.375 126.998,47.375C126.598,47.375 126.221,47.308 125.821,47.308C125.754,47.308 125.665,47.352 125.598,47.352C125.11,47.352 124.687,47.286 124.332,47.152C124.021,47.041 123.776,46.863 123.554,46.663C123.332,46.463 123.198,46.197 123.087,45.886C122.954,45.53 122.887,45.219 122.887,44.952C122.91,44.619 122.887,44.308 122.932,44.063C123.021,43.752 123.154,43.486 123.332,43.263C123.487,43.041 123.71,42.863 123.998,42.708C124.221,42.597 124.51,42.486 124.821,42.441C125.11,42.397 125.376,42.397 125.643,42.375C125.932,42.33 126.198,42.352 126.465,42.352C126.776,42.352 127.087,42.286 127.398,42.286C127.71,42.286 127.998,42.352 128.31,42.352C128.443,42.352 128.443,42.33 128.576,42.33C128.821,42.33 129.043,42.286 129.287,42.241C129.532,42.197 129.754,42.13 129.954,42.041C130.176,41.93 130.376,41.797 130.51,41.619C130.643,41.419 130.776,41.219 130.776,40.952C130.776,40.686 130.643,40.463 130.51,40.241C130.354,40.063 130.176,39.908 129.91,39.797C129.643,39.663 129.376,39.619 129.176,39.575C128.954,39.552 128.754,39.486 128.554,39.486C128.51,39.486 128.51,39.552 128.465,39.552C128.221,39.552 127.954,39.508 127.71,39.508L126.932,39.508C126.665,39.508 126.421,39.486 126.154,39.486C125.798,39.486 125.487,39.508 125.176,39.463C124.843,39.419 124.532,39.375 124.243,39.263C123.976,39.175 123.754,39.041 123.576,38.886C123.398,38.708 123.31,38.486 123.198,38.263C123.11,38.041 123.021,37.819 122.998,37.552C122.998,37.441 123.021,37.33 123.021,37.219C123.021,37.152 122.976,37.063 122.976,36.997C122.976,36.641 123.043,36.308 123.176,36.019C123.31,35.708 123.554,35.463 123.843,35.263C124.11,35.108 124.443,35.041 124.798,34.975C125.132,34.93 125.421,34.863 125.732,34.841C126.043,34.797 126.354,34.797 126.665,34.797L127.398,34.797C127.643,34.797 127.865,34.775 128.11,34.775C128.354,34.775 128.598,34.841 128.843,34.841C129.087,34.841 129.087,34.752 129.354,34.752C129.71,34.752 130.11,34.752 130.532,34.552C130.754,34.441 130.91,34.286 131.043,34.108C131.176,33.908 131.31,33.708 131.332,33.486C131.354,33.263 131.287,33.019 131.154,32.775C131.043,32.597 130.865,32.463 130.598,32.308C130.376,32.175 130.154,32.063 129.976,32.019C129.754,31.952 129.532,31.975 129.31,31.952C129.087,31.93 128.865,31.908 128.643,31.908C128.354,31.908 128.065,31.863 127.776,31.863C127.487,31.863 127.221,31.886 126.932,31.886C126.643,31.886 126.354,31.908 126.065,31.908C125.776,31.908 125.487,31.863 125.221,31.863C124.932,31.863 124.643,31.841 124.354,31.841C124.065,31.841 123.776,31.863 123.487,31.863C123.221,31.863 122.932,31.908 122.643,31.908L122.621,31.908C122.376,31.908 122.11,31.886 121.865,31.93C121.598,31.952 121.354,32.019 121.132,32.063C120.754,32.152 120.398,32.263 120.176,32.508C119.932,32.752 119.798,33.086 119.71,33.463C119.665,33.73 119.643,34.019 119.643,34.33C119.643,34.641 119.598,34.93 119.598,35.241C119.598,35.53 119.621,35.819 119.621,36.13C119.621,36.419 119.598,36.73 119.598,37.019L119.598,37.93C119.598,38.219 119.643,38.53 119.643,38.819C119.643,39.108 119.621,39.419 119.621,39.708C119.621,40.019 119.643,40.308 119.643,40.619L119.643,41.508C119.643,41.797 119.576,42.108 119.576,42.397C119.576,42.708 119.665,42.997 119.665,43.308C119.665,43.597 119.643,43.908 119.643,44.197C119.643,44.486 119.665,44.797 119.665,45.086C119.665,45.397 119.598,45.686 119.598,45.997C119.598,46.286 119.576,46.597 119.576,46.886C119.576,47.197 119.665,47.486 119.665,47.775C119.665,47.997 119.598,48.175 119.621,48.352C119.665,48.708 119.798,49.019 119.954,49.263C120.132,49.575 120.354,49.797 120.643,49.975C120.91,50.108 121.243,50.197 121.598,50.219Z" style="fill:white;fill-rule:nonzero;"/>
        <path d="M144.376,46.241C144.465,45.93 144.465,45.597 144.465,45.308C144.487,44.975 144.51,44.663 144.51,44.375C144.487,44.041 144.421,43.73 144.354,43.419C144.265,43.108 144.221,42.775 144.065,42.508C143.91,42.219 143.687,41.975 143.465,41.73C143.265,41.486 143.021,41.263 142.754,41.086C142.465,40.886 142.198,40.708 141.91,40.575C141.621,40.419 141.31,40.308 141.021,40.219C140.687,40.108 140.376,39.93 140.043,39.819C139.665,39.686 139.287,39.597 138.91,39.463C138.687,39.397 138.443,39.286 138.198,39.197C137.976,39.086 137.776,38.93 137.576,38.797C137.265,38.619 136.998,38.463 136.798,38.263C136.554,38.041 136.354,37.797 136.243,37.53C136.132,37.263 136.087,36.975 136.087,36.708C136.087,36.441 136.132,36.152 136.221,35.908C136.332,35.663 136.487,35.419 136.665,35.219C136.843,35.019 137.087,34.886 137.332,34.752C137.576,34.619 137.821,34.53 138.065,34.463C138.332,34.397 138.576,34.33 138.843,34.308C139.11,34.308 139.376,34.263 139.643,34.286C139.754,34.308 139.732,34.352 139.843,34.375C140.132,34.419 140.421,34.486 140.732,34.53C141.065,34.552 141.443,34.486 141.865,34.486C142.11,34.486 142.354,34.463 142.554,34.352C142.754,34.241 142.91,34.063 143.065,33.841C143.243,33.597 143.332,33.352 143.31,33.086C143.31,32.819 143.198,32.575 142.976,32.352C142.821,32.197 142.621,32.086 142.443,31.975C142.243,31.863 142.065,31.708 141.865,31.641C141.576,31.575 141.265,31.552 140.954,31.508C140.665,31.441 140.354,31.397 140.065,31.375C139.754,31.352 139.443,31.286 139.154,31.286C138.843,31.286 138.532,31.352 138.243,31.397C137.932,31.441 137.621,31.441 137.332,31.508C137.043,31.575 136.754,31.73 136.465,31.819C136.198,31.908 135.91,32.019 135.621,32.152C135.376,32.263 135.154,32.397 134.932,32.53C134.71,32.663 134.465,32.797 134.287,32.952C134.065,33.13 133.865,33.308 133.71,33.508C133.51,33.708 133.398,33.975 133.243,34.197C133.11,34.441 132.932,34.663 132.821,34.93C132.71,35.175 132.71,35.463 132.643,35.752C132.576,36.019 132.532,36.286 132.51,36.575C132.487,36.841 132.487,37.108 132.487,37.397C132.51,37.73 132.554,38.041 132.643,38.33C132.732,38.641 132.91,38.908 133.065,39.175C133.221,39.441 133.398,39.708 133.621,39.93C133.843,40.175 134.087,40.397 134.376,40.597C134.643,40.775 134.91,40.975 135.221,41.13C135.51,41.263 135.821,41.397 136.154,41.508C136.398,41.619 136.621,41.752 136.865,41.841C137.11,41.93 137.376,41.997 137.621,42.086C137.821,42.152 138.021,42.263 138.221,42.33C138.421,42.419 138.643,42.486 138.843,42.552C139.176,42.686 139.487,42.819 139.776,43.019C140.065,43.219 140.332,43.441 140.554,43.708C140.754,43.93 140.887,44.197 140.954,44.486C141.043,44.775 141.087,45.086 141.065,45.375C141.021,45.686 140.887,45.952 140.732,46.197C140.532,46.463 140.31,46.686 140.087,46.863C139.843,47.063 139.576,47.263 139.287,47.375C139.021,47.463 138.732,47.441 138.443,47.486C138.176,47.508 137.91,47.575 137.621,47.552C137.354,47.53 137.087,47.441 136.798,47.375C136.532,47.33 136.287,47.263 136.021,47.175L135.665,47.041C135.398,46.975 135.154,46.997 134.91,46.975C134.643,46.952 134.398,46.952 134.154,46.997C133.865,47.063 133.598,47.152 133.398,47.33C133.221,47.508 133.043,47.752 132.954,48.041C132.887,48.33 132.976,48.575 133.065,48.797C133.176,49.086 133.421,49.286 133.51,49.375C133.643,49.486 133.798,49.575 133.954,49.663C134.154,49.775 134.354,49.886 134.554,49.975C134.776,50.063 134.954,50.197 135.176,50.241C135.421,50.308 135.687,50.308 135.954,50.352C136.221,50.397 136.465,50.463 136.732,50.486C136.998,50.508 137.265,50.441 137.532,50.441C137.732,50.441 137.954,50.463 138.176,50.463C138.265,50.463 138.265,50.419 138.332,50.419C138.443,50.419 138.554,50.486 138.687,50.486C138.976,50.463 139.265,50.441 139.554,50.397C139.865,50.352 140.132,50.263 140.421,50.175C140.71,50.086 140.954,49.93 141.221,49.797C141.465,49.663 141.754,49.597 141.976,49.463C142.221,49.308 142.398,49.108 142.621,48.93C142.843,48.752 143.065,48.597 143.243,48.397C143.421,48.197 143.554,47.952 143.687,47.708C143.843,47.486 143.998,47.263 144.11,47.019C144.221,46.752 144.31,46.508 144.376,46.241Z" style="fill:white;fill-rule:nonzero;"/>
        <path d="M150.332,36.175C150.443,36.53 150.465,36.908 150.465,37.397L150.465,38.263C150.465,38.53 150.443,38.819 150.443,39.108C150.443,39.397 150.487,39.663 150.487,39.952C150.487,40.241 150.465,40.53 150.465,40.797C150.465,41.241 150.51,41.241 150.51,41.686L150.51,42.552C150.51,42.997 150.465,42.997 150.465,43.419L150.465,45.108C150.465,45.397 150.487,45.663 150.465,45.952L150.465,46.797C150.465,47.086 150.487,47.375 150.51,47.663L150.643,48.508C150.71,48.886 150.843,49.241 151.087,49.486C151.354,49.708 151.71,49.819 152.087,49.819C152.11,49.819 152.132,49.841 152.154,49.841C152.532,49.841 152.843,49.708 153.087,49.486C153.332,49.286 153.51,48.975 153.598,48.597C153.643,48.397 153.687,48.197 153.687,47.93C153.71,47.641 153.665,47.352 153.665,47.041C153.665,46.597 153.687,46.597 153.687,46.152C153.687,45.73 153.643,45.73 153.643,45.286C153.643,44.975 153.687,44.686 153.687,44.397C153.687,44.086 153.665,43.797 153.665,43.508C153.665,43.197 153.687,42.908 153.687,42.619C153.687,42.308 153.732,42.019 153.732,41.73C153.732,41.419 153.665,41.13 153.665,40.841C153.665,40.53 153.643,40.241 153.643,39.952L153.643,39.063C153.643,38.752 153.71,38.463 153.71,38.175C153.71,37.908 153.732,37.641 153.754,37.33C153.776,37.086 153.754,36.797 153.798,36.508C153.843,36.152 153.998,35.886 154.132,35.619C154.31,35.352 154.487,35.086 154.754,34.908C154.998,34.752 155.31,34.663 155.665,34.575C155.776,34.552 155.91,34.53 156.065,34.53C156.132,34.508 156.198,34.486 156.265,34.486C156.398,34.463 156.532,34.441 156.665,34.441C156.954,34.397 157.265,34.375 157.576,34.33C157.887,34.263 158.221,34.175 158.421,33.975C158.665,33.752 158.798,33.441 158.798,33.152C158.798,32.841 158.621,32.575 158.376,32.352C158.154,32.152 157.865,31.997 157.554,31.975C157.398,31.952 157.421,31.863 157.265,31.841L156.532,31.775C156.287,31.752 156.021,31.73 155.776,31.73C155.51,31.73 155.221,31.752 154.954,31.752C154.687,31.752 154.398,31.73 154.132,31.73L153.31,31.73C153.021,31.73 152.754,31.775 152.465,31.775C152.198,31.775 151.932,31.752 151.643,31.752L150.821,31.752C150.554,31.752 150.265,31.775 149.998,31.775C149.732,31.775 149.443,31.797 149.176,31.797C148.887,31.797 148.621,31.775 148.354,31.775C148.332,31.775 148.332,31.752 148.332,31.752C148.043,31.752 147.754,31.752 147.465,31.775C147.176,31.819 146.91,31.886 146.621,31.93C146.265,31.975 145.998,32.13 145.776,32.33C145.554,32.552 145.376,32.863 145.398,33.175C145.421,33.486 145.554,33.797 145.776,33.997C145.976,34.175 146.265,34.263 146.598,34.308C146.821,34.352 147.021,34.419 147.243,34.441C147.465,34.486 147.71,34.486 147.91,34.508C148.221,34.552 148.532,34.552 148.821,34.641C149.087,34.73 149.31,34.841 149.487,34.975C149.71,35.108 149.843,35.33 149.976,35.53C150.11,35.73 150.265,35.93 150.332,36.175Z" style="fill:white;fill-rule:nonzero;"/>
        <path d="M171.576,46.241C171.665,45.93 171.665,45.597 171.665,45.308C171.687,44.975 171.71,44.663 171.71,44.375C171.687,44.041 171.621,43.73 171.554,43.419C171.465,43.108 171.421,42.775 171.265,42.508C171.11,42.219 170.887,41.975 170.665,41.73C170.465,41.486 170.221,41.263 169.954,41.086C169.665,40.886 169.398,40.708 169.11,40.575C168.821,40.419 168.51,40.308 168.221,40.219C167.887,40.108 167.576,39.93 167.243,39.819C166.865,39.686 166.487,39.597 166.11,39.463C165.887,39.397 165.643,39.286 165.398,39.197C165.176,39.086 164.976,38.93 164.776,38.797C164.465,38.619 164.198,38.463 163.998,38.263C163.754,38.041 163.554,37.797 163.443,37.53C163.332,37.263 163.287,36.975 163.287,36.708C163.287,36.441 163.332,36.152 163.421,35.908C163.532,35.663 163.687,35.419 163.865,35.219C164.043,35.019 164.287,34.886 164.532,34.752C164.776,34.619 165.021,34.53 165.265,34.463C165.532,34.397 165.776,34.33 166.043,34.308C166.31,34.308 166.576,34.263 166.843,34.286C166.954,34.308 166.932,34.352 167.043,34.375C167.332,34.419 167.621,34.486 167.932,34.53C168.265,34.552 168.643,34.486 169.065,34.486C169.31,34.486 169.554,34.463 169.754,34.352C169.954,34.241 170.11,34.063 170.265,33.841C170.443,33.597 170.532,33.352 170.51,33.086C170.51,32.819 170.398,32.575 170.176,32.352C170.021,32.197 169.821,32.086 169.643,31.975C169.443,31.863 169.265,31.708 169.065,31.641C168.776,31.575 168.465,31.552 168.154,31.508C167.865,31.441 167.554,31.397 167.265,31.375C166.954,31.352 166.643,31.286 166.354,31.286C166.043,31.286 165.732,31.352 165.443,31.397C165.132,31.441 164.821,31.441 164.532,31.508C164.243,31.575 163.954,31.73 163.665,31.819C163.398,31.908 163.11,32.019 162.821,32.152C162.576,32.263 162.354,32.397 162.132,32.53C161.91,32.663 161.665,32.797 161.487,32.952C161.265,33.13 161.065,33.308 160.91,33.508C160.71,33.708 160.598,33.975 160.443,34.197C160.31,34.441 160.132,34.663 160.021,34.93C159.91,35.175 159.91,35.463 159.843,35.752C159.776,36.019 159.732,36.286 159.71,36.575C159.687,36.841 159.687,37.108 159.687,37.397C159.71,37.73 159.754,38.041 159.843,38.33C159.932,38.641 160.11,38.908 160.265,39.175C160.421,39.441 160.598,39.708 160.821,39.93C161.043,40.175 161.287,40.397 161.576,40.597C161.843,40.775 162.11,40.975 162.421,41.13C162.71,41.263 163.021,41.397 163.354,41.508C163.598,41.619 163.821,41.752 164.065,41.841C164.31,41.93 164.576,41.997 164.821,42.086C165.021,42.152 165.221,42.263 165.421,42.33C165.621,42.419 165.843,42.486 166.043,42.552C166.376,42.686 166.687,42.819 166.976,43.019C167.265,43.219 167.532,43.441 167.754,43.708C167.954,43.93 168.087,44.197 168.154,44.486C168.243,44.775 168.287,45.086 168.265,45.375C168.221,45.686 168.087,45.952 167.932,46.197C167.732,46.463 167.51,46.686 167.287,46.863C167.043,47.063 166.776,47.263 166.487,47.375C166.221,47.463 165.932,47.441 165.643,47.486C165.376,47.508 165.11,47.575 164.821,47.552C164.554,47.53 164.287,47.441 163.998,47.375C163.732,47.33 163.487,47.263 163.221,47.175L162.865,47.041C162.598,46.975 162.354,46.997 162.11,46.975C161.843,46.952 161.598,46.952 161.354,46.997C161.065,47.063 160.798,47.152 160.598,47.33C160.421,47.508 160.243,47.752 160.154,48.041C160.087,48.33 160.176,48.575 160.265,48.797C160.376,49.086 160.621,49.286 160.71,49.375C160.843,49.486 160.998,49.575 161.154,49.663C161.354,49.775 161.554,49.886 161.754,49.975C161.976,50.063 162.154,50.197 162.376,50.241C162.621,50.308 162.887,50.308 163.154,50.352C163.421,50.397 163.665,50.463 163.932,50.486C164.198,50.508 164.465,50.441 164.732,50.441C164.932,50.441 165.154,50.463 165.376,50.463C165.465,50.463 165.465,50.419 165.532,50.419C165.643,50.419 165.754,50.486 165.887,50.486C166.176,50.463 166.465,50.441 166.754,50.397C167.065,50.352 167.332,50.263 167.621,50.175C167.91,50.086 168.154,49.93 168.421,49.797C168.665,49.663 168.954,49.597 169.176,49.463C169.421,49.308 169.598,49.108 169.821,48.93C170.043,48.752 170.265,48.597 170.443,48.397C170.621,48.197 170.754,47.952 170.887,47.708C171.043,47.486 171.198,47.263 171.31,47.019C171.421,46.752 171.51,46.508 171.576,46.241Z" style="fill:white;fill-rule:nonzero;"/>
    </g>
</svg>
