<?xml version="1.0" encoding="UTF-8" standalone="no"?><!DOCTYPE svg PUBLIC "-//W3C//DTD SVG 1.1//EN" "http://www.w3.org/Graphics/SVG/1.1/DTD/svg11.dtd"><svg width="100%" height="100%" viewBox="0 0 36 36" version="1.1" xmlns="http://www.w3.org/2000/svg" xmlns:xlink="http://www.w3.org/1999/xlink" xml:space="preserve" style="fill-rule:evenodd;clip-rule:evenodd;stroke-linejoin:round;stroke-miterlimit:1.41421;"><g><g><g><path d="M12.325,24.334c-1.374,0.287 -3.078,1.541 -3.233,3.911c-0.001,0.009 10.953,0.012 10.953,0c0.032,-2.348 -2.245,-3.705 -3.447,-3.911c-0.246,-0.042 -0.624,-0.31 -0.641,-0.748c-0.014,-0.351 1.51,-1.391 1.496,-3.312c-0.014,-1.921 -1.334,-3.555 -2.885,-3.525c-1.323,0.025 -2.932,1.467 -2.884,3.525c0.046,2.008 1.519,2.919 1.495,3.312c-0.029,0.495 -0.446,0.663 -0.854,0.748Z" style="fill:#dc3c39;"/></g></g><path d="M18.196,24.415c0.117,-0.036 0.947,-0.307 1,-0.33c0.464,-0.203 0.66,-0.322 0.685,-0.748c0.024,-0.394 -1.449,-1.305 -1.496,-3.312c-0.047,-2.059 1.562,-3.501 2.885,-3.526c1.551,-0.03 2.871,1.604 2.885,3.526c0.014,1.921 -1.51,2.961 -1.496,3.312c0.017,0.437 0.395,0.705 0.641,0.748c1.202,0.205 3.309,1.646 3.447,4.159c0.001,0.016 -3.167,0.007 -6.108,0c-0.061,-2.069 -1.502,-3.239 -2.443,-3.829Z" style="fill:#dc3c39;"/></g></svg>