<?xml version="1.0" encoding="UTF-8" standalone="no"?>
<!DOCTYPE svg PUBLIC "-//W3C//DTD SVG 1.1//EN" "http://www.w3.org/Graphics/SVG/1.1/DTD/svg11.dtd">
<svg width="100%" height="100%" viewBox="0 0 200 200" version="1.1" xmlns="http://www.w3.org/2000/svg" xmlns:xlink="http://www.w3.org/1999/xlink" xml:space="preserve" style="fill-rule:evenodd;clip-rule:evenodd;stroke-linejoin:round;stroke-miterlimit:1.41421;">
    <g transform="matrix(1,0,0,1,4,22)">
        <g transform="matrix(0.264443,0,0,0.264443,25.4164,24.7916)">
            <path d="M285.5,88C364.148,88 428,151.628 428,230C428,308.372 364.148,372 285.5,372C206.852,372 143,308.372 143,230C143,151.628 206.852,88 285.5,88ZM285.5,128.856C341.519,128.856 387,174.177 387,230C387,285.823 341.519,331.144 285.5,331.144C229.481,331.144 184,285.823 184,230C184,174.177 229.481,128.856 285.5,128.856Z" style="fill:white;"/>
        </g>
        <g transform="matrix(0.264443,0,0,0.264443,27.4164,22.7916)">
            <path d="M149,316L76,388L126,437L197,364C178.523,351.242 163.386,334.944 149,316Z" style="fill:white;"/>
        </g>
        <g transform="matrix(0.365174,0,0,0.365174,64.219,46.2101)">
            <g>
                <path d="M79,131C66.145,133.68 48.837,141.258 48.738,144.262C48.542,150.255 74.648,172.051 100,172C109.714,171.98 120.256,170.078 129.436,165.918C143.765,159.425 152.383,148.546 151.262,144.262C150.278,140.504 130.247,132.923 119,131C116.693,130.606 113.161,128.094 113,124C112.871,120.716 127.128,110.979 127,93C126.872,75.018 114.516,59.72 100,60C87.612,60.239 72.553,73.733 73,93C73.436,111.788 87.221,120.319 87,124C86.722,128.63 82.826,130.202 79,131Z" style="fill:white;"/>
            </g>
        </g>
    </g>
</svg>
