<?xml version="1.0" encoding="UTF-8" standalone="no"?>
<!DOCTYPE svg PUBLIC "-//W3C//DTD SVG 1.1//EN" "http://www.w3.org/Graphics/SVG/1.1/DTD/svg11.dtd">
<svg width="100%" height="100%" viewBox="0 0 200 200" version="1.1" xmlns="http://www.w3.org/2000/svg" xmlns:xlink="http://www.w3.org/1999/xlink" xml:space="preserve" style="fill-rule:evenodd;clip-rule:evenodd;stroke-linejoin:round;stroke-miterlimit:1.41421;">
    <g transform="matrix(1,0,0,1,39,31)">
        <path d="M27.528,19.943C27.617,19.632 27.617,19.299 27.617,19.01C27.639,18.677 27.661,18.366 27.661,18.077C27.639,17.743 27.573,17.432 27.506,17.121C27.417,16.81 27.373,16.477 27.217,16.21C27.061,15.921 26.839,15.677 26.617,15.432C26.417,15.188 26.173,14.966 25.906,14.788C25.617,14.588 25.35,14.41 25.061,14.277C24.773,14.121 24.461,14.01 24.173,13.921C23.839,13.81 23.528,13.632 23.195,13.521C22.817,13.388 22.439,13.299 22.061,13.166C21.839,13.099 21.595,12.988 21.35,12.899C21.128,12.788 20.928,12.632 20.728,12.499C20.417,12.321 20.15,12.166 19.95,11.966C19.706,11.743 19.506,11.499 19.395,11.232C19.284,10.966 19.239,10.677 19.239,10.41C19.239,10.143 19.284,9.855 19.373,9.61C19.484,9.366 19.639,9.121 19.817,8.921C19.995,8.721 20.239,8.588 20.484,8.455C20.728,8.321 20.973,8.232 21.217,8.166C21.484,8.099 21.728,8.032 21.995,8.01C22.261,8.01 22.528,7.966 22.795,7.988C22.906,8.01 22.884,8.055 22.995,8.077C23.284,8.121 23.573,8.188 23.884,8.232C24.217,8.255 24.595,8.188 25.017,8.188C25.261,8.188 25.506,8.166 25.706,8.055C25.906,7.943 26.061,7.766 26.217,7.543C26.395,7.299 26.484,7.055 26.461,6.788C26.461,6.521 26.35,6.277 26.128,6.055C25.973,5.899 25.773,5.788 25.595,5.677C25.395,5.566 25.217,5.41 25.017,5.343C24.728,5.277 24.417,5.255 24.106,5.21C23.817,5.143 23.506,5.099 23.217,5.077C22.906,5.055 22.595,4.988 22.306,4.988C21.995,4.988 21.684,5.055 21.395,5.099C21.084,5.143 20.773,5.143 20.484,5.21C20.195,5.277 19.906,5.432 19.617,5.521C19.35,5.61 19.061,5.721 18.773,5.855C18.528,5.966 18.306,6.099 18.084,6.232C17.861,6.366 17.617,6.499 17.439,6.655C17.217,6.832 17.017,7.01 16.861,7.21C16.661,7.41 16.55,7.677 16.395,7.899C16.261,8.143 16.084,8.366 15.973,8.632C15.861,8.877 15.861,9.166 15.795,9.455C15.728,9.721 15.684,9.988 15.661,10.277C15.639,10.543 15.639,10.81 15.639,11.099C15.661,11.432 15.706,11.743 15.795,12.032C15.884,12.343 16.061,12.61 16.217,12.877C16.373,13.143 16.55,13.41 16.773,13.632C16.995,13.877 17.239,14.099 17.528,14.299C17.795,14.477 18.061,14.677 18.373,14.832C18.661,14.966 18.973,15.099 19.306,15.21C19.55,15.321 19.773,15.455 20.017,15.543C20.261,15.632 20.528,15.699 20.773,15.788C20.973,15.855 21.173,15.966 21.373,16.032C21.573,16.121 21.795,16.188 21.995,16.255C22.328,16.388 22.639,16.521 22.928,16.721C23.217,16.921 23.484,17.143 23.706,17.41C23.906,17.632 24.039,17.899 24.106,18.188C24.195,18.477 24.239,18.788 24.217,19.077C24.173,19.388 24.039,19.655 23.884,19.899C23.684,20.166 23.461,20.388 23.239,20.566C22.995,20.766 22.728,20.966 22.439,21.077C22.173,21.166 21.884,21.143 21.595,21.188C21.328,21.21 21.061,21.277 20.773,21.255C20.506,21.232 20.239,21.143 19.95,21.077C19.684,21.032 19.439,20.966 19.173,20.877L18.817,20.743C18.55,20.677 18.306,20.699 18.061,20.677C17.795,20.655 17.55,20.655 17.306,20.699C17.017,20.766 16.75,20.855 16.55,21.032C16.373,21.21 16.195,21.455 16.106,21.743C16.039,22.032 16.128,22.277 16.217,22.499C16.328,22.788 16.573,22.988 16.661,23.077C16.795,23.188 16.95,23.277 17.106,23.366C17.306,23.477 17.506,23.588 17.706,23.677C17.928,23.766 18.106,23.899 18.328,23.943C18.573,24.01 18.839,24.01 19.106,24.055C19.373,24.099 19.617,24.166 19.884,24.188C20.15,24.21 20.417,24.143 20.684,24.143C20.884,24.143 21.106,24.166 21.328,24.166C21.417,24.166 21.417,24.121 21.484,24.121C21.595,24.121 21.706,24.188 21.839,24.188C22.128,24.166 22.417,24.143 22.706,24.099C23.017,24.055 23.284,23.966 23.573,23.877C23.861,23.788 24.106,23.632 24.373,23.499C24.617,23.366 24.906,23.299 25.128,23.166C25.373,23.01 25.55,22.81 25.773,22.632C25.995,22.455 26.217,22.299 26.395,22.099C26.573,21.899 26.706,21.655 26.839,21.41C26.995,21.188 27.15,20.966 27.261,20.721C27.373,20.455 27.461,20.21 27.528,19.943Z" style="fill:white;fill-rule:nonzero;"/>
        <path d="M30.573,23.921C30.817,23.943 31.039,23.943 31.284,23.943C31.306,23.943 31.306,23.966 31.328,23.966C31.617,23.966 31.884,23.943 32.15,23.943C32.417,23.943 32.684,23.988 32.95,23.988C33.261,23.988 33.573,23.966 33.884,23.966L34.773,23.966C35.217,23.966 35.217,23.943 35.661,23.943C36.106,23.943 36.106,23.988 36.55,23.988C37.017,23.988 37.017,23.966 37.461,23.966C37.906,23.966 37.906,23.988 38.35,23.988L38.395,23.988C38.439,23.988 38.484,23.966 38.528,23.966C38.639,23.966 38.639,23.966 38.773,23.966L39.417,23.899C39.75,23.855 40.061,23.721 40.306,23.499C40.639,23.188 40.839,22.766 40.795,22.343C40.728,21.921 40.417,21.588 39.995,21.388C39.795,21.299 39.617,21.232 39.417,21.188C39.15,21.143 38.906,21.077 38.661,21.055C38.395,21.032 38.15,21.01 37.906,21.01L36.928,21.01C36.617,21.01 36.284,21.077 35.973,21.077C35.573,21.077 35.195,21.01 34.795,21.01C34.728,21.01 34.639,21.055 34.573,21.055C34.084,21.055 33.661,20.988 33.306,20.855C32.995,20.743 32.75,20.566 32.528,20.366C32.306,20.166 32.173,19.899 32.061,19.588C31.928,19.232 31.861,18.921 31.861,18.655C31.884,18.321 31.861,18.01 31.906,17.766C31.995,17.455 32.128,17.188 32.306,16.966C32.461,16.743 32.684,16.566 32.973,16.41C33.195,16.299 33.484,16.188 33.795,16.143C34.084,16.099 34.35,16.099 34.617,16.077C34.906,16.032 35.173,16.055 35.439,16.055C35.75,16.055 36.061,15.988 36.373,15.988C36.684,15.988 36.973,16.055 37.284,16.055C37.417,16.055 37.417,16.032 37.55,16.032C37.795,16.032 38.017,15.988 38.261,15.943C38.506,15.899 38.728,15.832 38.928,15.743C39.15,15.632 39.35,15.499 39.484,15.321C39.617,15.121 39.75,14.921 39.75,14.655C39.75,14.388 39.617,14.166 39.484,13.943C39.328,13.766 39.15,13.61 38.884,13.499C38.617,13.366 38.35,13.321 38.15,13.277C37.928,13.255 37.728,13.188 37.528,13.188C37.484,13.188 37.484,13.255 37.439,13.255C37.195,13.255 36.928,13.21 36.684,13.21L35.906,13.21C35.639,13.21 35.395,13.188 35.128,13.188C34.773,13.188 34.461,13.21 34.15,13.166C33.817,13.121 33.506,13.077 33.217,12.966C32.95,12.877 32.728,12.743 32.55,12.588C32.373,12.41 32.284,12.188 32.173,11.966C32.084,11.743 31.995,11.521 31.973,11.255C31.973,11.143 31.995,11.032 31.995,10.921C31.995,10.855 31.95,10.766 31.95,10.699C31.95,10.343 32.017,10.01 32.15,9.721C32.284,9.41 32.528,9.166 32.817,8.966C33.084,8.81 33.417,8.743 33.773,8.677C34.106,8.632 34.395,8.566 34.706,8.543C35.017,8.499 35.328,8.499 35.639,8.499L36.373,8.499C36.617,8.499 36.839,8.477 37.084,8.477C37.328,8.477 37.573,8.543 37.817,8.543C38.061,8.543 38.061,8.455 38.328,8.455C38.684,8.455 39.084,8.455 39.506,8.255C39.728,8.143 39.884,7.988 40.017,7.81C40.15,7.61 40.284,7.41 40.306,7.188C40.328,6.966 40.261,6.721 40.128,6.477C40.017,6.299 39.839,6.166 39.573,6.01C39.35,5.877 39.128,5.766 38.95,5.721C38.728,5.655 38.506,5.677 38.284,5.655C38.061,5.632 37.839,5.61 37.617,5.61C37.328,5.61 37.039,5.566 36.75,5.566C36.461,5.566 36.195,5.588 35.906,5.588C35.617,5.588 35.328,5.61 35.039,5.61C34.75,5.61 34.461,5.566 34.195,5.566C33.906,5.566 33.617,5.543 33.328,5.543C33.039,5.543 32.75,5.566 32.461,5.566C32.195,5.566 31.906,5.61 31.617,5.61L31.595,5.61C31.35,5.61 31.084,5.588 30.839,5.632C30.573,5.655 30.328,5.721 30.106,5.766C29.728,5.855 29.373,5.966 29.15,6.21C28.906,6.455 28.773,6.788 28.684,7.166C28.639,7.432 28.617,7.721 28.617,8.032C28.617,8.343 28.573,8.632 28.573,8.943C28.573,9.232 28.595,9.521 28.595,9.832C28.595,10.121 28.573,10.432 28.573,10.721L28.573,11.632C28.573,11.921 28.617,12.232 28.617,12.521C28.617,12.81 28.595,13.121 28.595,13.41C28.595,13.721 28.617,14.01 28.617,14.321L28.617,15.21C28.617,15.499 28.55,15.81 28.55,16.099C28.55,16.41 28.639,16.699 28.639,17.01C28.639,17.299 28.617,17.61 28.617,17.899C28.617,18.188 28.639,18.499 28.639,18.788C28.639,19.099 28.573,19.388 28.573,19.699C28.573,19.988 28.55,20.299 28.55,20.588C28.55,20.899 28.639,21.188 28.639,21.477C28.639,21.699 28.573,21.877 28.595,22.055C28.639,22.41 28.773,22.721 28.928,22.966C29.106,23.277 29.328,23.499 29.617,23.677C29.884,23.81 30.217,23.899 30.573,23.921Z" style="fill:white;fill-rule:nonzero;"/>
        <path d="M58.328,21.61C58.239,21.366 58.128,21.121 58.039,20.899C57.928,20.632 57.728,20.388 57.595,20.121C57.484,19.877 57.395,19.632 57.306,19.41C57.195,19.166 57.084,18.943 56.995,18.699C56.884,18.432 56.817,18.121 56.706,17.855C56.595,17.566 56.439,17.321 56.306,17.032L55.973,16.21C55.839,15.943 55.706,15.699 55.595,15.432C55.461,15.166 55.373,14.899 55.261,14.632C55.15,14.388 55.061,14.121 54.95,13.855C54.861,13.61 54.728,13.343 54.617,13.099C54.506,12.832 54.417,12.566 54.306,12.321C54.195,12.055 54.061,11.81 53.95,11.566C53.839,11.299 53.795,11.032 53.684,10.766C53.573,10.521 53.439,10.277 53.328,10.01C53.217,9.788 53.128,9.543 53.017,9.321C52.928,9.077 52.773,8.877 52.684,8.632L52.35,7.943C52.239,7.677 52.15,7.41 52.017,7.188C51.861,6.943 51.706,6.721 51.528,6.521C51.328,6.299 51.061,6.166 50.817,6.032C50.573,5.899 50.306,5.81 49.995,5.788C49.706,5.788 49.417,5.81 49.15,5.921C48.884,6.032 48.639,6.188 48.417,6.41C48.15,6.677 47.928,7.032 47.75,7.432C47.639,7.677 47.55,7.921 47.439,8.166L47.084,8.899C46.995,9.121 46.906,9.343 46.795,9.543C46.706,9.766 46.639,10.01 46.55,10.21C46.439,10.455 46.35,10.699 46.239,10.943C46.15,11.166 46.039,11.41 45.928,11.632C45.817,11.877 45.706,12.099 45.617,12.343C45.506,12.566 45.439,12.766 45.35,12.988C45.239,13.188 45.15,13.41 45.061,13.61C44.95,13.832 44.795,14.055 44.684,14.299C44.595,14.521 44.528,14.788 44.417,15.032C44.328,15.255 44.173,15.477 44.084,15.721C43.995,15.988 43.884,16.255 43.773,16.499C43.661,16.766 43.595,17.055 43.484,17.321L43.128,18.077C43.017,18.343 42.861,18.588 42.75,18.855C42.617,19.143 42.55,19.455 42.417,19.743C42.284,20.055 42.128,20.321 41.995,20.61C41.906,20.855 41.795,21.099 41.706,21.343C41.617,21.588 41.573,21.855 41.506,22.121C41.439,22.366 41.439,22.61 41.506,22.832C41.55,23.055 41.639,23.277 41.817,23.455C42.017,23.61 42.239,23.743 42.484,23.788C42.728,23.81 42.973,23.766 43.239,23.677C43.484,23.61 43.728,23.543 43.906,23.41C44.106,23.255 44.306,23.077 44.417,22.877C44.55,22.677 44.684,22.477 44.817,22.232C44.928,22.055 44.973,21.81 45.106,21.566C45.239,21.321 45.461,21.143 45.617,20.966C45.795,20.743 45.973,20.566 46.195,20.41C46.395,20.277 46.639,20.166 46.906,20.099C47.15,20.01 47.395,19.921 47.661,19.899C47.95,19.899 48.261,19.855 48.55,19.855C48.839,19.832 49.128,19.921 49.439,19.899C49.728,19.899 50.017,19.832 50.306,19.832C50.617,19.832 50.906,19.899 51.195,19.921C51.484,19.921 51.795,19.943 52.084,19.943C52.417,19.966 52.706,20.055 52.995,20.166C53.284,20.277 53.595,20.366 53.839,20.566C54.061,20.766 54.261,21.032 54.439,21.299L54.439,21.343C54.617,21.61 54.75,21.877 54.884,22.143C54.995,22.41 55.128,22.632 55.284,22.81C55.461,23.032 55.706,23.166 55.884,23.321C56.061,23.477 56.195,23.655 56.395,23.721C56.617,23.81 56.839,23.81 57.061,23.81C57.106,23.81 57.15,23.855 57.173,23.832C57.573,23.81 57.884,23.632 58.106,23.388C58.328,23.143 58.439,22.81 58.439,22.41C58.439,22.388 58.484,22.388 58.484,22.366C58.461,22.121 58.395,21.855 58.328,21.61ZM51.906,15.655C51.906,16.01 51.884,16.299 51.728,16.521C51.573,16.766 51.328,16.921 50.995,17.055C50.639,17.232 50.217,17.321 49.817,17.299L49.817,17.255C49.817,17.255 49.817,17.321 49.795,17.321C49.373,17.321 49.039,17.255 48.75,17.121C48.373,16.988 48.061,16.788 47.884,16.521C47.706,16.232 47.617,15.877 47.617,15.477C47.617,15.188 47.684,14.877 47.773,14.543C47.861,14.255 47.95,13.966 48.084,13.655C48.217,13.41 48.35,13.166 48.506,12.921C48.639,12.699 48.773,12.455 48.973,12.255C49.284,11.943 49.617,11.943 49.861,11.966C50.195,11.988 50.484,12.121 50.684,12.388C50.906,12.677 51.084,12.966 51.239,13.255C51.417,13.566 51.595,13.855 51.706,14.188C51.795,14.455 51.861,14.677 51.906,14.899C51.95,15.166 51.906,15.41 51.906,15.655Z" style="fill:white;fill-rule:nonzero;"/>
        <path d="M75.061,22.032C74.906,21.832 74.706,21.699 74.506,21.566C74.328,21.432 74.128,21.321 73.884,21.255C73.573,21.143 73.261,21.032 72.973,20.899C72.661,20.766 72.395,20.566 72.128,20.41C71.817,20.255 71.528,20.099 71.261,19.877C70.995,19.655 70.728,19.455 70.484,19.188L69.995,18.588C69.839,18.366 69.728,18.143 69.595,17.921C69.461,17.699 69.373,17.455 69.261,17.232C69.173,17.099 69.106,16.966 69.061,16.81C69.017,16.41 69.239,16.032 69.484,15.743C69.728,15.655 69.973,15.566 70.195,15.432C70.461,15.299 70.706,15.21 70.928,15.055C71.173,14.877 71.395,14.721 71.573,14.521C71.773,14.321 71.95,14.121 72.106,13.877C72.261,13.655 72.417,13.41 72.506,13.143C72.617,12.899 72.661,12.61 72.728,12.343C72.795,12.01 72.906,11.699 72.928,11.366C72.928,11.188 72.95,11.01 72.928,10.832C72.928,10.655 72.928,10.455 72.906,10.277C72.884,9.943 72.817,9.61 72.75,9.277C72.684,8.966 72.595,8.655 72.439,8.366C72.306,8.077 72.15,7.788 71.95,7.521C71.75,7.277 71.506,7.077 71.239,6.855C70.95,6.61 70.661,6.41 70.373,6.255C70.039,6.077 69.706,5.943 69.373,5.855C69.084,5.766 68.817,5.677 68.55,5.632C68.261,5.588 67.995,5.61 67.728,5.588C67.439,5.543 67.173,5.477 66.884,5.477L66.839,5.477C66.55,5.477 66.284,5.499 65.995,5.499C65.706,5.499 65.417,5.543 65.15,5.499C64.839,5.477 64.55,5.388 64.261,5.366L63.373,5.366C63.084,5.366 62.773,5.41 62.484,5.41C62.284,5.41 62.284,5.366 62.061,5.366C61.773,5.366 61.506,5.41 61.239,5.477C61.173,5.477 61.195,5.543 61.128,5.566C60.861,5.61 60.617,5.677 60.395,5.81C60.173,5.943 59.995,6.121 59.861,6.343C59.728,6.566 59.661,6.81 59.595,7.077C59.55,7.321 59.484,7.566 59.461,7.832C59.439,8.077 59.373,8.343 59.373,8.588L59.373,8.677C59.373,8.943 59.395,9.232 59.395,9.521C59.395,9.788 59.373,10.055 59.373,10.343L59.373,10.41C59.373,10.699 59.439,10.966 59.439,11.255C59.439,11.521 59.417,11.81 59.417,12.077C59.417,12.366 59.395,12.655 59.395,12.943C59.395,13.343 59.373,13.343 59.373,13.743L59.373,13.81C59.373,14.188 59.395,14.21 59.395,14.566L59.395,15.41C59.395,15.81 59.439,15.81 59.439,16.21L59.439,17.988C59.439,18.255 59.461,18.543 59.461,18.81C59.461,19.121 59.373,19.41 59.373,19.699L59.373,20.677C59.373,20.988 59.439,21.277 59.461,21.566C59.506,21.877 59.506,22.166 59.595,22.432C59.684,22.766 59.884,23.077 60.128,23.255C60.373,23.455 60.728,23.588 61.061,23.588L61.084,23.499C61.417,23.499 61.706,23.432 61.973,23.232C62.217,23.055 62.439,22.81 62.528,22.499C62.573,22.366 62.617,22.255 62.639,22.143C62.639,22.121 62.639,22.099 62.617,22.077L62.639,22.077L62.639,22.01C62.684,21.699 62.706,21.41 62.706,21.121C62.728,20.81 62.728,20.499 62.728,20.21C62.728,20.032 62.75,19.855 62.75,19.699L62.75,19.677L62.75,19.61C62.75,19.588 62.728,19.588 62.728,19.543C62.728,19.299 62.773,19.055 62.795,18.832C62.795,18.566 62.817,18.299 62.884,18.055C62.95,17.743 62.995,17.455 63.15,17.232C63.306,16.988 63.506,16.788 63.773,16.632C63.995,16.477 64.261,16.388 64.573,16.299L64.617,16.299C65.95,16.366 66.306,17.588 66.306,17.588L66.35,17.566C66.417,17.766 66.461,17.966 66.55,18.166C66.661,18.432 66.839,18.677 66.973,18.943C67.106,19.188 67.217,19.477 67.373,19.721C67.528,19.966 67.706,20.232 67.884,20.455C68.061,20.699 68.306,20.855 68.506,21.077C68.706,21.277 68.884,21.521 69.106,21.699C69.328,21.899 69.55,22.099 69.773,22.277C70.017,22.432 70.261,22.61 70.506,22.743C70.75,22.899 71.039,23.01 71.284,23.121C71.55,23.255 71.817,23.388 72.084,23.477C72.373,23.588 72.639,23.61 72.906,23.677C73.173,23.743 73.439,23.788 73.728,23.788L73.728,23.766L73.817,23.766C74.15,23.766 74.439,23.743 74.706,23.588C75.106,23.366 75.261,23.099 75.306,22.899C75.35,22.699 75.328,22.366 75.061,22.032ZM62.795,10.655C62.817,10.41 62.795,10.143 62.861,9.877C62.95,9.543 63.106,9.299 63.284,9.055C63.461,8.788 63.684,8.566 63.973,8.41C64.239,8.277 64.528,8.166 64.861,8.121C65.017,8.099 65.173,8.099 65.35,8.077C65.439,8.077 65.528,8.099 65.595,8.099C65.906,8.099 66.173,8.077 66.439,8.121C66.728,8.166 66.995,8.232 67.239,8.321C67.506,8.41 67.75,8.543 67.973,8.677C68.217,8.832 68.417,8.988 68.573,9.166C68.773,9.366 68.973,9.521 69.106,9.743C69.217,9.988 69.217,10.232 69.261,10.521C69.261,10.61 69.284,10.699 69.284,10.788C69.284,11.032 69.261,11.255 69.195,11.477C69.106,11.81 68.95,12.121 68.706,12.41C68.528,12.588 68.373,12.743 68.195,12.877C68.017,13.01 67.817,13.143 67.617,13.232C67.328,13.321 67.039,13.388 66.773,13.455C66.461,13.521 66.173,13.588 65.906,13.588C65.595,13.61 65.306,13.61 65.017,13.566C64.728,13.521 64.439,13.477 64.15,13.366C63.861,13.255 63.617,13.077 63.417,12.877C63.217,12.677 63.084,12.432 62.995,12.143C62.906,11.877 62.861,11.632 62.817,11.366C62.795,11.232 62.795,11.121 62.795,10.988L62.795,10.655Z" style="fill:white;fill-rule:nonzero;"/>
        <path d="M75.55,18.832C75.639,19.077 75.706,19.343 75.839,19.566C75.95,19.81 76.128,20.01 76.261,20.232C76.395,20.455 76.55,20.655 76.706,20.855C76.884,21.077 76.995,21.321 77.173,21.499C77.35,21.699 77.55,21.855 77.75,22.032L78.484,22.543C78.728,22.699 78.973,22.877 79.217,23.01C79.484,23.166 79.728,23.343 79.995,23.455C80.261,23.588 80.55,23.677 80.817,23.788C81.084,23.899 81.395,23.943 81.661,24.01C81.95,24.099 82.239,24.188 82.528,24.232C82.817,24.277 83.106,24.366 83.395,24.388C83.684,24.41 83.995,24.388 84.284,24.388C84.55,24.388 84.817,24.366 85.084,24.343L85.906,24.277C86.173,24.232 86.439,24.21 86.706,24.143C86.973,24.099 87.217,24.01 87.484,23.921C87.817,23.832 88.128,23.677 88.439,23.521C88.728,23.343 89.017,23.143 89.284,22.921C89.506,22.699 89.684,22.499 89.75,22.255C89.839,21.988 89.817,21.721 89.728,21.432C89.617,21.143 89.461,20.943 89.239,20.788C89.039,20.632 88.795,20.499 88.484,20.477C88.195,20.455 87.906,20.499 87.661,20.543C87.373,20.588 87.084,20.632 86.839,20.743C86.639,20.855 86.439,20.921 86.217,21.01C86.017,21.077 85.817,21.166 85.573,21.232C85.195,21.343 84.861,21.455 84.55,21.477C84.173,21.521 83.817,21.477 83.484,21.41C83.195,21.366 82.928,21.299 82.661,21.21C82.395,21.121 82.084,21.099 81.839,20.988C81.573,20.877 81.328,20.699 81.106,20.543C80.861,20.41 80.639,20.232 80.417,20.032C80.217,19.855 80.039,19.632 79.839,19.41C79.661,19.21 79.506,18.966 79.35,18.721C79.195,18.499 79.039,18.255 78.906,17.988C78.795,17.743 78.684,17.499 78.573,17.21C78.484,16.943 78.395,16.655 78.35,16.343C78.284,16.055 78.261,15.766 78.261,15.432C78.239,15.143 78.217,14.855 78.217,14.521C78.217,14.21 78.261,13.899 78.306,13.61C78.35,13.299 78.417,12.988 78.506,12.699C78.573,12.41 78.706,12.121 78.817,11.855C78.95,11.566 79.039,11.255 79.195,11.01C79.373,10.743 79.55,10.499 79.773,10.255C79.95,10.032 80.195,9.832 80.417,9.61C80.661,9.41 80.861,9.166 81.128,9.01C81.395,8.832 81.661,8.677 81.95,8.566C82.217,8.432 82.528,8.366 82.839,8.299C83.128,8.232 83.439,8.143 83.75,8.121C84.039,8.099 84.35,8.166 84.684,8.188C84.995,8.21 85.328,8.21 85.661,8.277C85.95,8.343 86.261,8.499 86.595,8.61C86.884,8.699 87.15,8.743 87.395,8.788C87.684,8.81 87.95,8.766 88.195,8.699C88.461,8.655 88.684,8.499 88.861,8.343C89.039,8.166 89.195,7.966 89.284,7.699C89.35,7.432 89.35,7.166 89.261,6.943C89.173,6.721 89.017,6.521 88.795,6.321C88.617,6.188 88.439,6.077 88.284,5.988C88.061,5.855 87.817,5.743 87.55,5.655C87.306,5.566 87.039,5.499 86.75,5.432C86.395,5.343 86.017,5.299 85.684,5.277C85.306,5.255 84.95,5.255 84.595,5.255C84.35,5.255 84.35,5.321 84.128,5.321C83.817,5.321 83.55,5.321 83.261,5.343C82.973,5.366 82.684,5.388 82.417,5.432C82.128,5.477 81.839,5.543 81.573,5.61C81.284,5.699 80.995,5.721 80.728,5.81C80.461,5.921 80.239,6.077 79.973,6.21C79.706,6.321 79.417,6.41 79.173,6.543C78.928,6.699 78.706,6.877 78.484,7.055C78.261,7.232 78.017,7.388 77.795,7.566L77.173,8.166C76.973,8.388 76.773,8.655 76.595,8.899C76.395,9.143 76.261,9.41 76.106,9.677C75.928,9.943 75.817,10.21 75.684,10.499C75.55,10.788 75.439,11.055 75.328,11.343C75.239,11.632 75.173,11.943 75.106,12.255C75.039,12.543 74.973,12.832 74.928,13.143C74.884,13.477 74.861,13.788 74.839,14.099C74.817,14.432 74.795,14.743 74.795,15.055C74.817,15.366 74.773,15.699 74.817,16.01C74.861,16.343 74.973,16.655 75.039,16.966C75.106,17.299 75.106,17.632 75.195,17.921C75.284,18.255 75.439,18.543 75.55,18.832Z" style="fill:white;fill-rule:nonzero;"/>
        <path d="M104.928,23.766L104.95,23.788C105.195,23.788 105.417,23.677 105.617,23.543C105.817,23.432 105.995,23.277 106.128,23.077C106.261,22.877 106.417,22.677 106.484,22.432C106.573,22.077 106.506,21.699 106.506,21.366C106.506,20.921 106.528,20.921 106.528,20.499C106.528,20.055 106.595,20.055 106.595,19.632C106.595,19.188 106.573,19.188 106.573,18.743C106.573,18.321 106.506,18.321 106.506,17.877C106.506,17.432 106.55,17.432 106.55,17.01L106.55,16.143C106.55,15.699 106.55,15.699 106.55,15.255L106.528,15.255C106.528,14.877 106.595,14.877 106.595,14.499C106.595,14.099 106.573,14.099 106.573,13.721C106.573,13.343 106.55,13.343 106.55,12.943C106.55,12.632 106.528,12.321 106.528,12.01L106.528,11.055C106.528,10.743 106.506,10.432 106.506,10.121C106.506,9.81 106.573,9.499 106.573,9.166C106.573,8.855 106.55,8.543 106.55,8.232C106.55,8.188 106.506,8.188 106.506,8.166C106.506,7.788 106.573,7.343 106.417,6.921C106.306,6.588 106.084,6.366 105.839,6.188C105.595,6.01 105.284,5.899 104.95,5.899C104.928,5.899 104.928,5.855 104.928,5.855C104.595,5.855 104.261,5.943 104.017,6.121C103.75,6.299 103.595,6.61 103.484,6.921C103.35,7.277 103.306,7.632 103.306,7.921C103.306,8.277 103.35,8.61 103.35,8.966L103.35,9.521C103.35,9.788 103.306,10.077 103.284,10.366C103.239,10.632 103.128,10.899 103.061,11.166C102.973,11.455 102.884,11.677 102.75,11.877C102.595,12.099 102.417,12.255 102.195,12.388C101.995,12.521 101.773,12.61 101.506,12.655C101.173,12.721 100.817,12.832 100.439,12.832C100.061,12.832 99.661,12.81 99.284,12.81C98.995,12.81 98.728,12.788 98.461,12.788C98.195,12.788 97.928,12.832 97.639,12.832C97.373,12.832 97.106,12.832 96.839,12.81C96.528,12.81 96.217,12.766 95.884,12.721C95.573,12.677 95.284,12.566 95.061,12.432C94.795,12.277 94.595,12.077 94.439,11.81C94.306,11.588 94.239,11.299 94.173,10.988C94.106,10.699 94.084,10.455 94.061,10.21C94.017,9.943 93.928,9.677 93.928,9.432C93.928,9.166 93.973,8.899 93.95,8.632C93.95,8.366 93.906,8.099 93.906,7.832C93.906,7.521 93.928,7.121 93.75,6.721C93.595,6.41 93.373,6.143 93.084,5.988C92.795,5.855 92.461,5.832 92.106,5.899C91.773,5.988 91.528,6.143 91.328,6.366C91.128,6.566 90.95,6.832 90.884,7.166C90.817,7.499 90.773,7.81 90.75,8.099C90.728,8.41 90.773,8.743 90.773,9.032C90.773,9.299 90.728,9.588 90.728,9.855C90.728,10.121 90.75,10.388 90.75,10.655C90.75,10.921 90.795,11.188 90.795,11.477C90.795,11.743 90.706,12.01 90.706,12.277C90.706,12.543 90.773,12.81 90.773,13.099C90.773,13.366 90.728,13.632 90.728,13.899C90.728,14.166 90.75,14.432 90.75,14.721C90.75,15.255 90.75,15.255 90.728,15.766L90.728,16.832C90.728,17.432 90.75,17.432 90.75,18.032C90.773,18.343 90.773,18.655 90.773,18.966C90.773,19.277 90.706,19.588 90.706,19.899C90.706,20.188 90.773,20.499 90.773,20.81C90.773,21.077 90.728,21.366 90.75,21.632C90.795,21.899 90.839,22.166 90.906,22.432C90.995,22.81 91.195,23.099 91.439,23.321C91.706,23.543 92.039,23.699 92.439,23.699C92.817,23.699 93.128,23.521 93.395,23.277C93.639,23.055 93.795,22.743 93.884,22.366C93.928,22.099 93.906,21.832 93.906,21.566C93.928,21.299 93.95,21.01 93.95,20.743C93.95,20.477 94.017,20.188 94.017,19.921C94.017,19.655 93.995,19.388 93.995,19.099C93.995,18.81 93.973,18.521 93.995,18.232C94.039,17.943 94.15,17.655 94.217,17.366C94.284,17.077 94.373,16.832 94.506,16.61C94.661,16.366 94.839,16.166 95.061,16.01C95.284,15.877 95.55,15.788 95.839,15.721C96.128,15.655 96.417,15.632 96.661,15.61C96.95,15.566 97.217,15.61 97.484,15.632C97.728,15.632 97.973,15.566 98.217,15.566L99.728,15.566C99.995,15.543 100.261,15.588 100.55,15.61C100.817,15.632 101.084,15.655 101.373,15.721C101.684,15.766 101.973,15.877 102.195,16.01C102.461,16.166 102.661,16.388 102.817,16.655C102.973,16.877 103.061,17.166 103.106,17.477C103.173,17.788 103.217,18.077 103.239,18.343C103.284,18.677 103.373,18.966 103.35,19.232L103.35,20.743C103.35,20.988 103.284,21.232 103.306,21.499C103.306,21.766 103.373,22.099 103.461,22.432C103.506,22.677 103.573,22.921 103.706,23.121C103.839,23.321 104.039,23.477 104.239,23.588C104.461,23.699 104.684,23.766 104.928,23.766Z" style="fill:white;fill-rule:nonzero;"/>
    </g>
    <g transform="matrix(1,0,0,1,4,22)">
        <g transform="matrix(0.264443,0,0,0.264443,25.4164,24.7916)">
            <path d="M285.5,88C364.148,88 428,151.628 428,230C428,308.372 364.148,372 285.5,372C206.852,372 143,308.372 143,230C143,151.628 206.852,88 285.5,88ZM285.5,128.856C341.519,128.856 387,174.177 387,230C387,285.823 341.519,331.144 285.5,331.144C229.481,331.144 184,285.823 184,230C184,174.177 229.481,128.856 285.5,128.856Z" style="fill:white;"/>
        </g>
        <g transform="matrix(0.264443,0,0,0.264443,27.4164,22.7916)">
            <path d="M149,316L76,388L126,437L197,364C178.523,351.242 163.386,334.944 149,316Z" style="fill:white;"/>
        </g>
        <g transform="matrix(0.365174,0,0,0.365174,64.219,46.2101)">
            <g>
                <path d="M79,131C66.145,133.68 48.837,141.258 48.738,144.262C48.542,150.255 74.648,172.051 100,172C109.714,171.98 120.256,170.078 129.436,165.918C143.765,159.425 152.383,148.546 151.262,144.262C150.278,140.504 130.247,132.923 119,131C116.693,130.606 113.161,128.094 113,124C112.871,120.716 127.128,110.979 127,93C126.872,75.018 114.516,59.72 100,60C87.612,60.239 72.553,73.733 73,93C73.436,111.788 87.221,120.319 87,124C86.722,128.63 82.826,130.202 79,131Z" style="fill:white;"/>
            </g>
        </g>
    </g>
</svg>
