<?xml version="1.0" encoding="UTF-8" standalone="no"?>
<!DOCTYPE svg PUBLIC "-//W3C//DTD SVG 1.1//EN" "http://www.w3.org/Graphics/SVG/1.1/DTD/svg11.dtd">
<svg width="100%" height="100%" viewBox="0 0 200 200" version="1.1" xmlns="http://www.w3.org/2000/svg" xmlns:xlink="http://www.w3.org/1999/xlink" xml:space="preserve" style="fill-rule:evenodd;clip-rule:evenodd;stroke-linecap:round;stroke-linejoin:round;stroke-miterlimit:1.5;">
    <g transform="matrix(0.260549,0,0,0.260549,37.0225,52.072)">
        <g transform="matrix(1.94006,0,0,1.94006,61.2608,126.746)">
            <path d="M79,131C56.764,144.927 57.493,161.782 57.395,164.786C57.198,170.779 142.284,169.071 141.163,164.786C140.179,161.029 142.206,145.367 119,131C117.01,129.768 113.022,128.157 113,125.325C112.975,122.039 127.128,117.606 127,99.627C126.872,81.646 114.516,66.347 100,66.627C87.612,66.867 72.553,80.361 73,99.627C73.436,118.415 87.15,121.641 87,125.325C86.888,128.071 82.313,128.925 79,131Z" style="fill:white;"/>
        </g>
        <path d="M169.436,429.749C137.767,430.601 68.102,430.679 68.258,426.923C69.689,392.321 82.658,366.15 116.209,345.135C121.208,342.005 127.861,343.559 128.28,336.573C128.614,331.02 107.814,326.146 107.156,297.798C106.482,268.727 129.204,248.367 147.896,248.006C169.798,247.583 188.442,270.666 188.635,297.798C188.829,324.926 167.316,331.618 167.511,336.573C167.754,342.751 173.561,343.276 176.564,345.135C196.603,357.542 204.172,370.588 207.259,380.541C197.428,386.698 192.823,390.683 184.966,399.365C175.729,409.57 171.608,421.954 169.436,429.749Z" style="fill:white;"/>
        <g transform="matrix(-1,0,0,1,507.275,-0.194788)">
            <path d="M169.436,429.749C137.767,430.601 68.102,430.679 68.258,426.923C69.689,392.321 82.658,366.15 116.209,345.135C121.208,342.005 127.861,343.559 128.28,336.573C128.614,331.02 107.814,326.146 107.156,297.798C106.482,268.727 129.204,248.367 147.896,248.006C169.798,247.583 188.442,270.666 188.635,297.798C188.829,324.926 167.316,331.618 167.511,336.573C167.754,342.751 173.561,343.276 176.564,345.135C196.603,357.542 204.172,370.588 207.259,380.541C197.428,386.698 192.823,390.683 184.966,399.365C175.729,409.57 171.608,421.954 169.436,429.749Z" style="fill:white;"/>
        </g>
        <g transform="matrix(1.37415,0,0,1.37415,-575.048,42.0204)">
            <g transform="matrix(0.727723,0,0,0.727723,345.144,-1.55941)">
                <path d="M357.769,30C396.827,30 428.537,61.71 428.537,100.769C428.537,139.827 396.827,171.537 357.769,171.537C318.71,171.537 287,139.827 287,100.769C287,61.71 318.71,30 357.769,30ZM357.769,38C392.412,38 420.537,66.126 420.537,100.769C420.537,135.412 392.412,163.537 357.769,163.537C323.126,163.537 295,135.412 295,100.769C295,66.126 323.126,38 357.769,38Z" style="fill:white;stroke:white;stroke-width:3.2px;"/>
            </g>
            <g transform="matrix(2.72533,0,0,1.94666,-330.357,-302.399)">
                <ellipse cx="337.5" cy="184" rx="2.5" ry="4" style="fill:white;stroke:white;stroke-width:1.18px;"/>
            </g>
            <g transform="matrix(2.72533,0,0,1.94666,-297.264,-302.399)">
                <ellipse cx="337.5" cy="184" rx="2.5" ry="4" style="fill:white;stroke:white;stroke-width:1.18px;"/>
            </g>
            <g transform="matrix(1.94666,0,0,1.94666,-67.5581,-302.399)">
                <path d="M327,192C327,192 328.133,211.527 345,212C363.519,212.52 365.197,192.278 365,192C364.975,191.965 361.581,197.94 347,198C332.419,198.06 327,192 327,192Z" style="fill:white;"/>
            </g>
        </g>
        <g transform="matrix(3.83805,0,0,3.83805,-142.094,-176.827)">
            <path d="M67,109C67,109 63.646,86.506 83,83" style="fill:none;stroke:white;stroke-width:3.33px;stroke-dasharray:3.33,10,0,0;"/>
        </g>
        <g transform="matrix(-3.83805,0,0,3.83805,651.53,-176.827)">
            <path d="M67,109C67,109 63.646,86.506 83,83" style="fill:none;stroke:white;stroke-width:3.33px;stroke-dasharray:3.33,10,0,0;"/>
        </g>
    </g>
</svg>
