<?xml version="1.0" encoding="UTF-8" standalone="no"?>
<!DOCTYPE svg PUBLIC "-//W3C//DTD SVG 1.1//EN" "http://www.w3.org/Graphics/SVG/1.1/DTD/svg11.dtd">
<svg width="100%" height="100%" viewBox="0 0 100 100" version="1.1" xmlns="http://www.w3.org/2000/svg" xmlns:xlink="http://www.w3.org/1999/xlink" xml:space="preserve" style="fill-rule:evenodd;clip-rule:evenodd;stroke-linejoin:round;stroke-miterlimit:1.41421;">
    <g transform="matrix(1.03141,0.979205,-0.905765,0.954058,25.1494,-25.6049)">
        <path d="M87,21C62.317,23.435 37.651,23.385 13,21C14.425,26.76 14.445,32.428 13,38C37.488,35.324 62.151,35.269 87,38C85.568,32.348 85.546,26.681 87,21Z" style="fill:white;"/>
    </g>
    <g transform="matrix(-0.994038,1.01713,0.940841,0.919485,71.9471,-26.4811)">
        <path d="M87,21C62.317,23.435 37.651,23.385 13,21C14.425,26.76 14.445,32.428 13,38C37.488,35.324 62.151,35.269 87,38C85.568,32.348 85.546,26.681 87,21Z" style="fill:white;"/>
    </g>
</svg>
