<?xml version="1.0" encoding="UTF-8" standalone="no"?>
<!DOCTYPE svg PUBLIC "-//W3C//DTD SVG 1.1//EN" "http://www.w3.org/Graphics/SVG/1.1/DTD/svg11.dtd">
<svg width="100%" height="100%" viewBox="0 0 200 200" version="1.1" xmlns="http://www.w3.org/2000/svg" xmlns:xlink="http://www.w3.org/1999/xlink" xml:space="preserve" style="fill-rule:evenodd;clip-rule:evenodd;stroke-linejoin:round;stroke-miterlimit:1.41421;">
    <g transform="matrix(0.560558,0,0,0.560558,40.9916,5.25823)">
        <path d="M106,254C125.869,254 142,270.131 142,290C142,309.869 125.869,326 106,326C86.131,326 70,309.869 70,290C70,270.131 86.131,254 106,254ZM66,117C67.249,90.368 79.582,75.034 103,71C127.5,72.13 143.016,85.04 144,117C144.44,130.767 131.371,144.438 103,158C85.889,167.343 78.031,182.43 79,203C76.891,227.833 87.401,239.988 109,241C130.015,239.055 140.321,226.686 139,203C139.138,192.657 142.693,186.52 150,185C186.855,169.93 207.488,147.691 209,117C212.508,58.937 171.303,10.491 103,12C58.109,16.144 25.73,37.383 9,80C6.36,91.205 5.807,103.303 9,117C12.088,126.192 19.826,131.804 32,134C48.567,137.068 64.781,129.384 66,117Z" style="fill:white;"/>
    </g>
</svg>
