<?xml version="1.0" encoding="UTF-8" standalone="no"?><!DOCTYPE svg PUBLIC "-//W3C//DTD SVG 1.1//EN" "http://www.w3.org/Graphics/SVG/1.1/DTD/svg11.dtd"><svg width="100%" height="100%" viewBox="0 0 144 144" version="1.1" xmlns="http://www.w3.org/2000/svg" xmlns:xlink="http://www.w3.org/1999/xlink" xml:space="preserve" style="fill-rule:evenodd;clip-rule:evenodd;stroke-linejoin:round;stroke-miterlimit:1.41421;"><path d="M58.08,81.36l11.04,-10.08c0,0 -8.7,-9.526 -9.6,-10.56c-0.9,-1.034 -0.635,-1.254 -0.72,-2.64c-0.085,-1.386 1.966,-7.78 -2.16,-13.2c-2.302,-3.024 -6.172,-8.349 -15.096,-6.073c-0.089,0.022 -0.175,0.051 -0.264,0.073c-3.927,0.997 -1.237,1.653 0.96,2.64c5.142,2.312 8.932,6.53 2.16,13.2c-7.187,7.079 -14.427,2.844 -16.08,-2.64c-1.653,-5.484 -1.842,-2.593 -2.16,-0.72c-0.318,1.873 -0.131,17.472 10.32,19.92c7.287,1.707 8.034,-1.246 10.32,0.72c1.888,1.624 11.28,9.36 11.28,9.36Z" style="fill:#fff;"/><path d="M82.8,83.28c0,0 -9.257,9.82 -10.8,10.8c-1.543,0.98 0.583,2.194 1.68,3.12c1.248,1.054 16.976,16.181 17.52,16.32c0.544,0.139 5.211,4.288 10.08,-1.44c4.869,-5.728 1.475,-9.618 0.72,-10.8c-0.755,-1.182 -17.525,-17.736 -18,-18c-0.587,-0.326 -0.989,-0.385 -1.2,0Zm12.6,20.16c1.921,0 3.48,1.559 3.48,3.48c0,1.921 -1.559,3.48 -3.48,3.48c-1.921,0 -3.48,-1.559 -3.48,-3.48c0,-1.921 1.559,-3.48 3.48,-3.48Z" style="fill:#fff;"/><path d="M58.56,83.04c0,0 -18.348,17.993 -20.16,20.4c-0.541,0.718 -0.569,1.539 0,2.4c0.942,1.426 6.063,8.285 6.96,8.64c0.897,0.355 2.19,0.935 4.32,0c2.13,-0.935 28.732,-29.165 29.76,-30.24c1.028,-1.075 0.259,-1.488 0,-2.64c-0.259,-1.152 15.571,-15.965 17.04,-16.8c1.469,-0.835 4.581,-3.416 8.16,-1.2c3.579,2.216 4.147,3.892 4.56,4.56c0.413,0.668 -1.383,1.813 0,3.84c1.383,2.027 4.327,4.793 5.52,4.8c1.193,0.007 9.843,-9.09 9.84,-10.56c-0.003,-1.47 -4.388,-4.824 -5.28,-5.04c-0.892,-0.216 -1.624,0.073 -2.4,0c-0.776,-0.073 -5.497,-4.874 -5.52,-5.52c-0.023,-0.646 2.214,-6.896 -0.96,-9.6c-3.174,-2.704 -10.165,-8.425 -21.84,-10.32c-10.164,-1.65 -16.467,-1.317 -19.44,3.12c-1.565,2.335 10.528,-5.681 19.44,11.76c1.408,2.756 0.636,5.188 0,6c-4.043,5.162 -16.274,16.88 -16.56,16.8c-1.551,-0.435 -0.69,-1.844 -2.88,0c-1.686,1.419 -10.56,9.6 -10.56,9.6Z" style="fill:#fff;"/></svg>