<?xml version="1.0" encoding="UTF-8" standalone="no"?><!DOCTYPE svg PUBLIC "-//W3C//DTD SVG 1.1//EN" "http://www.w3.org/Graphics/SVG/1.1/DTD/svg11.dtd"><svg width="100%" height="100%" viewBox="0 0 6 6" version="1.1" xmlns="http://www.w3.org/2000/svg" xmlns:xlink="http://www.w3.org/1999/xlink" xml:space="preserve" style="fill-rule:evenodd;clip-rule:evenodd;stroke-linecap:round;stroke-linejoin:round;stroke-miterlimit:1.5;"><g><ellipse cx="2.68" cy="3.547" rx="0.692" ry="0.769" style="fill:#fff;"/><g><ellipse cx="2.043" cy="2.209" rx="0.302" ry="0.402" style="fill:#fff;"/><path d="M2.237,1.978c0.024,-0.034 0.015,-0.081 -0.019,-0.105l-0.616,-0.418c-0.034,-0.024 -0.081,-0.015 -0.105,0.02l-0.085,0.125c-0.023,0.034 -0.014,0.081 0.02,0.104l0.616,0.419c0.034,0.023 0.081,0.014 0.105,-0.02l0.084,-0.125Z" style="fill:#fff;"/></g><g><ellipse cx="3.393" cy="2.209" rx="0.302" ry="0.402" style="fill:#fff;"/><path d="M3.199,1.978c-0.024,-0.034 -0.015,-0.081 0.02,-0.105l0.615,-0.418c0.035,-0.024 0.081,-0.015 0.105,0.02l0.085,0.125c0.023,0.034 0.014,0.081 -0.02,0.104l-0.616,0.419c-0.034,0.023 -0.081,0.014 -0.104,-0.02l-0.085,-0.125Z" style="fill:#fff;"/></g></g><circle cx="2.673" cy="2.763" r="2.223" style="fill:none;stroke:#fff;stroke-width:0.3px;"/></svg>