<?xml version="1.0" encoding="UTF-8" standalone="no"?><!DOCTYPE svg PUBLIC "-//W3C//DTD SVG 1.1//EN" "http://www.w3.org/Graphics/SVG/1.1/DTD/svg11.dtd"><svg width="100%" height="100%" viewBox="0 0 6 6" version="1.1" xmlns="http://www.w3.org/2000/svg" xmlns:xlink="http://www.w3.org/1999/xlink" xml:space="preserve" style="fill-rule:evenodd;clip-rule:evenodd;stroke-linecap:round;stroke-linejoin:round;stroke-miterlimit:1.5;"><g><path d="M1.732,4.253c0,0 0.643,-0.212 0.951,-0.212c0.308,0 0.951,0.212 0.951,0.212c0,0 -0.279,-0.757 -0.951,-0.74c-0.672,0.017 -0.897,0.365 -0.951,0.74" style="fill:#fff;"/><ellipse cx="1.939" cy="2.297" rx="0.438" ry="0.511" style="fill:#fff;"/><path d="M1.908,1.309c-0.02,-0.021 -0.054,-0.021 -0.074,-0.001l-0.678,0.669c-0.02,0.02 -0.021,0.054 0,0.074l0.074,0.076c0.021,0.02 0.054,0.021 0.075,0l0.677,-0.668c0.021,-0.021 0.021,-0.054 0.001,-0.075l-0.075,-0.075Z" style="fill:#fff;"/><ellipse cx="3.408" cy="2.297" rx="0.438" ry="0.511" style="fill:#fff;"/><path d="M3.438,1.309c0.021,-0.021 0.054,-0.021 0.075,-0.001l0.677,0.669c0.021,0.02 0.021,0.054 0.001,0.074l-0.075,0.076c-0.02,0.02 -0.054,0.021 -0.074,0l-0.678,-0.668c-0.02,-0.021 -0.02,-0.054 0,-0.075l0.074,-0.075Z" style="fill:#fff;"/></g><circle cx="2.673" cy="2.763" r="2.223" style="fill:none;stroke:#fff;stroke-width:0.3px;"/></svg>