<?xml version="1.0" encoding="UTF-8" standalone="no"?>
<!DOCTYPE svg PUBLIC "-//W3C//DTD SVG 1.1//EN" "http://www.w3.org/Graphics/SVG/1.1/DTD/svg11.dtd">
<svg width="100%" height="100%" viewBox="0 0 200 200" version="1.1" xmlns="http://www.w3.org/2000/svg" xmlns:xlink="http://www.w3.org/1999/xlink" xml:space="preserve" style="fill-rule:evenodd;clip-rule:evenodd;stroke-linejoin:round;stroke-miterlimit:1.41421;">
    <g transform="matrix(1,0,0,1,0,-4)">
        <rect x="-4" y="0" width="213" height="204" style="fill:rgb(205,220,57);"/>
    </g>
    <g>
        <g transform="matrix(1,0,0,1,-33.7392,11)">
            <path d="M85.317,156.137C85.317,156.47 85.339,156.848 85.517,157.226C85.673,157.537 85.85,157.737 86.05,157.87C86.317,158.07 86.606,158.137 86.85,158.137C87.161,158.137 87.428,158.048 87.65,157.892C87.873,157.759 88.05,157.537 88.184,157.27C88.295,157.092 88.361,156.915 88.384,156.759C88.428,156.492 88.473,156.27 88.495,156.07C88.539,155.826 88.495,155.581 88.495,155.381C88.495,155.004 88.561,154.604 88.561,154.226C88.561,153.937 88.539,153.937 88.539,153.648C88.539,153.292 88.539,152.981 88.628,152.67C88.695,152.381 88.85,152.159 88.984,151.937C89.139,151.715 89.317,151.47 89.539,151.337C89.761,151.181 90.028,151.07 90.317,151.004C90.606,150.937 90.939,150.981 91.295,150.981C91.65,150.959 91.65,150.937 92.028,150.937C92.406,150.915 92.406,150.892 92.784,150.892L93.517,150.892C93.806,150.892 94.095,150.87 94.384,150.848C94.65,150.804 94.939,150.804 95.228,150.737C95.495,150.648 95.739,150.492 95.895,150.315C96.073,150.115 96.117,149.848 96.139,149.581C96.161,149.315 96.139,149.07 96.028,148.848C95.917,148.648 95.739,148.448 95.517,148.315C95.273,148.159 94.984,148.115 94.695,148.092C94.428,148.07 94.184,147.981 93.939,147.981C93.673,147.959 93.406,147.981 93.139,147.981L92.339,147.981C92.095,147.981 92.095,148.004 91.828,148.004C91.561,148.004 91.273,147.981 91.006,147.937C90.717,147.892 90.45,147.804 90.184,147.737C89.85,147.648 89.561,147.559 89.361,147.404C89.117,147.204 88.917,146.981 88.806,146.692C88.695,146.426 88.695,146.159 88.65,145.892C88.628,145.626 88.561,145.359 88.606,145.092C88.628,144.826 88.739,144.581 88.85,144.315C88.961,144.026 89.095,143.737 89.384,143.537C89.717,143.292 90.095,143.159 90.45,143.115C90.739,143.07 91.05,143.026 91.384,143.004C91.695,142.959 92.006,142.937 92.317,142.937C92.628,142.937 92.961,142.981 93.273,142.981C93.606,142.981 93.917,143.004 94.25,143.004L94.85,143.004C95.184,143.004 95.561,142.937 95.939,142.781C96.206,142.67 96.428,142.537 96.561,142.337C96.739,142.115 96.85,141.892 96.85,141.604C96.873,141.337 96.806,141.092 96.65,140.87C96.517,140.692 96.317,140.559 96.05,140.426C95.85,140.315 95.65,140.204 95.495,140.181C95.273,140.115 95.028,140.159 94.784,140.137C94.561,140.115 94.339,140.026 94.095,140.026C93.761,140.026 93.428,140.092 93.117,140.092C92.784,140.092 92.45,140.07 92.139,140.07C91.695,140.07 91.695,140.026 91.273,140.026L90.45,140.026C90.117,140.026 89.784,140.092 89.45,140.092L88.45,140.092C88.184,140.092 87.917,140.092 87.673,140.137C87.384,140.159 87.117,140.137 86.873,140.181C86.606,140.248 86.339,140.337 86.139,140.47C85.917,140.604 85.761,140.804 85.628,141.026C85.517,141.248 85.45,141.492 85.406,141.759C85.361,142.137 85.317,142.515 85.317,142.892C85.317,143.204 85.339,143.492 85.339,143.804C85.339,144.092 85.361,144.381 85.361,144.692C85.361,144.981 85.273,145.292 85.273,145.581C85.273,145.892 85.295,146.181 85.295,146.492C85.295,146.781 85.317,147.07 85.317,147.381C85.317,147.67 85.295,147.981 85.295,148.27C85.295,148.581 85.273,148.87 85.273,149.159C85.273,149.47 85.339,149.759 85.339,150.07C85.339,150.359 85.295,150.67 85.295,150.959C85.295,151.381 85.339,151.381 85.339,151.781C85.339,152.07 85.273,152.359 85.273,152.648C85.273,152.937 85.339,153.226 85.339,153.537C85.339,153.826 85.295,154.115 85.295,154.404L85.295,155.27C85.295,155.559 85.317,155.848 85.317,156.137Z" style="fill:white;fill-rule:nonzero;"/>
            <path d="M113.428,156.515C113.273,156.315 113.073,156.181 112.873,156.048C112.695,155.915 112.495,155.804 112.25,155.737C111.939,155.626 111.628,155.515 111.339,155.381C111.028,155.248 110.761,155.048 110.495,154.892C110.184,154.737 109.895,154.581 109.628,154.359C109.361,154.137 109.095,153.937 108.85,153.67L108.361,153.07C108.206,152.848 108.095,152.626 107.961,152.404C107.828,152.181 107.739,151.937 107.628,151.715C107.539,151.581 107.473,151.448 107.428,151.292C107.384,150.892 107.606,150.515 107.85,150.226C108.095,150.137 108.339,150.048 108.561,149.915C108.828,149.781 109.073,149.692 109.295,149.537C109.539,149.359 109.761,149.204 109.939,149.004C110.139,148.804 110.317,148.604 110.473,148.359C110.628,148.137 110.784,147.892 110.873,147.626C110.984,147.381 111.028,147.092 111.095,146.826C111.161,146.492 111.273,146.181 111.295,145.848C111.295,145.67 111.317,145.492 111.295,145.315C111.295,145.137 111.295,144.937 111.273,144.759C111.25,144.426 111.184,144.092 111.117,143.759C111.05,143.448 110.961,143.137 110.806,142.848C110.673,142.559 110.517,142.27 110.317,142.004C110.117,141.759 109.873,141.559 109.606,141.337C109.317,141.092 109.028,140.892 108.739,140.737C108.406,140.559 108.073,140.426 107.739,140.337C107.45,140.248 107.184,140.159 106.917,140.115C106.628,140.07 106.361,140.092 106.095,140.07C105.806,140.026 105.539,139.959 105.25,139.959L105.206,139.959C104.917,139.959 104.65,139.981 104.361,139.981C104.073,139.981 103.784,140.026 103.517,139.981C103.206,139.959 102.917,139.87 102.628,139.848L101.739,139.848C101.45,139.848 101.139,139.892 100.85,139.892C100.65,139.892 100.65,139.848 100.428,139.848C100.139,139.848 99.873,139.892 99.606,139.959C99.539,139.959 99.561,140.026 99.495,140.048C99.228,140.092 98.984,140.159 98.761,140.292C98.539,140.426 98.361,140.604 98.228,140.826C98.095,141.048 98.028,141.292 97.961,141.559C97.917,141.804 97.85,142.048 97.828,142.315C97.806,142.559 97.739,142.826 97.739,143.07L97.739,143.159C97.739,143.426 97.761,143.715 97.761,144.004C97.761,144.27 97.739,144.537 97.739,144.826L97.739,144.892C97.739,145.181 97.806,145.448 97.806,145.737C97.806,146.004 97.784,146.292 97.784,146.559C97.784,146.848 97.761,147.137 97.761,147.426C97.761,147.826 97.739,147.826 97.739,148.226L97.739,148.292C97.739,148.67 97.761,148.692 97.761,149.048L97.761,149.892C97.761,150.292 97.806,150.292 97.806,150.692L97.806,152.47C97.806,152.737 97.828,153.026 97.828,153.292C97.828,153.604 97.739,153.892 97.739,154.181L97.739,155.159C97.739,155.47 97.806,155.759 97.828,156.048C97.873,156.359 97.873,156.648 97.961,156.915C98.05,157.248 98.25,157.559 98.495,157.737C98.739,157.937 99.095,158.07 99.428,158.07L99.45,157.981C99.784,157.981 100.073,157.915 100.339,157.715C100.584,157.537 100.806,157.292 100.895,156.981C100.939,156.848 100.984,156.737 101.006,156.626C101.006,156.604 101.006,156.581 100.984,156.559L101.006,156.559L101.006,156.492C101.05,156.181 101.073,155.892 101.073,155.604C101.095,155.292 101.095,154.981 101.095,154.692C101.095,154.515 101.117,154.337 101.117,154.181L101.117,154.159L101.117,154.092C101.117,154.07 101.095,154.07 101.095,154.026C101.095,153.781 101.139,153.537 101.161,153.315C101.161,153.048 101.184,152.781 101.25,152.537C101.317,152.226 101.361,151.937 101.517,151.715C101.673,151.47 101.873,151.27 102.139,151.115C102.361,150.959 102.628,150.87 102.939,150.781L102.984,150.781C104.317,150.848 104.673,152.07 104.673,152.07L104.717,152.048C104.784,152.248 104.828,152.448 104.917,152.648C105.028,152.915 105.206,153.159 105.339,153.426C105.473,153.67 105.584,153.959 105.739,154.204C105.895,154.448 106.073,154.715 106.25,154.937C106.428,155.181 106.673,155.337 106.873,155.559C107.073,155.759 107.25,156.004 107.473,156.181C107.695,156.381 107.917,156.581 108.139,156.759C108.384,156.915 108.628,157.092 108.873,157.226C109.117,157.381 109.406,157.492 109.65,157.604C109.917,157.737 110.184,157.87 110.45,157.959C110.739,158.07 111.006,158.092 111.273,158.159C111.539,158.226 111.806,158.27 112.095,158.27L112.095,158.248L112.184,158.248C112.517,158.248 112.806,158.226 113.073,158.07C113.473,157.848 113.628,157.581 113.673,157.381C113.717,157.181 113.695,156.848 113.428,156.515ZM101.161,145.137C101.184,144.892 101.161,144.626 101.228,144.359C101.317,144.026 101.473,143.781 101.65,143.537C101.828,143.27 102.05,143.048 102.339,142.892C102.606,142.759 102.895,142.648 103.228,142.604C103.384,142.581 103.539,142.581 103.717,142.559C103.806,142.559 103.895,142.581 103.961,142.581C104.273,142.581 104.539,142.559 104.806,142.604C105.095,142.648 105.361,142.715 105.606,142.804C105.873,142.892 106.117,143.026 106.339,143.159C106.584,143.315 106.784,143.47 106.939,143.648C107.139,143.848 107.339,144.004 107.473,144.226C107.584,144.47 107.584,144.715 107.628,145.004C107.628,145.092 107.65,145.181 107.65,145.27C107.65,145.515 107.628,145.737 107.561,145.959C107.473,146.292 107.317,146.604 107.073,146.892C106.895,147.07 106.739,147.226 106.561,147.359C106.384,147.492 106.184,147.626 105.984,147.715C105.695,147.804 105.406,147.87 105.139,147.937C104.828,148.004 104.539,148.07 104.273,148.07C103.961,148.092 103.673,148.092 103.384,148.048C103.095,148.004 102.806,147.959 102.517,147.848C102.228,147.737 101.984,147.559 101.784,147.359C101.584,147.159 101.45,146.915 101.361,146.626C101.273,146.359 101.228,146.115 101.184,145.848C101.161,145.715 101.161,145.604 101.161,145.47L101.161,145.137Z" style="fill:white;fill-rule:nonzero;"/>
            <path d="M114.828,147.737C114.828,148.248 114.873,148.248 114.873,148.759C114.873,149.27 114.828,149.27 114.828,149.759C114.828,150.07 114.85,150.359 114.85,150.67C114.85,150.959 114.873,151.27 114.873,151.581L114.873,153.381C114.873,153.67 114.895,153.981 114.895,154.27C114.895,154.581 114.85,154.87 114.85,155.181C114.85,155.492 114.895,155.781 114.917,156.048C114.939,156.359 114.939,156.67 114.984,156.937C115.073,157.27 115.273,157.492 115.495,157.692C115.695,157.892 115.939,158.048 116.273,158.092C116.361,158.115 116.45,158.159 116.539,158.159C116.917,158.159 117.228,158.026 117.495,157.781C117.739,157.581 117.873,157.27 117.961,156.892C118.028,156.537 118.095,156.204 118.095,155.87L118.095,155.048C118.095,154.781 118.05,154.492 118.05,154.226C118.05,153.937 118.073,153.67 118.073,153.381C118.073,153.115 118.028,152.826 118.028,152.559L118.028,151.737C118.028,151.448 118.073,151.181 118.073,150.892C118.073,150.515 118.117,150.515 118.117,150.137L118.117,149.381C118.117,148.981 118.095,148.981 118.095,148.604C118.095,148.226 118.073,148.226 118.073,147.848C118.073,147.515 118.05,147.204 118.05,146.87C118.05,146.559 118.028,146.226 118.028,145.892C118.028,145.581 118.073,145.248 118.073,144.937C118.073,144.604 118.028,144.27 118.028,143.959C118.028,143.67 118.095,143.404 118.095,143.115C118.095,142.848 118.073,142.559 118.073,142.292C118.073,141.959 118.006,141.515 117.761,141.092C117.561,140.737 117.206,140.492 116.784,140.404C116.384,140.315 115.939,140.404 115.606,140.67C115.273,140.937 115.028,141.27 114.961,141.692C114.961,141.826 115.006,141.826 114.984,141.959L114.917,142.67C114.895,142.915 114.806,143.159 114.806,143.404C114.806,143.67 114.828,143.915 114.828,144.181L114.828,145.715C114.828,145.959 114.873,146.226 114.873,146.47C114.85,147.115 114.828,147.115 114.828,147.737Z" style="fill:white;fill-rule:nonzero;"/>
            <path d="M122.361,158.404C122.606,158.426 122.828,158.426 123.073,158.426C123.095,158.426 123.095,158.448 123.117,158.448C123.406,158.448 123.673,158.426 123.939,158.426C124.206,158.426 124.473,158.47 124.739,158.47C125.05,158.47 125.361,158.448 125.673,158.448L126.561,158.448C127.006,158.448 127.006,158.426 127.45,158.426C127.895,158.426 127.895,158.47 128.339,158.47C128.806,158.47 128.806,158.448 129.25,158.448C129.695,158.448 129.695,158.47 130.139,158.47L130.184,158.47C130.228,158.47 130.273,158.448 130.317,158.448C130.428,158.448 130.428,158.448 130.561,158.448L131.206,158.381C131.539,158.337 131.85,158.204 132.095,157.981C132.428,157.67 132.628,157.248 132.584,156.826C132.517,156.404 132.206,156.07 131.784,155.87C131.584,155.781 131.406,155.715 131.206,155.67C130.939,155.626 130.695,155.559 130.45,155.537C130.184,155.515 129.939,155.492 129.695,155.492L128.717,155.492C128.406,155.492 128.073,155.559 127.761,155.559C127.361,155.559 126.984,155.492 126.584,155.492C126.517,155.492 126.428,155.537 126.361,155.537C125.873,155.537 125.45,155.47 125.095,155.337C124.784,155.226 124.539,155.048 124.317,154.848C124.095,154.648 123.961,154.381 123.85,154.07C123.717,153.715 123.65,153.404 123.65,153.137C123.673,152.804 123.65,152.492 123.695,152.248C123.784,151.937 123.917,151.67 124.095,151.448C124.25,151.226 124.473,151.048 124.761,150.892C124.984,150.781 125.273,150.67 125.584,150.626C125.873,150.581 126.139,150.581 126.406,150.559C126.695,150.515 126.961,150.537 127.228,150.537C127.539,150.537 127.85,150.47 128.161,150.47C128.473,150.47 128.761,150.537 129.073,150.537C129.206,150.537 129.206,150.515 129.339,150.515C129.584,150.515 129.806,150.47 130.05,150.426C130.295,150.381 130.517,150.315 130.717,150.226C130.939,150.115 131.139,149.981 131.273,149.804C131.406,149.604 131.539,149.404 131.539,149.137C131.539,148.87 131.406,148.648 131.273,148.426C131.117,148.248 130.939,148.092 130.673,147.981C130.406,147.848 130.139,147.804 129.939,147.759C129.717,147.737 129.517,147.67 129.317,147.67C129.273,147.67 129.273,147.737 129.228,147.737C128.984,147.737 128.717,147.692 128.473,147.692L127.695,147.692C127.428,147.692 127.184,147.67 126.917,147.67C126.561,147.67 126.25,147.692 125.939,147.648C125.606,147.604 125.295,147.559 125.006,147.448C124.739,147.359 124.517,147.226 124.339,147.07C124.161,146.892 124.073,146.67 123.961,146.448C123.873,146.226 123.784,146.004 123.761,145.737C123.761,145.626 123.784,145.515 123.784,145.404C123.784,145.337 123.739,145.248 123.739,145.181C123.739,144.826 123.806,144.492 123.939,144.204C124.073,143.892 124.317,143.648 124.606,143.448C124.873,143.292 125.206,143.226 125.561,143.159C125.895,143.115 126.184,143.048 126.495,143.026C126.806,142.981 127.117,142.981 127.428,142.981L128.161,142.981C128.406,142.981 128.628,142.959 128.873,142.959C129.117,142.959 129.361,143.026 129.606,143.026C129.85,143.026 129.85,142.937 130.117,142.937C130.473,142.937 130.873,142.937 131.295,142.737C131.517,142.626 131.673,142.47 131.806,142.292C131.939,142.092 132.073,141.892 132.095,141.67C132.117,141.448 132.05,141.204 131.917,140.959C131.806,140.781 131.628,140.648 131.361,140.492C131.139,140.359 130.917,140.248 130.739,140.204C130.517,140.137 130.295,140.159 130.073,140.137C129.85,140.115 129.628,140.092 129.406,140.092C129.117,140.092 128.828,140.048 128.539,140.048C128.25,140.048 127.984,140.07 127.695,140.07C127.406,140.07 127.117,140.092 126.828,140.092C126.539,140.092 126.25,140.048 125.984,140.048C125.695,140.048 125.406,140.026 125.117,140.026C124.828,140.026 124.539,140.048 124.25,140.048C123.984,140.048 123.695,140.092 123.406,140.092L123.384,140.092C123.139,140.092 122.873,140.07 122.628,140.115C122.361,140.137 122.117,140.204 121.895,140.248C121.517,140.337 121.161,140.448 120.939,140.692C120.695,140.937 120.561,141.27 120.473,141.648C120.428,141.915 120.406,142.204 120.406,142.515C120.406,142.826 120.361,143.115 120.361,143.426C120.361,143.715 120.384,144.004 120.384,144.315C120.384,144.604 120.361,144.915 120.361,145.204L120.361,146.115C120.361,146.404 120.406,146.715 120.406,147.004C120.406,147.292 120.384,147.604 120.384,147.892C120.384,148.204 120.406,148.492 120.406,148.804L120.406,149.692C120.406,149.981 120.339,150.292 120.339,150.581C120.339,150.892 120.428,151.181 120.428,151.492C120.428,151.781 120.406,152.092 120.406,152.381C120.406,152.67 120.428,152.981 120.428,153.27C120.428,153.581 120.361,153.87 120.361,154.181C120.361,154.47 120.339,154.781 120.339,155.07C120.339,155.381 120.428,155.67 120.428,155.959C120.428,156.181 120.361,156.359 120.384,156.537C120.428,156.892 120.561,157.204 120.717,157.448C120.895,157.759 121.117,157.981 121.406,158.159C121.673,158.292 122.006,158.381 122.361,158.404Z" style="fill:white;fill-rule:nonzero;"/>
            <path d="M150.539,142.048L150.473,141.67C150.428,141.337 150.295,141.026 150.028,140.781C149.85,140.604 149.65,140.515 149.428,140.448C149.206,140.381 148.961,140.292 148.739,140.337C148.495,140.381 148.273,140.492 148.095,140.626C147.917,140.781 147.784,140.981 147.695,141.204C147.584,141.448 147.539,141.67 147.495,141.892C147.473,142.137 147.428,142.381 147.428,142.604C147.428,143.181 147.45,143.181 147.45,143.781C147.45,144.092 147.473,144.404 147.473,144.715C147.473,145.026 147.428,145.337 147.406,145.648C147.406,145.959 147.473,146.27 147.473,146.581C147.473,146.892 147.428,147.204 147.428,147.537C147.428,147.848 147.45,148.159 147.45,148.47C147.45,148.759 147.45,149.048 147.428,149.337C147.406,149.604 147.361,149.892 147.317,150.204C147.295,150.337 147.295,150.337 147.295,150.492C147.228,150.937 147.05,151.315 146.717,151.581C146.517,151.737 146.317,151.715 146.095,151.648C145.784,151.559 145.495,151.426 145.25,151.159C145.095,150.981 144.961,150.759 144.806,150.559C144.673,150.359 144.517,150.159 144.384,149.937L143.917,149.204C143.761,148.937 143.584,148.715 143.428,148.47C143.273,148.204 143.095,147.981 142.939,147.737C142.784,147.47 142.628,147.226 142.473,146.981L142.25,146.604C142.095,146.359 141.961,146.092 141.828,145.848C141.673,145.604 141.473,145.381 141.317,145.115L140.828,144.292C140.673,144.026 140.495,143.759 140.317,143.492C140.161,143.204 139.984,142.937 139.828,142.67C139.673,142.448 139.606,142.181 139.45,141.937C139.295,141.737 139.117,141.537 138.939,141.315C138.784,141.07 138.584,140.892 138.361,140.715C138.117,140.559 137.895,140.404 137.628,140.315C137.317,140.226 137.006,140.204 136.695,140.159C136.384,140.115 136.095,140.092 135.784,140.115C135.473,140.137 135.161,140.137 134.873,140.204C134.495,140.315 134.206,140.537 133.984,140.781C133.739,141.026 133.517,141.315 133.428,141.692C133.361,141.937 133.384,142.226 133.361,142.492C133.339,142.759 133.25,143.026 133.25,143.292C133.25,143.604 133.317,143.892 133.317,144.204C133.317,144.492 133.25,144.804 133.25,145.092C133.25,145.404 133.273,145.692 133.273,146.004L133.273,146.892C133.273,147.181 133.295,147.492 133.295,147.781C133.295,148.137 133.317,148.137 133.317,148.515L133.317,149.226C133.317,149.626 133.25,149.626 133.25,150.048C133.25,150.448 133.317,150.448 133.317,150.848C133.317,151.137 133.339,151.426 133.339,151.715C133.339,152.004 133.273,152.292 133.273,152.581C133.273,152.87 133.295,153.137 133.295,153.426L133.295,154.292C133.295,154.581 133.273,154.87 133.273,155.159C133.273,155.426 133.295,155.67 133.317,155.915C133.339,156.181 133.406,156.426 133.473,156.67L133.473,156.759C133.495,156.848 133.495,156.959 133.539,157.07C133.65,157.404 133.806,157.67 134.05,157.87C134.317,158.048 134.628,158.115 134.961,158.115C135.317,158.115 135.628,158.048 135.873,157.848C136.117,157.67 136.25,157.381 136.361,157.026C136.473,156.692 136.517,156.337 136.517,156.026L136.517,155.915C136.517,155.559 136.473,155.226 136.473,154.87C136.473,154.537 136.473,154.181 136.473,153.848L136.473,153.026C136.473,152.759 136.495,152.492 136.495,152.226C136.495,151.937 136.517,151.67 136.517,151.404L136.517,150.581C136.517,150.315 136.473,150.048 136.495,149.781C136.495,149.515 136.473,149.226 136.495,148.915C136.517,148.648 136.606,148.381 136.65,148.092C136.717,147.826 136.784,147.559 136.873,147.27C137.006,146.848 137.273,146.648 137.473,146.604C137.784,146.515 138.139,146.692 138.339,146.892C138.406,146.959 138.473,146.915 138.539,146.959C138.806,147.226 139.006,147.492 139.206,147.781C139.361,148.004 139.517,148.226 139.65,148.448C139.806,148.67 139.939,148.892 140.095,149.137C140.228,149.359 140.406,149.559 140.561,149.804C140.695,150.026 140.85,150.248 140.984,150.492C141.117,150.715 141.25,150.959 141.384,151.181L141.784,151.848C141.939,152.07 142.095,152.292 142.228,152.515C142.361,152.737 142.45,152.981 142.584,153.204C142.717,153.426 142.873,153.604 143.006,153.804C143.139,154.026 143.295,154.226 143.428,154.426C143.561,154.648 143.628,154.892 143.761,155.092C143.895,155.315 144.05,155.515 144.184,155.715L144.584,156.359C144.717,156.559 144.828,156.781 144.961,157.004C145.095,157.226 145.295,157.381 145.473,157.559C145.673,157.737 145.873,157.892 146.095,158.004C146.295,158.137 146.539,158.226 146.784,158.292C147.184,158.404 147.584,158.492 148.006,158.492C148.317,158.492 148.65,158.47 148.984,158.404C149.273,158.359 149.517,158.248 149.739,158.115C149.961,157.981 150.161,157.781 150.295,157.559C150.406,157.337 150.495,157.07 150.539,156.804L150.539,156.492C150.584,156.159 150.65,155.804 150.65,155.448C150.65,155.159 150.673,154.87 150.673,154.581C150.673,154.27 150.695,153.981 150.695,153.692L150.695,152.826C150.673,152.537 150.695,152.248 150.695,151.959C150.695,151.67 150.65,151.381 150.65,151.092C150.65,150.804 150.673,150.492 150.673,150.204C150.673,149.915 150.695,149.626 150.695,149.337C150.695,149.048 150.673,148.759 150.673,148.47C150.673,148.181 150.628,147.892 150.628,147.604C150.628,147.315 150.673,147.004 150.673,146.715C150.673,146.426 150.673,146.137 150.673,145.848L150.673,144.981C150.673,144.692 150.695,144.404 150.695,144.115L150.695,143.226C150.695,142.826 150.606,142.426 150.539,142.048Z" style="fill:white;fill-rule:nonzero;"/>
            <path d="M152.473,155.692C152.473,156.048 152.517,156.404 152.584,156.759C152.628,157.048 152.739,157.292 152.873,157.515C153.006,157.759 153.161,157.981 153.406,158.115C153.606,158.27 153.873,158.359 154.161,158.426C154.384,158.47 154.628,158.47 154.828,158.47C155.095,158.47 155.384,158.404 155.65,158.404C155.917,158.404 156.184,158.47 156.45,158.47C156.784,158.47 157.139,158.426 157.473,158.426L158.473,158.426C158.806,158.426 159.139,158.47 159.45,158.448C159.784,158.426 160.117,158.359 160.45,158.315C160.739,158.27 161.028,158.248 161.295,158.181C161.584,158.137 161.873,158.115 162.161,158.048C162.428,157.981 162.717,157.892 162.984,157.804C163.273,157.715 163.517,157.537 163.761,157.426C164.05,157.315 164.295,157.204 164.561,157.07C164.806,156.937 165.073,156.826 165.317,156.67C165.584,156.515 165.806,156.315 166.028,156.115C166.273,155.937 166.495,155.737 166.717,155.537C166.917,155.337 167.161,155.159 167.361,154.915C167.561,154.692 167.717,154.448 167.895,154.204C168.05,153.937 168.206,153.692 168.339,153.426C168.473,153.159 168.561,152.87 168.673,152.581C168.784,152.315 168.873,152.026 168.961,151.737C169.028,151.448 169.117,151.159 169.161,150.87C169.206,150.604 169.184,150.359 169.184,150.092C169.206,149.848 169.184,149.604 169.184,149.337C169.161,149.092 169.206,148.826 169.184,148.581L169.184,148.404C169.161,148.115 169.139,147.826 169.095,147.559C169.05,147.27 169.006,146.981 168.939,146.715C168.873,146.426 168.806,146.159 168.717,145.892C168.628,145.626 168.517,145.359 168.406,145.092C168.273,144.848 168.095,144.604 167.961,144.359C167.806,144.137 167.673,143.87 167.495,143.648C167.317,143.426 167.117,143.226 166.917,143.026C166.717,142.804 166.539,142.604 166.317,142.426C166.095,142.226 165.828,142.115 165.584,141.959C165.361,141.804 165.117,141.648 164.85,141.515C164.606,141.381 164.361,141.226 164.095,141.115C163.85,141.004 163.606,140.959 163.361,140.87C163.095,140.781 162.85,140.737 162.584,140.692C162.339,140.626 162.073,140.537 161.828,140.492C161.561,140.426 161.295,140.381 161.073,140.337C160.828,140.292 160.606,140.315 160.384,140.315C160.161,140.292 159.939,140.226 159.717,140.204C159.361,140.204 159.006,140.204 158.673,140.159L157.761,140.092C157.45,140.07 157.161,140.092 156.85,140.092C156.539,140.092 156.25,140.115 155.939,140.115C155.717,140.115 155.517,140.092 155.295,140.092C154.939,140.092 154.584,140.115 154.228,140.181L154.073,140.181C153.806,140.226 153.584,140.381 153.384,140.515C153.161,140.648 153.006,140.826 152.873,141.048C152.739,141.248 152.65,141.47 152.606,141.737C152.539,142.115 152.495,142.47 152.495,142.826C152.495,143.137 152.473,143.448 152.473,143.781L152.473,144.715C152.473,145.048 152.539,145.359 152.539,145.67C152.539,146.004 152.517,146.315 152.517,146.626C152.517,146.937 152.495,147.27 152.495,147.581C152.495,148.004 152.473,148.004 152.473,148.426L152.473,149.248C152.473,149.626 152.495,149.626 152.495,150.004L152.495,150.737C152.495,151.004 152.517,151.292 152.517,151.559L152.517,152.381C152.517,152.67 152.495,152.937 152.495,153.204L152.495,154.87C152.495,155.137 152.473,155.404 152.473,155.692ZM155.761,145.981C155.761,145.559 155.784,145.137 155.873,144.737C155.939,144.448 156.05,144.181 156.184,143.959C156.361,143.737 156.584,143.581 156.828,143.448C157.05,143.315 157.295,143.204 157.584,143.181C157.873,143.137 158.161,143.092 158.45,143.092C158.739,143.07 159.006,143.026 159.295,143.026C159.584,143.048 159.873,143.115 160.139,143.159C160.428,143.204 160.717,143.204 161.006,143.27L161.806,143.537C162.073,143.648 162.317,143.804 162.584,143.937C162.85,144.092 163.117,144.204 163.361,144.359C163.606,144.537 163.85,144.715 164.05,144.915C164.273,145.115 164.45,145.359 164.65,145.604C164.828,145.826 164.984,146.07 165.139,146.337C165.273,146.581 165.45,146.848 165.539,147.115C165.65,147.404 165.695,147.692 165.761,148.004C165.806,148.292 165.784,148.581 165.806,148.892C165.828,149.159 165.85,149.448 165.828,149.692C165.828,149.981 165.784,150.248 165.739,150.515C165.695,150.781 165.561,151.026 165.495,151.27C165.406,151.537 165.339,151.781 165.206,152.026C165.095,152.292 164.939,152.537 164.784,152.759C164.628,153.004 164.495,153.248 164.295,153.448C164.095,153.67 163.873,153.848 163.65,154.026C163.428,154.181 163.184,154.315 162.939,154.47C162.717,154.581 162.539,154.737 162.295,154.826C162.095,154.915 161.873,155.026 161.628,155.115C161.406,155.181 161.161,155.204 160.917,155.248C160.606,155.337 160.317,155.404 160.028,155.448C159.695,155.492 159.406,155.515 159.095,155.537C158.784,155.559 158.473,155.559 158.184,155.537C157.806,155.515 157.495,155.448 157.206,155.337C156.895,155.226 156.628,155.026 156.406,154.781C156.184,154.559 155.984,154.315 155.873,154.004C155.784,153.715 155.761,153.404 155.761,153.048C155.739,152.781 155.739,152.537 155.739,152.27C155.717,152.026 155.761,151.759 155.761,151.515C155.761,151.292 155.717,151.092 155.695,150.892C155.695,150.537 155.717,150.159 155.717,149.804C155.717,149.781 155.739,149.781 155.739,149.759C155.739,149.404 155.717,149.404 155.717,149.048C155.717,148.715 155.695,148.715 155.695,148.359C155.695,148.092 155.717,147.826 155.717,147.559C155.717,147.292 155.739,147.048 155.739,146.781C155.739,146.515 155.761,146.248 155.761,145.981Z" style="fill:white;fill-rule:nonzero;"/>
            <path d="M181.961,154.426C182.05,154.115 182.05,153.781 182.05,153.492C182.073,153.159 182.095,152.848 182.095,152.559C182.073,152.226 182.006,151.915 181.939,151.604C181.85,151.292 181.806,150.959 181.65,150.692C181.495,150.404 181.273,150.159 181.05,149.915C180.85,149.67 180.606,149.448 180.339,149.27C180.05,149.07 179.784,148.892 179.495,148.759C179.206,148.604 178.895,148.492 178.606,148.404C178.273,148.292 177.961,148.115 177.628,148.004C177.25,147.87 176.873,147.781 176.495,147.648C176.273,147.581 176.028,147.47 175.784,147.381C175.561,147.27 175.361,147.115 175.161,146.981C174.85,146.804 174.584,146.648 174.384,146.448C174.139,146.226 173.939,145.981 173.828,145.715C173.717,145.448 173.673,145.159 173.673,144.892C173.673,144.626 173.717,144.337 173.806,144.092C173.917,143.848 174.073,143.604 174.25,143.404C174.428,143.204 174.673,143.07 174.917,142.937C175.161,142.804 175.406,142.715 175.65,142.648C175.917,142.581 176.161,142.515 176.428,142.492C176.695,142.492 176.961,142.448 177.228,142.47C177.339,142.492 177.317,142.537 177.428,142.559C177.717,142.604 178.006,142.67 178.317,142.715C178.65,142.737 179.028,142.67 179.45,142.67C179.695,142.67 179.939,142.648 180.139,142.537C180.339,142.426 180.495,142.248 180.65,142.026C180.828,141.781 180.917,141.537 180.895,141.27C180.895,141.004 180.784,140.759 180.561,140.537C180.406,140.381 180.206,140.27 180.028,140.159C179.828,140.048 179.65,139.892 179.45,139.826C179.161,139.759 178.85,139.737 178.539,139.692C178.25,139.626 177.939,139.581 177.65,139.559C177.339,139.537 177.028,139.47 176.739,139.47C176.428,139.47 176.117,139.537 175.828,139.581C175.517,139.626 175.206,139.626 174.917,139.692C174.628,139.759 174.339,139.915 174.05,140.004C173.784,140.092 173.495,140.204 173.206,140.337C172.961,140.448 172.739,140.581 172.517,140.715C172.295,140.848 172.05,140.981 171.873,141.137C171.65,141.315 171.45,141.492 171.295,141.692C171.095,141.892 170.984,142.159 170.828,142.381C170.695,142.626 170.517,142.848 170.406,143.115C170.295,143.359 170.295,143.648 170.228,143.937C170.161,144.204 170.117,144.47 170.095,144.759C170.073,145.026 170.073,145.292 170.073,145.581C170.095,145.915 170.139,146.226 170.228,146.515C170.317,146.826 170.495,147.092 170.65,147.359C170.806,147.626 170.984,147.892 171.206,148.115C171.428,148.359 171.673,148.581 171.961,148.781C172.228,148.959 172.495,149.159 172.806,149.315C173.095,149.448 173.406,149.581 173.739,149.692C173.984,149.804 174.206,149.937 174.45,150.026C174.695,150.115 174.961,150.181 175.206,150.27C175.406,150.337 175.606,150.448 175.806,150.515C176.006,150.604 176.228,150.67 176.428,150.737C176.761,150.87 177.073,151.004 177.361,151.204C177.65,151.404 177.917,151.626 178.139,151.892C178.339,152.115 178.473,152.381 178.539,152.67C178.628,152.959 178.673,153.27 178.65,153.559C178.606,153.87 178.473,154.137 178.317,154.381C178.117,154.648 177.895,154.87 177.673,155.048C177.428,155.248 177.161,155.448 176.873,155.559C176.606,155.648 176.317,155.626 176.028,155.67C175.761,155.692 175.495,155.759 175.206,155.737C174.939,155.715 174.673,155.626 174.384,155.559C174.117,155.515 173.873,155.448 173.606,155.359L173.25,155.226C172.984,155.159 172.739,155.181 172.495,155.159C172.228,155.137 171.984,155.137 171.739,155.181C171.45,155.248 171.184,155.337 170.984,155.515C170.806,155.692 170.628,155.937 170.539,156.226C170.473,156.515 170.561,156.759 170.65,156.981C170.761,157.27 171.006,157.47 171.095,157.559C171.228,157.67 171.384,157.759 171.539,157.848C171.739,157.959 171.939,158.07 172.139,158.159C172.361,158.248 172.539,158.381 172.761,158.426C173.006,158.492 173.273,158.492 173.539,158.537C173.806,158.581 174.05,158.648 174.317,158.67C174.584,158.692 174.85,158.626 175.117,158.626C175.317,158.626 175.539,158.648 175.761,158.648C175.85,158.648 175.85,158.604 175.917,158.604C176.028,158.604 176.139,158.67 176.273,158.67C176.561,158.648 176.85,158.626 177.139,158.581C177.45,158.537 177.717,158.448 178.006,158.359C178.295,158.27 178.539,158.115 178.806,157.981C179.05,157.848 179.339,157.781 179.561,157.648C179.806,157.492 179.984,157.292 180.206,157.115C180.428,156.937 180.65,156.781 180.828,156.581C181.006,156.381 181.139,156.137 181.273,155.892C181.428,155.67 181.584,155.448 181.695,155.204C181.806,154.937 181.895,154.692 181.961,154.426Z" style="fill:white;fill-rule:nonzero;"/>
        </g>
        <g>
            <circle cx="130" cy="56" r="12" style="fill:rgb(227,79,76);"/>
            <path d="M139.101,63.996C142.959,70.741 145.167,78.56 145.167,86.894C145.167,112.29 124.666,132.908 99.415,132.908C74.164,132.908 53.663,112.29 53.663,86.894C53.663,61.497 74.164,40.879 99.415,40.879C107.658,40.879 115.395,43.076 122.078,46.92C120.859,47.959 119.848,49.235 119.118,50.677C113.268,47.448 106.553,45.612 99.415,45.612C76.761,45.612 58.369,64.109 58.369,86.894C58.369,109.678 76.761,128.175 99.415,128.175C122.069,128.175 140.461,109.678 140.461,86.894C140.461,79.657 138.606,72.854 135.348,66.938C136.787,66.212 138.062,65.208 139.101,63.996ZM88.371,103.459C81.611,104.868 71.069,110.293 71.017,111.873C70.914,115.025 86.083,125.047 99.415,125.02C104.523,125.01 110.067,124.009 114.895,121.822C122.43,118.407 128.403,114.126 127.813,111.873C127.295,109.897 115.321,104.47 109.407,103.459C108.193,103.251 106.336,101.931 106.251,99.778C106.183,98.05 113.681,92.93 113.614,83.475C113.546,74.019 107.048,65.974 99.415,66.121C92.9,66.247 84.981,73.343 85.216,83.475C85.445,93.355 92.694,97.842 92.578,99.778C92.432,102.212 90.384,103.039 88.371,103.459Z" style="fill:white;"/>
            <path d="M129.916,40.879C138.333,40.879 145.167,47.712 145.167,56.129C145.167,64.546 138.333,71.38 129.916,71.38C121.499,71.38 114.665,64.546 114.665,56.129C114.665,47.712 121.499,40.879 129.916,40.879ZM129.916,44.56C136.301,44.56 141.485,49.744 141.485,56.129C141.485,62.515 136.301,67.699 129.916,67.699C123.531,67.699 118.347,62.515 118.347,56.129C118.347,49.744 123.531,44.56 129.916,44.56ZM130.388,63.44L129.612,63.44C128.722,63.44 128,62.718 128,61.828L128,58.129L124.301,58.129C123.412,58.129 122.689,57.407 122.689,56.517L122.689,55.741C122.689,54.852 123.412,54.129 124.301,54.129L128,54.129L128,50.431C128,49.541 128.722,48.819 129.612,48.819L130.388,48.819C131.278,48.819 132,49.541 132,50.431L132,54.129L135.699,54.129C136.588,54.129 137.311,54.852 137.311,55.741L137.311,56.517C137.311,57.407 136.588,58.129 135.699,58.129L132,58.129L132,61.828C132,62.718 131.278,63.44 130.388,63.44Z" style="fill:white;"/>
        </g>
    </g>
</svg>
