<?xml version="1.0" encoding="UTF-8" standalone="no"?><!DOCTYPE svg PUBLIC "-//W3C//DTD SVG 1.1//EN" "http://www.w3.org/Graphics/SVG/1.1/DTD/svg11.dtd"><svg width="100%" height="100%" viewBox="0 0 36 36" version="1.1" xmlns="http://www.w3.org/2000/svg" xmlns:xlink="http://www.w3.org/1999/xlink" xml:space="preserve" style="fill-rule:evenodd;clip-rule:evenodd;stroke-linecap:round;stroke-linejoin:round;stroke-miterlimit:1.5;"><rect x="-0.72" y="-0.72" width="38.34" height="36.72" style="fill:#cddc39;"/><g><g><path d="M7.564,31.565c-0.048,-0.024 -0.108,-0.04 -0.172,-0.06c-0.052,-0.016 -0.108,-0.036 -0.16,-0.06c-0.048,-0.028 -0.092,-0.064 -0.144,-0.1c-0.044,-0.032 -0.088,-0.064 -0.132,-0.108c-0.04,-0.036 -0.084,-0.072 -0.124,-0.116c-0.036,-0.036 -0.068,-0.076 -0.1,-0.116c-0.028,-0.04 -0.064,-0.08 -0.092,-0.124c-0.028,-0.04 -0.04,-0.092 -0.064,-0.136c-0.024,-0.044 -0.052,-0.088 -0.072,-0.136c-0.02,-0.04 -0.032,-0.084 -0.052,-0.128c-0.016,-0.04 -0.044,-0.08 -0.06,-0.12c-0.024,-0.048 -0.04,-0.096 -0.06,-0.144c-0.02,-0.048 -0.048,-0.092 -0.068,-0.14c-0.02,-0.048 -0.036,-0.096 -0.056,-0.144l-0.072,-0.14c-0.02,-0.048 -0.032,-0.1 -0.052,-0.148c-0.02,-0.048 -0.056,-0.088 -0.076,-0.136l-0.06,-0.144c-0.02,-0.052 -0.036,-0.108 -0.06,-0.156l-0.072,-0.152c-0.024,-0.052 -0.036,-0.108 -0.06,-0.16l-0.06,-0.136c-0.02,-0.048 -0.04,-0.096 -0.06,-0.144l-0.064,-0.124c-0.016,-0.044 -0.036,-0.088 -0.056,-0.132l-0.048,-0.132c-0.02,-0.044 -0.048,-0.088 -0.068,-0.132l-0.06,-0.136c-0.02,-0.044 -0.032,-0.092 -0.052,-0.136c-0.016,-0.048 -0.04,-0.092 -0.06,-0.136c-0.02,-0.044 -0.036,-0.088 -0.056,-0.128c-0.024,-0.04 -0.048,-0.08 -0.076,-0.116c-0.036,-0.052 -0.084,-0.1 -0.136,-0.128c-0.056,-0.032 -0.12,-0.044 -0.184,-0.044c-0.064,-0.004 -0.124,0.016 -0.18,0.044c-0.056,0.028 -0.104,0.068 -0.148,0.124c-0.048,0.06 -0.084,0.116 -0.104,0.18c0,0 -0.004,0 -0.004,0.004c-0.012,0.028 -0.02,0.056 -0.032,0.084c-0.02,0.04 -0.036,0.084 -0.056,0.128c-0.02,0.04 -0.028,0.088 -0.048,0.128c-0.02,0.044 -0.036,0.084 -0.052,0.128c-0.02,0.044 -0.048,0.084 -0.064,0.124l-0.06,0.128c-0.02,0.044 -0.036,0.088 -0.056,0.132c-0.016,0.044 -0.036,0.084 -0.056,0.128c-0.02,0.044 -0.032,0.088 -0.048,0.132c-0.024,0.048 -0.056,0.096 -0.076,0.144c-0.02,0.048 -0.048,0.096 -0.068,0.148l-0.06,0.148c-0.02,0.052 -0.044,0.1 -0.068,0.148c-0.02,0.052 -0.032,0.104 -0.052,0.156l-0.072,0.144c-0.02,0.052 -0.044,0.1 -0.068,0.148c-0.02,0.048 -0.036,0.1 -0.056,0.152c-0.016,0.036 -0.02,0.036 -0.036,0.076c-0.028,0.064 -0.06,0.14 -0.072,0.22c-0.004,0.044 0,0.088 0.016,0.124c0.012,0.04 0.036,0.08 0.068,0.104c0.032,0.028 0.076,0.044 0.116,0.048c0.04,0.008 0.08,0 0.124,-0.012c0.044,-0.016 0.092,-0.036 0.132,-0.072c0.032,-0.028 0.06,-0.06 0.084,-0.092c0.028,-0.032 0.048,-0.072 0.068,-0.108c0.008,-0.016 0.008,-0.016 0.016,-0.036l0.06,-0.108c0.028,-0.044 0.06,-0.084 0.092,-0.116c0.04,-0.04 0.084,-0.06 0.128,-0.084c0.044,-0.02 0.088,-0.044 0.136,-0.052c0.052,-0.004 0.108,-0.016 0.16,-0.016c0.072,-0.004 0.144,-0.008 0.216,-0.008c0.048,0 0.048,0.008 0.092,0.008l0.348,0c0.064,0.004 0.12,0.012 0.172,0.028c0.06,0.012 0.108,0.04 0.156,0.072c0.048,0.028 0.092,0.06 0.132,0.108c0.032,0.04 0.068,0.088 0.096,0.14c0.024,0.048 0.04,0.1 0.06,0.148c0.024,0.048 0.044,0.1 0.068,0.148c0.02,0.048 0.056,0.092 0.076,0.14c0.016,0.028 0.004,0.032 0.02,0.064c0.024,0.052 0.06,0.096 0.084,0.144c0.024,0.048 0.048,0.1 0.076,0.148c0.028,0.048 0.052,0.096 0.084,0.14c0.028,0.048 0.06,0.092 0.092,0.136c0.036,0.044 0.076,0.084 0.108,0.124c0.036,0.044 0.072,0.088 0.108,0.128c0.04,0.04 0.076,0.08 0.12,0.116c0.04,0.036 0.084,0.072 0.128,0.108c0.044,0.032 0.088,0.068 0.132,0.096c0.048,0.032 0.104,0.048 0.152,0.072c0.048,0.028 0.096,0.052 0.148,0.072c0.052,0.024 0.096,0.056 0.152,0.076c0.076,0.024 0.152,0.032 0.22,0.032c0.016,0 0.028,-0.004 0.044,-0.004c0.028,-0.004 0.068,-0.012 0.112,-0.032c0.056,-0.024 0.1,-0.06 0.116,-0.112c0.016,-0.056 0.004,-0.112 -0.032,-0.164c-0.04,-0.068 -0.088,-0.132 -0.156,-0.164Zm-2.48,-2.392c-0.024,0.036 -0.048,0.072 -0.084,0.096c-0.036,0.024 -0.076,0.044 -0.12,0.052c-0.044,0.008 -0.092,0.004 -0.136,0.004c-0.048,-0.004 -0.092,-0.008 -0.136,-0.02c-0.06,-0.012 -0.108,-0.032 -0.144,-0.06c-0.04,-0.032 -0.064,-0.072 -0.08,-0.128c-0.012,-0.044 -0.024,-0.092 -0.024,-0.152c0.008,-0.048 0.032,-0.096 0.044,-0.148c0.012,-0.048 0.02,-0.096 0.04,-0.144c0.02,-0.044 0.048,-0.088 0.076,-0.132c0.028,-0.04 0.056,-0.084 0.092,-0.12c0.032,-0.032 0.088,-0.044 0.148,-0.044c0.056,0.004 0.104,0.02 0.132,0.048c0.04,0.044 0.068,0.092 0.092,0.136c0.024,0.04 0.048,0.076 0.068,0.116c0.016,0.04 0.024,0.084 0.036,0.132c0.012,0.04 0.04,0.08 0.048,0.124c0.012,0.044 0.012,0.088 0.004,0.128c-0.004,0.04 -0.032,0.076 -0.056,0.112Z" style="fill:#fff;fill-rule:nonzero;"/><path d="M6.6,30.005c0,0.064 0.008,0.128 0.02,0.192c0.008,0.052 0.028,0.096 0.052,0.136c0.024,0.044 0.052,0.084 0.096,0.108c0.036,0.028 0.084,0.044 0.136,0.056c0.04,0.008 0.084,0.008 0.12,0.008c0.048,0 0.1,-0.012 0.148,-0.012c0.048,0 0.096,0.012 0.144,0.012c0.06,0 0.124,-0.008 0.184,-0.008l0.18,0c0.06,0 0.12,0.008 0.176,0.004c0.06,-0.004 0.12,-0.016 0.18,-0.024c0.052,-0.008 0.104,-0.012 0.152,-0.024c0.052,-0.008 0.104,-0.012 0.156,-0.024c0.048,-0.012 0.1,-0.028 0.148,-0.044c0.052,-0.016 0.096,-0.048 0.14,-0.068c0.052,-0.02 0.096,-0.04 0.144,-0.064c0.044,-0.024 0.092,-0.044 0.136,-0.072c0.048,-0.028 0.088,-0.064 0.128,-0.1c0.044,-0.032 0.084,-0.068 0.124,-0.104c0.036,-0.036 0.08,-0.068 0.116,-0.112c0.036,-0.04 0.064,-0.084 0.096,-0.128c0.028,-0.048 0.056,-0.092 0.08,-0.14c0.024,-0.048 0.04,-0.1 0.06,-0.152c0.02,-0.048 0.036,-0.1 0.052,-0.152c0.012,-0.052 0.028,-0.104 0.036,-0.156c0.008,-0.048 0.004,-0.092 0.004,-0.14c0.004,-0.044 0,-0.088 0,-0.136c-0.004,-0.044 0.004,-0.092 0,-0.136l0,-0.032c-0.004,-0.052 -0.008,-0.104 -0.016,-0.152c-0.008,-0.052 -0.016,-0.104 -0.028,-0.152c-0.012,-0.052 -0.024,-0.1 -0.04,-0.148c-0.016,-0.048 -0.036,-0.096 -0.056,-0.144c-0.024,-0.044 -0.056,-0.088 -0.08,-0.132c-0.028,-0.04 -0.052,-0.088 -0.084,-0.128c-0.032,-0.04 -0.068,-0.076 -0.104,-0.112c-0.036,-0.04 -0.068,-0.076 -0.108,-0.108c-0.04,-0.036 -0.088,-0.056 -0.132,-0.084c-0.04,-0.028 -0.084,-0.056 -0.132,-0.08c-0.044,-0.024 -0.088,-0.052 -0.136,-0.072c-0.044,-0.02 -0.088,-0.028 -0.132,-0.044c-0.048,-0.016 -0.092,-0.024 -0.14,-0.032c-0.044,-0.012 -0.092,-0.028 -0.136,-0.036c-0.048,-0.012 -0.096,-0.02 -0.136,-0.028c-0.044,-0.008 -0.084,-0.004 -0.124,-0.004c-0.04,-0.004 -0.08,-0.016 -0.12,-0.02c-0.064,0 -0.128,0 -0.188,-0.008l-0.164,-0.012c-0.056,-0.004 -0.108,0 -0.164,0c-0.056,0 -0.108,0.004 -0.164,0.004c-0.04,0 -0.076,-0.004 -0.116,-0.004c-0.064,0 -0.128,0.004 -0.192,0.016l-0.028,0c-0.048,0.008 -0.088,0.036 -0.124,0.06c-0.04,0.024 -0.068,0.056 -0.092,0.096c-0.024,0.036 -0.04,0.076 -0.048,0.124c-0.012,0.068 -0.02,0.132 -0.02,0.196c0,0.056 -0.004,0.112 -0.004,0.172l0,0.168c0,0.06 0.012,0.116 0.012,0.172c0,0.06 -0.004,0.116 -0.004,0.172c0,0.056 -0.004,0.116 -0.004,0.172c0,0.076 -0.004,0.076 -0.004,0.152l0,0.148c0,0.068 0.004,0.068 0.004,0.136l0,0.132c0,0.048 0.004,0.1 0.004,0.148l0,0.148c0,0.052 -0.004,0.1 -0.004,0.148l0,0.3c0,0.048 -0.004,0.096 -0.004,0.148Zm0.592,-1.748c0,-0.076 0.004,-0.152 0.02,-0.224c0.012,-0.052 0.032,-0.1 0.056,-0.14c0.032,-0.04 0.072,-0.068 0.116,-0.092c0.04,-0.024 0.084,-0.044 0.136,-0.048c0.052,-0.008 0.104,-0.016 0.156,-0.016c0.052,-0.004 0.1,-0.012 0.152,-0.012c0.052,0.004 0.104,0.016 0.152,0.024c0.052,0.008 0.104,0.008 0.156,0.02l0.144,0.048c0.048,0.02 0.092,0.048 0.14,0.072c0.048,0.028 0.096,0.048 0.14,0.076c0.044,0.032 0.088,0.064 0.124,0.1c0.04,0.036 0.072,0.08 0.108,0.124c0.032,0.04 0.06,0.084 0.088,0.132c0.024,0.044 0.056,0.092 0.072,0.14c0.02,0.052 0.028,0.104 0.04,0.16c0.008,0.052 0.004,0.104 0.008,0.16c0.004,0.048 0.008,0.1 0.004,0.144c0,0.052 -0.008,0.1 -0.016,0.148c-0.008,0.048 -0.032,0.092 -0.044,0.136c-0.016,0.048 -0.028,0.092 -0.052,0.136c-0.02,0.048 -0.048,0.092 -0.076,0.132c-0.028,0.044 -0.052,0.088 -0.088,0.124c-0.036,0.04 -0.076,0.072 -0.116,0.104c-0.04,0.028 -0.084,0.052 -0.128,0.08c-0.04,0.02 -0.072,0.048 -0.116,0.064c-0.036,0.016 -0.076,0.036 -0.12,0.052c-0.04,0.012 -0.084,0.016 -0.128,0.024c-0.056,0.016 -0.108,0.028 -0.16,0.036c-0.06,0.008 -0.112,0.012 -0.168,0.016c-0.056,0.004 -0.112,0.004 -0.164,0c-0.068,-0.004 -0.124,-0.016 -0.176,-0.036c-0.056,-0.02 -0.104,-0.056 -0.144,-0.1c-0.04,-0.04 -0.076,-0.084 -0.096,-0.14c-0.016,-0.052 -0.02,-0.108 -0.02,-0.172c-0.004,-0.048 -0.004,-0.092 -0.004,-0.14c-0.004,-0.044 0.004,-0.092 0.004,-0.136c0,-0.04 -0.008,-0.076 -0.012,-0.112c0,-0.064 0.004,-0.132 0.004,-0.196c0,-0.004 0.004,-0.004 0.004,-0.008c0,-0.064 -0.004,-0.064 -0.004,-0.128c0,-0.06 -0.004,-0.06 -0.004,-0.124c0,-0.048 0.004,-0.096 0.004,-0.144c0,-0.048 0.004,-0.092 0.004,-0.14c0,-0.048 0.004,-0.096 0.004,-0.144Z" style="fill:#fff;fill-rule:nonzero;"/><path d="M9.768,30.005c0,0.064 0.008,0.128 0.02,0.192c0.008,0.052 0.028,0.096 0.052,0.136c0.024,0.044 0.052,0.084 0.096,0.108c0.036,0.028 0.084,0.044 0.136,0.056c0.04,0.008 0.084,0.008 0.12,0.008c0.048,0 0.1,-0.012 0.148,-0.012c0.048,0 0.096,0.012 0.144,0.012c0.06,0 0.124,-0.008 0.184,-0.008l0.18,0c0.06,0 0.12,0.008 0.176,0.004c0.06,-0.004 0.12,-0.016 0.18,-0.024c0.052,-0.008 0.104,-0.012 0.152,-0.024c0.052,-0.008 0.104,-0.012 0.156,-0.024c0.048,-0.012 0.1,-0.028 0.148,-0.044c0.052,-0.016 0.096,-0.048 0.14,-0.068c0.052,-0.02 0.096,-0.04 0.144,-0.064c0.044,-0.024 0.092,-0.044 0.136,-0.072c0.048,-0.028 0.088,-0.064 0.128,-0.1c0.044,-0.032 0.084,-0.068 0.124,-0.104c0.036,-0.036 0.08,-0.068 0.116,-0.112c0.036,-0.04 0.064,-0.084 0.096,-0.128c0.028,-0.048 0.056,-0.092 0.08,-0.14c0.024,-0.048 0.04,-0.1 0.06,-0.152c0.02,-0.048 0.036,-0.1 0.052,-0.152c0.012,-0.052 0.028,-0.104 0.036,-0.156c0.008,-0.048 0.004,-0.092 0.004,-0.14c0.004,-0.044 0,-0.088 0,-0.136c-0.004,-0.044 0.004,-0.092 0,-0.136l0,-0.032c-0.004,-0.052 -0.008,-0.104 -0.016,-0.152c-0.008,-0.052 -0.016,-0.104 -0.028,-0.152c-0.012,-0.052 -0.024,-0.1 -0.04,-0.148c-0.016,-0.048 -0.036,-0.096 -0.056,-0.144c-0.024,-0.044 -0.056,-0.088 -0.08,-0.132c-0.028,-0.04 -0.052,-0.088 -0.084,-0.128c-0.032,-0.04 -0.068,-0.076 -0.104,-0.112c-0.036,-0.04 -0.068,-0.076 -0.108,-0.108c-0.04,-0.036 -0.088,-0.056 -0.132,-0.084c-0.04,-0.028 -0.084,-0.056 -0.132,-0.08c-0.044,-0.024 -0.088,-0.052 -0.136,-0.072c-0.044,-0.02 -0.088,-0.028 -0.132,-0.044c-0.048,-0.016 -0.092,-0.024 -0.14,-0.032c-0.044,-0.012 -0.092,-0.028 -0.136,-0.036c-0.048,-0.012 -0.096,-0.02 -0.136,-0.028c-0.044,-0.008 -0.084,-0.004 -0.124,-0.004c-0.04,-0.004 -0.08,-0.016 -0.12,-0.02c-0.064,0 -0.128,0 -0.188,-0.008l-0.164,-0.012c-0.056,-0.004 -0.108,0 -0.164,0c-0.056,0 -0.108,0.004 -0.164,0.004c-0.04,0 -0.076,-0.004 -0.116,-0.004c-0.064,0 -0.128,0.004 -0.192,0.016l-0.028,0c-0.048,0.008 -0.088,0.036 -0.124,0.06c-0.04,0.024 -0.068,0.056 -0.092,0.096c-0.024,0.036 -0.04,0.076 -0.048,0.124c-0.012,0.068 -0.02,0.132 -0.02,0.196c0,0.056 -0.004,0.112 -0.004,0.172l0,0.168c0,0.06 0.012,0.116 0.012,0.172c0,0.06 -0.004,0.116 -0.004,0.172c0,0.056 -0.004,0.116 -0.004,0.172c0,0.076 -0.004,0.076 -0.004,0.152l0,0.148c0,0.068 0.004,0.068 0.004,0.136l0,0.132c0,0.048 0.004,0.1 0.004,0.148l0,0.148c0,0.052 -0.004,0.1 -0.004,0.148l0,0.3c0,0.048 -0.004,0.096 -0.004,0.148Zm0.592,-1.748c0,-0.076 0.004,-0.152 0.02,-0.224c0.012,-0.052 0.032,-0.1 0.056,-0.14c0.032,-0.04 0.072,-0.068 0.116,-0.092c0.04,-0.024 0.084,-0.044 0.136,-0.048c0.052,-0.008 0.104,-0.016 0.156,-0.016c0.052,-0.004 0.1,-0.012 0.152,-0.012c0.052,0.004 0.104,0.016 0.152,0.024c0.052,0.008 0.104,0.008 0.156,0.02l0.144,0.048c0.048,0.02 0.092,0.048 0.14,0.072c0.048,0.028 0.096,0.048 0.14,0.076c0.044,0.032 0.088,0.064 0.124,0.1c0.04,0.036 0.072,0.08 0.108,0.124c0.032,0.04 0.06,0.084 0.088,0.132c0.024,0.044 0.056,0.092 0.072,0.14c0.02,0.052 0.028,0.104 0.04,0.16c0.008,0.052 0.004,0.104 0.008,0.16c0.004,0.048 0.008,0.1 0.004,0.144c0,0.052 -0.008,0.1 -0.016,0.148c-0.008,0.048 -0.032,0.092 -0.044,0.136c-0.016,0.048 -0.028,0.092 -0.052,0.136c-0.02,0.048 -0.048,0.092 -0.076,0.132c-0.028,0.044 -0.052,0.088 -0.088,0.124c-0.036,0.04 -0.076,0.072 -0.116,0.104c-0.04,0.028 -0.084,0.052 -0.128,0.08c-0.04,0.02 -0.072,0.048 -0.116,0.064c-0.036,0.016 -0.076,0.036 -0.12,0.052c-0.04,0.012 -0.084,0.016 -0.128,0.024c-0.056,0.016 -0.108,0.028 -0.16,0.036c-0.06,0.008 -0.112,0.012 -0.168,0.016c-0.056,0.004 -0.112,0.004 -0.164,0c-0.068,-0.004 -0.124,-0.016 -0.176,-0.036c-0.056,-0.02 -0.104,-0.056 -0.144,-0.1c-0.04,-0.04 -0.076,-0.084 -0.096,-0.14c-0.016,-0.052 -0.02,-0.108 -0.02,-0.172c-0.004,-0.048 -0.004,-0.092 -0.004,-0.14c-0.004,-0.044 0.004,-0.092 0.004,-0.136c0,-0.04 -0.008,-0.076 -0.012,-0.112c0,-0.064 0.004,-0.132 0.004,-0.196c0,-0.004 0.004,-0.004 0.004,-0.008c0,-0.064 -0.004,-0.064 -0.004,-0.128c0,-0.06 -0.004,-0.06 -0.004,-0.124c0,-0.048 0.004,-0.096 0.004,-0.144c0,-0.048 0.004,-0.092 0.004,-0.14c0,-0.048 0.004,-0.096 0.004,-0.144Z" style="fill:#fff;fill-rule:nonzero;"/><path d="M14.144,30.085c0,0.06 0.004,0.128 0.036,0.196c0.028,0.056 0.06,0.092 0.096,0.116c0.048,0.036 0.1,0.048 0.144,0.048c0.056,0 0.104,-0.016 0.144,-0.044c0.04,-0.024 0.072,-0.064 0.096,-0.112c0.02,-0.032 0.032,-0.064 0.036,-0.092c0.008,-0.048 0.016,-0.088 0.02,-0.124c0.008,-0.044 0,-0.088 0,-0.124c0,-0.068 0.012,-0.14 0.012,-0.208c0,-0.052 -0.004,-0.052 -0.004,-0.104c0,-0.064 0,-0.12 0.016,-0.176c0.012,-0.052 0.04,-0.092 0.064,-0.132c0.028,-0.04 0.06,-0.084 0.1,-0.108c0.04,-0.028 0.088,-0.048 0.14,-0.06c0.052,-0.012 0.112,-0.004 0.176,-0.004c0.064,-0.004 0.064,-0.008 0.132,-0.008c0.068,-0.004 0.068,-0.008 0.136,-0.008l0.132,0c0.052,0 0.104,-0.004 0.156,-0.008c0.048,-0.008 0.1,-0.008 0.152,-0.02c0.048,-0.016 0.092,-0.044 0.12,-0.076c0.032,-0.036 0.04,-0.084 0.044,-0.132c0.004,-0.048 0,-0.092 -0.02,-0.132c-0.02,-0.036 -0.052,-0.072 -0.092,-0.096c-0.044,-0.028 -0.096,-0.036 -0.148,-0.04c-0.048,-0.004 -0.092,-0.02 -0.136,-0.02c-0.048,-0.004 -0.096,0 -0.144,0l-0.144,0c-0.044,0 -0.044,0.004 -0.092,0.004c-0.048,0 -0.1,-0.004 -0.148,-0.012c-0.052,-0.008 -0.1,-0.024 -0.148,-0.036c-0.06,-0.016 -0.112,-0.032 -0.148,-0.06c-0.044,-0.036 -0.08,-0.076 -0.1,-0.128c-0.02,-0.048 -0.02,-0.096 -0.028,-0.144c-0.004,-0.048 -0.016,-0.096 -0.008,-0.144c0.004,-0.048 0.024,-0.092 0.044,-0.14c0.02,-0.052 0.044,-0.104 0.096,-0.14c0.06,-0.044 0.128,-0.068 0.192,-0.076c0.052,-0.008 0.108,-0.016 0.168,-0.02c0.056,-0.008 0.112,-0.012 0.168,-0.012c0.056,0 0.116,0.008 0.172,0.008c0.06,0 0.116,0.004 0.176,0.004l0.108,0c0.06,0 0.128,-0.012 0.196,-0.04c0.048,-0.02 0.088,-0.044 0.112,-0.08c0.032,-0.04 0.052,-0.08 0.052,-0.132c0.004,-0.048 -0.008,-0.092 -0.036,-0.132c-0.024,-0.032 -0.06,-0.056 -0.108,-0.08c-0.036,-0.02 -0.072,-0.04 -0.1,-0.044c-0.04,-0.012 -0.084,-0.004 -0.128,-0.008c-0.04,-0.004 -0.08,-0.02 -0.124,-0.02c-0.06,0 -0.12,0.012 -0.176,0.012c-0.06,0 -0.12,-0.004 -0.176,-0.004c-0.08,0 -0.08,-0.008 -0.156,-0.008l-0.148,0c-0.06,0 -0.12,0.012 -0.18,0.012l-0.18,0c-0.048,0 -0.096,0 -0.14,0.008c-0.052,0.004 -0.1,0 -0.144,0.008c-0.048,0.012 -0.096,0.028 -0.132,0.052c-0.04,0.024 -0.068,0.06 -0.092,0.1c-0.02,0.04 -0.032,0.084 -0.04,0.132c-0.008,0.068 -0.016,0.136 -0.016,0.204c0,0.056 0.004,0.108 0.004,0.164c0,0.052 0.004,0.104 0.004,0.16c0,0.052 -0.016,0.108 -0.016,0.16c0,0.056 0.004,0.108 0.004,0.164c0,0.052 0.004,0.104 0.004,0.16c0,0.052 -0.004,0.108 -0.004,0.16c0,0.056 -0.004,0.108 -0.004,0.16c0,0.056 0.012,0.108 0.012,0.164c0,0.052 -0.008,0.108 -0.008,0.16c0,0.076 0.008,0.076 0.008,0.148c0,0.052 -0.012,0.104 -0.012,0.156c0,0.052 0.012,0.104 0.012,0.16c0,0.052 -0.008,0.104 -0.008,0.156l0,0.156c0,0.052 0.004,0.104 0.004,0.156Z" style="fill:#fff;fill-rule:nonzero;"/><path d="M19.204,30.153c-0.028,-0.036 -0.064,-0.06 -0.1,-0.084c-0.032,-0.024 -0.068,-0.044 -0.112,-0.056c-0.056,-0.02 -0.112,-0.04 -0.164,-0.064c-0.056,-0.024 -0.104,-0.06 -0.152,-0.088c-0.056,-0.028 -0.108,-0.056 -0.156,-0.096c-0.048,-0.04 -0.096,-0.076 -0.14,-0.124l-0.088,-0.108c-0.028,-0.04 -0.048,-0.08 -0.072,-0.12c-0.024,-0.04 -0.04,-0.084 -0.06,-0.124c-0.016,-0.024 -0.028,-0.048 -0.036,-0.076c-0.008,-0.072 0.032,-0.14 0.076,-0.192c0.044,-0.016 0.088,-0.032 0.128,-0.056c0.048,-0.024 0.092,-0.04 0.132,-0.068c0.044,-0.032 0.084,-0.06 0.116,-0.096c0.036,-0.036 0.068,-0.072 0.096,-0.116c0.028,-0.04 0.056,-0.084 0.072,-0.132c0.02,-0.044 0.028,-0.096 0.04,-0.144c0.012,-0.06 0.032,-0.116 0.036,-0.176c0,-0.032 0.004,-0.064 0,-0.096c0,-0.032 0,-0.068 -0.004,-0.1c-0.004,-0.06 -0.016,-0.12 -0.028,-0.18c-0.012,-0.056 -0.028,-0.112 -0.056,-0.164c-0.024,-0.052 -0.052,-0.104 -0.088,-0.152c-0.036,-0.044 -0.08,-0.08 -0.128,-0.12c-0.052,-0.044 -0.104,-0.08 -0.156,-0.108c-0.06,-0.032 -0.12,-0.056 -0.18,-0.072c-0.052,-0.016 -0.1,-0.032 -0.148,-0.04c-0.052,-0.008 -0.1,-0.004 -0.148,-0.008c-0.052,-0.008 -0.1,-0.02 -0.152,-0.02l-0.008,0c-0.052,0 -0.1,0.004 -0.152,0.004c-0.052,0 -0.104,0.008 -0.152,0c-0.056,-0.004 -0.108,-0.02 -0.16,-0.024l-0.16,0c-0.052,0 -0.108,0.008 -0.16,0.008c-0.036,0 -0.036,-0.008 -0.076,-0.008c-0.052,0 -0.1,0.008 -0.148,0.02c-0.012,0 -0.008,0.012 -0.02,0.016c-0.048,0.008 -0.092,0.02 -0.132,0.044c-0.04,0.024 -0.072,0.056 -0.096,0.096c-0.024,0.04 -0.036,0.084 -0.048,0.132c-0.008,0.044 -0.02,0.088 -0.024,0.136c-0.004,0.044 -0.016,0.092 -0.016,0.136l0,0.016c0,0.048 0.004,0.1 0.004,0.152c0,0.048 -0.004,0.096 -0.004,0.148l0,0.012c0,0.052 0.012,0.1 0.012,0.152c0,0.048 -0.004,0.1 -0.004,0.148c0,0.052 -0.004,0.104 -0.004,0.156c0,0.072 -0.004,0.072 -0.004,0.144l0,0.012c0,0.068 0.004,0.072 0.004,0.136l0,0.152c0,0.072 0.008,0.072 0.008,0.144l0,0.32c0,0.048 0.004,0.1 0.004,0.148c0,0.056 -0.016,0.108 -0.016,0.16l0,0.176c0,0.056 0.012,0.108 0.016,0.16c0.008,0.056 0.008,0.108 0.024,0.156c0.016,0.06 0.052,0.116 0.096,0.148c0.044,0.036 0.108,0.06 0.168,0.06l0.004,-0.016c0.06,0 0.112,-0.012 0.16,-0.048c0.044,-0.032 0.084,-0.076 0.1,-0.132c0.008,-0.024 0.016,-0.044 0.02,-0.064c0,-0.004 0,-0.008 -0.004,-0.012l0.004,0l0,-0.012c0.008,-0.056 0.012,-0.108 0.012,-0.16c0.004,-0.056 0.004,-0.112 0.004,-0.164c0,-0.032 0.004,-0.064 0.004,-0.092l0,-0.004l0,-0.012c0,-0.004 -0.004,-0.004 -0.004,-0.012c0,-0.044 0.008,-0.088 0.012,-0.128c0,-0.048 0.004,-0.096 0.016,-0.14c0.012,-0.056 0.02,-0.108 0.048,-0.148c0.028,-0.044 0.064,-0.08 0.112,-0.108c0.04,-0.028 0.088,-0.044 0.144,-0.06l0.008,0c0.24,0.012 0.304,0.232 0.304,0.232l0.008,-0.004c0.012,0.036 0.02,0.072 0.036,0.108c0.02,0.048 0.052,0.092 0.076,0.14c0.024,0.044 0.044,0.096 0.072,0.14c0.028,0.044 0.06,0.092 0.092,0.132c0.032,0.044 0.076,0.072 0.112,0.112c0.036,0.036 0.068,0.08 0.108,0.112c0.04,0.036 0.08,0.072 0.12,0.104c0.044,0.028 0.088,0.06 0.132,0.084c0.044,0.028 0.096,0.048 0.14,0.068c0.048,0.024 0.096,0.048 0.144,0.064c0.052,0.02 0.1,0.024 0.148,0.036c0.048,0.012 0.096,0.02 0.148,0.02l0,-0.004l0.016,0c0.06,0 0.112,-0.004 0.16,-0.032c0.072,-0.04 0.1,-0.088 0.108,-0.124c0.008,-0.036 0.004,-0.096 -0.044,-0.156Zm-2.208,-2.048c0.004,-0.044 0,-0.092 0.012,-0.14c0.016,-0.06 0.044,-0.104 0.076,-0.148c0.032,-0.048 0.072,-0.088 0.124,-0.116c0.048,-0.024 0.1,-0.044 0.16,-0.052c0.028,-0.004 0.056,-0.004 0.088,-0.008c0.016,0 0.032,0.004 0.044,0.004c0.056,0 0.104,-0.004 0.152,0.004c0.052,0.008 0.1,0.02 0.144,0.036c0.048,0.016 0.092,0.04 0.132,0.064c0.044,0.028 0.08,0.056 0.108,0.088c0.036,0.036 0.072,0.064 0.096,0.104c0.02,0.044 0.02,0.088 0.028,0.14c0,0.016 0.004,0.032 0.004,0.048c0,0.044 -0.004,0.084 -0.016,0.124c-0.016,0.06 -0.044,0.116 -0.088,0.168c-0.032,0.032 -0.06,0.06 -0.092,0.084c-0.032,0.024 -0.068,0.048 -0.104,0.064c-0.052,0.016 -0.104,0.028 -0.152,0.04c-0.056,0.012 -0.108,0.024 -0.156,0.024c-0.056,0.004 -0.108,0.004 -0.16,-0.004c-0.052,-0.008 -0.104,-0.016 -0.156,-0.036c-0.052,-0.02 -0.096,-0.052 -0.132,-0.088c-0.036,-0.036 -0.06,-0.08 -0.076,-0.132c-0.016,-0.048 -0.024,-0.092 -0.032,-0.14c-0.004,-0.024 -0.004,-0.044 -0.004,-0.068l0,-0.06Z" style="fill:#fff;fill-rule:nonzero;"/><path d="M19.456,28.573c0,0.092 0.008,0.092 0.008,0.184c0,0.092 -0.008,0.092 -0.008,0.18c0,0.056 0.004,0.108 0.004,0.164c0,0.052 0.004,0.108 0.004,0.164l0,0.324c0,0.052 0.004,0.108 0.004,0.16c0,0.056 -0.008,0.108 -0.008,0.164c0,0.056 0.008,0.108 0.012,0.156c0.004,0.056 0.004,0.112 0.012,0.16c0.016,0.06 0.052,0.1 0.092,0.136c0.036,0.036 0.08,0.064 0.14,0.072c0.016,0.004 0.032,0.012 0.048,0.012c0.068,0 0.124,-0.024 0.172,-0.068c0.044,-0.036 0.068,-0.092 0.084,-0.16c0.012,-0.064 0.024,-0.124 0.024,-0.184l0,-0.148c0,-0.048 -0.008,-0.1 -0.008,-0.148c0,-0.052 0.004,-0.1 0.004,-0.152c0,-0.048 -0.008,-0.1 -0.008,-0.148l0,-0.148c0,-0.052 0.008,-0.1 0.008,-0.152c0,-0.068 0.008,-0.068 0.008,-0.136l0,-0.136c0,-0.072 -0.004,-0.072 -0.004,-0.14c0,-0.068 -0.004,-0.068 -0.004,-0.136c0,-0.06 -0.004,-0.116 -0.004,-0.176c0,-0.056 -0.004,-0.116 -0.004,-0.176c0,-0.056 0.008,-0.116 0.008,-0.172c0,-0.06 -0.008,-0.12 -0.008,-0.176c0,-0.052 0.012,-0.1 0.012,-0.152c0,-0.048 -0.004,-0.1 -0.004,-0.148c0,-0.06 -0.012,-0.14 -0.056,-0.216c-0.036,-0.064 -0.1,-0.108 -0.176,-0.124c-0.072,-0.016 -0.152,0 -0.212,0.048c-0.06,0.048 -0.104,0.108 -0.116,0.184c0,0.024 0.008,0.024 0.004,0.048l-0.012,0.128c-0.004,0.044 -0.02,0.088 -0.02,0.132c0,0.048 0.004,0.092 0.004,0.14l0,0.276c0,0.044 0.008,0.092 0.008,0.136c-0.004,0.116 -0.008,0.116 -0.008,0.228Z" style="fill:#fff;fill-rule:nonzero;"/><path d="M20.812,30.493c0.044,0.004 0.084,0.004 0.128,0.004c0.004,0 0.004,0.004 0.008,0.004c0.052,0 0.1,-0.004 0.148,-0.004c0.048,0 0.096,0.008 0.144,0.008c0.056,0 0.112,-0.004 0.168,-0.004l0.16,0c0.08,0 0.08,-0.004 0.16,-0.004c0.08,0 0.08,0.008 0.16,0.008c0.084,0 0.084,-0.004 0.164,-0.004c0.08,0 0.08,0.004 0.16,0.004l0.008,0c0.008,0 0.016,-0.004 0.024,-0.004c0.02,0 0.02,0 0.044,0l0.116,-0.012c0.06,-0.008 0.116,-0.032 0.16,-0.072c0.06,-0.056 0.096,-0.132 0.088,-0.208c-0.012,-0.076 -0.068,-0.136 -0.144,-0.172c-0.036,-0.016 -0.068,-0.028 -0.104,-0.036c-0.048,-0.008 -0.092,-0.02 -0.136,-0.024c-0.048,-0.004 -0.092,-0.008 -0.136,-0.008l-0.176,0c-0.056,0 -0.116,0.012 -0.172,0.012c-0.072,0 -0.14,-0.012 -0.212,-0.012c-0.012,0 -0.028,0.008 -0.04,0.008c-0.088,0 -0.164,-0.012 -0.228,-0.036c-0.056,-0.02 -0.1,-0.052 -0.14,-0.088c-0.04,-0.036 -0.064,-0.084 -0.084,-0.14c-0.024,-0.064 -0.036,-0.12 -0.036,-0.168c0.004,-0.06 0,-0.116 0.008,-0.16c0.016,-0.056 0.04,-0.104 0.072,-0.144c0.028,-0.04 0.068,-0.072 0.12,-0.1c0.04,-0.02 0.092,-0.04 0.148,-0.048c0.052,-0.008 0.1,-0.008 0.148,-0.012c0.052,-0.008 0.1,-0.004 0.148,-0.004c0.056,0 0.112,-0.012 0.168,-0.012c0.056,0 0.108,0.012 0.164,0.012c0.024,0 0.024,-0.004 0.048,-0.004c0.044,0 0.084,-0.008 0.128,-0.016c0.044,-0.008 0.084,-0.02 0.12,-0.036c0.04,-0.02 0.076,-0.044 0.1,-0.076c0.024,-0.036 0.048,-0.072 0.048,-0.12c0,-0.048 -0.024,-0.088 -0.048,-0.128c-0.028,-0.032 -0.06,-0.06 -0.108,-0.08c-0.048,-0.024 -0.096,-0.032 -0.132,-0.04c-0.04,-0.004 -0.076,-0.016 -0.112,-0.016c-0.008,0 -0.008,0.012 -0.016,0.012c-0.044,0 -0.092,-0.008 -0.136,-0.008l-0.14,0c-0.048,0 -0.092,-0.004 -0.14,-0.004c-0.064,0 -0.12,0.004 -0.176,-0.004c-0.06,-0.008 -0.116,-0.016 -0.168,-0.036c-0.048,-0.016 -0.088,-0.04 -0.12,-0.068c-0.032,-0.032 -0.048,-0.072 -0.068,-0.112c-0.016,-0.04 -0.032,-0.08 -0.036,-0.128c0,-0.02 0.004,-0.04 0.004,-0.06c0,-0.012 -0.008,-0.028 -0.008,-0.04c0,-0.064 0.012,-0.124 0.036,-0.176c0.024,-0.056 0.068,-0.1 0.12,-0.136c0.048,-0.028 0.108,-0.04 0.172,-0.052c0.06,-0.008 0.112,-0.02 0.168,-0.024c0.056,-0.008 0.112,-0.008 0.168,-0.008l0.132,0c0.044,0 0.084,-0.004 0.128,-0.004c0.044,0 0.088,0.012 0.132,0.012c0.044,0 0.044,-0.016 0.092,-0.016c0.064,0 0.136,0 0.212,-0.036c0.04,-0.02 0.068,-0.048 0.092,-0.08c0.024,-0.036 0.048,-0.072 0.052,-0.112c0.004,-0.04 -0.008,-0.084 -0.032,-0.128c-0.02,-0.032 -0.052,-0.056 -0.1,-0.084c-0.04,-0.024 -0.08,-0.044 -0.112,-0.052c-0.04,-0.012 -0.08,-0.008 -0.12,-0.012c-0.04,-0.004 -0.08,-0.008 -0.12,-0.008c-0.052,0 -0.104,-0.008 -0.156,-0.008c-0.052,0 -0.1,0.004 -0.152,0.004c-0.052,0 -0.104,0.004 -0.156,0.004c-0.052,0 -0.104,-0.008 -0.152,-0.008c-0.052,0 -0.104,-0.004 -0.156,-0.004c-0.052,0 -0.104,0.004 -0.156,0.004c-0.048,0 -0.1,0.008 -0.152,0.008l-0.004,0c-0.044,0 -0.092,-0.004 -0.136,0.004c-0.048,0.004 -0.092,0.016 -0.132,0.024c-0.068,0.016 -0.132,0.036 -0.172,0.08c-0.044,0.044 -0.068,0.104 -0.084,0.172c-0.008,0.048 -0.012,0.1 -0.012,0.156c0,0.056 -0.008,0.108 -0.008,0.164c0,0.052 0.004,0.104 0.004,0.16c0,0.052 -0.004,0.108 -0.004,0.16l0,0.164c0,0.052 0.008,0.108 0.008,0.16c0,0.052 -0.004,0.108 -0.004,0.16c0,0.056 0.004,0.108 0.004,0.164l0,0.16c0,0.052 -0.012,0.108 -0.012,0.16c0,0.056 0.016,0.108 0.016,0.164c0,0.052 -0.004,0.108 -0.004,0.16c0,0.052 0.004,0.108 0.004,0.16c0,0.056 -0.012,0.108 -0.012,0.164c0,0.052 -0.004,0.108 -0.004,0.16c0,0.056 0.016,0.108 0.016,0.16c0,0.04 -0.012,0.072 -0.008,0.104c0.008,0.064 0.032,0.12 0.06,0.164c0.032,0.056 0.072,0.096 0.124,0.128c0.048,0.024 0.108,0.04 0.172,0.044Z" style="fill:#fff;fill-rule:nonzero;"/><path d="M25.884,27.549l-0.012,-0.068c-0.008,-0.06 -0.032,-0.116 -0.08,-0.16c-0.032,-0.032 -0.068,-0.048 -0.108,-0.06c-0.04,-0.012 -0.084,-0.028 -0.124,-0.02c-0.044,0.008 -0.084,0.028 -0.116,0.052c-0.032,0.028 -0.056,0.064 -0.072,0.104c-0.02,0.044 -0.028,0.084 -0.036,0.124c-0.004,0.044 -0.012,0.088 -0.012,0.128c0,0.104 0.004,0.104 0.004,0.212c0,0.056 0.004,0.112 0.004,0.168c0,0.056 -0.008,0.112 -0.012,0.168c0,0.056 0.012,0.112 0.012,0.168c0,0.056 -0.008,0.112 -0.008,0.172c0,0.056 0.004,0.112 0.004,0.168c0,0.052 0,0.104 -0.004,0.156c-0.004,0.048 -0.012,0.1 -0.02,0.156c-0.004,0.024 -0.004,0.024 -0.004,0.052c-0.012,0.08 -0.044,0.148 -0.104,0.196c-0.036,0.028 -0.072,0.024 -0.112,0.012c-0.056,-0.016 -0.108,-0.04 -0.152,-0.088c-0.028,-0.032 -0.052,-0.072 -0.08,-0.108c-0.024,-0.036 -0.052,-0.072 -0.076,-0.112l-0.084,-0.132c-0.028,-0.048 -0.06,-0.088 -0.088,-0.132c-0.028,-0.048 -0.06,-0.088 -0.088,-0.132c-0.028,-0.048 -0.056,-0.092 -0.084,-0.136l-0.04,-0.068c-0.028,-0.044 -0.052,-0.092 -0.076,-0.136c-0.028,-0.044 -0.064,-0.084 -0.092,-0.132l-0.088,-0.148c-0.028,-0.048 -0.06,-0.096 -0.092,-0.144c-0.028,-0.052 -0.06,-0.1 -0.088,-0.148c-0.028,-0.04 -0.04,-0.088 -0.068,-0.132c-0.028,-0.036 -0.06,-0.072 -0.092,-0.112c-0.028,-0.044 -0.064,-0.076 -0.104,-0.108c-0.044,-0.028 -0.084,-0.056 -0.132,-0.072c-0.056,-0.016 -0.112,-0.02 -0.168,-0.028c-0.056,-0.008 -0.108,-0.012 -0.164,-0.008c-0.056,0.004 -0.112,0.004 -0.164,0.016c-0.068,0.02 -0.12,0.06 -0.16,0.104c-0.044,0.044 -0.084,0.096 -0.1,0.164c-0.012,0.044 -0.008,0.096 -0.012,0.144c-0.004,0.048 -0.02,0.096 -0.02,0.144c0,0.056 0.012,0.108 0.012,0.164c0,0.052 -0.012,0.108 -0.012,0.16c0,0.056 0.004,0.108 0.004,0.164l0,0.16c0,0.052 0.004,0.108 0.004,0.16c0,0.064 0.004,0.064 0.004,0.132l0,0.128c0,0.072 -0.012,0.072 -0.012,0.148c0,0.072 0.012,0.072 0.012,0.144c0,0.052 0.004,0.104 0.004,0.156c0,0.052 -0.012,0.104 -0.012,0.156c0,0.052 0.004,0.1 0.004,0.152l0,0.156c0,0.052 -0.004,0.104 -0.004,0.156c0,0.048 0.004,0.092 0.008,0.136c0.004,0.048 0.016,0.092 0.028,0.136l0,0.016c0.004,0.016 0.004,0.036 0.012,0.056c0.02,0.06 0.048,0.108 0.092,0.144c0.048,0.032 0.104,0.044 0.164,0.044c0.064,0 0.12,-0.012 0.164,-0.048c0.044,-0.032 0.068,-0.084 0.088,-0.148c0.02,-0.06 0.028,-0.124 0.028,-0.18l0,-0.02c0,-0.064 -0.008,-0.124 -0.008,-0.188c0,-0.06 0,-0.124 0,-0.184l0,-0.148c0,-0.048 0.004,-0.096 0.004,-0.144c0,-0.052 0.004,-0.1 0.004,-0.148l0,-0.148c0,-0.048 -0.008,-0.096 -0.004,-0.144c0,-0.048 -0.004,-0.1 0,-0.156c0.004,-0.048 0.02,-0.096 0.028,-0.148c0.012,-0.048 0.024,-0.096 0.04,-0.148c0.024,-0.076 0.072,-0.112 0.108,-0.12c0.056,-0.016 0.12,0.016 0.156,0.052c0.012,0.012 0.024,0.004 0.036,0.012c0.048,0.048 0.084,0.096 0.12,0.148c0.028,0.04 0.056,0.08 0.08,0.12c0.028,0.04 0.052,0.08 0.08,0.124c0.024,0.04 0.056,0.076 0.084,0.12c0.024,0.04 0.052,0.08 0.076,0.124c0.024,0.04 0.048,0.084 0.072,0.124l0.072,0.12c0.028,0.04 0.056,0.08 0.08,0.12c0.024,0.04 0.04,0.084 0.064,0.124c0.024,0.04 0.052,0.072 0.076,0.108c0.024,0.04 0.052,0.076 0.076,0.112c0.024,0.04 0.036,0.084 0.06,0.12c0.024,0.04 0.052,0.076 0.076,0.112l0.072,0.116c0.024,0.036 0.044,0.076 0.068,0.116c0.024,0.04 0.06,0.068 0.092,0.1c0.036,0.032 0.072,0.06 0.112,0.08c0.036,0.024 0.08,0.04 0.124,0.052c0.072,0.02 0.144,0.036 0.22,0.036c0.056,0 0.116,-0.004 0.176,-0.016c0.052,-0.008 0.096,-0.028 0.136,-0.052c0.04,-0.024 0.076,-0.06 0.1,-0.1c0.02,-0.04 0.036,-0.088 0.044,-0.136l0,-0.056c0.008,-0.06 0.02,-0.124 0.02,-0.188c0,-0.052 0.004,-0.104 0.004,-0.156c0,-0.056 0.004,-0.108 0.004,-0.16l0,-0.156c-0.004,-0.052 0,-0.104 0,-0.156c0,-0.052 -0.008,-0.104 -0.008,-0.156c0,-0.052 0.004,-0.108 0.004,-0.16c0,-0.052 0.004,-0.104 0.004,-0.156c0,-0.052 -0.004,-0.104 -0.004,-0.156c0,-0.052 -0.008,-0.104 -0.008,-0.156c0,-0.052 0.008,-0.108 0.008,-0.16c0,-0.052 0,-0.104 0,-0.156l0,-0.156c0,-0.052 0.004,-0.104 0.004,-0.156l0,-0.16c0,-0.072 -0.016,-0.144 -0.028,-0.212Z" style="fill:#fff;fill-rule:nonzero;"/><path d="M26.232,30.005c0,0.064 0.008,0.128 0.02,0.192c0.008,0.052 0.028,0.096 0.052,0.136c0.024,0.044 0.052,0.084 0.096,0.108c0.036,0.028 0.084,0.044 0.136,0.056c0.04,0.008 0.084,0.008 0.12,0.008c0.048,0 0.1,-0.012 0.148,-0.012c0.048,0 0.096,0.012 0.144,0.012c0.06,0 0.124,-0.008 0.184,-0.008l0.18,0c0.06,0 0.12,0.008 0.176,0.004c0.06,-0.004 0.12,-0.016 0.18,-0.024c0.052,-0.008 0.104,-0.012 0.152,-0.024c0.052,-0.008 0.104,-0.012 0.156,-0.024c0.048,-0.012 0.1,-0.028 0.148,-0.044c0.052,-0.016 0.096,-0.048 0.14,-0.068c0.052,-0.02 0.096,-0.04 0.144,-0.064c0.044,-0.024 0.092,-0.044 0.136,-0.072c0.048,-0.028 0.088,-0.064 0.128,-0.1c0.044,-0.032 0.084,-0.068 0.124,-0.104c0.036,-0.036 0.08,-0.068 0.116,-0.112c0.036,-0.04 0.064,-0.084 0.096,-0.128c0.028,-0.048 0.056,-0.092 0.08,-0.14c0.024,-0.048 0.04,-0.1 0.06,-0.152c0.02,-0.048 0.036,-0.1 0.052,-0.152c0.012,-0.052 0.028,-0.104 0.036,-0.156c0.008,-0.048 0.004,-0.092 0.004,-0.14c0.004,-0.044 0,-0.088 0,-0.136c-0.004,-0.044 0.004,-0.092 0,-0.136l0,-0.032c-0.004,-0.052 -0.008,-0.104 -0.016,-0.152c-0.008,-0.052 -0.016,-0.104 -0.028,-0.152c-0.012,-0.052 -0.024,-0.1 -0.04,-0.148c-0.016,-0.048 -0.036,-0.096 -0.056,-0.144c-0.024,-0.044 -0.056,-0.088 -0.08,-0.132c-0.028,-0.04 -0.052,-0.088 -0.084,-0.128c-0.032,-0.04 -0.068,-0.076 -0.104,-0.112c-0.036,-0.04 -0.068,-0.076 -0.108,-0.108c-0.04,-0.036 -0.088,-0.056 -0.132,-0.084c-0.04,-0.028 -0.084,-0.056 -0.132,-0.08c-0.044,-0.024 -0.088,-0.052 -0.136,-0.072c-0.044,-0.02 -0.088,-0.028 -0.132,-0.044c-0.048,-0.016 -0.092,-0.024 -0.14,-0.032c-0.044,-0.012 -0.092,-0.028 -0.136,-0.036c-0.048,-0.012 -0.096,-0.02 -0.136,-0.028c-0.044,-0.008 -0.084,-0.004 -0.124,-0.004c-0.04,-0.004 -0.08,-0.016 -0.12,-0.02c-0.064,0 -0.128,0 -0.188,-0.008l-0.164,-0.012c-0.056,-0.004 -0.108,0 -0.164,0c-0.056,0 -0.108,0.004 -0.164,0.004c-0.04,0 -0.076,-0.004 -0.116,-0.004c-0.064,0 -0.128,0.004 -0.192,0.016l-0.028,0c-0.048,0.008 -0.088,0.036 -0.124,0.06c-0.04,0.024 -0.068,0.056 -0.092,0.096c-0.024,0.036 -0.04,0.076 -0.048,0.124c-0.012,0.068 -0.02,0.132 -0.02,0.196c0,0.056 -0.004,0.112 -0.004,0.172l0,0.168c0,0.06 0.012,0.116 0.012,0.172c0,0.06 -0.004,0.116 -0.004,0.172c0,0.056 -0.004,0.116 -0.004,0.172c0,0.076 -0.004,0.076 -0.004,0.152l0,0.148c0,0.068 0.004,0.068 0.004,0.136l0,0.132c0,0.048 0.004,0.1 0.004,0.148l0,0.148c0,0.052 -0.004,0.1 -0.004,0.148l0,0.3c0,0.048 -0.004,0.096 -0.004,0.148Zm0.592,-1.748c0,-0.076 0.004,-0.152 0.02,-0.224c0.012,-0.052 0.032,-0.1 0.056,-0.14c0.032,-0.04 0.072,-0.068 0.116,-0.092c0.04,-0.024 0.084,-0.044 0.136,-0.048c0.052,-0.008 0.104,-0.016 0.156,-0.016c0.052,-0.004 0.1,-0.012 0.152,-0.012c0.052,0.004 0.104,0.016 0.152,0.024c0.052,0.008 0.104,0.008 0.156,0.02l0.144,0.048c0.048,0.02 0.092,0.048 0.14,0.072c0.048,0.028 0.096,0.048 0.14,0.076c0.044,0.032 0.088,0.064 0.124,0.1c0.04,0.036 0.072,0.08 0.108,0.124c0.032,0.04 0.06,0.084 0.088,0.132c0.024,0.044 0.056,0.092 0.072,0.14c0.02,0.052 0.028,0.104 0.04,0.16c0.008,0.052 0.004,0.104 0.008,0.16c0.004,0.048 0.008,0.1 0.004,0.144c0,0.052 -0.008,0.1 -0.016,0.148c-0.008,0.048 -0.032,0.092 -0.044,0.136c-0.016,0.048 -0.028,0.092 -0.052,0.136c-0.02,0.048 -0.048,0.092 -0.076,0.132c-0.028,0.044 -0.052,0.088 -0.088,0.124c-0.036,0.04 -0.076,0.072 -0.116,0.104c-0.04,0.028 -0.084,0.052 -0.128,0.08c-0.04,0.02 -0.072,0.048 -0.116,0.064c-0.036,0.016 -0.076,0.036 -0.12,0.052c-0.04,0.012 -0.084,0.016 -0.128,0.024c-0.056,0.016 -0.108,0.028 -0.16,0.036c-0.06,0.008 -0.112,0.012 -0.168,0.016c-0.056,0.004 -0.112,0.004 -0.164,0c-0.068,-0.004 -0.124,-0.016 -0.176,-0.036c-0.056,-0.02 -0.104,-0.056 -0.144,-0.1c-0.04,-0.04 -0.076,-0.084 -0.096,-0.14c-0.016,-0.052 -0.02,-0.108 -0.02,-0.172c-0.004,-0.048 -0.004,-0.092 -0.004,-0.14c-0.004,-0.044 0.004,-0.092 0.004,-0.136c0,-0.04 -0.008,-0.076 -0.012,-0.112c0,-0.064 0.004,-0.132 0.004,-0.196c0,-0.004 0.004,-0.004 0.004,-0.008c0,-0.064 -0.004,-0.064 -0.004,-0.128c0,-0.06 -0.004,-0.06 -0.004,-0.124c0,-0.048 0.004,-0.096 0.004,-0.144c0,-0.048 0.004,-0.092 0.004,-0.14c0,-0.048 0.004,-0.096 0.004,-0.144Z" style="fill:#fff;fill-rule:nonzero;"/><path d="M31.54,29.777c0.016,-0.056 0.016,-0.116 0.016,-0.168c0.004,-0.06 0.008,-0.116 0.008,-0.168c-0.004,-0.06 -0.016,-0.116 -0.028,-0.172c-0.016,-0.056 -0.024,-0.116 -0.052,-0.164c-0.028,-0.052 -0.068,-0.096 -0.108,-0.14c-0.036,-0.044 -0.08,-0.084 -0.128,-0.116c-0.052,-0.036 -0.1,-0.068 -0.152,-0.092c-0.052,-0.028 -0.108,-0.048 -0.16,-0.064c-0.06,-0.02 -0.116,-0.052 -0.176,-0.072c-0.068,-0.024 -0.136,-0.04 -0.204,-0.064c-0.04,-0.012 -0.084,-0.032 -0.128,-0.048c-0.04,-0.02 -0.076,-0.048 -0.112,-0.072c-0.056,-0.032 -0.104,-0.06 -0.14,-0.096c-0.044,-0.04 -0.08,-0.084 -0.1,-0.132c-0.02,-0.048 -0.028,-0.1 -0.028,-0.148c0,-0.048 0.008,-0.1 0.024,-0.144c0.02,-0.044 0.048,-0.088 0.08,-0.124c0.032,-0.036 0.076,-0.06 0.12,-0.084c0.044,-0.024 0.088,-0.04 0.132,-0.052c0.048,-0.012 0.092,-0.024 0.14,-0.028c0.048,0 0.096,-0.008 0.144,-0.004c0.02,0.004 0.016,0.012 0.036,0.016c0.052,0.008 0.104,0.02 0.16,0.028c0.06,0.004 0.128,-0.008 0.204,-0.008c0.044,0 0.088,-0.004 0.124,-0.024c0.036,-0.02 0.064,-0.052 0.092,-0.092c0.032,-0.044 0.048,-0.088 0.044,-0.136c0,-0.048 -0.02,-0.092 -0.06,-0.132c-0.028,-0.028 -0.064,-0.048 -0.096,-0.068c-0.036,-0.02 -0.068,-0.048 -0.104,-0.06c-0.052,-0.012 -0.108,-0.016 -0.164,-0.024c-0.052,-0.012 -0.108,-0.02 -0.16,-0.024c-0.056,-0.004 -0.112,-0.016 -0.164,-0.016c-0.056,0 -0.112,0.012 -0.164,0.02c-0.056,0.008 -0.112,0.008 -0.164,0.02c-0.052,0.012 -0.104,0.04 -0.156,0.056c-0.048,0.016 -0.1,0.036 -0.152,0.06c-0.044,0.02 -0.084,0.044 -0.124,0.068c-0.04,0.024 -0.084,0.048 -0.116,0.076c-0.04,0.032 -0.076,0.064 -0.104,0.1c-0.036,0.036 -0.056,0.084 -0.084,0.124c-0.024,0.044 -0.056,0.084 -0.076,0.132c-0.02,0.044 -0.02,0.096 -0.032,0.148c-0.012,0.048 -0.02,0.096 -0.024,0.148c-0.004,0.048 -0.004,0.096 -0.004,0.148c0.004,0.06 0.012,0.116 0.028,0.168c0.016,0.056 0.048,0.104 0.076,0.152c0.028,0.048 0.06,0.096 0.1,0.136c0.04,0.044 0.084,0.084 0.136,0.12c0.048,0.032 0.096,0.068 0.152,0.096c0.052,0.024 0.108,0.048 0.168,0.068c0.044,0.02 0.084,0.044 0.128,0.06c0.044,0.016 0.092,0.028 0.136,0.044c0.036,0.012 0.072,0.032 0.108,0.044c0.036,0.016 0.076,0.028 0.112,0.04c0.06,0.024 0.116,0.048 0.168,0.084c0.052,0.036 0.1,0.076 0.14,0.124c0.036,0.04 0.06,0.088 0.072,0.14c0.016,0.052 0.024,0.108 0.02,0.16c-0.008,0.056 -0.032,0.104 -0.06,0.148c-0.036,0.048 -0.076,0.088 -0.116,0.12c-0.044,0.036 -0.092,0.072 -0.144,0.092c-0.048,0.016 -0.1,0.012 -0.152,0.02c-0.048,0.004 -0.096,0.016 -0.148,0.012c-0.048,-0.004 -0.096,-0.02 -0.148,-0.032c-0.048,-0.008 -0.092,-0.02 -0.14,-0.036l-0.064,-0.024c-0.048,-0.012 -0.092,-0.008 -0.136,-0.012c-0.048,-0.004 -0.092,-0.004 -0.136,0.004c-0.052,0.012 -0.1,0.028 -0.136,0.06c-0.032,0.032 -0.064,0.076 -0.08,0.128c-0.012,0.052 0.004,0.096 0.02,0.136c0.02,0.052 0.064,0.088 0.08,0.104c0.024,0.02 0.052,0.036 0.08,0.052c0.036,0.02 0.072,0.04 0.108,0.056c0.04,0.016 0.072,0.04 0.112,0.048c0.044,0.012 0.092,0.012 0.14,0.02c0.048,0.008 0.092,0.02 0.14,0.024c0.048,0.004 0.096,-0.008 0.144,-0.008c0.036,0 0.076,0.004 0.116,0.004c0.016,0 0.016,-0.008 0.028,-0.008c0.02,0 0.04,0.012 0.064,0.012c0.052,-0.004 0.104,-0.008 0.156,-0.016c0.056,-0.008 0.104,-0.024 0.156,-0.04c0.052,-0.016 0.096,-0.044 0.144,-0.068c0.044,-0.024 0.096,-0.036 0.136,-0.06c0.044,-0.028 0.076,-0.064 0.116,-0.096c0.04,-0.032 0.08,-0.06 0.112,-0.096c0.032,-0.036 0.056,-0.08 0.08,-0.124c0.028,-0.04 0.056,-0.08 0.076,-0.124c0.02,-0.048 0.036,-0.092 0.048,-0.14Z" style="fill:#fff;fill-rule:nonzero;"/></g><g><path d="M15.907,18.623c-1.217,0.253 -3.115,1.23 -3.124,1.514c-0.019,0.567 2.712,2.371 5.112,2.367c0.919,-0.002 1.917,-0.182 2.786,-0.576c1.356,-0.615 2.431,-1.385 2.325,-1.791c-0.093,-0.356 -2.248,-1.332 -3.313,-1.514c-0.218,-0.038 -0.553,-0.275 -0.568,-0.663c-0.012,-0.311 1.338,-1.233 1.325,-2.934c-0.012,-1.703 -1.181,-3.151 -2.555,-3.124c-1.173,0.022 -2.598,1.3 -2.556,3.124c0.041,1.778 1.346,2.586 1.325,2.934c-0.026,0.438 -0.395,0.587 -0.757,0.663Z" style="fill:#fff;"/><path d="M17.895,7.358c4.545,0 8.235,3.712 8.235,8.283c0,4.571 -3.69,8.282 -8.235,8.282c-4.546,0 -8.236,-3.711 -8.236,-8.282c0,-4.571 3.69,-8.283 8.236,-8.283Zm0,0.852c4.077,0 7.388,3.33 7.388,7.431c0,4.101 -3.311,7.431 -7.388,7.431c-4.078,0 -7.389,-3.33 -7.389,-7.431c0,-4.101 3.311,-7.431 7.389,-7.431Z" style="fill:#fff;"/><circle cx="23.385" cy="10.103" r="2.177" style="fill:#dc3c39;stroke:#fff;stroke-width:0.18px;"/><path d="M23.385,7.358c1.515,0 2.745,1.23 2.745,2.745c0,1.515 -1.23,2.745 -2.745,2.745c-1.515,0 -2.745,-1.23 -2.745,-2.745c0,-1.515 1.23,-2.745 2.745,-2.745Zm0,0.663c1.149,0 2.082,0.933 2.082,2.082c0,1.15 -0.933,2.083 -2.082,2.083c-1.149,0 -2.083,-0.933 -2.083,-2.083c0,-1.149 0.934,-2.082 2.083,-2.082Z" style="fill:#fff;"/><g><path d="M23.574,9.062c0,-0.052 -0.042,-0.095 -0.094,-0.095l-0.19,0c-0.052,0 -0.094,0.043 -0.094,0.095l0,2.083c0,0.052 0.042,0.094 0.094,0.094l0.19,0c0.052,0 0.094,-0.042 0.094,-0.094l0,-2.083Z" style="fill:#fff;stroke:#fff;stroke-width:0.4px;stroke-linecap:butt;stroke-miterlimit:1.41421;"/><path d="M22.344,9.914c-0.053,0 -0.095,0.042 -0.095,0.095l0,0.189c0,0.052 0.042,0.095 0.095,0.095l2.082,0c0.052,0 0.095,-0.043 0.095,-0.095l0,-0.189c0,-0.053 -0.043,-0.095 -0.095,-0.095l-2.082,0Z" style="fill:#fff;stroke:#fff;stroke-width:0.4px;stroke-linecap:butt;stroke-miterlimit:1.41421;"/></g></g></g></svg>