<?xml version="1.0" encoding="UTF-8" standalone="no"?>
<!DOCTYPE svg PUBLIC "-//W3C//DTD SVG 1.1//EN" "http://www.w3.org/Graphics/SVG/1.1/DTD/svg11.dtd">
<svg width="100%" height="100%" viewBox="0 0 200 200" version="1.1" xmlns="http://www.w3.org/2000/svg" xmlns:xlink="http://www.w3.org/1999/xlink" xml:space="preserve" style="fill-rule:evenodd;clip-rule:evenodd;stroke-linejoin:round;stroke-miterlimit:1.5;">
    <g transform="matrix(1,0,0,1,0,-4)">
        <rect x="-4" y="0" width="213" height="204" style="fill:rgb(76,175,80);"/>
    </g>
    <g transform="matrix(0.299561,0,0,0.299561,24.6972,11.8384)">
        <path d="M278,401L278,359L343,359L309,304L334,304L299,246L318,246L286,195L306,195L252,109L252,401L278,401Z" style="fill:white;"/>
        <g transform="matrix(-1,0,0,1,504,0)">
            <path d="M278,401L278,359L343,359L309,304L334,304L299,246L318,246L286,195L306,195L252,109L252,401L278,401Z" style="fill:white;"/>
        </g>
    </g>
    <g transform="matrix(0.299561,0,0,0.299561,24.6972,11.8384)">
        <path d="M356,183L321,241L332,241L321,266L349,312L325,312L356,368L338,368L338,393L375,393L375,363L421,363L400,325L416,325L391,282L403,282L380,244L395,244L356,183Z" style="fill:white;"/>
    </g>
    <g transform="matrix(-0.299561,0,0,0.299561,175.976,11.8384)">
        <path d="M356,183L321,241L332,241L321,266L349,312L325,312L356,368L338,368L338,393L375,393L375,363L421,363L400,325L416,325L391,282L403,282L380,244L395,244L356,183Z" style="fill:white;"/>
    </g>
    <g transform="matrix(1,0,0,1,-14.7392,11)">
        <path d="M55.428,164.359C55.161,164.226 54.828,164.137 54.473,164.026C54.184,163.937 53.873,163.826 53.584,163.692C53.317,163.537 53.073,163.337 52.784,163.137C52.539,162.959 52.295,162.781 52.05,162.537C51.828,162.337 51.584,162.137 51.361,161.892C51.161,161.692 50.984,161.47 50.806,161.248C50.65,161.026 50.45,160.804 50.295,160.559C50.139,160.337 50.073,160.048 49.939,159.804C49.806,159.559 49.65,159.315 49.539,159.048C49.428,158.826 49.361,158.581 49.25,158.337C49.161,158.115 49.006,157.892 48.917,157.67C48.784,157.404 48.695,157.137 48.584,156.87C48.473,156.604 48.317,156.359 48.206,156.092C48.095,155.826 48.006,155.559 47.895,155.292L47.495,154.515C47.384,154.248 47.317,153.959 47.206,153.692C47.095,153.426 46.895,153.204 46.784,152.937L46.45,152.137C46.339,151.848 46.25,151.537 46.117,151.27L45.717,150.426C45.584,150.137 45.517,149.826 45.384,149.537L45.05,148.781C44.939,148.515 44.828,148.248 44.717,147.981L44.361,147.292C44.273,147.048 44.161,146.804 44.05,146.559L43.784,145.826C43.673,145.581 43.517,145.337 43.406,145.092L43.073,144.337C42.961,144.092 42.895,143.826 42.784,143.581C42.695,143.315 42.561,143.07 42.45,142.826C42.339,142.581 42.25,142.337 42.139,142.115C42.006,141.892 41.873,141.67 41.717,141.47C41.517,141.181 41.25,140.915 40.961,140.759C40.65,140.581 40.295,140.515 39.939,140.515C39.584,140.492 39.25,140.604 38.939,140.759C38.628,140.915 38.361,141.137 38.117,141.448C37.85,141.781 37.65,142.092 37.539,142.448C37.539,142.448 37.517,142.448 37.517,142.47C37.45,142.626 37.406,142.781 37.339,142.937C37.228,143.159 37.139,143.404 37.028,143.648C36.917,143.87 36.873,144.137 36.761,144.359C36.65,144.604 36.561,144.826 36.473,145.07C36.361,145.315 36.206,145.537 36.117,145.759L35.784,146.47C35.673,146.715 35.584,146.959 35.473,147.204C35.384,147.448 35.273,147.67 35.161,147.915C35.05,148.159 34.984,148.404 34.895,148.648C34.761,148.915 34.584,149.181 34.473,149.448C34.361,149.715 34.206,149.981 34.095,150.27L33.761,151.092C33.65,151.381 33.517,151.648 33.384,151.915C33.273,152.204 33.206,152.492 33.095,152.781L32.695,153.581C32.584,153.87 32.45,154.137 32.317,154.404C32.206,154.67 32.117,154.959 32.006,155.248C31.917,155.448 31.895,155.448 31.806,155.67C31.65,156.026 31.473,156.448 31.406,156.892C31.384,157.137 31.406,157.381 31.495,157.581C31.561,157.804 31.695,158.026 31.873,158.159C32.05,158.315 32.295,158.404 32.517,158.426C32.739,158.47 32.961,158.426 33.206,158.359C33.45,158.27 33.717,158.159 33.939,157.959C34.117,157.804 34.273,157.626 34.406,157.448C34.561,157.27 34.673,157.048 34.784,156.848C34.828,156.759 34.828,156.759 34.873,156.648L35.206,156.048C35.361,155.804 35.539,155.581 35.717,155.404C35.939,155.181 36.184,155.07 36.428,154.937C36.673,154.826 36.917,154.692 37.184,154.648C37.473,154.626 37.784,154.559 38.073,154.559C38.473,154.537 38.873,154.515 39.273,154.515C39.539,154.515 39.539,154.559 39.784,154.559L41.717,154.559C42.073,154.581 42.384,154.626 42.673,154.715C43.006,154.781 43.273,154.937 43.539,155.115C43.806,155.27 44.05,155.448 44.273,155.715C44.45,155.937 44.65,156.204 44.806,156.492C44.939,156.759 45.028,157.048 45.139,157.315C45.273,157.581 45.384,157.87 45.517,158.137C45.628,158.404 45.828,158.648 45.939,158.915C46.028,159.07 45.961,159.092 46.05,159.27C46.184,159.559 46.384,159.804 46.517,160.07C46.65,160.337 46.784,160.626 46.939,160.892C47.095,161.159 47.228,161.426 47.406,161.67C47.561,161.937 47.739,162.181 47.917,162.426C48.117,162.67 48.339,162.892 48.517,163.115C48.717,163.359 48.917,163.604 49.117,163.826C49.339,164.048 49.539,164.27 49.784,164.47C50.006,164.67 50.25,164.87 50.495,165.07C50.739,165.248 50.984,165.448 51.228,165.604C51.495,165.781 51.806,165.87 52.073,166.004C52.339,166.159 52.606,166.292 52.895,166.404C53.184,166.537 53.428,166.715 53.739,166.826C54.161,166.959 54.584,167.004 54.961,167.004C55.05,167.004 55.117,166.981 55.206,166.981C55.361,166.959 55.584,166.915 55.828,166.804C56.139,166.67 56.384,166.47 56.473,166.181C56.561,165.87 56.495,165.559 56.295,165.27C56.073,164.892 55.806,164.537 55.428,164.359ZM41.65,151.07C41.517,151.27 41.384,151.47 41.184,151.604C40.984,151.737 40.761,151.848 40.517,151.892C40.273,151.937 40.006,151.915 39.761,151.915C39.495,151.892 39.25,151.87 39.006,151.804C38.673,151.737 38.406,151.626 38.206,151.47C37.984,151.292 37.85,151.07 37.761,150.759C37.695,150.515 37.628,150.248 37.628,149.915C37.673,149.648 37.806,149.381 37.873,149.092C37.939,148.826 37.984,148.559 38.095,148.292C38.206,148.048 38.361,147.804 38.517,147.559C38.673,147.337 38.828,147.092 39.028,146.892C39.206,146.715 39.517,146.648 39.85,146.648C40.161,146.67 40.428,146.759 40.584,146.915C40.806,147.159 40.961,147.426 41.095,147.67C41.228,147.892 41.361,148.092 41.473,148.315C41.561,148.537 41.606,148.781 41.673,149.048C41.739,149.27 41.895,149.492 41.939,149.737C42.006,149.981 42.006,150.226 41.961,150.448C41.939,150.67 41.784,150.87 41.65,151.07Z" style="fill:white;fill-rule:nonzero;"/>
        <path d="M50.828,153.315C50.917,153.559 50.984,153.826 51.117,154.048C51.228,154.292 51.406,154.492 51.539,154.715C51.673,154.937 51.828,155.137 51.984,155.337C52.161,155.559 52.273,155.804 52.45,155.981C52.628,156.181 52.828,156.337 53.028,156.515L53.761,157.026C54.006,157.181 54.25,157.359 54.495,157.492C54.761,157.648 55.006,157.826 55.273,157.937C55.539,158.07 55.828,158.159 56.095,158.27C56.361,158.381 56.673,158.426 56.939,158.492C57.228,158.581 57.517,158.67 57.806,158.715C58.095,158.759 58.384,158.848 58.673,158.87C58.961,158.892 59.273,158.87 59.561,158.87C59.828,158.87 60.095,158.848 60.361,158.826L61.184,158.759C61.45,158.715 61.717,158.692 61.984,158.626C62.25,158.581 62.495,158.492 62.761,158.404C63.095,158.315 63.406,158.159 63.717,158.004C64.006,157.826 64.295,157.626 64.561,157.404C64.784,157.181 64.961,156.981 65.028,156.737C65.117,156.47 65.095,156.204 65.006,155.915C64.895,155.626 64.739,155.426 64.517,155.27C64.317,155.115 64.073,154.981 63.761,154.959C63.473,154.937 63.184,154.981 62.939,155.026C62.65,155.07 62.361,155.115 62.117,155.226C61.917,155.337 61.717,155.404 61.495,155.492C61.295,155.559 61.095,155.648 60.85,155.715C60.473,155.826 60.139,155.937 59.828,155.959C59.45,156.004 59.095,155.959 58.761,155.892C58.473,155.848 58.206,155.781 57.939,155.692C57.673,155.604 57.361,155.581 57.117,155.47C56.85,155.359 56.606,155.181 56.384,155.026C56.139,154.892 55.917,154.715 55.695,154.515C55.495,154.337 55.317,154.115 55.117,153.892C54.939,153.692 54.784,153.448 54.628,153.204C54.473,152.981 54.317,152.737 54.184,152.47C54.073,152.226 53.961,151.981 53.85,151.692C53.761,151.426 53.673,151.137 53.628,150.826C53.561,150.537 53.539,150.248 53.539,149.915C53.517,149.626 53.495,149.337 53.495,149.004C53.495,148.692 53.539,148.381 53.584,148.092C53.628,147.781 53.695,147.47 53.784,147.181C53.85,146.892 53.984,146.604 54.095,146.337C54.228,146.048 54.317,145.737 54.473,145.492C54.65,145.226 54.828,144.981 55.05,144.737C55.228,144.515 55.473,144.315 55.695,144.092C55.939,143.892 56.139,143.648 56.406,143.492C56.673,143.315 56.939,143.159 57.228,143.048C57.495,142.915 57.806,142.848 58.117,142.781C58.406,142.715 58.717,142.626 59.028,142.604C59.317,142.581 59.628,142.648 59.961,142.67C60.273,142.692 60.606,142.692 60.939,142.759C61.228,142.826 61.539,142.981 61.873,143.092C62.161,143.181 62.428,143.226 62.673,143.27C62.961,143.292 63.228,143.248 63.473,143.181C63.739,143.137 63.961,142.981 64.139,142.826C64.317,142.648 64.473,142.448 64.561,142.181C64.628,141.915 64.628,141.648 64.539,141.426C64.45,141.204 64.295,141.004 64.073,140.804C63.895,140.67 63.717,140.559 63.561,140.47C63.339,140.337 63.095,140.226 62.828,140.137C62.584,140.048 62.317,139.981 62.028,139.915C61.673,139.826 61.295,139.781 60.961,139.759C60.584,139.737 60.228,139.737 59.873,139.737C59.628,139.737 59.628,139.804 59.406,139.804C59.095,139.804 58.828,139.804 58.539,139.826C58.25,139.848 57.961,139.87 57.695,139.915C57.406,139.959 57.117,140.026 56.85,140.092C56.561,140.181 56.273,140.204 56.006,140.292C55.739,140.404 55.517,140.559 55.25,140.692C54.984,140.804 54.695,140.892 54.45,141.026C54.206,141.181 53.984,141.359 53.761,141.537C53.539,141.715 53.295,141.87 53.073,142.048L52.45,142.648C52.25,142.87 52.05,143.137 51.873,143.381C51.673,143.626 51.539,143.892 51.384,144.159C51.206,144.426 51.095,144.692 50.961,144.981C50.828,145.27 50.717,145.537 50.606,145.826C50.517,146.115 50.45,146.426 50.384,146.737C50.317,147.026 50.25,147.315 50.206,147.626C50.161,147.959 50.139,148.27 50.117,148.581C50.095,148.915 50.073,149.226 50.073,149.537C50.095,149.848 50.05,150.181 50.095,150.492C50.139,150.826 50.25,151.137 50.317,151.448C50.384,151.781 50.384,152.115 50.473,152.404C50.561,152.737 50.717,153.026 50.828,153.315Z" style="fill:white;fill-rule:nonzero;"/>
        <path d="M80.206,158.248L80.228,158.27C80.473,158.27 80.695,158.159 80.895,158.026C81.095,157.915 81.273,157.759 81.406,157.559C81.539,157.359 81.695,157.159 81.761,156.915C81.85,156.559 81.784,156.181 81.784,155.848C81.784,155.404 81.806,155.404 81.806,154.981C81.806,154.537 81.873,154.537 81.873,154.115C81.873,153.67 81.85,153.67 81.85,153.226C81.85,152.804 81.784,152.804 81.784,152.359C81.784,151.915 81.828,151.915 81.828,151.492L81.828,150.626C81.828,150.181 81.828,150.181 81.828,149.737L81.806,149.737C81.806,149.359 81.873,149.359 81.873,148.981C81.873,148.581 81.85,148.581 81.85,148.204C81.85,147.826 81.828,147.826 81.828,147.426C81.828,147.115 81.806,146.804 81.806,146.492L81.806,145.537C81.806,145.226 81.784,144.915 81.784,144.604C81.784,144.292 81.85,143.981 81.85,143.648C81.85,143.337 81.828,143.026 81.828,142.715C81.828,142.67 81.784,142.67 81.784,142.648C81.784,142.27 81.85,141.826 81.695,141.404C81.584,141.07 81.361,140.848 81.117,140.67C80.873,140.492 80.561,140.381 80.228,140.381C80.206,140.381 80.206,140.337 80.206,140.337C79.873,140.337 79.539,140.426 79.295,140.604C79.028,140.781 78.873,141.092 78.761,141.404C78.628,141.759 78.584,142.115 78.584,142.404C78.584,142.759 78.628,143.092 78.628,143.448L78.628,144.004C78.628,144.27 78.584,144.559 78.561,144.848C78.517,145.115 78.406,145.381 78.339,145.648C78.25,145.937 78.161,146.159 78.028,146.359C77.873,146.581 77.695,146.737 77.473,146.87C77.273,147.004 77.05,147.092 76.784,147.137C76.45,147.204 76.095,147.315 75.717,147.315C75.339,147.315 74.939,147.292 74.561,147.292C74.273,147.292 74.006,147.27 73.739,147.27C73.473,147.27 73.206,147.315 72.917,147.315C72.65,147.315 72.384,147.315 72.117,147.292C71.806,147.292 71.495,147.248 71.161,147.204C70.85,147.159 70.561,147.048 70.339,146.915C70.073,146.759 69.873,146.559 69.717,146.292C69.584,146.07 69.517,145.781 69.45,145.47C69.384,145.181 69.361,144.937 69.339,144.692C69.295,144.426 69.206,144.159 69.206,143.915C69.206,143.648 69.25,143.381 69.228,143.115C69.228,142.848 69.184,142.581 69.184,142.315C69.184,142.004 69.206,141.604 69.028,141.204C68.873,140.892 68.65,140.626 68.361,140.47C68.073,140.337 67.739,140.315 67.384,140.381C67.05,140.47 66.806,140.626 66.606,140.848C66.406,141.048 66.228,141.315 66.161,141.648C66.095,141.981 66.05,142.292 66.028,142.581C66.006,142.892 66.05,143.226 66.05,143.515C66.05,143.781 66.006,144.07 66.006,144.337C66.006,144.604 66.028,144.87 66.028,145.137C66.028,145.404 66.073,145.67 66.073,145.959C66.073,146.226 65.984,146.492 65.984,146.759C65.984,147.026 66.05,147.292 66.05,147.581C66.05,147.848 66.006,148.115 66.006,148.381C66.006,148.648 66.028,148.915 66.028,149.204C66.028,149.737 66.028,149.737 66.006,150.248L66.006,151.315C66.006,151.915 66.028,151.915 66.028,152.515C66.05,152.826 66.05,153.137 66.05,153.448C66.05,153.759 65.984,154.07 65.984,154.381C65.984,154.67 66.05,154.981 66.05,155.292C66.05,155.559 66.006,155.848 66.028,156.115C66.073,156.381 66.117,156.648 66.184,156.915C66.273,157.292 66.473,157.581 66.717,157.804C66.984,158.026 67.317,158.181 67.717,158.181C68.095,158.181 68.406,158.004 68.673,157.759C68.917,157.537 69.073,157.226 69.161,156.848C69.206,156.581 69.184,156.315 69.184,156.048C69.206,155.781 69.228,155.492 69.228,155.226C69.228,154.959 69.295,154.67 69.295,154.404C69.295,154.137 69.273,153.87 69.273,153.581C69.273,153.292 69.25,153.004 69.273,152.715C69.317,152.426 69.428,152.137 69.495,151.848C69.561,151.559 69.65,151.315 69.784,151.092C69.939,150.848 70.117,150.648 70.339,150.492C70.561,150.359 70.828,150.27 71.117,150.204C71.406,150.137 71.695,150.115 71.939,150.092C72.228,150.048 72.495,150.092 72.761,150.115C73.006,150.115 73.25,150.048 73.495,150.048L75.006,150.048C75.273,150.026 75.539,150.07 75.828,150.092C76.095,150.115 76.361,150.137 76.65,150.204C76.961,150.248 77.25,150.359 77.473,150.492C77.739,150.648 77.939,150.87 78.095,151.137C78.25,151.359 78.339,151.648 78.384,151.959C78.45,152.27 78.495,152.559 78.517,152.826C78.561,153.159 78.65,153.448 78.628,153.715L78.628,155.226C78.628,155.47 78.561,155.715 78.584,155.981C78.584,156.248 78.65,156.581 78.739,156.915C78.784,157.159 78.85,157.404 78.984,157.604C79.117,157.804 79.317,157.959 79.517,158.07C79.739,158.181 79.961,158.248 80.206,158.248Z" style="fill:white;fill-rule:nonzero;"/>
        <path d="M84.561,147.737C84.561,148.248 84.606,148.248 84.606,148.759C84.606,149.27 84.561,149.27 84.561,149.759C84.561,150.07 84.584,150.359 84.584,150.67C84.584,150.959 84.606,151.27 84.606,151.581L84.606,153.381C84.606,153.67 84.628,153.981 84.628,154.27C84.628,154.581 84.584,154.87 84.584,155.181C84.584,155.492 84.628,155.781 84.65,156.048C84.673,156.359 84.673,156.67 84.717,156.937C84.806,157.27 85.006,157.492 85.228,157.692C85.428,157.892 85.673,158.048 86.006,158.092C86.095,158.115 86.184,158.159 86.273,158.159C86.65,158.159 86.961,158.026 87.228,157.781C87.473,157.581 87.606,157.27 87.695,156.892C87.761,156.537 87.828,156.204 87.828,155.87L87.828,155.048C87.828,154.781 87.784,154.492 87.784,154.226C87.784,153.937 87.806,153.67 87.806,153.381C87.806,153.115 87.761,152.826 87.761,152.559L87.761,151.737C87.761,151.448 87.806,151.181 87.806,150.892C87.806,150.515 87.85,150.515 87.85,150.137L87.85,149.381C87.85,148.981 87.828,148.981 87.828,148.604C87.828,148.226 87.806,148.226 87.806,147.848C87.806,147.515 87.784,147.204 87.784,146.87C87.784,146.559 87.761,146.226 87.761,145.892C87.761,145.581 87.806,145.248 87.806,144.937C87.806,144.604 87.761,144.27 87.761,143.959C87.761,143.67 87.828,143.404 87.828,143.115C87.828,142.848 87.806,142.559 87.806,142.292C87.806,141.959 87.739,141.515 87.495,141.092C87.295,140.737 86.939,140.492 86.517,140.404C86.117,140.315 85.673,140.404 85.339,140.67C85.006,140.937 84.761,141.27 84.695,141.692C84.695,141.826 84.739,141.826 84.717,141.959L84.65,142.67C84.628,142.915 84.539,143.159 84.539,143.404C84.539,143.67 84.561,143.915 84.561,144.181L84.561,145.715C84.561,145.959 84.606,146.226 84.606,146.47C84.584,147.115 84.561,147.115 84.561,147.737Z" style="fill:white;fill-rule:nonzero;"/>
        <path d="M92.095,158.404C92.339,158.426 92.561,158.426 92.806,158.426C92.828,158.426 92.828,158.448 92.85,158.448C93.139,158.448 93.406,158.426 93.673,158.426C93.939,158.426 94.206,158.47 94.473,158.47C94.784,158.47 95.095,158.448 95.406,158.448L96.295,158.448C96.739,158.448 96.739,158.426 97.184,158.426C97.628,158.426 97.628,158.47 98.073,158.47C98.539,158.47 98.539,158.448 98.984,158.448C99.428,158.448 99.428,158.47 99.873,158.47L99.917,158.47C99.961,158.47 100.006,158.448 100.05,158.448C100.161,158.448 100.161,158.448 100.295,158.448L100.939,158.381C101.273,158.337 101.584,158.204 101.828,157.981C102.161,157.67 102.361,157.248 102.317,156.826C102.25,156.404 101.939,156.07 101.517,155.87C101.317,155.781 101.139,155.715 100.939,155.67C100.673,155.626 100.428,155.559 100.184,155.537C99.917,155.515 99.673,155.492 99.428,155.492L98.45,155.492C98.139,155.492 97.806,155.559 97.495,155.559C97.095,155.559 96.717,155.492 96.317,155.492C96.25,155.492 96.161,155.537 96.095,155.537C95.606,155.537 95.184,155.47 94.828,155.337C94.517,155.226 94.273,155.048 94.05,154.848C93.828,154.648 93.695,154.381 93.584,154.07C93.45,153.715 93.384,153.404 93.384,153.137C93.406,152.804 93.384,152.492 93.428,152.248C93.517,151.937 93.65,151.67 93.828,151.448C93.984,151.226 94.206,151.048 94.495,150.892C94.717,150.781 95.006,150.67 95.317,150.626C95.606,150.581 95.873,150.581 96.139,150.559C96.428,150.515 96.695,150.537 96.961,150.537C97.273,150.537 97.584,150.47 97.895,150.47C98.206,150.47 98.495,150.537 98.806,150.537C98.939,150.537 98.939,150.515 99.073,150.515C99.317,150.515 99.539,150.47 99.784,150.426C100.028,150.381 100.25,150.315 100.45,150.226C100.673,150.115 100.873,149.981 101.006,149.804C101.139,149.604 101.273,149.404 101.273,149.137C101.273,148.87 101.139,148.648 101.006,148.426C100.85,148.248 100.673,148.092 100.406,147.981C100.139,147.848 99.873,147.804 99.673,147.759C99.45,147.737 99.25,147.67 99.05,147.67C99.006,147.67 99.006,147.737 98.961,147.737C98.717,147.737 98.45,147.692 98.206,147.692L97.428,147.692C97.161,147.692 96.917,147.67 96.65,147.67C96.295,147.67 95.984,147.692 95.673,147.648C95.339,147.604 95.028,147.559 94.739,147.448C94.473,147.359 94.25,147.226 94.073,147.07C93.895,146.892 93.806,146.67 93.695,146.448C93.606,146.226 93.517,146.004 93.495,145.737C93.495,145.626 93.517,145.515 93.517,145.404C93.517,145.337 93.473,145.248 93.473,145.181C93.473,144.826 93.539,144.492 93.673,144.204C93.806,143.892 94.05,143.648 94.339,143.448C94.606,143.292 94.939,143.226 95.295,143.159C95.628,143.115 95.917,143.048 96.228,143.026C96.539,142.981 96.85,142.981 97.161,142.981L97.895,142.981C98.139,142.981 98.361,142.959 98.606,142.959C98.85,142.959 99.095,143.026 99.339,143.026C99.584,143.026 99.584,142.937 99.85,142.937C100.206,142.937 100.606,142.937 101.028,142.737C101.25,142.626 101.406,142.47 101.539,142.292C101.673,142.092 101.806,141.892 101.828,141.67C101.85,141.448 101.784,141.204 101.65,140.959C101.539,140.781 101.361,140.648 101.095,140.492C100.873,140.359 100.65,140.248 100.473,140.204C100.25,140.137 100.028,140.159 99.806,140.137C99.584,140.115 99.361,140.092 99.139,140.092C98.85,140.092 98.561,140.048 98.273,140.048C97.984,140.048 97.717,140.07 97.428,140.07C97.139,140.07 96.85,140.092 96.561,140.092C96.273,140.092 95.984,140.048 95.717,140.048C95.428,140.048 95.139,140.026 94.85,140.026C94.561,140.026 94.273,140.048 93.984,140.048C93.717,140.048 93.428,140.092 93.139,140.092L93.117,140.092C92.873,140.092 92.606,140.07 92.361,140.115C92.095,140.137 91.85,140.204 91.628,140.248C91.25,140.337 90.895,140.448 90.673,140.692C90.428,140.937 90.295,141.27 90.206,141.648C90.161,141.915 90.139,142.204 90.139,142.515C90.139,142.826 90.095,143.115 90.095,143.426C90.095,143.715 90.117,144.004 90.117,144.315C90.117,144.604 90.095,144.915 90.095,145.204L90.095,146.115C90.095,146.404 90.139,146.715 90.139,147.004C90.139,147.292 90.117,147.604 90.117,147.892C90.117,148.204 90.139,148.492 90.139,148.804L90.139,149.692C90.139,149.981 90.073,150.292 90.073,150.581C90.073,150.892 90.161,151.181 90.161,151.492C90.161,151.781 90.139,152.092 90.139,152.381C90.139,152.67 90.161,152.981 90.161,153.27C90.161,153.581 90.095,153.87 90.095,154.181C90.095,154.47 90.073,154.781 90.073,155.07C90.073,155.381 90.161,155.67 90.161,155.959C90.161,156.181 90.095,156.359 90.117,156.537C90.161,156.892 90.295,157.204 90.45,157.448C90.628,157.759 90.85,157.981 91.139,158.159C91.406,158.292 91.739,158.381 92.095,158.404Z" style="fill:white;fill-rule:nonzero;"/>
        <path d="M103.517,143.27L103.828,144.07C104.006,144.492 103.984,144.492 104.139,144.892C104.295,145.292 104.25,145.315 104.428,145.715L104.761,146.559C104.873,146.848 105.006,147.115 105.139,147.381L105.473,148.226C105.606,148.515 105.673,148.804 105.784,149.092L106.117,149.937C106.228,150.204 106.406,150.47 106.517,150.737C106.628,151.026 106.695,151.337 106.806,151.604C106.895,151.848 107.028,152.092 107.117,152.337C107.228,152.581 107.295,152.848 107.406,153.092C107.495,153.337 107.65,153.559 107.761,153.826C107.85,154.07 107.895,154.337 108.006,154.604C108.095,154.848 108.206,155.092 108.295,155.337C108.384,155.581 108.517,155.826 108.628,156.092C108.739,156.381 108.895,156.648 109.05,156.87C109.206,157.137 109.384,157.381 109.606,157.581C109.806,157.737 110.006,157.804 110.228,157.892C110.45,157.959 110.65,158.048 110.917,158.048C110.917,158.048 110.917,158.026 110.939,158.026C111.25,158.026 111.539,157.915 111.806,157.781C112.073,157.648 112.295,157.448 112.473,157.181C112.65,156.937 112.85,156.692 112.984,156.426C113.117,156.159 113.206,155.87 113.317,155.559C113.45,155.27 113.517,154.981 113.65,154.692C113.761,154.404 113.873,154.115 114.006,153.826C114.095,153.604 114.25,153.381 114.339,153.159C114.428,152.937 114.495,152.692 114.606,152.448C114.695,152.226 114.761,151.981 114.85,151.737C114.984,151.47 115.139,151.181 115.25,150.915C115.361,150.626 115.495,150.337 115.628,150.048C115.739,149.781 115.828,149.47 115.939,149.204L116.273,148.359C116.428,148.004 116.584,147.67 116.717,147.315C116.828,147.026 116.984,146.737 117.095,146.448C117.228,146.159 117.339,145.87 117.473,145.581C117.584,145.337 117.628,145.048 117.739,144.804L118.073,144.048C118.184,143.804 118.317,143.559 118.406,143.292C118.495,143.048 118.561,142.759 118.65,142.515C118.717,142.292 118.85,142.048 118.873,141.781C118.895,141.515 118.873,141.27 118.806,141.048C118.717,140.804 118.561,140.648 118.361,140.492C118.161,140.337 117.961,140.27 117.695,140.248C117.473,140.248 117.228,140.226 116.961,140.337C116.717,140.426 116.517,140.581 116.339,140.715C116.184,140.848 116.028,141.026 115.917,141.204C115.806,141.381 115.695,141.581 115.606,141.804C115.606,141.848 115.606,141.848 115.584,141.87C115.473,142.159 115.339,142.448 115.228,142.737C115.117,143.026 114.984,143.315 114.873,143.604C114.761,143.892 114.673,144.204 114.561,144.492L114.295,145.337C114.184,145.604 114.028,145.87 113.939,146.137C113.828,146.426 113.695,146.715 113.584,147.026C113.473,147.315 113.428,147.648 113.317,147.937C113.206,148.226 113.05,148.515 112.939,148.804C112.828,149.07 112.695,149.337 112.561,149.604C112.428,149.87 112.295,150.115 112.117,150.359C111.806,150.759 111.45,150.981 111.095,150.981L111.095,151.048C110.761,151.048 110.473,150.781 110.139,150.404C110.006,150.226 109.873,150.048 109.761,149.848C109.65,149.648 109.539,149.47 109.45,149.226C109.339,148.981 109.228,148.715 109.139,148.47C109.028,148.204 108.961,147.959 108.85,147.692C108.761,147.448 108.65,147.181 108.561,146.915C108.473,146.67 108.361,146.426 108.25,146.159C108.161,145.892 108.05,145.648 107.961,145.381C107.873,145.137 107.717,144.892 107.628,144.626L107.361,143.848C107.273,143.604 107.161,143.337 107.073,143.07C106.984,142.826 106.895,142.559 106.784,142.292C106.695,142.048 106.606,141.804 106.517,141.604C106.384,141.359 106.206,141.181 106.05,141.004C105.873,140.781 105.695,140.604 105.45,140.47C105.228,140.337 104.984,140.226 104.695,140.181C104.473,140.137 104.228,140.092 104.006,140.159C103.784,140.204 103.606,140.359 103.428,140.537C103.273,140.692 103.117,140.87 103.05,141.115C102.984,141.315 102.961,141.559 103.006,141.804C103.05,142.07 103.117,142.315 103.206,142.559C103.295,142.804 103.406,143.048 103.517,143.27Z" style="fill:white;fill-rule:nonzero;"/>
        <path d="M121.784,158.404C122.028,158.426 122.25,158.426 122.495,158.426C122.517,158.426 122.517,158.448 122.539,158.448C122.828,158.448 123.095,158.426 123.361,158.426C123.628,158.426 123.895,158.47 124.161,158.47C124.473,158.47 124.784,158.448 125.095,158.448L125.984,158.448C126.428,158.448 126.428,158.426 126.873,158.426C127.317,158.426 127.317,158.47 127.761,158.47C128.228,158.47 128.228,158.448 128.673,158.448C129.117,158.448 129.117,158.47 129.561,158.47L129.606,158.47C129.65,158.47 129.695,158.448 129.739,158.448C129.85,158.448 129.85,158.448 129.984,158.448L130.628,158.381C130.961,158.337 131.273,158.204 131.517,157.981C131.85,157.67 132.05,157.248 132.006,156.826C131.939,156.404 131.628,156.07 131.206,155.87C131.006,155.781 130.828,155.715 130.628,155.67C130.361,155.626 130.117,155.559 129.873,155.537C129.606,155.515 129.361,155.492 129.117,155.492L128.139,155.492C127.828,155.492 127.495,155.559 127.184,155.559C126.784,155.559 126.406,155.492 126.006,155.492C125.939,155.492 125.85,155.537 125.784,155.537C125.295,155.537 124.873,155.47 124.517,155.337C124.206,155.226 123.961,155.048 123.739,154.848C123.517,154.648 123.384,154.381 123.273,154.07C123.139,153.715 123.073,153.404 123.073,153.137C123.095,152.804 123.073,152.492 123.117,152.248C123.206,151.937 123.339,151.67 123.517,151.448C123.673,151.226 123.895,151.048 124.184,150.892C124.406,150.781 124.695,150.67 125.006,150.626C125.295,150.581 125.561,150.581 125.828,150.559C126.117,150.515 126.384,150.537 126.65,150.537C126.961,150.537 127.273,150.47 127.584,150.47C127.895,150.47 128.184,150.537 128.495,150.537C128.628,150.537 128.628,150.515 128.761,150.515C129.006,150.515 129.228,150.47 129.473,150.426C129.717,150.381 129.939,150.315 130.139,150.226C130.361,150.115 130.561,149.981 130.695,149.804C130.828,149.604 130.961,149.404 130.961,149.137C130.961,148.87 130.828,148.648 130.695,148.426C130.539,148.248 130.361,148.092 130.095,147.981C129.828,147.848 129.561,147.804 129.361,147.759C129.139,147.737 128.939,147.67 128.739,147.67C128.695,147.67 128.695,147.737 128.65,147.737C128.406,147.737 128.139,147.692 127.895,147.692L127.117,147.692C126.85,147.692 126.606,147.67 126.339,147.67C125.984,147.67 125.673,147.692 125.361,147.648C125.028,147.604 124.717,147.559 124.428,147.448C124.161,147.359 123.939,147.226 123.761,147.07C123.584,146.892 123.495,146.67 123.384,146.448C123.295,146.226 123.206,146.004 123.184,145.737C123.184,145.626 123.206,145.515 123.206,145.404C123.206,145.337 123.161,145.248 123.161,145.181C123.161,144.826 123.228,144.492 123.361,144.204C123.495,143.892 123.739,143.648 124.028,143.448C124.295,143.292 124.628,143.226 124.984,143.159C125.317,143.115 125.606,143.048 125.917,143.026C126.228,142.981 126.539,142.981 126.85,142.981L127.584,142.981C127.828,142.981 128.05,142.959 128.295,142.959C128.539,142.959 128.784,143.026 129.028,143.026C129.273,143.026 129.273,142.937 129.539,142.937C129.895,142.937 130.295,142.937 130.717,142.737C130.939,142.626 131.095,142.47 131.228,142.292C131.361,142.092 131.495,141.892 131.517,141.67C131.539,141.448 131.473,141.204 131.339,140.959C131.228,140.781 131.05,140.648 130.784,140.492C130.561,140.359 130.339,140.248 130.161,140.204C129.939,140.137 129.717,140.159 129.495,140.137C129.273,140.115 129.05,140.092 128.828,140.092C128.539,140.092 128.25,140.048 127.961,140.048C127.673,140.048 127.406,140.07 127.117,140.07C126.828,140.07 126.539,140.092 126.25,140.092C125.961,140.092 125.673,140.048 125.406,140.048C125.117,140.048 124.828,140.026 124.539,140.026C124.25,140.026 123.961,140.048 123.673,140.048C123.406,140.048 123.117,140.092 122.828,140.092L122.806,140.092C122.561,140.092 122.295,140.07 122.05,140.115C121.784,140.137 121.539,140.204 121.317,140.248C120.939,140.337 120.584,140.448 120.361,140.692C120.117,140.937 119.984,141.27 119.895,141.648C119.85,141.915 119.828,142.204 119.828,142.515C119.828,142.826 119.784,143.115 119.784,143.426C119.784,143.715 119.806,144.004 119.806,144.315C119.806,144.604 119.784,144.915 119.784,145.204L119.784,146.115C119.784,146.404 119.828,146.715 119.828,147.004C119.828,147.292 119.806,147.604 119.806,147.892C119.806,148.204 119.828,148.492 119.828,148.804L119.828,149.692C119.828,149.981 119.761,150.292 119.761,150.581C119.761,150.892 119.85,151.181 119.85,151.492C119.85,151.781 119.828,152.092 119.828,152.381C119.828,152.67 119.85,152.981 119.85,153.27C119.85,153.581 119.784,153.87 119.784,154.181C119.784,154.47 119.761,154.781 119.761,155.07C119.761,155.381 119.85,155.67 119.85,155.959C119.85,156.181 119.784,156.359 119.806,156.537C119.85,156.892 119.984,157.204 120.139,157.448C120.317,157.759 120.539,157.981 120.828,158.159C121.095,158.292 121.428,158.381 121.784,158.404Z" style="fill:white;fill-rule:nonzero;"/>
        <path d="M152.05,158.204C152.295,158.204 152.539,158.115 152.761,158.004C153.117,157.781 153.339,157.404 153.45,156.959C153.539,156.626 153.606,156.27 153.606,155.915L153.606,155.092C153.606,154.804 153.561,154.537 153.561,154.248C153.561,153.981 153.606,153.692 153.606,153.404C153.606,153.137 153.584,152.848 153.584,152.581C153.584,152.292 153.561,152.026 153.561,151.737C153.561,151.47 153.539,151.181 153.539,150.892C153.539,150.359 153.606,150.359 153.606,149.804L153.606,148.759C153.606,148.248 153.561,148.248 153.561,147.715L153.561,146.915C153.561,146.626 153.606,146.359 153.606,146.092C153.606,145.826 153.561,145.559 153.561,145.27C153.561,144.159 153.806,142.87 153.517,141.781C152.984,139.67 149.984,139.559 148.45,140.67C147.739,141.181 147.361,142.004 147.095,142.826C146.717,143.959 146.317,145.07 145.939,146.204C145.828,146.492 145.761,146.826 145.65,147.115C145.539,147.47 145.517,147.47 145.384,147.804C145.273,148.159 145.295,148.159 145.161,148.515C145.05,148.87 145.006,148.848 144.895,149.204C144.784,149.515 144.65,149.781 144.517,150.004C144.339,150.27 144.161,150.492 143.939,150.692C143.695,150.915 143.45,150.981 143.206,151.004C142.961,151.004 142.695,150.937 142.473,150.715C142.273,150.559 142.139,150.337 142.006,150.115C141.873,149.915 141.739,149.692 141.65,149.426C141.539,149.159 141.406,148.915 141.317,148.626L140.984,147.826C140.295,145.937 139.761,144.026 139.028,142.159C138.873,141.759 138.695,141.359 138.428,141.026C137.428,139.826 134.584,139.604 133.45,140.715C132.917,141.204 132.739,141.959 132.695,142.692C132.65,143.715 132.717,144.737 132.717,145.737C132.717,146.026 132.739,146.337 132.739,146.626C132.739,146.915 132.761,147.204 132.761,147.492C132.761,147.781 132.739,148.092 132.739,148.381C132.739,148.67 132.717,148.959 132.717,149.248C132.717,149.537 132.673,149.848 132.673,150.137C132.673,150.426 132.761,150.715 132.761,151.004C132.761,151.292 132.673,151.604 132.673,151.892L132.673,152.759C132.673,153.048 132.717,153.359 132.717,153.648C132.717,153.937 132.695,154.226 132.695,154.515C132.695,154.804 132.761,155.115 132.761,155.404C132.761,155.648 132.739,155.915 132.784,156.159C132.806,156.426 132.828,156.67 132.895,156.937C132.984,157.315 133.184,157.604 133.45,157.804C133.739,158.026 134.05,158.181 134.428,158.159C134.806,158.159 135.095,157.981 135.339,157.759C135.584,157.537 135.739,157.248 135.806,156.892C135.873,156.581 135.961,156.27 135.961,155.959C135.961,155.648 135.917,155.337 135.917,155.026C135.917,154.737 135.961,154.426 135.961,154.115C135.961,153.848 135.917,153.559 135.917,153.292C135.917,153.026 135.939,152.737 135.939,152.47C135.939,152.204 135.917,151.915 135.917,151.648C135.917,151.381 135.984,151.092 135.984,150.826C135.984,150.581 135.939,150.337 135.961,150.092C135.961,149.848 136.05,149.626 136.05,149.381L136.117,148.648C136.139,148.381 136.073,148.381 136.095,148.115C136.117,147.87 136.206,147.626 136.273,147.315C136.339,147.004 136.45,146.715 136.695,146.47C136.828,146.337 136.939,146.359 137.073,146.404C137.206,146.47 137.339,146.559 137.45,146.648C137.739,146.892 137.917,147.248 138.095,147.581C138.228,147.826 138.384,148.026 138.495,148.27C138.584,148.515 138.65,148.759 138.739,149.026L139.006,149.759C139.073,149.981 139.095,150.204 139.184,150.426L139.45,151.226C139.539,151.492 139.695,151.737 139.784,152.004C139.873,152.292 139.895,152.581 139.984,152.848C140.073,153.115 140.139,153.404 140.228,153.67C140.295,153.892 140.428,154.092 140.495,154.315C140.561,154.537 140.584,154.781 140.65,155.004C140.761,155.292 140.895,155.581 141.028,155.915C141.139,156.204 141.184,156.537 141.339,156.826C141.45,157.092 141.606,157.315 141.784,157.537C141.961,157.737 142.184,157.892 142.428,158.004C142.65,158.115 142.939,158.204 143.206,158.181C143.473,158.181 143.739,158.07 143.961,157.937C144.206,157.804 144.406,157.626 144.561,157.381C144.806,157.07 144.917,156.692 145.028,156.381C145.139,156.115 145.295,155.848 145.406,155.581C145.495,155.315 145.539,155.004 145.628,154.737C145.717,154.47 145.85,154.204 145.939,153.915C146.05,153.648 146.073,153.337 146.161,153.07C146.228,152.826 146.361,152.604 146.45,152.359C146.517,152.115 146.539,151.848 146.628,151.604C146.717,151.359 146.85,151.137 146.939,150.892C147.028,150.648 147.117,150.404 147.206,150.159L147.406,149.648C147.495,149.381 147.606,149.159 147.695,148.892C147.806,148.648 147.873,148.404 147.984,148.159C148.095,147.915 148.228,147.67 148.361,147.448C148.584,147.048 148.828,146.781 149.117,146.581C149.361,146.426 149.539,146.426 149.761,146.626C150.006,146.87 150.117,147.204 150.184,147.604C150.206,147.759 150.161,147.759 150.184,147.915C150.228,148.226 150.25,148.515 150.273,148.804C150.295,149.115 150.361,149.404 150.361,149.715L150.361,151.27C150.361,151.537 150.339,151.804 150.339,152.07C150.339,152.337 150.317,152.581 150.317,152.848C150.317,153.115 150.384,153.381 150.384,153.626L150.384,154.426C150.384,154.67 150.406,154.937 150.406,155.204C150.406,155.492 150.361,155.759 150.384,156.048C150.406,156.315 150.473,156.604 150.517,156.87C150.584,157.181 150.695,157.448 150.873,157.648C151.05,157.848 151.317,158.004 151.606,158.092C151.761,158.137 151.895,158.204 152.05,158.204Z" style="fill:white;fill-rule:nonzero;"/>
        <path d="M156.561,158.404C156.806,158.426 157.028,158.426 157.273,158.426C157.295,158.426 157.295,158.448 157.317,158.448C157.606,158.448 157.873,158.426 158.139,158.426C158.406,158.426 158.673,158.47 158.939,158.47C159.25,158.47 159.561,158.448 159.873,158.448L160.761,158.448C161.206,158.448 161.206,158.426 161.65,158.426C162.095,158.426 162.095,158.47 162.539,158.47C163.006,158.47 163.006,158.448 163.45,158.448C163.895,158.448 163.895,158.47 164.339,158.47L164.384,158.47C164.428,158.47 164.473,158.448 164.517,158.448C164.628,158.448 164.628,158.448 164.761,158.448L165.406,158.381C165.739,158.337 166.05,158.204 166.295,157.981C166.628,157.67 166.828,157.248 166.784,156.826C166.717,156.404 166.406,156.07 165.984,155.87C165.784,155.781 165.606,155.715 165.406,155.67C165.139,155.626 164.895,155.559 164.65,155.537C164.384,155.515 164.139,155.492 163.895,155.492L162.917,155.492C162.606,155.492 162.273,155.559 161.961,155.559C161.561,155.559 161.184,155.492 160.784,155.492C160.717,155.492 160.628,155.537 160.561,155.537C160.073,155.537 159.65,155.47 159.295,155.337C158.984,155.226 158.739,155.048 158.517,154.848C158.295,154.648 158.161,154.381 158.05,154.07C157.917,153.715 157.85,153.404 157.85,153.137C157.873,152.804 157.85,152.492 157.895,152.248C157.984,151.937 158.117,151.67 158.295,151.448C158.45,151.226 158.673,151.048 158.961,150.892C159.184,150.781 159.473,150.67 159.784,150.626C160.073,150.581 160.339,150.581 160.606,150.559C160.895,150.515 161.161,150.537 161.428,150.537C161.739,150.537 162.05,150.47 162.361,150.47C162.673,150.47 162.961,150.537 163.273,150.537C163.406,150.537 163.406,150.515 163.539,150.515C163.784,150.515 164.006,150.47 164.25,150.426C164.495,150.381 164.717,150.315 164.917,150.226C165.139,150.115 165.339,149.981 165.473,149.804C165.606,149.604 165.739,149.404 165.739,149.137C165.739,148.87 165.606,148.648 165.473,148.426C165.317,148.248 165.139,148.092 164.873,147.981C164.606,147.848 164.339,147.804 164.139,147.759C163.917,147.737 163.717,147.67 163.517,147.67C163.473,147.67 163.473,147.737 163.428,147.737C163.184,147.737 162.917,147.692 162.673,147.692L161.895,147.692C161.628,147.692 161.384,147.67 161.117,147.67C160.761,147.67 160.45,147.692 160.139,147.648C159.806,147.604 159.495,147.559 159.206,147.448C158.939,147.359 158.717,147.226 158.539,147.07C158.361,146.892 158.273,146.67 158.161,146.448C158.073,146.226 157.984,146.004 157.961,145.737C157.961,145.626 157.984,145.515 157.984,145.404C157.984,145.337 157.939,145.248 157.939,145.181C157.939,144.826 158.006,144.492 158.139,144.204C158.273,143.892 158.517,143.648 158.806,143.448C159.073,143.292 159.406,143.226 159.761,143.159C160.095,143.115 160.384,143.048 160.695,143.026C161.006,142.981 161.317,142.981 161.628,142.981L162.361,142.981C162.606,142.981 162.828,142.959 163.073,142.959C163.317,142.959 163.561,143.026 163.806,143.026C164.05,143.026 164.05,142.937 164.317,142.937C164.673,142.937 165.073,142.937 165.495,142.737C165.717,142.626 165.873,142.47 166.006,142.292C166.139,142.092 166.273,141.892 166.295,141.67C166.317,141.448 166.25,141.204 166.117,140.959C166.006,140.781 165.828,140.648 165.561,140.492C165.339,140.359 165.117,140.248 164.939,140.204C164.717,140.137 164.495,140.159 164.273,140.137C164.05,140.115 163.828,140.092 163.606,140.092C163.317,140.092 163.028,140.048 162.739,140.048C162.45,140.048 162.184,140.07 161.895,140.07C161.606,140.07 161.317,140.092 161.028,140.092C160.739,140.092 160.45,140.048 160.184,140.048C159.895,140.048 159.606,140.026 159.317,140.026C159.028,140.026 158.739,140.048 158.45,140.048C158.184,140.048 157.895,140.092 157.606,140.092L157.584,140.092C157.339,140.092 157.073,140.07 156.828,140.115C156.561,140.137 156.317,140.204 156.095,140.248C155.717,140.337 155.361,140.448 155.139,140.692C154.895,140.937 154.761,141.27 154.673,141.648C154.628,141.915 154.606,142.204 154.606,142.515C154.606,142.826 154.561,143.115 154.561,143.426C154.561,143.715 154.584,144.004 154.584,144.315C154.584,144.604 154.561,144.915 154.561,145.204L154.561,146.115C154.561,146.404 154.606,146.715 154.606,147.004C154.606,147.292 154.584,147.604 154.584,147.892C154.584,148.204 154.606,148.492 154.606,148.804L154.606,149.692C154.606,149.981 154.539,150.292 154.539,150.581C154.539,150.892 154.628,151.181 154.628,151.492C154.628,151.781 154.606,152.092 154.606,152.381C154.606,152.67 154.628,152.981 154.628,153.27C154.628,153.581 154.561,153.87 154.561,154.181C154.561,154.47 154.539,154.781 154.539,155.07C154.539,155.381 154.628,155.67 154.628,155.959C154.628,156.181 154.561,156.359 154.584,156.537C154.628,156.892 154.761,157.204 154.917,157.448C155.095,157.759 155.317,157.981 155.606,158.159C155.873,158.292 156.206,158.381 156.561,158.404Z" style="fill:white;fill-rule:nonzero;"/>
        <path d="M184.739,142.048L184.673,141.67C184.628,141.337 184.495,141.026 184.228,140.781C184.05,140.604 183.85,140.515 183.628,140.448C183.406,140.381 183.161,140.292 182.939,140.337C182.695,140.381 182.473,140.492 182.295,140.626C182.117,140.781 181.984,140.981 181.895,141.204C181.784,141.448 181.739,141.67 181.695,141.892C181.673,142.137 181.628,142.381 181.628,142.604C181.628,143.181 181.65,143.181 181.65,143.781C181.65,144.092 181.673,144.404 181.673,144.715C181.673,145.026 181.628,145.337 181.606,145.648C181.606,145.959 181.673,146.27 181.673,146.581C181.673,146.892 181.628,147.204 181.628,147.537C181.628,147.848 181.65,148.159 181.65,148.47C181.65,148.759 181.65,149.048 181.628,149.337C181.606,149.604 181.561,149.892 181.517,150.204C181.495,150.337 181.495,150.337 181.495,150.492C181.428,150.937 181.25,151.315 180.917,151.581C180.717,151.737 180.517,151.715 180.295,151.648C179.984,151.559 179.695,151.426 179.45,151.159C179.295,150.981 179.161,150.759 179.006,150.559C178.873,150.359 178.717,150.159 178.584,149.937L178.117,149.204C177.961,148.937 177.784,148.715 177.628,148.47C177.473,148.204 177.295,147.981 177.139,147.737C176.984,147.47 176.828,147.226 176.673,146.981L176.45,146.604C176.295,146.359 176.161,146.092 176.028,145.848C175.873,145.604 175.673,145.381 175.517,145.115L175.028,144.292C174.873,144.026 174.695,143.759 174.517,143.492C174.361,143.204 174.184,142.937 174.028,142.67C173.873,142.448 173.806,142.181 173.65,141.937C173.495,141.737 173.317,141.537 173.139,141.315C172.984,141.07 172.784,140.892 172.561,140.715C172.317,140.559 172.095,140.404 171.828,140.315C171.517,140.226 171.206,140.204 170.895,140.159C170.584,140.115 170.295,140.092 169.984,140.115C169.673,140.137 169.361,140.137 169.073,140.204C168.695,140.315 168.406,140.537 168.184,140.781C167.939,141.026 167.717,141.315 167.628,141.692C167.561,141.937 167.584,142.226 167.561,142.492C167.539,142.759 167.45,143.026 167.45,143.292C167.45,143.604 167.517,143.892 167.517,144.204C167.517,144.492 167.45,144.804 167.45,145.092C167.45,145.404 167.473,145.692 167.473,146.004L167.473,146.892C167.473,147.181 167.495,147.492 167.495,147.781C167.495,148.137 167.517,148.137 167.517,148.515L167.517,149.226C167.517,149.626 167.45,149.626 167.45,150.048C167.45,150.448 167.517,150.448 167.517,150.848C167.517,151.137 167.539,151.426 167.539,151.715C167.539,152.004 167.473,152.292 167.473,152.581C167.473,152.87 167.495,153.137 167.495,153.426L167.495,154.292C167.495,154.581 167.473,154.87 167.473,155.159C167.473,155.426 167.495,155.67 167.517,155.915C167.539,156.181 167.606,156.426 167.673,156.67L167.673,156.759C167.695,156.848 167.695,156.959 167.739,157.07C167.85,157.404 168.006,157.67 168.25,157.87C168.517,158.048 168.828,158.115 169.161,158.115C169.517,158.115 169.828,158.048 170.073,157.848C170.317,157.67 170.45,157.381 170.561,157.026C170.673,156.692 170.717,156.337 170.717,156.026L170.717,155.915C170.717,155.559 170.673,155.226 170.673,154.87C170.673,154.537 170.673,154.181 170.673,153.848L170.673,153.026C170.673,152.759 170.695,152.492 170.695,152.226C170.695,151.937 170.717,151.67 170.717,151.404L170.717,150.581C170.717,150.315 170.673,150.048 170.695,149.781C170.695,149.515 170.673,149.226 170.695,148.915C170.717,148.648 170.806,148.381 170.85,148.092C170.917,147.826 170.984,147.559 171.073,147.27C171.206,146.848 171.473,146.648 171.673,146.604C171.984,146.515 172.339,146.692 172.539,146.892C172.606,146.959 172.673,146.915 172.739,146.959C173.006,147.226 173.206,147.492 173.406,147.781C173.561,148.004 173.717,148.226 173.85,148.448C174.006,148.67 174.139,148.892 174.295,149.137C174.428,149.359 174.606,149.559 174.761,149.804C174.895,150.026 175.05,150.248 175.184,150.492C175.317,150.715 175.45,150.959 175.584,151.181L175.984,151.848C176.139,152.07 176.295,152.292 176.428,152.515C176.561,152.737 176.65,152.981 176.784,153.204C176.917,153.426 177.073,153.604 177.206,153.804C177.339,154.026 177.495,154.226 177.628,154.426C177.761,154.648 177.828,154.892 177.961,155.092C178.095,155.315 178.25,155.515 178.384,155.715L178.784,156.359C178.917,156.559 179.028,156.781 179.161,157.004C179.295,157.226 179.495,157.381 179.673,157.559C179.873,157.737 180.073,157.892 180.295,158.004C180.495,158.137 180.739,158.226 180.984,158.292C181.384,158.404 181.784,158.492 182.206,158.492C182.517,158.492 182.85,158.47 183.184,158.404C183.473,158.359 183.717,158.248 183.939,158.115C184.161,157.981 184.361,157.781 184.495,157.559C184.606,157.337 184.695,157.07 184.739,156.804L184.739,156.492C184.784,156.159 184.85,155.804 184.85,155.448C184.85,155.159 184.873,154.87 184.873,154.581C184.873,154.27 184.895,153.981 184.895,153.692L184.895,152.826C184.873,152.537 184.895,152.248 184.895,151.959C184.895,151.67 184.85,151.381 184.85,151.092C184.85,150.804 184.873,150.492 184.873,150.204C184.873,149.915 184.895,149.626 184.895,149.337C184.895,149.048 184.873,148.759 184.873,148.47C184.873,148.181 184.828,147.892 184.828,147.604C184.828,147.315 184.873,147.004 184.873,146.715C184.873,146.426 184.873,146.137 184.873,145.848L184.873,144.981C184.873,144.692 184.895,144.404 184.895,144.115L184.895,143.226C184.895,142.826 184.806,142.426 184.739,142.048Z" style="fill:white;fill-rule:nonzero;"/>
        <path d="M190.717,144.359C190.828,144.715 190.85,145.092 190.85,145.581L190.85,146.448C190.85,146.715 190.828,147.004 190.828,147.292C190.828,147.581 190.873,147.848 190.873,148.137C190.873,148.426 190.85,148.715 190.85,148.981C190.85,149.426 190.895,149.426 190.895,149.87L190.895,150.737C190.895,151.181 190.85,151.181 190.85,151.604L190.85,153.292C190.85,153.581 190.873,153.848 190.85,154.137L190.85,154.981C190.85,155.27 190.873,155.559 190.895,155.848L191.028,156.692C191.095,157.07 191.228,157.426 191.473,157.67C191.739,157.892 192.095,158.004 192.473,158.004C192.495,158.004 192.517,158.026 192.539,158.026C192.917,158.026 193.228,157.892 193.473,157.67C193.717,157.47 193.895,157.159 193.984,156.781C194.028,156.581 194.073,156.381 194.073,156.115C194.095,155.826 194.05,155.537 194.05,155.226C194.05,154.781 194.073,154.781 194.073,154.337C194.073,153.915 194.028,153.915 194.028,153.47C194.028,153.159 194.073,152.87 194.073,152.581C194.073,152.27 194.05,151.981 194.05,151.692C194.05,151.381 194.073,151.092 194.073,150.804C194.073,150.492 194.117,150.204 194.117,149.915C194.117,149.604 194.05,149.315 194.05,149.026C194.05,148.715 194.028,148.426 194.028,148.137L194.028,147.248C194.028,146.937 194.095,146.648 194.095,146.359C194.095,146.092 194.117,145.826 194.139,145.515C194.161,145.27 194.139,144.981 194.184,144.692C194.228,144.337 194.384,144.07 194.517,143.804C194.695,143.537 194.873,143.27 195.139,143.092C195.384,142.937 195.695,142.848 196.05,142.759C196.161,142.737 196.295,142.715 196.45,142.715C196.517,142.692 196.584,142.67 196.65,142.67C196.784,142.648 196.917,142.626 197.05,142.626C197.339,142.581 197.65,142.559 197.961,142.515C198.273,142.448 198.606,142.359 198.806,142.159C199.05,141.937 199.184,141.626 199.184,141.337C199.184,141.026 199.006,140.759 198.761,140.537C198.539,140.337 198.25,140.181 197.939,140.159C197.784,140.137 197.806,140.048 197.65,140.026L196.917,139.959C196.673,139.937 196.406,139.915 196.161,139.915C195.895,139.915 195.606,139.937 195.339,139.937C195.073,139.937 194.784,139.915 194.517,139.915L193.695,139.915C193.406,139.915 193.139,139.959 192.85,139.959C192.584,139.959 192.317,139.937 192.028,139.937L191.206,139.937C190.939,139.937 190.65,139.959 190.384,139.959C190.117,139.959 189.828,139.981 189.561,139.981C189.273,139.981 189.006,139.959 188.739,139.959C188.717,139.959 188.717,139.937 188.717,139.937C188.428,139.937 188.139,139.937 187.85,139.959C187.561,140.004 187.295,140.07 187.006,140.115C186.65,140.159 186.384,140.315 186.161,140.515C185.939,140.737 185.761,141.048 185.784,141.359C185.806,141.67 185.939,141.981 186.161,142.181C186.361,142.359 186.65,142.448 186.984,142.492C187.206,142.537 187.406,142.604 187.628,142.626C187.85,142.67 188.095,142.67 188.295,142.692C188.606,142.737 188.917,142.737 189.206,142.826C189.473,142.915 189.695,143.026 189.873,143.159C190.095,143.292 190.228,143.515 190.361,143.715C190.495,143.915 190.65,144.115 190.717,144.359Z" style="fill:white;fill-rule:nonzero;"/>
    </g>
    <g transform="matrix(0.99999,0.00457675,-0.0043136,0.942494,0.38272,5.13052)">
        <path d="M100,45L100,131.963" style="fill:none;stroke:white;stroke-width:3.72px;"/>
    </g>
</svg>
