<?xml version="1.0" encoding="UTF-8" standalone="no"?><!DOCTYPE svg PUBLIC "-//W3C//DTD SVG 1.1//EN" "http://www.w3.org/Graphics/SVG/1.1/DTD/svg11.dtd"><svg width="100%" height="100%" viewBox="0 0 36 36" version="1.1" xmlns="http://www.w3.org/2000/svg" xmlns:xlink="http://www.w3.org/1999/xlink" xml:space="preserve" style="fill-rule:evenodd;clip-rule:evenodd;stroke-linecap:round;stroke-linejoin:round;stroke-miterlimit:1.5;"><rect x="-0.72" y="-0.72" width="38.34" height="36.72" style="fill:#673ab7;"/><g><path d="M9.608,30.457c0.044,0 0.088,-0.016 0.128,-0.036c0.064,-0.04 0.104,-0.108 0.124,-0.188c0.016,-0.06 0.028,-0.124 0.028,-0.188l0,-0.148c0,-0.052 -0.008,-0.1 -0.008,-0.152c0,-0.048 0.008,-0.1 0.008,-0.152c0,-0.048 -0.004,-0.1 -0.004,-0.148c0,-0.052 -0.004,-0.1 -0.004,-0.152c0,-0.048 -0.004,-0.1 -0.004,-0.152c0,-0.096 0.012,-0.096 0.012,-0.196l0,-0.188c0,-0.092 -0.008,-0.092 -0.008,-0.188l0,-0.144c0,-0.052 0.008,-0.1 0.008,-0.148c0,-0.048 -0.008,-0.096 -0.008,-0.148c0,-0.2 0.044,-0.432 -0.008,-0.628c-0.096,-0.38 -0.636,-0.4 -0.912,-0.2c-0.128,0.092 -0.196,0.24 -0.244,0.388c-0.068,0.204 -0.14,0.404 -0.208,0.608c-0.02,0.052 -0.032,0.112 -0.052,0.164c-0.02,0.064 -0.024,0.064 -0.048,0.124c-0.02,0.064 -0.016,0.064 -0.04,0.128c-0.02,0.064 -0.028,0.06 -0.048,0.124c-0.02,0.056 -0.044,0.104 -0.068,0.144c-0.032,0.048 -0.064,0.088 -0.104,0.124c-0.044,0.04 -0.088,0.052 -0.132,0.056c-0.044,0 -0.092,-0.012 -0.132,-0.052c-0.036,-0.028 -0.06,-0.068 -0.084,-0.108c-0.024,-0.036 -0.048,-0.076 -0.064,-0.124c-0.02,-0.048 -0.044,-0.092 -0.06,-0.144l-0.06,-0.144c-0.124,-0.34 -0.22,-0.684 -0.352,-1.02c-0.028,-0.072 -0.06,-0.144 -0.108,-0.204c-0.18,-0.216 -0.692,-0.256 -0.896,-0.056c-0.096,0.088 -0.128,0.224 -0.136,0.356c-0.008,0.184 0.004,0.368 0.004,0.548c0,0.052 0.004,0.108 0.004,0.16c0,0.052 0.004,0.104 0.004,0.156c0,0.052 -0.004,0.108 -0.004,0.16c0,0.052 -0.004,0.104 -0.004,0.156c0,0.052 -0.008,0.108 -0.008,0.16c0,0.052 0.016,0.104 0.016,0.156c0,0.052 -0.016,0.108 -0.016,0.16l0,0.156c0,0.052 0.008,0.108 0.008,0.16c0,0.052 -0.004,0.104 -0.004,0.156c0,0.052 0.012,0.108 0.012,0.16c0,0.044 -0.004,0.092 0.004,0.136c0.004,0.048 0.008,0.092 0.02,0.14c0.016,0.068 0.052,0.12 0.1,0.156c0.052,0.04 0.108,0.068 0.176,0.064c0.068,0 0.12,-0.032 0.164,-0.072c0.044,-0.04 0.072,-0.092 0.084,-0.156c0.012,-0.056 0.028,-0.112 0.028,-0.168c0,-0.056 -0.008,-0.112 -0.008,-0.168c0,-0.052 0.008,-0.108 0.008,-0.164c0,-0.048 -0.008,-0.1 -0.008,-0.148c0,-0.048 0.004,-0.1 0.004,-0.148c0,-0.048 -0.004,-0.1 -0.004,-0.148c0,-0.048 0.012,-0.1 0.012,-0.148c0,-0.044 -0.008,-0.088 -0.004,-0.132c0,-0.044 0.016,-0.084 0.016,-0.128l0.012,-0.132c0.004,-0.048 -0.008,-0.048 -0.004,-0.096c0.004,-0.044 0.02,-0.088 0.032,-0.144c0.012,-0.056 0.032,-0.108 0.076,-0.152c0.024,-0.024 0.044,-0.02 0.068,-0.012c0.024,0.012 0.048,0.028 0.068,0.044c0.052,0.044 0.084,0.108 0.116,0.168c0.024,0.044 0.052,0.08 0.072,0.124c0.016,0.044 0.028,0.088 0.044,0.136l0.048,0.132c0.012,0.04 0.016,0.08 0.032,0.12l0.048,0.144c0.016,0.048 0.044,0.092 0.06,0.14c0.016,0.052 0.02,0.104 0.036,0.152c0.016,0.048 0.028,0.1 0.044,0.148c0.012,0.04 0.036,0.076 0.048,0.116c0.012,0.04 0.016,0.084 0.028,0.124c0.02,0.052 0.044,0.104 0.068,0.164c0.02,0.052 0.028,0.112 0.056,0.164c0.02,0.048 0.048,0.088 0.08,0.128c0.032,0.036 0.072,0.064 0.116,0.084c0.04,0.02 0.092,0.036 0.14,0.032c0.048,0 0.096,-0.02 0.136,-0.044c0.044,-0.024 0.08,-0.056 0.108,-0.1c0.044,-0.056 0.064,-0.124 0.084,-0.18c0.02,-0.048 0.048,-0.096 0.068,-0.144c0.016,-0.048 0.024,-0.104 0.04,-0.152c0.016,-0.048 0.04,-0.096 0.056,-0.148c0.02,-0.048 0.024,-0.104 0.04,-0.152c0.012,-0.044 0.036,-0.084 0.052,-0.128c0.012,-0.044 0.016,-0.092 0.032,-0.136c0.016,-0.044 0.04,-0.084 0.056,-0.128c0.016,-0.044 0.032,-0.088 0.048,-0.132l0.036,-0.092c0.016,-0.048 0.036,-0.088 0.052,-0.136c0.02,-0.044 0.032,-0.088 0.052,-0.132c0.02,-0.044 0.044,-0.088 0.068,-0.128c0.04,-0.072 0.084,-0.12 0.136,-0.156c0.044,-0.028 0.076,-0.028 0.116,0.008c0.044,0.044 0.064,0.104 0.076,0.176c0.004,0.028 -0.004,0.028 0,0.056c0.008,0.056 0.012,0.108 0.016,0.16c0.004,0.056 0.016,0.108 0.016,0.164l0,0.28c0,0.048 -0.004,0.096 -0.004,0.144c0,0.048 -0.004,0.092 -0.004,0.14c0,0.048 0.012,0.096 0.012,0.14l0,0.144c0,0.044 0.004,0.092 0.004,0.14c0,0.052 -0.008,0.1 -0.004,0.152c0.004,0.048 0.016,0.1 0.024,0.148c0.012,0.056 0.032,0.104 0.064,0.14c0.032,0.036 0.08,0.064 0.132,0.08c0.028,0.008 0.052,0.02 0.08,0.02Z" style="fill:#fff;fill-rule:nonzero;"/><path d="M13.608,28.785c0,-0.032 -0.008,-0.064 -0.008,-0.092c-0.004,-0.056 -0.004,-0.108 -0.012,-0.16c-0.008,-0.052 -0.012,-0.104 -0.024,-0.156c-0.012,-0.052 -0.02,-0.104 -0.036,-0.152c-0.016,-0.052 -0.036,-0.1 -0.06,-0.148c-0.02,-0.048 -0.044,-0.096 -0.068,-0.144c-0.024,-0.044 -0.052,-0.084 -0.08,-0.124c-0.028,-0.04 -0.052,-0.084 -0.084,-0.12c-0.032,-0.04 -0.068,-0.072 -0.104,-0.108c-0.036,-0.032 -0.068,-0.068 -0.108,-0.1c-0.036,-0.032 -0.072,-0.064 -0.112,-0.092c-0.04,-0.028 -0.088,-0.048 -0.132,-0.072c-0.04,-0.024 -0.088,-0.04 -0.132,-0.06c-0.048,-0.02 -0.088,-0.048 -0.136,-0.064c-0.044,-0.016 -0.096,-0.024 -0.144,-0.036c-0.048,-0.012 -0.1,-0.02 -0.148,-0.028c-0.052,-0.008 -0.104,-0.016 -0.156,-0.02c-0.048,-0.008 -0.1,-0.024 -0.152,-0.028c-0.052,0 -0.104,0.004 -0.152,0.004c-0.052,0.004 -0.104,0.012 -0.156,0.02c-0.048,0.004 -0.104,0 -0.152,0.012c-0.052,0.008 -0.104,0.016 -0.152,0.028c-0.052,0.012 -0.1,0.032 -0.148,0.048c-0.048,0.02 -0.1,0.032 -0.144,0.056c-0.048,0.02 -0.092,0.048 -0.136,0.072c-0.044,0.028 -0.088,0.06 -0.128,0.088c-0.044,0.032 -0.092,0.06 -0.132,0.092c-0.04,0.036 -0.08,0.076 -0.116,0.116c-0.036,0.036 -0.064,0.084 -0.096,0.128c-0.032,0.04 -0.076,0.076 -0.104,0.124c-0.028,0.044 -0.044,0.096 -0.064,0.144c-0.024,0.048 -0.044,0.1 -0.06,0.152c-0.02,0.048 -0.036,0.1 -0.048,0.152c-0.012,0.052 -0.036,0.1 -0.044,0.156c-0.008,0.044 -0.012,0.088 -0.016,0.136c-0.004,0.044 -0.004,0.092 -0.004,0.14c-0.004,0.044 -0.004,0.088 -0.004,0.136c0,0.044 0.008,0.092 0.012,0.14c0.004,0.052 0.008,0.104 0.016,0.152c0.008,0.052 0.024,0.104 0.036,0.152c0.012,0.052 0.028,0.104 0.044,0.152c0.02,0.048 0.036,0.096 0.056,0.144c0.024,0.048 0.048,0.092 0.076,0.136c0.028,0.048 0.056,0.092 0.088,0.132c0.032,0.044 0.072,0.08 0.108,0.116c0.036,0.04 0.064,0.084 0.104,0.12c0.036,0.036 0.084,0.06 0.128,0.092l0.132,0.084c0.048,0.024 0.088,0.06 0.136,0.08c0.048,0.02 0.1,0.036 0.148,0.052c0.048,0.016 0.1,0.028 0.152,0.04c0.044,0.012 0.088,0.024 0.136,0.032c0.044,0.008 0.088,0.012 0.136,0.016l0.136,0.012c0.044,0.004 0.088,0.004 0.136,0.004c0.072,0 0.144,0 0.216,-0.008c0.056,-0.004 0.108,-0.008 0.16,-0.016c0.056,-0.012 0.108,-0.028 0.156,-0.04c0.056,-0.012 0.108,-0.02 0.16,-0.036c0.052,-0.016 0.104,-0.036 0.152,-0.056c0.048,-0.024 0.096,-0.048 0.144,-0.076c0.044,-0.028 0.088,-0.064 0.128,-0.096c0.044,-0.032 0.088,-0.064 0.128,-0.1c0.036,-0.028 0.064,-0.068 0.096,-0.1c0.032,-0.032 0.06,-0.072 0.088,-0.108c0.028,-0.036 0.052,-0.072 0.076,-0.112c0.028,-0.036 0.048,-0.076 0.068,-0.12c0.024,-0.044 0.052,-0.084 0.072,-0.128c0.016,-0.044 0.028,-0.092 0.044,-0.136c0.012,-0.048 0.032,-0.092 0.04,-0.14c0.012,-0.048 0.024,-0.096 0.032,-0.144c0.004,-0.048 0.008,-0.096 0.008,-0.144c0.004,-0.048 0.008,-0.1 0.004,-0.148l0,-0.048Zm-0.68,0.468c-0.02,0.052 -0.036,0.108 -0.06,0.156c-0.028,0.052 -0.056,0.1 -0.088,0.144c-0.032,0.044 -0.068,0.088 -0.108,0.128c-0.036,0.04 -0.08,0.072 -0.124,0.108c-0.044,0.032 -0.092,0.064 -0.14,0.092c-0.048,0.028 -0.1,0.048 -0.152,0.068c-0.052,0.02 -0.104,0.036 -0.16,0.048c-0.052,0.012 -0.108,0.016 -0.16,0.02c-0.056,0.004 -0.112,0.012 -0.164,0.008c-0.056,-0.004 -0.108,-0.012 -0.164,-0.024c-0.052,-0.008 -0.104,-0.028 -0.156,-0.044c-0.052,-0.016 -0.104,-0.032 -0.152,-0.056c-0.044,-0.02 -0.088,-0.036 -0.128,-0.064c-0.04,-0.024 -0.068,-0.064 -0.104,-0.096c-0.036,-0.032 -0.076,-0.056 -0.104,-0.096c-0.032,-0.032 -0.064,-0.068 -0.088,-0.112c-0.032,-0.044 -0.056,-0.092 -0.08,-0.14c-0.024,-0.048 -0.036,-0.104 -0.052,-0.156c-0.02,-0.052 -0.036,-0.1 -0.048,-0.152c-0.012,-0.052 -0.028,-0.104 -0.032,-0.16c-0.004,-0.052 0.004,-0.108 0.004,-0.16c0.004,-0.056 0.012,-0.108 0.02,-0.16c0.012,-0.052 0.02,-0.108 0.036,-0.16c0.016,-0.048 0.04,-0.1 0.064,-0.148c0.02,-0.048 0.044,-0.096 0.068,-0.144c0.028,-0.052 0.056,-0.1 0.092,-0.14c0.032,-0.044 0.076,-0.076 0.116,-0.112c0.04,-0.036 0.084,-0.072 0.128,-0.104c0.048,-0.028 0.092,-0.06 0.144,-0.084c0.048,-0.02 0.104,-0.024 0.16,-0.04c0.048,-0.012 0.096,-0.036 0.152,-0.048c0.052,-0.008 0.104,-0.016 0.16,-0.016c0.004,0 0.012,0 0.02,0l0,0.012c0.052,0 0.1,0.004 0.148,0.008c0.052,0.008 0.1,0.012 0.148,0.024c0.048,0.008 0.092,0.028 0.14,0.044c0.048,0.016 0.092,0.032 0.136,0.056c0.044,0.024 0.084,0.052 0.124,0.08c0.04,0.028 0.08,0.06 0.116,0.096c0.036,0.032 0.064,0.068 0.096,0.104c0.028,0.036 0.052,0.076 0.076,0.116c0.024,0.04 0.048,0.084 0.068,0.124l0.048,0.136c0.012,0.044 0.036,0.084 0.044,0.132c0.012,0.048 0.008,0.096 0.016,0.144c0.004,0.048 0.02,0.096 0.02,0.144c0,0.048 0,0.096 -0.008,0.144c-0.004,0.048 -0.024,0.092 -0.036,0.14c-0.012,0.048 -0.02,0.092 -0.036,0.14Z" style="fill:#fff;fill-rule:nonzero;"/><path d="M17.32,28.785c0,-0.032 -0.008,-0.064 -0.008,-0.092c-0.004,-0.056 -0.004,-0.108 -0.012,-0.16c-0.008,-0.052 -0.012,-0.104 -0.024,-0.156c-0.012,-0.052 -0.02,-0.104 -0.036,-0.152c-0.016,-0.052 -0.036,-0.1 -0.06,-0.148c-0.02,-0.048 -0.044,-0.096 -0.068,-0.144c-0.024,-0.044 -0.052,-0.084 -0.08,-0.124c-0.028,-0.04 -0.052,-0.084 -0.084,-0.12c-0.032,-0.04 -0.068,-0.072 -0.104,-0.108c-0.036,-0.032 -0.068,-0.068 -0.108,-0.1c-0.036,-0.032 -0.072,-0.064 -0.112,-0.092c-0.04,-0.028 -0.088,-0.048 -0.132,-0.072c-0.04,-0.024 -0.088,-0.04 -0.132,-0.06c-0.048,-0.02 -0.088,-0.048 -0.136,-0.064c-0.044,-0.016 -0.096,-0.024 -0.144,-0.036c-0.048,-0.012 -0.1,-0.02 -0.148,-0.028c-0.052,-0.008 -0.104,-0.016 -0.156,-0.02c-0.048,-0.008 -0.1,-0.024 -0.152,-0.028c-0.052,0 -0.104,0.004 -0.152,0.004c-0.052,0.004 -0.104,0.012 -0.156,0.02c-0.048,0.004 -0.104,0 -0.152,0.012c-0.052,0.008 -0.104,0.016 -0.152,0.028c-0.052,0.012 -0.1,0.032 -0.148,0.048c-0.048,0.02 -0.1,0.032 -0.144,0.056c-0.048,0.02 -0.092,0.048 -0.136,0.072c-0.044,0.028 -0.088,0.06 -0.128,0.088c-0.044,0.032 -0.092,0.06 -0.132,0.092c-0.04,0.036 -0.08,0.076 -0.116,0.116c-0.036,0.036 -0.064,0.084 -0.096,0.128c-0.032,0.04 -0.076,0.076 -0.104,0.124c-0.028,0.044 -0.044,0.096 -0.064,0.144c-0.024,0.048 -0.044,0.1 -0.06,0.152c-0.02,0.048 -0.036,0.1 -0.048,0.152c-0.012,0.052 -0.036,0.1 -0.044,0.156c-0.008,0.044 -0.012,0.088 -0.016,0.136c-0.004,0.044 -0.004,0.092 -0.004,0.14c-0.004,0.044 -0.004,0.088 -0.004,0.136c0,0.044 0.008,0.092 0.012,0.14c0.004,0.052 0.008,0.104 0.016,0.152c0.008,0.052 0.024,0.104 0.036,0.152c0.012,0.052 0.028,0.104 0.044,0.152c0.02,0.048 0.036,0.096 0.056,0.144c0.024,0.048 0.048,0.092 0.076,0.136c0.028,0.048 0.056,0.092 0.088,0.132c0.032,0.044 0.072,0.08 0.108,0.116c0.036,0.04 0.064,0.084 0.104,0.12c0.036,0.036 0.084,0.06 0.128,0.092l0.132,0.084c0.048,0.024 0.088,0.06 0.136,0.08c0.048,0.02 0.1,0.036 0.148,0.052c0.048,0.016 0.1,0.028 0.152,0.04c0.044,0.012 0.088,0.024 0.136,0.032c0.044,0.008 0.088,0.012 0.136,0.016l0.136,0.012c0.044,0.004 0.088,0.004 0.136,0.004c0.072,0 0.144,0 0.216,-0.008c0.056,-0.004 0.108,-0.008 0.16,-0.016c0.056,-0.012 0.108,-0.028 0.156,-0.04c0.056,-0.012 0.108,-0.02 0.16,-0.036c0.052,-0.016 0.104,-0.036 0.152,-0.056c0.048,-0.024 0.096,-0.048 0.144,-0.076c0.044,-0.028 0.088,-0.064 0.128,-0.096c0.044,-0.032 0.088,-0.064 0.128,-0.1c0.036,-0.028 0.064,-0.068 0.096,-0.1c0.032,-0.032 0.06,-0.072 0.088,-0.108c0.028,-0.036 0.052,-0.072 0.076,-0.112c0.028,-0.036 0.048,-0.076 0.068,-0.12c0.024,-0.044 0.052,-0.084 0.072,-0.128c0.016,-0.044 0.028,-0.092 0.044,-0.136c0.012,-0.048 0.032,-0.092 0.04,-0.14c0.012,-0.048 0.024,-0.096 0.032,-0.144c0.004,-0.048 0.008,-0.096 0.008,-0.144c0.004,-0.048 0.008,-0.1 0.004,-0.148l0,-0.048Zm-0.68,0.468c-0.02,0.052 -0.036,0.108 -0.06,0.156c-0.028,0.052 -0.056,0.1 -0.088,0.144c-0.032,0.044 -0.068,0.088 -0.108,0.128c-0.036,0.04 -0.08,0.072 -0.124,0.108c-0.044,0.032 -0.092,0.064 -0.14,0.092c-0.048,0.028 -0.1,0.048 -0.152,0.068c-0.052,0.02 -0.104,0.036 -0.16,0.048c-0.052,0.012 -0.108,0.016 -0.16,0.02c-0.056,0.004 -0.112,0.012 -0.164,0.008c-0.056,-0.004 -0.108,-0.012 -0.164,-0.024c-0.052,-0.008 -0.104,-0.028 -0.156,-0.044c-0.052,-0.016 -0.104,-0.032 -0.152,-0.056c-0.044,-0.02 -0.088,-0.036 -0.128,-0.064c-0.04,-0.024 -0.068,-0.064 -0.104,-0.096c-0.036,-0.032 -0.076,-0.056 -0.104,-0.096c-0.032,-0.032 -0.064,-0.068 -0.088,-0.112c-0.032,-0.044 -0.056,-0.092 -0.08,-0.14c-0.024,-0.048 -0.036,-0.104 -0.052,-0.156c-0.02,-0.052 -0.036,-0.1 -0.048,-0.152c-0.012,-0.052 -0.028,-0.104 -0.032,-0.16c-0.004,-0.052 0.004,-0.108 0.004,-0.16c0.004,-0.056 0.012,-0.108 0.02,-0.16c0.012,-0.052 0.02,-0.108 0.036,-0.16c0.016,-0.048 0.04,-0.1 0.064,-0.148c0.02,-0.048 0.044,-0.096 0.068,-0.144c0.028,-0.052 0.056,-0.1 0.092,-0.14c0.032,-0.044 0.076,-0.076 0.116,-0.112c0.04,-0.036 0.084,-0.072 0.128,-0.104c0.048,-0.028 0.092,-0.06 0.144,-0.084c0.048,-0.02 0.104,-0.024 0.16,-0.04c0.048,-0.012 0.096,-0.036 0.152,-0.048c0.052,-0.008 0.104,-0.016 0.16,-0.016c0.004,0 0.012,0 0.02,0l0,0.012c0.052,0 0.1,0.004 0.148,0.008c0.052,0.008 0.1,0.012 0.148,0.024c0.048,0.008 0.092,0.028 0.14,0.044c0.048,0.016 0.092,0.032 0.136,0.056c0.044,0.024 0.084,0.052 0.124,0.08c0.04,0.028 0.08,0.06 0.116,0.096c0.036,0.032 0.064,0.068 0.096,0.104c0.028,0.036 0.052,0.076 0.076,0.116c0.024,0.04 0.048,0.084 0.068,0.124l0.048,0.136c0.012,0.044 0.036,0.084 0.044,0.132c0.012,0.048 0.008,0.096 0.016,0.144c0.004,0.048 0.02,0.096 0.02,0.144c0,0.048 0,0.096 -0.008,0.144c-0.004,0.048 -0.024,0.092 -0.036,0.14c-0.012,0.048 -0.02,0.092 -0.036,0.14Z" style="fill:#fff;fill-rule:nonzero;"/><path d="M17.48,30.005c0,0.064 0.008,0.128 0.02,0.192c0.008,0.052 0.028,0.096 0.052,0.136c0.024,0.044 0.052,0.084 0.096,0.108c0.036,0.028 0.084,0.044 0.136,0.056c0.04,0.008 0.084,0.008 0.12,0.008c0.048,0 0.1,-0.012 0.148,-0.012c0.048,0 0.096,0.012 0.144,0.012c0.06,0 0.124,-0.008 0.184,-0.008l0.18,0c0.06,0 0.12,0.008 0.176,0.004c0.06,-0.004 0.12,-0.016 0.18,-0.024c0.052,-0.008 0.104,-0.012 0.152,-0.024c0.052,-0.008 0.104,-0.012 0.156,-0.024c0.048,-0.012 0.1,-0.028 0.148,-0.044c0.052,-0.016 0.096,-0.048 0.14,-0.068c0.052,-0.02 0.096,-0.04 0.144,-0.064c0.044,-0.024 0.092,-0.044 0.136,-0.072c0.048,-0.028 0.088,-0.064 0.128,-0.1c0.044,-0.032 0.084,-0.068 0.124,-0.104c0.036,-0.036 0.08,-0.068 0.116,-0.112c0.036,-0.04 0.064,-0.084 0.096,-0.128c0.028,-0.048 0.056,-0.092 0.08,-0.14c0.024,-0.048 0.04,-0.1 0.06,-0.152c0.02,-0.048 0.036,-0.1 0.052,-0.152c0.012,-0.052 0.028,-0.104 0.036,-0.156c0.008,-0.048 0.004,-0.092 0.004,-0.14c0.004,-0.044 0,-0.088 0,-0.136c-0.004,-0.044 0.004,-0.092 0,-0.136l0,-0.032c-0.004,-0.052 -0.008,-0.104 -0.016,-0.152c-0.008,-0.052 -0.016,-0.104 -0.028,-0.152c-0.012,-0.052 -0.024,-0.1 -0.04,-0.148c-0.016,-0.048 -0.036,-0.096 -0.056,-0.144c-0.024,-0.044 -0.056,-0.088 -0.08,-0.132c-0.028,-0.04 -0.052,-0.088 -0.084,-0.128c-0.032,-0.04 -0.068,-0.076 -0.104,-0.112c-0.036,-0.04 -0.068,-0.076 -0.108,-0.108c-0.04,-0.036 -0.088,-0.056 -0.132,-0.084c-0.04,-0.028 -0.084,-0.056 -0.132,-0.08c-0.044,-0.024 -0.088,-0.052 -0.136,-0.072c-0.044,-0.02 -0.088,-0.028 -0.132,-0.044c-0.048,-0.016 -0.092,-0.024 -0.14,-0.032c-0.044,-0.012 -0.092,-0.028 -0.136,-0.036c-0.048,-0.012 -0.096,-0.02 -0.136,-0.028c-0.044,-0.008 -0.084,-0.004 -0.124,-0.004c-0.04,-0.004 -0.08,-0.016 -0.12,-0.02c-0.064,0 -0.128,0 -0.188,-0.008l-0.164,-0.012c-0.056,-0.004 -0.108,0 -0.164,0c-0.056,0 -0.108,0.004 -0.164,0.004c-0.04,0 -0.076,-0.004 -0.116,-0.004c-0.064,0 -0.128,0.004 -0.192,0.016l-0.028,0c-0.048,0.008 -0.088,0.036 -0.124,0.06c-0.04,0.024 -0.068,0.056 -0.092,0.096c-0.024,0.036 -0.04,0.076 -0.048,0.124c-0.012,0.068 -0.02,0.132 -0.02,0.196c0,0.056 -0.004,0.112 -0.004,0.172l0,0.168c0,0.06 0.012,0.116 0.012,0.172c0,0.06 -0.004,0.116 -0.004,0.172c0,0.056 -0.004,0.116 -0.004,0.172c0,0.076 -0.004,0.076 -0.004,0.152l0,0.148c0,0.068 0.004,0.068 0.004,0.136l0,0.132c0,0.048 0.004,0.1 0.004,0.148l0,0.148c0,0.052 -0.004,0.1 -0.004,0.148l0,0.3c0,0.048 -0.004,0.096 -0.004,0.148Zm0.592,-1.748c0,-0.076 0.004,-0.152 0.02,-0.224c0.012,-0.052 0.032,-0.1 0.056,-0.14c0.032,-0.04 0.072,-0.068 0.116,-0.092c0.04,-0.024 0.084,-0.044 0.136,-0.048c0.052,-0.008 0.104,-0.016 0.156,-0.016c0.052,-0.004 0.1,-0.012 0.152,-0.012c0.052,0.004 0.104,0.016 0.152,0.024c0.052,0.008 0.104,0.008 0.156,0.02l0.144,0.048c0.048,0.02 0.092,0.048 0.14,0.072c0.048,0.028 0.096,0.048 0.14,0.076c0.044,0.032 0.088,0.064 0.124,0.1c0.04,0.036 0.072,0.08 0.108,0.124c0.032,0.04 0.06,0.084 0.088,0.132c0.024,0.044 0.056,0.092 0.072,0.14c0.02,0.052 0.028,0.104 0.04,0.16c0.008,0.052 0.004,0.104 0.008,0.16c0.004,0.048 0.008,0.1 0.004,0.144c0,0.052 -0.008,0.1 -0.016,0.148c-0.008,0.048 -0.032,0.092 -0.044,0.136c-0.016,0.048 -0.028,0.092 -0.052,0.136c-0.02,0.048 -0.048,0.092 -0.076,0.132c-0.028,0.044 -0.052,0.088 -0.088,0.124c-0.036,0.04 -0.076,0.072 -0.116,0.104c-0.04,0.028 -0.084,0.052 -0.128,0.08c-0.04,0.02 -0.072,0.048 -0.116,0.064c-0.036,0.016 -0.076,0.036 -0.12,0.052c-0.04,0.012 -0.084,0.016 -0.128,0.024c-0.056,0.016 -0.108,0.028 -0.16,0.036c-0.06,0.008 -0.112,0.012 -0.168,0.016c-0.056,0.004 -0.112,0.004 -0.164,0c-0.068,-0.004 -0.124,-0.016 -0.176,-0.036c-0.056,-0.02 -0.104,-0.056 -0.144,-0.1c-0.04,-0.04 -0.076,-0.084 -0.096,-0.14c-0.016,-0.052 -0.02,-0.108 -0.02,-0.172c-0.004,-0.048 -0.004,-0.092 -0.004,-0.14c-0.004,-0.044 0.004,-0.092 0.004,-0.136c0,-0.04 -0.008,-0.076 -0.012,-0.112c0,-0.064 0.004,-0.132 0.004,-0.196c0,-0.004 0.004,-0.004 0.004,-0.008c0,-0.064 -0.004,-0.064 -0.004,-0.128c0,-0.06 -0.004,-0.06 -0.004,-0.124c0,-0.048 0.004,-0.096 0.004,-0.144c0,-0.048 0.004,-0.092 0.004,-0.14c0,-0.048 0.004,-0.096 0.004,-0.144Z" style="fill:#fff;fill-rule:nonzero;"/><path d="M24.136,30.457c0.044,0 0.088,-0.016 0.128,-0.036c0.064,-0.04 0.104,-0.108 0.124,-0.188c0.016,-0.06 0.028,-0.124 0.028,-0.188l0,-0.148c0,-0.052 -0.008,-0.1 -0.008,-0.152c0,-0.048 0.008,-0.1 0.008,-0.152c0,-0.048 -0.004,-0.1 -0.004,-0.148c0,-0.052 -0.004,-0.1 -0.004,-0.152c0,-0.048 -0.004,-0.1 -0.004,-0.152c0,-0.096 0.012,-0.096 0.012,-0.196l0,-0.188c0,-0.092 -0.008,-0.092 -0.008,-0.188l0,-0.144c0,-0.052 0.008,-0.1 0.008,-0.148c0,-0.048 -0.008,-0.096 -0.008,-0.148c0,-0.2 0.044,-0.432 -0.008,-0.628c-0.096,-0.38 -0.636,-0.4 -0.912,-0.2c-0.128,0.092 -0.196,0.24 -0.244,0.388c-0.068,0.204 -0.14,0.404 -0.208,0.608c-0.02,0.052 -0.032,0.112 -0.052,0.164c-0.02,0.064 -0.024,0.064 -0.048,0.124c-0.02,0.064 -0.016,0.064 -0.04,0.128c-0.02,0.064 -0.028,0.06 -0.048,0.124c-0.02,0.056 -0.044,0.104 -0.068,0.144c-0.032,0.048 -0.064,0.088 -0.104,0.124c-0.044,0.04 -0.088,0.052 -0.132,0.056c-0.044,0 -0.092,-0.012 -0.132,-0.052c-0.036,-0.028 -0.06,-0.068 -0.084,-0.108c-0.024,-0.036 -0.048,-0.076 -0.064,-0.124c-0.02,-0.048 -0.044,-0.092 -0.06,-0.144l-0.06,-0.144c-0.124,-0.34 -0.22,-0.684 -0.352,-1.02c-0.028,-0.072 -0.06,-0.144 -0.108,-0.204c-0.18,-0.216 -0.692,-0.256 -0.896,-0.056c-0.096,0.088 -0.128,0.224 -0.136,0.356c-0.008,0.184 0.004,0.368 0.004,0.548c0,0.052 0.004,0.108 0.004,0.16c0,0.052 0.004,0.104 0.004,0.156c0,0.052 -0.004,0.108 -0.004,0.16c0,0.052 -0.004,0.104 -0.004,0.156c0,0.052 -0.008,0.108 -0.008,0.16c0,0.052 0.016,0.104 0.016,0.156c0,0.052 -0.016,0.108 -0.016,0.16l0,0.156c0,0.052 0.008,0.108 0.008,0.16c0,0.052 -0.004,0.104 -0.004,0.156c0,0.052 0.012,0.108 0.012,0.16c0,0.044 -0.004,0.092 0.004,0.136c0.004,0.048 0.008,0.092 0.02,0.14c0.016,0.068 0.052,0.12 0.1,0.156c0.052,0.04 0.108,0.068 0.176,0.064c0.068,0 0.12,-0.032 0.164,-0.072c0.044,-0.04 0.072,-0.092 0.084,-0.156c0.012,-0.056 0.028,-0.112 0.028,-0.168c0,-0.056 -0.008,-0.112 -0.008,-0.168c0,-0.052 0.008,-0.108 0.008,-0.164c0,-0.048 -0.008,-0.1 -0.008,-0.148c0,-0.048 0.004,-0.1 0.004,-0.148c0,-0.048 -0.004,-0.1 -0.004,-0.148c0,-0.048 0.012,-0.1 0.012,-0.148c0,-0.044 -0.008,-0.088 -0.004,-0.132c0,-0.044 0.016,-0.084 0.016,-0.128l0.012,-0.132c0.004,-0.048 -0.008,-0.048 -0.004,-0.096c0.004,-0.044 0.02,-0.088 0.032,-0.144c0.012,-0.056 0.032,-0.108 0.076,-0.152c0.024,-0.024 0.044,-0.02 0.068,-0.012c0.024,0.012 0.048,0.028 0.068,0.044c0.052,0.044 0.084,0.108 0.116,0.168c0.024,0.044 0.052,0.08 0.072,0.124c0.016,0.044 0.028,0.088 0.044,0.136l0.048,0.132c0.012,0.04 0.016,0.08 0.032,0.12l0.048,0.144c0.016,0.048 0.044,0.092 0.06,0.14c0.016,0.052 0.02,0.104 0.036,0.152c0.016,0.048 0.028,0.1 0.044,0.148c0.012,0.04 0.036,0.076 0.048,0.116c0.012,0.04 0.016,0.084 0.028,0.124c0.02,0.052 0.044,0.104 0.068,0.164c0.02,0.052 0.028,0.112 0.056,0.164c0.02,0.048 0.048,0.088 0.08,0.128c0.032,0.036 0.072,0.064 0.116,0.084c0.04,0.02 0.092,0.036 0.14,0.032c0.048,0 0.096,-0.02 0.136,-0.044c0.044,-0.024 0.08,-0.056 0.108,-0.1c0.044,-0.056 0.064,-0.124 0.084,-0.18c0.02,-0.048 0.048,-0.096 0.068,-0.144c0.016,-0.048 0.024,-0.104 0.04,-0.152c0.016,-0.048 0.04,-0.096 0.056,-0.148c0.02,-0.048 0.024,-0.104 0.04,-0.152c0.012,-0.044 0.036,-0.084 0.052,-0.128c0.012,-0.044 0.016,-0.092 0.032,-0.136c0.016,-0.044 0.04,-0.084 0.056,-0.128c0.016,-0.044 0.032,-0.088 0.048,-0.132l0.036,-0.092c0.016,-0.048 0.036,-0.088 0.052,-0.136c0.02,-0.044 0.032,-0.088 0.052,-0.132c0.02,-0.044 0.044,-0.088 0.068,-0.128c0.04,-0.072 0.084,-0.12 0.136,-0.156c0.044,-0.028 0.076,-0.028 0.116,0.008c0.044,0.044 0.064,0.104 0.076,0.176c0.004,0.028 -0.004,0.028 0,0.056c0.008,0.056 0.012,0.108 0.016,0.16c0.004,0.056 0.016,0.108 0.016,0.164l0,0.28c0,0.048 -0.004,0.096 -0.004,0.144c0,0.048 -0.004,0.092 -0.004,0.14c0,0.048 0.012,0.096 0.012,0.14l0,0.144c0,0.044 0.004,0.092 0.004,0.14c0,0.052 -0.008,0.1 -0.004,0.152c0.004,0.048 0.016,0.1 0.024,0.148c0.012,0.056 0.032,0.104 0.064,0.14c0.032,0.036 0.08,0.064 0.132,0.08c0.028,0.008 0.052,0.02 0.08,0.02Z" style="fill:#fff;fill-rule:nonzero;"/><path d="M27.62,30.077c-0.016,-0.044 -0.036,-0.088 -0.052,-0.128c-0.02,-0.048 -0.056,-0.092 -0.08,-0.14c-0.02,-0.044 -0.036,-0.088 -0.052,-0.128c-0.02,-0.044 -0.04,-0.084 -0.056,-0.128c-0.02,-0.048 -0.032,-0.104 -0.052,-0.152c-0.02,-0.052 -0.048,-0.096 -0.072,-0.148l-0.06,-0.148c-0.024,-0.048 -0.048,-0.092 -0.068,-0.14c-0.024,-0.048 -0.04,-0.096 -0.06,-0.144c-0.02,-0.044 -0.036,-0.092 -0.056,-0.14c-0.016,-0.044 -0.04,-0.092 -0.06,-0.136c-0.02,-0.048 -0.036,-0.096 -0.056,-0.14c-0.02,-0.048 -0.044,-0.092 -0.064,-0.136c-0.02,-0.048 -0.028,-0.096 -0.048,-0.144c-0.02,-0.044 -0.044,-0.088 -0.064,-0.136c-0.02,-0.04 -0.036,-0.084 -0.056,-0.124c-0.016,-0.044 -0.044,-0.08 -0.06,-0.124l-0.06,-0.124c-0.02,-0.048 -0.036,-0.096 -0.06,-0.136c-0.028,-0.044 -0.056,-0.084 -0.088,-0.12c-0.036,-0.04 -0.084,-0.064 -0.128,-0.088c-0.044,-0.024 -0.092,-0.04 -0.148,-0.044c-0.052,0 -0.104,0.004 -0.152,0.024c-0.048,0.02 -0.092,0.048 -0.132,0.088c-0.048,0.048 -0.088,0.112 -0.12,0.184c-0.02,0.044 -0.036,0.088 -0.056,0.132l-0.064,0.132c-0.016,0.04 -0.032,0.08 -0.052,0.116c-0.016,0.04 -0.028,0.084 -0.044,0.12c-0.02,0.044 -0.036,0.088 -0.056,0.132c-0.016,0.04 -0.036,0.084 -0.056,0.124c-0.02,0.044 -0.04,0.084 -0.056,0.128c-0.02,0.04 -0.032,0.076 -0.048,0.116c-0.02,0.036 -0.036,0.076 -0.052,0.112c-0.02,0.04 -0.048,0.08 -0.068,0.124c-0.016,0.04 -0.028,0.088 -0.048,0.132c-0.016,0.04 -0.044,0.08 -0.06,0.124c-0.016,0.048 -0.036,0.096 -0.056,0.14c-0.02,0.048 -0.032,0.1 -0.052,0.148l-0.064,0.136c-0.02,0.048 -0.048,0.092 -0.068,0.14c-0.024,0.052 -0.036,0.108 -0.06,0.16c-0.024,0.056 -0.052,0.104 -0.076,0.156c-0.016,0.044 -0.036,0.088 -0.052,0.132c-0.016,0.044 -0.024,0.092 -0.036,0.14c-0.012,0.044 -0.012,0.088 0,0.128c0.008,0.04 0.024,0.08 0.056,0.112c0.036,0.028 0.076,0.052 0.12,0.06c0.044,0.004 0.088,-0.004 0.136,-0.02c0.044,-0.012 0.088,-0.024 0.12,-0.048c0.036,-0.028 0.072,-0.06 0.092,-0.096c0.024,-0.036 0.048,-0.072 0.072,-0.116c0.02,-0.032 0.028,-0.076 0.052,-0.12c0.024,-0.044 0.064,-0.076 0.092,-0.108c0.032,-0.04 0.064,-0.072 0.104,-0.1c0.036,-0.024 0.08,-0.044 0.128,-0.056c0.044,-0.016 0.088,-0.032 0.136,-0.036c0.052,0 0.108,-0.008 0.16,-0.008c0.052,-0.004 0.104,0.012 0.16,0.008c0.052,0 0.104,-0.012 0.156,-0.012c0.056,0 0.108,0.012 0.16,0.016c0.052,0 0.108,0.004 0.16,0.004c0.06,0.004 0.112,0.02 0.164,0.04c0.052,0.02 0.108,0.036 0.152,0.072c0.04,0.036 0.076,0.084 0.108,0.132l0,0.008c0.032,0.048 0.056,0.096 0.08,0.144c0.02,0.048 0.044,0.088 0.072,0.12c0.032,0.04 0.076,0.064 0.108,0.092c0.032,0.028 0.056,0.06 0.092,0.072c0.04,0.016 0.08,0.016 0.12,0.016c0.008,0 0.016,0.008 0.02,0.004c0.072,-0.004 0.128,-0.036 0.168,-0.08c0.04,-0.044 0.06,-0.104 0.06,-0.176c0,-0.004 0.008,-0.004 0.008,-0.008c-0.004,-0.044 -0.016,-0.092 -0.028,-0.136Zm-1.156,-1.072c0,0.064 -0.004,0.116 -0.032,0.156c-0.028,0.044 -0.072,0.072 -0.132,0.096c-0.064,0.032 -0.14,0.048 -0.212,0.044l0,-0.008c0,0 0,0.012 -0.004,0.012c-0.076,0 -0.136,-0.012 -0.188,-0.036c-0.068,-0.024 -0.124,-0.06 -0.156,-0.108c-0.032,-0.052 -0.048,-0.116 -0.048,-0.188c0,-0.052 0.012,-0.108 0.028,-0.168c0.016,-0.052 0.032,-0.104 0.056,-0.16c0.024,-0.044 0.048,-0.088 0.076,-0.132c0.024,-0.04 0.048,-0.084 0.084,-0.12c0.056,-0.056 0.116,-0.056 0.16,-0.052c0.06,0.004 0.112,0.028 0.148,0.076c0.04,0.052 0.072,0.104 0.1,0.156c0.032,0.056 0.064,0.108 0.084,0.168c0.016,0.048 0.028,0.088 0.036,0.128c0.008,0.048 0,0.092 0,0.136Z" style="fill:#fff;fill-rule:nonzero;"/><path d="M29.924,27.437c-0.048,-0.04 -0.088,-0.084 -0.14,-0.112c-0.052,-0.028 -0.112,-0.044 -0.168,-0.064c-0.056,-0.02 -0.112,-0.04 -0.172,-0.052c-0.048,-0.004 -0.1,-0.004 -0.148,-0.008c-0.048,-0.004 -0.1,-0.016 -0.148,-0.016c-0.024,0 -0.048,0.008 -0.072,0.008c-0.08,0 -0.156,0.008 -0.232,0c-0.052,-0.008 -0.108,-0.012 -0.16,-0.016c-0.056,-0.004 -0.112,-0.004 -0.164,-0.004c-0.056,0 -0.108,-0.008 -0.164,-0.008c-0.032,0 -0.032,0.016 -0.064,0.016c-0.064,0 -0.128,0.008 -0.184,0.02c-0.048,0.008 -0.084,0.028 -0.12,0.048c-0.036,0.024 -0.068,0.056 -0.092,0.092c-0.024,0.032 -0.036,0.076 -0.048,0.12c-0.012,0.044 -0.024,0.092 -0.032,0.144c-0.004,0.044 -0.008,0.092 -0.008,0.144c0.004,0.052 0,0.1 0,0.148c0,0.052 0.004,0.1 0.004,0.148c0,0.052 0.004,0.1 0.004,0.152c0,0.048 -0.008,0.096 -0.008,0.148c0,0.048 0.008,0.1 0.008,0.148c0,0.076 0.008,0.076 0.008,0.156c0,0.076 -0.012,0.076 -0.012,0.152l0,0.144c0,0.072 0.004,0.072 0.004,0.144l0,0.16c0,0.052 -0.004,0.108 -0.004,0.16c0,0.056 0.008,0.108 0.008,0.164c0,0.052 -0.008,0.104 -0.008,0.16c0,0.052 -0.004,0.108 -0.004,0.16c0,0.052 0.004,0.104 0.012,0.16c0.004,0.048 0.016,0.096 0.028,0.152c0.012,0.064 0.052,0.116 0.096,0.156c0.048,0.036 0.104,0.068 0.168,0.068c0.004,0 0.004,-0.004 0.004,-0.004c0.064,0 0.124,-0.012 0.168,-0.048c0.04,-0.032 0.068,-0.088 0.088,-0.148c0.02,-0.064 0.028,-0.124 0.028,-0.18c0,-0.02 -0.012,-0.02 -0.012,-0.04c0,-0.044 0.012,-0.092 0.012,-0.136c0,-0.048 -0.004,-0.092 -0.004,-0.136c0,-0.056 -0.008,-0.108 0,-0.16c0.008,-0.052 0.032,-0.1 0.044,-0.152c0.016,-0.056 0.032,-0.1 0.056,-0.14c0.028,-0.044 0.06,-0.084 0.104,-0.112c0.04,-0.024 0.088,-0.04 0.14,-0.052c0.052,-0.012 0.108,-0.016 0.16,-0.016c0.052,-0.004 0.104,-0.004 0.16,-0.008l0.004,0c0.048,0 0.1,-0.008 0.148,-0.012c0.052,-0.004 0.1,-0.004 0.152,-0.008c0.048,-0.008 0.1,-0.008 0.148,-0.02c0.048,-0.012 0.096,-0.028 0.144,-0.048c0.048,-0.016 0.096,-0.04 0.14,-0.064c0.048,-0.024 0.092,-0.052 0.132,-0.08c0.04,-0.036 0.072,-0.076 0.104,-0.116c0.032,-0.04 0.068,-0.076 0.096,-0.124c0.024,-0.044 0.04,-0.092 0.056,-0.144c0.016,-0.048 0.024,-0.096 0.032,-0.152c0.008,-0.044 0.02,-0.088 0.02,-0.136c0.004,-0.044 0.004,-0.092 0,-0.136c0,-0.048 -0.012,-0.092 -0.02,-0.14c-0.008,-0.048 -0.02,-0.092 -0.036,-0.14c-0.016,-0.044 -0.032,-0.092 -0.056,-0.132c-0.024,-0.04 -0.052,-0.084 -0.084,-0.12c-0.032,-0.036 -0.076,-0.056 -0.116,-0.088Zm-0.336,0.768c-0.004,0.048 -0.032,0.092 -0.048,0.132c-0.02,0.04 -0.04,0.084 -0.076,0.116c-0.032,0.032 -0.072,0.052 -0.116,0.076c-0.044,0.024 -0.08,0.052 -0.124,0.068c-0.048,0.016 -0.096,0.02 -0.14,0.028c-0.048,0.012 -0.092,0.02 -0.14,0.024c-0.048,0 -0.096,0.004 -0.144,-0.004c-0.044,-0.008 -0.092,-0.024 -0.136,-0.04c-0.06,-0.02 -0.108,-0.052 -0.148,-0.096c-0.036,-0.044 -0.052,-0.1 -0.072,-0.164c-0.02,-0.06 -0.032,-0.124 -0.036,-0.196c0,-0.004 0.008,-0.004 0.008,-0.008l0,-0.048c0,-0.036 0.004,-0.068 0.008,-0.1c0.008,-0.056 0.02,-0.108 0.044,-0.152c0.028,-0.048 0.068,-0.084 0.112,-0.116c0.044,-0.028 0.092,-0.048 0.148,-0.06c0.052,-0.008 0.104,-0.016 0.156,-0.016c0.056,-0.004 0.104,-0.004 0.156,0.004c0.052,0.004 0.104,0.012 0.156,0.028c0.048,0.016 0.096,0.044 0.14,0.068c0.044,0.024 0.084,0.048 0.116,0.076c0.032,0.036 0.068,0.068 0.088,0.108c0.024,0.04 0.024,0.088 0.032,0.136c0.008,0.04 0.024,0.088 0.016,0.136Z" style="fill:#fff;fill-rule:nonzero;"/></g><g><circle cx="22.835" cy="10.382" r="0.661" style="fill:#fff;"/><path d="M16.755,13.142c-0.213,0.004 -0.928,0.357 -0.803,1.046c0.125,0.688 0.918,1.288 0.992,1.741c0.074,0.453 -0.108,1.737 0,2.032c0.108,0.294 0.701,0.937 0.897,0.803c0.196,-0.134 -0.268,-0.503 -0.236,-0.803c0.032,-0.301 0.047,-0.744 0.709,-0.992c0.661,-0.249 0.911,-1.309 0.897,-1.748c-0.014,-0.439 -0.995,-2.105 -2.456,-2.079Z" style="fill:none;stroke:#fff;stroke-width:0.6px;"/><path d="M17.747,9.93c0,0 -1.311,0.855 -1.417,1.276c-0.106,0.421 -0.2,0.657 -0.331,0.614c-0.131,-0.044 -0.21,-0.472 -0.378,-0.378c-0.167,0.093 -0.713,0.181 -0.567,0.614c0.146,0.432 0.61,0.824 0.992,1.086c0.045,0.031 0.094,0.101 0,0.142c-0.057,0.025 -0.393,0.249 -1.54,-0.796c-0.324,-0.296 -0.58,-0.658 -0.538,-0.716c0.726,-0.995 2.502,-1.826 3.779,-1.842Z" style="fill:none;stroke:#fff;stroke-width:0.6px;"/><path d="M20.581,10.591c0,0 -1.4,0.695 -1.086,1.37c0.313,0.676 1.219,2.161 1.936,2.22c0.718,0.06 1.748,-0.314 1.795,-0.519c0.048,-0.205 -1.093,-2.522 -2.645,-3.071Z" style="fill:none;stroke:#fff;stroke-width:0.6px;"/><ellipse cx="18.03" cy="15.339" rx="5.432" ry="5.409" style="fill:none;stroke:#fff;stroke-width:0.6px;"/><g><path d="M13.354,9.174l-0.048,0.473l-0.094,0l-0.236,-0.095l0.094,0.189l0,0.095l-0.472,0.047l0.472,0.047l0,0.142l-0.094,0.142l0.236,-0.095l0.094,0l0.048,0.472l0.047,-0.472l0,-0.472l-0.047,-0.473Z" style="fill:#fff8f8;"/><path d="M13.354,9.174l0.047,0.473l0.094,0l0.237,-0.095l-0.095,0.189l0,0.095l0.472,0.047l-0.472,0.047l0,0.142l0.095,0.142l-0.237,-0.095l-0.094,0l-0.047,0.472l-0.048,-0.472l0,-0.472l0.048,-0.473Z" style="fill:#fff8f8;"/></g><g><path d="M16.117,21.158l-0.04,0.398l-0.08,0l-0.199,-0.079l0.08,0.159l0,0.08l-0.399,0.04l0.399,0.04l0,0.119l-0.08,0.12l0.199,-0.08l0.08,0l0.04,0.399l0.04,-0.399l0,-0.399l-0.04,-0.398Z" style="fill:#fff8f8;"/><path d="M16.117,21.158l0.04,0.398l0.08,0l0.199,-0.079l-0.08,0.159l0,0.08l0.399,0.04l-0.399,0.04l0,0.119l0.08,0.12l-0.199,-0.08l-0.08,0l-0.04,0.399l-0.04,-0.399l0,-0.399l0.04,-0.398Z" style="fill:#fff8f8;"/></g><g><path d="M25.257,14.861l-0.032,0.324l-0.065,0l-0.162,-0.065l0.065,0.13l0,0.065l-0.325,0.033l0.325,0.032l0,0.098l-0.065,0.097l0.162,-0.065l0.065,0l0.032,0.325l0.033,-0.325l0,-0.325l-0.033,-0.324Z" style="fill:#fff8f8;"/><path d="M25.257,14.861l0.033,0.324l0.065,0l0.162,-0.065l-0.065,0.13l0,0.065l0.325,0.033l-0.325,0.032l0,0.098l0.065,0.097l-0.162,-0.065l-0.065,0l-0.033,0.325l-0.032,-0.325l0,-0.325l0.032,-0.324Z" style="fill:#fff8f8;"/></g><circle cx="18.03" cy="15.315" r="8.55" style="fill:none;stroke:#fff;stroke-width:0.6px;"/><path d="M22.397,10.909l-1.256,1.412" style="fill:none;stroke:#fff;stroke-width:0.45px;"/></g></svg>