<?xml version="1.0" encoding="UTF-8" standalone="no"?>
<!DOCTYPE svg PUBLIC "-//W3C//DTD SVG 1.1//EN" "http://www.w3.org/Graphics/SVG/1.1/DTD/svg11.dtd">
<svg width="100%" height="100%" viewBox="0 0 200 200" version="1.1" xmlns="http://www.w3.org/2000/svg" xmlns:xlink="http://www.w3.org/1999/xlink" xml:space="preserve" style="fill-rule:evenodd;clip-rule:evenodd;stroke-linecap:round;stroke-linejoin:round;stroke-miterlimit:1.5;">
    <g transform="matrix(1,0,0,1,0,-4)">
        <rect x="-4" y="0" width="213" height="204" style="fill:rgb(233,30,99);"/>
    </g>
    <g transform="matrix(1,0,0,1,2.26079,11)">
        <path d="M77.45,158.204C77.695,158.204 77.939,158.115 78.161,158.004C78.517,157.781 78.739,157.404 78.85,156.959C78.939,156.626 79.006,156.27 79.006,155.915L79.006,155.092C79.006,154.804 78.961,154.537 78.961,154.248C78.961,153.981 79.006,153.692 79.006,153.404C79.006,153.137 78.984,152.848 78.984,152.581C78.984,152.292 78.961,152.026 78.961,151.737C78.961,151.47 78.939,151.181 78.939,150.892C78.939,150.359 79.006,150.359 79.006,149.804L79.006,148.759C79.006,148.248 78.961,148.248 78.961,147.715L78.961,146.915C78.961,146.626 79.006,146.359 79.006,146.092C79.006,145.826 78.961,145.559 78.961,145.27C78.961,144.159 79.206,142.87 78.917,141.781C78.384,139.67 75.384,139.559 73.85,140.67C73.139,141.181 72.761,142.004 72.495,142.826C72.117,143.959 71.717,145.07 71.339,146.204C71.228,146.492 71.161,146.826 71.05,147.115C70.939,147.47 70.917,147.47 70.784,147.804C70.673,148.159 70.695,148.159 70.561,148.515C70.45,148.87 70.406,148.848 70.295,149.204C70.184,149.515 70.05,149.781 69.917,150.004C69.739,150.27 69.561,150.492 69.339,150.692C69.095,150.915 68.85,150.981 68.606,151.004C68.361,151.004 68.095,150.937 67.873,150.715C67.673,150.559 67.539,150.337 67.406,150.115C67.273,149.915 67.139,149.692 67.05,149.426C66.939,149.159 66.806,148.915 66.717,148.626L66.384,147.826C65.695,145.937 65.161,144.026 64.428,142.159C64.273,141.759 64.095,141.359 63.828,141.026C62.828,139.826 59.984,139.604 58.85,140.715C58.317,141.204 58.139,141.959 58.095,142.692C58.05,143.715 58.117,144.737 58.117,145.737C58.117,146.026 58.139,146.337 58.139,146.626C58.139,146.915 58.161,147.204 58.161,147.492C58.161,147.781 58.139,148.092 58.139,148.381C58.139,148.67 58.117,148.959 58.117,149.248C58.117,149.537 58.073,149.848 58.073,150.137C58.073,150.426 58.161,150.715 58.161,151.004C58.161,151.292 58.073,151.604 58.073,151.892L58.073,152.759C58.073,153.048 58.117,153.359 58.117,153.648C58.117,153.937 58.095,154.226 58.095,154.515C58.095,154.804 58.161,155.115 58.161,155.404C58.161,155.648 58.139,155.915 58.184,156.159C58.206,156.426 58.228,156.67 58.295,156.937C58.384,157.315 58.584,157.604 58.85,157.804C59.139,158.026 59.45,158.181 59.828,158.159C60.206,158.159 60.495,157.981 60.739,157.759C60.984,157.537 61.139,157.248 61.206,156.892C61.273,156.581 61.361,156.27 61.361,155.959C61.361,155.648 61.317,155.337 61.317,155.026C61.317,154.737 61.361,154.426 61.361,154.115C61.361,153.848 61.317,153.559 61.317,153.292C61.317,153.026 61.339,152.737 61.339,152.47C61.339,152.204 61.317,151.915 61.317,151.648C61.317,151.381 61.384,151.092 61.384,150.826C61.384,150.581 61.339,150.337 61.361,150.092C61.361,149.848 61.45,149.626 61.45,149.381L61.517,148.648C61.539,148.381 61.473,148.381 61.495,148.115C61.517,147.87 61.606,147.626 61.673,147.315C61.739,147.004 61.85,146.715 62.095,146.47C62.228,146.337 62.339,146.359 62.473,146.404C62.606,146.47 62.739,146.559 62.85,146.648C63.139,146.892 63.317,147.248 63.495,147.581C63.628,147.826 63.784,148.026 63.895,148.27C63.984,148.515 64.05,148.759 64.139,149.026L64.406,149.759C64.473,149.981 64.495,150.204 64.584,150.426L64.85,151.226C64.939,151.492 65.095,151.737 65.184,152.004C65.273,152.292 65.295,152.581 65.384,152.848C65.473,153.115 65.539,153.404 65.628,153.67C65.695,153.892 65.828,154.092 65.895,154.315C65.961,154.537 65.984,154.781 66.05,155.004C66.161,155.292 66.295,155.581 66.428,155.915C66.539,156.204 66.584,156.537 66.739,156.826C66.85,157.092 67.006,157.315 67.184,157.537C67.361,157.737 67.584,157.892 67.828,158.004C68.05,158.115 68.339,158.204 68.606,158.181C68.873,158.181 69.139,158.07 69.361,157.937C69.606,157.804 69.806,157.626 69.961,157.381C70.206,157.07 70.317,156.692 70.428,156.381C70.539,156.115 70.695,155.848 70.806,155.581C70.895,155.315 70.939,155.004 71.028,154.737C71.117,154.47 71.25,154.204 71.339,153.915C71.45,153.648 71.473,153.337 71.561,153.07C71.628,152.826 71.761,152.604 71.85,152.359C71.917,152.115 71.939,151.848 72.028,151.604C72.117,151.359 72.25,151.137 72.339,150.892C72.428,150.648 72.517,150.404 72.606,150.159L72.806,149.648C72.895,149.381 73.006,149.159 73.095,148.892C73.206,148.648 73.273,148.404 73.384,148.159C73.495,147.915 73.628,147.67 73.761,147.448C73.984,147.048 74.228,146.781 74.517,146.581C74.761,146.426 74.939,146.426 75.161,146.626C75.406,146.87 75.517,147.204 75.584,147.604C75.606,147.759 75.561,147.759 75.584,147.915C75.628,148.226 75.65,148.515 75.673,148.804C75.695,149.115 75.761,149.404 75.761,149.715L75.761,151.27C75.761,151.537 75.739,151.804 75.739,152.07C75.739,152.337 75.717,152.581 75.717,152.848C75.717,153.115 75.784,153.381 75.784,153.626L75.784,154.426C75.784,154.67 75.806,154.937 75.806,155.204C75.806,155.492 75.761,155.759 75.784,156.048C75.806,156.315 75.873,156.604 75.917,156.87C75.984,157.181 76.095,157.448 76.273,157.648C76.45,157.848 76.717,158.004 77.006,158.092C77.161,158.137 77.295,158.204 77.45,158.204Z" style="fill:white;fill-rule:nonzero;"/>
        <path d="M99.673,148.915C99.673,148.737 99.628,148.559 99.628,148.404C99.606,148.092 99.606,147.804 99.561,147.515C99.517,147.226 99.495,146.937 99.428,146.648C99.361,146.359 99.317,146.07 99.228,145.804C99.139,145.515 99.028,145.248 98.895,144.981C98.784,144.715 98.65,144.448 98.517,144.181C98.384,143.937 98.228,143.715 98.073,143.492C97.917,143.27 97.784,143.026 97.606,142.826C97.428,142.604 97.228,142.426 97.028,142.226C96.828,142.048 96.65,141.848 96.428,141.67C96.228,141.492 96.028,141.315 95.806,141.159C95.584,141.004 95.317,140.892 95.073,140.759C94.85,140.626 94.584,140.537 94.339,140.426C94.073,140.315 93.85,140.159 93.584,140.07C93.339,139.981 93.05,139.937 92.784,139.87C92.517,139.804 92.228,139.759 91.961,139.715C91.673,139.67 91.384,139.626 91.095,139.604C90.828,139.559 90.539,139.47 90.25,139.448C89.961,139.448 89.673,139.47 89.406,139.47C89.117,139.492 88.828,139.537 88.539,139.581C88.273,139.604 87.961,139.581 87.695,139.648C87.406,139.692 87.117,139.737 86.85,139.804C86.561,139.87 86.295,139.981 86.028,140.07C85.761,140.181 85.473,140.248 85.228,140.381C84.961,140.492 84.717,140.648 84.473,140.781C84.228,140.937 83.984,141.115 83.761,141.27C83.517,141.448 83.25,141.604 83.028,141.781C82.806,141.981 82.584,142.204 82.384,142.426C82.184,142.626 82.028,142.892 81.85,143.137C81.673,143.359 81.428,143.559 81.273,143.826C81.117,144.07 81.028,144.359 80.917,144.626C80.784,144.892 80.673,145.181 80.584,145.47C80.473,145.737 80.384,146.026 80.317,146.315C80.25,146.604 80.117,146.87 80.073,147.181C80.028,147.426 80.006,147.67 79.984,147.937C79.961,148.181 79.961,148.448 79.961,148.715C79.939,148.959 79.939,149.204 79.939,149.47C79.939,149.715 79.984,149.981 80.006,150.248C80.028,150.537 80.05,150.826 80.095,151.092C80.139,151.381 80.228,151.67 80.295,151.937C80.361,152.226 80.45,152.515 80.539,152.781C80.65,153.048 80.739,153.315 80.85,153.581C80.984,153.848 81.117,154.092 81.273,154.337C81.428,154.604 81.584,154.848 81.761,155.07C81.939,155.315 82.161,155.515 82.361,155.715C82.561,155.937 82.717,156.181 82.939,156.381C83.139,156.581 83.406,156.715 83.65,156.892L84.384,157.359C84.65,157.492 84.873,157.692 85.139,157.804C85.406,157.915 85.695,158.004 85.961,158.092C86.228,158.181 86.517,158.248 86.806,158.315C87.05,158.381 87.295,158.448 87.561,158.492C87.806,158.537 88.05,158.559 88.317,158.581L89.073,158.648C89.317,158.67 89.561,158.67 89.828,158.67C90.228,158.67 90.628,158.67 91.028,158.626C91.339,158.604 91.628,158.581 91.917,158.537C92.228,158.47 92.517,158.381 92.784,158.315C93.095,158.248 93.384,158.204 93.673,158.115C93.961,158.026 94.25,157.915 94.517,157.804C94.784,157.67 95.05,157.537 95.317,157.381C95.561,157.226 95.806,157.026 96.028,156.848C96.273,156.67 96.517,156.492 96.739,156.292C96.939,156.137 97.095,155.915 97.273,155.737C97.45,155.559 97.606,155.337 97.761,155.137C97.917,154.937 98.05,154.737 98.184,154.515C98.339,154.315 98.45,154.092 98.561,153.848C98.695,153.604 98.85,153.381 98.961,153.137C99.05,152.892 99.117,152.626 99.206,152.381C99.273,152.115 99.384,151.87 99.428,151.604C99.495,151.337 99.561,151.07 99.606,150.804C99.628,150.537 99.65,150.27 99.65,150.004C99.673,149.737 99.695,149.448 99.673,149.181L99.673,148.915ZM95.895,151.515C95.784,151.804 95.695,152.115 95.561,152.381C95.406,152.67 95.25,152.937 95.073,153.181C94.895,153.426 94.695,153.67 94.473,153.892C94.273,154.115 94.028,154.292 93.784,154.492C93.539,154.67 93.273,154.848 93.006,155.004C92.739,155.159 92.45,155.27 92.161,155.381C91.873,155.492 91.584,155.581 91.273,155.648C90.984,155.715 90.673,155.737 90.384,155.759C90.073,155.781 89.761,155.826 89.473,155.804C89.161,155.781 88.873,155.737 88.561,155.67C88.273,155.626 87.984,155.515 87.695,155.426C87.406,155.337 87.117,155.248 86.85,155.115C86.606,155.004 86.361,154.915 86.139,154.759C85.917,154.626 85.761,154.404 85.561,154.226C85.361,154.048 85.139,153.915 84.984,153.692C84.806,153.515 84.628,153.315 84.495,153.07C84.317,152.826 84.184,152.559 84.05,152.292C83.917,152.026 83.85,151.715 83.761,151.426C83.65,151.137 83.561,150.87 83.495,150.581C83.428,150.292 83.339,150.004 83.317,149.692C83.295,149.404 83.339,149.092 83.339,148.804C83.361,148.492 83.406,148.204 83.45,147.915C83.517,147.626 83.561,147.315 83.65,147.026C83.739,146.759 83.873,146.47 84.006,146.204C84.117,145.937 84.25,145.67 84.384,145.404C84.539,145.115 84.695,144.848 84.895,144.626C85.073,144.381 85.317,144.204 85.539,144.004C85.761,143.804 86.006,143.604 86.25,143.426C86.517,143.27 86.761,143.092 87.05,142.959C87.317,142.848 87.628,142.826 87.939,142.737C88.206,142.67 88.473,142.537 88.784,142.47C89.073,142.426 89.361,142.381 89.673,142.381C89.695,142.381 89.739,142.381 89.784,142.381L89.784,142.448C90.073,142.448 90.339,142.47 90.606,142.492C90.895,142.537 91.161,142.559 91.428,142.626C91.695,142.67 91.939,142.781 92.206,142.87C92.473,142.959 92.717,143.048 92.961,143.181C93.206,143.315 93.428,143.47 93.65,143.626C93.873,143.781 94.095,143.959 94.295,144.159C94.495,144.337 94.65,144.537 94.828,144.737C94.984,144.937 95.117,145.159 95.25,145.381C95.384,145.604 95.517,145.848 95.628,146.07L95.895,146.826C95.961,147.07 96.095,147.292 96.139,147.559C96.206,147.826 96.184,148.092 96.228,148.359C96.25,148.626 96.339,148.892 96.339,149.159C96.339,149.426 96.339,149.692 96.295,149.959C96.273,150.226 96.161,150.47 96.095,150.737C96.028,151.004 95.984,151.248 95.895,151.515Z" style="fill:white;fill-rule:nonzero;"/>
        <path d="M120.295,148.915C120.295,148.737 120.25,148.559 120.25,148.404C120.228,148.092 120.228,147.804 120.184,147.515C120.139,147.226 120.117,146.937 120.05,146.648C119.984,146.359 119.939,146.07 119.85,145.804C119.761,145.515 119.65,145.248 119.517,144.981C119.406,144.715 119.273,144.448 119.139,144.181C119.006,143.937 118.85,143.715 118.695,143.492C118.539,143.27 118.406,143.026 118.228,142.826C118.05,142.604 117.85,142.426 117.65,142.226C117.45,142.048 117.273,141.848 117.05,141.67C116.85,141.492 116.65,141.315 116.428,141.159C116.206,141.004 115.939,140.892 115.695,140.759C115.473,140.626 115.206,140.537 114.961,140.426C114.695,140.315 114.473,140.159 114.206,140.07C113.961,139.981 113.673,139.937 113.406,139.87C113.139,139.804 112.85,139.759 112.584,139.715C112.295,139.67 112.006,139.626 111.717,139.604C111.45,139.559 111.161,139.47 110.873,139.448C110.584,139.448 110.295,139.47 110.028,139.47C109.739,139.492 109.45,139.537 109.161,139.581C108.895,139.604 108.584,139.581 108.317,139.648C108.028,139.692 107.739,139.737 107.473,139.804C107.184,139.87 106.917,139.981 106.65,140.07C106.384,140.181 106.095,140.248 105.85,140.381C105.584,140.492 105.339,140.648 105.095,140.781C104.85,140.937 104.606,141.115 104.384,141.27C104.139,141.448 103.873,141.604 103.65,141.781C103.428,141.981 103.206,142.204 103.006,142.426C102.806,142.626 102.65,142.892 102.473,143.137C102.295,143.359 102.05,143.559 101.895,143.826C101.739,144.07 101.65,144.359 101.539,144.626C101.406,144.892 101.295,145.181 101.206,145.47C101.095,145.737 101.006,146.026 100.939,146.315C100.873,146.604 100.739,146.87 100.695,147.181C100.65,147.426 100.628,147.67 100.606,147.937C100.584,148.181 100.584,148.448 100.584,148.715C100.561,148.959 100.561,149.204 100.561,149.47C100.561,149.715 100.606,149.981 100.628,150.248C100.65,150.537 100.673,150.826 100.717,151.092C100.761,151.381 100.85,151.67 100.917,151.937C100.984,152.226 101.073,152.515 101.161,152.781C101.273,153.048 101.361,153.315 101.473,153.581C101.606,153.848 101.739,154.092 101.895,154.337C102.05,154.604 102.206,154.848 102.384,155.07C102.561,155.315 102.784,155.515 102.984,155.715C103.184,155.937 103.339,156.181 103.561,156.381C103.761,156.581 104.028,156.715 104.273,156.892L105.006,157.359C105.273,157.492 105.495,157.692 105.761,157.804C106.028,157.915 106.317,158.004 106.584,158.092C106.85,158.181 107.139,158.248 107.428,158.315C107.673,158.381 107.917,158.448 108.184,158.492C108.428,158.537 108.673,158.559 108.939,158.581L109.695,158.648C109.939,158.67 110.184,158.67 110.45,158.67C110.85,158.67 111.25,158.67 111.65,158.626C111.961,158.604 112.25,158.581 112.539,158.537C112.85,158.47 113.139,158.381 113.406,158.315C113.717,158.248 114.006,158.204 114.295,158.115C114.584,158.026 114.873,157.915 115.139,157.804C115.406,157.67 115.673,157.537 115.939,157.381C116.184,157.226 116.428,157.026 116.65,156.848C116.895,156.67 117.139,156.492 117.361,156.292C117.561,156.137 117.717,155.915 117.895,155.737C118.073,155.559 118.228,155.337 118.384,155.137C118.539,154.937 118.673,154.737 118.806,154.515C118.961,154.315 119.073,154.092 119.184,153.848C119.317,153.604 119.473,153.381 119.584,153.137C119.673,152.892 119.739,152.626 119.828,152.381C119.895,152.115 120.006,151.87 120.05,151.604C120.117,151.337 120.184,151.07 120.228,150.804C120.25,150.537 120.273,150.27 120.273,150.004C120.295,149.737 120.317,149.448 120.295,149.181L120.295,148.915ZM116.517,151.515C116.406,151.804 116.317,152.115 116.184,152.381C116.028,152.67 115.873,152.937 115.695,153.181C115.517,153.426 115.317,153.67 115.095,153.892C114.895,154.115 114.65,154.292 114.406,154.492C114.161,154.67 113.895,154.848 113.628,155.004C113.361,155.159 113.073,155.27 112.784,155.381C112.495,155.492 112.206,155.581 111.895,155.648C111.606,155.715 111.295,155.737 111.006,155.759C110.695,155.781 110.384,155.826 110.095,155.804C109.784,155.781 109.495,155.737 109.184,155.67C108.895,155.626 108.606,155.515 108.317,155.426C108.028,155.337 107.739,155.248 107.473,155.115C107.228,155.004 106.984,154.915 106.761,154.759C106.539,154.626 106.384,154.404 106.184,154.226C105.984,154.048 105.761,153.915 105.606,153.692C105.428,153.515 105.25,153.315 105.117,153.07C104.939,152.826 104.806,152.559 104.673,152.292C104.539,152.026 104.473,151.715 104.384,151.426C104.273,151.137 104.184,150.87 104.117,150.581C104.05,150.292 103.961,150.004 103.939,149.692C103.917,149.404 103.961,149.092 103.961,148.804C103.984,148.492 104.028,148.204 104.073,147.915C104.139,147.626 104.184,147.315 104.273,147.026C104.361,146.759 104.495,146.47 104.628,146.204C104.739,145.937 104.873,145.67 105.006,145.404C105.161,145.115 105.317,144.848 105.517,144.626C105.695,144.381 105.939,144.204 106.161,144.004C106.384,143.804 106.628,143.604 106.873,143.426C107.139,143.27 107.384,143.092 107.673,142.959C107.939,142.848 108.25,142.826 108.561,142.737C108.828,142.67 109.095,142.537 109.406,142.47C109.695,142.426 109.984,142.381 110.295,142.381C110.317,142.381 110.361,142.381 110.406,142.381L110.406,142.448C110.695,142.448 110.961,142.47 111.228,142.492C111.517,142.537 111.784,142.559 112.05,142.626C112.317,142.67 112.561,142.781 112.828,142.87C113.095,142.959 113.339,143.048 113.584,143.181C113.828,143.315 114.05,143.47 114.273,143.626C114.495,143.781 114.717,143.959 114.917,144.159C115.117,144.337 115.273,144.537 115.45,144.737C115.606,144.937 115.739,145.159 115.873,145.381C116.006,145.604 116.139,145.848 116.25,146.07L116.517,146.826C116.584,147.07 116.717,147.292 116.761,147.559C116.828,147.826 116.806,148.092 116.85,148.359C116.873,148.626 116.961,148.892 116.961,149.159C116.961,149.426 116.961,149.692 116.917,149.959C116.895,150.226 116.784,150.47 116.717,150.737C116.65,151.004 116.606,151.248 116.517,151.515Z" style="fill:white;fill-rule:nonzero;"/>
        <path d="M121.184,155.692C121.184,156.048 121.228,156.404 121.295,156.759C121.339,157.048 121.45,157.292 121.584,157.515C121.717,157.759 121.873,157.981 122.117,158.115C122.317,158.27 122.584,158.359 122.873,158.426C123.095,158.47 123.339,158.47 123.539,158.47C123.806,158.47 124.095,158.404 124.361,158.404C124.628,158.404 124.895,158.47 125.161,158.47C125.495,158.47 125.85,158.426 126.184,158.426L127.184,158.426C127.517,158.426 127.85,158.47 128.161,158.448C128.495,158.426 128.828,158.359 129.161,158.315C129.45,158.27 129.739,158.248 130.006,158.181C130.295,158.137 130.584,158.115 130.873,158.048C131.139,157.981 131.428,157.892 131.695,157.804C131.984,157.715 132.228,157.537 132.473,157.426C132.761,157.315 133.006,157.204 133.273,157.07C133.517,156.937 133.784,156.826 134.028,156.67C134.295,156.515 134.517,156.315 134.739,156.115C134.984,155.937 135.206,155.737 135.428,155.537C135.628,155.337 135.873,155.159 136.073,154.915C136.273,154.692 136.428,154.448 136.606,154.204C136.761,153.937 136.917,153.692 137.05,153.426C137.184,153.159 137.273,152.87 137.384,152.581C137.495,152.315 137.584,152.026 137.673,151.737C137.739,151.448 137.828,151.159 137.873,150.87C137.917,150.604 137.895,150.359 137.895,150.092C137.917,149.848 137.895,149.604 137.895,149.337C137.873,149.092 137.917,148.826 137.895,148.581L137.895,148.404C137.873,148.115 137.85,147.826 137.806,147.559C137.761,147.27 137.717,146.981 137.65,146.715C137.584,146.426 137.517,146.159 137.428,145.892C137.339,145.626 137.228,145.359 137.117,145.092C136.984,144.848 136.806,144.604 136.673,144.359C136.517,144.137 136.384,143.87 136.206,143.648C136.028,143.426 135.828,143.226 135.628,143.026C135.428,142.804 135.25,142.604 135.028,142.426C134.806,142.226 134.539,142.115 134.295,141.959C134.073,141.804 133.828,141.648 133.561,141.515C133.317,141.381 133.073,141.226 132.806,141.115C132.561,141.004 132.317,140.959 132.073,140.87C131.806,140.781 131.561,140.737 131.295,140.692C131.05,140.626 130.784,140.537 130.539,140.492C130.273,140.426 130.006,140.381 129.784,140.337C129.539,140.292 129.317,140.315 129.095,140.315C128.873,140.292 128.65,140.226 128.428,140.204C128.073,140.204 127.717,140.204 127.384,140.159L126.473,140.092C126.161,140.07 125.873,140.092 125.561,140.092C125.25,140.092 124.961,140.115 124.65,140.115C124.428,140.115 124.228,140.092 124.006,140.092C123.65,140.092 123.295,140.115 122.939,140.181L122.784,140.181C122.517,140.226 122.295,140.381 122.095,140.515C121.873,140.648 121.717,140.826 121.584,141.048C121.45,141.248 121.361,141.47 121.317,141.737C121.25,142.115 121.206,142.47 121.206,142.826C121.206,143.137 121.184,143.448 121.184,143.781L121.184,144.715C121.184,145.048 121.25,145.359 121.25,145.67C121.25,146.004 121.228,146.315 121.228,146.626C121.228,146.937 121.206,147.27 121.206,147.581C121.206,148.004 121.184,148.004 121.184,148.426L121.184,149.248C121.184,149.626 121.206,149.626 121.206,150.004L121.206,150.737C121.206,151.004 121.228,151.292 121.228,151.559L121.228,152.381C121.228,152.67 121.206,152.937 121.206,153.204L121.206,154.87C121.206,155.137 121.184,155.404 121.184,155.692ZM124.473,145.981C124.473,145.559 124.495,145.137 124.584,144.737C124.65,144.448 124.761,144.181 124.895,143.959C125.073,143.737 125.295,143.581 125.539,143.448C125.761,143.315 126.006,143.204 126.295,143.181C126.584,143.137 126.873,143.092 127.161,143.092C127.45,143.07 127.717,143.026 128.006,143.026C128.295,143.048 128.584,143.115 128.85,143.159C129.139,143.204 129.428,143.204 129.717,143.27L130.517,143.537C130.784,143.648 131.028,143.804 131.295,143.937C131.561,144.092 131.828,144.204 132.073,144.359C132.317,144.537 132.561,144.715 132.761,144.915C132.984,145.115 133.161,145.359 133.361,145.604C133.539,145.826 133.695,146.07 133.85,146.337C133.984,146.581 134.161,146.848 134.25,147.115C134.361,147.404 134.406,147.692 134.473,148.004C134.517,148.292 134.495,148.581 134.517,148.892C134.539,149.159 134.561,149.448 134.539,149.692C134.539,149.981 134.495,150.248 134.45,150.515C134.406,150.781 134.273,151.026 134.206,151.27C134.117,151.537 134.05,151.781 133.917,152.026C133.806,152.292 133.65,152.537 133.495,152.759C133.339,153.004 133.206,153.248 133.006,153.448C132.806,153.67 132.584,153.848 132.361,154.026C132.139,154.181 131.895,154.315 131.65,154.47C131.428,154.581 131.25,154.737 131.006,154.826C130.806,154.915 130.584,155.026 130.339,155.115C130.117,155.181 129.873,155.204 129.628,155.248C129.317,155.337 129.028,155.404 128.739,155.448C128.406,155.492 128.117,155.515 127.806,155.537C127.495,155.559 127.184,155.559 126.895,155.537C126.517,155.515 126.206,155.448 125.917,155.337C125.606,155.226 125.339,155.026 125.117,154.781C124.895,154.559 124.695,154.315 124.584,154.004C124.495,153.715 124.473,153.404 124.473,153.048C124.45,152.781 124.45,152.537 124.45,152.27C124.428,152.026 124.473,151.759 124.473,151.515C124.473,151.292 124.428,151.092 124.406,150.892C124.406,150.537 124.428,150.159 124.428,149.804C124.428,149.781 124.45,149.781 124.45,149.759C124.45,149.404 124.428,149.404 124.428,149.048C124.428,148.715 124.406,148.715 124.406,148.359C124.406,148.092 124.428,147.826 124.428,147.559C124.428,147.292 124.45,147.048 124.45,146.781C124.45,146.515 124.473,146.248 124.473,145.981Z" style="fill:white;fill-rule:nonzero;"/>
    </g>
    <g transform="matrix(0.76378,0,0,0.728481,-751.604,-674.143)">
        <g transform="matrix(1.15455,0,0,1.15455,998.597,913.529)">
            <circle cx="101" cy="111" r="55" style="fill:none;stroke:white;stroke-width:4.19px;"/>
        </g>
        <g transform="matrix(1,0,0,1,1002.71,929.183)">
            <path d="M81,126L144,126C144,126 132.787,147.032 112.5,147C92.343,146.968 81,126 81,126Z" style="fill:white;"/>
        </g>
        <g transform="matrix(1,0,0,1,1002.71,929.183)">
            <ellipse cx="90" cy="96.5" rx="9" ry="8.5" style="fill:white;"/>
        </g>
        <g transform="matrix(1,0,0,1,1047.71,929.183)">
            <ellipse cx="90" cy="96.5" rx="9" ry="8.5" style="fill:white;"/>
        </g>
    </g>
</svg>
