<?xml version="1.0" encoding="UTF-8" standalone="no"?>
<!DOCTYPE svg PUBLIC "-//W3C//DTD SVG 1.1//EN" "http://www.w3.org/Graphics/SVG/1.1/DTD/svg11.dtd">
<svg width="100%" height="100%" viewBox="0 0 200 200" version="1.1" xmlns="http://www.w3.org/2000/svg" xmlns:xlink="http://www.w3.org/1999/xlink" xml:space="preserve" style="fill-rule:evenodd;clip-rule:evenodd;stroke-linecap:round;stroke-linejoin:round;stroke-miterlimit:1.5;">
    <g transform="matrix(1,0,0,1,0,-4)">
        <rect x="-4" y="0" width="213" height="204" style="fill:rgb(103,58,183);"/>
    </g>
    <g transform="matrix(1,0,0,1,9.26079,11)">
        <path d="M44.117,158.204C44.361,158.204 44.606,158.115 44.828,158.004C45.184,157.781 45.406,157.404 45.517,156.959C45.606,156.626 45.673,156.27 45.673,155.915L45.673,155.092C45.673,154.804 45.628,154.537 45.628,154.248C45.628,153.981 45.673,153.692 45.673,153.404C45.673,153.137 45.65,152.848 45.65,152.581C45.65,152.292 45.628,152.026 45.628,151.737C45.628,151.47 45.606,151.181 45.606,150.892C45.606,150.359 45.673,150.359 45.673,149.804L45.673,148.759C45.673,148.248 45.628,148.248 45.628,147.715L45.628,146.915C45.628,146.626 45.673,146.359 45.673,146.092C45.673,145.826 45.628,145.559 45.628,145.27C45.628,144.159 45.873,142.87 45.584,141.781C45.05,139.67 42.05,139.559 40.517,140.67C39.806,141.181 39.428,142.004 39.161,142.826C38.784,143.959 38.384,145.07 38.006,146.204C37.895,146.492 37.828,146.826 37.717,147.115C37.606,147.47 37.584,147.47 37.45,147.804C37.339,148.159 37.361,148.159 37.228,148.515C37.117,148.87 37.073,148.848 36.961,149.204C36.85,149.515 36.717,149.781 36.584,150.004C36.406,150.27 36.228,150.492 36.006,150.692C35.761,150.915 35.517,150.981 35.273,151.004C35.028,151.004 34.761,150.937 34.539,150.715C34.339,150.559 34.206,150.337 34.073,150.115C33.939,149.915 33.806,149.692 33.717,149.426C33.606,149.159 33.473,148.915 33.384,148.626L33.05,147.826C32.361,145.937 31.828,144.026 31.095,142.159C30.939,141.759 30.761,141.359 30.495,141.026C29.495,139.826 26.65,139.604 25.517,140.715C24.984,141.204 24.806,141.959 24.761,142.692C24.717,143.715 24.784,144.737 24.784,145.737C24.784,146.026 24.806,146.337 24.806,146.626C24.806,146.915 24.828,147.204 24.828,147.492C24.828,147.781 24.806,148.092 24.806,148.381C24.806,148.67 24.784,148.959 24.784,149.248C24.784,149.537 24.739,149.848 24.739,150.137C24.739,150.426 24.828,150.715 24.828,151.004C24.828,151.292 24.739,151.604 24.739,151.892L24.739,152.759C24.739,153.048 24.784,153.359 24.784,153.648C24.784,153.937 24.761,154.226 24.761,154.515C24.761,154.804 24.828,155.115 24.828,155.404C24.828,155.648 24.806,155.915 24.85,156.159C24.873,156.426 24.895,156.67 24.961,156.937C25.05,157.315 25.25,157.604 25.517,157.804C25.806,158.026 26.117,158.181 26.495,158.159C26.873,158.159 27.161,157.981 27.406,157.759C27.65,157.537 27.806,157.248 27.873,156.892C27.939,156.581 28.028,156.27 28.028,155.959C28.028,155.648 27.984,155.337 27.984,155.026C27.984,154.737 28.028,154.426 28.028,154.115C28.028,153.848 27.984,153.559 27.984,153.292C27.984,153.026 28.006,152.737 28.006,152.47C28.006,152.204 27.984,151.915 27.984,151.648C27.984,151.381 28.05,151.092 28.05,150.826C28.05,150.581 28.006,150.337 28.028,150.092C28.028,149.848 28.117,149.626 28.117,149.381L28.184,148.648C28.206,148.381 28.139,148.381 28.161,148.115C28.184,147.87 28.273,147.626 28.339,147.315C28.406,147.004 28.517,146.715 28.761,146.47C28.895,146.337 29.006,146.359 29.139,146.404C29.273,146.47 29.406,146.559 29.517,146.648C29.806,146.892 29.984,147.248 30.161,147.581C30.295,147.826 30.45,148.026 30.561,148.27C30.65,148.515 30.717,148.759 30.806,149.026L31.073,149.759C31.139,149.981 31.161,150.204 31.25,150.426L31.517,151.226C31.606,151.492 31.761,151.737 31.85,152.004C31.939,152.292 31.961,152.581 32.05,152.848C32.139,153.115 32.206,153.404 32.295,153.67C32.361,153.892 32.495,154.092 32.561,154.315C32.628,154.537 32.65,154.781 32.717,155.004C32.828,155.292 32.961,155.581 33.095,155.915C33.206,156.204 33.25,156.537 33.406,156.826C33.517,157.092 33.673,157.315 33.85,157.537C34.028,157.737 34.25,157.892 34.495,158.004C34.717,158.115 35.006,158.204 35.273,158.181C35.539,158.181 35.806,158.07 36.028,157.937C36.273,157.804 36.473,157.626 36.628,157.381C36.873,157.07 36.984,156.692 37.095,156.381C37.206,156.115 37.361,155.848 37.473,155.581C37.561,155.315 37.606,155.004 37.695,154.737C37.784,154.47 37.917,154.204 38.006,153.915C38.117,153.648 38.139,153.337 38.228,153.07C38.295,152.826 38.428,152.604 38.517,152.359C38.584,152.115 38.606,151.848 38.695,151.604C38.784,151.359 38.917,151.137 39.006,150.892C39.095,150.648 39.184,150.404 39.273,150.159L39.473,149.648C39.561,149.381 39.673,149.159 39.761,148.892C39.873,148.648 39.939,148.404 40.05,148.159C40.161,147.915 40.295,147.67 40.428,147.448C40.65,147.048 40.895,146.781 41.184,146.581C41.428,146.426 41.606,146.426 41.828,146.626C42.073,146.87 42.184,147.204 42.25,147.604C42.273,147.759 42.228,147.759 42.25,147.915C42.295,148.226 42.317,148.515 42.339,148.804C42.361,149.115 42.428,149.404 42.428,149.715L42.428,151.27C42.428,151.537 42.406,151.804 42.406,152.07C42.406,152.337 42.384,152.581 42.384,152.848C42.384,153.115 42.45,153.381 42.45,153.626L42.45,154.426C42.45,154.67 42.473,154.937 42.473,155.204C42.473,155.492 42.428,155.759 42.45,156.048C42.473,156.315 42.539,156.604 42.584,156.87C42.65,157.181 42.761,157.448 42.939,157.648C43.117,157.848 43.384,158.004 43.673,158.092C43.828,158.137 43.961,158.204 44.117,158.204Z" style="fill:white;fill-rule:nonzero;"/>
        <path d="M66.339,148.915C66.339,148.737 66.295,148.559 66.295,148.404C66.273,148.092 66.273,147.804 66.228,147.515C66.184,147.226 66.161,146.937 66.095,146.648C66.028,146.359 65.984,146.07 65.895,145.804C65.806,145.515 65.695,145.248 65.561,144.981C65.45,144.715 65.317,144.448 65.184,144.181C65.05,143.937 64.895,143.715 64.739,143.492C64.584,143.27 64.45,143.026 64.273,142.826C64.095,142.604 63.895,142.426 63.695,142.226C63.495,142.048 63.317,141.848 63.095,141.67C62.895,141.492 62.695,141.315 62.473,141.159C62.25,141.004 61.984,140.892 61.739,140.759C61.517,140.626 61.25,140.537 61.006,140.426C60.739,140.315 60.517,140.159 60.25,140.07C60.006,139.981 59.717,139.937 59.45,139.87C59.184,139.804 58.895,139.759 58.628,139.715C58.339,139.67 58.05,139.626 57.761,139.604C57.495,139.559 57.206,139.47 56.917,139.448C56.628,139.448 56.339,139.47 56.073,139.47C55.784,139.492 55.495,139.537 55.206,139.581C54.939,139.604 54.628,139.581 54.361,139.648C54.073,139.692 53.784,139.737 53.517,139.804C53.228,139.87 52.961,139.981 52.695,140.07C52.428,140.181 52.139,140.248 51.895,140.381C51.628,140.492 51.384,140.648 51.139,140.781C50.895,140.937 50.65,141.115 50.428,141.27C50.184,141.448 49.917,141.604 49.695,141.781C49.473,141.981 49.25,142.204 49.05,142.426C48.85,142.626 48.695,142.892 48.517,143.137C48.339,143.359 48.095,143.559 47.939,143.826C47.784,144.07 47.695,144.359 47.584,144.626C47.45,144.892 47.339,145.181 47.25,145.47C47.139,145.737 47.05,146.026 46.984,146.315C46.917,146.604 46.784,146.87 46.739,147.181C46.695,147.426 46.673,147.67 46.65,147.937C46.628,148.181 46.628,148.448 46.628,148.715C46.606,148.959 46.606,149.204 46.606,149.47C46.606,149.715 46.65,149.981 46.673,150.248C46.695,150.537 46.717,150.826 46.761,151.092C46.806,151.381 46.895,151.67 46.961,151.937C47.028,152.226 47.117,152.515 47.206,152.781C47.317,153.048 47.406,153.315 47.517,153.581C47.65,153.848 47.784,154.092 47.939,154.337C48.095,154.604 48.25,154.848 48.428,155.07C48.606,155.315 48.828,155.515 49.028,155.715C49.228,155.937 49.384,156.181 49.606,156.381C49.806,156.581 50.073,156.715 50.317,156.892L51.05,157.359C51.317,157.492 51.539,157.692 51.806,157.804C52.073,157.915 52.361,158.004 52.628,158.092C52.895,158.181 53.184,158.248 53.473,158.315C53.717,158.381 53.961,158.448 54.228,158.492C54.473,158.537 54.717,158.559 54.984,158.581L55.739,158.648C55.984,158.67 56.228,158.67 56.495,158.67C56.895,158.67 57.295,158.67 57.695,158.626C58.006,158.604 58.295,158.581 58.584,158.537C58.895,158.47 59.184,158.381 59.45,158.315C59.761,158.248 60.05,158.204 60.339,158.115C60.628,158.026 60.917,157.915 61.184,157.804C61.45,157.67 61.717,157.537 61.984,157.381C62.228,157.226 62.473,157.026 62.695,156.848C62.939,156.67 63.184,156.492 63.406,156.292C63.606,156.137 63.761,155.915 63.939,155.737C64.117,155.559 64.273,155.337 64.428,155.137C64.584,154.937 64.717,154.737 64.85,154.515C65.006,154.315 65.117,154.092 65.228,153.848C65.361,153.604 65.517,153.381 65.628,153.137C65.717,152.892 65.784,152.626 65.873,152.381C65.939,152.115 66.05,151.87 66.095,151.604C66.161,151.337 66.228,151.07 66.273,150.804C66.295,150.537 66.317,150.27 66.317,150.004C66.339,149.737 66.361,149.448 66.339,149.181L66.339,148.915ZM62.561,151.515C62.45,151.804 62.361,152.115 62.228,152.381C62.073,152.67 61.917,152.937 61.739,153.181C61.561,153.426 61.361,153.67 61.139,153.892C60.939,154.115 60.695,154.292 60.45,154.492C60.206,154.67 59.939,154.848 59.673,155.004C59.406,155.159 59.117,155.27 58.828,155.381C58.539,155.492 58.25,155.581 57.939,155.648C57.65,155.715 57.339,155.737 57.05,155.759C56.739,155.781 56.428,155.826 56.139,155.804C55.828,155.781 55.539,155.737 55.228,155.67C54.939,155.626 54.65,155.515 54.361,155.426C54.073,155.337 53.784,155.248 53.517,155.115C53.273,155.004 53.028,154.915 52.806,154.759C52.584,154.626 52.428,154.404 52.228,154.226C52.028,154.048 51.806,153.915 51.65,153.692C51.473,153.515 51.295,153.315 51.161,153.07C50.984,152.826 50.85,152.559 50.717,152.292C50.584,152.026 50.517,151.715 50.428,151.426C50.317,151.137 50.228,150.87 50.161,150.581C50.095,150.292 50.006,150.004 49.984,149.692C49.961,149.404 50.006,149.092 50.006,148.804C50.028,148.492 50.073,148.204 50.117,147.915C50.184,147.626 50.228,147.315 50.317,147.026C50.406,146.759 50.539,146.47 50.673,146.204C50.784,145.937 50.917,145.67 51.05,145.404C51.206,145.115 51.361,144.848 51.561,144.626C51.739,144.381 51.984,144.204 52.206,144.004C52.428,143.804 52.673,143.604 52.917,143.426C53.184,143.27 53.428,143.092 53.717,142.959C53.984,142.848 54.295,142.826 54.606,142.737C54.873,142.67 55.139,142.537 55.45,142.47C55.739,142.426 56.028,142.381 56.339,142.381C56.361,142.381 56.406,142.381 56.45,142.381L56.45,142.448C56.739,142.448 57.006,142.47 57.273,142.492C57.561,142.537 57.828,142.559 58.095,142.626C58.361,142.67 58.606,142.781 58.873,142.87C59.139,142.959 59.384,143.048 59.628,143.181C59.873,143.315 60.095,143.47 60.317,143.626C60.539,143.781 60.761,143.959 60.961,144.159C61.161,144.337 61.317,144.537 61.495,144.737C61.65,144.937 61.784,145.159 61.917,145.381C62.05,145.604 62.184,145.848 62.295,146.07L62.561,146.826C62.628,147.07 62.761,147.292 62.806,147.559C62.873,147.826 62.85,148.092 62.895,148.359C62.917,148.626 63.006,148.892 63.006,149.159C63.006,149.426 63.006,149.692 62.961,149.959C62.939,150.226 62.828,150.47 62.761,150.737C62.695,151.004 62.65,151.248 62.561,151.515Z" style="fill:white;fill-rule:nonzero;"/>
        <path d="M86.961,148.915C86.961,148.737 86.917,148.559 86.917,148.404C86.895,148.092 86.895,147.804 86.85,147.515C86.806,147.226 86.784,146.937 86.717,146.648C86.65,146.359 86.606,146.07 86.517,145.804C86.428,145.515 86.317,145.248 86.184,144.981C86.073,144.715 85.939,144.448 85.806,144.181C85.673,143.937 85.517,143.715 85.361,143.492C85.206,143.27 85.073,143.026 84.895,142.826C84.717,142.604 84.517,142.426 84.317,142.226C84.117,142.048 83.939,141.848 83.717,141.67C83.517,141.492 83.317,141.315 83.095,141.159C82.873,141.004 82.606,140.892 82.361,140.759C82.139,140.626 81.873,140.537 81.628,140.426C81.361,140.315 81.139,140.159 80.873,140.07C80.628,139.981 80.339,139.937 80.073,139.87C79.806,139.804 79.517,139.759 79.25,139.715C78.961,139.67 78.673,139.626 78.384,139.604C78.117,139.559 77.828,139.47 77.539,139.448C77.25,139.448 76.961,139.47 76.695,139.47C76.406,139.492 76.117,139.537 75.828,139.581C75.561,139.604 75.25,139.581 74.984,139.648C74.695,139.692 74.406,139.737 74.139,139.804C73.85,139.87 73.584,139.981 73.317,140.07C73.05,140.181 72.761,140.248 72.517,140.381C72.25,140.492 72.006,140.648 71.761,140.781C71.517,140.937 71.273,141.115 71.05,141.27C70.806,141.448 70.539,141.604 70.317,141.781C70.095,141.981 69.873,142.204 69.673,142.426C69.473,142.626 69.317,142.892 69.139,143.137C68.961,143.359 68.717,143.559 68.561,143.826C68.406,144.07 68.317,144.359 68.206,144.626C68.073,144.892 67.961,145.181 67.873,145.47C67.761,145.737 67.673,146.026 67.606,146.315C67.539,146.604 67.406,146.87 67.361,147.181C67.317,147.426 67.295,147.67 67.273,147.937C67.25,148.181 67.25,148.448 67.25,148.715C67.228,148.959 67.228,149.204 67.228,149.47C67.228,149.715 67.273,149.981 67.295,150.248C67.317,150.537 67.339,150.826 67.384,151.092C67.428,151.381 67.517,151.67 67.584,151.937C67.65,152.226 67.739,152.515 67.828,152.781C67.939,153.048 68.028,153.315 68.139,153.581C68.273,153.848 68.406,154.092 68.561,154.337C68.717,154.604 68.873,154.848 69.05,155.07C69.228,155.315 69.45,155.515 69.65,155.715C69.85,155.937 70.006,156.181 70.228,156.381C70.428,156.581 70.695,156.715 70.939,156.892L71.673,157.359C71.939,157.492 72.161,157.692 72.428,157.804C72.695,157.915 72.984,158.004 73.25,158.092C73.517,158.181 73.806,158.248 74.095,158.315C74.339,158.381 74.584,158.448 74.85,158.492C75.095,158.537 75.339,158.559 75.606,158.581L76.361,158.648C76.606,158.67 76.85,158.67 77.117,158.67C77.517,158.67 77.917,158.67 78.317,158.626C78.628,158.604 78.917,158.581 79.206,158.537C79.517,158.47 79.806,158.381 80.073,158.315C80.384,158.248 80.673,158.204 80.961,158.115C81.25,158.026 81.539,157.915 81.806,157.804C82.073,157.67 82.339,157.537 82.606,157.381C82.85,157.226 83.095,157.026 83.317,156.848C83.561,156.67 83.806,156.492 84.028,156.292C84.228,156.137 84.384,155.915 84.561,155.737C84.739,155.559 84.895,155.337 85.05,155.137C85.206,154.937 85.339,154.737 85.473,154.515C85.628,154.315 85.739,154.092 85.85,153.848C85.984,153.604 86.139,153.381 86.25,153.137C86.339,152.892 86.406,152.626 86.495,152.381C86.561,152.115 86.673,151.87 86.717,151.604C86.784,151.337 86.85,151.07 86.895,150.804C86.917,150.537 86.939,150.27 86.939,150.004C86.961,149.737 86.984,149.448 86.961,149.181L86.961,148.915ZM83.184,151.515C83.073,151.804 82.984,152.115 82.85,152.381C82.695,152.67 82.539,152.937 82.361,153.181C82.184,153.426 81.984,153.67 81.761,153.892C81.561,154.115 81.317,154.292 81.073,154.492C80.828,154.67 80.561,154.848 80.295,155.004C80.028,155.159 79.739,155.27 79.45,155.381C79.161,155.492 78.873,155.581 78.561,155.648C78.273,155.715 77.961,155.737 77.673,155.759C77.361,155.781 77.05,155.826 76.761,155.804C76.45,155.781 76.161,155.737 75.85,155.67C75.561,155.626 75.273,155.515 74.984,155.426C74.695,155.337 74.406,155.248 74.139,155.115C73.895,155.004 73.65,154.915 73.428,154.759C73.206,154.626 73.05,154.404 72.85,154.226C72.65,154.048 72.428,153.915 72.273,153.692C72.095,153.515 71.917,153.315 71.784,153.07C71.606,152.826 71.473,152.559 71.339,152.292C71.206,152.026 71.139,151.715 71.05,151.426C70.939,151.137 70.85,150.87 70.784,150.581C70.717,150.292 70.628,150.004 70.606,149.692C70.584,149.404 70.628,149.092 70.628,148.804C70.65,148.492 70.695,148.204 70.739,147.915C70.806,147.626 70.85,147.315 70.939,147.026C71.028,146.759 71.161,146.47 71.295,146.204C71.406,145.937 71.539,145.67 71.673,145.404C71.828,145.115 71.984,144.848 72.184,144.626C72.361,144.381 72.606,144.204 72.828,144.004C73.05,143.804 73.295,143.604 73.539,143.426C73.806,143.27 74.05,143.092 74.339,142.959C74.606,142.848 74.917,142.826 75.228,142.737C75.495,142.67 75.761,142.537 76.073,142.47C76.361,142.426 76.65,142.381 76.961,142.381C76.984,142.381 77.028,142.381 77.073,142.381L77.073,142.448C77.361,142.448 77.628,142.47 77.895,142.492C78.184,142.537 78.45,142.559 78.717,142.626C78.984,142.67 79.228,142.781 79.495,142.87C79.761,142.959 80.006,143.048 80.25,143.181C80.495,143.315 80.717,143.47 80.939,143.626C81.161,143.781 81.384,143.959 81.584,144.159C81.784,144.337 81.939,144.537 82.117,144.737C82.273,144.937 82.406,145.159 82.539,145.381C82.673,145.604 82.806,145.848 82.917,146.07L83.184,146.826C83.25,147.07 83.384,147.292 83.428,147.559C83.495,147.826 83.473,148.092 83.517,148.359C83.539,148.626 83.628,148.892 83.628,149.159C83.628,149.426 83.628,149.692 83.584,149.959C83.561,150.226 83.45,150.47 83.384,150.737C83.317,151.004 83.273,151.248 83.184,151.515Z" style="fill:white;fill-rule:nonzero;"/>
        <path d="M87.85,155.692C87.85,156.048 87.895,156.404 87.961,156.759C88.006,157.048 88.117,157.292 88.25,157.515C88.384,157.759 88.539,157.981 88.784,158.115C88.984,158.27 89.25,158.359 89.539,158.426C89.761,158.47 90.006,158.47 90.206,158.47C90.473,158.47 90.761,158.404 91.028,158.404C91.295,158.404 91.561,158.47 91.828,158.47C92.161,158.47 92.517,158.426 92.85,158.426L93.85,158.426C94.184,158.426 94.517,158.47 94.828,158.448C95.161,158.426 95.495,158.359 95.828,158.315C96.117,158.27 96.406,158.248 96.673,158.181C96.961,158.137 97.25,158.115 97.539,158.048C97.806,157.981 98.095,157.892 98.361,157.804C98.65,157.715 98.895,157.537 99.139,157.426C99.428,157.315 99.673,157.204 99.939,157.07C100.184,156.937 100.45,156.826 100.695,156.67C100.961,156.515 101.184,156.315 101.406,156.115C101.65,155.937 101.873,155.737 102.095,155.537C102.295,155.337 102.539,155.159 102.739,154.915C102.939,154.692 103.095,154.448 103.273,154.204C103.428,153.937 103.584,153.692 103.717,153.426C103.85,153.159 103.939,152.87 104.05,152.581C104.161,152.315 104.25,152.026 104.339,151.737C104.406,151.448 104.495,151.159 104.539,150.87C104.584,150.604 104.561,150.359 104.561,150.092C104.584,149.848 104.561,149.604 104.561,149.337C104.539,149.092 104.584,148.826 104.561,148.581L104.561,148.404C104.539,148.115 104.517,147.826 104.473,147.559C104.428,147.27 104.384,146.981 104.317,146.715C104.25,146.426 104.184,146.159 104.095,145.892C104.006,145.626 103.895,145.359 103.784,145.092C103.65,144.848 103.473,144.604 103.339,144.359C103.184,144.137 103.05,143.87 102.873,143.648C102.695,143.426 102.495,143.226 102.295,143.026C102.095,142.804 101.917,142.604 101.695,142.426C101.473,142.226 101.206,142.115 100.961,141.959C100.739,141.804 100.495,141.648 100.228,141.515C99.984,141.381 99.739,141.226 99.473,141.115C99.228,141.004 98.984,140.959 98.739,140.87C98.473,140.781 98.228,140.737 97.961,140.692C97.717,140.626 97.45,140.537 97.206,140.492C96.939,140.426 96.673,140.381 96.45,140.337C96.206,140.292 95.984,140.315 95.761,140.315C95.539,140.292 95.317,140.226 95.095,140.204C94.739,140.204 94.384,140.204 94.05,140.159L93.139,140.092C92.828,140.07 92.539,140.092 92.228,140.092C91.917,140.092 91.628,140.115 91.317,140.115C91.095,140.115 90.895,140.092 90.673,140.092C90.317,140.092 89.961,140.115 89.606,140.181L89.45,140.181C89.184,140.226 88.961,140.381 88.761,140.515C88.539,140.648 88.384,140.826 88.25,141.048C88.117,141.248 88.028,141.47 87.984,141.737C87.917,142.115 87.873,142.47 87.873,142.826C87.873,143.137 87.85,143.448 87.85,143.781L87.85,144.715C87.85,145.048 87.917,145.359 87.917,145.67C87.917,146.004 87.895,146.315 87.895,146.626C87.895,146.937 87.873,147.27 87.873,147.581C87.873,148.004 87.85,148.004 87.85,148.426L87.85,149.248C87.85,149.626 87.873,149.626 87.873,150.004L87.873,150.737C87.873,151.004 87.895,151.292 87.895,151.559L87.895,152.381C87.895,152.67 87.873,152.937 87.873,153.204L87.873,154.87C87.873,155.137 87.85,155.404 87.85,155.692ZM91.139,145.981C91.139,145.559 91.161,145.137 91.25,144.737C91.317,144.448 91.428,144.181 91.561,143.959C91.739,143.737 91.961,143.581 92.206,143.448C92.428,143.315 92.673,143.204 92.961,143.181C93.25,143.137 93.539,143.092 93.828,143.092C94.117,143.07 94.384,143.026 94.673,143.026C94.961,143.048 95.25,143.115 95.517,143.159C95.806,143.204 96.095,143.204 96.384,143.27L97.184,143.537C97.45,143.648 97.695,143.804 97.961,143.937C98.228,144.092 98.495,144.204 98.739,144.359C98.984,144.537 99.228,144.715 99.428,144.915C99.65,145.115 99.828,145.359 100.028,145.604C100.206,145.826 100.361,146.07 100.517,146.337C100.65,146.581 100.828,146.848 100.917,147.115C101.028,147.404 101.073,147.692 101.139,148.004C101.184,148.292 101.161,148.581 101.184,148.892C101.206,149.159 101.228,149.448 101.206,149.692C101.206,149.981 101.161,150.248 101.117,150.515C101.073,150.781 100.939,151.026 100.873,151.27C100.784,151.537 100.717,151.781 100.584,152.026C100.473,152.292 100.317,152.537 100.161,152.759C100.006,153.004 99.873,153.248 99.673,153.448C99.473,153.67 99.25,153.848 99.028,154.026C98.806,154.181 98.561,154.315 98.317,154.47C98.095,154.581 97.917,154.737 97.673,154.826C97.473,154.915 97.25,155.026 97.006,155.115C96.784,155.181 96.539,155.204 96.295,155.248C95.984,155.337 95.695,155.404 95.406,155.448C95.073,155.492 94.784,155.515 94.473,155.537C94.161,155.559 93.85,155.559 93.561,155.537C93.184,155.515 92.873,155.448 92.584,155.337C92.273,155.226 92.006,155.026 91.784,154.781C91.561,154.559 91.361,154.315 91.25,154.004C91.161,153.715 91.139,153.404 91.139,153.048C91.117,152.781 91.117,152.537 91.117,152.27C91.095,152.026 91.139,151.759 91.139,151.515C91.139,151.292 91.095,151.092 91.073,150.892C91.073,150.537 91.095,150.159 91.095,149.804C91.095,149.781 91.117,149.781 91.117,149.759C91.117,149.404 91.095,149.404 91.095,149.048C91.095,148.715 91.073,148.715 91.073,148.359C91.073,148.092 91.095,147.826 91.095,147.559C91.095,147.292 91.117,147.048 91.117,146.781C91.117,146.515 91.139,146.248 91.139,145.981Z" style="fill:white;fill-rule:nonzero;"/>
        <path d="M124.828,158.204C125.073,158.204 125.317,158.115 125.539,158.004C125.895,157.781 126.117,157.404 126.228,156.959C126.317,156.626 126.384,156.27 126.384,155.915L126.384,155.092C126.384,154.804 126.339,154.537 126.339,154.248C126.339,153.981 126.384,153.692 126.384,153.404C126.384,153.137 126.361,152.848 126.361,152.581C126.361,152.292 126.339,152.026 126.339,151.737C126.339,151.47 126.317,151.181 126.317,150.892C126.317,150.359 126.384,150.359 126.384,149.804L126.384,148.759C126.384,148.248 126.339,148.248 126.339,147.715L126.339,146.915C126.339,146.626 126.384,146.359 126.384,146.092C126.384,145.826 126.339,145.559 126.339,145.27C126.339,144.159 126.584,142.87 126.295,141.781C125.761,139.67 122.761,139.559 121.228,140.67C120.517,141.181 120.139,142.004 119.873,142.826C119.495,143.959 119.095,145.07 118.717,146.204C118.606,146.492 118.539,146.826 118.428,147.115C118.317,147.47 118.295,147.47 118.161,147.804C118.05,148.159 118.073,148.159 117.939,148.515C117.828,148.87 117.784,148.848 117.673,149.204C117.561,149.515 117.428,149.781 117.295,150.004C117.117,150.27 116.939,150.492 116.717,150.692C116.473,150.915 116.228,150.981 115.984,151.004C115.739,151.004 115.473,150.937 115.25,150.715C115.05,150.559 114.917,150.337 114.784,150.115C114.65,149.915 114.517,149.692 114.428,149.426C114.317,149.159 114.184,148.915 114.095,148.626L113.761,147.826C113.073,145.937 112.539,144.026 111.806,142.159C111.65,141.759 111.473,141.359 111.206,141.026C110.206,139.826 107.361,139.604 106.228,140.715C105.695,141.204 105.517,141.959 105.473,142.692C105.428,143.715 105.495,144.737 105.495,145.737C105.495,146.026 105.517,146.337 105.517,146.626C105.517,146.915 105.539,147.204 105.539,147.492C105.539,147.781 105.517,148.092 105.517,148.381C105.517,148.67 105.495,148.959 105.495,149.248C105.495,149.537 105.45,149.848 105.45,150.137C105.45,150.426 105.539,150.715 105.539,151.004C105.539,151.292 105.45,151.604 105.45,151.892L105.45,152.759C105.45,153.048 105.495,153.359 105.495,153.648C105.495,153.937 105.473,154.226 105.473,154.515C105.473,154.804 105.539,155.115 105.539,155.404C105.539,155.648 105.517,155.915 105.561,156.159C105.584,156.426 105.606,156.67 105.673,156.937C105.761,157.315 105.961,157.604 106.228,157.804C106.517,158.026 106.828,158.181 107.206,158.159C107.584,158.159 107.873,157.981 108.117,157.759C108.361,157.537 108.517,157.248 108.584,156.892C108.65,156.581 108.739,156.27 108.739,155.959C108.739,155.648 108.695,155.337 108.695,155.026C108.695,154.737 108.739,154.426 108.739,154.115C108.739,153.848 108.695,153.559 108.695,153.292C108.695,153.026 108.717,152.737 108.717,152.47C108.717,152.204 108.695,151.915 108.695,151.648C108.695,151.381 108.761,151.092 108.761,150.826C108.761,150.581 108.717,150.337 108.739,150.092C108.739,149.848 108.828,149.626 108.828,149.381L108.895,148.648C108.917,148.381 108.85,148.381 108.873,148.115C108.895,147.87 108.984,147.626 109.05,147.315C109.117,147.004 109.228,146.715 109.473,146.47C109.606,146.337 109.717,146.359 109.85,146.404C109.984,146.47 110.117,146.559 110.228,146.648C110.517,146.892 110.695,147.248 110.873,147.581C111.006,147.826 111.161,148.026 111.273,148.27C111.361,148.515 111.428,148.759 111.517,149.026L111.784,149.759C111.85,149.981 111.873,150.204 111.961,150.426L112.228,151.226C112.317,151.492 112.473,151.737 112.561,152.004C112.65,152.292 112.673,152.581 112.761,152.848C112.85,153.115 112.917,153.404 113.006,153.67C113.073,153.892 113.206,154.092 113.273,154.315C113.339,154.537 113.361,154.781 113.428,155.004C113.539,155.292 113.673,155.581 113.806,155.915C113.917,156.204 113.961,156.537 114.117,156.826C114.228,157.092 114.384,157.315 114.561,157.537C114.739,157.737 114.961,157.892 115.206,158.004C115.428,158.115 115.717,158.204 115.984,158.181C116.25,158.181 116.517,158.07 116.739,157.937C116.984,157.804 117.184,157.626 117.339,157.381C117.584,157.07 117.695,156.692 117.806,156.381C117.917,156.115 118.073,155.848 118.184,155.581C118.273,155.315 118.317,155.004 118.406,154.737C118.495,154.47 118.628,154.204 118.717,153.915C118.828,153.648 118.85,153.337 118.939,153.07C119.006,152.826 119.139,152.604 119.228,152.359C119.295,152.115 119.317,151.848 119.406,151.604C119.495,151.359 119.628,151.137 119.717,150.892C119.806,150.648 119.895,150.404 119.984,150.159L120.184,149.648C120.273,149.381 120.384,149.159 120.473,148.892C120.584,148.648 120.65,148.404 120.761,148.159C120.873,147.915 121.006,147.67 121.139,147.448C121.361,147.048 121.606,146.781 121.895,146.581C122.139,146.426 122.317,146.426 122.539,146.626C122.784,146.87 122.895,147.204 122.961,147.604C122.984,147.759 122.939,147.759 122.961,147.915C123.006,148.226 123.028,148.515 123.05,148.804C123.073,149.115 123.139,149.404 123.139,149.715L123.139,151.27C123.139,151.537 123.117,151.804 123.117,152.07C123.117,152.337 123.095,152.581 123.095,152.848C123.095,153.115 123.161,153.381 123.161,153.626L123.161,154.426C123.161,154.67 123.184,154.937 123.184,155.204C123.184,155.492 123.139,155.759 123.161,156.048C123.184,156.315 123.25,156.604 123.295,156.87C123.361,157.181 123.473,157.448 123.65,157.648C123.828,157.848 124.095,158.004 124.384,158.092C124.539,158.137 124.673,158.204 124.828,158.204Z" style="fill:white;fill-rule:nonzero;"/>
        <path d="M144.184,156.092C144.095,155.848 143.984,155.604 143.895,155.381C143.784,155.115 143.584,154.87 143.45,154.604C143.339,154.359 143.25,154.115 143.161,153.892C143.05,153.648 142.939,153.426 142.85,153.181C142.739,152.915 142.673,152.604 142.561,152.337C142.45,152.048 142.295,151.804 142.161,151.515L141.828,150.692C141.695,150.426 141.561,150.181 141.45,149.915C141.317,149.648 141.228,149.381 141.117,149.115C141.006,148.87 140.917,148.604 140.806,148.337C140.717,148.092 140.584,147.826 140.473,147.581C140.361,147.315 140.273,147.048 140.161,146.804C140.05,146.537 139.917,146.292 139.806,146.048C139.695,145.781 139.65,145.515 139.539,145.248C139.428,145.004 139.295,144.759 139.184,144.492C139.073,144.27 138.984,144.026 138.873,143.804C138.784,143.559 138.628,143.359 138.539,143.115L138.206,142.426C138.095,142.159 138.006,141.892 137.873,141.67C137.717,141.426 137.561,141.204 137.384,141.004C137.184,140.781 136.917,140.648 136.673,140.515C136.428,140.381 136.161,140.292 135.85,140.27C135.561,140.27 135.273,140.292 135.006,140.404C134.739,140.515 134.495,140.67 134.273,140.892C134.006,141.159 133.784,141.515 133.606,141.915C133.495,142.159 133.406,142.404 133.295,142.648L132.939,143.381C132.85,143.604 132.761,143.826 132.65,144.026C132.561,144.248 132.495,144.492 132.406,144.692C132.295,144.937 132.206,145.181 132.095,145.426C132.006,145.648 131.895,145.892 131.784,146.115C131.673,146.359 131.561,146.581 131.473,146.826C131.361,147.048 131.295,147.248 131.206,147.47C131.095,147.67 131.006,147.892 130.917,148.092C130.806,148.315 130.65,148.537 130.539,148.781C130.45,149.004 130.384,149.27 130.273,149.515C130.184,149.737 130.028,149.959 129.939,150.204C129.85,150.47 129.739,150.737 129.628,150.981C129.517,151.248 129.45,151.537 129.339,151.804L128.984,152.559C128.873,152.826 128.717,153.07 128.606,153.337C128.473,153.626 128.406,153.937 128.273,154.226C128.139,154.537 127.984,154.804 127.85,155.092C127.761,155.337 127.65,155.581 127.561,155.826C127.473,156.07 127.428,156.337 127.361,156.604C127.295,156.848 127.295,157.092 127.361,157.315C127.406,157.537 127.495,157.759 127.673,157.937C127.873,158.092 128.095,158.226 128.339,158.27C128.584,158.292 128.828,158.248 129.095,158.159C129.339,158.092 129.584,158.026 129.761,157.892C129.961,157.737 130.161,157.559 130.273,157.359C130.406,157.159 130.539,156.959 130.673,156.715C130.784,156.537 130.828,156.292 130.961,156.048C131.095,155.804 131.317,155.626 131.473,155.448C131.65,155.226 131.828,155.048 132.05,154.892C132.25,154.759 132.495,154.648 132.761,154.581C133.006,154.492 133.25,154.404 133.517,154.381C133.806,154.381 134.117,154.337 134.406,154.337C134.695,154.315 134.984,154.404 135.295,154.381C135.584,154.381 135.873,154.315 136.161,154.315C136.473,154.315 136.761,154.381 137.05,154.404C137.339,154.404 137.65,154.426 137.939,154.426C138.273,154.448 138.561,154.537 138.85,154.648C139.139,154.759 139.45,154.848 139.695,155.048C139.917,155.248 140.117,155.515 140.295,155.781L140.295,155.826C140.473,156.092 140.606,156.359 140.739,156.626C140.85,156.892 140.984,157.115 141.139,157.292C141.317,157.515 141.561,157.648 141.739,157.804C141.917,157.959 142.05,158.137 142.25,158.204C142.473,158.292 142.695,158.292 142.917,158.292C142.961,158.292 143.006,158.337 143.028,158.315C143.428,158.292 143.739,158.115 143.961,157.87C144.184,157.626 144.295,157.292 144.295,156.892C144.295,156.87 144.339,156.87 144.339,156.848C144.317,156.604 144.25,156.337 144.184,156.092ZM137.761,150.137C137.761,150.492 137.739,150.781 137.584,151.004C137.428,151.248 137.184,151.404 136.85,151.537C136.495,151.715 136.073,151.804 135.673,151.781L135.673,151.737C135.673,151.737 135.673,151.804 135.65,151.804C135.228,151.804 134.895,151.737 134.606,151.604C134.228,151.47 133.917,151.27 133.739,151.004C133.561,150.715 133.473,150.359 133.473,149.959C133.473,149.67 133.539,149.359 133.628,149.026C133.717,148.737 133.806,148.448 133.939,148.137C134.073,147.892 134.206,147.648 134.361,147.404C134.495,147.181 134.628,146.937 134.828,146.737C135.139,146.426 135.473,146.426 135.717,146.448C136.05,146.47 136.339,146.604 136.539,146.87C136.761,147.159 136.939,147.448 137.095,147.737C137.273,148.048 137.45,148.337 137.561,148.67C137.65,148.937 137.717,149.159 137.761,149.381C137.806,149.648 137.761,149.892 137.761,150.137Z" style="fill:white;fill-rule:nonzero;"/>
        <path d="M156.984,141.426C156.717,141.204 156.495,140.959 156.206,140.804C155.917,140.648 155.584,140.559 155.273,140.448C154.961,140.337 154.65,140.226 154.317,140.159C154.05,140.137 153.761,140.137 153.495,140.115C153.228,140.092 152.939,140.026 152.673,140.026C152.539,140.026 152.406,140.07 152.273,140.07C151.828,140.07 151.406,140.115 150.984,140.07C150.695,140.026 150.384,140.004 150.095,139.981C149.784,139.959 149.473,139.959 149.184,139.959C148.873,139.959 148.584,139.915 148.273,139.915C148.095,139.915 148.095,140.004 147.917,140.004C147.561,140.004 147.206,140.048 146.895,140.115C146.628,140.159 146.428,140.27 146.228,140.381C146.028,140.515 145.85,140.692 145.717,140.892C145.584,141.07 145.517,141.315 145.45,141.559C145.384,141.804 145.317,142.07 145.273,142.359C145.25,142.604 145.228,142.87 145.228,143.159C145.25,143.448 145.228,143.715 145.228,143.981C145.228,144.27 145.25,144.537 145.25,144.804C145.25,145.092 145.273,145.359 145.273,145.648C145.273,145.915 145.228,146.181 145.228,146.47C145.228,146.737 145.273,147.026 145.273,147.292C145.273,147.715 145.317,147.715 145.317,148.159C145.317,148.581 145.25,148.581 145.25,149.004L145.25,149.804C145.25,150.204 145.273,150.204 145.273,150.604L145.273,151.492C145.273,151.781 145.25,152.092 145.25,152.381C145.25,152.692 145.295,152.981 145.295,153.292C145.295,153.581 145.25,153.87 145.25,154.181C145.25,154.47 145.228,154.781 145.228,155.07C145.228,155.359 145.25,155.648 145.295,155.959C145.317,156.226 145.384,156.492 145.45,156.804C145.517,157.159 145.739,157.448 145.984,157.67C146.25,157.87 146.561,158.048 146.917,158.048C146.939,158.048 146.939,158.026 146.939,158.026C147.295,158.026 147.628,157.959 147.873,157.759C148.095,157.581 148.25,157.27 148.361,156.937C148.473,156.581 148.517,156.248 148.517,155.937C148.517,155.826 148.45,155.826 148.45,155.715C148.45,155.47 148.517,155.204 148.517,154.959C148.517,154.692 148.495,154.448 148.495,154.204C148.495,153.892 148.45,153.604 148.495,153.315C148.539,153.026 148.673,152.759 148.739,152.47C148.828,152.159 148.917,151.915 149.05,151.692C149.206,151.448 149.384,151.226 149.628,151.07C149.85,150.937 150.117,150.848 150.406,150.781C150.695,150.715 151.006,150.692 151.295,150.692C151.584,150.67 151.873,150.67 152.184,150.648L152.206,150.648C152.473,150.648 152.761,150.604 153.028,150.581C153.317,150.559 153.584,150.559 153.873,150.537C154.139,150.492 154.428,150.492 154.695,150.426C154.961,150.359 155.228,150.27 155.495,150.159C155.761,150.07 156.028,149.937 156.273,149.804C156.539,149.67 156.784,149.515 157.006,149.359C157.228,149.159 157.406,148.937 157.584,148.715C157.761,148.492 157.961,148.292 158.117,148.026C158.25,147.781 158.339,147.515 158.428,147.226C158.517,146.959 158.561,146.692 158.606,146.381C158.65,146.137 158.717,145.892 158.717,145.626C158.739,145.381 158.739,145.115 158.717,144.87C158.717,144.604 158.65,144.359 158.606,144.092C158.561,143.826 158.495,143.581 158.406,143.315C158.317,143.07 158.228,142.804 158.095,142.581C157.961,142.359 157.806,142.115 157.628,141.915C157.45,141.715 157.206,141.604 156.984,141.426ZM155.117,145.692C155.095,145.959 154.939,146.204 154.85,146.426C154.739,146.648 154.628,146.892 154.428,147.07C154.25,147.248 154.028,147.359 153.784,147.492C153.539,147.626 153.339,147.781 153.095,147.87C152.828,147.959 152.561,147.981 152.317,148.026C152.05,148.092 151.806,148.137 151.539,148.159C151.273,148.159 151.006,148.181 150.739,148.137C150.495,148.092 150.228,148.004 149.984,147.915C149.65,147.804 149.384,147.626 149.161,147.381C148.961,147.137 148.873,146.826 148.761,146.47C148.65,146.137 148.584,145.781 148.561,145.381C148.561,145.359 148.606,145.359 148.606,145.337L148.606,145.07C148.606,144.87 148.628,144.692 148.65,144.515C148.695,144.204 148.761,143.915 148.895,143.67C149.05,143.404 149.273,143.204 149.517,143.026C149.761,142.87 150.028,142.759 150.339,142.692C150.628,142.648 150.917,142.604 151.206,142.604C151.517,142.581 151.784,142.581 152.073,142.626C152.361,142.648 152.65,142.692 152.939,142.781C153.206,142.87 153.473,143.026 153.717,143.159C153.961,143.292 154.184,143.426 154.361,143.581C154.539,143.781 154.739,143.959 154.85,144.181C154.984,144.404 154.984,144.67 155.028,144.937C155.073,145.159 155.161,145.426 155.117,145.692Z" style="fill:white;fill-rule:nonzero;"/>
    </g>
    <g transform="matrix(0.693431,0,0,0.693431,32.5579,24.4092)">
        <g transform="matrix(0.441529,0,0,0.378453,-46.3567,22.2429)">
            <ellipse cx="413" cy="68" rx="12" ry="14" style="fill:white;"/>
        </g>
        <g transform="matrix(0.378453,0,0,0.378453,-16.0359,11.8094)">
            <path d="M273,154C268.503,154.082 253.357,161.559 256,176.133C258.643,190.706 275.431,203.407 277,213C278.569,222.593 274.716,249.763 277,256C279.284,262.237 291.852,275.836 296,273C300.148,270.164 290.333,262.365 291,256C291.667,249.635 292,240.251 306,235C320,229.749 325.292,207.29 325,198C324.708,188.71 303.93,153.434 273,154Z" style="fill:none;stroke:white;stroke-width:12.7px;"/>
        </g>
        <g transform="matrix(0.378453,0,0,0.378453,-16.0359,11.8094)">
            <path d="M294,86C294,86 266.246,104.087 264,113C261.754,121.913 259.765,126.926 257,126C254.235,125.074 252.546,116.02 249,118C245.454,119.98 233.908,121.842 237,131C240.092,140.158 249.9,148.446 258,154C258.959,154.658 259.976,156.14 258,157C256.792,157.526 249.687,162.274 225.398,140.15C218.527,133.892 213.11,126.22 214,125C229.376,103.938 266.981,86.334 294,86Z" style="fill:none;stroke:white;stroke-width:12.7px;"/>
        </g>
        <g transform="matrix(0.378453,0,0,0.378453,-16.0359,11.8094)">
            <path d="M354,100C354,100 324.356,114.699 331,129C337.644,143.301 356.812,174.748 372,176C387.188,177.252 408.994,169.346 410,165C411.006,160.654 386.862,111.614 354,100Z" style="fill:none;stroke:white;stroke-width:12.7px;"/>
        </g>
        <g transform="matrix(0.404857,0,0,0.403096,-23.7546,4.0467)">
            <circle cx="299.5" cy="207.5" r="107.5" style="fill:none;stroke:white;stroke-width:11.9px;"/>
        </g>
        <g transform="matrix(0.378453,0,0,0.378453,-16.0359,11.8094)">
            <path d="M201,70L200,80L198,80L193,78L195,82L195,84L185,85L195,86L195,89L193,92L198,90L200,90L201,100L202,90L202,80L201,70Z" style="fill:rgb(255,248,248);"/>
            <g transform="matrix(-1,0,0,1,402,0)">
                <path d="M201,70L200,80L198,80L193,78L195,82L195,84L185,85L195,86L195,89L193,92L198,90L200,90L201,100L202,90L202,80L201,70Z" style="fill:rgb(255,248,248);"/>
            </g>
        </g>
        <g transform="matrix(0.31932,0,0,0.31932,17.9894,111.958)">
            <path d="M201,70L200,80L198,80L193,78L195,82L195,84L185,85L195,86L195,89L193,92L198,90L200,90L201,100L202,90L202,80L201,70Z" style="fill:rgb(255,248,248);"/>
            <g transform="matrix(-1,0,0,1,402,0)">
                <path d="M201,70L200,80L198,80L193,78L195,82L195,84L185,85L195,86L195,89L193,92L198,90L200,90L201,100L202,90L202,80L201,70Z" style="fill:rgb(255,248,248);"/>
            </g>
        </g>
        <g transform="matrix(0.260186,0,0,0.260186,103.106,65.6443)">
            <path d="M201,70L200,80L198,80L193,78L195,82L195,84L185,85L195,86L195,89L193,92L198,90L200,90L201,100L202,90L202,80L201,70Z" style="fill:rgb(255,248,248);"/>
            <g transform="matrix(-1,0,0,1,402,0)">
                <path d="M201,70L200,80L198,80L193,78L195,82L195,84L185,85L195,86L195,89L193,92L198,90L200,90L201,100L202,90L202,80L201,70Z" style="fill:rgb(255,248,248);"/>
            </g>
        </g>
        <g transform="matrix(0.393678,0,0,0.393678,-19.4224,6.00862)">
            <circle cx="297" cy="207" r="174" style="fill:none;stroke:white;stroke-width:12.21px;"/>
        </g>
        <g transform="matrix(0.773465,0,0,0.754128,30.3848,16.0031)">
            <path d="M132,48L119,63" style="fill:none;stroke:white;stroke-width:4.72px;"/>
        </g>
    </g>
</svg>
