<?xml version="1.0" encoding="UTF-8" standalone="no"?>
<!DOCTYPE svg PUBLIC "-//W3C//DTD SVG 1.1//EN" "http://www.w3.org/Graphics/SVG/1.1/DTD/svg11.dtd">
<svg width="100%" height="100%" viewBox="0 0 200 200" version="1.1" xmlns="http://www.w3.org/2000/svg" xmlns:xlink="http://www.w3.org/1999/xlink" xml:space="preserve" style="fill-rule:evenodd;clip-rule:evenodd;stroke-linecap:round;stroke-linejoin:round;stroke-miterlimit:1.5;">
    <g transform="matrix(1,0,0,1,0,-4)">
        <rect x="-4" y="0" width="213" height="204" style="fill:rgb(63,81,181);"/>
    </g>
    <g transform="matrix(1,0,0,1,5.26079,10)">
        <path d="M50.361,142.048L50.295,141.67C50.25,141.337 50.117,141.026 49.85,140.781C49.673,140.604 49.473,140.515 49.25,140.448C49.028,140.381 48.784,140.292 48.561,140.337C48.317,140.381 48.095,140.492 47.917,140.626C47.739,140.781 47.606,140.981 47.517,141.204C47.406,141.448 47.361,141.67 47.317,141.892C47.295,142.137 47.25,142.381 47.25,142.604C47.25,143.181 47.273,143.181 47.273,143.781C47.273,144.092 47.295,144.404 47.295,144.715C47.295,145.026 47.25,145.337 47.228,145.648C47.228,145.959 47.295,146.27 47.295,146.581C47.295,146.892 47.25,147.204 47.25,147.537C47.25,147.848 47.273,148.159 47.273,148.47C47.273,148.759 47.273,149.048 47.25,149.337C47.228,149.604 47.184,149.892 47.139,150.204C47.117,150.337 47.117,150.337 47.117,150.492C47.05,150.937 46.873,151.315 46.539,151.581C46.339,151.737 46.139,151.715 45.917,151.648C45.606,151.559 45.317,151.426 45.073,151.159C44.917,150.981 44.784,150.759 44.628,150.559C44.495,150.359 44.339,150.159 44.206,149.937L43.739,149.204C43.584,148.937 43.406,148.715 43.25,148.47C43.095,148.204 42.917,147.981 42.761,147.737C42.606,147.47 42.45,147.226 42.295,146.981L42.073,146.604C41.917,146.359 41.784,146.092 41.65,145.848C41.495,145.604 41.295,145.381 41.139,145.115L40.65,144.292C40.495,144.026 40.317,143.759 40.139,143.492C39.984,143.204 39.806,142.937 39.65,142.67C39.495,142.448 39.428,142.181 39.273,141.937C39.117,141.737 38.939,141.537 38.761,141.315C38.606,141.07 38.406,140.892 38.184,140.715C37.939,140.559 37.717,140.404 37.45,140.315C37.139,140.226 36.828,140.204 36.517,140.159C36.206,140.115 35.917,140.092 35.606,140.115C35.295,140.137 34.984,140.137 34.695,140.204C34.317,140.315 34.028,140.537 33.806,140.781C33.561,141.026 33.339,141.315 33.25,141.692C33.184,141.937 33.206,142.226 33.184,142.492C33.161,142.759 33.073,143.026 33.073,143.292C33.073,143.604 33.139,143.892 33.139,144.204C33.139,144.492 33.073,144.804 33.073,145.092C33.073,145.404 33.095,145.692 33.095,146.004L33.095,146.892C33.095,147.181 33.117,147.492 33.117,147.781C33.117,148.137 33.139,148.137 33.139,148.515L33.139,149.226C33.139,149.626 33.073,149.626 33.073,150.048C33.073,150.448 33.139,150.448 33.139,150.848C33.139,151.137 33.161,151.426 33.161,151.715C33.161,152.004 33.095,152.292 33.095,152.581C33.095,152.87 33.117,153.137 33.117,153.426L33.117,154.292C33.117,154.581 33.095,154.87 33.095,155.159C33.095,155.426 33.117,155.67 33.139,155.915C33.161,156.181 33.228,156.426 33.295,156.67L33.295,156.759C33.317,156.848 33.317,156.959 33.361,157.07C33.473,157.404 33.628,157.67 33.873,157.87C34.139,158.048 34.45,158.115 34.784,158.115C35.139,158.115 35.45,158.048 35.695,157.848C35.939,157.67 36.073,157.381 36.184,157.026C36.295,156.692 36.339,156.337 36.339,156.026L36.339,155.915C36.339,155.559 36.295,155.226 36.295,154.87C36.295,154.537 36.295,154.181 36.295,153.848L36.295,153.026C36.295,152.759 36.317,152.492 36.317,152.226C36.317,151.937 36.339,151.67 36.339,151.404L36.339,150.581C36.339,150.315 36.295,150.048 36.317,149.781C36.317,149.515 36.295,149.226 36.317,148.915C36.339,148.648 36.428,148.381 36.473,148.092C36.539,147.826 36.606,147.559 36.695,147.27C36.828,146.848 37.095,146.648 37.295,146.604C37.606,146.515 37.961,146.692 38.161,146.892C38.228,146.959 38.295,146.915 38.361,146.959C38.628,147.226 38.828,147.492 39.028,147.781C39.184,148.004 39.339,148.226 39.473,148.448C39.628,148.67 39.761,148.892 39.917,149.137C40.05,149.359 40.228,149.559 40.384,149.804C40.517,150.026 40.673,150.248 40.806,150.492C40.939,150.715 41.073,150.959 41.206,151.181L41.606,151.848C41.761,152.07 41.917,152.292 42.05,152.515C42.184,152.737 42.273,152.981 42.406,153.204C42.539,153.426 42.695,153.604 42.828,153.804C42.961,154.026 43.117,154.226 43.25,154.426C43.384,154.648 43.45,154.892 43.584,155.092C43.717,155.315 43.873,155.515 44.006,155.715L44.406,156.359C44.539,156.559 44.65,156.781 44.784,157.004C44.917,157.226 45.117,157.381 45.295,157.559C45.495,157.737 45.695,157.892 45.917,158.004C46.117,158.137 46.361,158.226 46.606,158.292C47.006,158.404 47.406,158.492 47.828,158.492C48.139,158.492 48.473,158.47 48.806,158.404C49.095,158.359 49.339,158.248 49.561,158.115C49.784,157.981 49.984,157.781 50.117,157.559C50.228,157.337 50.317,157.07 50.361,156.804L50.361,156.492C50.406,156.159 50.473,155.804 50.473,155.448C50.473,155.159 50.495,154.87 50.495,154.581C50.495,154.27 50.517,153.981 50.517,153.692L50.517,152.826C50.495,152.537 50.517,152.248 50.517,151.959C50.517,151.67 50.473,151.381 50.473,151.092C50.473,150.804 50.495,150.492 50.495,150.204C50.495,149.915 50.517,149.626 50.517,149.337C50.517,149.048 50.495,148.759 50.495,148.47C50.495,148.181 50.45,147.892 50.45,147.604C50.45,147.315 50.495,147.004 50.495,146.715C50.495,146.426 50.495,146.137 50.495,145.848L50.495,144.981C50.495,144.692 50.517,144.404 50.517,144.115L50.517,143.226C50.517,142.826 50.428,142.426 50.361,142.048Z" style="fill:white;fill-rule:nonzero;"/>
        <path d="M53.428,158.404C53.673,158.426 53.895,158.426 54.139,158.426C54.161,158.426 54.161,158.448 54.184,158.448C54.473,158.448 54.739,158.426 55.006,158.426C55.273,158.426 55.539,158.47 55.806,158.47C56.117,158.47 56.428,158.448 56.739,158.448L57.628,158.448C58.073,158.448 58.073,158.426 58.517,158.426C58.961,158.426 58.961,158.47 59.406,158.47C59.873,158.47 59.873,158.448 60.317,158.448C60.761,158.448 60.761,158.47 61.206,158.47L61.25,158.47C61.295,158.47 61.339,158.448 61.384,158.448C61.495,158.448 61.495,158.448 61.628,158.448L62.273,158.381C62.606,158.337 62.917,158.204 63.161,157.981C63.495,157.67 63.695,157.248 63.65,156.826C63.584,156.404 63.273,156.07 62.85,155.87C62.65,155.781 62.473,155.715 62.273,155.67C62.006,155.626 61.761,155.559 61.517,155.537C61.25,155.515 61.006,155.492 60.761,155.492L59.784,155.492C59.473,155.492 59.139,155.559 58.828,155.559C58.428,155.559 58.05,155.492 57.65,155.492C57.584,155.492 57.495,155.537 57.428,155.537C56.939,155.537 56.517,155.47 56.161,155.337C55.85,155.226 55.606,155.048 55.384,154.848C55.161,154.648 55.028,154.381 54.917,154.07C54.784,153.715 54.717,153.404 54.717,153.137C54.739,152.804 54.717,152.492 54.761,152.248C54.85,151.937 54.984,151.67 55.161,151.448C55.317,151.226 55.539,151.048 55.828,150.892C56.05,150.781 56.339,150.67 56.65,150.626C56.939,150.581 57.206,150.581 57.473,150.559C57.761,150.515 58.028,150.537 58.295,150.537C58.606,150.537 58.917,150.47 59.228,150.47C59.539,150.47 59.828,150.537 60.139,150.537C60.273,150.537 60.273,150.515 60.406,150.515C60.65,150.515 60.873,150.47 61.117,150.426C61.361,150.381 61.584,150.315 61.784,150.226C62.006,150.115 62.206,149.981 62.339,149.804C62.473,149.604 62.606,149.404 62.606,149.137C62.606,148.87 62.473,148.648 62.339,148.426C62.184,148.248 62.006,148.092 61.739,147.981C61.473,147.848 61.206,147.804 61.006,147.759C60.784,147.737 60.584,147.67 60.384,147.67C60.339,147.67 60.339,147.737 60.295,147.737C60.05,147.737 59.784,147.692 59.539,147.692L58.761,147.692C58.495,147.692 58.25,147.67 57.984,147.67C57.628,147.67 57.317,147.692 57.006,147.648C56.673,147.604 56.361,147.559 56.073,147.448C55.806,147.359 55.584,147.226 55.406,147.07C55.228,146.892 55.139,146.67 55.028,146.448C54.939,146.226 54.85,146.004 54.828,145.737C54.828,145.626 54.85,145.515 54.85,145.404C54.85,145.337 54.806,145.248 54.806,145.181C54.806,144.826 54.873,144.492 55.006,144.204C55.139,143.892 55.384,143.648 55.673,143.448C55.939,143.292 56.273,143.226 56.628,143.159C56.961,143.115 57.25,143.048 57.561,143.026C57.873,142.981 58.184,142.981 58.495,142.981L59.228,142.981C59.473,142.981 59.695,142.959 59.939,142.959C60.184,142.959 60.428,143.026 60.673,143.026C60.917,143.026 60.917,142.937 61.184,142.937C61.539,142.937 61.939,142.937 62.361,142.737C62.584,142.626 62.739,142.47 62.873,142.292C63.006,142.092 63.139,141.892 63.161,141.67C63.184,141.448 63.117,141.204 62.984,140.959C62.873,140.781 62.695,140.648 62.428,140.492C62.206,140.359 61.984,140.248 61.806,140.204C61.584,140.137 61.361,140.159 61.139,140.137C60.917,140.115 60.695,140.092 60.473,140.092C60.184,140.092 59.895,140.048 59.606,140.048C59.317,140.048 59.05,140.07 58.761,140.07C58.473,140.07 58.184,140.092 57.895,140.092C57.606,140.092 57.317,140.048 57.05,140.048C56.761,140.048 56.473,140.026 56.184,140.026C55.895,140.026 55.606,140.048 55.317,140.048C55.05,140.048 54.761,140.092 54.473,140.092L54.45,140.092C54.206,140.092 53.939,140.07 53.695,140.115C53.428,140.137 53.184,140.204 52.961,140.248C52.584,140.337 52.228,140.448 52.006,140.692C51.761,140.937 51.628,141.27 51.539,141.648C51.495,141.915 51.473,142.204 51.473,142.515C51.473,142.826 51.428,143.115 51.428,143.426C51.428,143.715 51.45,144.004 51.45,144.315C51.45,144.604 51.428,144.915 51.428,145.204L51.428,146.115C51.428,146.404 51.473,146.715 51.473,147.004C51.473,147.292 51.45,147.604 51.45,147.892C51.45,148.204 51.473,148.492 51.473,148.804L51.473,149.692C51.473,149.981 51.406,150.292 51.406,150.581C51.406,150.892 51.495,151.181 51.495,151.492C51.495,151.781 51.473,152.092 51.473,152.381C51.473,152.67 51.495,152.981 51.495,153.27C51.495,153.581 51.428,153.87 51.428,154.181C51.428,154.47 51.406,154.781 51.406,155.07C51.406,155.381 51.495,155.67 51.495,155.959C51.495,156.181 51.428,156.359 51.45,156.537C51.495,156.892 51.628,157.204 51.784,157.448C51.961,157.759 52.184,157.981 52.473,158.159C52.739,158.292 53.073,158.381 53.428,158.404Z" style="fill:white;fill-rule:nonzero;"/>
        <path d="M69.25,144.359C69.361,144.715 69.384,145.092 69.384,145.581L69.384,146.448C69.384,146.715 69.361,147.004 69.361,147.292C69.361,147.581 69.406,147.848 69.406,148.137C69.406,148.426 69.384,148.715 69.384,148.981C69.384,149.426 69.428,149.426 69.428,149.87L69.428,150.737C69.428,151.181 69.384,151.181 69.384,151.604L69.384,153.292C69.384,153.581 69.406,153.848 69.384,154.137L69.384,154.981C69.384,155.27 69.406,155.559 69.428,155.848L69.561,156.692C69.628,157.07 69.761,157.426 70.006,157.67C70.273,157.892 70.628,158.004 71.006,158.004C71.028,158.004 71.05,158.026 71.073,158.026C71.45,158.026 71.761,157.892 72.006,157.67C72.25,157.47 72.428,157.159 72.517,156.781C72.561,156.581 72.606,156.381 72.606,156.115C72.628,155.826 72.584,155.537 72.584,155.226C72.584,154.781 72.606,154.781 72.606,154.337C72.606,153.915 72.561,153.915 72.561,153.47C72.561,153.159 72.606,152.87 72.606,152.581C72.606,152.27 72.584,151.981 72.584,151.692C72.584,151.381 72.606,151.092 72.606,150.804C72.606,150.492 72.65,150.204 72.65,149.915C72.65,149.604 72.584,149.315 72.584,149.026C72.584,148.715 72.561,148.426 72.561,148.137L72.561,147.248C72.561,146.937 72.628,146.648 72.628,146.359C72.628,146.092 72.65,145.826 72.673,145.515C72.695,145.27 72.673,144.981 72.717,144.692C72.761,144.337 72.917,144.07 73.05,143.804C73.228,143.537 73.406,143.27 73.673,143.092C73.917,142.937 74.228,142.848 74.584,142.759C74.695,142.737 74.828,142.715 74.984,142.715C75.05,142.692 75.117,142.67 75.184,142.67C75.317,142.648 75.45,142.626 75.584,142.626C75.873,142.581 76.184,142.559 76.495,142.515C76.806,142.448 77.139,142.359 77.339,142.159C77.584,141.937 77.717,141.626 77.717,141.337C77.717,141.026 77.539,140.759 77.295,140.537C77.073,140.337 76.784,140.181 76.473,140.159C76.317,140.137 76.339,140.048 76.184,140.026L75.45,139.959C75.206,139.937 74.939,139.915 74.695,139.915C74.428,139.915 74.139,139.937 73.873,139.937C73.606,139.937 73.317,139.915 73.05,139.915L72.228,139.915C71.939,139.915 71.673,139.959 71.384,139.959C71.117,139.959 70.85,139.937 70.561,139.937L69.739,139.937C69.473,139.937 69.184,139.959 68.917,139.959C68.65,139.959 68.361,139.981 68.095,139.981C67.806,139.981 67.539,139.959 67.273,139.959C67.25,139.959 67.25,139.937 67.25,139.937C66.961,139.937 66.673,139.937 66.384,139.959C66.095,140.004 65.828,140.07 65.539,140.115C65.184,140.159 64.917,140.315 64.695,140.515C64.473,140.737 64.295,141.048 64.317,141.359C64.339,141.67 64.473,141.981 64.695,142.181C64.895,142.359 65.184,142.448 65.517,142.492C65.739,142.537 65.939,142.604 66.161,142.626C66.384,142.67 66.628,142.67 66.828,142.692C67.139,142.737 67.45,142.737 67.739,142.826C68.006,142.915 68.228,143.026 68.406,143.159C68.628,143.292 68.761,143.515 68.895,143.715C69.028,143.915 69.184,144.115 69.25,144.359Z" style="fill:white;fill-rule:nonzero;"/>
        <path d="M101.161,149.981C101.25,149.715 101.295,149.426 101.384,149.137C101.473,148.87 101.495,148.581 101.584,148.315L101.828,147.47C101.895,147.204 102.028,146.937 102.117,146.648C102.206,146.381 102.228,146.092 102.295,145.804L102.561,144.981C102.673,144.537 102.717,144.559 102.85,144.115C102.984,143.692 102.939,143.67 103.073,143.248C103.139,143.026 103.206,142.781 103.25,142.537C103.295,142.315 103.361,142.07 103.384,141.804C103.384,141.804 103.339,141.804 103.339,141.781C103.317,141.737 103.406,141.737 103.406,141.692C103.406,141.604 103.384,141.47 103.339,141.337C103.273,140.915 103.028,140.537 102.673,140.359C102.317,140.181 101.895,140.248 101.495,140.426C101.161,140.581 100.917,140.826 100.739,141.137C100.539,141.47 100.339,141.826 100.228,142.226L99.961,143.448C99.873,143.781 99.739,144.137 99.65,144.47C99.561,144.826 99.539,145.181 99.45,145.537C99.384,145.781 99.273,146.026 99.206,146.292L98.984,147.048C98.895,147.315 98.895,147.581 98.828,147.826C98.761,148.092 98.628,148.337 98.561,148.581C98.495,148.848 98.495,149.115 98.428,149.359C98.361,149.604 98.184,149.781 98.028,150.004C97.873,150.181 97.717,150.359 97.495,150.515C97.139,150.781 96.917,150.759 96.584,150.47C96.384,150.292 96.206,150.092 96.05,149.87C95.895,149.648 95.717,149.426 95.606,149.159C95.517,148.892 95.495,148.604 95.406,148.337C95.317,148.07 95.206,147.826 95.117,147.559C95.028,147.292 94.939,147.026 94.873,146.759C94.761,146.381 94.628,146.026 94.517,145.67C94.384,145.248 94.273,144.826 94.139,144.426C94.073,144.115 93.984,143.826 93.895,143.537C93.806,143.226 93.695,142.937 93.584,142.648C93.495,142.359 93.384,142.07 93.25,141.781C93.161,141.559 93.028,141.381 92.917,141.204C92.784,141.004 92.673,140.804 92.517,140.67C92.25,140.426 91.961,140.292 91.65,140.204C91.339,140.092 91.028,140.026 90.695,140.092C90.406,140.159 90.095,140.315 89.806,140.515C89.561,140.692 89.361,140.915 89.184,141.159C89.028,141.404 88.917,141.692 88.828,141.981C88.739,142.248 88.65,142.492 88.584,142.737L88.317,143.492C88.25,143.737 88.206,144.004 88.117,144.248C88.028,144.492 87.961,144.759 87.895,145.004C87.806,145.27 87.673,145.492 87.584,145.737C87.473,146.115 87.45,146.115 87.339,146.47C87.206,146.848 87.25,146.87 87.139,147.226C87.006,147.604 86.984,147.604 86.873,147.959C86.784,148.226 86.717,148.448 86.606,148.692C86.495,148.937 86.428,149.181 86.317,149.404C86.184,149.626 86.006,149.804 85.85,150.004C85.717,150.181 85.473,150.292 85.184,150.315C84.939,150.315 84.739,150.226 84.606,150.092C84.361,149.804 84.117,149.648 83.984,149.381C83.85,149.092 83.806,148.804 83.717,148.515C83.606,148.204 83.495,147.915 83.45,147.67C83.384,147.426 83.339,147.181 83.295,146.937C83.228,146.715 83.184,146.47 83.117,146.226C83.073,146.004 83.006,145.759 82.939,145.537C82.873,145.27 82.784,145.026 82.739,144.781C82.673,144.537 82.628,144.292 82.561,144.026L82.361,143.292C82.295,143.026 82.25,142.781 82.184,142.537C82.073,142.159 81.939,141.759 81.828,141.448C81.673,141.07 81.339,140.781 80.961,140.515C80.717,140.359 80.473,140.248 80.184,140.226C79.917,140.204 79.65,140.248 79.361,140.381C79.095,140.492 78.873,140.692 78.761,140.959C78.65,141.181 78.584,141.47 78.606,141.781C78.628,142.092 78.717,142.381 78.784,142.648L79.028,143.492C79.095,143.759 79.184,144.026 79.25,144.315C79.339,144.581 79.45,144.848 79.539,145.115C79.628,145.404 79.628,145.692 79.717,145.959C79.784,146.248 79.939,146.492 80.006,146.781C80.095,147.048 80.139,147.337 80.206,147.604C80.295,147.892 80.406,148.137 80.495,148.426L80.717,149.248C80.806,149.492 80.85,149.737 80.917,149.981C80.984,150.226 81.073,150.47 81.139,150.715C81.206,150.959 81.25,151.204 81.339,151.448C81.406,151.715 81.495,151.981 81.561,152.248C81.65,152.515 81.784,152.759 81.873,153.026L82.073,153.826C82.161,154.092 82.206,154.359 82.295,154.626C82.361,154.892 82.45,155.159 82.517,155.426C82.606,155.759 82.717,156.048 82.828,156.337C82.961,156.648 83.117,156.937 83.273,157.204C83.428,157.426 83.606,157.648 83.828,157.804C84.05,157.937 84.339,158.004 84.606,158.048C84.895,158.07 85.161,158.026 85.428,157.937C85.695,157.848 85.984,157.781 86.206,157.581C86.384,157.404 86.539,157.204 86.673,156.981C86.806,156.759 86.895,156.537 86.984,156.27C87.161,155.692 87.139,155.692 87.317,155.115C87.406,154.848 87.45,154.559 87.539,154.292C87.606,154.048 87.695,153.781 87.761,153.515C87.85,153.248 87.961,152.981 88.05,152.737C88.117,152.47 88.184,152.204 88.273,151.937C88.361,151.67 88.495,151.426 88.584,151.159C88.673,150.892 88.739,150.604 88.85,150.315C88.939,150.026 89.006,149.737 89.095,149.448C89.161,149.226 89.25,148.981 89.339,148.759C89.406,148.537 89.517,148.315 89.584,148.07C89.65,147.87 89.761,147.692 89.917,147.492C90.028,147.315 90.184,147.159 90.361,146.981C90.561,146.804 90.761,146.737 90.961,146.737C91.161,146.737 91.384,146.781 91.584,146.959C91.895,147.204 92.139,147.515 92.295,147.892C92.406,148.137 92.45,148.426 92.539,148.692C92.65,148.937 92.784,149.204 92.873,149.448C92.961,149.715 93.073,149.959 93.161,150.226C93.25,150.492 93.25,150.781 93.339,151.048C93.45,151.404 93.628,151.737 93.739,152.092C93.828,152.381 93.895,152.67 93.984,152.959C94.073,153.226 94.161,153.515 94.273,153.804C94.361,154.092 94.473,154.359 94.561,154.648C94.65,154.937 94.673,155.226 94.761,155.515C94.85,155.804 94.961,156.092 95.05,156.359C95.139,156.648 95.295,156.892 95.45,157.137C95.606,157.359 95.828,157.559 96.05,157.737C96.406,157.981 96.761,158.137 97.139,158.137C97.517,158.137 97.85,158.004 98.184,157.759C98.361,157.626 98.628,157.492 98.828,157.248C98.984,157.048 99.095,156.781 99.206,156.515C99.228,156.404 99.295,156.315 99.339,156.204C99.406,156.004 99.428,155.804 99.495,155.604L99.717,154.848C99.784,154.604 99.828,154.337 99.895,154.092C99.961,153.848 100.117,153.604 100.184,153.359L100.384,152.604C100.473,152.315 100.584,152.026 100.65,151.737C100.739,151.448 100.761,151.137 100.828,150.848C100.917,150.559 101.073,150.27 101.161,149.981Z" style="fill:white;fill-rule:nonzero;"/>
        <path d="M124.028,148.915C124.028,148.737 123.984,148.559 123.984,148.404C123.961,148.092 123.961,147.804 123.917,147.515C123.873,147.226 123.85,146.937 123.784,146.648C123.717,146.359 123.673,146.07 123.584,145.804C123.495,145.515 123.384,145.248 123.25,144.981C123.139,144.715 123.006,144.448 122.873,144.181C122.739,143.937 122.584,143.715 122.428,143.492C122.273,143.27 122.139,143.026 121.961,142.826C121.784,142.604 121.584,142.426 121.384,142.226C121.184,142.048 121.006,141.848 120.784,141.67C120.584,141.492 120.384,141.315 120.161,141.159C119.939,141.004 119.673,140.892 119.428,140.759C119.206,140.626 118.939,140.537 118.695,140.426C118.428,140.315 118.206,140.159 117.939,140.07C117.695,139.981 117.406,139.937 117.139,139.87C116.873,139.804 116.584,139.759 116.317,139.715C116.028,139.67 115.739,139.626 115.45,139.604C115.184,139.559 114.895,139.47 114.606,139.448C114.317,139.448 114.028,139.47 113.761,139.47C113.473,139.492 113.184,139.537 112.895,139.581C112.628,139.604 112.317,139.581 112.05,139.648C111.761,139.692 111.473,139.737 111.206,139.804C110.917,139.87 110.65,139.981 110.384,140.07C110.117,140.181 109.828,140.248 109.584,140.381C109.317,140.492 109.073,140.648 108.828,140.781C108.584,140.937 108.339,141.115 108.117,141.27C107.873,141.448 107.606,141.604 107.384,141.781C107.161,141.981 106.939,142.204 106.739,142.426C106.539,142.626 106.384,142.892 106.206,143.137C106.028,143.359 105.784,143.559 105.628,143.826C105.473,144.07 105.384,144.359 105.273,144.626C105.139,144.892 105.028,145.181 104.939,145.47C104.828,145.737 104.739,146.026 104.673,146.315C104.606,146.604 104.473,146.87 104.428,147.181C104.384,147.426 104.361,147.67 104.339,147.937C104.317,148.181 104.317,148.448 104.317,148.715C104.295,148.959 104.295,149.204 104.295,149.47C104.295,149.715 104.339,149.981 104.361,150.248C104.384,150.537 104.406,150.826 104.45,151.092C104.495,151.381 104.584,151.67 104.65,151.937C104.717,152.226 104.806,152.515 104.895,152.781C105.006,153.048 105.095,153.315 105.206,153.581C105.339,153.848 105.473,154.092 105.628,154.337C105.784,154.604 105.939,154.848 106.117,155.07C106.295,155.315 106.517,155.515 106.717,155.715C106.917,155.937 107.073,156.181 107.295,156.381C107.495,156.581 107.761,156.715 108.006,156.892L108.739,157.359C109.006,157.492 109.228,157.692 109.495,157.804C109.761,157.915 110.05,158.004 110.317,158.092C110.584,158.181 110.873,158.248 111.161,158.315C111.406,158.381 111.65,158.448 111.917,158.492C112.161,158.537 112.406,158.559 112.673,158.581L113.428,158.648C113.673,158.67 113.917,158.67 114.184,158.67C114.584,158.67 114.984,158.67 115.384,158.626C115.695,158.604 115.984,158.581 116.273,158.537C116.584,158.47 116.873,158.381 117.139,158.315C117.45,158.248 117.739,158.204 118.028,158.115C118.317,158.026 118.606,157.915 118.873,157.804C119.139,157.67 119.406,157.537 119.673,157.381C119.917,157.226 120.161,157.026 120.384,156.848C120.628,156.67 120.873,156.492 121.095,156.292C121.295,156.137 121.45,155.915 121.628,155.737C121.806,155.559 121.961,155.337 122.117,155.137C122.273,154.937 122.406,154.737 122.539,154.515C122.695,154.315 122.806,154.092 122.917,153.848C123.05,153.604 123.206,153.381 123.317,153.137C123.406,152.892 123.473,152.626 123.561,152.381C123.628,152.115 123.739,151.87 123.784,151.604C123.85,151.337 123.917,151.07 123.961,150.804C123.984,150.537 124.006,150.27 124.006,150.004C124.028,149.737 124.05,149.448 124.028,149.181L124.028,148.915ZM120.25,151.515C120.139,151.804 120.05,152.115 119.917,152.381C119.761,152.67 119.606,152.937 119.428,153.181C119.25,153.426 119.05,153.67 118.828,153.892C118.628,154.115 118.384,154.292 118.139,154.492C117.895,154.67 117.628,154.848 117.361,155.004C117.095,155.159 116.806,155.27 116.517,155.381C116.228,155.492 115.939,155.581 115.628,155.648C115.339,155.715 115.028,155.737 114.739,155.759C114.428,155.781 114.117,155.826 113.828,155.804C113.517,155.781 113.228,155.737 112.917,155.67C112.628,155.626 112.339,155.515 112.05,155.426C111.761,155.337 111.473,155.248 111.206,155.115C110.961,155.004 110.717,154.915 110.495,154.759C110.273,154.626 110.117,154.404 109.917,154.226C109.717,154.048 109.495,153.915 109.339,153.692C109.161,153.515 108.984,153.315 108.85,153.07C108.673,152.826 108.539,152.559 108.406,152.292C108.273,152.026 108.206,151.715 108.117,151.426C108.006,151.137 107.917,150.87 107.85,150.581C107.784,150.292 107.695,150.004 107.673,149.692C107.65,149.404 107.695,149.092 107.695,148.804C107.717,148.492 107.761,148.204 107.806,147.915C107.873,147.626 107.917,147.315 108.006,147.026C108.095,146.759 108.228,146.47 108.361,146.204C108.473,145.937 108.606,145.67 108.739,145.404C108.895,145.115 109.05,144.848 109.25,144.626C109.428,144.381 109.673,144.204 109.895,144.004C110.117,143.804 110.361,143.604 110.606,143.426C110.873,143.27 111.117,143.092 111.406,142.959C111.673,142.848 111.984,142.826 112.295,142.737C112.561,142.67 112.828,142.537 113.139,142.47C113.428,142.426 113.717,142.381 114.028,142.381C114.05,142.381 114.095,142.381 114.139,142.381L114.139,142.448C114.428,142.448 114.695,142.47 114.961,142.492C115.25,142.537 115.517,142.559 115.784,142.626C116.05,142.67 116.295,142.781 116.561,142.87C116.828,142.959 117.073,143.048 117.317,143.181C117.561,143.315 117.784,143.47 118.006,143.626C118.228,143.781 118.45,143.959 118.65,144.159C118.85,144.337 119.006,144.537 119.184,144.737C119.339,144.937 119.473,145.159 119.606,145.381C119.739,145.604 119.873,145.848 119.984,146.07L120.25,146.826C120.317,147.07 120.45,147.292 120.495,147.559C120.561,147.826 120.539,148.092 120.584,148.359C120.606,148.626 120.695,148.892 120.695,149.159C120.695,149.426 120.695,149.692 120.65,149.959C120.628,150.226 120.517,150.47 120.45,150.737C120.384,151.004 120.339,151.248 120.25,151.515Z" style="fill:white;fill-rule:nonzero;"/>
        <path d="M140.606,156.515C140.45,156.315 140.25,156.181 140.05,156.048C139.873,155.915 139.673,155.804 139.428,155.737C139.117,155.626 138.806,155.515 138.517,155.381C138.206,155.248 137.939,155.048 137.673,154.892C137.361,154.737 137.073,154.581 136.806,154.359C136.539,154.137 136.273,153.937 136.028,153.67L135.539,153.07C135.384,152.848 135.273,152.626 135.139,152.404C135.006,152.181 134.917,151.937 134.806,151.715C134.717,151.581 134.65,151.448 134.606,151.292C134.561,150.892 134.784,150.515 135.028,150.226C135.273,150.137 135.517,150.048 135.739,149.915C136.006,149.781 136.25,149.692 136.473,149.537C136.717,149.359 136.939,149.204 137.117,149.004C137.317,148.804 137.495,148.604 137.65,148.359C137.806,148.137 137.961,147.892 138.05,147.626C138.161,147.381 138.206,147.092 138.273,146.826C138.339,146.492 138.45,146.181 138.473,145.848C138.473,145.67 138.495,145.492 138.473,145.315C138.473,145.137 138.473,144.937 138.45,144.759C138.428,144.426 138.361,144.092 138.295,143.759C138.228,143.448 138.139,143.137 137.984,142.848C137.85,142.559 137.695,142.27 137.495,142.004C137.295,141.759 137.05,141.559 136.784,141.337C136.495,141.092 136.206,140.892 135.917,140.737C135.584,140.559 135.25,140.426 134.917,140.337C134.628,140.248 134.361,140.159 134.095,140.115C133.806,140.07 133.539,140.092 133.273,140.07C132.984,140.026 132.717,139.959 132.428,139.959L132.384,139.959C132.095,139.959 131.828,139.981 131.539,139.981C131.25,139.981 130.961,140.026 130.695,139.981C130.384,139.959 130.095,139.87 129.806,139.848L128.917,139.848C128.628,139.848 128.317,139.892 128.028,139.892C127.828,139.892 127.828,139.848 127.606,139.848C127.317,139.848 127.05,139.892 126.784,139.959C126.717,139.959 126.739,140.026 126.673,140.048C126.406,140.092 126.161,140.159 125.939,140.292C125.717,140.426 125.539,140.604 125.406,140.826C125.273,141.048 125.206,141.292 125.139,141.559C125.095,141.804 125.028,142.048 125.006,142.315C124.984,142.559 124.917,142.826 124.917,143.07L124.917,143.159C124.917,143.426 124.939,143.715 124.939,144.004C124.939,144.27 124.917,144.537 124.917,144.826L124.917,144.892C124.917,145.181 124.984,145.448 124.984,145.737C124.984,146.004 124.961,146.292 124.961,146.559C124.961,146.848 124.939,147.137 124.939,147.426C124.939,147.826 124.917,147.826 124.917,148.226L124.917,148.292C124.917,148.67 124.939,148.692 124.939,149.048L124.939,149.892C124.939,150.292 124.984,150.292 124.984,150.692L124.984,152.47C124.984,152.737 125.006,153.026 125.006,153.292C125.006,153.604 124.917,153.892 124.917,154.181L124.917,155.159C124.917,155.47 124.984,155.759 125.006,156.048C125.05,156.359 125.05,156.648 125.139,156.915C125.228,157.248 125.428,157.559 125.673,157.737C125.917,157.937 126.273,158.07 126.606,158.07L126.628,157.981C126.961,157.981 127.25,157.915 127.517,157.715C127.761,157.537 127.984,157.292 128.073,156.981C128.117,156.848 128.161,156.737 128.184,156.626C128.184,156.604 128.184,156.581 128.161,156.559L128.184,156.559L128.184,156.492C128.228,156.181 128.25,155.892 128.25,155.604C128.273,155.292 128.273,154.981 128.273,154.692C128.273,154.515 128.295,154.337 128.295,154.181L128.295,154.159L128.295,154.092C128.295,154.07 128.273,154.07 128.273,154.026C128.273,153.781 128.317,153.537 128.339,153.315C128.339,153.048 128.361,152.781 128.428,152.537C128.495,152.226 128.539,151.937 128.695,151.715C128.85,151.47 129.05,151.27 129.317,151.115C129.539,150.959 129.806,150.87 130.117,150.781L130.161,150.781C131.495,150.848 131.85,152.07 131.85,152.07L131.895,152.048C131.961,152.248 132.006,152.448 132.095,152.648C132.206,152.915 132.384,153.159 132.517,153.426C132.65,153.67 132.761,153.959 132.917,154.204C133.073,154.448 133.25,154.715 133.428,154.937C133.606,155.181 133.85,155.337 134.05,155.559C134.25,155.759 134.428,156.004 134.65,156.181C134.873,156.381 135.095,156.581 135.317,156.759C135.561,156.915 135.806,157.092 136.05,157.226C136.295,157.381 136.584,157.492 136.828,157.604C137.095,157.737 137.361,157.87 137.628,157.959C137.917,158.07 138.184,158.092 138.45,158.159C138.717,158.226 138.984,158.27 139.273,158.27L139.273,158.248L139.361,158.248C139.695,158.248 139.984,158.226 140.25,158.07C140.65,157.848 140.806,157.581 140.85,157.381C140.895,157.181 140.873,156.848 140.606,156.515ZM128.339,145.137C128.361,144.892 128.339,144.626 128.406,144.359C128.495,144.026 128.65,143.781 128.828,143.537C129.006,143.27 129.228,143.048 129.517,142.892C129.784,142.759 130.073,142.648 130.406,142.604C130.561,142.581 130.717,142.581 130.895,142.559C130.984,142.559 131.073,142.581 131.139,142.581C131.45,142.581 131.717,142.559 131.984,142.604C132.273,142.648 132.539,142.715 132.784,142.804C133.05,142.892 133.295,143.026 133.517,143.159C133.761,143.315 133.961,143.47 134.117,143.648C134.317,143.848 134.517,144.004 134.65,144.226C134.761,144.47 134.761,144.715 134.806,145.004C134.806,145.092 134.828,145.181 134.828,145.27C134.828,145.515 134.806,145.737 134.739,145.959C134.65,146.292 134.495,146.604 134.25,146.892C134.073,147.07 133.917,147.226 133.739,147.359C133.561,147.492 133.361,147.626 133.161,147.715C132.873,147.804 132.584,147.87 132.317,147.937C132.006,148.004 131.717,148.07 131.45,148.07C131.139,148.092 130.85,148.092 130.561,148.048C130.273,148.004 129.984,147.959 129.695,147.848C129.406,147.737 129.161,147.559 128.961,147.359C128.761,147.159 128.628,146.915 128.539,146.626C128.45,146.359 128.406,146.115 128.361,145.848C128.339,145.715 128.339,145.604 128.339,145.47L128.339,145.137Z" style="fill:white;fill-rule:nonzero;"/>
        <path d="M141.784,149.337C141.784,149.737 141.828,149.737 141.828,150.137C141.828,150.537 141.761,150.537 141.784,150.959C141.784,151.226 141.806,151.515 141.806,151.804C141.806,152.092 141.828,152.381 141.828,152.67L141.828,154.404C141.828,154.67 141.784,154.959 141.784,155.248C141.784,155.559 141.806,155.826 141.828,156.092C141.873,156.381 141.917,156.67 141.984,156.937C142.073,157.315 142.25,157.626 142.517,157.848C142.784,158.07 143.139,158.181 143.517,158.159C143.873,158.159 144.206,158.004 144.45,157.781C144.695,157.559 144.873,157.27 144.939,156.915C145.006,156.626 145.006,156.359 145.006,156.092C145.006,155.67 144.961,155.248 144.961,154.826L144.961,153.715C144.961,153.359 145.006,153.026 145.028,152.715C145.073,152.381 145.161,152.048 145.25,151.759C145.384,151.337 145.606,151.004 145.917,150.892C146.206,150.759 146.584,150.87 146.984,151.092C147.295,151.248 147.606,151.448 147.917,151.781C148.139,152.004 148.361,152.248 148.561,152.492C148.784,152.715 149.006,152.959 149.206,153.181C149.428,153.426 149.606,153.692 149.828,153.915C150.028,154.159 150.25,154.381 150.473,154.626C150.628,154.826 150.784,155.048 150.961,155.248C151.117,155.448 151.295,155.648 151.473,155.848C151.65,156.048 151.806,156.27 152.006,156.47C152.184,156.67 152.406,156.848 152.606,157.048C152.806,157.248 153.006,157.426 153.228,157.626C153.473,157.848 153.717,158.048 154.006,158.159C154.295,158.27 154.628,158.359 154.961,158.359C155.228,158.359 155.473,158.292 155.761,158.248C156.228,158.159 156.473,157.915 156.561,157.737C156.673,157.537 156.717,157.204 156.517,156.737C156.406,156.492 156.25,156.292 156.095,156.115L155.628,155.492C155.45,155.292 155.25,155.137 155.095,154.937C154.917,154.737 154.806,154.515 154.628,154.315C154.45,154.137 154.25,153.959 154.095,153.759C153.917,153.559 153.739,153.359 153.561,153.159L153.028,152.537C152.784,152.27 152.517,152.026 152.273,151.737C151.984,151.426 151.695,151.115 151.406,150.781C151.184,150.537 150.961,150.27 150.761,149.959C150.739,149.937 150.761,149.937 150.761,149.892C150.606,149.692 150.473,149.47 150.406,149.226C150.361,149.004 150.295,148.737 150.317,148.47C150.317,148.159 150.428,147.87 150.584,147.581C150.695,147.315 150.873,147.07 151.117,146.826C151.384,146.537 151.628,146.204 151.917,145.892C152.073,145.715 152.295,145.559 152.473,145.381C152.628,145.181 152.806,144.981 152.961,144.804C153.139,144.626 153.317,144.448 153.517,144.27C153.673,144.115 153.873,143.959 154.028,143.781C154.184,143.626 154.317,143.426 154.495,143.248C154.673,143.048 154.873,142.87 155.05,142.67C155.206,142.448 155.339,142.226 155.473,141.981C155.761,141.448 155.673,141.07 155.584,140.892C155.428,140.581 155.095,140.381 154.65,140.337C154.384,140.315 154.117,140.359 153.85,140.426C153.606,140.47 153.361,140.559 153.117,140.715C152.895,140.826 152.673,140.981 152.45,141.159C152.25,141.359 152.05,141.581 151.85,141.804C151.628,142.004 151.406,142.181 151.206,142.381C151.006,142.604 150.806,142.826 150.606,143.026L150.028,143.692C149.85,143.892 149.628,144.048 149.45,144.248L148.873,144.826C148.695,145.004 148.539,145.248 148.339,145.426C148.161,145.626 147.917,145.759 147.739,145.959C147.45,146.226 147.139,146.47 146.761,146.581C146.495,146.67 146.228,146.67 146.006,146.581C145.784,146.515 145.584,146.337 145.428,146.092C145.317,145.892 145.25,145.648 145.228,145.381L145.184,145.226C145.139,144.937 145.073,144.67 145.028,144.381C145.006,144.092 145.006,143.826 145.028,143.537C145.028,143.315 144.961,143.07 144.961,142.848C144.961,142.626 144.984,142.404 144.961,142.181C144.961,142.159 144.984,142.159 144.984,142.137C144.984,141.737 144.85,141.404 144.673,141.115C144.473,140.737 144.139,140.492 143.717,140.426C143.317,140.337 142.873,140.381 142.539,140.648C142.184,140.915 141.984,141.315 141.917,141.759C141.917,141.87 141.917,141.87 141.895,141.959C141.873,142.204 141.873,142.47 141.85,142.715C141.828,142.981 141.828,143.226 141.828,143.47L141.828,144.315C141.828,144.581 141.806,144.87 141.806,145.137C141.806,145.426 141.828,145.692 141.828,145.981C141.828,146.248 141.761,146.537 141.761,146.804C141.761,147.07 141.784,147.359 141.784,147.626C141.784,148.07 141.806,148.07 141.806,148.492C141.806,148.915 141.784,148.915 141.784,149.337Z" style="fill:white;fill-rule:nonzero;"/>
    </g>
    <g transform="matrix(0.857812,0,0,0.857812,14.3037,14.3323)">
        <g transform="matrix(0.237901,0,0,0.237901,44.8091,23.6735)">
            <circle cx="127.5" cy="93.5" r="58.5" style="fill:none;stroke:white;stroke-width:17.7px;"/>
        </g>
        <g transform="matrix(0.105734,0,0,0.105734,117.21,44.0008)">
            <circle cx="127.5" cy="93.5" r="58.5" style="fill:none;stroke:white;stroke-width:39.81px;"/>
        </g>
        <g transform="matrix(0.144367,0,0,0.144367,77.9078,70.7209)">
            <circle cx="127.5" cy="93.5" r="58.5" style="fill:none;stroke:white;stroke-width:29.16px;"/>
        </g>
        <g transform="matrix(0.215534,0,0,0.215534,116.771,66.3268)">
            <circle cx="127.5" cy="93.5" r="58.5" style="fill:none;stroke:white;stroke-width:19.53px;"/>
        </g>
        <g transform="matrix(0.105734,0,0,0.105734,96.0371,119.891)">
            <circle cx="127.5" cy="93.5" r="58.5" style="fill:none;stroke:white;stroke-width:39.81px;"/>
        </g>
        <g transform="matrix(0.227734,0,0,0.227734,28.6197,87.3109)">
            <circle cx="127.5" cy="93.5" r="58.5" style="fill:none;stroke:white;stroke-width:18.49px;"/>
        </g>
        <g transform="matrix(0.105734,0,0,0.105734,39.6546,64.936)">
            <circle cx="127.5" cy="93.5" r="58.5" style="fill:none;stroke:white;stroke-width:39.81px;"/>
        </g>
        <g transform="matrix(0.237901,0,0,0.237901,40.0511,23.6735)">
            <path d="M130,323L201,278" style="fill:none;stroke:white;stroke-width:17.7px;"/>
        </g>
        <g transform="matrix(0.237901,0,0,0.237901,40.0511,23.6735)">
            <path d="M89,219L191,241" style="fill:none;stroke:white;stroke-width:17.7px;"/>
        </g>
        <g transform="matrix(0.237901,0,0,0.237901,40.0511,23.6735)">
            <path d="M183,152L218,216" style="fill:none;stroke:white;stroke-width:17.7px;"/>
        </g>
        <g transform="matrix(0.237901,0,0,0.237901,40.0511,23.6735)">
            <path d="M355,152L269,228" style="fill:none;stroke:white;stroke-width:17.7px;"/>
        </g>
        <g transform="matrix(0.237901,0,0,0.237901,40.0511,23.6735)">
            <path d="M376,263L278,256" style="fill:none;stroke:white;stroke-width:17.7px;"/>
        </g>
        <g transform="matrix(0.237901,0,0,0.252013,40.0511,19.5102)">
            <path d="M278,413L248,295" style="fill:none;stroke:white;stroke-width:17.18px;"/>
        </g>
        <g transform="matrix(0.272655,0,0,0.237901,33.5331,23.6735)">
            <path d="M130,393L256,437" style="fill:none;stroke:white;stroke-width:16.45px;"/>
        </g>
        <g transform="matrix(0.414371,0,0,0.418775,26.3452,-4.64895)">
            <path d="M72,175L89,140" style="fill:none;stroke:white;stroke-width:10.11px;"/>
        </g>
    </g>
</svg>
