<?xml version="1.0" encoding="UTF-8" standalone="no"?>
<!DOCTYPE svg PUBLIC "-//W3C//DTD SVG 1.1//EN" "http://www.w3.org/Graphics/SVG/1.1/DTD/svg11.dtd">
<svg width="100%" height="100%" viewBox="0 0 200 200" version="1.1" xmlns="http://www.w3.org/2000/svg" xmlns:xlink="http://www.w3.org/1999/xlink" xml:space="preserve" style="fill-rule:evenodd;clip-rule:evenodd;stroke-linejoin:round;stroke-miterlimit:1.41421;">
    <g transform="matrix(1,0,0,1,0,-4)">
        <rect x="-4" y="0" width="213" height="204" style="fill:rgb(255,87,34);"/>
    </g>
    <g>
        <g transform="matrix(1,0,0,1,8.26079,11)">
            <path d="M49.961,154.426C50.05,154.115 50.05,153.781 50.05,153.492C50.073,153.159 50.095,152.848 50.095,152.559C50.073,152.226 50.006,151.915 49.939,151.604C49.85,151.292 49.806,150.959 49.65,150.692C49.495,150.404 49.273,150.159 49.05,149.915C48.85,149.67 48.606,149.448 48.339,149.27C48.05,149.07 47.784,148.892 47.495,148.759C47.206,148.604 46.895,148.492 46.606,148.404C46.273,148.292 45.961,148.115 45.628,148.004C45.25,147.87 44.873,147.781 44.495,147.648C44.273,147.581 44.028,147.47 43.784,147.381C43.561,147.27 43.361,147.115 43.161,146.981C42.85,146.804 42.584,146.648 42.384,146.448C42.139,146.226 41.939,145.981 41.828,145.715C41.717,145.448 41.673,145.159 41.673,144.892C41.673,144.626 41.717,144.337 41.806,144.092C41.917,143.848 42.073,143.604 42.25,143.404C42.428,143.204 42.673,143.07 42.917,142.937C43.161,142.804 43.406,142.715 43.65,142.648C43.917,142.581 44.161,142.515 44.428,142.492C44.695,142.492 44.961,142.448 45.228,142.47C45.339,142.492 45.317,142.537 45.428,142.559C45.717,142.604 46.006,142.67 46.317,142.715C46.65,142.737 47.028,142.67 47.45,142.67C47.695,142.67 47.939,142.648 48.139,142.537C48.339,142.426 48.495,142.248 48.65,142.026C48.828,141.781 48.917,141.537 48.895,141.27C48.895,141.004 48.784,140.759 48.561,140.537C48.406,140.381 48.206,140.27 48.028,140.159C47.828,140.048 47.65,139.892 47.45,139.826C47.161,139.759 46.85,139.737 46.539,139.692C46.25,139.626 45.939,139.581 45.65,139.559C45.339,139.537 45.028,139.47 44.739,139.47C44.428,139.47 44.117,139.537 43.828,139.581C43.517,139.626 43.206,139.626 42.917,139.692C42.628,139.759 42.339,139.915 42.05,140.004C41.784,140.092 41.495,140.204 41.206,140.337C40.961,140.448 40.739,140.581 40.517,140.715C40.295,140.848 40.05,140.981 39.873,141.137C39.65,141.315 39.45,141.492 39.295,141.692C39.095,141.892 38.984,142.159 38.828,142.381C38.695,142.626 38.517,142.848 38.406,143.115C38.295,143.359 38.295,143.648 38.228,143.937C38.161,144.204 38.117,144.47 38.095,144.759C38.073,145.026 38.073,145.292 38.073,145.581C38.095,145.915 38.139,146.226 38.228,146.515C38.317,146.826 38.495,147.092 38.65,147.359C38.806,147.626 38.984,147.892 39.206,148.115C39.428,148.359 39.673,148.581 39.961,148.781C40.228,148.959 40.495,149.159 40.806,149.315C41.095,149.448 41.406,149.581 41.739,149.692C41.984,149.804 42.206,149.937 42.45,150.026C42.695,150.115 42.961,150.181 43.206,150.27C43.406,150.337 43.606,150.448 43.806,150.515C44.006,150.604 44.228,150.67 44.428,150.737C44.761,150.87 45.073,151.004 45.361,151.204C45.65,151.404 45.917,151.626 46.139,151.892C46.339,152.115 46.473,152.381 46.539,152.67C46.628,152.959 46.673,153.27 46.65,153.559C46.606,153.87 46.473,154.137 46.317,154.381C46.117,154.648 45.895,154.87 45.673,155.048C45.428,155.248 45.161,155.448 44.873,155.559C44.606,155.648 44.317,155.626 44.028,155.67C43.761,155.692 43.495,155.759 43.206,155.737C42.939,155.715 42.673,155.626 42.384,155.559C42.117,155.515 41.873,155.448 41.606,155.359L41.25,155.226C40.984,155.159 40.739,155.181 40.495,155.159C40.228,155.137 39.984,155.137 39.739,155.181C39.45,155.248 39.184,155.337 38.984,155.515C38.806,155.692 38.628,155.937 38.539,156.226C38.473,156.515 38.561,156.759 38.65,156.981C38.761,157.27 39.006,157.47 39.095,157.559C39.228,157.67 39.384,157.759 39.539,157.848C39.739,157.959 39.939,158.07 40.139,158.159C40.361,158.248 40.539,158.381 40.761,158.426C41.006,158.492 41.273,158.492 41.539,158.537C41.806,158.581 42.05,158.648 42.317,158.67C42.584,158.692 42.85,158.626 43.117,158.626C43.317,158.626 43.539,158.648 43.761,158.648C43.85,158.648 43.85,158.604 43.917,158.604C44.028,158.604 44.139,158.67 44.273,158.67C44.561,158.648 44.85,158.626 45.139,158.581C45.45,158.537 45.717,158.448 46.006,158.359C46.295,158.27 46.539,158.115 46.806,157.981C47.05,157.848 47.339,157.781 47.561,157.648C47.806,157.492 47.984,157.292 48.206,157.115C48.428,156.937 48.65,156.781 48.828,156.581C49.006,156.381 49.139,156.137 49.273,155.892C49.428,155.67 49.584,155.448 49.695,155.204C49.806,154.937 49.895,154.692 49.961,154.426Z" style="fill:white;fill-rule:nonzero;"/>
            <path d="M53.006,158.404C53.25,158.426 53.473,158.426 53.717,158.426C53.739,158.426 53.739,158.448 53.761,158.448C54.05,158.448 54.317,158.426 54.584,158.426C54.85,158.426 55.117,158.47 55.384,158.47C55.695,158.47 56.006,158.448 56.317,158.448L57.206,158.448C57.65,158.448 57.65,158.426 58.095,158.426C58.539,158.426 58.539,158.47 58.984,158.47C59.45,158.47 59.45,158.448 59.895,158.448C60.339,158.448 60.339,158.47 60.784,158.47L60.828,158.47C60.873,158.47 60.917,158.448 60.961,158.448C61.073,158.448 61.073,158.448 61.206,158.448L61.85,158.381C62.184,158.337 62.495,158.204 62.739,157.981C63.073,157.67 63.273,157.248 63.228,156.826C63.161,156.404 62.85,156.07 62.428,155.87C62.228,155.781 62.05,155.715 61.85,155.67C61.584,155.626 61.339,155.559 61.095,155.537C60.828,155.515 60.584,155.492 60.339,155.492L59.361,155.492C59.05,155.492 58.717,155.559 58.406,155.559C58.006,155.559 57.628,155.492 57.228,155.492C57.161,155.492 57.073,155.537 57.006,155.537C56.517,155.537 56.095,155.47 55.739,155.337C55.428,155.226 55.184,155.048 54.961,154.848C54.739,154.648 54.606,154.381 54.495,154.07C54.361,153.715 54.295,153.404 54.295,153.137C54.317,152.804 54.295,152.492 54.339,152.248C54.428,151.937 54.561,151.67 54.739,151.448C54.895,151.226 55.117,151.048 55.406,150.892C55.628,150.781 55.917,150.67 56.228,150.626C56.517,150.581 56.784,150.581 57.05,150.559C57.339,150.515 57.606,150.537 57.873,150.537C58.184,150.537 58.495,150.47 58.806,150.47C59.117,150.47 59.406,150.537 59.717,150.537C59.85,150.537 59.85,150.515 59.984,150.515C60.228,150.515 60.45,150.47 60.695,150.426C60.939,150.381 61.161,150.315 61.361,150.226C61.584,150.115 61.784,149.981 61.917,149.804C62.05,149.604 62.184,149.404 62.184,149.137C62.184,148.87 62.05,148.648 61.917,148.426C61.761,148.248 61.584,148.092 61.317,147.981C61.05,147.848 60.784,147.804 60.584,147.759C60.361,147.737 60.161,147.67 59.961,147.67C59.917,147.67 59.917,147.737 59.873,147.737C59.628,147.737 59.361,147.692 59.117,147.692L58.339,147.692C58.073,147.692 57.828,147.67 57.561,147.67C57.206,147.67 56.895,147.692 56.584,147.648C56.25,147.604 55.939,147.559 55.65,147.448C55.384,147.359 55.161,147.226 54.984,147.07C54.806,146.892 54.717,146.67 54.606,146.448C54.517,146.226 54.428,146.004 54.406,145.737C54.406,145.626 54.428,145.515 54.428,145.404C54.428,145.337 54.384,145.248 54.384,145.181C54.384,144.826 54.45,144.492 54.584,144.204C54.717,143.892 54.961,143.648 55.25,143.448C55.517,143.292 55.85,143.226 56.206,143.159C56.539,143.115 56.828,143.048 57.139,143.026C57.45,142.981 57.761,142.981 58.073,142.981L58.806,142.981C59.05,142.981 59.273,142.959 59.517,142.959C59.761,142.959 60.006,143.026 60.25,143.026C60.495,143.026 60.495,142.937 60.761,142.937C61.117,142.937 61.517,142.937 61.939,142.737C62.161,142.626 62.317,142.47 62.45,142.292C62.584,142.092 62.717,141.892 62.739,141.67C62.761,141.448 62.695,141.204 62.561,140.959C62.45,140.781 62.273,140.648 62.006,140.492C61.784,140.359 61.561,140.248 61.384,140.204C61.161,140.137 60.939,140.159 60.717,140.137C60.495,140.115 60.273,140.092 60.05,140.092C59.761,140.092 59.473,140.048 59.184,140.048C58.895,140.048 58.628,140.07 58.339,140.07C58.05,140.07 57.761,140.092 57.473,140.092C57.184,140.092 56.895,140.048 56.628,140.048C56.339,140.048 56.05,140.026 55.761,140.026C55.473,140.026 55.184,140.048 54.895,140.048C54.628,140.048 54.339,140.092 54.05,140.092L54.028,140.092C53.784,140.092 53.517,140.07 53.273,140.115C53.006,140.137 52.761,140.204 52.539,140.248C52.161,140.337 51.806,140.448 51.584,140.692C51.339,140.937 51.206,141.27 51.117,141.648C51.073,141.915 51.05,142.204 51.05,142.515C51.05,142.826 51.006,143.115 51.006,143.426C51.006,143.715 51.028,144.004 51.028,144.315C51.028,144.604 51.006,144.915 51.006,145.204L51.006,146.115C51.006,146.404 51.05,146.715 51.05,147.004C51.05,147.292 51.028,147.604 51.028,147.892C51.028,148.204 51.05,148.492 51.05,148.804L51.05,149.692C51.05,149.981 50.984,150.292 50.984,150.581C50.984,150.892 51.073,151.181 51.073,151.492C51.073,151.781 51.05,152.092 51.05,152.381C51.05,152.67 51.073,152.981 51.073,153.27C51.073,153.581 51.006,153.87 51.006,154.181C51.006,154.47 50.984,154.781 50.984,155.07C50.984,155.381 51.073,155.67 51.073,155.959C51.073,156.181 51.006,156.359 51.028,156.537C51.073,156.892 51.206,157.204 51.361,157.448C51.539,157.759 51.761,157.981 52.05,158.159C52.317,158.292 52.65,158.381 53.006,158.404Z" style="fill:white;fill-rule:nonzero;"/>
            <path d="M68.828,144.359C68.939,144.715 68.961,145.092 68.961,145.581L68.961,146.448C68.961,146.715 68.939,147.004 68.939,147.292C68.939,147.581 68.984,147.848 68.984,148.137C68.984,148.426 68.961,148.715 68.961,148.981C68.961,149.426 69.006,149.426 69.006,149.87L69.006,150.737C69.006,151.181 68.961,151.181 68.961,151.604L68.961,153.292C68.961,153.581 68.984,153.848 68.961,154.137L68.961,154.981C68.961,155.27 68.984,155.559 69.006,155.848L69.139,156.692C69.206,157.07 69.339,157.426 69.584,157.67C69.85,157.892 70.206,158.004 70.584,158.004C70.606,158.004 70.628,158.026 70.65,158.026C71.028,158.026 71.339,157.892 71.584,157.67C71.828,157.47 72.006,157.159 72.095,156.781C72.139,156.581 72.184,156.381 72.184,156.115C72.206,155.826 72.161,155.537 72.161,155.226C72.161,154.781 72.184,154.781 72.184,154.337C72.184,153.915 72.139,153.915 72.139,153.47C72.139,153.159 72.184,152.87 72.184,152.581C72.184,152.27 72.161,151.981 72.161,151.692C72.161,151.381 72.184,151.092 72.184,150.804C72.184,150.492 72.228,150.204 72.228,149.915C72.228,149.604 72.161,149.315 72.161,149.026C72.161,148.715 72.139,148.426 72.139,148.137L72.139,147.248C72.139,146.937 72.206,146.648 72.206,146.359C72.206,146.092 72.228,145.826 72.25,145.515C72.273,145.27 72.25,144.981 72.295,144.692C72.339,144.337 72.495,144.07 72.628,143.804C72.806,143.537 72.984,143.27 73.25,143.092C73.495,142.937 73.806,142.848 74.161,142.759C74.273,142.737 74.406,142.715 74.561,142.715C74.628,142.692 74.695,142.67 74.761,142.67C74.895,142.648 75.028,142.626 75.161,142.626C75.45,142.581 75.761,142.559 76.073,142.515C76.384,142.448 76.717,142.359 76.917,142.159C77.161,141.937 77.295,141.626 77.295,141.337C77.295,141.026 77.117,140.759 76.873,140.537C76.65,140.337 76.361,140.181 76.05,140.159C75.895,140.137 75.917,140.048 75.761,140.026L75.028,139.959C74.784,139.937 74.517,139.915 74.273,139.915C74.006,139.915 73.717,139.937 73.45,139.937C73.184,139.937 72.895,139.915 72.628,139.915L71.806,139.915C71.517,139.915 71.25,139.959 70.961,139.959C70.695,139.959 70.428,139.937 70.139,139.937L69.317,139.937C69.05,139.937 68.761,139.959 68.495,139.959C68.228,139.959 67.939,139.981 67.673,139.981C67.384,139.981 67.117,139.959 66.85,139.959C66.828,139.959 66.828,139.937 66.828,139.937C66.539,139.937 66.25,139.937 65.961,139.959C65.673,140.004 65.406,140.07 65.117,140.115C64.761,140.159 64.495,140.315 64.273,140.515C64.05,140.737 63.873,141.048 63.895,141.359C63.917,141.67 64.05,141.981 64.273,142.181C64.473,142.359 64.761,142.448 65.095,142.492C65.317,142.537 65.517,142.604 65.739,142.626C65.961,142.67 66.206,142.67 66.406,142.692C66.717,142.737 67.028,142.737 67.317,142.826C67.584,142.915 67.806,143.026 67.984,143.159C68.206,143.292 68.339,143.515 68.473,143.715C68.606,143.915 68.761,144.115 68.828,144.359Z" style="fill:white;fill-rule:nonzero;"/>
            <path d="M83.117,144.359C83.228,144.715 83.25,145.092 83.25,145.581L83.25,146.448C83.25,146.715 83.228,147.004 83.228,147.292C83.228,147.581 83.273,147.848 83.273,148.137C83.273,148.426 83.25,148.715 83.25,148.981C83.25,149.426 83.295,149.426 83.295,149.87L83.295,150.737C83.295,151.181 83.25,151.181 83.25,151.604L83.25,153.292C83.25,153.581 83.273,153.848 83.25,154.137L83.25,154.981C83.25,155.27 83.273,155.559 83.295,155.848L83.428,156.692C83.495,157.07 83.628,157.426 83.873,157.67C84.139,157.892 84.495,158.004 84.873,158.004C84.895,158.004 84.917,158.026 84.939,158.026C85.317,158.026 85.628,157.892 85.873,157.67C86.117,157.47 86.295,157.159 86.384,156.781C86.428,156.581 86.473,156.381 86.473,156.115C86.495,155.826 86.45,155.537 86.45,155.226C86.45,154.781 86.473,154.781 86.473,154.337C86.473,153.915 86.428,153.915 86.428,153.47C86.428,153.159 86.473,152.87 86.473,152.581C86.473,152.27 86.45,151.981 86.45,151.692C86.45,151.381 86.473,151.092 86.473,150.804C86.473,150.492 86.517,150.204 86.517,149.915C86.517,149.604 86.45,149.315 86.45,149.026C86.45,148.715 86.428,148.426 86.428,148.137L86.428,147.248C86.428,146.937 86.495,146.648 86.495,146.359C86.495,146.092 86.517,145.826 86.539,145.515C86.561,145.27 86.539,144.981 86.584,144.692C86.628,144.337 86.784,144.07 86.917,143.804C87.095,143.537 87.273,143.27 87.539,143.092C87.784,142.937 88.095,142.848 88.45,142.759C88.561,142.737 88.695,142.715 88.85,142.715C88.917,142.692 88.984,142.67 89.05,142.67C89.184,142.648 89.317,142.626 89.45,142.626C89.739,142.581 90.05,142.559 90.361,142.515C90.673,142.448 91.006,142.359 91.206,142.159C91.45,141.937 91.584,141.626 91.584,141.337C91.584,141.026 91.406,140.759 91.161,140.537C90.939,140.337 90.65,140.181 90.339,140.159C90.184,140.137 90.206,140.048 90.05,140.026L89.317,139.959C89.073,139.937 88.806,139.915 88.561,139.915C88.295,139.915 88.006,139.937 87.739,139.937C87.473,139.937 87.184,139.915 86.917,139.915L86.095,139.915C85.806,139.915 85.539,139.959 85.25,139.959C84.984,139.959 84.717,139.937 84.428,139.937L83.606,139.937C83.339,139.937 83.05,139.959 82.784,139.959C82.517,139.959 82.228,139.981 81.961,139.981C81.673,139.981 81.406,139.959 81.139,139.959C81.117,139.959 81.117,139.937 81.117,139.937C80.828,139.937 80.539,139.937 80.25,139.959C79.961,140.004 79.695,140.07 79.406,140.115C79.05,140.159 78.784,140.315 78.561,140.515C78.339,140.737 78.161,141.048 78.184,141.359C78.206,141.67 78.339,141.981 78.561,142.181C78.761,142.359 79.05,142.448 79.384,142.492C79.606,142.537 79.806,142.604 80.028,142.626C80.25,142.67 80.495,142.67 80.695,142.692C81.006,142.737 81.317,142.737 81.606,142.826C81.873,142.915 82.095,143.026 82.273,143.159C82.495,143.292 82.628,143.515 82.761,143.715C82.895,143.915 83.05,144.115 83.117,144.359Z" style="fill:white;fill-rule:nonzero;"/>
            <path d="M93.606,147.737C93.606,148.248 93.65,148.248 93.65,148.759C93.65,149.27 93.606,149.27 93.606,149.759C93.606,150.07 93.628,150.359 93.628,150.67C93.628,150.959 93.65,151.27 93.65,151.581L93.65,153.381C93.65,153.67 93.673,153.981 93.673,154.27C93.673,154.581 93.628,154.87 93.628,155.181C93.628,155.492 93.673,155.781 93.695,156.048C93.717,156.359 93.717,156.67 93.761,156.937C93.85,157.27 94.05,157.492 94.273,157.692C94.473,157.892 94.717,158.048 95.05,158.092C95.139,158.115 95.228,158.159 95.317,158.159C95.695,158.159 96.006,158.026 96.273,157.781C96.517,157.581 96.65,157.27 96.739,156.892C96.806,156.537 96.873,156.204 96.873,155.87L96.873,155.048C96.873,154.781 96.828,154.492 96.828,154.226C96.828,153.937 96.85,153.67 96.85,153.381C96.85,153.115 96.806,152.826 96.806,152.559L96.806,151.737C96.806,151.448 96.85,151.181 96.85,150.892C96.85,150.515 96.895,150.515 96.895,150.137L96.895,149.381C96.895,148.981 96.873,148.981 96.873,148.604C96.873,148.226 96.85,148.226 96.85,147.848C96.85,147.515 96.828,147.204 96.828,146.87C96.828,146.559 96.806,146.226 96.806,145.892C96.806,145.581 96.85,145.248 96.85,144.937C96.85,144.604 96.806,144.27 96.806,143.959C96.806,143.67 96.873,143.404 96.873,143.115C96.873,142.848 96.85,142.559 96.85,142.292C96.85,141.959 96.784,141.515 96.539,141.092C96.339,140.737 95.984,140.492 95.561,140.404C95.161,140.315 94.717,140.404 94.384,140.67C94.05,140.937 93.806,141.27 93.739,141.692C93.739,141.826 93.784,141.826 93.761,141.959L93.695,142.67C93.673,142.915 93.584,143.159 93.584,143.404C93.584,143.67 93.606,143.915 93.606,144.181L93.606,145.715C93.606,145.959 93.65,146.226 93.65,146.47C93.628,147.115 93.606,147.115 93.606,147.737Z" style="fill:white;fill-rule:nonzero;"/>
            <path d="M115.961,142.048L115.895,141.67C115.85,141.337 115.717,141.026 115.45,140.781C115.273,140.604 115.073,140.515 114.85,140.448C114.628,140.381 114.384,140.292 114.161,140.337C113.917,140.381 113.695,140.492 113.517,140.626C113.339,140.781 113.206,140.981 113.117,141.204C113.006,141.448 112.961,141.67 112.917,141.892C112.895,142.137 112.85,142.381 112.85,142.604C112.85,143.181 112.873,143.181 112.873,143.781C112.873,144.092 112.895,144.404 112.895,144.715C112.895,145.026 112.85,145.337 112.828,145.648C112.828,145.959 112.895,146.27 112.895,146.581C112.895,146.892 112.85,147.204 112.85,147.537C112.85,147.848 112.873,148.159 112.873,148.47C112.873,148.759 112.873,149.048 112.85,149.337C112.828,149.604 112.784,149.892 112.739,150.204C112.717,150.337 112.717,150.337 112.717,150.492C112.65,150.937 112.473,151.315 112.139,151.581C111.939,151.737 111.739,151.715 111.517,151.648C111.206,151.559 110.917,151.426 110.673,151.159C110.517,150.981 110.384,150.759 110.228,150.559C110.095,150.359 109.939,150.159 109.806,149.937L109.339,149.204C109.184,148.937 109.006,148.715 108.85,148.47C108.695,148.204 108.517,147.981 108.361,147.737C108.206,147.47 108.05,147.226 107.895,146.981L107.673,146.604C107.517,146.359 107.384,146.092 107.25,145.848C107.095,145.604 106.895,145.381 106.739,145.115L106.25,144.292C106.095,144.026 105.917,143.759 105.739,143.492C105.584,143.204 105.406,142.937 105.25,142.67C105.095,142.448 105.028,142.181 104.873,141.937C104.717,141.737 104.539,141.537 104.361,141.315C104.206,141.07 104.006,140.892 103.784,140.715C103.539,140.559 103.317,140.404 103.05,140.315C102.739,140.226 102.428,140.204 102.117,140.159C101.806,140.115 101.517,140.092 101.206,140.115C100.895,140.137 100.584,140.137 100.295,140.204C99.917,140.315 99.628,140.537 99.406,140.781C99.161,141.026 98.939,141.315 98.85,141.692C98.784,141.937 98.806,142.226 98.784,142.492C98.761,142.759 98.673,143.026 98.673,143.292C98.673,143.604 98.739,143.892 98.739,144.204C98.739,144.492 98.673,144.804 98.673,145.092C98.673,145.404 98.695,145.692 98.695,146.004L98.695,146.892C98.695,147.181 98.717,147.492 98.717,147.781C98.717,148.137 98.739,148.137 98.739,148.515L98.739,149.226C98.739,149.626 98.673,149.626 98.673,150.048C98.673,150.448 98.739,150.448 98.739,150.848C98.739,151.137 98.761,151.426 98.761,151.715C98.761,152.004 98.695,152.292 98.695,152.581C98.695,152.87 98.717,153.137 98.717,153.426L98.717,154.292C98.717,154.581 98.695,154.87 98.695,155.159C98.695,155.426 98.717,155.67 98.739,155.915C98.761,156.181 98.828,156.426 98.895,156.67L98.895,156.759C98.917,156.848 98.917,156.959 98.961,157.07C99.073,157.404 99.228,157.67 99.473,157.87C99.739,158.048 100.05,158.115 100.384,158.115C100.739,158.115 101.05,158.048 101.295,157.848C101.539,157.67 101.673,157.381 101.784,157.026C101.895,156.692 101.939,156.337 101.939,156.026L101.939,155.915C101.939,155.559 101.895,155.226 101.895,154.87C101.895,154.537 101.895,154.181 101.895,153.848L101.895,153.026C101.895,152.759 101.917,152.492 101.917,152.226C101.917,151.937 101.939,151.67 101.939,151.404L101.939,150.581C101.939,150.315 101.895,150.048 101.917,149.781C101.917,149.515 101.895,149.226 101.917,148.915C101.939,148.648 102.028,148.381 102.073,148.092C102.139,147.826 102.206,147.559 102.295,147.27C102.428,146.848 102.695,146.648 102.895,146.604C103.206,146.515 103.561,146.692 103.761,146.892C103.828,146.959 103.895,146.915 103.961,146.959C104.228,147.226 104.428,147.492 104.628,147.781C104.784,148.004 104.939,148.226 105.073,148.448C105.228,148.67 105.361,148.892 105.517,149.137C105.65,149.359 105.828,149.559 105.984,149.804C106.117,150.026 106.273,150.248 106.406,150.492C106.539,150.715 106.673,150.959 106.806,151.181L107.206,151.848C107.361,152.07 107.517,152.292 107.65,152.515C107.784,152.737 107.873,152.981 108.006,153.204C108.139,153.426 108.295,153.604 108.428,153.804C108.561,154.026 108.717,154.226 108.85,154.426C108.984,154.648 109.05,154.892 109.184,155.092C109.317,155.315 109.473,155.515 109.606,155.715L110.006,156.359C110.139,156.559 110.25,156.781 110.384,157.004C110.517,157.226 110.717,157.381 110.895,157.559C111.095,157.737 111.295,157.892 111.517,158.004C111.717,158.137 111.961,158.226 112.206,158.292C112.606,158.404 113.006,158.492 113.428,158.492C113.739,158.492 114.073,158.47 114.406,158.404C114.695,158.359 114.939,158.248 115.161,158.115C115.384,157.981 115.584,157.781 115.717,157.559C115.828,157.337 115.917,157.07 115.961,156.804L115.961,156.492C116.006,156.159 116.073,155.804 116.073,155.448C116.073,155.159 116.095,154.87 116.095,154.581C116.095,154.27 116.117,153.981 116.117,153.692L116.117,152.826C116.095,152.537 116.117,152.248 116.117,151.959C116.117,151.67 116.073,151.381 116.073,151.092C116.073,150.804 116.095,150.492 116.095,150.204C116.095,149.915 116.117,149.626 116.117,149.337C116.117,149.048 116.095,148.759 116.095,148.47C116.095,148.181 116.05,147.892 116.05,147.604C116.05,147.315 116.095,147.004 116.095,146.715C116.095,146.426 116.095,146.137 116.095,145.848L116.095,144.981C116.095,144.692 116.117,144.404 116.117,144.115L116.117,143.226C116.117,142.826 116.028,142.426 115.961,142.048Z" style="fill:white;fill-rule:nonzero;"/>
            <path d="M118.895,154.626C119.05,154.87 119.228,155.092 119.384,155.315C119.561,155.537 119.739,155.759 119.939,155.981C120.139,156.181 120.361,156.381 120.561,156.559C120.784,156.759 120.984,156.959 121.206,157.137C121.45,157.292 121.695,157.426 121.961,157.581C122.206,157.715 122.45,157.848 122.717,157.959C122.984,158.07 123.228,158.204 123.517,158.315C123.784,158.404 124.073,158.426 124.361,158.492C124.628,158.559 124.895,158.648 125.184,158.692C125.45,158.737 125.739,158.781 126.006,158.804C126.273,158.826 126.561,158.826 126.828,158.848C127.095,158.87 127.384,158.892 127.65,158.892C127.939,158.892 128.25,158.87 128.539,158.848C128.828,158.826 129.117,158.848 129.428,158.804C129.717,158.781 130.006,158.737 130.295,158.692C130.584,158.648 130.895,158.604 131.184,158.537C131.473,158.47 131.761,158.426 132.05,158.359C132.317,158.27 132.606,158.159 132.895,158.07C133.161,157.981 133.428,157.915 133.628,157.781C133.873,157.648 134.05,157.426 134.206,157.226C134.384,157.026 134.561,156.826 134.673,156.581C134.761,156.337 134.784,156.07 134.828,155.804C134.873,155.47 134.961,155.115 134.961,154.804C134.984,154.448 134.917,154.092 134.917,153.781C134.917,153.515 134.984,153.248 134.984,153.004C134.984,153.004 134.917,153.004 134.917,152.981L134.917,152.381C134.917,151.981 134.939,151.626 134.939,151.27C134.939,150.981 134.961,150.692 134.917,150.426C134.895,150.137 134.806,149.87 134.784,149.604C134.717,149.248 134.628,148.937 134.406,148.692C134.206,148.448 133.917,148.248 133.584,148.137C133.317,148.048 133.05,148.048 132.784,148.026C132.428,148.026 132.073,148.004 131.717,148.004L130.65,148.004C130.584,148.004 130.584,148.048 130.539,148.048C130.228,148.048 129.961,148.115 129.673,148.226C129.428,148.337 129.206,148.426 129.05,148.604C128.895,148.804 128.761,149.048 128.739,149.292C128.695,149.537 128.739,149.804 128.85,150.026C128.961,150.248 129.161,150.404 129.361,150.559C129.495,150.648 129.606,150.737 129.739,150.804C129.895,150.892 130.05,151.004 130.228,151.092C130.406,151.181 130.428,151.092 130.606,151.181C131.073,151.426 131.339,151.737 131.495,152.092C131.628,152.404 131.717,152.715 131.739,153.026C131.761,153.337 131.673,153.648 131.561,153.959C131.45,154.27 131.339,154.581 131.139,154.826C130.917,155.048 130.628,155.248 130.339,155.381C130.073,155.515 129.761,155.581 129.495,155.67C129.206,155.759 128.917,155.87 128.628,155.915C128.339,155.981 128.028,155.959 127.739,155.959C127.45,155.959 127.139,155.981 126.85,155.937C126.561,155.915 126.25,155.892 125.961,155.826C125.628,155.759 125.339,155.648 125.05,155.537C124.739,155.426 124.428,155.337 124.161,155.181C123.873,155.026 123.584,154.87 123.339,154.67C123.095,154.492 122.85,154.248 122.628,154.026C122.406,153.781 122.206,153.537 122.028,153.292C121.85,153.026 121.695,152.737 121.561,152.47C121.428,152.181 121.273,151.915 121.184,151.604C121.095,151.337 121.05,151.048 120.984,150.781C120.939,150.492 120.895,150.226 120.873,149.937C120.828,149.67 120.828,149.381 120.828,149.092C120.85,148.826 120.828,148.537 120.873,148.248C120.917,147.981 120.984,147.692 121.05,147.426C121.139,147.115 121.273,146.826 121.406,146.537C121.517,146.248 121.673,145.981 121.828,145.692C121.984,145.426 122.139,145.159 122.317,144.915C122.517,144.67 122.739,144.426 122.961,144.204C123.184,144.004 123.45,143.87 123.673,143.715C123.917,143.537 124.139,143.337 124.384,143.204C124.65,143.092 124.939,143.004 125.206,142.915C125.473,142.826 125.761,142.715 126.05,142.67C126.317,142.626 126.628,142.626 126.917,142.604C127.206,142.581 127.495,142.559 127.784,142.559C128.095,142.581 128.384,142.67 128.673,142.715C128.984,142.781 129.273,142.804 129.561,142.892C129.85,143.004 130.117,143.115 130.406,143.181C130.584,143.248 130.584,143.204 130.761,143.27C131.161,143.381 131.517,143.381 131.873,143.337C132.184,143.292 132.45,143.226 132.673,143.048C132.873,142.87 133.05,142.626 133.139,142.337C133.228,142.048 133.25,141.759 133.139,141.492C133.05,141.226 132.873,140.981 132.628,140.804C132.428,140.648 132.184,140.581 131.961,140.47C131.606,140.292 131.228,140.092 130.784,140.004C130.495,139.937 130.206,139.959 129.917,139.915C129.628,139.87 129.339,139.826 129.05,139.804C128.761,139.781 128.473,139.737 128.184,139.715C127.895,139.715 127.606,139.692 127.295,139.692C127.006,139.692 126.717,139.759 126.428,139.759C126.161,139.781 125.895,139.781 125.628,139.826C125.361,139.848 125.095,139.892 124.828,139.937C124.561,140.004 124.317,140.092 124.05,140.159C123.806,140.248 123.539,140.292 123.273,140.381C123.028,140.47 122.784,140.559 122.539,140.67C122.295,140.804 122.05,140.937 121.828,141.07C121.561,141.226 121.317,141.359 121.073,141.515L120.384,142.048C120.161,142.248 119.961,142.448 119.761,142.67C119.561,142.87 119.406,143.115 119.228,143.359C119.05,143.581 118.895,143.826 118.739,144.07C118.584,144.315 118.45,144.581 118.339,144.848C118.206,145.115 118.095,145.381 117.984,145.648C117.895,145.937 117.873,146.226 117.806,146.515C117.717,146.781 117.584,147.048 117.539,147.337C117.495,147.626 117.495,147.915 117.473,148.204C117.45,148.492 117.45,148.781 117.45,149.07C117.45,149.359 117.45,149.648 117.473,149.959C117.495,150.226 117.539,150.515 117.584,150.804C117.606,151.092 117.65,151.381 117.695,151.67L117.895,152.448C117.984,152.715 118.006,152.981 118.117,153.226C118.206,153.47 118.295,153.737 118.428,153.959C118.539,154.204 118.739,154.404 118.895,154.626Z" style="fill:white;fill-rule:nonzero;"/>
            <path d="M147.761,154.426C147.85,154.115 147.85,153.781 147.85,153.492C147.873,153.159 147.895,152.848 147.895,152.559C147.873,152.226 147.806,151.915 147.739,151.604C147.65,151.292 147.606,150.959 147.45,150.692C147.295,150.404 147.073,150.159 146.85,149.915C146.65,149.67 146.406,149.448 146.139,149.27C145.85,149.07 145.584,148.892 145.295,148.759C145.006,148.604 144.695,148.492 144.406,148.404C144.073,148.292 143.761,148.115 143.428,148.004C143.05,147.87 142.673,147.781 142.295,147.648C142.073,147.581 141.828,147.47 141.584,147.381C141.361,147.27 141.161,147.115 140.961,146.981C140.65,146.804 140.384,146.648 140.184,146.448C139.939,146.226 139.739,145.981 139.628,145.715C139.517,145.448 139.473,145.159 139.473,144.892C139.473,144.626 139.517,144.337 139.606,144.092C139.717,143.848 139.873,143.604 140.05,143.404C140.228,143.204 140.473,143.07 140.717,142.937C140.961,142.804 141.206,142.715 141.45,142.648C141.717,142.581 141.961,142.515 142.228,142.492C142.495,142.492 142.761,142.448 143.028,142.47C143.139,142.492 143.117,142.537 143.228,142.559C143.517,142.604 143.806,142.67 144.117,142.715C144.45,142.737 144.828,142.67 145.25,142.67C145.495,142.67 145.739,142.648 145.939,142.537C146.139,142.426 146.295,142.248 146.45,142.026C146.628,141.781 146.717,141.537 146.695,141.27C146.695,141.004 146.584,140.759 146.361,140.537C146.206,140.381 146.006,140.27 145.828,140.159C145.628,140.048 145.45,139.892 145.25,139.826C144.961,139.759 144.65,139.737 144.339,139.692C144.05,139.626 143.739,139.581 143.45,139.559C143.139,139.537 142.828,139.47 142.539,139.47C142.228,139.47 141.917,139.537 141.628,139.581C141.317,139.626 141.006,139.626 140.717,139.692C140.428,139.759 140.139,139.915 139.85,140.004C139.584,140.092 139.295,140.204 139.006,140.337C138.761,140.448 138.539,140.581 138.317,140.715C138.095,140.848 137.85,140.981 137.673,141.137C137.45,141.315 137.25,141.492 137.095,141.692C136.895,141.892 136.784,142.159 136.628,142.381C136.495,142.626 136.317,142.848 136.206,143.115C136.095,143.359 136.095,143.648 136.028,143.937C135.961,144.204 135.917,144.47 135.895,144.759C135.873,145.026 135.873,145.292 135.873,145.581C135.895,145.915 135.939,146.226 136.028,146.515C136.117,146.826 136.295,147.092 136.45,147.359C136.606,147.626 136.784,147.892 137.006,148.115C137.228,148.359 137.473,148.581 137.761,148.781C138.028,148.959 138.295,149.159 138.606,149.315C138.895,149.448 139.206,149.581 139.539,149.692C139.784,149.804 140.006,149.937 140.25,150.026C140.495,150.115 140.761,150.181 141.006,150.27C141.206,150.337 141.406,150.448 141.606,150.515C141.806,150.604 142.028,150.67 142.228,150.737C142.561,150.87 142.873,151.004 143.161,151.204C143.45,151.404 143.717,151.626 143.939,151.892C144.139,152.115 144.273,152.381 144.339,152.67C144.428,152.959 144.473,153.27 144.45,153.559C144.406,153.87 144.273,154.137 144.117,154.381C143.917,154.648 143.695,154.87 143.473,155.048C143.228,155.248 142.961,155.448 142.673,155.559C142.406,155.648 142.117,155.626 141.828,155.67C141.561,155.692 141.295,155.759 141.006,155.737C140.739,155.715 140.473,155.626 140.184,155.559C139.917,155.515 139.673,155.448 139.406,155.359L139.05,155.226C138.784,155.159 138.539,155.181 138.295,155.159C138.028,155.137 137.784,155.137 137.539,155.181C137.25,155.248 136.984,155.337 136.784,155.515C136.606,155.692 136.428,155.937 136.339,156.226C136.273,156.515 136.361,156.759 136.45,156.981C136.561,157.27 136.806,157.47 136.895,157.559C137.028,157.67 137.184,157.759 137.339,157.848C137.539,157.959 137.739,158.07 137.939,158.159C138.161,158.248 138.339,158.381 138.561,158.426C138.806,158.492 139.073,158.492 139.339,158.537C139.606,158.581 139.85,158.648 140.117,158.67C140.384,158.692 140.65,158.626 140.917,158.626C141.117,158.626 141.339,158.648 141.561,158.648C141.65,158.648 141.65,158.604 141.717,158.604C141.828,158.604 141.939,158.67 142.073,158.67C142.361,158.648 142.65,158.626 142.939,158.581C143.25,158.537 143.517,158.448 143.806,158.359C144.095,158.27 144.339,158.115 144.606,157.981C144.85,157.848 145.139,157.781 145.361,157.648C145.606,157.492 145.784,157.292 146.006,157.115C146.228,156.937 146.45,156.781 146.628,156.581C146.806,156.381 146.939,156.137 147.073,155.892C147.228,155.67 147.384,155.448 147.495,155.204C147.606,154.937 147.695,154.692 147.761,154.426Z" style="fill:white;fill-rule:nonzero;"/>
        </g>
        <g id="Zahndrad" transform="matrix(2.92457,0,0,2.90797,-53.7092,-67.7415)">
            <g transform="matrix(0.713305,0.700854,0.645697,-0.657168,-20.3541,52.9174)">
                <path d="M49,44L49.927,38.033L55.03,38.011L56,44L49,44" style="fill:white;"/>
            </g>
            <g transform="matrix(-0.00409557,-1.0029,0.997068,-0.00982688,-0.960638,107.258)">
                <path d="M49,44L49.927,38.033L55.03,38.011L56,44L49,44" style="fill:white;"/>
            </g>
            <g transform="matrix(0.684757,-0.729085,0.728759,0.684436,-22.7039,55.1291)">
                <path d="M49,44L49.927,38.033L55.03,38.011L56,44L49,44" style="fill:white;"/>
            </g>
            <g transform="matrix(0.997215,-0.00117064,0.00683989,1.00279,-0.389383,0.0767455)">
                <path d="M49,44L49.927,38.033L55.03,38.011L56,44L49,44" style="fill:white;"/>
            </g>
            <g transform="matrix(-0.713305,0.700854,-0.645697,-0.657168,124.885,52.7879)">
                <path d="M49,44L49.927,38.033L55.03,38.011L56,44L49,44" style="fill:white;"/>
            </g>
            <g transform="matrix(0.00409557,-1.0029,-0.997068,-0.00982688,105.491,107.128)">
                <path d="M49,44L49.927,38.033L55.03,38.011L56,44L49,44" style="fill:white;"/>
            </g>
            <g transform="matrix(-0.684757,-0.729085,-0.728759,0.684436,127.235,54.9996)">
                <path d="M49,44L49.927,38.033L55.03,38.011L56,44L49,44" style="fill:white;"/>
            </g>
            <g transform="matrix(-0.997215,0.00117064,-0.00683989,-1.00279,104.92,107.053)">
                <path d="M49,44L49.927,38.033L55.03,38.011L56,44L49,44" style="fill:white;"/>
            </g>
            <g transform="matrix(0.34193,0,0,0.343883,18.3648,23.2951)">
                <path d="M99.831,54.393C118.393,54.393 133.463,69.378 133.463,87.835C133.463,106.292 118.393,121.276 99.831,121.276C81.269,121.276 66.198,106.292 66.198,87.835C66.198,69.378 81.269,54.393 99.831,54.393ZM100.195,75.383C107.58,75.383 113.575,81.43 113.575,88.877C113.575,96.324 107.58,102.37 100.195,102.37C92.811,102.37 86.816,96.324 86.816,88.877C86.816,81.43 92.811,75.383 100.195,75.383Z" style="fill:white;"/>
            </g>
        </g>
    </g>
</svg>
