<?xml version="1.0" encoding="UTF-8" standalone="no"?>
<!DOCTYPE svg PUBLIC "-//W3C//DTD SVG 1.1//EN" "http://www.w3.org/Graphics/SVG/1.1/DTD/svg11.dtd">
<svg width="100%" height="100%" viewBox="0 0 200 200" version="1.1" xmlns="http://www.w3.org/2000/svg" xmlns:xlink="http://www.w3.org/1999/xlink" xml:space="preserve" style="fill-rule:evenodd;clip-rule:evenodd;stroke-linecap:round;stroke-linejoin:round;stroke-miterlimit:1.5;">
    <g transform="matrix(1,0,0,1,0,-4)">
        <rect x="-4" y="0" width="213" height="204" style="fill:rgb(255,152,0);"/>
    </g>
    <g transform="matrix(1,0,0,1,23.2608,7)">
        <path d="M41.606,156.092C41.517,155.848 41.406,155.604 41.317,155.381C41.206,155.115 41.006,154.87 40.873,154.604C40.761,154.359 40.673,154.115 40.584,153.892C40.473,153.648 40.361,153.426 40.273,153.181C40.161,152.915 40.095,152.604 39.984,152.337C39.873,152.048 39.717,151.804 39.584,151.515L39.25,150.692C39.117,150.426 38.984,150.181 38.873,149.915C38.739,149.648 38.65,149.381 38.539,149.115C38.428,148.87 38.339,148.604 38.228,148.337C38.139,148.092 38.006,147.826 37.895,147.581C37.784,147.315 37.695,147.048 37.584,146.804C37.473,146.537 37.339,146.292 37.228,146.048C37.117,145.781 37.073,145.515 36.961,145.248C36.85,145.004 36.717,144.759 36.606,144.492C36.495,144.27 36.406,144.026 36.295,143.804C36.206,143.559 36.05,143.359 35.961,143.115L35.628,142.426C35.517,142.159 35.428,141.892 35.295,141.67C35.139,141.426 34.984,141.204 34.806,141.004C34.606,140.781 34.339,140.648 34.095,140.515C33.85,140.381 33.584,140.292 33.273,140.27C32.984,140.27 32.695,140.292 32.428,140.404C32.161,140.515 31.917,140.67 31.695,140.892C31.428,141.159 31.206,141.515 31.028,141.915C30.917,142.159 30.828,142.404 30.717,142.648L30.361,143.381C30.273,143.604 30.184,143.826 30.073,144.026C29.984,144.248 29.917,144.492 29.828,144.692C29.717,144.937 29.628,145.181 29.517,145.426C29.428,145.648 29.317,145.892 29.206,146.115C29.095,146.359 28.984,146.581 28.895,146.826C28.784,147.048 28.717,147.248 28.628,147.47C28.517,147.67 28.428,147.892 28.339,148.092C28.228,148.315 28.073,148.537 27.961,148.781C27.873,149.004 27.806,149.27 27.695,149.515C27.606,149.737 27.45,149.959 27.361,150.204C27.273,150.47 27.161,150.737 27.05,150.981C26.939,151.248 26.873,151.537 26.761,151.804L26.406,152.559C26.295,152.826 26.139,153.07 26.028,153.337C25.895,153.626 25.828,153.937 25.695,154.226C25.561,154.537 25.406,154.804 25.273,155.092C25.184,155.337 25.073,155.581 24.984,155.826C24.895,156.07 24.85,156.337 24.784,156.604C24.717,156.848 24.717,157.092 24.784,157.315C24.828,157.537 24.917,157.759 25.095,157.937C25.295,158.092 25.517,158.226 25.761,158.27C26.006,158.292 26.25,158.248 26.517,158.159C26.761,158.092 27.006,158.026 27.184,157.892C27.384,157.737 27.584,157.559 27.695,157.359C27.828,157.159 27.961,156.959 28.095,156.715C28.206,156.537 28.25,156.292 28.384,156.048C28.517,155.804 28.739,155.626 28.895,155.448C29.073,155.226 29.25,155.048 29.473,154.892C29.673,154.759 29.917,154.648 30.184,154.581C30.428,154.492 30.673,154.404 30.939,154.381C31.228,154.381 31.539,154.337 31.828,154.337C32.117,154.315 32.406,154.404 32.717,154.381C33.006,154.381 33.295,154.315 33.584,154.315C33.895,154.315 34.184,154.381 34.473,154.404C34.761,154.404 35.073,154.426 35.361,154.426C35.695,154.448 35.984,154.537 36.273,154.648C36.561,154.759 36.873,154.848 37.117,155.048C37.339,155.248 37.539,155.515 37.717,155.781L37.717,155.826C37.895,156.092 38.028,156.359 38.161,156.626C38.273,156.892 38.406,157.115 38.561,157.292C38.739,157.515 38.984,157.648 39.161,157.804C39.339,157.959 39.473,158.137 39.673,158.204C39.895,158.292 40.117,158.292 40.339,158.292C40.384,158.292 40.428,158.337 40.45,158.315C40.85,158.292 41.161,158.115 41.384,157.87C41.606,157.626 41.717,157.292 41.717,156.892C41.717,156.87 41.761,156.87 41.761,156.848C41.739,156.604 41.673,156.337 41.606,156.092ZM35.184,150.137C35.184,150.492 35.161,150.781 35.006,151.004C34.85,151.248 34.606,151.404 34.273,151.537C33.917,151.715 33.495,151.804 33.095,151.781L33.095,151.737C33.095,151.737 33.095,151.804 33.073,151.804C32.65,151.804 32.317,151.737 32.028,151.604C31.65,151.47 31.339,151.27 31.161,151.004C30.984,150.715 30.895,150.359 30.895,149.959C30.895,149.67 30.961,149.359 31.05,149.026C31.139,148.737 31.228,148.448 31.361,148.137C31.495,147.892 31.628,147.648 31.784,147.404C31.917,147.181 32.05,146.937 32.25,146.737C32.561,146.426 32.895,146.426 33.139,146.448C33.473,146.47 33.761,146.604 33.961,146.87C34.184,147.159 34.361,147.448 34.517,147.737C34.695,148.048 34.873,148.337 34.984,148.67C35.073,148.937 35.139,149.159 35.184,149.381C35.228,149.648 35.184,149.892 35.184,150.137Z" style="fill:white;fill-rule:nonzero;"/>
        <path d="M59.939,142.048L59.873,141.67C59.828,141.337 59.695,141.026 59.428,140.781C59.25,140.604 59.05,140.515 58.828,140.448C58.606,140.381 58.361,140.292 58.139,140.337C57.895,140.381 57.673,140.492 57.495,140.626C57.317,140.781 57.184,140.981 57.095,141.204C56.984,141.448 56.939,141.67 56.895,141.892C56.873,142.137 56.828,142.381 56.828,142.604C56.828,143.181 56.85,143.181 56.85,143.781C56.85,144.092 56.873,144.404 56.873,144.715C56.873,145.026 56.828,145.337 56.806,145.648C56.806,145.959 56.873,146.27 56.873,146.581C56.873,146.892 56.828,147.204 56.828,147.537C56.828,147.848 56.85,148.159 56.85,148.47C56.85,148.759 56.85,149.048 56.828,149.337C56.806,149.604 56.761,149.892 56.717,150.204C56.695,150.337 56.695,150.337 56.695,150.492C56.628,150.937 56.45,151.315 56.117,151.581C55.917,151.737 55.717,151.715 55.495,151.648C55.184,151.559 54.895,151.426 54.65,151.159C54.495,150.981 54.361,150.759 54.206,150.559C54.073,150.359 53.917,150.159 53.784,149.937L53.317,149.204C53.161,148.937 52.984,148.715 52.828,148.47C52.673,148.204 52.495,147.981 52.339,147.737C52.184,147.47 52.028,147.226 51.873,146.981L51.65,146.604C51.495,146.359 51.361,146.092 51.228,145.848C51.073,145.604 50.873,145.381 50.717,145.115L50.228,144.292C50.073,144.026 49.895,143.759 49.717,143.492C49.561,143.204 49.384,142.937 49.228,142.67C49.073,142.448 49.006,142.181 48.85,141.937C48.695,141.737 48.517,141.537 48.339,141.315C48.184,141.07 47.984,140.892 47.761,140.715C47.517,140.559 47.295,140.404 47.028,140.315C46.717,140.226 46.406,140.204 46.095,140.159C45.784,140.115 45.495,140.092 45.184,140.115C44.873,140.137 44.561,140.137 44.273,140.204C43.895,140.315 43.606,140.537 43.384,140.781C43.139,141.026 42.917,141.315 42.828,141.692C42.761,141.937 42.784,142.226 42.761,142.492C42.739,142.759 42.65,143.026 42.65,143.292C42.65,143.604 42.717,143.892 42.717,144.204C42.717,144.492 42.65,144.804 42.65,145.092C42.65,145.404 42.673,145.692 42.673,146.004L42.673,146.892C42.673,147.181 42.695,147.492 42.695,147.781C42.695,148.137 42.717,148.137 42.717,148.515L42.717,149.226C42.717,149.626 42.65,149.626 42.65,150.048C42.65,150.448 42.717,150.448 42.717,150.848C42.717,151.137 42.739,151.426 42.739,151.715C42.739,152.004 42.673,152.292 42.673,152.581C42.673,152.87 42.695,153.137 42.695,153.426L42.695,154.292C42.695,154.581 42.673,154.87 42.673,155.159C42.673,155.426 42.695,155.67 42.717,155.915C42.739,156.181 42.806,156.426 42.873,156.67L42.873,156.759C42.895,156.848 42.895,156.959 42.939,157.07C43.05,157.404 43.206,157.67 43.45,157.87C43.717,158.048 44.028,158.115 44.361,158.115C44.717,158.115 45.028,158.048 45.273,157.848C45.517,157.67 45.65,157.381 45.761,157.026C45.873,156.692 45.917,156.337 45.917,156.026L45.917,155.915C45.917,155.559 45.873,155.226 45.873,154.87C45.873,154.537 45.873,154.181 45.873,153.848L45.873,153.026C45.873,152.759 45.895,152.492 45.895,152.226C45.895,151.937 45.917,151.67 45.917,151.404L45.917,150.581C45.917,150.315 45.873,150.048 45.895,149.781C45.895,149.515 45.873,149.226 45.895,148.915C45.917,148.648 46.006,148.381 46.05,148.092C46.117,147.826 46.184,147.559 46.273,147.27C46.406,146.848 46.673,146.648 46.873,146.604C47.184,146.515 47.539,146.692 47.739,146.892C47.806,146.959 47.873,146.915 47.939,146.959C48.206,147.226 48.406,147.492 48.606,147.781C48.761,148.004 48.917,148.226 49.05,148.448C49.206,148.67 49.339,148.892 49.495,149.137C49.628,149.359 49.806,149.559 49.961,149.804C50.095,150.026 50.25,150.248 50.384,150.492C50.517,150.715 50.65,150.959 50.784,151.181L51.184,151.848C51.339,152.07 51.495,152.292 51.628,152.515C51.761,152.737 51.85,152.981 51.984,153.204C52.117,153.426 52.273,153.604 52.406,153.804C52.539,154.026 52.695,154.226 52.828,154.426C52.961,154.648 53.028,154.892 53.161,155.092C53.295,155.315 53.45,155.515 53.584,155.715L53.984,156.359C54.117,156.559 54.228,156.781 54.361,157.004C54.495,157.226 54.695,157.381 54.873,157.559C55.073,157.737 55.273,157.892 55.495,158.004C55.695,158.137 55.939,158.226 56.184,158.292C56.584,158.404 56.984,158.492 57.406,158.492C57.717,158.492 58.05,158.47 58.384,158.404C58.673,158.359 58.917,158.248 59.139,158.115C59.361,157.981 59.561,157.781 59.695,157.559C59.806,157.337 59.895,157.07 59.939,156.804L59.939,156.492C59.984,156.159 60.05,155.804 60.05,155.448C60.05,155.159 60.073,154.87 60.073,154.581C60.073,154.27 60.095,153.981 60.095,153.692L60.095,152.826C60.073,152.537 60.095,152.248 60.095,151.959C60.095,151.67 60.05,151.381 60.05,151.092C60.05,150.804 60.073,150.492 60.073,150.204C60.073,149.915 60.095,149.626 60.095,149.337C60.095,149.048 60.073,148.759 60.073,148.47C60.073,148.181 60.028,147.892 60.028,147.604C60.028,147.315 60.073,147.004 60.073,146.715C60.073,146.426 60.073,146.137 60.073,145.848L60.073,144.981C60.073,144.692 60.095,144.404 60.095,144.115L60.095,143.226C60.095,142.826 60.006,142.426 59.939,142.048Z" style="fill:white;fill-rule:nonzero;"/>
        <path d="M77.85,156.092C77.761,155.848 77.65,155.604 77.561,155.381C77.45,155.115 77.25,154.87 77.117,154.604C77.006,154.359 76.917,154.115 76.828,153.892C76.717,153.648 76.606,153.426 76.517,153.181C76.406,152.915 76.339,152.604 76.228,152.337C76.117,152.048 75.961,151.804 75.828,151.515L75.495,150.692C75.361,150.426 75.228,150.181 75.117,149.915C74.984,149.648 74.895,149.381 74.784,149.115C74.673,148.87 74.584,148.604 74.473,148.337C74.384,148.092 74.25,147.826 74.139,147.581C74.028,147.315 73.939,147.048 73.828,146.804C73.717,146.537 73.584,146.292 73.473,146.048C73.361,145.781 73.317,145.515 73.206,145.248C73.095,145.004 72.961,144.759 72.85,144.492C72.739,144.27 72.65,144.026 72.539,143.804C72.45,143.559 72.295,143.359 72.206,143.115L71.873,142.426C71.761,142.159 71.673,141.892 71.539,141.67C71.384,141.426 71.228,141.204 71.05,141.004C70.85,140.781 70.584,140.648 70.339,140.515C70.095,140.381 69.828,140.292 69.517,140.27C69.228,140.27 68.939,140.292 68.673,140.404C68.406,140.515 68.161,140.67 67.939,140.892C67.673,141.159 67.45,141.515 67.273,141.915C67.161,142.159 67.073,142.404 66.961,142.648L66.606,143.381C66.517,143.604 66.428,143.826 66.317,144.026C66.228,144.248 66.161,144.492 66.073,144.692C65.961,144.937 65.873,145.181 65.761,145.426C65.673,145.648 65.561,145.892 65.45,146.115C65.339,146.359 65.228,146.581 65.139,146.826C65.028,147.048 64.961,147.248 64.873,147.47C64.761,147.67 64.673,147.892 64.584,148.092C64.473,148.315 64.317,148.537 64.206,148.781C64.117,149.004 64.05,149.27 63.939,149.515C63.85,149.737 63.695,149.959 63.606,150.204C63.517,150.47 63.406,150.737 63.295,150.981C63.184,151.248 63.117,151.537 63.006,151.804L62.65,152.559C62.539,152.826 62.384,153.07 62.273,153.337C62.139,153.626 62.073,153.937 61.939,154.226C61.806,154.537 61.65,154.804 61.517,155.092C61.428,155.337 61.317,155.581 61.228,155.826C61.139,156.07 61.095,156.337 61.028,156.604C60.961,156.848 60.961,157.092 61.028,157.315C61.073,157.537 61.161,157.759 61.339,157.937C61.539,158.092 61.761,158.226 62.006,158.27C62.25,158.292 62.495,158.248 62.761,158.159C63.006,158.092 63.25,158.026 63.428,157.892C63.628,157.737 63.828,157.559 63.939,157.359C64.073,157.159 64.206,156.959 64.339,156.715C64.45,156.537 64.495,156.292 64.628,156.048C64.761,155.804 64.984,155.626 65.139,155.448C65.317,155.226 65.495,155.048 65.717,154.892C65.917,154.759 66.161,154.648 66.428,154.581C66.673,154.492 66.917,154.404 67.184,154.381C67.473,154.381 67.784,154.337 68.073,154.337C68.361,154.315 68.65,154.404 68.961,154.381C69.25,154.381 69.539,154.315 69.828,154.315C70.139,154.315 70.428,154.381 70.717,154.404C71.006,154.404 71.317,154.426 71.606,154.426C71.939,154.448 72.228,154.537 72.517,154.648C72.806,154.759 73.117,154.848 73.361,155.048C73.584,155.248 73.784,155.515 73.961,155.781L73.961,155.826C74.139,156.092 74.273,156.359 74.406,156.626C74.517,156.892 74.65,157.115 74.806,157.292C74.984,157.515 75.228,157.648 75.406,157.804C75.584,157.959 75.717,158.137 75.917,158.204C76.139,158.292 76.361,158.292 76.584,158.292C76.628,158.292 76.673,158.337 76.695,158.315C77.095,158.292 77.406,158.115 77.628,157.87C77.85,157.626 77.961,157.292 77.961,156.892C77.961,156.87 78.006,156.87 78.006,156.848C77.984,156.604 77.917,156.337 77.85,156.092ZM71.428,150.137C71.428,150.492 71.406,150.781 71.25,151.004C71.095,151.248 70.85,151.404 70.517,151.537C70.161,151.715 69.739,151.804 69.339,151.781L69.339,151.737C69.339,151.737 69.339,151.804 69.317,151.804C68.895,151.804 68.561,151.737 68.273,151.604C67.895,151.47 67.584,151.27 67.406,151.004C67.228,150.715 67.139,150.359 67.139,149.959C67.139,149.67 67.206,149.359 67.295,149.026C67.384,148.737 67.473,148.448 67.606,148.137C67.739,147.892 67.873,147.648 68.028,147.404C68.161,147.181 68.295,146.937 68.495,146.737C68.806,146.426 69.139,146.426 69.384,146.448C69.717,146.47 70.006,146.604 70.206,146.87C70.428,147.159 70.606,147.448 70.761,147.737C70.939,148.048 71.117,148.337 71.228,148.67C71.317,148.937 71.384,149.159 71.428,149.381C71.473,149.648 71.428,149.892 71.428,150.137Z" style="fill:white;fill-rule:nonzero;"/>
        <path d="M81.073,158.426C81.228,158.426 81.384,158.492 81.539,158.492C82.139,158.492 82.139,158.448 82.739,158.448C83.161,158.448 83.561,158.492 83.961,158.492L84.828,158.492C85.095,158.492 85.384,158.426 85.673,158.426C85.961,158.426 86.25,158.492 86.539,158.492C86.828,158.492 87.117,158.448 87.384,158.448C87.695,158.448 88.028,158.404 88.384,158.337C88.761,158.27 89.095,158.115 89.339,157.826C89.584,157.515 89.673,157.159 89.606,156.781C89.539,156.426 89.339,156.115 89.006,155.915C88.828,155.826 88.628,155.737 88.406,155.692C88.161,155.648 87.917,155.626 87.65,155.604C87.406,155.559 87.139,155.492 86.873,155.515C86.65,155.515 86.428,155.559 86.206,155.559C85.984,155.559 85.761,155.492 85.539,155.492C85.206,155.492 85.206,155.537 84.85,155.537C84.517,155.537 84.228,155.448 83.917,155.359C83.628,155.292 83.384,155.204 83.184,155.07C82.961,154.915 82.739,154.759 82.584,154.537C82.45,154.337 82.317,154.092 82.25,153.804C82.184,153.581 82.206,153.359 82.184,153.137C82.161,152.915 82.161,152.692 82.161,152.47C82.161,152.07 82.139,152.07 82.139,151.67L82.139,150.87C82.139,150.47 82.161,150.47 82.161,150.07C82.161,149.804 82.139,149.537 82.139,149.27C82.139,148.981 82.117,148.715 82.117,148.448L82.117,147.626C82.117,147.337 82.139,147.07 82.139,146.804C82.139,146.537 82.117,146.248 82.117,145.981C82.117,145.715 82.184,145.426 82.184,145.159C82.184,144.892 82.161,144.626 82.161,144.337L82.161,143.515C82.161,143.226 82.139,142.915 82.095,142.626L82.028,141.737C81.961,141.359 81.806,141.026 81.539,140.759C81.361,140.581 81.139,140.47 80.917,140.404C80.695,140.337 80.45,140.337 80.228,140.381C79.984,140.426 79.806,140.537 79.628,140.692C79.45,140.826 79.25,140.981 79.161,141.204C79.05,141.426 79.05,141.67 79.006,141.892C78.984,142.159 78.917,142.381 78.917,142.604C78.917,142.87 78.895,143.159 78.895,143.426C78.895,143.692 78.917,143.959 78.917,144.226C78.917,144.492 78.961,144.781 78.961,145.048C78.961,145.315 78.984,145.581 78.984,145.848L78.984,147.492C78.984,147.937 78.917,147.937 78.917,148.381L78.917,149.27C78.917,149.715 78.939,149.715 78.939,150.159C78.939,150.604 78.961,150.604 78.961,151.07C78.961,151.515 78.939,151.515 78.939,151.959L78.939,152.848C78.939,153.292 78.895,153.292 78.895,153.759C78.895,154.204 78.939,154.204 78.939,154.648C78.939,155.092 78.961,155.092 78.961,155.537C78.961,155.781 78.961,156.026 78.984,156.292C78.984,156.604 78.984,156.892 79.073,157.137C79.161,157.426 79.339,157.648 79.539,157.848C79.717,158.048 79.961,158.204 80.25,158.292C80.495,158.381 80.761,158.404 81.073,158.426Z" style="fill:white;fill-rule:nonzero;"/>
        <path d="M100.895,140.204C100.584,140.204 100.295,140.292 100.006,140.404C99.739,140.515 99.473,140.67 99.273,140.892C99.095,141.092 98.873,141.292 98.695,141.537C98.561,141.737 98.495,141.959 98.361,142.159C98.228,142.359 98.05,142.515 97.939,142.715C97.873,142.826 97.895,142.87 97.828,142.981C97.673,143.204 97.495,143.426 97.361,143.67C97.228,143.915 97.05,144.137 96.917,144.359C96.761,144.604 96.628,144.826 96.45,145.048C96.228,145.315 96.05,145.559 95.806,145.692C95.539,145.87 95.295,145.981 95.028,145.981C94.784,145.981 94.539,145.826 94.273,145.648C93.917,145.426 93.65,145.137 93.406,144.781L92.873,143.848C92.561,143.315 92.517,143.359 92.184,142.826C92.05,142.604 91.961,142.359 91.828,142.115C91.695,141.892 91.517,141.67 91.384,141.448C91.25,141.226 91.073,141.048 90.895,140.87C90.695,140.692 90.517,140.492 90.295,140.381C90.073,140.27 89.806,140.204 89.561,140.137C89.295,140.07 89.028,140.092 88.806,140.137C88.561,140.181 88.361,140.337 88.184,140.515C88.028,140.692 87.873,140.915 87.85,141.181C87.828,141.404 87.917,141.648 88.006,141.892C88.095,142.159 88.184,142.426 88.384,142.737C88.517,142.937 88.695,143.137 88.85,143.359C88.984,143.581 89.095,143.826 89.228,144.048C89.384,144.248 89.495,144.492 89.65,144.692C89.806,144.959 90.028,145.181 90.206,145.448C90.361,145.692 90.517,145.981 90.695,146.226C90.85,146.492 91.05,146.737 91.228,147.004L91.561,147.559C91.717,147.759 91.85,147.981 91.984,148.181C92.117,148.381 92.206,148.626 92.339,148.848C92.473,149.048 92.561,149.292 92.673,149.515C92.806,149.804 92.961,150.092 93.05,150.381C93.161,150.715 93.25,151.004 93.317,151.315C93.361,151.648 93.384,151.959 93.384,152.292L93.384,153.226C93.384,153.67 93.339,153.67 93.339,154.115L93.406,154.115C93.406,154.448 93.361,154.759 93.361,155.092C93.361,155.359 93.339,155.626 93.384,155.87C93.406,156.137 93.45,156.404 93.473,156.648C93.495,156.67 93.539,156.67 93.539,156.692C93.606,157.07 93.784,157.381 94.028,157.604C94.273,157.848 94.584,157.959 94.961,157.981L95.05,158.004C95.428,158.004 95.761,157.915 96.006,157.692C96.25,157.492 96.384,157.159 96.473,156.781C96.561,156.426 96.606,156.07 96.606,155.759C96.628,155.537 96.584,155.315 96.584,155.115L96.584,154.448C96.584,154.159 96.561,153.848 96.561,153.559C96.561,153.248 96.584,152.959 96.584,152.67C96.584,152.337 96.606,152.026 96.628,151.737C96.673,151.426 96.717,151.115 96.784,150.826C96.85,150.537 96.961,150.248 97.073,149.959C97.184,149.67 97.339,149.404 97.495,149.159C97.65,148.892 97.806,148.648 97.961,148.404C98.117,148.159 98.273,147.915 98.428,147.648C98.584,147.404 98.717,147.159 98.873,146.915L99.361,146.159C99.539,145.915 99.695,145.67 99.85,145.426C100.006,145.181 100.184,144.959 100.361,144.715C100.495,144.492 100.65,144.292 100.806,144.07C100.939,143.848 101.028,143.604 101.161,143.381C101.25,143.27 101.273,143.292 101.361,143.181C101.495,142.981 101.584,142.781 101.695,142.581C101.828,142.381 101.917,142.159 102.028,141.959C102.273,141.359 102.206,140.937 102.05,140.715C101.895,140.492 101.539,140.226 100.895,140.204Z" style="fill:white;fill-rule:nonzero;"/>
        <path d="M114.961,154.426C115.05,154.115 115.05,153.781 115.05,153.492C115.073,153.159 115.095,152.848 115.095,152.559C115.073,152.226 115.006,151.915 114.939,151.604C114.85,151.292 114.806,150.959 114.65,150.692C114.495,150.404 114.273,150.159 114.05,149.915C113.85,149.67 113.606,149.448 113.339,149.27C113.05,149.07 112.784,148.892 112.495,148.759C112.206,148.604 111.895,148.492 111.606,148.404C111.273,148.292 110.961,148.115 110.628,148.004C110.25,147.87 109.873,147.781 109.495,147.648C109.273,147.581 109.028,147.47 108.784,147.381C108.561,147.27 108.361,147.115 108.161,146.981C107.85,146.804 107.584,146.648 107.384,146.448C107.139,146.226 106.939,145.981 106.828,145.715C106.717,145.448 106.673,145.159 106.673,144.892C106.673,144.626 106.717,144.337 106.806,144.092C106.917,143.848 107.073,143.604 107.25,143.404C107.428,143.204 107.673,143.07 107.917,142.937C108.161,142.804 108.406,142.715 108.65,142.648C108.917,142.581 109.161,142.515 109.428,142.492C109.695,142.492 109.961,142.448 110.228,142.47C110.339,142.492 110.317,142.537 110.428,142.559C110.717,142.604 111.006,142.67 111.317,142.715C111.65,142.737 112.028,142.67 112.45,142.67C112.695,142.67 112.939,142.648 113.139,142.537C113.339,142.426 113.495,142.248 113.65,142.026C113.828,141.781 113.917,141.537 113.895,141.27C113.895,141.004 113.784,140.759 113.561,140.537C113.406,140.381 113.206,140.27 113.028,140.159C112.828,140.048 112.65,139.892 112.45,139.826C112.161,139.759 111.85,139.737 111.539,139.692C111.25,139.626 110.939,139.581 110.65,139.559C110.339,139.537 110.028,139.47 109.739,139.47C109.428,139.47 109.117,139.537 108.828,139.581C108.517,139.626 108.206,139.626 107.917,139.692C107.628,139.759 107.339,139.915 107.05,140.004C106.784,140.092 106.495,140.204 106.206,140.337C105.961,140.448 105.739,140.581 105.517,140.715C105.295,140.848 105.05,140.981 104.873,141.137C104.65,141.315 104.45,141.492 104.295,141.692C104.095,141.892 103.984,142.159 103.828,142.381C103.695,142.626 103.517,142.848 103.406,143.115C103.295,143.359 103.295,143.648 103.228,143.937C103.161,144.204 103.117,144.47 103.095,144.759C103.073,145.026 103.073,145.292 103.073,145.581C103.095,145.915 103.139,146.226 103.228,146.515C103.317,146.826 103.495,147.092 103.65,147.359C103.806,147.626 103.984,147.892 104.206,148.115C104.428,148.359 104.673,148.581 104.961,148.781C105.228,148.959 105.495,149.159 105.806,149.315C106.095,149.448 106.406,149.581 106.739,149.692C106.984,149.804 107.206,149.937 107.45,150.026C107.695,150.115 107.961,150.181 108.206,150.27C108.406,150.337 108.606,150.448 108.806,150.515C109.006,150.604 109.228,150.67 109.428,150.737C109.761,150.87 110.073,151.004 110.361,151.204C110.65,151.404 110.917,151.626 111.139,151.892C111.339,152.115 111.473,152.381 111.539,152.67C111.628,152.959 111.673,153.27 111.65,153.559C111.606,153.87 111.473,154.137 111.317,154.381C111.117,154.648 110.895,154.87 110.673,155.048C110.428,155.248 110.161,155.448 109.873,155.559C109.606,155.648 109.317,155.626 109.028,155.67C108.761,155.692 108.495,155.759 108.206,155.737C107.939,155.715 107.673,155.626 107.384,155.559C107.117,155.515 106.873,155.448 106.606,155.359L106.25,155.226C105.984,155.159 105.739,155.181 105.495,155.159C105.228,155.137 104.984,155.137 104.739,155.181C104.45,155.248 104.184,155.337 103.984,155.515C103.806,155.692 103.628,155.937 103.539,156.226C103.473,156.515 103.561,156.759 103.65,156.981C103.761,157.27 104.006,157.47 104.095,157.559C104.228,157.67 104.384,157.759 104.539,157.848C104.739,157.959 104.939,158.07 105.139,158.159C105.361,158.248 105.539,158.381 105.761,158.426C106.006,158.492 106.273,158.492 106.539,158.537C106.806,158.581 107.05,158.648 107.317,158.67C107.584,158.692 107.85,158.626 108.117,158.626C108.317,158.626 108.539,158.648 108.761,158.648C108.85,158.648 108.85,158.604 108.917,158.604C109.028,158.604 109.139,158.67 109.273,158.67C109.561,158.648 109.85,158.626 110.139,158.581C110.45,158.537 110.717,158.448 111.006,158.359C111.295,158.27 111.539,158.115 111.806,157.981C112.05,157.848 112.339,157.781 112.561,157.648C112.806,157.492 112.984,157.292 113.206,157.115C113.428,156.937 113.65,156.781 113.828,156.581C114.006,156.381 114.139,156.137 114.273,155.892C114.428,155.67 114.584,155.448 114.695,155.204C114.806,154.937 114.895,154.692 114.961,154.426Z" style="fill:white;fill-rule:nonzero;"/>
        <path d="M118.006,158.404C118.25,158.426 118.473,158.426 118.717,158.426C118.739,158.426 118.739,158.448 118.761,158.448C119.05,158.448 119.317,158.426 119.584,158.426C119.85,158.426 120.117,158.47 120.384,158.47C120.695,158.47 121.006,158.448 121.317,158.448L122.206,158.448C122.65,158.448 122.65,158.426 123.095,158.426C123.539,158.426 123.539,158.47 123.984,158.47C124.45,158.47 124.45,158.448 124.895,158.448C125.339,158.448 125.339,158.47 125.784,158.47L125.828,158.47C125.873,158.47 125.917,158.448 125.961,158.448C126.073,158.448 126.073,158.448 126.206,158.448L126.85,158.381C127.184,158.337 127.495,158.204 127.739,157.981C128.073,157.67 128.273,157.248 128.228,156.826C128.161,156.404 127.85,156.07 127.428,155.87C127.228,155.781 127.05,155.715 126.85,155.67C126.584,155.626 126.339,155.559 126.095,155.537C125.828,155.515 125.584,155.492 125.339,155.492L124.361,155.492C124.05,155.492 123.717,155.559 123.406,155.559C123.006,155.559 122.628,155.492 122.228,155.492C122.161,155.492 122.073,155.537 122.006,155.537C121.517,155.537 121.095,155.47 120.739,155.337C120.428,155.226 120.184,155.048 119.961,154.848C119.739,154.648 119.606,154.381 119.495,154.07C119.361,153.715 119.295,153.404 119.295,153.137C119.317,152.804 119.295,152.492 119.339,152.248C119.428,151.937 119.561,151.67 119.739,151.448C119.895,151.226 120.117,151.048 120.406,150.892C120.628,150.781 120.917,150.67 121.228,150.626C121.517,150.581 121.784,150.581 122.05,150.559C122.339,150.515 122.606,150.537 122.873,150.537C123.184,150.537 123.495,150.47 123.806,150.47C124.117,150.47 124.406,150.537 124.717,150.537C124.85,150.537 124.85,150.515 124.984,150.515C125.228,150.515 125.45,150.47 125.695,150.426C125.939,150.381 126.161,150.315 126.361,150.226C126.584,150.115 126.784,149.981 126.917,149.804C127.05,149.604 127.184,149.404 127.184,149.137C127.184,148.87 127.05,148.648 126.917,148.426C126.761,148.248 126.584,148.092 126.317,147.981C126.05,147.848 125.784,147.804 125.584,147.759C125.361,147.737 125.161,147.67 124.961,147.67C124.917,147.67 124.917,147.737 124.873,147.737C124.628,147.737 124.361,147.692 124.117,147.692L123.339,147.692C123.073,147.692 122.828,147.67 122.561,147.67C122.206,147.67 121.895,147.692 121.584,147.648C121.25,147.604 120.939,147.559 120.65,147.448C120.384,147.359 120.161,147.226 119.984,147.07C119.806,146.892 119.717,146.67 119.606,146.448C119.517,146.226 119.428,146.004 119.406,145.737C119.406,145.626 119.428,145.515 119.428,145.404C119.428,145.337 119.384,145.248 119.384,145.181C119.384,144.826 119.45,144.492 119.584,144.204C119.717,143.892 119.961,143.648 120.25,143.448C120.517,143.292 120.85,143.226 121.206,143.159C121.539,143.115 121.828,143.048 122.139,143.026C122.45,142.981 122.761,142.981 123.073,142.981L123.806,142.981C124.05,142.981 124.273,142.959 124.517,142.959C124.761,142.959 125.006,143.026 125.25,143.026C125.495,143.026 125.495,142.937 125.761,142.937C126.117,142.937 126.517,142.937 126.939,142.737C127.161,142.626 127.317,142.47 127.45,142.292C127.584,142.092 127.717,141.892 127.739,141.67C127.761,141.448 127.695,141.204 127.561,140.959C127.45,140.781 127.273,140.648 127.006,140.492C126.784,140.359 126.561,140.248 126.384,140.204C126.161,140.137 125.939,140.159 125.717,140.137C125.495,140.115 125.273,140.092 125.05,140.092C124.761,140.092 124.473,140.048 124.184,140.048C123.895,140.048 123.628,140.07 123.339,140.07C123.05,140.07 122.761,140.092 122.473,140.092C122.184,140.092 121.895,140.048 121.628,140.048C121.339,140.048 121.05,140.026 120.761,140.026C120.473,140.026 120.184,140.048 119.895,140.048C119.628,140.048 119.339,140.092 119.05,140.092L119.028,140.092C118.784,140.092 118.517,140.07 118.273,140.115C118.006,140.137 117.761,140.204 117.539,140.248C117.161,140.337 116.806,140.448 116.584,140.692C116.339,140.937 116.206,141.27 116.117,141.648C116.073,141.915 116.05,142.204 116.05,142.515C116.05,142.826 116.006,143.115 116.006,143.426C116.006,143.715 116.028,144.004 116.028,144.315C116.028,144.604 116.006,144.915 116.006,145.204L116.006,146.115C116.006,146.404 116.05,146.715 116.05,147.004C116.05,147.292 116.028,147.604 116.028,147.892C116.028,148.204 116.05,148.492 116.05,148.804L116.05,149.692C116.05,149.981 115.984,150.292 115.984,150.581C115.984,150.892 116.073,151.181 116.073,151.492C116.073,151.781 116.05,152.092 116.05,152.381C116.05,152.67 116.073,152.981 116.073,153.27C116.073,153.581 116.006,153.87 116.006,154.181C116.006,154.47 115.984,154.781 115.984,155.07C115.984,155.381 116.073,155.67 116.073,155.959C116.073,156.181 116.006,156.359 116.028,156.537C116.073,156.892 116.206,157.204 116.361,157.448C116.539,157.759 116.761,157.981 117.05,158.159C117.317,158.292 117.65,158.381 118.006,158.404Z" style="fill:white;fill-rule:nonzero;"/>
        <path d="M43.295,176.648C43.384,176.337 43.384,176.004 43.384,175.715C43.406,175.381 43.428,175.07 43.428,174.781C43.406,174.448 43.339,174.137 43.273,173.826C43.184,173.515 43.139,173.181 42.984,172.915C42.828,172.626 42.606,172.381 42.384,172.137C42.184,171.892 41.939,171.67 41.673,171.492C41.384,171.292 41.117,171.115 40.828,170.981C40.539,170.826 40.228,170.715 39.939,170.626C39.606,170.515 39.295,170.337 38.961,170.226C38.584,170.092 38.206,170.004 37.828,169.87C37.606,169.804 37.361,169.692 37.117,169.604C36.895,169.492 36.695,169.337 36.495,169.204C36.184,169.026 35.917,168.87 35.717,168.67C35.473,168.448 35.273,168.204 35.161,167.937C35.05,167.67 35.006,167.381 35.006,167.115C35.006,166.848 35.05,166.559 35.139,166.315C35.25,166.07 35.406,165.826 35.584,165.626C35.761,165.426 36.006,165.292 36.25,165.159C36.495,165.026 36.739,164.937 36.984,164.87C37.25,164.804 37.495,164.737 37.761,164.715C38.028,164.715 38.295,164.67 38.561,164.692C38.673,164.715 38.65,164.759 38.761,164.781C39.05,164.826 39.339,164.892 39.65,164.937C39.984,164.959 40.361,164.892 40.784,164.892C41.028,164.892 41.273,164.87 41.473,164.759C41.673,164.648 41.828,164.47 41.984,164.248C42.161,164.004 42.25,163.759 42.228,163.492C42.228,163.226 42.117,162.981 41.895,162.759C41.739,162.604 41.539,162.492 41.361,162.381C41.161,162.27 40.984,162.115 40.784,162.048C40.495,161.981 40.184,161.959 39.873,161.915C39.584,161.848 39.273,161.804 38.984,161.781C38.673,161.759 38.361,161.692 38.073,161.692C37.761,161.692 37.45,161.759 37.161,161.804C36.85,161.848 36.539,161.848 36.25,161.915C35.961,161.981 35.673,162.137 35.384,162.226C35.117,162.315 34.828,162.426 34.539,162.559C34.295,162.67 34.073,162.804 33.85,162.937C33.628,163.07 33.384,163.204 33.206,163.359C32.984,163.537 32.784,163.715 32.628,163.915C32.428,164.115 32.317,164.381 32.161,164.604C32.028,164.848 31.85,165.07 31.739,165.337C31.628,165.581 31.628,165.87 31.561,166.159C31.495,166.426 31.45,166.692 31.428,166.981C31.406,167.248 31.406,167.515 31.406,167.804C31.428,168.137 31.473,168.448 31.561,168.737C31.65,169.048 31.828,169.315 31.984,169.581C32.139,169.848 32.317,170.115 32.539,170.337C32.761,170.581 33.006,170.804 33.295,171.004C33.561,171.181 33.828,171.381 34.139,171.537C34.428,171.67 34.739,171.804 35.073,171.915C35.317,172.026 35.539,172.159 35.784,172.248C36.028,172.337 36.295,172.404 36.539,172.492C36.739,172.559 36.939,172.67 37.139,172.737C37.339,172.826 37.561,172.892 37.761,172.959C38.095,173.092 38.406,173.226 38.695,173.426C38.984,173.626 39.25,173.848 39.473,174.115C39.673,174.337 39.806,174.604 39.873,174.892C39.961,175.181 40.006,175.492 39.984,175.781C39.939,176.092 39.806,176.359 39.65,176.604C39.45,176.87 39.228,177.092 39.006,177.27C38.761,177.47 38.495,177.67 38.206,177.781C37.939,177.87 37.65,177.848 37.361,177.892C37.095,177.915 36.828,177.981 36.539,177.959C36.273,177.937 36.006,177.848 35.717,177.781C35.45,177.737 35.206,177.67 34.939,177.581L34.584,177.448C34.317,177.381 34.073,177.404 33.828,177.381C33.561,177.359 33.317,177.359 33.073,177.404C32.784,177.47 32.517,177.559 32.317,177.737C32.139,177.915 31.961,178.159 31.873,178.448C31.806,178.737 31.895,178.981 31.984,179.204C32.095,179.492 32.339,179.692 32.428,179.781C32.561,179.892 32.717,179.981 32.873,180.07C33.073,180.181 33.273,180.292 33.473,180.381C33.695,180.47 33.873,180.604 34.095,180.648C34.339,180.715 34.606,180.715 34.873,180.759C35.139,180.804 35.384,180.87 35.65,180.892C35.917,180.915 36.184,180.848 36.45,180.848C36.65,180.848 36.873,180.87 37.095,180.87C37.184,180.87 37.184,180.826 37.25,180.826C37.361,180.826 37.473,180.892 37.606,180.892C37.895,180.87 38.184,180.848 38.473,180.804C38.784,180.759 39.05,180.67 39.339,180.581C39.628,180.492 39.873,180.337 40.139,180.204C40.384,180.07 40.673,180.004 40.895,179.87C41.139,179.715 41.317,179.515 41.539,179.337C41.761,179.159 41.984,179.004 42.161,178.804C42.339,178.604 42.473,178.359 42.606,178.115C42.761,177.892 42.917,177.67 43.028,177.426C43.139,177.159 43.228,176.915 43.295,176.648Z" style="fill:white;fill-rule:nonzero;"/>
        <path d="M56.073,163.648C55.806,163.426 55.584,163.181 55.295,163.026C55.006,162.87 54.673,162.781 54.361,162.67C54.05,162.559 53.739,162.448 53.406,162.381C53.139,162.359 52.85,162.359 52.584,162.337C52.317,162.315 52.028,162.248 51.761,162.248C51.628,162.248 51.495,162.292 51.361,162.292C50.917,162.292 50.495,162.337 50.073,162.292C49.784,162.248 49.473,162.226 49.184,162.204C48.873,162.181 48.561,162.181 48.273,162.181C47.961,162.181 47.673,162.137 47.361,162.137C47.184,162.137 47.184,162.226 47.006,162.226C46.65,162.226 46.295,162.27 45.984,162.337C45.717,162.381 45.517,162.492 45.317,162.604C45.117,162.737 44.939,162.915 44.806,163.115C44.673,163.292 44.606,163.537 44.539,163.781C44.473,164.026 44.406,164.292 44.361,164.581C44.339,164.826 44.317,165.092 44.317,165.381C44.339,165.67 44.317,165.937 44.317,166.204C44.317,166.492 44.339,166.759 44.339,167.026C44.339,167.315 44.361,167.581 44.361,167.87C44.361,168.137 44.317,168.404 44.317,168.692C44.317,168.959 44.361,169.248 44.361,169.515C44.361,169.937 44.406,169.937 44.406,170.381C44.406,170.804 44.339,170.804 44.339,171.226L44.339,172.026C44.339,172.426 44.361,172.426 44.361,172.826L44.361,173.715C44.361,174.004 44.339,174.315 44.339,174.604C44.339,174.915 44.384,175.204 44.384,175.515C44.384,175.804 44.339,176.092 44.339,176.404C44.339,176.692 44.317,177.004 44.317,177.292C44.317,177.581 44.339,177.87 44.384,178.181C44.406,178.448 44.473,178.715 44.539,179.026C44.606,179.381 44.828,179.67 45.073,179.892C45.339,180.092 45.65,180.27 46.006,180.27C46.028,180.27 46.028,180.248 46.028,180.248C46.384,180.248 46.717,180.181 46.961,179.981C47.184,179.804 47.339,179.492 47.45,179.159C47.561,178.804 47.606,178.47 47.606,178.159C47.606,178.048 47.539,178.048 47.539,177.937C47.539,177.692 47.606,177.426 47.606,177.181C47.606,176.915 47.584,176.67 47.584,176.426C47.584,176.115 47.539,175.826 47.584,175.537C47.628,175.248 47.761,174.981 47.828,174.692C47.917,174.381 48.006,174.137 48.139,173.915C48.295,173.67 48.473,173.448 48.717,173.292C48.939,173.159 49.206,173.07 49.495,173.004C49.784,172.937 50.095,172.915 50.384,172.915C50.673,172.892 50.961,172.892 51.273,172.87L51.295,172.87C51.561,172.87 51.85,172.826 52.117,172.804C52.406,172.781 52.673,172.781 52.961,172.759C53.228,172.715 53.517,172.715 53.784,172.648C54.05,172.581 54.317,172.492 54.584,172.381C54.85,172.292 55.117,172.159 55.361,172.026C55.628,171.892 55.873,171.737 56.095,171.581C56.317,171.381 56.495,171.159 56.673,170.937C56.85,170.715 57.05,170.515 57.206,170.248C57.339,170.004 57.428,169.737 57.517,169.448C57.606,169.181 57.65,168.915 57.695,168.604C57.739,168.359 57.806,168.115 57.806,167.848C57.828,167.604 57.828,167.337 57.806,167.092C57.806,166.826 57.739,166.581 57.695,166.315C57.65,166.048 57.584,165.804 57.495,165.537C57.406,165.292 57.317,165.026 57.184,164.804C57.05,164.581 56.895,164.337 56.717,164.137C56.539,163.937 56.295,163.826 56.073,163.648ZM54.206,167.915C54.184,168.181 54.028,168.426 53.939,168.648C53.828,168.87 53.717,169.115 53.517,169.292C53.339,169.47 53.117,169.581 52.873,169.715C52.628,169.848 52.428,170.004 52.184,170.092C51.917,170.181 51.65,170.204 51.406,170.248C51.139,170.315 50.895,170.359 50.628,170.381C50.361,170.381 50.095,170.404 49.828,170.359C49.584,170.315 49.317,170.226 49.073,170.137C48.739,170.026 48.473,169.848 48.25,169.604C48.05,169.359 47.961,169.048 47.85,168.692C47.739,168.359 47.673,168.004 47.65,167.604C47.65,167.581 47.695,167.581 47.695,167.559L47.695,167.292C47.695,167.092 47.717,166.915 47.739,166.737C47.784,166.426 47.85,166.137 47.984,165.892C48.139,165.626 48.361,165.426 48.606,165.248C48.85,165.092 49.117,164.981 49.428,164.915C49.717,164.87 50.006,164.826 50.295,164.826C50.606,164.804 50.873,164.804 51.161,164.848C51.45,164.87 51.739,164.915 52.028,165.004C52.295,165.092 52.561,165.248 52.806,165.381C53.05,165.515 53.273,165.648 53.45,165.804C53.628,166.004 53.828,166.181 53.939,166.404C54.073,166.626 54.073,166.892 54.117,167.159C54.161,167.381 54.25,167.648 54.206,167.915Z" style="fill:white;fill-rule:nonzero;"/>
        <path d="M60.739,180.626C60.984,180.648 61.206,180.648 61.45,180.648C61.473,180.648 61.473,180.67 61.495,180.67C61.784,180.67 62.05,180.648 62.317,180.648C62.584,180.648 62.85,180.692 63.117,180.692C63.428,180.692 63.739,180.67 64.05,180.67L64.939,180.67C65.384,180.67 65.384,180.648 65.828,180.648C66.273,180.648 66.273,180.692 66.717,180.692C67.184,180.692 67.184,180.67 67.628,180.67C68.073,180.67 68.073,180.692 68.517,180.692L68.561,180.692C68.606,180.692 68.65,180.67 68.695,180.67C68.806,180.67 68.806,180.67 68.939,180.67L69.584,180.604C69.917,180.559 70.228,180.426 70.473,180.204C70.806,179.892 71.006,179.47 70.961,179.048C70.895,178.626 70.584,178.292 70.161,178.092C69.961,178.004 69.784,177.937 69.584,177.892C69.317,177.848 69.073,177.781 68.828,177.759C68.561,177.737 68.317,177.715 68.073,177.715L67.095,177.715C66.784,177.715 66.45,177.781 66.139,177.781C65.739,177.781 65.361,177.715 64.961,177.715C64.895,177.715 64.806,177.759 64.739,177.759C64.25,177.759 63.828,177.692 63.473,177.559C63.161,177.448 62.917,177.27 62.695,177.07C62.473,176.87 62.339,176.604 62.228,176.292C62.095,175.937 62.028,175.626 62.028,175.359C62.05,175.026 62.028,174.715 62.073,174.47C62.161,174.159 62.295,173.892 62.473,173.67C62.628,173.448 62.85,173.27 63.139,173.115C63.361,173.004 63.65,172.892 63.961,172.848C64.25,172.804 64.517,172.804 64.784,172.781C65.073,172.737 65.339,172.759 65.606,172.759C65.917,172.759 66.228,172.692 66.539,172.692C66.85,172.692 67.139,172.759 67.45,172.759C67.584,172.759 67.584,172.737 67.717,172.737C67.961,172.737 68.184,172.692 68.428,172.648C68.673,172.604 68.895,172.537 69.095,172.448C69.317,172.337 69.517,172.204 69.65,172.026C69.784,171.826 69.917,171.626 69.917,171.359C69.917,171.092 69.784,170.87 69.65,170.648C69.495,170.47 69.317,170.315 69.05,170.204C68.784,170.07 68.517,170.026 68.317,169.981C68.095,169.959 67.895,169.892 67.695,169.892C67.65,169.892 67.65,169.959 67.606,169.959C67.361,169.959 67.095,169.915 66.85,169.915L66.073,169.915C65.806,169.915 65.561,169.892 65.295,169.892C64.939,169.892 64.628,169.915 64.317,169.87C63.984,169.826 63.673,169.781 63.384,169.67C63.117,169.581 62.895,169.448 62.717,169.292C62.539,169.115 62.45,168.892 62.339,168.67C62.25,168.448 62.161,168.226 62.139,167.959C62.139,167.848 62.161,167.737 62.161,167.626C62.161,167.559 62.117,167.47 62.117,167.404C62.117,167.048 62.184,166.715 62.317,166.426C62.45,166.115 62.695,165.87 62.984,165.67C63.25,165.515 63.584,165.448 63.939,165.381C64.273,165.337 64.561,165.27 64.873,165.248C65.184,165.204 65.495,165.204 65.806,165.204L66.539,165.204C66.784,165.204 67.006,165.181 67.25,165.181C67.495,165.181 67.739,165.248 67.984,165.248C68.228,165.248 68.228,165.159 68.495,165.159C68.85,165.159 69.25,165.159 69.673,164.959C69.895,164.848 70.05,164.692 70.184,164.515C70.317,164.315 70.45,164.115 70.473,163.892C70.495,163.67 70.428,163.426 70.295,163.181C70.184,163.004 70.006,162.87 69.739,162.715C69.517,162.581 69.295,162.47 69.117,162.426C68.895,162.359 68.673,162.381 68.45,162.359C68.228,162.337 68.006,162.315 67.784,162.315C67.495,162.315 67.206,162.27 66.917,162.27C66.628,162.27 66.361,162.292 66.073,162.292C65.784,162.292 65.495,162.315 65.206,162.315C64.917,162.315 64.628,162.27 64.361,162.27C64.073,162.27 63.784,162.248 63.495,162.248C63.206,162.248 62.917,162.27 62.628,162.27C62.361,162.27 62.073,162.315 61.784,162.315L61.761,162.315C61.517,162.315 61.25,162.292 61.006,162.337C60.739,162.359 60.495,162.426 60.273,162.47C59.895,162.559 59.539,162.67 59.317,162.915C59.073,163.159 58.939,163.492 58.85,163.87C58.806,164.137 58.784,164.426 58.784,164.737C58.784,165.048 58.739,165.337 58.739,165.648C58.739,165.937 58.761,166.226 58.761,166.537C58.761,166.826 58.739,167.137 58.739,167.426L58.739,168.337C58.739,168.626 58.784,168.937 58.784,169.226C58.784,169.515 58.761,169.826 58.761,170.115C58.761,170.426 58.784,170.715 58.784,171.026L58.784,171.915C58.784,172.204 58.717,172.515 58.717,172.804C58.717,173.115 58.806,173.404 58.806,173.715C58.806,174.004 58.784,174.315 58.784,174.604C58.784,174.892 58.806,175.204 58.806,175.492C58.806,175.804 58.739,176.092 58.739,176.404C58.739,176.692 58.717,177.004 58.717,177.292C58.717,177.604 58.806,177.892 58.806,178.181C58.806,178.404 58.739,178.581 58.761,178.759C58.806,179.115 58.939,179.426 59.095,179.67C59.273,179.981 59.495,180.204 59.784,180.381C60.05,180.515 60.384,180.604 60.739,180.626Z" style="fill:white;fill-rule:nonzero;"/>
        <path d="M73.65,180.626C73.895,180.648 74.117,180.648 74.361,180.648C74.384,180.648 74.384,180.67 74.406,180.67C74.695,180.67 74.961,180.648 75.228,180.648C75.495,180.648 75.761,180.692 76.028,180.692C76.339,180.692 76.65,180.67 76.961,180.67L77.85,180.67C78.295,180.67 78.295,180.648 78.739,180.648C79.184,180.648 79.184,180.692 79.628,180.692C80.095,180.692 80.095,180.67 80.539,180.67C80.984,180.67 80.984,180.692 81.428,180.692L81.473,180.692C81.517,180.692 81.561,180.67 81.606,180.67C81.717,180.67 81.717,180.67 81.85,180.67L82.495,180.604C82.828,180.559 83.139,180.426 83.384,180.204C83.717,179.892 83.917,179.47 83.873,179.048C83.806,178.626 83.495,178.292 83.073,178.092C82.873,178.004 82.695,177.937 82.495,177.892C82.228,177.848 81.984,177.781 81.739,177.759C81.473,177.737 81.228,177.715 80.984,177.715L80.006,177.715C79.695,177.715 79.361,177.781 79.05,177.781C78.65,177.781 78.273,177.715 77.873,177.715C77.806,177.715 77.717,177.759 77.65,177.759C77.161,177.759 76.739,177.692 76.384,177.559C76.073,177.448 75.828,177.27 75.606,177.07C75.384,176.87 75.25,176.604 75.139,176.292C75.006,175.937 74.939,175.626 74.939,175.359C74.961,175.026 74.939,174.715 74.984,174.47C75.073,174.159 75.206,173.892 75.384,173.67C75.539,173.448 75.761,173.27 76.05,173.115C76.273,173.004 76.561,172.892 76.873,172.848C77.161,172.804 77.428,172.804 77.695,172.781C77.984,172.737 78.25,172.759 78.517,172.759C78.828,172.759 79.139,172.692 79.45,172.692C79.761,172.692 80.05,172.759 80.361,172.759C80.495,172.759 80.495,172.737 80.628,172.737C80.873,172.737 81.095,172.692 81.339,172.648C81.584,172.604 81.806,172.537 82.006,172.448C82.228,172.337 82.428,172.204 82.561,172.026C82.695,171.826 82.828,171.626 82.828,171.359C82.828,171.092 82.695,170.87 82.561,170.648C82.406,170.47 82.228,170.315 81.961,170.204C81.695,170.07 81.428,170.026 81.228,169.981C81.006,169.959 80.806,169.892 80.606,169.892C80.561,169.892 80.561,169.959 80.517,169.959C80.273,169.959 80.006,169.915 79.761,169.915L78.984,169.915C78.717,169.915 78.473,169.892 78.206,169.892C77.85,169.892 77.539,169.915 77.228,169.87C76.895,169.826 76.584,169.781 76.295,169.67C76.028,169.581 75.806,169.448 75.628,169.292C75.45,169.115 75.361,168.892 75.25,168.67C75.161,168.448 75.073,168.226 75.05,167.959C75.05,167.848 75.073,167.737 75.073,167.626C75.073,167.559 75.028,167.47 75.028,167.404C75.028,167.048 75.095,166.715 75.228,166.426C75.361,166.115 75.606,165.87 75.895,165.67C76.161,165.515 76.495,165.448 76.85,165.381C77.184,165.337 77.473,165.27 77.784,165.248C78.095,165.204 78.406,165.204 78.717,165.204L79.45,165.204C79.695,165.204 79.917,165.181 80.161,165.181C80.406,165.181 80.65,165.248 80.895,165.248C81.139,165.248 81.139,165.159 81.406,165.159C81.761,165.159 82.161,165.159 82.584,164.959C82.806,164.848 82.961,164.692 83.095,164.515C83.228,164.315 83.361,164.115 83.384,163.892C83.406,163.67 83.339,163.426 83.206,163.181C83.095,163.004 82.917,162.87 82.65,162.715C82.428,162.581 82.206,162.47 82.028,162.426C81.806,162.359 81.584,162.381 81.361,162.359C81.139,162.337 80.917,162.315 80.695,162.315C80.406,162.315 80.117,162.27 79.828,162.27C79.539,162.27 79.273,162.292 78.984,162.292C78.695,162.292 78.406,162.315 78.117,162.315C77.828,162.315 77.539,162.27 77.273,162.27C76.984,162.27 76.695,162.248 76.406,162.248C76.117,162.248 75.828,162.27 75.539,162.27C75.273,162.27 74.984,162.315 74.695,162.315L74.673,162.315C74.428,162.315 74.161,162.292 73.917,162.337C73.65,162.359 73.406,162.426 73.184,162.47C72.806,162.559 72.45,162.67 72.228,162.915C71.984,163.159 71.85,163.492 71.761,163.87C71.717,164.137 71.695,164.426 71.695,164.737C71.695,165.048 71.65,165.337 71.65,165.648C71.65,165.937 71.673,166.226 71.673,166.537C71.673,166.826 71.65,167.137 71.65,167.426L71.65,168.337C71.65,168.626 71.695,168.937 71.695,169.226C71.695,169.515 71.673,169.826 71.673,170.115C71.673,170.426 71.695,170.715 71.695,171.026L71.695,171.915C71.695,172.204 71.628,172.515 71.628,172.804C71.628,173.115 71.717,173.404 71.717,173.715C71.717,174.004 71.695,174.315 71.695,174.604C71.695,174.892 71.717,175.204 71.717,175.492C71.717,175.804 71.65,176.092 71.65,176.404C71.65,176.692 71.628,177.004 71.628,177.292C71.628,177.604 71.717,177.892 71.717,178.181C71.717,178.404 71.65,178.581 71.673,178.759C71.717,179.115 71.85,179.426 72.006,179.67C72.184,179.981 72.406,180.204 72.695,180.381C72.961,180.515 73.295,180.604 73.65,180.626Z" style="fill:white;fill-rule:nonzero;"/>
        <path d="M85.295,175.537C85.384,175.781 85.45,176.048 85.584,176.27C85.695,176.515 85.873,176.715 86.006,176.937C86.139,177.159 86.295,177.359 86.45,177.559C86.628,177.781 86.739,178.026 86.917,178.204C87.095,178.404 87.295,178.559 87.495,178.737L88.228,179.248C88.473,179.404 88.717,179.581 88.961,179.715C89.228,179.87 89.473,180.048 89.739,180.159C90.006,180.292 90.295,180.381 90.561,180.492C90.828,180.604 91.139,180.648 91.406,180.715C91.695,180.804 91.984,180.892 92.273,180.937C92.561,180.981 92.85,181.07 93.139,181.092C93.428,181.115 93.739,181.092 94.028,181.092C94.295,181.092 94.561,181.07 94.828,181.048L95.65,180.981C95.917,180.937 96.184,180.915 96.45,180.848C96.717,180.804 96.961,180.715 97.228,180.626C97.561,180.537 97.873,180.381 98.184,180.226C98.473,180.048 98.761,179.848 99.028,179.626C99.25,179.404 99.428,179.204 99.495,178.959C99.584,178.692 99.561,178.426 99.473,178.137C99.361,177.848 99.206,177.648 98.984,177.492C98.784,177.337 98.539,177.204 98.228,177.181C97.939,177.159 97.65,177.204 97.406,177.248C97.117,177.292 96.828,177.337 96.584,177.448C96.384,177.559 96.184,177.626 95.961,177.715C95.761,177.781 95.561,177.87 95.317,177.937C94.939,178.048 94.606,178.159 94.295,178.181C93.917,178.226 93.561,178.181 93.228,178.115C92.939,178.07 92.673,178.004 92.406,177.915C92.139,177.826 91.828,177.804 91.584,177.692C91.317,177.581 91.073,177.404 90.85,177.248C90.606,177.115 90.384,176.937 90.161,176.737C89.961,176.559 89.784,176.337 89.584,176.115C89.406,175.915 89.25,175.67 89.095,175.426C88.939,175.204 88.784,174.959 88.65,174.692C88.539,174.448 88.428,174.204 88.317,173.915C88.228,173.648 88.139,173.359 88.095,173.048C88.028,172.759 88.006,172.47 88.006,172.137C87.984,171.848 87.961,171.559 87.961,171.226C87.961,170.915 88.006,170.604 88.05,170.315C88.095,170.004 88.161,169.692 88.25,169.404C88.317,169.115 88.45,168.826 88.561,168.559C88.695,168.27 88.784,167.959 88.939,167.715C89.117,167.448 89.295,167.204 89.517,166.959C89.695,166.737 89.939,166.537 90.161,166.315C90.406,166.115 90.606,165.87 90.873,165.715C91.139,165.537 91.406,165.381 91.695,165.27C91.961,165.137 92.273,165.07 92.584,165.004C92.873,164.937 93.184,164.848 93.495,164.826C93.784,164.804 94.095,164.87 94.428,164.892C94.739,164.915 95.073,164.915 95.406,164.981C95.695,165.048 96.006,165.204 96.339,165.315C96.628,165.404 96.895,165.448 97.139,165.492C97.428,165.515 97.695,165.47 97.939,165.404C98.206,165.359 98.428,165.204 98.606,165.048C98.784,164.87 98.939,164.67 99.028,164.404C99.095,164.137 99.095,163.87 99.006,163.648C98.917,163.426 98.761,163.226 98.539,163.026C98.361,162.892 98.184,162.781 98.028,162.692C97.806,162.559 97.561,162.448 97.295,162.359C97.05,162.27 96.784,162.204 96.495,162.137C96.139,162.048 95.761,162.004 95.428,161.981C95.05,161.959 94.695,161.959 94.339,161.959C94.095,161.959 94.095,162.026 93.873,162.026C93.561,162.026 93.295,162.026 93.006,162.048C92.717,162.07 92.428,162.092 92.161,162.137C91.873,162.181 91.584,162.248 91.317,162.315C91.028,162.404 90.739,162.426 90.473,162.515C90.206,162.626 89.984,162.781 89.717,162.915C89.45,163.026 89.161,163.115 88.917,163.248C88.673,163.404 88.45,163.581 88.228,163.759C88.006,163.937 87.761,164.092 87.539,164.27L86.917,164.87C86.717,165.092 86.517,165.359 86.339,165.604C86.139,165.848 86.006,166.115 85.85,166.381C85.673,166.648 85.561,166.915 85.428,167.204C85.295,167.492 85.184,167.759 85.073,168.048C84.984,168.337 84.917,168.648 84.85,168.959C84.784,169.248 84.717,169.537 84.673,169.848C84.628,170.181 84.606,170.492 84.584,170.804C84.561,171.137 84.539,171.448 84.539,171.759C84.561,172.07 84.517,172.404 84.561,172.715C84.606,173.048 84.717,173.359 84.784,173.67C84.85,174.004 84.85,174.337 84.939,174.626C85.028,174.959 85.184,175.248 85.295,175.537Z" style="fill:white;fill-rule:nonzero;"/>
        <path d="M114.673,180.47L114.695,180.492C114.939,180.492 115.161,180.381 115.361,180.248C115.561,180.137 115.739,179.981 115.873,179.781C116.006,179.581 116.161,179.381 116.228,179.137C116.317,178.781 116.25,178.404 116.25,178.07C116.25,177.626 116.273,177.626 116.273,177.204C116.273,176.759 116.339,176.759 116.339,176.337C116.339,175.892 116.317,175.892 116.317,175.448C116.317,175.026 116.25,175.026 116.25,174.581C116.25,174.137 116.295,174.137 116.295,173.715L116.295,172.848C116.295,172.404 116.295,172.404 116.295,171.959L116.273,171.959C116.273,171.581 116.339,171.581 116.339,171.204C116.339,170.804 116.317,170.804 116.317,170.426C116.317,170.048 116.295,170.048 116.295,169.648C116.295,169.337 116.273,169.026 116.273,168.715L116.273,167.759C116.273,167.448 116.25,167.137 116.25,166.826C116.25,166.515 116.317,166.204 116.317,165.87C116.317,165.559 116.295,165.248 116.295,164.937C116.295,164.892 116.25,164.892 116.25,164.87C116.25,164.492 116.317,164.048 116.161,163.626C116.05,163.292 115.828,163.07 115.584,162.892C115.339,162.715 115.028,162.604 114.695,162.604C114.673,162.604 114.673,162.559 114.673,162.559C114.339,162.559 114.006,162.648 113.761,162.826C113.495,163.004 113.339,163.315 113.228,163.626C113.095,163.981 113.05,164.337 113.05,164.626C113.05,164.981 113.095,165.315 113.095,165.67L113.095,166.226C113.095,166.492 113.05,166.781 113.028,167.07C112.984,167.337 112.873,167.604 112.806,167.87C112.717,168.159 112.628,168.381 112.495,168.581C112.339,168.804 112.161,168.959 111.939,169.092C111.739,169.226 111.517,169.315 111.25,169.359C110.917,169.426 110.561,169.537 110.184,169.537C109.806,169.537 109.406,169.515 109.028,169.515C108.739,169.515 108.473,169.492 108.206,169.492C107.939,169.492 107.673,169.537 107.384,169.537C107.117,169.537 106.85,169.537 106.584,169.515C106.273,169.515 105.961,169.47 105.628,169.426C105.317,169.381 105.028,169.27 104.806,169.137C104.539,168.981 104.339,168.781 104.184,168.515C104.05,168.292 103.984,168.004 103.917,167.692C103.85,167.404 103.828,167.159 103.806,166.915C103.761,166.648 103.673,166.381 103.673,166.137C103.673,165.87 103.717,165.604 103.695,165.337C103.695,165.07 103.65,164.804 103.65,164.537C103.65,164.226 103.673,163.826 103.495,163.426C103.339,163.115 103.117,162.848 102.828,162.692C102.539,162.559 102.206,162.537 101.85,162.604C101.517,162.692 101.273,162.848 101.073,163.07C100.873,163.27 100.695,163.537 100.628,163.87C100.561,164.204 100.517,164.515 100.495,164.804C100.473,165.115 100.517,165.448 100.517,165.737C100.517,166.004 100.473,166.292 100.473,166.559C100.473,166.826 100.495,167.092 100.495,167.359C100.495,167.626 100.539,167.892 100.539,168.181C100.539,168.448 100.45,168.715 100.45,168.981C100.45,169.248 100.517,169.515 100.517,169.804C100.517,170.07 100.473,170.337 100.473,170.604C100.473,170.87 100.495,171.137 100.495,171.426C100.495,171.959 100.495,171.959 100.473,172.47L100.473,173.537C100.473,174.137 100.495,174.137 100.495,174.737C100.517,175.048 100.517,175.359 100.517,175.67C100.517,175.981 100.45,176.292 100.45,176.604C100.45,176.892 100.517,177.204 100.517,177.515C100.517,177.781 100.473,178.07 100.495,178.337C100.539,178.604 100.584,178.87 100.65,179.137C100.739,179.515 100.939,179.804 101.184,180.026C101.45,180.248 101.784,180.404 102.184,180.404C102.561,180.404 102.873,180.226 103.139,179.981C103.384,179.759 103.539,179.448 103.628,179.07C103.673,178.804 103.65,178.537 103.65,178.27C103.673,178.004 103.695,177.715 103.695,177.448C103.695,177.181 103.761,176.892 103.761,176.626C103.761,176.359 103.739,176.092 103.739,175.804C103.739,175.515 103.717,175.226 103.739,174.937C103.784,174.648 103.895,174.359 103.961,174.07C104.028,173.781 104.117,173.537 104.25,173.315C104.406,173.07 104.584,172.87 104.806,172.715C105.028,172.581 105.295,172.492 105.584,172.426C105.873,172.359 106.161,172.337 106.406,172.315C106.695,172.27 106.961,172.315 107.228,172.337C107.473,172.337 107.717,172.27 107.961,172.27L109.473,172.27C109.739,172.248 110.006,172.292 110.295,172.315C110.561,172.337 110.828,172.359 111.117,172.426C111.428,172.47 111.717,172.581 111.939,172.715C112.206,172.87 112.406,173.092 112.561,173.359C112.717,173.581 112.806,173.87 112.85,174.181C112.917,174.492 112.961,174.781 112.984,175.048C113.028,175.381 113.117,175.67 113.095,175.937L113.095,177.448C113.095,177.692 113.028,177.937 113.05,178.204C113.05,178.47 113.117,178.804 113.206,179.137C113.25,179.381 113.317,179.626 113.45,179.826C113.584,180.026 113.784,180.181 113.984,180.292C114.206,180.404 114.428,180.47 114.673,180.47Z" style="fill:white;fill-rule:nonzero;"/>
    </g>
    <path d="M124.829,128.291C121.316,125.586 111.442,115.626 111.182,115.591C89.646,112.708 87.378,95.335 88.057,89.434C90.261,70.279 108.798,67.62 115.352,66.877C136.987,64.425 146.259,79.611 147.765,85.263C151.162,98.016 144.225,110.26 127.673,115.212C127.223,115.347 129.047,125.201 128.999,125.827C128.952,126.453 128.343,130.996 124.829,128.291ZM125.055,122.559C125.015,123.086 113.278,110.933 113.059,110.904C94.918,108.475 92.249,95.735 92.821,90.765C94.677,74.629 110.293,72.389 115.814,71.764C134.038,69.698 141.849,82.49 143.117,87.252C145.979,97.995 137.103,107.739 123.159,111.911C122.78,112.025 125.095,122.032 125.055,122.559ZM87.957,101.541C85.526,103.839 78.402,110.278 75.439,112.559C71.926,115.264 71.317,110.72 71.269,110.094C71.222,109.469 73.046,99.614 72.596,99.48C56.043,94.527 49.107,82.284 52.504,69.531C54.01,63.878 63.282,48.692 84.917,51.144C90.485,51.776 103.703,52.79 109.205,65.128L104.306,66.635L104.271,66.611C99.334,57.115 88.99,56.545 84.455,56.031C66.231,53.965 58.42,66.757 57.151,71.519C54.289,82.262 63.166,92.007 77.109,96.179C77.488,96.292 75.174,106.299 75.214,106.826C75.249,107.297 84.613,99.725 86.773,97.636L87.957,101.541ZM106.917,90.381C108.643,90.381 110.044,91.783 110.044,93.509C110.044,95.235 108.643,96.636 106.917,96.636C105.191,96.636 103.789,95.235 103.789,93.509C103.789,91.783 105.191,90.381 106.917,90.381ZM118.29,90.381C120.016,90.381 121.417,91.783 121.417,93.509C121.417,95.235 120.016,96.636 118.29,96.636C116.564,96.636 115.162,95.235 115.162,93.509C115.162,91.783 116.564,90.381 118.29,90.381ZM129.852,90.381C131.579,90.381 132.98,91.783 132.98,93.509C132.98,95.235 131.579,96.636 129.852,96.636C128.126,96.636 126.725,95.235 126.725,93.509C126.725,91.783 128.126,90.381 129.852,90.381Z" style="fill:white;stroke:white;stroke-width:0.75px;"/>
</svg>
