<?xml version="1.0" encoding="UTF-8" standalone="no"?><!DOCTYPE svg PUBLIC "-//W3C//DTD SVG 1.1//EN" "http://www.w3.org/Graphics/SVG/1.1/DTD/svg11.dtd"><svg width="100%" height="100%" viewBox="0 0 36 36" version="1.1" xmlns="http://www.w3.org/2000/svg" xmlns:xlink="http://www.w3.org/1999/xlink" xml:space="preserve" style="fill-rule:evenodd;clip-rule:evenodd;stroke-linecap:round;stroke-linejoin:round;stroke-miterlimit:1.5;"><rect x="-0.72" y="-0.72" width="38.34" height="36.72" style="fill:#00bcd4;"/><g><g><rect x="8.91" y="17.72" width="3.106" height="6.04" style="fill:#fff;"/><rect x="12.663" y="16.21" width="3.106" height="7.55" style="fill:#fff;"/><rect x="16.417" y="17.116" width="3.106" height="6.644" style="fill:#fff;"/><rect x="20.17" y="14.01" width="3.106" height="9.75" style="fill:#fff;"/><rect x="23.924" y="16.21" width="3.106" height="7.55" style="fill:#fff;"/></g><g><circle cx="10.312" cy="13.945" r="1.316" style="fill:none;stroke:#fff;stroke-width:0.65px;"/><circle cx="14.238" cy="11.917" r="1.316" style="fill:none;stroke:#fff;stroke-width:0.65px;"/><circle cx="18.078" cy="13.729" r="1.316" style="fill:none;stroke:#fff;stroke-width:0.65px;"/><circle cx="21.616" cy="9.501" r="1.316" style="fill:none;stroke:#fff;stroke-width:0.65px;"/><circle cx="25.714" cy="12.133" r="1.316" style="fill:none;stroke:#fff;stroke-width:0.65px;"/><path d="M11.628,13.233l1.294,-0.604" style="fill:none;stroke:#fff;stroke-width:0.65px;"/><path d="M15.554,12.413l1.208,0.561" style="fill:none;stroke:#fff;stroke-width:0.65px;"/><path d="M19.049,12.629l1.855,-2.028" style="fill:none;stroke:#fff;stroke-width:0.65px;"/><path d="M22.759,10.299l1.855,1.036" style="fill:none;stroke:#fff;stroke-width:0.65px;"/></g></g><g><path d="M9.16,29.597c0.016,-0.056 0.016,-0.116 0.016,-0.168c0.004,-0.06 0.008,-0.116 0.008,-0.168c-0.004,-0.06 -0.016,-0.116 -0.028,-0.172c-0.016,-0.056 -0.024,-0.116 -0.052,-0.164c-0.028,-0.052 -0.068,-0.096 -0.108,-0.14c-0.036,-0.044 -0.08,-0.084 -0.128,-0.116c-0.052,-0.036 -0.1,-0.068 -0.152,-0.092c-0.052,-0.028 -0.108,-0.048 -0.16,-0.064c-0.06,-0.02 -0.116,-0.052 -0.176,-0.072c-0.068,-0.024 -0.136,-0.04 -0.204,-0.064c-0.04,-0.012 -0.084,-0.032 -0.128,-0.048c-0.04,-0.02 -0.076,-0.048 -0.112,-0.072c-0.056,-0.032 -0.104,-0.06 -0.14,-0.096c-0.044,-0.04 -0.08,-0.084 -0.1,-0.132c-0.02,-0.048 -0.028,-0.1 -0.028,-0.148c0,-0.048 0.008,-0.1 0.024,-0.144c0.02,-0.044 0.048,-0.088 0.08,-0.124c0.032,-0.036 0.076,-0.06 0.12,-0.084c0.044,-0.024 0.088,-0.04 0.132,-0.052c0.048,-0.012 0.092,-0.024 0.14,-0.028c0.048,0 0.096,-0.008 0.144,-0.004c0.02,0.004 0.016,0.012 0.036,0.016c0.052,0.008 0.104,0.02 0.16,0.028c0.06,0.004 0.128,-0.008 0.204,-0.008c0.044,0 0.088,-0.004 0.124,-0.024c0.036,-0.02 0.064,-0.052 0.092,-0.092c0.032,-0.044 0.048,-0.088 0.044,-0.136c0,-0.048 -0.02,-0.092 -0.06,-0.132c-0.028,-0.028 -0.064,-0.048 -0.096,-0.068c-0.036,-0.02 -0.068,-0.048 -0.104,-0.06c-0.052,-0.012 -0.108,-0.016 -0.164,-0.024c-0.052,-0.012 -0.108,-0.02 -0.16,-0.024c-0.056,-0.004 -0.112,-0.016 -0.164,-0.016c-0.056,0 -0.112,0.012 -0.164,0.02c-0.056,0.008 -0.112,0.008 -0.164,0.02c-0.052,0.012 -0.104,0.04 -0.156,0.056c-0.048,0.016 -0.1,0.036 -0.152,0.06c-0.044,0.02 -0.084,0.044 -0.124,0.068c-0.04,0.024 -0.084,0.048 -0.116,0.076c-0.04,0.032 -0.076,0.064 -0.104,0.1c-0.036,0.036 -0.056,0.084 -0.084,0.124c-0.024,0.044 -0.056,0.084 -0.076,0.132c-0.02,0.044 -0.02,0.096 -0.032,0.148c-0.012,0.048 -0.02,0.096 -0.024,0.148c-0.004,0.048 -0.004,0.096 -0.004,0.148c0.004,0.06 0.012,0.116 0.028,0.168c0.016,0.056 0.048,0.104 0.076,0.152c0.028,0.048 0.06,0.096 0.1,0.136c0.04,0.044 0.084,0.084 0.136,0.12c0.048,0.032 0.096,0.068 0.152,0.096c0.052,0.024 0.108,0.048 0.168,0.068c0.044,0.02 0.084,0.044 0.128,0.06c0.044,0.016 0.092,0.028 0.136,0.044c0.036,0.012 0.072,0.032 0.108,0.044c0.036,0.016 0.076,0.028 0.112,0.04c0.06,0.024 0.116,0.048 0.168,0.084c0.052,0.036 0.1,0.076 0.14,0.124c0.036,0.04 0.06,0.088 0.072,0.14c0.016,0.052 0.024,0.108 0.02,0.16c-0.008,0.056 -0.032,0.104 -0.06,0.148c-0.036,0.048 -0.076,0.088 -0.116,0.12c-0.044,0.036 -0.092,0.072 -0.144,0.092c-0.048,0.016 -0.1,0.012 -0.152,0.02c-0.048,0.004 -0.096,0.016 -0.148,0.012c-0.048,-0.004 -0.096,-0.02 -0.148,-0.032c-0.048,-0.008 -0.092,-0.02 -0.14,-0.036l-0.064,-0.024c-0.048,-0.012 -0.092,-0.008 -0.136,-0.012c-0.048,-0.004 -0.092,-0.004 -0.136,0.004c-0.052,0.012 -0.1,0.028 -0.136,0.06c-0.032,0.032 -0.064,0.076 -0.08,0.128c-0.012,0.052 0.004,0.096 0.02,0.136c0.02,0.052 0.064,0.088 0.08,0.104c0.024,0.02 0.052,0.036 0.08,0.052c0.036,0.02 0.072,0.04 0.108,0.056c0.04,0.016 0.072,0.04 0.112,0.048c0.044,0.012 0.092,0.012 0.14,0.02c0.048,0.008 0.092,0.02 0.14,0.024c0.048,0.004 0.096,-0.008 0.144,-0.008c0.036,0 0.076,0.004 0.116,0.004c0.016,0 0.016,-0.008 0.028,-0.008c0.02,0 0.04,0.012 0.064,0.012c0.052,-0.004 0.104,-0.008 0.156,-0.016c0.056,-0.008 0.104,-0.024 0.156,-0.04c0.052,-0.016 0.096,-0.044 0.144,-0.068c0.044,-0.024 0.096,-0.036 0.136,-0.06c0.044,-0.028 0.076,-0.064 0.116,-0.096c0.04,-0.032 0.08,-0.06 0.112,-0.096c0.032,-0.036 0.056,-0.08 0.08,-0.124c0.028,-0.04 0.056,-0.08 0.076,-0.124c0.02,-0.048 0.036,-0.092 0.048,-0.14Z" style="fill:#fff;fill-rule:nonzero;"/><path d="M10.232,27.785c0.02,0.064 0.024,0.132 0.024,0.22l0,0.156c0,0.048 -0.004,0.1 -0.004,0.152c0,0.052 0.008,0.1 0.008,0.152c0,0.052 -0.004,0.104 -0.004,0.152c0,0.08 0.008,0.08 0.008,0.16l0,0.156c0,0.08 -0.008,0.08 -0.008,0.156l0,0.304c0,0.052 0.004,0.1 0,0.152l0,0.152c0,0.052 0.004,0.104 0.008,0.156l0.024,0.152c0.012,0.068 0.036,0.132 0.08,0.176c0.048,0.04 0.112,0.06 0.18,0.06c0.004,0 0.008,0.004 0.012,0.004c0.068,0 0.124,-0.024 0.168,-0.064c0.044,-0.036 0.076,-0.092 0.092,-0.16c0.008,-0.036 0.016,-0.072 0.016,-0.12c0.004,-0.052 -0.004,-0.104 -0.004,-0.16c0,-0.08 0.004,-0.08 0.004,-0.16c0,-0.076 -0.008,-0.076 -0.008,-0.156c0,-0.056 0.008,-0.108 0.008,-0.16c0,-0.056 -0.004,-0.108 -0.004,-0.16c0,-0.056 0.004,-0.108 0.004,-0.16c0,-0.056 0.008,-0.108 0.008,-0.16c0,-0.056 -0.012,-0.108 -0.012,-0.16c0,-0.056 -0.004,-0.108 -0.004,-0.16l0,-0.16c0,-0.056 0.012,-0.108 0.012,-0.16c0,-0.048 0.004,-0.096 0.008,-0.152c0.004,-0.044 0,-0.096 0.008,-0.148c0.008,-0.064 0.036,-0.112 0.06,-0.16c0.032,-0.048 0.064,-0.096 0.112,-0.128c0.044,-0.028 0.1,-0.044 0.164,-0.06c0.02,-0.004 0.044,-0.008 0.072,-0.008c0.012,-0.004 0.024,-0.008 0.036,-0.008c0.024,-0.004 0.048,-0.008 0.072,-0.008c0.052,-0.008 0.108,-0.012 0.164,-0.02c0.056,-0.012 0.116,-0.028 0.152,-0.064c0.044,-0.04 0.068,-0.096 0.068,-0.148c0,-0.056 -0.032,-0.104 -0.076,-0.144c-0.04,-0.036 -0.092,-0.064 -0.148,-0.068c-0.028,-0.004 -0.024,-0.02 -0.052,-0.024l-0.132,-0.012c-0.044,-0.004 -0.092,-0.008 -0.136,-0.008c-0.048,0 -0.1,0.004 -0.148,0.004c-0.048,0 -0.1,-0.004 -0.148,-0.004l-0.148,0c-0.052,0 -0.1,0.008 -0.152,0.008c-0.048,0 -0.096,-0.004 -0.148,-0.004l-0.148,0c-0.048,0 -0.1,0.004 -0.148,0.004c-0.048,0 -0.1,0.004 -0.148,0.004c-0.052,0 -0.1,-0.004 -0.148,-0.004c-0.004,0 -0.004,-0.004 -0.004,-0.004c-0.052,0 -0.104,0 -0.156,0.004c-0.052,0.008 -0.1,0.02 -0.152,0.028c-0.064,0.008 -0.112,0.036 -0.152,0.072c-0.04,0.04 -0.072,0.096 -0.068,0.152c0.004,0.056 0.028,0.112 0.068,0.148c0.036,0.032 0.088,0.048 0.148,0.056c0.04,0.008 0.076,0.02 0.116,0.024c0.04,0.008 0.084,0.008 0.12,0.012c0.056,0.008 0.112,0.008 0.164,0.024c0.048,0.016 0.088,0.036 0.12,0.06c0.04,0.024 0.064,0.064 0.088,0.1c0.024,0.036 0.052,0.072 0.064,0.116Z" style="fill:#fff;fill-rule:nonzero;"/><path d="M14.472,29.897c-0.016,-0.044 -0.036,-0.088 -0.052,-0.128c-0.02,-0.048 -0.056,-0.092 -0.08,-0.14c-0.02,-0.044 -0.036,-0.088 -0.052,-0.128c-0.02,-0.044 -0.04,-0.084 -0.056,-0.128c-0.02,-0.048 -0.032,-0.104 -0.052,-0.152c-0.02,-0.052 -0.048,-0.096 -0.072,-0.148l-0.06,-0.148c-0.024,-0.048 -0.048,-0.092 -0.068,-0.14c-0.024,-0.048 -0.04,-0.096 -0.06,-0.144c-0.02,-0.044 -0.036,-0.092 -0.056,-0.14c-0.016,-0.044 -0.04,-0.092 -0.06,-0.136c-0.02,-0.048 -0.036,-0.096 -0.056,-0.14c-0.02,-0.048 -0.044,-0.092 -0.064,-0.136c-0.02,-0.048 -0.028,-0.096 -0.048,-0.144c-0.02,-0.044 -0.044,-0.088 -0.064,-0.136c-0.02,-0.04 -0.036,-0.084 -0.056,-0.124c-0.016,-0.044 -0.044,-0.08 -0.06,-0.124l-0.06,-0.124c-0.02,-0.048 -0.036,-0.096 -0.06,-0.136c-0.028,-0.044 -0.056,-0.084 -0.088,-0.12c-0.036,-0.04 -0.084,-0.064 -0.128,-0.088c-0.044,-0.024 -0.092,-0.04 -0.148,-0.044c-0.052,0 -0.104,0.004 -0.152,0.024c-0.048,0.02 -0.092,0.048 -0.132,0.088c-0.048,0.048 -0.088,0.112 -0.12,0.184c-0.02,0.044 -0.036,0.088 -0.056,0.132l-0.064,0.132c-0.016,0.04 -0.032,0.08 -0.052,0.116c-0.016,0.04 -0.028,0.084 -0.044,0.12c-0.02,0.044 -0.036,0.088 -0.056,0.132c-0.016,0.04 -0.036,0.084 -0.056,0.124c-0.02,0.044 -0.04,0.084 -0.056,0.128c-0.02,0.04 -0.032,0.076 -0.048,0.116c-0.02,0.036 -0.036,0.076 -0.052,0.112c-0.02,0.04 -0.048,0.08 -0.068,0.124c-0.016,0.04 -0.028,0.088 -0.048,0.132c-0.016,0.04 -0.044,0.08 -0.06,0.124c-0.016,0.048 -0.036,0.096 -0.056,0.14c-0.02,0.048 -0.032,0.1 -0.052,0.148l-0.064,0.136c-0.02,0.048 -0.048,0.092 -0.068,0.14c-0.024,0.052 -0.036,0.108 -0.06,0.16c-0.024,0.056 -0.052,0.104 -0.076,0.156c-0.016,0.044 -0.036,0.088 -0.052,0.132c-0.016,0.044 -0.024,0.092 -0.036,0.14c-0.012,0.044 -0.012,0.088 0,0.128c0.008,0.04 0.024,0.08 0.056,0.112c0.036,0.028 0.076,0.052 0.12,0.06c0.044,0.004 0.088,-0.004 0.136,-0.02c0.044,-0.012 0.088,-0.024 0.12,-0.048c0.036,-0.028 0.072,-0.06 0.092,-0.096c0.024,-0.036 0.048,-0.072 0.072,-0.116c0.02,-0.032 0.028,-0.076 0.052,-0.12c0.024,-0.044 0.064,-0.076 0.092,-0.108c0.032,-0.04 0.064,-0.072 0.104,-0.1c0.036,-0.024 0.08,-0.044 0.128,-0.056c0.044,-0.016 0.088,-0.032 0.136,-0.036c0.052,0 0.108,-0.008 0.16,-0.008c0.052,-0.004 0.104,0.012 0.16,0.008c0.052,0 0.104,-0.012 0.156,-0.012c0.056,0 0.108,0.012 0.16,0.016c0.052,0 0.108,0.004 0.16,0.004c0.06,0.004 0.112,0.02 0.164,0.04c0.052,0.02 0.108,0.036 0.152,0.072c0.04,0.036 0.076,0.084 0.108,0.132l0,0.008c0.032,0.048 0.056,0.096 0.08,0.144c0.02,0.048 0.044,0.088 0.072,0.12c0.032,0.04 0.076,0.064 0.108,0.092c0.032,0.028 0.056,0.06 0.092,0.072c0.04,0.016 0.08,0.016 0.12,0.016c0.008,0 0.016,0.008 0.02,0.004c0.072,-0.004 0.128,-0.036 0.168,-0.08c0.04,-0.044 0.06,-0.104 0.06,-0.176c0,-0.004 0.008,-0.004 0.008,-0.008c-0.004,-0.044 -0.016,-0.092 -0.028,-0.136Zm-1.156,-1.072c0,0.064 -0.004,0.116 -0.032,0.156c-0.028,0.044 -0.072,0.072 -0.132,0.096c-0.064,0.032 -0.14,0.048 -0.212,0.044l0,-0.008c0,0 0,0.012 -0.004,0.012c-0.076,0 -0.136,-0.012 -0.188,-0.036c-0.068,-0.024 -0.124,-0.06 -0.156,-0.108c-0.032,-0.052 -0.048,-0.116 -0.048,-0.188c0,-0.052 0.012,-0.108 0.028,-0.168c0.016,-0.052 0.032,-0.104 0.056,-0.16c0.024,-0.044 0.048,-0.088 0.076,-0.132c0.024,-0.04 0.048,-0.084 0.084,-0.12c0.056,-0.056 0.116,-0.056 0.16,-0.052c0.06,0.004 0.112,0.028 0.148,0.076c0.04,0.052 0.072,0.104 0.1,0.156c0.032,0.056 0.064,0.108 0.084,0.168c0.016,0.048 0.028,0.088 0.036,0.128c0.008,0.048 0,0.092 0,0.136Z" style="fill:#fff;fill-rule:nonzero;"/><path d="M15.068,27.785c0.02,0.064 0.024,0.132 0.024,0.22l0,0.156c0,0.048 -0.004,0.1 -0.004,0.152c0,0.052 0.008,0.1 0.008,0.152c0,0.052 -0.004,0.104 -0.004,0.152c0,0.08 0.008,0.08 0.008,0.16l0,0.156c0,0.08 -0.008,0.08 -0.008,0.156l0,0.304c0,0.052 0.004,0.1 0,0.152l0,0.152c0,0.052 0.004,0.104 0.008,0.156l0.024,0.152c0.012,0.068 0.036,0.132 0.08,0.176c0.048,0.04 0.112,0.06 0.18,0.06c0.004,0 0.008,0.004 0.012,0.004c0.068,0 0.124,-0.024 0.168,-0.064c0.044,-0.036 0.076,-0.092 0.092,-0.16c0.008,-0.036 0.016,-0.072 0.016,-0.12c0.004,-0.052 -0.004,-0.104 -0.004,-0.16c0,-0.08 0.004,-0.08 0.004,-0.16c0,-0.076 -0.008,-0.076 -0.008,-0.156c0,-0.056 0.008,-0.108 0.008,-0.16c0,-0.056 -0.004,-0.108 -0.004,-0.16c0,-0.056 0.004,-0.108 0.004,-0.16c0,-0.056 0.008,-0.108 0.008,-0.16c0,-0.056 -0.012,-0.108 -0.012,-0.16c0,-0.056 -0.004,-0.108 -0.004,-0.16l0,-0.16c0,-0.056 0.012,-0.108 0.012,-0.16c0,-0.048 0.004,-0.096 0.008,-0.152c0.004,-0.044 0,-0.096 0.008,-0.148c0.008,-0.064 0.036,-0.112 0.06,-0.16c0.032,-0.048 0.064,-0.096 0.112,-0.128c0.044,-0.028 0.1,-0.044 0.164,-0.06c0.02,-0.004 0.044,-0.008 0.072,-0.008c0.012,-0.004 0.024,-0.008 0.036,-0.008c0.024,-0.004 0.048,-0.008 0.072,-0.008c0.052,-0.008 0.108,-0.012 0.164,-0.02c0.056,-0.012 0.116,-0.028 0.152,-0.064c0.044,-0.04 0.068,-0.096 0.068,-0.148c0,-0.056 -0.032,-0.104 -0.076,-0.144c-0.04,-0.036 -0.092,-0.064 -0.148,-0.068c-0.028,-0.004 -0.024,-0.02 -0.052,-0.024l-0.132,-0.012c-0.044,-0.004 -0.092,-0.008 -0.136,-0.008c-0.048,0 -0.1,0.004 -0.148,0.004c-0.048,0 -0.1,-0.004 -0.148,-0.004l-0.148,0c-0.052,0 -0.1,0.008 -0.152,0.008c-0.048,0 -0.096,-0.004 -0.148,-0.004l-0.148,0c-0.048,0 -0.1,0.004 -0.148,0.004c-0.048,0 -0.1,0.004 -0.148,0.004c-0.052,0 -0.1,-0.004 -0.148,-0.004c-0.004,0 -0.004,-0.004 -0.004,-0.004c-0.052,0 -0.104,0 -0.156,0.004c-0.052,0.008 -0.1,0.02 -0.152,0.028c-0.064,0.008 -0.112,0.036 -0.152,0.072c-0.04,0.04 -0.072,0.096 -0.068,0.152c0.004,0.056 0.028,0.112 0.068,0.148c0.036,0.032 0.088,0.048 0.148,0.056c0.04,0.008 0.076,0.02 0.116,0.024c0.04,0.008 0.084,0.008 0.12,0.012c0.056,0.008 0.112,0.008 0.164,0.024c0.048,0.016 0.088,0.036 0.12,0.06c0.04,0.024 0.064,0.064 0.088,0.1c0.024,0.036 0.052,0.072 0.064,0.116Z" style="fill:#fff;fill-rule:nonzero;"/><path d="M16.956,28.393c0,0.092 0.008,0.092 0.008,0.184c0,0.092 -0.008,0.092 -0.008,0.18c0,0.056 0.004,0.108 0.004,0.164c0,0.052 0.004,0.108 0.004,0.164l0,0.324c0,0.052 0.004,0.108 0.004,0.16c0,0.056 -0.008,0.108 -0.008,0.164c0,0.056 0.008,0.108 0.012,0.156c0.004,0.056 0.004,0.112 0.012,0.16c0.016,0.06 0.052,0.1 0.092,0.136c0.036,0.036 0.08,0.064 0.14,0.072c0.016,0.004 0.032,0.012 0.048,0.012c0.068,0 0.124,-0.024 0.172,-0.068c0.044,-0.036 0.068,-0.092 0.084,-0.16c0.012,-0.064 0.024,-0.124 0.024,-0.184l0,-0.148c0,-0.048 -0.008,-0.1 -0.008,-0.148c0,-0.052 0.004,-0.1 0.004,-0.152c0,-0.048 -0.008,-0.1 -0.008,-0.148l0,-0.148c0,-0.052 0.008,-0.1 0.008,-0.152c0,-0.068 0.008,-0.068 0.008,-0.136l0,-0.136c0,-0.072 -0.004,-0.072 -0.004,-0.14c0,-0.068 -0.004,-0.068 -0.004,-0.136c0,-0.06 -0.004,-0.116 -0.004,-0.176c0,-0.056 -0.004,-0.116 -0.004,-0.176c0,-0.056 0.008,-0.116 0.008,-0.172c0,-0.06 -0.008,-0.12 -0.008,-0.176c0,-0.052 0.012,-0.1 0.012,-0.152c0,-0.048 -0.004,-0.1 -0.004,-0.148c0,-0.06 -0.012,-0.14 -0.056,-0.216c-0.036,-0.064 -0.1,-0.108 -0.176,-0.124c-0.072,-0.016 -0.152,0 -0.212,0.048c-0.06,0.048 -0.104,0.108 -0.116,0.184c0,0.024 0.008,0.024 0.004,0.048l-0.012,0.128c-0.004,0.044 -0.02,0.088 -0.02,0.132c0,0.048 0.004,0.092 0.004,0.14l0,0.276c0,0.044 0.008,0.092 0.008,0.136c-0.004,0.116 -0.008,0.116 -0.008,0.228Z" style="fill:#fff;fill-rule:nonzero;"/><path d="M20.008,29.597c0.016,-0.056 0.016,-0.116 0.016,-0.168c0.004,-0.06 0.008,-0.116 0.008,-0.168c-0.004,-0.06 -0.016,-0.116 -0.028,-0.172c-0.016,-0.056 -0.024,-0.116 -0.052,-0.164c-0.028,-0.052 -0.068,-0.096 -0.108,-0.14c-0.036,-0.044 -0.08,-0.084 -0.128,-0.116c-0.052,-0.036 -0.1,-0.068 -0.152,-0.092c-0.052,-0.028 -0.108,-0.048 -0.16,-0.064c-0.06,-0.02 -0.116,-0.052 -0.176,-0.072c-0.068,-0.024 -0.136,-0.04 -0.204,-0.064c-0.04,-0.012 -0.084,-0.032 -0.128,-0.048c-0.04,-0.02 -0.076,-0.048 -0.112,-0.072c-0.056,-0.032 -0.104,-0.06 -0.14,-0.096c-0.044,-0.04 -0.08,-0.084 -0.1,-0.132c-0.02,-0.048 -0.028,-0.1 -0.028,-0.148c0,-0.048 0.008,-0.1 0.024,-0.144c0.02,-0.044 0.048,-0.088 0.08,-0.124c0.032,-0.036 0.076,-0.06 0.12,-0.084c0.044,-0.024 0.088,-0.04 0.132,-0.052c0.048,-0.012 0.092,-0.024 0.14,-0.028c0.048,0 0.096,-0.008 0.144,-0.004c0.02,0.004 0.016,0.012 0.036,0.016c0.052,0.008 0.104,0.02 0.16,0.028c0.06,0.004 0.128,-0.008 0.204,-0.008c0.044,0 0.088,-0.004 0.124,-0.024c0.036,-0.02 0.064,-0.052 0.092,-0.092c0.032,-0.044 0.048,-0.088 0.044,-0.136c0,-0.048 -0.02,-0.092 -0.06,-0.132c-0.028,-0.028 -0.064,-0.048 -0.096,-0.068c-0.036,-0.02 -0.068,-0.048 -0.104,-0.06c-0.052,-0.012 -0.108,-0.016 -0.164,-0.024c-0.052,-0.012 -0.108,-0.02 -0.16,-0.024c-0.056,-0.004 -0.112,-0.016 -0.164,-0.016c-0.056,0 -0.112,0.012 -0.164,0.02c-0.056,0.008 -0.112,0.008 -0.164,0.02c-0.052,0.012 -0.104,0.04 -0.156,0.056c-0.048,0.016 -0.1,0.036 -0.152,0.06c-0.044,0.02 -0.084,0.044 -0.124,0.068c-0.04,0.024 -0.084,0.048 -0.116,0.076c-0.04,0.032 -0.076,0.064 -0.104,0.1c-0.036,0.036 -0.056,0.084 -0.084,0.124c-0.024,0.044 -0.056,0.084 -0.076,0.132c-0.02,0.044 -0.02,0.096 -0.032,0.148c-0.012,0.048 -0.02,0.096 -0.024,0.148c-0.004,0.048 -0.004,0.096 -0.004,0.148c0.004,0.06 0.012,0.116 0.028,0.168c0.016,0.056 0.048,0.104 0.076,0.152c0.028,0.048 0.06,0.096 0.1,0.136c0.04,0.044 0.084,0.084 0.136,0.12c0.048,0.032 0.096,0.068 0.152,0.096c0.052,0.024 0.108,0.048 0.168,0.068c0.044,0.02 0.084,0.044 0.128,0.06c0.044,0.016 0.092,0.028 0.136,0.044c0.036,0.012 0.072,0.032 0.108,0.044c0.036,0.016 0.076,0.028 0.112,0.04c0.06,0.024 0.116,0.048 0.168,0.084c0.052,0.036 0.1,0.076 0.14,0.124c0.036,0.04 0.06,0.088 0.072,0.14c0.016,0.052 0.024,0.108 0.02,0.16c-0.008,0.056 -0.032,0.104 -0.06,0.148c-0.036,0.048 -0.076,0.088 -0.116,0.12c-0.044,0.036 -0.092,0.072 -0.144,0.092c-0.048,0.016 -0.1,0.012 -0.152,0.02c-0.048,0.004 -0.096,0.016 -0.148,0.012c-0.048,-0.004 -0.096,-0.02 -0.148,-0.032c-0.048,-0.008 -0.092,-0.02 -0.14,-0.036l-0.064,-0.024c-0.048,-0.012 -0.092,-0.008 -0.136,-0.012c-0.048,-0.004 -0.092,-0.004 -0.136,0.004c-0.052,0.012 -0.1,0.028 -0.136,0.06c-0.032,0.032 -0.064,0.076 -0.08,0.128c-0.012,0.052 0.004,0.096 0.02,0.136c0.02,0.052 0.064,0.088 0.08,0.104c0.024,0.02 0.052,0.036 0.08,0.052c0.036,0.02 0.072,0.04 0.108,0.056c0.04,0.016 0.072,0.04 0.112,0.048c0.044,0.012 0.092,0.012 0.14,0.02c0.048,0.008 0.092,0.02 0.14,0.024c0.048,0.004 0.096,-0.008 0.144,-0.008c0.036,0 0.076,0.004 0.116,0.004c0.016,0 0.016,-0.008 0.028,-0.008c0.02,0 0.04,0.012 0.064,0.012c0.052,-0.004 0.104,-0.008 0.156,-0.016c0.056,-0.008 0.104,-0.024 0.156,-0.04c0.052,-0.016 0.096,-0.044 0.144,-0.068c0.044,-0.024 0.096,-0.036 0.136,-0.06c0.044,-0.028 0.076,-0.064 0.116,-0.096c0.04,-0.032 0.08,-0.06 0.112,-0.096c0.032,-0.036 0.056,-0.08 0.08,-0.124c0.028,-0.04 0.056,-0.08 0.076,-0.124c0.02,-0.048 0.036,-0.092 0.048,-0.14Z" style="fill:#fff;fill-rule:nonzero;"/><path d="M21.08,27.785c0.02,0.064 0.024,0.132 0.024,0.22l0,0.156c0,0.048 -0.004,0.1 -0.004,0.152c0,0.052 0.008,0.1 0.008,0.152c0,0.052 -0.004,0.104 -0.004,0.152c0,0.08 0.008,0.08 0.008,0.16l0,0.156c0,0.08 -0.008,0.08 -0.008,0.156l0,0.304c0,0.052 0.004,0.1 0,0.152l0,0.152c0,0.052 0.004,0.104 0.008,0.156l0.024,0.152c0.012,0.068 0.036,0.132 0.08,0.176c0.048,0.04 0.112,0.06 0.18,0.06c0.004,0 0.008,0.004 0.012,0.004c0.068,0 0.124,-0.024 0.168,-0.064c0.044,-0.036 0.076,-0.092 0.092,-0.16c0.008,-0.036 0.016,-0.072 0.016,-0.12c0.004,-0.052 -0.004,-0.104 -0.004,-0.16c0,-0.08 0.004,-0.08 0.004,-0.16c0,-0.076 -0.008,-0.076 -0.008,-0.156c0,-0.056 0.008,-0.108 0.008,-0.16c0,-0.056 -0.004,-0.108 -0.004,-0.16c0,-0.056 0.004,-0.108 0.004,-0.16c0,-0.056 0.008,-0.108 0.008,-0.16c0,-0.056 -0.012,-0.108 -0.012,-0.16c0,-0.056 -0.004,-0.108 -0.004,-0.16l0,-0.16c0,-0.056 0.012,-0.108 0.012,-0.16c0,-0.048 0.004,-0.096 0.008,-0.152c0.004,-0.044 0,-0.096 0.008,-0.148c0.008,-0.064 0.036,-0.112 0.06,-0.16c0.032,-0.048 0.064,-0.096 0.112,-0.128c0.044,-0.028 0.1,-0.044 0.164,-0.06c0.02,-0.004 0.044,-0.008 0.072,-0.008c0.012,-0.004 0.024,-0.008 0.036,-0.008c0.024,-0.004 0.048,-0.008 0.072,-0.008c0.052,-0.008 0.108,-0.012 0.164,-0.02c0.056,-0.012 0.116,-0.028 0.152,-0.064c0.044,-0.04 0.068,-0.096 0.068,-0.148c0,-0.056 -0.032,-0.104 -0.076,-0.144c-0.04,-0.036 -0.092,-0.064 -0.148,-0.068c-0.028,-0.004 -0.024,-0.02 -0.052,-0.024l-0.132,-0.012c-0.044,-0.004 -0.092,-0.008 -0.136,-0.008c-0.048,0 -0.1,0.004 -0.148,0.004c-0.048,0 -0.1,-0.004 -0.148,-0.004l-0.148,0c-0.052,0 -0.1,0.008 -0.152,0.008c-0.048,0 -0.096,-0.004 -0.148,-0.004l-0.148,0c-0.048,0 -0.1,0.004 -0.148,0.004c-0.048,0 -0.1,0.004 -0.148,0.004c-0.052,0 -0.1,-0.004 -0.148,-0.004c-0.004,0 -0.004,-0.004 -0.004,-0.004c-0.052,0 -0.104,0 -0.156,0.004c-0.052,0.008 -0.1,0.02 -0.152,0.028c-0.064,0.008 -0.112,0.036 -0.152,0.072c-0.04,0.04 -0.072,0.096 -0.068,0.152c0.004,0.056 0.028,0.112 0.068,0.148c0.036,0.032 0.088,0.048 0.148,0.056c0.04,0.008 0.076,0.02 0.116,0.024c0.04,0.008 0.084,0.008 0.12,0.012c0.056,0.008 0.112,0.008 0.164,0.024c0.048,0.016 0.088,0.036 0.12,0.06c0.04,0.024 0.064,0.064 0.088,0.1c0.024,0.036 0.052,0.072 0.064,0.116Z" style="fill:#fff;fill-rule:nonzero;"/><path d="M22.968,28.393c0,0.092 0.008,0.092 0.008,0.184c0,0.092 -0.008,0.092 -0.008,0.18c0,0.056 0.004,0.108 0.004,0.164c0,0.052 0.004,0.108 0.004,0.164l0,0.324c0,0.052 0.004,0.108 0.004,0.16c0,0.056 -0.008,0.108 -0.008,0.164c0,0.056 0.008,0.108 0.012,0.156c0.004,0.056 0.004,0.112 0.012,0.16c0.016,0.06 0.052,0.1 0.092,0.136c0.036,0.036 0.08,0.064 0.14,0.072c0.016,0.004 0.032,0.012 0.048,0.012c0.068,0 0.124,-0.024 0.172,-0.068c0.044,-0.036 0.068,-0.092 0.084,-0.16c0.012,-0.064 0.024,-0.124 0.024,-0.184l0,-0.148c0,-0.048 -0.008,-0.1 -0.008,-0.148c0,-0.052 0.004,-0.1 0.004,-0.152c0,-0.048 -0.008,-0.1 -0.008,-0.148l0,-0.148c0,-0.052 0.008,-0.1 0.008,-0.152c0,-0.068 0.008,-0.068 0.008,-0.136l0,-0.136c0,-0.072 -0.004,-0.072 -0.004,-0.14c0,-0.068 -0.004,-0.068 -0.004,-0.136c0,-0.06 -0.004,-0.116 -0.004,-0.176c0,-0.056 -0.004,-0.116 -0.004,-0.176c0,-0.056 0.008,-0.116 0.008,-0.172c0,-0.06 -0.008,-0.12 -0.008,-0.176c0,-0.052 0.012,-0.1 0.012,-0.152c0,-0.048 -0.004,-0.1 -0.004,-0.148c0,-0.06 -0.012,-0.14 -0.056,-0.216c-0.036,-0.064 -0.1,-0.108 -0.176,-0.124c-0.072,-0.016 -0.152,0 -0.212,0.048c-0.06,0.048 -0.104,0.108 -0.116,0.184c0,0.024 0.008,0.024 0.004,0.048l-0.012,0.128c-0.004,0.044 -0.02,0.088 -0.02,0.132c0,0.048 0.004,0.092 0.004,0.14l0,0.276c0,0.044 0.008,0.092 0.008,0.136c-0.004,0.116 -0.008,0.116 -0.008,0.228Z" style="fill:#fff;fill-rule:nonzero;"/><path d="M24.016,29.397c0.016,0.044 0.028,0.092 0.052,0.132c0.02,0.044 0.052,0.08 0.076,0.12c0.024,0.04 0.052,0.076 0.08,0.112c0.032,0.04 0.052,0.084 0.084,0.116c0.032,0.036 0.068,0.064 0.104,0.096l0.132,0.092c0.044,0.028 0.088,0.06 0.132,0.084c0.048,0.028 0.092,0.06 0.14,0.08c0.048,0.024 0.1,0.04 0.148,0.06c0.048,0.02 0.104,0.028 0.152,0.04c0.052,0.016 0.104,0.032 0.156,0.04c0.052,0.008 0.104,0.024 0.156,0.028c0.052,0.004 0.108,0 0.16,0c0.048,0 0.096,-0.004 0.144,-0.008l0.148,-0.012c0.048,-0.008 0.096,-0.012 0.144,-0.024c0.048,-0.008 0.092,-0.024 0.14,-0.04c0.06,-0.016 0.116,-0.044 0.172,-0.072c0.052,-0.032 0.104,-0.068 0.152,-0.108c0.04,-0.04 0.072,-0.076 0.084,-0.12c0.016,-0.048 0.012,-0.096 -0.004,-0.148c-0.02,-0.052 -0.048,-0.088 -0.088,-0.116c-0.036,-0.028 -0.08,-0.052 -0.136,-0.056c-0.052,-0.004 -0.104,0.004 -0.148,0.012c-0.052,0.008 -0.104,0.016 -0.148,0.036c-0.036,0.02 -0.072,0.032 -0.112,0.048c-0.036,0.012 -0.072,0.028 -0.116,0.04c-0.068,0.02 -0.128,0.04 -0.184,0.044c-0.068,0.008 -0.132,0 -0.192,-0.012c-0.052,-0.008 -0.1,-0.02 -0.148,-0.036c-0.048,-0.016 -0.104,-0.02 -0.148,-0.04c-0.048,-0.02 -0.092,-0.052 -0.132,-0.08c-0.044,-0.024 -0.084,-0.056 -0.124,-0.092c-0.036,-0.032 -0.068,-0.072 -0.104,-0.112c-0.032,-0.036 -0.06,-0.08 -0.088,-0.124c-0.028,-0.04 -0.056,-0.084 -0.08,-0.132c-0.02,-0.044 -0.04,-0.088 -0.06,-0.14c-0.016,-0.048 -0.032,-0.1 -0.04,-0.156c-0.012,-0.052 -0.016,-0.104 -0.016,-0.164c-0.004,-0.052 -0.008,-0.104 -0.008,-0.164c0,-0.056 0.008,-0.112 0.016,-0.164c0.008,-0.056 0.02,-0.112 0.036,-0.164c0.012,-0.052 0.036,-0.104 0.056,-0.152c0.024,-0.052 0.04,-0.108 0.068,-0.152c0.032,-0.048 0.064,-0.092 0.104,-0.136c0.032,-0.04 0.076,-0.076 0.116,-0.116c0.044,-0.036 0.08,-0.08 0.128,-0.108c0.048,-0.032 0.096,-0.06 0.148,-0.08c0.048,-0.024 0.104,-0.036 0.16,-0.048c0.052,-0.012 0.108,-0.028 0.164,-0.032c0.052,-0.004 0.108,0.008 0.168,0.012c0.056,0.004 0.116,0.004 0.176,0.016c0.052,0.012 0.108,0.04 0.168,0.06c0.052,0.016 0.1,0.024 0.144,0.032c0.052,0.004 0.1,-0.004 0.144,-0.016c0.048,-0.008 0.088,-0.036 0.12,-0.064c0.032,-0.032 0.06,-0.068 0.076,-0.116c0.012,-0.048 0.012,-0.096 -0.004,-0.136c-0.016,-0.04 -0.044,-0.076 -0.084,-0.112c-0.032,-0.024 -0.064,-0.044 -0.092,-0.06c-0.04,-0.024 -0.084,-0.044 -0.132,-0.06c-0.044,-0.016 -0.092,-0.028 -0.144,-0.04c-0.064,-0.016 -0.132,-0.024 -0.192,-0.028c-0.068,-0.004 -0.132,-0.004 -0.196,-0.004c-0.044,0 -0.044,0.012 -0.084,0.012c-0.056,0 -0.104,0 -0.156,0.004c-0.052,0.004 -0.104,0.008 -0.152,0.016c-0.052,0.008 -0.104,0.02 -0.152,0.032c-0.052,0.016 -0.104,0.02 -0.152,0.036c-0.048,0.02 -0.088,0.048 -0.136,0.072c-0.048,0.02 -0.1,0.036 -0.144,0.06c-0.044,0.028 -0.084,0.06 -0.124,0.092c-0.04,0.032 -0.084,0.06 -0.124,0.092l-0.112,0.108c-0.036,0.04 -0.072,0.088 -0.104,0.132c-0.036,0.044 -0.06,0.092 -0.088,0.14c-0.032,0.048 -0.052,0.096 -0.076,0.148c-0.024,0.052 -0.044,0.1 -0.064,0.152c-0.016,0.052 -0.028,0.108 -0.04,0.164c-0.012,0.052 -0.024,0.104 -0.032,0.16c-0.008,0.06 -0.012,0.116 -0.016,0.172c-0.004,0.06 -0.008,0.116 -0.008,0.172c0.004,0.056 -0.004,0.116 0.004,0.172c0.008,0.06 0.028,0.116 0.04,0.172c0.012,0.06 0.012,0.12 0.028,0.172c0.016,0.06 0.044,0.112 0.064,0.164Z" style="fill:#fff;fill-rule:nonzero;"/><path d="M28.884,29.597c0.016,-0.056 0.016,-0.116 0.016,-0.168c0.004,-0.06 0.008,-0.116 0.008,-0.168c-0.004,-0.06 -0.016,-0.116 -0.028,-0.172c-0.016,-0.056 -0.024,-0.116 -0.052,-0.164c-0.028,-0.052 -0.068,-0.096 -0.108,-0.14c-0.036,-0.044 -0.08,-0.084 -0.128,-0.116c-0.052,-0.036 -0.1,-0.068 -0.152,-0.092c-0.052,-0.028 -0.108,-0.048 -0.16,-0.064c-0.06,-0.02 -0.116,-0.052 -0.176,-0.072c-0.068,-0.024 -0.136,-0.04 -0.204,-0.064c-0.04,-0.012 -0.084,-0.032 -0.128,-0.048c-0.04,-0.02 -0.076,-0.048 -0.112,-0.072c-0.056,-0.032 -0.104,-0.06 -0.14,-0.096c-0.044,-0.04 -0.08,-0.084 -0.1,-0.132c-0.02,-0.048 -0.028,-0.1 -0.028,-0.148c0,-0.048 0.008,-0.1 0.024,-0.144c0.02,-0.044 0.048,-0.088 0.08,-0.124c0.032,-0.036 0.076,-0.06 0.12,-0.084c0.044,-0.024 0.088,-0.04 0.132,-0.052c0.048,-0.012 0.092,-0.024 0.14,-0.028c0.048,0 0.096,-0.008 0.144,-0.004c0.02,0.004 0.016,0.012 0.036,0.016c0.052,0.008 0.104,0.02 0.16,0.028c0.06,0.004 0.128,-0.008 0.204,-0.008c0.044,0 0.088,-0.004 0.124,-0.024c0.036,-0.02 0.064,-0.052 0.092,-0.092c0.032,-0.044 0.048,-0.088 0.044,-0.136c0,-0.048 -0.02,-0.092 -0.06,-0.132c-0.028,-0.028 -0.064,-0.048 -0.096,-0.068c-0.036,-0.02 -0.068,-0.048 -0.104,-0.06c-0.052,-0.012 -0.108,-0.016 -0.164,-0.024c-0.052,-0.012 -0.108,-0.02 -0.16,-0.024c-0.056,-0.004 -0.112,-0.016 -0.164,-0.016c-0.056,0 -0.112,0.012 -0.164,0.02c-0.056,0.008 -0.112,0.008 -0.164,0.02c-0.052,0.012 -0.104,0.04 -0.156,0.056c-0.048,0.016 -0.1,0.036 -0.152,0.06c-0.044,0.02 -0.084,0.044 -0.124,0.068c-0.04,0.024 -0.084,0.048 -0.116,0.076c-0.04,0.032 -0.076,0.064 -0.104,0.1c-0.036,0.036 -0.056,0.084 -0.084,0.124c-0.024,0.044 -0.056,0.084 -0.076,0.132c-0.02,0.044 -0.02,0.096 -0.032,0.148c-0.012,0.048 -0.02,0.096 -0.024,0.148c-0.004,0.048 -0.004,0.096 -0.004,0.148c0.004,0.06 0.012,0.116 0.028,0.168c0.016,0.056 0.048,0.104 0.076,0.152c0.028,0.048 0.06,0.096 0.1,0.136c0.04,0.044 0.084,0.084 0.136,0.12c0.048,0.032 0.096,0.068 0.152,0.096c0.052,0.024 0.108,0.048 0.168,0.068c0.044,0.02 0.084,0.044 0.128,0.06c0.044,0.016 0.092,0.028 0.136,0.044c0.036,0.012 0.072,0.032 0.108,0.044c0.036,0.016 0.076,0.028 0.112,0.04c0.06,0.024 0.116,0.048 0.168,0.084c0.052,0.036 0.1,0.076 0.14,0.124c0.036,0.04 0.06,0.088 0.072,0.14c0.016,0.052 0.024,0.108 0.02,0.16c-0.008,0.056 -0.032,0.104 -0.06,0.148c-0.036,0.048 -0.076,0.088 -0.116,0.12c-0.044,0.036 -0.092,0.072 -0.144,0.092c-0.048,0.016 -0.1,0.012 -0.152,0.02c-0.048,0.004 -0.096,0.016 -0.148,0.012c-0.048,-0.004 -0.096,-0.02 -0.148,-0.032c-0.048,-0.008 -0.092,-0.02 -0.14,-0.036l-0.064,-0.024c-0.048,-0.012 -0.092,-0.008 -0.136,-0.012c-0.048,-0.004 -0.092,-0.004 -0.136,0.004c-0.052,0.012 -0.1,0.028 -0.136,0.06c-0.032,0.032 -0.064,0.076 -0.08,0.128c-0.012,0.052 0.004,0.096 0.02,0.136c0.02,0.052 0.064,0.088 0.08,0.104c0.024,0.02 0.052,0.036 0.08,0.052c0.036,0.02 0.072,0.04 0.108,0.056c0.04,0.016 0.072,0.04 0.112,0.048c0.044,0.012 0.092,0.012 0.14,0.02c0.048,0.008 0.092,0.02 0.14,0.024c0.048,0.004 0.096,-0.008 0.144,-0.008c0.036,0 0.076,0.004 0.116,0.004c0.016,0 0.016,-0.008 0.028,-0.008c0.02,0 0.04,0.012 0.064,0.012c0.052,-0.004 0.104,-0.008 0.156,-0.016c0.056,-0.008 0.104,-0.024 0.156,-0.04c0.052,-0.016 0.096,-0.044 0.144,-0.068c0.044,-0.024 0.096,-0.036 0.136,-0.06c0.044,-0.028 0.076,-0.064 0.116,-0.096c0.04,-0.032 0.08,-0.06 0.112,-0.096c0.032,-0.036 0.056,-0.08 0.08,-0.124c0.028,-0.04 0.056,-0.08 0.076,-0.124c0.02,-0.048 0.036,-0.092 0.048,-0.14Z" style="fill:#fff;fill-rule:nonzero;"/></g></svg>