<?xml version="1.0" encoding="UTF-8" standalone="no"?><!DOCTYPE svg PUBLIC "-//W3C//DTD SVG 1.1//EN" "http://www.w3.org/Graphics/SVG/1.1/DTD/svg11.dtd"><svg width="100%" height="100%" viewBox="0 0 36 36" version="1.1" xmlns="http://www.w3.org/2000/svg" xmlns:xlink="http://www.w3.org/1999/xlink" xml:space="preserve" style="fill-rule:evenodd;clip-rule:evenodd;stroke-linejoin:round;stroke-miterlimit:1.41421;"><rect x="-0.72" y="-0.72" width="38.34" height="36.72" style="fill:#ff9800;"/><g><path d="M6.849,28.001c0.02,0.064 0.024,0.132 0.024,0.22l0,0.156c0,0.048 -0.004,0.1 -0.004,0.152c0,0.052 0.008,0.1 0.008,0.152c0,0.052 -0.004,0.104 -0.004,0.152c0,0.08 0.008,0.08 0.008,0.16l0,0.156c0,0.08 -0.008,0.08 -0.008,0.156l0,0.304c0,0.052 0.004,0.1 0,0.152l0,0.152c0,0.052 0.004,0.104 0.008,0.156l0.024,0.152c0.012,0.068 0.036,0.132 0.08,0.176c0.048,0.04 0.112,0.06 0.18,0.06c0.004,0 0.008,0.004 0.012,0.004c0.068,0 0.124,-0.024 0.168,-0.064c0.044,-0.036 0.076,-0.092 0.092,-0.16c0.008,-0.036 0.016,-0.072 0.016,-0.12c0.004,-0.052 -0.004,-0.104 -0.004,-0.16c0,-0.08 0.004,-0.08 0.004,-0.16c0,-0.076 -0.008,-0.076 -0.008,-0.156c0,-0.056 0.008,-0.108 0.008,-0.16c0,-0.056 -0.004,-0.108 -0.004,-0.16c0,-0.056 0.004,-0.108 0.004,-0.16c0,-0.056 0.008,-0.108 0.008,-0.16c0,-0.056 -0.012,-0.108 -0.012,-0.16c0,-0.056 -0.004,-0.108 -0.004,-0.16l0,-0.16c0,-0.056 0.012,-0.108 0.012,-0.16c0,-0.048 0.004,-0.096 0.008,-0.152c0.004,-0.044 0,-0.096 0.008,-0.148c0.008,-0.064 0.036,-0.112 0.06,-0.16c0.032,-0.048 0.064,-0.096 0.112,-0.128c0.044,-0.028 0.1,-0.044 0.164,-0.06c0.02,-0.004 0.044,-0.008 0.072,-0.008c0.012,-0.004 0.024,-0.008 0.036,-0.008c0.024,-0.004 0.048,-0.008 0.072,-0.008c0.052,-0.008 0.108,-0.012 0.164,-0.02c0.056,-0.012 0.116,-0.028 0.152,-0.064c0.044,-0.04 0.068,-0.096 0.068,-0.148c0,-0.056 -0.032,-0.104 -0.076,-0.144c-0.04,-0.036 -0.092,-0.064 -0.148,-0.068c-0.028,-0.004 -0.024,-0.02 -0.052,-0.024l-0.132,-0.012c-0.044,-0.004 -0.092,-0.008 -0.136,-0.008c-0.048,0 -0.1,0.004 -0.148,0.004c-0.048,0 -0.1,-0.004 -0.148,-0.004l-0.148,0c-0.052,0 -0.1,0.008 -0.152,0.008c-0.048,0 -0.096,-0.004 -0.148,-0.004l-0.148,0c-0.048,0 -0.1,0.004 -0.148,0.004c-0.048,0 -0.1,0.004 -0.148,0.004c-0.052,0 -0.1,-0.004 -0.148,-0.004c-0.004,0 -0.004,-0.004 -0.004,-0.004c-0.052,0 -0.104,0 -0.156,0.004c-0.052,0.008 -0.1,0.02 -0.152,0.028c-0.064,0.008 -0.112,0.036 -0.152,0.072c-0.04,0.04 -0.072,0.096 -0.068,0.152c0.004,0.056 0.028,0.112 0.068,0.148c0.036,0.032 0.088,0.048 0.148,0.056c0.04,0.008 0.076,0.02 0.116,0.024c0.04,0.008 0.084,0.008 0.12,0.012c0.056,0.008 0.112,0.008 0.164,0.024c0.048,0.016 0.088,0.036 0.12,0.06c0.04,0.024 0.064,0.064 0.088,0.1c0.024,0.036 0.052,0.072 0.064,0.116Z" style="fill:#fff;fill-rule:nonzero;"/><path d="M8.897,30.529c0.044,0.004 0.084,0.004 0.128,0.004c0.004,0 0.004,0.004 0.008,0.004c0.052,0 0.1,-0.004 0.148,-0.004c0.048,0 0.096,0.008 0.144,0.008c0.056,0 0.112,-0.004 0.168,-0.004l0.16,0c0.08,0 0.08,-0.004 0.16,-0.004c0.08,0 0.08,0.008 0.16,0.008c0.084,0 0.084,-0.004 0.164,-0.004c0.08,0 0.08,0.004 0.16,0.004l0.008,0c0.008,0 0.016,-0.004 0.024,-0.004c0.02,0 0.02,0 0.044,0l0.116,-0.012c0.06,-0.008 0.116,-0.032 0.16,-0.072c0.06,-0.056 0.096,-0.132 0.088,-0.208c-0.012,-0.076 -0.068,-0.136 -0.144,-0.172c-0.036,-0.016 -0.068,-0.028 -0.104,-0.036c-0.048,-0.008 -0.092,-0.02 -0.136,-0.024c-0.048,-0.004 -0.092,-0.008 -0.136,-0.008l-0.176,0c-0.056,0 -0.116,0.012 -0.172,0.012c-0.072,0 -0.14,-0.012 -0.212,-0.012c-0.012,0 -0.028,0.008 -0.04,0.008c-0.088,0 -0.164,-0.012 -0.228,-0.036c-0.056,-0.02 -0.1,-0.052 -0.14,-0.088c-0.04,-0.036 -0.064,-0.084 -0.084,-0.14c-0.024,-0.064 -0.036,-0.12 -0.036,-0.168c0.004,-0.06 0,-0.116 0.008,-0.16c0.016,-0.056 0.04,-0.104 0.072,-0.144c0.028,-0.04 0.068,-0.072 0.12,-0.1c0.04,-0.02 0.092,-0.04 0.148,-0.048c0.052,-0.008 0.1,-0.008 0.148,-0.012c0.052,-0.008 0.1,-0.004 0.148,-0.004c0.056,0 0.112,-0.012 0.168,-0.012c0.056,0 0.108,0.012 0.164,0.012c0.024,0 0.024,-0.004 0.048,-0.004c0.044,0 0.084,-0.008 0.128,-0.016c0.044,-0.008 0.084,-0.02 0.12,-0.036c0.04,-0.02 0.076,-0.044 0.1,-0.076c0.024,-0.036 0.048,-0.072 0.048,-0.12c0,-0.048 -0.024,-0.088 -0.048,-0.128c-0.028,-0.032 -0.06,-0.06 -0.108,-0.08c-0.048,-0.024 -0.096,-0.032 -0.132,-0.04c-0.04,-0.004 -0.076,-0.016 -0.112,-0.016c-0.008,0 -0.008,0.012 -0.016,0.012c-0.044,0 -0.092,-0.008 -0.136,-0.008l-0.14,0c-0.048,0 -0.092,-0.004 -0.14,-0.004c-0.064,0 -0.12,0.004 -0.176,-0.004c-0.06,-0.008 -0.116,-0.016 -0.168,-0.036c-0.048,-0.016 -0.088,-0.04 -0.12,-0.068c-0.032,-0.032 -0.048,-0.072 -0.068,-0.112c-0.016,-0.04 -0.032,-0.08 -0.036,-0.128c0,-0.02 0.004,-0.04 0.004,-0.06c0,-0.012 -0.008,-0.028 -0.008,-0.04c0,-0.064 0.012,-0.124 0.036,-0.176c0.024,-0.056 0.068,-0.1 0.12,-0.136c0.048,-0.028 0.108,-0.04 0.172,-0.052c0.06,-0.008 0.112,-0.02 0.168,-0.024c0.056,-0.008 0.112,-0.008 0.168,-0.008l0.132,0c0.044,0 0.084,-0.004 0.128,-0.004c0.044,0 0.088,0.012 0.132,0.012c0.044,0 0.044,-0.016 0.092,-0.016c0.064,0 0.136,0 0.212,-0.036c0.04,-0.02 0.068,-0.048 0.092,-0.08c0.024,-0.036 0.048,-0.072 0.052,-0.112c0.004,-0.04 -0.008,-0.084 -0.032,-0.128c-0.02,-0.032 -0.052,-0.056 -0.1,-0.084c-0.04,-0.024 -0.08,-0.044 -0.112,-0.052c-0.04,-0.012 -0.08,-0.008 -0.12,-0.012c-0.04,-0.004 -0.08,-0.008 -0.12,-0.008c-0.052,0 -0.104,-0.008 -0.156,-0.008c-0.052,0 -0.1,0.004 -0.152,0.004c-0.052,0 -0.104,0.004 -0.156,0.004c-0.052,0 -0.104,-0.008 -0.152,-0.008c-0.052,0 -0.104,-0.004 -0.156,-0.004c-0.052,0 -0.104,0.004 -0.156,0.004c-0.048,0 -0.1,0.008 -0.152,0.008l-0.004,0c-0.044,0 -0.092,-0.004 -0.136,0.004c-0.048,0.004 -0.092,0.016 -0.132,0.024c-0.068,0.016 -0.132,0.036 -0.172,0.08c-0.044,0.044 -0.068,0.104 -0.084,0.172c-0.008,0.048 -0.012,0.1 -0.012,0.156c0,0.056 -0.008,0.108 -0.008,0.164c0,0.052 0.004,0.104 0.004,0.16c0,0.052 -0.004,0.108 -0.004,0.16l0,0.164c0,0.052 0.008,0.108 0.008,0.16c0,0.052 -0.004,0.108 -0.004,0.16c0,0.056 0.004,0.108 0.004,0.164l0,0.16c0,0.052 -0.012,0.108 -0.012,0.16c0,0.056 0.016,0.108 0.016,0.164c0,0.052 -0.004,0.108 -0.004,0.16c0,0.052 0.004,0.108 0.004,0.16c0,0.056 -0.012,0.108 -0.012,0.164c0,0.052 -0.004,0.108 -0.004,0.16c0,0.056 0.016,0.108 0.016,0.16c0,0.04 -0.012,0.072 -0.008,0.104c0.008,0.064 0.032,0.12 0.06,0.164c0.032,0.056 0.072,0.096 0.124,0.128c0.048,0.024 0.108,0.04 0.172,0.044Z" style="fill:#fff;fill-rule:nonzero;"/><path d="M13.893,30.113c-0.016,-0.044 -0.036,-0.088 -0.052,-0.128c-0.02,-0.048 -0.056,-0.092 -0.08,-0.14c-0.02,-0.044 -0.036,-0.088 -0.052,-0.128c-0.02,-0.044 -0.04,-0.084 -0.056,-0.128c-0.02,-0.048 -0.032,-0.104 -0.052,-0.152c-0.02,-0.052 -0.048,-0.096 -0.072,-0.148l-0.06,-0.148c-0.024,-0.048 -0.048,-0.092 -0.068,-0.14c-0.024,-0.048 -0.04,-0.096 -0.06,-0.144c-0.02,-0.044 -0.036,-0.092 -0.056,-0.14c-0.016,-0.044 -0.04,-0.092 -0.06,-0.136c-0.02,-0.048 -0.036,-0.096 -0.056,-0.14c-0.02,-0.048 -0.044,-0.092 -0.064,-0.136c-0.02,-0.048 -0.028,-0.096 -0.048,-0.144c-0.02,-0.044 -0.044,-0.088 -0.064,-0.136c-0.02,-0.04 -0.036,-0.084 -0.056,-0.124c-0.016,-0.044 -0.044,-0.08 -0.06,-0.124l-0.06,-0.124c-0.02,-0.048 -0.036,-0.096 -0.06,-0.136c-0.028,-0.044 -0.056,-0.084 -0.088,-0.12c-0.036,-0.04 -0.084,-0.064 -0.128,-0.088c-0.044,-0.024 -0.092,-0.04 -0.148,-0.044c-0.052,0 -0.104,0.004 -0.152,0.024c-0.048,0.02 -0.092,0.048 -0.132,0.088c-0.048,0.048 -0.088,0.112 -0.12,0.184c-0.02,0.044 -0.036,0.088 -0.056,0.132l-0.064,0.132c-0.016,0.04 -0.032,0.08 -0.052,0.116c-0.016,0.04 -0.028,0.084 -0.044,0.12c-0.02,0.044 -0.036,0.088 -0.056,0.132c-0.016,0.04 -0.036,0.084 -0.056,0.124c-0.02,0.044 -0.04,0.084 -0.056,0.128c-0.02,0.04 -0.032,0.076 -0.048,0.116c-0.02,0.036 -0.036,0.076 -0.052,0.112c-0.02,0.04 -0.048,0.08 -0.068,0.124c-0.016,0.04 -0.028,0.088 -0.048,0.132c-0.016,0.04 -0.044,0.08 -0.06,0.124c-0.016,0.048 -0.036,0.096 -0.056,0.14c-0.02,0.048 -0.032,0.1 -0.052,0.148l-0.064,0.136c-0.02,0.048 -0.048,0.092 -0.068,0.14c-0.024,0.052 -0.036,0.108 -0.06,0.16c-0.024,0.056 -0.052,0.104 -0.076,0.156c-0.016,0.044 -0.036,0.088 -0.052,0.132c-0.016,0.044 -0.024,0.092 -0.036,0.14c-0.012,0.044 -0.012,0.088 0,0.128c0.008,0.04 0.024,0.08 0.056,0.112c0.036,0.028 0.076,0.052 0.12,0.06c0.044,0.004 0.088,-0.004 0.136,-0.02c0.044,-0.012 0.088,-0.024 0.12,-0.048c0.036,-0.028 0.072,-0.06 0.092,-0.096c0.024,-0.036 0.048,-0.072 0.072,-0.116c0.02,-0.032 0.028,-0.076 0.052,-0.12c0.024,-0.044 0.064,-0.076 0.092,-0.108c0.032,-0.04 0.064,-0.072 0.104,-0.1c0.036,-0.024 0.08,-0.044 0.128,-0.056c0.044,-0.016 0.088,-0.032 0.136,-0.036c0.052,0 0.108,-0.008 0.16,-0.008c0.052,-0.004 0.104,0.012 0.16,0.008c0.052,0 0.104,-0.012 0.156,-0.012c0.056,0 0.108,0.012 0.16,0.016c0.052,0 0.108,0.004 0.16,0.004c0.06,0.004 0.112,0.02 0.164,0.04c0.052,0.02 0.108,0.036 0.152,0.072c0.04,0.036 0.076,0.084 0.108,0.132l0,0.008c0.032,0.048 0.056,0.096 0.08,0.144c0.02,0.048 0.044,0.088 0.072,0.12c0.032,0.04 0.076,0.064 0.108,0.092c0.032,0.028 0.056,0.06 0.092,0.072c0.04,0.016 0.08,0.016 0.12,0.016c0.008,0 0.016,0.008 0.02,0.004c0.072,-0.004 0.128,-0.036 0.168,-0.08c0.04,-0.044 0.06,-0.104 0.06,-0.176c0,-0.004 0.008,-0.004 0.008,-0.008c-0.004,-0.044 -0.016,-0.092 -0.028,-0.136Zm-1.156,-1.072c0,0.064 -0.004,0.116 -0.032,0.156c-0.028,0.044 -0.072,0.072 -0.132,0.096c-0.064,0.032 -0.14,0.048 -0.212,0.044l0,-0.008c0,0 0,0.012 -0.004,0.012c-0.076,0 -0.136,-0.012 -0.188,-0.036c-0.068,-0.024 -0.124,-0.06 -0.156,-0.108c-0.032,-0.052 -0.048,-0.116 -0.048,-0.188c0,-0.052 0.012,-0.108 0.028,-0.168c0.016,-0.052 0.032,-0.104 0.056,-0.16c0.024,-0.044 0.048,-0.088 0.076,-0.132c0.024,-0.04 0.048,-0.084 0.084,-0.12c0.056,-0.056 0.116,-0.056 0.16,-0.052c0.06,0.004 0.112,0.028 0.148,0.076c0.04,0.052 0.072,0.104 0.1,0.156c0.032,0.056 0.064,0.108 0.084,0.168c0.016,0.048 0.028,0.088 0.036,0.128c0.008,0.048 0,0.092 0,0.136Z" style="fill:#fff;fill-rule:nonzero;"/><path d="M17.569,30.493c0.044,0 0.088,-0.016 0.128,-0.036c0.064,-0.04 0.104,-0.108 0.124,-0.188c0.016,-0.06 0.028,-0.124 0.028,-0.188l0,-0.148c0,-0.052 -0.008,-0.1 -0.008,-0.152c0,-0.048 0.008,-0.1 0.008,-0.152c0,-0.048 -0.004,-0.1 -0.004,-0.148c0,-0.052 -0.004,-0.1 -0.004,-0.152c0,-0.048 -0.004,-0.1 -0.004,-0.152c0,-0.096 0.012,-0.096 0.012,-0.196l0,-0.188c0,-0.092 -0.008,-0.092 -0.008,-0.188l0,-0.144c0,-0.052 0.008,-0.1 0.008,-0.148c0,-0.048 -0.008,-0.096 -0.008,-0.148c0,-0.2 0.044,-0.432 -0.008,-0.628c-0.096,-0.38 -0.636,-0.4 -0.912,-0.2c-0.128,0.092 -0.196,0.24 -0.244,0.388c-0.068,0.204 -0.14,0.404 -0.208,0.608c-0.02,0.052 -0.032,0.112 -0.052,0.164c-0.02,0.064 -0.024,0.064 -0.048,0.124c-0.02,0.064 -0.016,0.064 -0.04,0.128c-0.02,0.064 -0.028,0.06 -0.048,0.124c-0.02,0.056 -0.044,0.104 -0.068,0.144c-0.032,0.048 -0.064,0.088 -0.104,0.124c-0.044,0.04 -0.088,0.052 -0.132,0.056c-0.044,0 -0.092,-0.012 -0.132,-0.052c-0.036,-0.028 -0.06,-0.068 -0.084,-0.108c-0.024,-0.036 -0.048,-0.076 -0.064,-0.124c-0.02,-0.048 -0.044,-0.092 -0.06,-0.144l-0.06,-0.144c-0.124,-0.34 -0.22,-0.684 -0.352,-1.02c-0.028,-0.072 -0.06,-0.144 -0.108,-0.204c-0.18,-0.216 -0.692,-0.256 -0.896,-0.056c-0.096,0.088 -0.128,0.224 -0.136,0.356c-0.008,0.184 0.004,0.368 0.004,0.548c0,0.052 0.004,0.108 0.004,0.16c0,0.052 0.004,0.104 0.004,0.156c0,0.052 -0.004,0.108 -0.004,0.16c0,0.052 -0.004,0.104 -0.004,0.156c0,0.052 -0.008,0.108 -0.008,0.16c0,0.052 0.016,0.104 0.016,0.156c0,0.052 -0.016,0.108 -0.016,0.16l0,0.156c0,0.052 0.008,0.108 0.008,0.16c0,0.052 -0.004,0.104 -0.004,0.156c0,0.052 0.012,0.108 0.012,0.16c0,0.044 -0.004,0.092 0.004,0.136c0.004,0.048 0.008,0.092 0.02,0.14c0.016,0.068 0.052,0.12 0.1,0.156c0.052,0.04 0.108,0.068 0.176,0.064c0.068,0 0.12,-0.032 0.164,-0.072c0.044,-0.04 0.072,-0.092 0.084,-0.156c0.012,-0.056 0.028,-0.112 0.028,-0.168c0,-0.056 -0.008,-0.112 -0.008,-0.168c0,-0.052 0.008,-0.108 0.008,-0.164c0,-0.048 -0.008,-0.1 -0.008,-0.148c0,-0.048 0.004,-0.1 0.004,-0.148c0,-0.048 -0.004,-0.1 -0.004,-0.148c0,-0.048 0.012,-0.1 0.012,-0.148c0,-0.044 -0.008,-0.088 -0.004,-0.132c0,-0.044 0.016,-0.084 0.016,-0.128l0.012,-0.132c0.004,-0.048 -0.008,-0.048 -0.004,-0.096c0.004,-0.044 0.02,-0.088 0.032,-0.144c0.012,-0.056 0.032,-0.108 0.076,-0.152c0.024,-0.024 0.044,-0.02 0.068,-0.012c0.024,0.012 0.048,0.028 0.068,0.044c0.052,0.044 0.084,0.108 0.116,0.168c0.024,0.044 0.052,0.08 0.072,0.124c0.016,0.044 0.028,0.088 0.044,0.136l0.048,0.132c0.012,0.04 0.016,0.08 0.032,0.12l0.048,0.144c0.016,0.048 0.044,0.092 0.06,0.14c0.016,0.052 0.02,0.104 0.036,0.152c0.016,0.048 0.028,0.1 0.044,0.148c0.012,0.04 0.036,0.076 0.048,0.116c0.012,0.04 0.016,0.084 0.028,0.124c0.02,0.052 0.044,0.104 0.068,0.164c0.02,0.052 0.028,0.112 0.056,0.164c0.02,0.048 0.048,0.088 0.08,0.128c0.032,0.036 0.072,0.064 0.116,0.084c0.04,0.02 0.092,0.036 0.14,0.032c0.048,0 0.096,-0.02 0.136,-0.044c0.044,-0.024 0.08,-0.056 0.108,-0.1c0.044,-0.056 0.064,-0.124 0.084,-0.18c0.02,-0.048 0.048,-0.096 0.068,-0.144c0.016,-0.048 0.024,-0.104 0.04,-0.152c0.016,-0.048 0.04,-0.096 0.056,-0.148c0.02,-0.048 0.024,-0.104 0.04,-0.152c0.012,-0.044 0.036,-0.084 0.052,-0.128c0.012,-0.044 0.016,-0.092 0.032,-0.136c0.016,-0.044 0.04,-0.084 0.056,-0.128c0.016,-0.044 0.032,-0.088 0.048,-0.132l0.036,-0.092c0.016,-0.048 0.036,-0.088 0.052,-0.136c0.02,-0.044 0.032,-0.088 0.052,-0.132c0.02,-0.044 0.044,-0.088 0.068,-0.128c0.04,-0.072 0.084,-0.12 0.136,-0.156c0.044,-0.028 0.076,-0.028 0.116,0.008c0.044,0.044 0.064,0.104 0.076,0.176c0.004,0.028 -0.004,0.028 0,0.056c0.008,0.056 0.012,0.108 0.016,0.16c0.004,0.056 0.016,0.108 0.016,0.164l0,0.28c0,0.048 -0.004,0.096 -0.004,0.144c0,0.048 -0.004,0.092 -0.004,0.14c0,0.048 0.012,0.096 0.012,0.14l0,0.144c0,0.044 0.004,0.092 0.004,0.14c0,0.052 -0.008,0.1 -0.004,0.152c0.004,0.048 0.016,0.1 0.024,0.148c0.012,0.056 0.032,0.104 0.064,0.14c0.032,0.036 0.08,0.064 0.132,0.08c0.028,0.008 0.052,0.02 0.08,0.02Z" style="fill:#fff;fill-rule:nonzero;"/><path d="M19.313,27.805l0.056,0.144c0.032,0.076 0.028,0.076 0.056,0.148c0.028,0.072 0.02,0.076 0.052,0.148l0.06,0.152c0.02,0.052 0.044,0.1 0.068,0.148l0.06,0.152c0.024,0.052 0.036,0.104 0.056,0.156l0.06,0.152c0.02,0.048 0.052,0.096 0.072,0.144c0.02,0.052 0.032,0.108 0.052,0.156c0.016,0.044 0.04,0.088 0.056,0.132c0.02,0.044 0.032,0.092 0.052,0.136c0.016,0.044 0.044,0.084 0.064,0.132c0.016,0.044 0.024,0.092 0.044,0.14c0.016,0.044 0.036,0.088 0.052,0.132c0.016,0.044 0.04,0.088 0.06,0.136c0.02,0.052 0.048,0.1 0.076,0.14c0.028,0.048 0.06,0.092 0.1,0.128c0.036,0.028 0.072,0.04 0.112,0.056c0.04,0.012 0.076,0.028 0.124,0.028c0,0 0,-0.004 0.004,-0.004c0.056,0 0.108,-0.02 0.156,-0.044c0.048,-0.024 0.088,-0.06 0.12,-0.108c0.032,-0.044 0.068,-0.088 0.092,-0.136c0.024,-0.048 0.04,-0.1 0.06,-0.156c0.024,-0.052 0.036,-0.104 0.06,-0.156c0.02,-0.052 0.04,-0.104 0.064,-0.156c0.016,-0.04 0.044,-0.08 0.06,-0.12c0.016,-0.04 0.028,-0.084 0.048,-0.128c0.016,-0.04 0.028,-0.084 0.044,-0.128c0.024,-0.048 0.052,-0.1 0.072,-0.148c0.02,-0.052 0.044,-0.104 0.068,-0.156c0.02,-0.048 0.036,-0.104 0.056,-0.152l0.06,-0.152c0.028,-0.064 0.056,-0.124 0.08,-0.188c0.02,-0.052 0.048,-0.104 0.068,-0.156c0.024,-0.052 0.044,-0.104 0.068,-0.156c0.02,-0.044 0.028,-0.096 0.048,-0.14l0.06,-0.136c0.02,-0.044 0.044,-0.088 0.06,-0.136c0.016,-0.044 0.028,-0.096 0.044,-0.14c0.012,-0.04 0.036,-0.084 0.04,-0.132c0.004,-0.048 0,-0.092 -0.012,-0.132c-0.016,-0.044 -0.044,-0.072 -0.08,-0.1c-0.036,-0.028 -0.072,-0.04 -0.12,-0.044c-0.04,0 -0.084,-0.004 -0.132,0.016c-0.044,0.016 -0.08,0.044 -0.112,0.068c-0.028,0.024 -0.056,0.056 -0.076,0.088c-0.02,0.032 -0.04,0.068 -0.056,0.108c0,0.008 0,0.008 -0.004,0.012c-0.02,0.052 -0.044,0.104 -0.064,0.156c-0.02,0.052 -0.044,0.104 -0.064,0.156c-0.02,0.052 -0.036,0.108 -0.056,0.16l-0.048,0.152c-0.02,0.048 -0.048,0.096 -0.064,0.144c-0.02,0.052 -0.044,0.104 -0.064,0.16c-0.02,0.052 -0.028,0.112 -0.048,0.164c-0.02,0.052 -0.048,0.104 -0.068,0.156c-0.02,0.048 -0.044,0.096 -0.068,0.144c-0.024,0.048 -0.048,0.092 -0.08,0.136c-0.056,0.072 -0.12,0.112 -0.184,0.112l0,0.012c-0.06,0 -0.112,-0.048 -0.172,-0.116c-0.024,-0.032 -0.048,-0.064 -0.068,-0.1c-0.02,-0.036 -0.04,-0.068 -0.056,-0.112c-0.02,-0.044 -0.04,-0.092 -0.056,-0.136c-0.02,-0.048 -0.032,-0.092 -0.052,-0.14c-0.016,-0.044 -0.036,-0.092 -0.052,-0.14c-0.016,-0.044 -0.036,-0.088 -0.056,-0.136c-0.016,-0.048 -0.036,-0.092 -0.052,-0.14c-0.016,-0.044 -0.044,-0.088 -0.06,-0.136l-0.048,-0.14c-0.016,-0.044 -0.036,-0.092 -0.052,-0.14c-0.016,-0.044 -0.032,-0.092 -0.052,-0.14c-0.016,-0.044 -0.032,-0.088 -0.048,-0.124c-0.024,-0.044 -0.056,-0.076 -0.084,-0.108c-0.032,-0.04 -0.064,-0.072 -0.108,-0.096c-0.04,-0.024 -0.084,-0.044 -0.136,-0.052c-0.04,-0.008 -0.084,-0.016 -0.124,-0.004c-0.04,0.008 -0.072,0.036 -0.104,0.068c-0.028,0.028 -0.056,0.06 -0.068,0.104c-0.012,0.036 -0.016,0.08 -0.008,0.124c0.008,0.048 0.02,0.092 0.036,0.136c0.016,0.044 0.036,0.088 0.056,0.128Z" style="fill:#fff;fill-rule:nonzero;"/><path d="M22.561,28.609c0,0.092 0.008,0.092 0.008,0.184c0,0.092 -0.008,0.092 -0.008,0.18c0,0.056 0.004,0.108 0.004,0.164c0,0.052 0.004,0.108 0.004,0.164l0,0.324c0,0.052 0.004,0.108 0.004,0.16c0,0.056 -0.008,0.108 -0.008,0.164c0,0.056 0.008,0.108 0.012,0.156c0.004,0.056 0.004,0.112 0.012,0.16c0.016,0.06 0.052,0.1 0.092,0.136c0.036,0.036 0.08,0.064 0.14,0.072c0.016,0.004 0.032,0.012 0.048,0.012c0.068,0 0.124,-0.024 0.172,-0.068c0.044,-0.036 0.068,-0.092 0.084,-0.16c0.012,-0.064 0.024,-0.124 0.024,-0.184l0,-0.148c0,-0.048 -0.008,-0.1 -0.008,-0.148c0,-0.052 0.004,-0.1 0.004,-0.152c0,-0.048 -0.008,-0.1 -0.008,-0.148l0,-0.148c0,-0.052 0.008,-0.1 0.008,-0.152c0,-0.068 0.008,-0.068 0.008,-0.136l0,-0.136c0,-0.072 -0.004,-0.072 -0.004,-0.14c0,-0.068 -0.004,-0.068 -0.004,-0.136c0,-0.06 -0.004,-0.116 -0.004,-0.176c0,-0.056 -0.004,-0.116 -0.004,-0.176c0,-0.056 0.008,-0.116 0.008,-0.172c0,-0.06 -0.008,-0.12 -0.008,-0.176c0,-0.052 0.012,-0.1 0.012,-0.152c0,-0.048 -0.004,-0.1 -0.004,-0.148c0,-0.06 -0.012,-0.14 -0.056,-0.216c-0.036,-0.064 -0.1,-0.108 -0.176,-0.124c-0.072,-0.016 -0.152,0 -0.212,0.048c-0.06,0.048 -0.104,0.108 -0.116,0.184c0,0.024 0.008,0.024 0.004,0.048l-0.012,0.128c-0.004,0.044 -0.02,0.088 -0.02,0.132c0,0.048 0.004,0.092 0.004,0.14l0,0.276c0,0.044 0.008,0.092 0.008,0.136c-0.004,0.116 -0.008,0.116 -0.008,0.228Z" style="fill:#fff;fill-rule:nonzero;"/><path d="M23.917,30.529c0.044,0.004 0.084,0.004 0.128,0.004c0.004,0 0.004,0.004 0.008,0.004c0.052,0 0.1,-0.004 0.148,-0.004c0.048,0 0.096,0.008 0.144,0.008c0.056,0 0.112,-0.004 0.168,-0.004l0.16,0c0.08,0 0.08,-0.004 0.16,-0.004c0.08,0 0.08,0.008 0.16,0.008c0.084,0 0.084,-0.004 0.164,-0.004c0.08,0 0.08,0.004 0.16,0.004l0.008,0c0.008,0 0.016,-0.004 0.024,-0.004c0.02,0 0.02,0 0.044,0l0.116,-0.012c0.06,-0.008 0.116,-0.032 0.16,-0.072c0.06,-0.056 0.096,-0.132 0.088,-0.208c-0.012,-0.076 -0.068,-0.136 -0.144,-0.172c-0.036,-0.016 -0.068,-0.028 -0.104,-0.036c-0.048,-0.008 -0.092,-0.02 -0.136,-0.024c-0.048,-0.004 -0.092,-0.008 -0.136,-0.008l-0.176,0c-0.056,0 -0.116,0.012 -0.172,0.012c-0.072,0 -0.14,-0.012 -0.212,-0.012c-0.012,0 -0.028,0.008 -0.04,0.008c-0.088,0 -0.164,-0.012 -0.228,-0.036c-0.056,-0.02 -0.1,-0.052 -0.14,-0.088c-0.04,-0.036 -0.064,-0.084 -0.084,-0.14c-0.024,-0.064 -0.036,-0.12 -0.036,-0.168c0.004,-0.06 0,-0.116 0.008,-0.16c0.016,-0.056 0.04,-0.104 0.072,-0.144c0.028,-0.04 0.068,-0.072 0.12,-0.1c0.04,-0.02 0.092,-0.04 0.148,-0.048c0.052,-0.008 0.1,-0.008 0.148,-0.012c0.052,-0.008 0.1,-0.004 0.148,-0.004c0.056,0 0.112,-0.012 0.168,-0.012c0.056,0 0.108,0.012 0.164,0.012c0.024,0 0.024,-0.004 0.048,-0.004c0.044,0 0.084,-0.008 0.128,-0.016c0.044,-0.008 0.084,-0.02 0.12,-0.036c0.04,-0.02 0.076,-0.044 0.1,-0.076c0.024,-0.036 0.048,-0.072 0.048,-0.12c0,-0.048 -0.024,-0.088 -0.048,-0.128c-0.028,-0.032 -0.06,-0.06 -0.108,-0.08c-0.048,-0.024 -0.096,-0.032 -0.132,-0.04c-0.04,-0.004 -0.076,-0.016 -0.112,-0.016c-0.008,0 -0.008,0.012 -0.016,0.012c-0.044,0 -0.092,-0.008 -0.136,-0.008l-0.14,0c-0.048,0 -0.092,-0.004 -0.14,-0.004c-0.064,0 -0.12,0.004 -0.176,-0.004c-0.06,-0.008 -0.116,-0.016 -0.168,-0.036c-0.048,-0.016 -0.088,-0.04 -0.12,-0.068c-0.032,-0.032 -0.048,-0.072 -0.068,-0.112c-0.016,-0.04 -0.032,-0.08 -0.036,-0.128c0,-0.02 0.004,-0.04 0.004,-0.06c0,-0.012 -0.008,-0.028 -0.008,-0.04c0,-0.064 0.012,-0.124 0.036,-0.176c0.024,-0.056 0.068,-0.1 0.12,-0.136c0.048,-0.028 0.108,-0.04 0.172,-0.052c0.06,-0.008 0.112,-0.02 0.168,-0.024c0.056,-0.008 0.112,-0.008 0.168,-0.008l0.132,0c0.044,0 0.084,-0.004 0.128,-0.004c0.044,0 0.088,0.012 0.132,0.012c0.044,0 0.044,-0.016 0.092,-0.016c0.064,0 0.136,0 0.212,-0.036c0.04,-0.02 0.068,-0.048 0.092,-0.08c0.024,-0.036 0.048,-0.072 0.052,-0.112c0.004,-0.04 -0.008,-0.084 -0.032,-0.128c-0.02,-0.032 -0.052,-0.056 -0.1,-0.084c-0.04,-0.024 -0.08,-0.044 -0.112,-0.052c-0.04,-0.012 -0.08,-0.008 -0.12,-0.012c-0.04,-0.004 -0.08,-0.008 -0.12,-0.008c-0.052,0 -0.104,-0.008 -0.156,-0.008c-0.052,0 -0.1,0.004 -0.152,0.004c-0.052,0 -0.104,0.004 -0.156,0.004c-0.052,0 -0.104,-0.008 -0.152,-0.008c-0.052,0 -0.104,-0.004 -0.156,-0.004c-0.052,0 -0.104,0.004 -0.156,0.004c-0.048,0 -0.1,0.008 -0.152,0.008l-0.004,0c-0.044,0 -0.092,-0.004 -0.136,0.004c-0.048,0.004 -0.092,0.016 -0.132,0.024c-0.068,0.016 -0.132,0.036 -0.172,0.08c-0.044,0.044 -0.068,0.104 -0.084,0.172c-0.008,0.048 -0.012,0.1 -0.012,0.156c0,0.056 -0.008,0.108 -0.008,0.164c0,0.052 0.004,0.104 0.004,0.16c0,0.052 -0.004,0.108 -0.004,0.16l0,0.164c0,0.052 0.008,0.108 0.008,0.16c0,0.052 -0.004,0.108 -0.004,0.16c0,0.056 0.004,0.108 0.004,0.164l0,0.16c0,0.052 -0.012,0.108 -0.012,0.16c0,0.056 0.016,0.108 0.016,0.164c0,0.052 -0.004,0.108 -0.004,0.16c0,0.052 0.004,0.108 0.004,0.16c0,0.056 -0.012,0.108 -0.012,0.164c0,0.052 -0.004,0.108 -0.004,0.16c0,0.056 0.016,0.108 0.016,0.16c0,0.04 -0.012,0.072 -0.008,0.104c0.008,0.064 0.032,0.12 0.06,0.164c0.032,0.056 0.072,0.096 0.124,0.128c0.048,0.024 0.108,0.04 0.172,0.044Z" style="fill:#fff;fill-rule:nonzero;"/><path d="M29.937,29.013c0.016,-0.048 0.024,-0.1 0.04,-0.152c0.016,-0.048 0.02,-0.1 0.036,-0.148l0.044,-0.152c0.012,-0.048 0.036,-0.096 0.052,-0.148c0.016,-0.048 0.02,-0.1 0.032,-0.152l0.048,-0.148c0.02,-0.08 0.028,-0.076 0.052,-0.156c0.024,-0.076 0.016,-0.08 0.04,-0.156c0.012,-0.04 0.024,-0.084 0.032,-0.128c0.008,-0.04 0.02,-0.084 0.024,-0.132c0,0 -0.008,0 -0.008,-0.004c-0.004,-0.008 0.012,-0.008 0.012,-0.016c0,-0.016 -0.004,-0.04 -0.012,-0.064c-0.012,-0.076 -0.056,-0.144 -0.12,-0.176c-0.064,-0.032 -0.14,-0.02 -0.212,0.012c-0.06,0.028 -0.104,0.072 -0.136,0.128c-0.036,0.06 -0.072,0.124 -0.092,0.196l-0.048,0.22c-0.016,0.06 -0.04,0.124 -0.056,0.184c-0.016,0.064 -0.02,0.128 -0.036,0.192c-0.012,0.044 -0.032,0.088 -0.044,0.136l-0.04,0.136c-0.016,0.048 -0.016,0.096 -0.028,0.14c-0.012,0.048 -0.036,0.092 -0.048,0.136c-0.012,0.048 -0.012,0.096 -0.024,0.14c-0.012,0.044 -0.044,0.076 -0.072,0.116c-0.028,0.032 -0.056,0.064 -0.096,0.092c-0.064,0.048 -0.104,0.044 -0.164,-0.008c-0.036,-0.032 -0.068,-0.068 -0.096,-0.108c-0.028,-0.04 -0.06,-0.08 -0.08,-0.128c-0.016,-0.048 -0.02,-0.1 -0.036,-0.148c-0.016,-0.048 -0.036,-0.092 -0.052,-0.14c-0.016,-0.048 -0.032,-0.096 -0.044,-0.144c-0.02,-0.068 -0.044,-0.132 -0.064,-0.196c-0.024,-0.076 -0.044,-0.152 -0.068,-0.224c-0.012,-0.056 -0.028,-0.108 -0.044,-0.16c-0.016,-0.056 -0.036,-0.108 -0.056,-0.16c-0.016,-0.052 -0.036,-0.104 -0.06,-0.156c-0.016,-0.04 -0.04,-0.072 -0.06,-0.104c-0.024,-0.036 -0.044,-0.072 -0.072,-0.096c-0.048,-0.044 -0.1,-0.068 -0.156,-0.084c-0.056,-0.02 -0.112,-0.032 -0.172,-0.02c-0.052,0.012 -0.108,0.04 -0.16,0.076c-0.044,0.032 -0.08,0.072 -0.112,0.116c-0.028,0.044 -0.048,0.096 -0.064,0.148c-0.016,0.048 -0.032,0.092 -0.044,0.136l-0.048,0.136c-0.012,0.044 -0.02,0.092 -0.036,0.136c-0.016,0.044 -0.028,0.092 -0.04,0.136c-0.016,0.048 -0.04,0.088 -0.056,0.132c-0.02,0.068 -0.024,0.068 -0.044,0.132c-0.024,0.068 -0.016,0.072 -0.036,0.136c-0.024,0.068 -0.028,0.068 -0.048,0.132c-0.016,0.048 -0.028,0.088 -0.048,0.132c-0.02,0.044 -0.032,0.088 -0.052,0.128c-0.024,0.04 -0.056,0.072 -0.084,0.108c-0.024,0.032 -0.068,0.052 -0.12,0.056c-0.044,0 -0.08,-0.016 -0.104,-0.04c-0.044,-0.052 -0.088,-0.08 -0.112,-0.128c-0.024,-0.052 -0.032,-0.104 -0.048,-0.156c-0.02,-0.056 -0.04,-0.108 -0.048,-0.152c-0.012,-0.044 -0.02,-0.088 -0.028,-0.132c-0.012,-0.04 -0.02,-0.084 -0.032,-0.128c-0.008,-0.04 -0.02,-0.084 -0.032,-0.124c-0.012,-0.048 -0.028,-0.092 -0.036,-0.136c-0.012,-0.044 -0.02,-0.088 -0.032,-0.136l-0.036,-0.132c-0.012,-0.048 -0.02,-0.092 -0.032,-0.136c-0.02,-0.068 -0.044,-0.14 -0.064,-0.196c-0.028,-0.068 -0.088,-0.12 -0.156,-0.168c-0.044,-0.028 -0.088,-0.048 -0.14,-0.052c-0.048,-0.004 -0.096,0.004 -0.148,0.028c-0.048,0.02 -0.088,0.056 -0.108,0.104c-0.02,0.04 -0.032,0.092 -0.028,0.148c0.004,0.056 0.02,0.108 0.032,0.156l0.044,0.152c0.012,0.048 0.028,0.096 0.04,0.148c0.016,0.048 0.036,0.096 0.052,0.144c0.016,0.052 0.016,0.104 0.032,0.152c0.012,0.052 0.04,0.096 0.052,0.148c0.016,0.048 0.024,0.1 0.036,0.148c0.016,0.052 0.036,0.096 0.052,0.148l0.04,0.148c0.016,0.044 0.024,0.088 0.036,0.132c0.012,0.044 0.028,0.088 0.04,0.132c0.012,0.044 0.02,0.088 0.036,0.132c0.012,0.048 0.028,0.096 0.04,0.144c0.016,0.048 0.04,0.092 0.056,0.14l0.036,0.144c0.016,0.048 0.024,0.096 0.04,0.144c0.012,0.048 0.028,0.096 0.04,0.144c0.016,0.06 0.036,0.112 0.056,0.164c0.024,0.056 0.052,0.108 0.08,0.156c0.028,0.04 0.06,0.08 0.1,0.108c0.04,0.024 0.092,0.036 0.14,0.044c0.052,0.004 0.1,-0.004 0.148,-0.02c0.048,-0.016 0.1,-0.028 0.14,-0.064c0.032,-0.032 0.06,-0.068 0.084,-0.108c0.024,-0.04 0.04,-0.08 0.056,-0.128c0.032,-0.104 0.028,-0.104 0.06,-0.208c0.016,-0.048 0.024,-0.1 0.04,-0.148c0.012,-0.044 0.028,-0.092 0.04,-0.14c0.016,-0.048 0.036,-0.096 0.052,-0.14c0.012,-0.048 0.024,-0.096 0.04,-0.144c0.016,-0.048 0.04,-0.092 0.056,-0.14c0.016,-0.048 0.028,-0.1 0.048,-0.152c0.016,-0.052 0.028,-0.104 0.044,-0.156c0.012,-0.04 0.028,-0.084 0.044,-0.124c0.012,-0.04 0.032,-0.08 0.044,-0.124c0.012,-0.036 0.032,-0.068 0.06,-0.104c0.02,-0.032 0.048,-0.06 0.08,-0.092c0.036,-0.032 0.072,-0.044 0.108,-0.044c0.036,0 0.076,0.008 0.112,0.04c0.056,0.044 0.1,0.1 0.128,0.168c0.02,0.044 0.028,0.096 0.044,0.144c0.02,0.044 0.044,0.092 0.06,0.136c0.016,0.048 0.036,0.092 0.052,0.14c0.016,0.048 0.016,0.1 0.032,0.148c0.02,0.064 0.052,0.124 0.072,0.188c0.016,0.052 0.028,0.104 0.044,0.156c0.016,0.048 0.032,0.1 0.052,0.152c0.016,0.052 0.036,0.1 0.052,0.152c0.016,0.052 0.02,0.104 0.036,0.156c0.016,0.052 0.036,0.104 0.052,0.152c0.016,0.052 0.044,0.096 0.072,0.14c0.028,0.04 0.068,0.076 0.108,0.108c0.064,0.044 0.128,0.072 0.196,0.072c0.068,0 0.128,-0.024 0.188,-0.068c0.032,-0.024 0.08,-0.048 0.116,-0.092c0.028,-0.036 0.048,-0.084 0.068,-0.132c0.004,-0.02 0.016,-0.036 0.024,-0.056c0.012,-0.036 0.016,-0.072 0.028,-0.108l0.04,-0.136c0.012,-0.044 0.02,-0.092 0.032,-0.136c0.012,-0.044 0.04,-0.088 0.052,-0.132l0.036,-0.136c0.016,-0.052 0.036,-0.104 0.048,-0.156c0.016,-0.052 0.02,-0.108 0.032,-0.16c0.016,-0.052 0.044,-0.104 0.06,-0.156Z" style="fill:#fff;fill-rule:nonzero;"/></g><g><g><g><g><path d="M15.749,18.574c-1.373,0.287 -3.077,1.541 -3.233,3.911c-0.001,0.009 10.953,0.012 10.954,0c0.031,-2.348 -2.246,-3.705 -3.447,-3.911c-0.247,-0.042 -0.624,-0.31 -0.641,-0.748c-0.014,-0.351 1.509,-1.391 1.495,-3.312c-0.013,-1.921 -1.333,-3.555 -2.884,-3.525c-1.324,0.025 -2.933,1.467 -2.885,3.525c0.047,2.008 1.519,2.919 1.496,3.312c-0.03,0.495 -0.446,0.663 -0.855,0.748Z" style="fill:#fff;"/></g></g><path d="M21.44,18.655c0.118,-0.036 0.947,-0.307 1,-0.33c0.465,-0.203 0.66,-0.322 0.686,-0.748c0.023,-0.394 -1.449,-1.305 -1.496,-3.312c-0.048,-2.059 1.561,-3.501 2.885,-3.526c1.551,-0.03 2.871,1.604 2.884,3.526c0.014,1.921 -1.509,2.961 -1.495,3.312c0.017,0.437 0.394,0.705 0.641,0.748c1.201,0.205 3.309,1.646 3.446,4.159c0.001,0.016 -3.166,0.007 -6.108,0c-0.06,-2.069 -1.501,-3.239 -2.443,-3.829Z" style="fill:#fff;"/><path d="M14.511,18.655c-0.117,-0.036 -0.946,-0.307 -0.999,-0.33c-0.465,-0.203 -0.66,-0.322 -0.686,-0.748c-0.023,-0.394 1.449,-1.305 1.496,-3.312c0.048,-2.059 -1.561,-3.501 -2.885,-3.526c-1.551,-0.03 -2.871,1.604 -2.884,3.526c-0.014,1.921 1.509,2.961 1.495,3.312c-0.017,0.437 -0.394,0.705 -0.641,0.748c-1.201,0.205 -3.309,1.646 -3.447,4.159c0,0.016 3.167,0.007 6.109,0c0.06,-2.069 1.501,-3.239 2.442,-3.829Z" style="fill:#fff;"/></g></g></svg>