<?xml version="1.0" encoding="UTF-8" standalone="no"?><!DOCTYPE svg PUBLIC "-//W3C//DTD SVG 1.1//EN" "http://www.w3.org/Graphics/SVG/1.1/DTD/svg11.dtd"><svg width="100%" height="100%" viewBox="0 0 512 512" version="1.1" xmlns="http://www.w3.org/2000/svg" xmlns:xlink="http://www.w3.org/1999/xlink" xml:space="preserve" style="fill-rule:evenodd;clip-rule:evenodd;stroke-linecap:round;stroke-linejoin:round;stroke-miterlimit:1.5;"><path d="M256,512c0,0 37.286,-76.243 58,-125c22.947,-54.013 116.303,-132.653 117,-214c0.697,-81.347 -74.932,-176.412 -175,-173c-100.068,3.412 -178.828,83.872 -177,173c1.828,89.128 88.887,159.289 119,214c21.841,39.682 58,125 58,125" style="fill:#673ab7;"/><g><ellipse cx="256.269" cy="171.146" rx="140.269" ry="137.269" style="fill:none;stroke:#fff;stroke-width:14px;"/><path d="M353.747,188.914l0.723,0.119l0.706,0.194l0.683,0.266l0.651,0.336l0.612,0.403l0.567,0.464l0.515,0.521l0.458,0.572l0.396,0.617l0.329,0.655l0.258,0.685l0.186,0.709l0.11,0.724l0.035,0.732l-0.043,0.732l-0.119,0.723l-0.193,0.706l-0.024,0.073l-0.067,0.196l-0.099,0.287l-0.067,0.189l-0.074,0.205l-0.083,0.228l-0.092,0.25l-0.101,0.272l-0.111,0.293l-0.12,0.313l-0.129,0.335l-0.14,0.354l-0.149,0.374l-0.159,0.394l-0.169,0.412l-0.179,0.431l-0.189,0.45l-0.199,0.466l-0.209,0.485l-0.22,0.501l-0.23,0.518l-0.239,0.531l-0.127,0.277l-0.127,0.276l-0.129,0.282l-0.133,0.285l-0.135,0.288l-0.138,0.292l-0.141,0.296l-0.143,0.299l-0.146,0.303l-0.149,0.307l-0.152,0.31l-0.154,0.314l-0.158,0.317l-0.16,0.32l-0.163,0.323l-0.165,0.327l-0.169,0.33l-0.172,0.333l-0.174,0.336l-0.177,0.34l-0.18,0.342l-0.183,0.345l-0.186,0.348l-0.189,0.351l-0.192,0.354l-0.195,0.357l-0.198,0.358l-0.201,0.362l-0.204,0.365l-0.206,0.367l-0.21,0.369l-0.213,0.372l-0.216,0.375l-0.219,0.376l-0.222,0.379l-0.225,0.382l-0.228,0.383l-0.232,0.386l-0.234,0.388l-0.238,0.39l-0.241,0.392l-0.243,0.393l-0.248,0.396l-0.25,0.398l-0.253,0.399l-0.257,0.401l-0.26,0.404l-0.263,0.404l-0.266,0.406l-0.27,0.408l-0.273,0.41l-0.276,0.41l-0.279,0.413l-0.283,0.414l-0.286,0.415l-0.29,0.416l-0.292,0.417l-0.297,0.419l-0.299,0.42l-0.303,0.421l-0.306,0.422l-0.31,0.423l-0.313,0.424l-0.317,0.424l-0.32,0.426l-0.324,0.426l-0.327,0.427l-0.33,0.428l-0.334,0.429l-0.338,0.429l-0.341,0.429l-0.344,0.43l-0.348,0.431l-0.352,0.431l-0.355,0.431l-0.359,0.431l-0.363,0.432l-0.366,0.432l-0.37,0.432l-0.373,0.432l-0.377,0.432l-0.381,0.432l-0.385,0.432l-0.388,0.432l-0.392,0.432l-0.395,0.431l-0.4,0.431l-0.403,0.431l-0.407,0.431l-0.41,0.43l-0.415,0.429l-0.418,0.429l-0.419,0.425l-0.216,0.218l-0.213,0.213l-0.214,0.214l-0.216,0.213l-0.216,0.214l-0.217,0.213l-0.219,0.213l-0.219,0.212l-0.22,0.213l-0.221,0.212l-0.222,0.212l-0.224,0.212l-0.224,0.211l-0.225,0.212l-0.226,0.211l-0.227,0.211l-0.228,0.21l-0.229,0.21l-0.23,0.21l-0.231,0.21l-0.232,0.209l-0.233,0.209l-0.234,0.209l-0.235,0.209l-0.236,0.208l-0.237,0.208l-0.237,0.207l-0.239,0.207l-0.24,0.207l-0.241,0.207l-0.242,0.206l-0.243,0.205l-0.244,0.206l-0.245,0.205l-0.246,0.204l-0.247,0.205l-0.248,0.203l-0.249,0.204l-0.25,0.203l-0.251,0.202l-0.252,0.203l-0.253,0.201l-0.255,0.202l-0.255,0.2l-0.256,0.201l-0.257,0.2l-0.258,0.199l-0.26,0.199l-0.26,0.199l-0.261,0.198l-0.262,0.197l-0.264,0.197l-0.264,0.197l-0.266,0.196l-0.266,0.195l-0.268,0.195l-0.268,0.195l-0.27,0.193l-0.271,0.194l-0.271,0.193l-0.273,0.192l-0.274,0.191l-0.275,0.191l-0.275,0.191l-0.278,0.19l-0.278,0.189l-0.279,0.189l-0.28,0.188l-0.281,0.187l-0.282,0.187l-0.284,0.187l-0.284,0.185l-0.285,0.185l-0.287,0.184l-0.287,0.184l-0.289,0.183l-0.289,0.182l-0.291,0.182l-0.292,0.181l-0.293,0.18l-0.294,0.179l-0.295,0.179l-0.296,0.179l-0.297,0.177l-0.298,0.176l-0.299,0.177l-0.301,0.175l-0.301,0.174l-0.303,0.174l-0.303,0.173l-0.305,0.172l-0.306,0.171l-0.307,0.171l-0.308,0.17l-0.309,0.169l-0.31,0.168l-0.311,0.168l-0.312,0.166l-0.314,0.166l-0.314,0.165l-0.316,0.164l-0.316,0.163l-0.318,0.163l-0.319,0.161l-0.32,0.161l-0.321,0.16l-0.322,0.159l-0.323,0.158l-0.324,0.157l-0.326,0.156l-0.326,0.155l-0.328,0.155l-0.328,0.153l-0.33,0.153l-0.331,0.152l-0.332,0.15l-0.333,0.15l-0.334,0.149l-0.335,0.148l-0.337,0.147l-0.337,0.146l-0.339,0.144l-0.34,0.144l-0.34,0.143l-0.342,0.142l-0.343,0.141l-0.344,0.14l-0.346,0.139l-0.346,0.138l-0.347,0.137l-0.349,0.135l-0.35,0.135l-0.35,0.134l-0.352,0.132l-0.353,0.132l-0.354,0.13l-0.355,0.13l-0.357,0.128l-0.357,0.127l-0.359,0.126l-0.359,0.125l-0.361,0.124l-0.362,0.123l-0.363,0.121l-0.364,0.121l-0.365,0.119l-0.367,0.118l-0.367,0.117l-0.369,0.116l-0.369,0.115l-0.371,0.113l-0.372,0.112l-0.373,0.111l-0.374,0.11l-0.376,0.109l-0.376,0.108l-0.378,0.106l-0.378,0.105l-0.38,0.104l-0.381,0.102l-0.382,0.102l-0.383,0.1l-0.384,0.098l-0.385,0.098l-0.387,0.096l-0.387,0.095l-0.389,0.094l-0.39,0.092l-0.391,0.092l-0.392,0.089l-0.393,0.089l-0.394,0.087l-0.396,0.086l-0.396,0.085l-0.398,0.083l-0.399,0.082l-0.4,0.08l-0.401,0.079l-0.402,0.078l-0.403,0.077l-0.405,0.075l-0.405,0.073l-0.407,0.073l-0.407,0.071l-0.409,0.069l-0.41,0.068l-0.412,0.067l-0.412,0.065l-0.413,0.064l-0.415,0.063l-0.415,0.061l-0.417,0.059l-0.418,0.058l-0.419,0.057l-0.42,0.055l-0.421,0.054l-0.423,0.052l-0.423,0.051l-0.425,0.049l-0.426,0.048l-0.427,0.047l-0.428,0.044l-0.429,0.044l-0.43,0.041l-0.431,0.041l-0.433,0.039l-0.434,0.037l-0.434,0.035l-0.436,0.035l-0.437,0.032l-0.438,0.031l-0.44,0.03l-0.44,0.028l-0.442,0.026l-0.442,0.025l-0.444,0.023l-0.445,0.022l-0.446,0.02l-0.447,0.018l-0.448,0.017l-0.45,0.015l-0.45,0.013l-0.452,0.012l-0.453,0.011l-0.454,0.008l-0.455,0.007l-0.457,0.006l-0.456,0.003l-0.454,0.002l-0.454,0l-0.453,-0.001l-0.451,-0.004l-0.45,-0.005l-0.45,-0.006l-0.448,-0.009l-0.447,-0.01l-0.446,-0.012l-0.445,-0.013l-0.444,-0.015l-0.442,-0.017l-0.442,-0.018l-0.44,-0.021l-0.44,-0.021l-0.438,-0.024l-0.437,-0.025l-0.436,-0.027l-0.435,-0.028l-0.434,-0.03l-0.433,-0.031l-0.432,-0.033l-0.431,-0.035l-0.429,-0.037l-0.429,-0.037l-0.427,-0.04l-0.426,-0.041l-0.426,-0.043l-0.424,-0.044l-0.423,-0.046l-0.422,-0.047l-0.42,-0.049l-0.42,-0.05l-0.419,-0.052l-0.417,-0.054l-0.417,-0.055l-0.415,-0.056l-0.414,-0.058l-0.414,-0.059l-0.412,-0.061l-0.41,-0.063l-0.41,-0.064l-0.409,-0.065l-0.408,-0.067l-0.406,-0.068l-0.406,-0.07l-0.404,-0.071l-0.404,-0.073l-0.402,-0.074l-0.401,-0.076l-0.4,-0.077l-0.399,-0.078l-0.398,-0.08l-0.396,-0.081l-0.396,-0.083l-0.394,-0.083l-0.394,-0.086l-0.392,-0.086l-0.391,-0.088l-0.39,-0.09l-0.389,-0.091l-0.388,-0.092l-0.387,-0.093l-0.386,-0.095l-0.385,-0.096l-0.383,-0.098l-0.382,-0.098l-0.382,-0.1l-0.38,-0.102l-0.379,-0.102l-0.378,-0.104l-0.377,-0.105l-0.376,-0.107l-0.375,-0.108l-0.374,-0.109l-0.372,-0.11l-0.371,-0.111l-0.371,-0.113l-0.369,-0.114l-0.368,-0.115l-0.367,-0.116l-0.366,-0.118l-0.365,-0.119l-0.364,-0.12l-0.363,-0.121l-0.361,-0.122l-0.361,-0.124l-0.359,-0.124l-0.359,-0.126l-0.357,-0.127l-0.356,-0.128l-0.355,-0.13l-0.354,-0.13l-0.352,-0.131l-0.352,-0.133l-0.351,-0.134l-0.349,-0.135l-0.349,-0.135l-0.347,-0.137l-0.346,-0.139l-0.346,-0.139l-0.344,-0.14l-0.343,-0.141l-0.342,-0.142l-0.34,-0.144l-0.34,-0.144l-0.339,-0.146l-0.337,-0.146l-0.337,-0.148l-0.335,-0.148l-0.334,-0.149l-0.333,-0.151l-0.333,-0.151l-0.331,-0.153l-0.33,-0.153l-0.328,-0.155l-0.328,-0.155l-0.327,-0.156l-0.325,-0.157l-0.325,-0.158l-0.323,-0.16l-0.323,-0.159l-0.321,-0.161l-0.32,-0.162l-0.319,-0.163l-0.318,-0.163l-0.317,-0.165l-0.316,-0.165l-0.315,-0.166l-0.313,-0.167l-0.313,-0.168l-0.312,-0.169l-0.31,-0.17l-0.31,-0.17l-0.308,-0.171l-0.307,-0.173l-0.306,-0.172l-0.305,-0.174l-0.304,-0.175l-0.304,-0.175l-0.301,-0.176l-0.301,-0.177l-0.3,-0.177l-0.299,-0.179l-0.298,-0.179l-0.296,-0.18l-0.296,-0.18l-0.294,-0.182l-0.294,-0.182l-0.292,-0.182l-0.291,-0.184l-0.29,-0.184l-0.29,-0.185l-0.288,-0.186l-0.287,-0.186l-0.286,-0.187l-0.285,-0.187l-0.284,-0.189l-0.283,-0.189l-0.282,-0.189l-0.28,-0.19l-0.28,-0.191l-0.279,-0.191l-0.278,-0.192l-0.276,-0.193l-0.276,-0.193l-0.274,-0.194l-0.274,-0.194l-0.272,-0.196l-0.272,-0.195l-0.27,-0.196l-0.27,-0.197l-0.268,-0.197l-0.267,-0.198l-0.266,-0.198l-0.266,-0.199l-0.264,-0.2l-0.263,-0.199l-0.262,-0.201l-0.261,-0.201l-0.26,-0.201l-0.26,-0.202l-0.258,-0.202l-0.257,-0.203l-0.256,-0.203l-0.255,-0.204l-0.254,-0.205l-0.253,-0.204l-0.252,-0.205l-0.251,-0.206l-0.25,-0.206l-0.249,-0.206l-0.248,-0.207l-0.247,-0.207l-0.246,-0.208l-0.245,-0.207l-0.244,-0.209l-0.243,-0.209l-0.241,-0.209l-0.241,-0.209l-0.241,-0.21l-0.239,-0.21l-0.237,-0.211l-0.237,-0.21l-0.236,-0.212l-0.235,-0.211l-0.234,-0.212l-0.233,-0.212l-0.233,-0.212l-0.231,-0.213l-0.23,-0.213l-0.229,-0.213l-0.228,-0.214l-0.227,-0.214l-0.227,-0.214l-0.225,-0.214l-0.224,-0.214l-0.223,-0.215l-0.223,-0.215l-0.221,-0.215l-0.22,-0.216l-0.22,-0.216l-0.218,-0.216l-0.218,-0.215l-0.216,-0.217l-0.216,-0.216l-0.215,-0.217l-0.217,-0.22l-0.421,-0.43l-0.42,-0.435l-0.417,-0.435l-0.413,-0.436l-0.41,-0.436l-0.405,-0.436l-0.402,-0.437l-0.399,-0.437l-0.394,-0.438l-0.391,-0.437l-0.387,-0.438l-0.383,-0.437l-0.38,-0.438l-0.376,-0.438l-0.372,-0.437l-0.369,-0.438l-0.365,-0.437l-0.362,-0.437l-0.358,-0.436l-0.354,-0.436l-0.351,-0.436l-0.348,-0.435l-0.343,-0.435l-0.341,-0.435l-0.336,-0.433l-0.333,-0.433l-0.33,-0.433l-0.326,-0.431l-0.323,-0.431l-0.32,-0.429l-0.315,-0.429l-0.313,-0.428l-0.309,-0.427l-0.306,-0.426l-0.302,-0.424l-0.299,-0.423l-0.295,-0.423l-0.292,-0.42l-0.289,-0.42l-0.285,-0.418l-0.282,-0.417l-0.279,-0.415l-0.276,-0.413l-0.272,-0.412l-0.269,-0.411l-0.265,-0.408l-0.263,-0.407l-0.259,-0.405l-0.256,-0.403l-0.253,-0.402l-0.249,-0.399l-0.246,-0.397l-0.243,-0.396l-0.24,-0.393l-0.237,-0.391l-0.234,-0.388l-0.23,-0.387l-0.228,-0.384l-0.224,-0.382l-0.221,-0.379l-0.218,-0.377l-0.215,-0.375l-0.212,-0.371l-0.209,-0.37l-0.206,-0.366l-0.203,-0.364l-0.199,-0.361l-0.197,-0.358l-0.194,-0.355l-0.191,-0.353l-0.187,-0.349l-0.185,-0.347l-0.182,-0.343l-0.179,-0.34l-0.176,-0.337l-0.173,-0.334l-0.17,-0.33l-0.167,-0.328l-0.164,-0.323l-0.162,-0.321l-0.158,-0.317l-0.156,-0.313l-0.153,-0.309l-0.15,-0.307l-0.147,-0.302l-0.144,-0.299l-0.142,-0.294l-0.139,-0.292l-0.135,-0.287l-0.134,-0.283l-0.132,-0.283l-0.251,-0.542l-0.241,-0.53l-0.231,-0.513l-0.22,-0.495l-0.209,-0.478l-0.199,-0.459l-0.188,-0.441l-0.178,-0.422l-0.167,-0.402l-0.158,-0.383l-0.147,-0.363l-0.136,-0.341l-0.127,-0.321l-0.117,-0.3l-0.107,-0.277l-0.097,-0.256l-0.088,-0.232l-0.078,-0.21l-0.07,-0.192l-0.106,-0.293l-0.07,-0.199l-0.025,-0.073l-0.202,-0.704l-0.127,-0.722l-0.051,-0.731l0.025,-0.732l0.102,-0.726l0.178,-0.711l0.25,-0.688l0.321,-0.659l0.389,-0.621l0.451,-0.578l0.509,-0.527l0.561,-0.471l0.607,-0.409l0.647,-0.344l0.68,-0.275l0.704,-0.202l0.721,-0.127l0.731,-0.051l0.733,0.025l0.725,0.102l0.711,0.177l0.689,0.251l0.658,0.321l0.622,0.388l0.577,0.452l0.527,0.509l0.471,0.561l0.41,0.607l0.344,0.647l0.274,0.68l0.01,0.029l0.038,0.105l0.074,0.206l0.047,0.128l0.058,0.157l0.067,0.179l0.077,0.201l0.086,0.223l0.095,0.244l0.104,0.264l0.114,0.285l0.124,0.305l0.133,0.324l0.143,0.343l0.152,0.362l0.162,0.38l0.173,0.398l0.182,0.415l0.192,0.433l0.202,0.449l0.212,0.465l0.224,0.485l0.113,0.242l0.118,0.25l0.12,0.254l0.123,0.257l0.125,0.261l0.128,0.265l0.13,0.268l0.134,0.272l0.135,0.275l0.139,0.278l0.141,0.282l0.143,0.285l0.147,0.288l0.148,0.292l0.152,0.294l0.154,0.298l0.157,0.3l0.16,0.304l0.162,0.306l0.165,0.31l0.168,0.312l0.17,0.315l0.173,0.317l0.176,0.32l0.179,0.323l0.181,0.326l0.184,0.327l0.187,0.331l0.19,0.333l0.192,0.335l0.195,0.337l0.198,0.339l0.201,0.342l0.204,0.344l0.206,0.346l0.209,0.348l0.212,0.35l0.215,0.352l0.218,0.354l0.22,0.356l0.223,0.357l0.226,0.359l0.229,0.361l0.232,0.362l0.235,0.364l0.238,0.366l0.24,0.367l0.244,0.368l0.246,0.37l0.249,0.371l0.252,0.373l0.255,0.373l0.258,0.375l0.261,0.376l0.264,0.377l0.267,0.378l0.27,0.379l0.272,0.38l0.276,0.38l0.279,0.382l0.281,0.382l0.285,0.383l0.287,0.384l0.291,0.384l0.294,0.385l0.296,0.385l0.3,0.386l0.302,0.386l0.306,0.387l0.308,0.387l0.312,0.387l0.315,0.387l0.318,0.388l0.32,0.387l0.324,0.388l0.327,0.388l0.33,0.388l0.333,0.387l0.336,0.387l0.34,0.388l0.342,0.387l0.346,0.387l0.348,0.386l0.352,0.386l0.354,0.385l0.358,0.386l0.361,0.384l0.365,0.384l0.367,0.384l0.37,0.382l0.377,0.386l0.185,0.187l0.189,0.191l0.189,0.19l0.191,0.19l0.191,0.19l0.192,0.19l0.193,0.189l0.193,0.189l0.194,0.189l0.196,0.189l0.195,0.188l0.197,0.189l0.198,0.188l0.198,0.187l0.199,0.187l0.2,0.188l0.201,0.186l0.202,0.187l0.202,0.186l0.203,0.186l0.204,0.186l0.205,0.185l0.205,0.185l0.207,0.185l0.207,0.184l0.208,0.184l0.209,0.184l0.209,0.183l0.211,0.183l0.211,0.182l0.212,0.182l0.213,0.182l0.213,0.182l0.215,0.181l0.215,0.18l0.216,0.181l0.217,0.179l0.218,0.18l0.219,0.179l0.219,0.178l0.221,0.179l0.221,0.177l0.221,0.178l0.223,0.176l0.224,0.177l0.224,0.176l0.225,0.175l0.226,0.175l0.227,0.175l0.228,0.174l0.229,0.173l0.229,0.173l0.23,0.173l0.231,0.172l0.232,0.172l0.233,0.171l0.233,0.17l0.234,0.17l0.236,0.17l0.236,0.169l0.237,0.168l0.237,0.168l0.239,0.167l0.24,0.167l0.24,0.166l0.241,0.166l0.242,0.165l0.243,0.164l0.244,0.164l0.244,0.163l0.245,0.163l0.247,0.162l0.247,0.162l0.248,0.161l0.248,0.16l0.25,0.159l0.251,0.159l0.251,0.159l0.252,0.157l0.254,0.157l0.253,0.157l0.255,0.156l0.256,0.155l0.257,0.154l0.257,0.154l0.259,0.153l0.259,0.152l0.26,0.152l0.261,0.151l0.262,0.15l0.262,0.15l0.264,0.149l0.264,0.148l0.266,0.147l0.266,0.147l0.267,0.146l0.268,0.145l0.269,0.144l0.27,0.144l0.271,0.143l0.271,0.142l0.273,0.142l0.273,0.14l0.275,0.14l0.275,0.139l0.276,0.138l0.277,0.138l0.278,0.136l0.279,0.136l0.279,0.135l0.281,0.135l0.282,0.133l0.282,0.133l0.283,0.131l0.285,0.131l0.285,0.13l0.286,0.13l0.287,0.128l0.288,0.127l0.289,0.127l0.29,0.126l0.291,0.125l0.291,0.124l0.293,0.123l0.293,0.122l0.295,0.121l0.295,0.121l0.297,0.119l0.297,0.119l0.298,0.117l0.299,0.117l0.301,0.116l0.301,0.115l0.302,0.113l0.303,0.113l0.304,0.112l0.305,0.111l0.306,0.11l0.307,0.11l0.307,0.108l0.309,0.107l0.31,0.106l0.31,0.105l0.312,0.104l0.313,0.103l0.314,0.102l0.314,0.101l0.316,0.1l0.316,0.099l0.318,0.098l0.318,0.097l0.32,0.096l0.321,0.095l0.321,0.094l0.322,0.092l0.324,0.092l0.325,0.091l0.325,0.089l0.327,0.089l0.327,0.087l0.329,0.086l0.329,0.085l0.331,0.084l0.332,0.083l0.332,0.082l0.334,0.08l0.334,0.08l0.336,0.078l0.337,0.077l0.337,0.076l0.339,0.075l0.34,0.074l0.341,0.072l0.342,0.072l0.343,0.07l0.344,0.069l0.345,0.068l0.346,0.066l0.347,0.066l0.348,0.064l0.349,0.063l0.351,0.061l0.351,0.061l0.352,0.059l0.354,0.058l0.354,0.057l0.356,0.055l0.357,0.054l0.358,0.053l0.358,0.052l0.36,0.05l0.361,0.049l0.363,0.048l0.363,0.047l0.364,0.045l0.365,0.044l0.367,0.042l0.367,0.042l0.369,0.039l0.37,0.039l0.37,0.037l0.373,0.036l0.373,0.034l0.374,0.034l0.375,0.031l0.377,0.031l0.377,0.029l0.379,0.027l0.38,0.026l0.381,0.025l0.382,0.024l0.383,0.022l0.384,0.02l0.386,0.019l0.386,0.018l0.388,0.016l0.389,0.015l0.39,0.013l0.391,0.012l0.392,0.01l0.394,0.009l0.394,0.008l0.396,0.006l0.397,0.004l0.398,0.003l0.399,0.001l0.401,0l0.401,-0.002l0.403,-0.003l0.404,-0.004l0.404,-0.007l0.403,-0.007l0.401,-0.009l0.4,-0.011l0.4,-0.012l0.398,-0.013l0.396,-0.015l0.396,-0.017l0.394,-0.017l0.394,-0.019l0.392,-0.021l0.391,-0.022l0.389,-0.023l0.389,-0.025l0.387,-0.026l0.386,-0.027l0.385,-0.029l0.384,-0.03l0.383,-0.031l0.381,-0.033l0.381,-0.034l0.379,-0.035l0.378,-0.037l0.377,-0.038l0.376,-0.04l0.375,-0.04l0.373,-0.042l0.373,-0.043l0.371,-0.045l0.37,-0.046l0.369,-0.047l0.368,-0.048l0.366,-0.05l0.366,-0.051l0.364,-0.052l0.364,-0.053l0.362,-0.055l0.361,-0.055l0.36,-0.057l0.359,-0.059l0.358,-0.059l0.356,-0.061l0.356,-0.062l0.355,-0.063l0.353,-0.064l0.352,-0.065l0.351,-0.067l0.35,-0.068l0.349,-0.069l0.348,-0.07l0.347,-0.071l0.346,-0.072l0.345,-0.074l0.343,-0.074l0.343,-0.076l0.341,-0.077l0.341,-0.078l0.339,-0.079l0.338,-0.08l0.337,-0.081l0.336,-0.083l0.336,-0.083l0.334,-0.085l0.333,-0.086l0.331,-0.086l0.331,-0.088l0.33,-0.089l0.329,-0.09l0.328,-0.091l0.326,-0.092l0.326,-0.093l0.324,-0.094l0.324,-0.095l0.323,-0.096l0.321,-0.097l0.321,-0.098l0.319,-0.099l0.319,-0.1l0.317,-0.101l0.317,-0.102l0.315,-0.103l0.314,-0.104l0.314,-0.105l0.312,-0.106l0.312,-0.107l0.31,-0.108l0.309,-0.109l0.309,-0.109l0.307,-0.111l0.307,-0.112l0.305,-0.112l0.304,-0.113l0.304,-0.115l0.302,-0.115l0.302,-0.116l0.3,-0.117l0.3,-0.118l0.298,-0.119l0.297,-0.12l0.297,-0.12l0.296,-0.122l0.294,-0.122l0.294,-0.123l0.293,-0.124l0.292,-0.125l0.29,-0.126l0.29,-0.126l0.289,-0.128l0.288,-0.128l0.287,-0.129l0.286,-0.13l0.285,-0.13l0.284,-0.132l0.283,-0.132l0.282,-0.133l0.281,-0.134l0.281,-0.135l0.279,-0.135l0.278,-0.136l0.278,-0.137l0.276,-0.138l0.276,-0.138l0.275,-0.139l0.274,-0.14l0.272,-0.141l0.272,-0.142l0.271,-0.142l0.271,-0.143l0.269,-0.143l0.268,-0.144l0.267,-0.145l0.267,-0.146l0.265,-0.147l0.265,-0.147l0.263,-0.148l0.263,-0.148l0.262,-0.149l0.261,-0.15l0.26,-0.151l0.259,-0.151l0.258,-0.151l0.258,-0.153l0.256,-0.153l0.256,-0.154l0.254,-0.154l0.254,-0.155l0.253,-0.156l0.252,-0.156l0.251,-0.157l0.251,-0.157l0.249,-0.158l0.248,-0.159l0.248,-0.16l0.247,-0.159l0.246,-0.161l0.245,-0.161l0.243,-0.161l0.244,-0.162l0.242,-0.163l0.242,-0.164l0.24,-0.163l0.24,-0.165l0.238,-0.165l0.238,-0.165l0.238,-0.166l0.236,-0.166l0.235,-0.167l0.235,-0.168l0.233,-0.168l0.233,-0.168l0.232,-0.169l0.231,-0.17l0.23,-0.17l0.23,-0.17l0.228,-0.171l0.228,-0.172l0.227,-0.172l0.226,-0.172l0.225,-0.173l0.224,-0.173l0.223,-0.174l0.223,-0.174l0.222,-0.174l0.221,-0.175l0.22,-0.176l0.219,-0.175l0.218,-0.176l0.217,-0.177l0.217,-0.177l0.216,-0.177l0.215,-0.178l0.214,-0.178l0.214,-0.179l0.212,-0.179l0.212,-0.179l0.211,-0.18l0.21,-0.18l0.209,-0.18l0.208,-0.181l0.208,-0.181l0.207,-0.181l0.205,-0.182l0.205,-0.181l0.205,-0.183l0.203,-0.182l0.203,-0.183l0.202,-0.183l0.2,-0.184l0.201,-0.184l0.199,-0.184l0.199,-0.184l0.197,-0.185l0.197,-0.184l0.196,-0.186l0.196,-0.185l0.194,-0.185l0.194,-0.187l0.193,-0.186l0.192,-0.186l0.191,-0.186l0.19,-0.187l0.19,-0.187l0.189,-0.187l0.188,-0.188l0.187,-0.187l0.183,-0.185l0.374,-0.379l0.367,-0.377l0.365,-0.377l0.361,-0.378l0.357,-0.379l0.355,-0.379l0.351,-0.379l0.349,-0.38l0.345,-0.38l0.342,-0.381l0.339,-0.381l0.336,-0.381l0.333,-0.381l0.329,-0.382l0.327,-0.381l0.323,-0.382l0.321,-0.381l0.317,-0.382l0.314,-0.381l0.311,-0.381l0.309,-0.381l0.305,-0.381l0.302,-0.38l0.299,-0.38l0.296,-0.38l0.293,-0.38l0.29,-0.378l0.287,-0.379l0.284,-0.377l0.281,-0.378l0.278,-0.376l0.275,-0.375l0.273,-0.375l0.269,-0.375l0.266,-0.373l0.263,-0.372l0.261,-0.371l0.257,-0.371l0.255,-0.369l0.251,-0.368l0.249,-0.367l0.246,-0.366l0.243,-0.364l0.24,-0.364l0.238,-0.362l0.234,-0.36l0.231,-0.359l0.229,-0.358l0.226,-0.356l0.223,-0.354l0.22,-0.353l0.218,-0.351l0.214,-0.349l0.212,-0.348l0.209,-0.345l0.206,-0.344l0.203,-0.342l0.201,-0.34l0.198,-0.338l0.195,-0.335l0.193,-0.334l0.189,-0.331l0.187,-0.33l0.185,-0.327l0.181,-0.324l0.179,-0.322l0.176,-0.32l0.173,-0.318l0.171,-0.314l0.168,-0.312l0.166,-0.31l0.162,-0.307l0.161,-0.304l0.157,-0.301l0.155,-0.299l0.152,-0.296l0.15,-0.292l0.147,-0.29l0.144,-0.287l0.142,-0.284l0.139,-0.28l0.137,-0.278l0.134,-0.274l0.132,-0.271l0.129,-0.268l0.127,-0.264l0.124,-0.261l0.121,-0.257l0.119,-0.254l0.117,-0.251l0.113,-0.246l0.112,-0.243l0.107,-0.236l0.213,-0.471l0.201,-0.452l0.191,-0.436l0.181,-0.42l0.172,-0.403l0.163,-0.386l0.153,-0.369l0.143,-0.351l0.135,-0.333l0.125,-0.314l0.116,-0.295l0.107,-0.275l0.098,-0.256l0.089,-0.236l0.08,-0.215l0.072,-0.194l0.063,-0.174l0.054,-0.15l0.043,-0.123l0.069,-0.198l0.034,-0.1l0.009,-0.027l0.266,-0.683l0.336,-0.651l0.403,-0.612l0.464,-0.567l0.521,-0.515l0.572,-0.458l0.617,-0.395l0.655,-0.329l0.685,-0.259l0.709,-0.185l0.724,-0.111l0.732,-0.034l0.732,0.042Z" style="fill:#fff;"/><ellipse cx="203.995" cy="119.99" rx="14.811" ry="19.61" style="fill:#fff;stroke:#fff;stroke-width:10.49px;"/><ellipse cx="303.315" cy="119.99" rx="14.811" ry="19.61" style="fill:#fff;stroke:#fff;stroke-width:10.49px;"/></g></svg>