<?xml version="1.0" encoding="UTF-8" standalone="no"?><!DOCTYPE svg PUBLIC "-//W3C//DTD SVG 1.1//EN" "http://www.w3.org/Graphics/SVG/1.1/DTD/svg11.dtd"><svg width="100%" height="100%" viewBox="0 0 512 512" version="1.1" xmlns="http://www.w3.org/2000/svg" xmlns:xlink="http://www.w3.org/1999/xlink" xml:space="preserve" style="fill-rule:evenodd;clip-rule:evenodd;stroke-linecap:round;stroke-linejoin:round;stroke-miterlimit:1.5;"><path d="M256,512c0,0 37.286,-76.243 58,-125c22.947,-54.013 116.303,-132.653 117,-214c0.697,-81.347 -74.932,-176.412 -175,-173c-100.068,3.412 -178.828,83.872 -177,173c1.828,89.128 88.887,159.289 119,214c21.841,39.682 58,125 58,125" style="fill:#673ab7;"/><g><ellipse cx="256.269" cy="171.146" rx="140.269" ry="137.269" style="fill:none;stroke:#fff;stroke-width:14px;"/><ellipse cx="256.671" cy="219.557" rx="43.675" ry="47.49" style="fill:#fff;"/><g><ellipse cx="217.848" cy="134.074" rx="14.558" ry="18.996" style="fill:#fff;"/><path d="M227.238,123.16c1.129,-1.626 0.708,-3.836 -0.939,-4.932l-29.73,-19.781c-1.647,-1.096 -3.902,-0.666 -5.031,0.959l-4.093,5.891c-1.13,1.626 -0.709,3.836 0.939,4.932l29.729,19.781c1.648,1.096 3.903,0.666 5.032,-0.959l4.093,-5.891Z" style="fill:#fff;"/></g><g><ellipse cx="300.346" cy="134.074" rx="14.558" ry="18.996" style="fill:#fff;"/><path d="M290.956,123.16c-1.129,-1.626 -0.708,-3.836 0.94,-4.932l29.729,-19.781c1.648,-1.096 3.902,-0.666 5.032,0.959l4.092,5.891c1.13,1.626 0.709,3.836 -0.939,4.932l-29.729,19.781c-1.648,1.096 -3.902,0.666 -5.032,-0.959l-4.093,-5.891Z" style="fill:#fff;"/></g></g></svg>