<?xml version="1.0" encoding="UTF-8" standalone="no"?><!DOCTYPE svg PUBLIC "-//W3C//DTD SVG 1.1//EN" "http://www.w3.org/Graphics/SVG/1.1/DTD/svg11.dtd"><svg width="100%" height="100%" viewBox="0 0 512 512" version="1.1" xmlns="http://www.w3.org/2000/svg" xmlns:xlink="http://www.w3.org/1999/xlink" xml:space="preserve" style="fill-rule:evenodd;clip-rule:evenodd;stroke-linecap:round;stroke-linejoin:round;stroke-miterlimit:1.5;"><path d="M256,512c0,0 37.286,-76.243 58,-125c22.947,-54.013 116.303,-132.653 117,-214c0.697,-81.347 -74.932,-176.412 -175,-173c-100.068,3.412 -178.828,83.872 -177,173c1.828,89.128 88.887,159.289 119,214c21.841,39.682 58,125 58,125" style="fill:#673ab7;"/><g><ellipse cx="256.269" cy="171.146" rx="140.269" ry="137.269" style="fill:none;stroke:#fff;stroke-width:14px;"/><ellipse cx="212.526" cy="126.598" rx="18.557" ry="20.755" style="fill:#fff;stroke:#fff;stroke-width:9px;"/><ellipse cx="302.661" cy="126.598" rx="18.557" ry="20.755" style="fill:#fff;stroke:#fff;stroke-width:9px;"/><path d="M156.855,168.108c0,0 6.009,101.316 95.437,103.773c98.19,2.697 107.084,-102.331 106.041,-103.773c-0.133,-0.184 -18.128,30.818 -95.437,31.131c-77.309,0.314 -106.041,-31.131 -106.041,-31.131Z" style="fill:#fff;"/></g></svg>