<?xml version="1.0" encoding="UTF-8" standalone="no"?><!DOCTYPE svg PUBLIC "-//W3C//DTD SVG 1.1//EN" "http://www.w3.org/Graphics/SVG/1.1/DTD/svg11.dtd"><svg width="100%" height="100%" viewBox="0 0 512 512" version="1.1" xmlns="http://www.w3.org/2000/svg" xmlns:xlink="http://www.w3.org/1999/xlink" xml:space="preserve" style="fill-rule:evenodd;clip-rule:evenodd;stroke-linecap:round;stroke-linejoin:round;stroke-miterlimit:1.5;"><path d="M256,512c0,0 37.286,-76.243 58,-125c22.947,-54.013 116.303,-132.653 117,-214c0.697,-81.347 -74.932,-176.412 -175,-173c-100.068,3.412 -178.828,83.872 -177,173c1.828,89.128 88.887,159.289 119,214c21.841,39.682 58,125 58,125" style="fill:#673ab7;"/><g><ellipse cx="256.269" cy="171.146" rx="140.269" ry="137.269" style="fill:none;stroke:#fff;stroke-width:14px;"/><ellipse cx="206.257" cy="142.378" rx="20.005" ry="22.84" style="fill:#fff;"/><path d="M196.865,263.103c0,0 40.562,-13.067 60.014,-13.051c19.453,0.016 60.015,13.051 60.015,13.051c0,0 -17.644,-46.717 -60.015,-45.68c-42.371,1.038 -56.586,22.541 -60.014,45.68" style="fill:#fff;"/><path d="M208.005,81.355c-1.292,-1.282 -3.404,-1.296 -4.714,-0.032l-42.722,41.252c-1.309,1.264 -1.323,3.331 -0.03,4.613l4.683,4.645c1.293,1.282 3.405,1.297 4.714,0.033l42.722,-41.253c1.31,-1.264 1.323,-3.331 0.031,-4.613l-4.684,-4.645Z" style="fill:#fff;"/><ellipse cx="306.281" cy="142.378" rx="20.005" ry="22.84" style="fill:#fff;"/><path d="M304.532,81.355c1.293,-1.282 3.405,-1.296 4.714,-0.032l42.722,41.252c1.309,1.264 1.323,3.331 0.031,4.613l-4.684,4.645c-1.292,1.282 -3.405,1.297 -4.714,0.033l-42.722,-41.253c-1.309,-1.264 -1.323,-3.331 -0.03,-4.613l4.683,-4.645Z" style="fill:#fff;"/></g></svg>